<svg width="779" height="872" viewBox="0 0 779 872" fill="none" xmlns="http://www.w3.org/2000/svg">
<g id="Left Arm / Out">
<path id="Union" fill-rule="evenodd" clip-rule="evenodd" d="M609.267 8.0321C618.362 -7.87303 632.502 1.81874 632.005 19.8895C631.685 37.6408 625.717 54.3274 619.375 69.8065C618.419 71.7103 617.56 73.7423 616.688 75.7694C617.395 75.5956 618.1 75.4364 618.771 75.2391C632.076 71.3516 645.381 67.4814 658.668 63.4696C679.221 56.5644 698.832 45.6121 719.882 41.121C727.947 39.1151 736.474 36.7191 744.609 39.1688C750.56 41.8138 756.599 50.1739 753.509 58.5702C748.89 67.5168 740.364 72.0261 732.743 75.6473C723.062 79.9275 713.311 84.0053 703.68 88.493C713.782 87.3445 723.863 86.0196 734.021 86.4755C747.185 86.1026 784.292 75.8956 777.24 106.516C772.835 120.558 759.654 118.747 749.938 120.238C745.696 120.582 741.47 121.061 737.256 121.651C744.989 121.755 752.776 121.917 760.295 123.931C771.947 126.913 772.747 143.492 763.208 150.734C756.316 156.273 748.144 156.699 740.257 157.125C735.549 157.53 730.872 158.377 726.171 158.876C729.26 159.191 732.341 159.819 735.034 161.864C745.763 169.976 734.892 187.781 725.673 189.023C709.17 192.574 692.312 192.804 675.721 195.378C670.701 195.939 666.039 197.458 661.111 197.85C654.313 200.268 647.55 202.812 640.903 205.835C629.304 211.497 616.922 213.574 604.559 213.574C601.788 213.574 598.999 213.468 596.21 213.272C584.045 212.421 571.15 213.294 559.526 208.378C559.412 211.236 559.928 214.231 558.569 216.876C558.07 217.885 557.272 218.732 556.333 219.326C556.306 219.414 556.276 219.502 556.242 219.59C553.524 224.187 547.698 226.336 543.47 229.407C540.997 230.672 538.176 232.678 535.308 233.298C535.166 235.409 534.825 237.46 534.481 239.011C531.071 260.49 508.848 271.212 492.949 283.088C452.501 309.413 409.868 328.247 365.477 345.803C331.17 359.403 295.482 373.313 257.89 369.637C235.181 368.349 213.321 362.521 190.858 359.542C162.259 355.406 133.499 351.554 105.361 344.915C96.5505 342.518 87.7042 339.429 79.373 335.932C100.974 336.074 122.788 334.708 144.246 337.743C165.545 341.187 186.951 344.099 208.268 347.472C230.525 351.483 252.943 356.755 275.698 355.264C317.035 351.554 354.41 331.034 392.727 316.655C434.489 297.91 477.921 280.283 513.378 250.656C524.409 243.644 520.661 230.313 527.411 223.763C528.017 223.536 528.58 223.374 529.103 223.271C530.554 221.794 532.804 221.189 534.677 220.247C539.14 218.614 543.477 216.301 548.006 214.795C547.745 213.137 547.917 211.36 548.124 209.669C548.55 204.485 548.355 199.266 547.894 194.083C545.531 177.645 541.801 161.261 534.162 146.438C530.982 140.705 527.234 135.291 522.775 130.48C521.779 129.299 520.607 128.442 519.536 127.541C519.366 127.589 519.196 127.639 519.027 127.692C512.632 129.822 506.415 132.432 500.108 134.828C498.918 135.733 497.373 136.177 495.827 136.017C494.032 135.85 492.629 134.979 491.688 133.766C482.951 127.193 476.006 126.343 465.257 128.616C446.676 132.557 429.001 139.675 411.237 146.261C374.804 159.84 339.347 175.923 302.167 187.462C288.471 191.669 274.349 197.243 259.783 196.178C251.736 194.367 245.554 188.048 238.715 183.717C231.023 178.161 223.456 172.426 215.906 166.675C185.53 144.468 161.851 114.895 135.01 88.8182C129.059 82.9426 123.268 76.8894 117.14 71.1913C110.567 65.2091 102.591 61.1613 95.4854 55.9247C90.3341 52.41 85.6268 47.5463 84.1523 41.3514C90.565 41.0497 96.5689 43.7299 101.383 47.7948C106.303 51.4337 111.508 54.4512 116.518 57.9481C123.89 63.2557 129.965 70.0548 136.165 76.6405C165.457 105.415 191.073 138.469 224.558 162.61C231.841 168.078 239.141 173.51 246.744 178.533C252.642 182.208 258.433 187.87 265.911 186.717C283.106 185.084 299.805 178.284 315.846 173.154C343.628 164.012 370.096 151.516 397.576 141.575C419.426 134.297 467.335 111.096 487.71 120.557C489.864 121.503 491.818 122.782 493.74 124.125C497.334 122.288 501.438 121.738 505.296 120.681C510.767 119.598 516.842 116.846 522.331 118.976C523.296 119.443 524 120.273 524.39 121.228C526.911 122.874 529.584 125.459 532.103 128.318C534.653 125.815 537.19 123.262 539.42 120.273C544.802 113.137 549.261 104.333 553.613 96.8417C558.036 89.2441 562.46 81.6107 567.735 74.954C572.674 68.528 578.447 63.3801 583.51 57.1317C587.364 52.0549 591.006 46.6408 594.328 40.996C600.492 30.8779 602.996 18.0082 609.267 8.0321ZM621.382 32.3505C624.792 16.3035 622.305 -0.0448354 612.5 23.1913C607.757 35.901 602.322 48.1494 594.435 58.161C588.093 67.8532 579.743 74.8831 572.922 83.954C563.116 96.6282 557.183 111.521 547.573 123.965C544.418 128.019 540.909 131.556 537.142 134.612C539.145 137.342 540.82 139.897 541.907 141.734C549.777 155.403 553.56 171.024 557.184 186.255C558.299 191.423 558.978 196.681 559.303 201.959C560.139 201.765 560.975 201.598 561.801 201.45C568.285 200.651 574.769 201.433 581.253 202.214C585.942 202.782 590.632 203.332 595.321 203.314C607.063 203.936 619.036 203.954 630.494 200.297C640.531 196.498 650.461 192.22 660.746 189.521C661.651 189.202 662.592 188.909 663.532 188.811C669.949 187.116 676.461 186.179 682.986 185.42C696.807 183.751 710.929 184.035 724.519 180.29C726.597 179.331 727.982 178.87 729.51 177.183C730.718 175.036 734.377 170.509 731.073 168.911C726.099 166.39 720.503 167.101 715.245 166.675C708.833 166.479 702.58 166.693 696.238 167.261C691.673 167.704 687.107 168.13 682.542 168.503C681.323 168.681 679.868 168.595 678.596 168.059C675.87 169.204 673.159 170.402 670.463 171.645C669.859 172.373 669.024 172.728 668.189 172.728C667.745 172.728 667.283 172.604 666.839 172.355C662.718 169.267 665.312 163.462 669.326 162.823C679.327 158.581 689.577 155.599 699.827 152.581C711.942 149.705 724.27 151.835 736.385 148.995C743.455 147.93 750.791 148.107 757.363 144.096C759.406 142.924 761.591 141.504 762.337 138.575C762.763 137.155 763.066 135.184 761.84 134.297C759.566 132.362 756.564 131.758 753.917 131.421C744.875 130.196 735.798 129.859 726.703 129.753C722.014 129.629 717.324 129.326 712.635 129.308C710.241 129.433 707.681 129.085 705.434 127.915C704.215 128.21 702.997 128.509 701.78 128.812C697.588 129.895 692.88 131.67 688.919 133.215C686.308 133.925 683.412 135.681 680.677 135.682C679.593 135.682 678.581 135.433 677.604 134.776C673.909 131.794 677.159 126.895 680.552 126.931C682.328 126.824 684.762 126.149 686.201 125.652C700.714 120.132 715.743 117.096 730.646 114.025C741.642 112.889 752.656 111.77 763.58 109.765C767.861 109.09 772.924 102.966 770.579 97.2323C765.73 92.5639 758.642 93.4513 752.939 93.2206C737.414 94.7472 721.835 95.2796 706.381 96.8417C699.968 97.4097 693.573 98.1379 687.196 99.0077C685.771 99.3638 683.843 99.3427 682.432 98.4423C679.974 99.3525 677.395 100.423 675.952 103.357C675.171 105.097 673.732 106.162 672.436 106.162C671.139 106.162 670.002 105.167 669.664 102.824C668.936 98.3687 672.383 95.0846 674.94 92.9012C679.879 89.937 685.367 88.5881 690.341 85.6239C703.859 78.5234 718.443 72.8779 732.015 66.452C737.344 63.6118 742.531 59.6535 746.297 54.0087C746.599 52.9436 745.835 52.1443 745.32 51.452C744.095 49.8899 742.691 48.4705 740.896 48.3817C725.993 47.7428 711.604 53.8135 697.287 58.3046C685.972 62.4761 674.78 67.1271 663.678 72.0087C653.837 74.8666 643.853 77.2451 633.994 80.1385C627.475 81.6119 621.027 84.3101 614.419 84.8426C613.834 84.782 613.099 84.5647 612.412 84.2069C611.993 84.8315 611.551 85.4301 611.079 85.995C608.272 88.6399 604.435 87.2196 604.222 82.409C604.009 80.0307 604.844 77.812 605.892 75.9305C607.561 72.6111 609.178 69.2384 610.706 65.7948C615.183 54.9488 618.93 44.0663 621.382 32.3505Z" fill="black"/>
<path id="Clothing 1" d="M547.893 194.084C548.337 199.267 548.55 204.486 548.124 209.669C547.911 211.356 547.751 213.131 547.999 214.799C543.47 216.308 539.135 218.616 534.659 220.249C532.758 221.208 530.502 221.811 529.046 223.302C528.53 223.409 527.997 223.551 527.393 223.782C520.661 230.332 524.391 243.663 513.378 250.675C477.921 280.284 434.489 297.929 392.726 316.674C354.392 331.052 317.035 351.573 275.698 355.283C252.925 356.774 230.525 351.502 208.267 347.49C186.951 344.117 165.545 341.206 144.246 337.762C124.902 335.029 105.273 335.863 85.768 335.952L85.1817 333.981L84.489 331.567L83.814 329.171L83.1567 326.757L82.5172 324.307L81.8955 321.822L81.2738 319.283L80.652 316.656L80.0303 313.976L79.4263 311.26L78.8046 308.508L78.2006 305.775L77.6144 303.112L77.046 300.485L76.4953 297.911L75.9623 295.39L75.4294 292.887L74.8965 290.402L74.3814 287.935L73.8662 285.467L73.3511 283L72.8536 280.497L72.3741 277.976L71.9122 275.438L71.4503 272.846L71.0063 270.183L70.5622 267.467L70.1181 264.734L69.674 261.982L69.2477 259.248L68.8213 256.568L68.4127 253.976L68.0042 251.438L67.6134 248.971L67.2403 246.574L66.885 244.231L66.5475 241.923L66.2278 239.616L65.9081 237.272L65.5883 234.894L65.2686 232.426L64.9488 229.906L64.6291 227.314L64.3093 224.634L64.0073 221.864L63.7231 219.024L63.4566 216.166L63.2079 213.362L62.9948 210.575L62.8172 207.859L62.6573 205.178L62.5152 202.516L62.3909 199.853L62.2843 197.208L62.1954 194.563L62.1244 191.9L62.0533 189.202L62.0178 186.468L62 183.735V181.001L62.0178 178.267L62.0533 175.516L62.1244 172.729L62.2132 169.906L62.3375 167.084L62.4797 164.297L62.6395 161.546L62.8172 158.83L63.0125 156.149L63.2079 153.504L63.4211 150.877L63.652 148.285L63.9007 145.712L64.1672 143.138L64.4514 140.546L64.7534 137.919L65.0732 135.292L65.4107 132.629L65.7837 129.966L66.1746 127.286L66.5831 124.605L66.9916 121.943L67.4003 119.315L67.8088 116.741L68.2173 114.256L68.626 111.842L69.0523 109.499L69.4786 107.209L69.9227 104.972L70.4023 102.771L70.8997 100.588L71.4148 98.4399L71.9478 96.3275L72.5162 94.2329L73.0846 92.1915L73.6708 90.2034L74.2748 88.2151L74.8787 86.227L75.5182 84.1857L76.1578 82.0911L76.815 79.9609L77.4901 77.7952L78.1828 75.6118L78.8756 73.4284L79.5684 71.316L80.2612 69.2924L80.954 67.3574L81.6467 65.4936L82.3396 63.683L83.0502 61.9433L83.7606 60.2569L84.4712 58.6416L85.164 57.0795L85.8391 55.6061L86.4963 54.2038L87.1358 52.8724L87.7753 51.5766L88.4147 50.2807L88.5747 49.9258C90.5464 52.2512 92.9268 54.2748 95.4137 55.9611C102.519 61.2155 110.495 65.245 117.068 71.245C123.196 76.9431 128.987 82.9964 134.938 88.872C161.779 114.931 185.458 144.504 215.834 166.729C223.384 172.48 230.951 178.214 238.643 183.77C245.465 188.084 251.646 194.403 259.693 196.232C274.26 197.314 288.364 191.741 302.078 187.551C339.257 176.013 374.714 159.93 411.147 146.351C428.911 139.765 446.586 132.647 465.167 128.706C475.949 126.416 482.895 127.286 491.671 133.907C492.612 135.079 493.98 135.913 495.738 136.073C497.284 136.232 498.829 135.789 500.037 134.901C506.343 132.505 512.561 129.895 518.956 127.765C519.116 127.712 519.275 127.658 519.453 127.605C520.519 128.511 521.691 129.363 522.686 130.552C527.145 135.363 530.893 140.759 534.073 146.493C541.8 161.244 545.548 177.646 547.893 194.084Z" fill="white"/>
<path id="Skin" d="M770.579 97.2312C772.924 102.965 767.861 109.071 763.58 109.746C752.655 111.752 741.66 112.888 730.646 114.024C715.742 117.095 700.696 120.13 686.201 125.633C684.762 126.148 682.328 126.805 680.552 126.911C677.159 126.894 673.908 131.775 677.603 134.757C678.58 135.414 679.593 135.68 680.641 135.68C683.376 135.68 686.272 133.923 688.883 133.213C692.845 131.686 697.552 129.894 701.744 128.828C702.988 128.509 704.213 128.207 705.457 127.905C707.713 129.077 710.253 129.432 712.651 129.308C717.341 129.325 722.031 129.627 726.72 129.752C735.815 129.858 744.893 130.195 753.934 131.42C756.563 131.757 759.565 132.361 761.857 134.296C763.083 135.183 762.781 137.154 762.354 138.574C761.608 141.503 759.423 142.941 757.38 144.095C750.808 148.106 743.489 147.929 736.419 148.994C724.304 151.834 711.976 149.704 699.844 152.58C689.594 155.597 679.344 158.58 669.343 162.822C665.329 163.479 662.717 169.284 666.838 172.372C667.282 172.621 667.744 172.727 668.224 172.727C669.041 172.727 669.876 172.354 670.48 171.644C673.18 170.402 675.88 169.195 678.598 168.059C679.877 168.591 681.334 168.698 682.542 168.52C687.107 168.148 691.654 167.721 696.22 167.278C702.561 166.71 708.814 166.497 715.227 166.692C720.467 167.118 726.081 166.408 731.055 168.929C734.359 170.526 730.699 175.053 729.491 177.201C727.964 178.887 726.578 179.348 724.5 180.307C710.893 184.053 696.788 183.769 682.968 185.437C676.431 186.201 669.894 187.124 663.481 188.828C662.557 188.934 661.634 189.218 660.728 189.538C650.443 192.236 640.512 196.532 630.476 200.313C619.018 203.952 607.045 203.952 595.304 203.33C590.614 203.366 585.907 202.798 581.217 202.23C574.715 201.449 568.249 200.668 561.766 201.467C560.948 201.609 560.114 201.786 559.279 201.964C558.959 196.691 558.266 191.437 557.165 186.272C553.541 171.041 549.757 155.42 541.888 141.751C540.804 139.905 539.117 137.349 537.109 134.615C540.875 131.562 544.393 128.03 547.554 123.965C557.165 111.521 563.098 96.6277 572.903 83.9533C579.725 74.8824 588.074 67.8529 594.415 58.1607C602.302 48.149 607.738 35.9007 612.481 23.1908C622.287 -0.0455961 624.792 16.3033 621.381 32.3504C618.912 44.0485 615.164 54.9478 610.705 65.7938C609.195 69.2376 607.578 72.6102 605.891 75.9297C604.843 77.8113 604.008 80.0303 604.221 82.409C604.434 87.2195 608.271 88.6218 611.078 85.9946C611.557 85.4266 612.002 84.8231 612.41 84.2019C613.103 84.5569 613.831 84.7699 614.4 84.8409C620.99 84.3083 627.456 81.6101 633.975 80.1545C643.834 77.2611 653.818 74.9001 663.659 72.0244C674.779 67.1428 685.97 62.492 697.286 58.3027C711.585 53.8117 725.992 47.723 740.896 48.3798C742.69 48.4686 744.111 49.8709 745.319 51.4508C745.834 52.1431 746.598 52.9419 746.296 54.007C742.53 59.6519 737.343 63.6104 732.014 66.4506C718.442 72.8766 703.858 78.5392 690.34 85.6219C685.366 88.6041 679.877 89.9354 674.939 92.8999C672.381 95.0833 668.934 98.3673 669.681 102.823C670.018 105.166 671.155 106.16 672.416 106.16C673.713 106.16 675.152 105.095 675.933 103.355C677.372 100.426 679.966 99.3436 682.435 98.4383C683.838 99.3258 685.757 99.3614 687.196 99.0063C693.573 98.1365 699.986 97.4088 706.381 96.8407C721.853 95.2786 737.432 94.7638 752.939 93.2194C758.642 93.4502 765.729 92.5449 770.579 97.2312Z" fill="#B7B5B5"/>
</g>
</svg>
