<svg width="1527" height="2239" viewBox="0 0 1527 2239" fill="none" xmlns="http://www.w3.org/2000/svg">
<g id="Left Arm / Pushing Stroller">
<g id="Union">
<path d="M808.795 1878.54C809.521 1879.07 810.425 1879.37 811.435 1879.28C815.334 1879.53 819.162 1880.54 822.848 1881.78C836.565 1886.66 848.634 1895.09 859.55 1904.57C878.548 1920.72 894.87 1941.38 904.422 1964.69C911.475 1982.73 916.083 2001.76 918.989 2020.9C921.027 2036.12 920.548 2051.5 919.733 2066.8C918.174 2096.13 903.624 2137.14 875.907 2152.57C874.489 2153.69 872.965 2154.58 871.282 2155.23C869.953 2155.75 868.553 2156.08 867.171 2156.42C866.479 2156.63 865.806 2156.84 865.115 2157.04C864.158 2157.23 863.183 2157.36 862.226 2157.41C862.226 2157.38 862.209 2157.34 862.209 2157.3C861.376 2157.39 860.542 2157.43 859.727 2157.46C859.32 2157.48 858.93 2157.48 858.522 2157.48C858.115 2157.48 857.707 2157.48 857.282 2157.46C856.467 2157.45 855.651 2157.39 854.836 2157.34C854.428 2157.3 854.02 2157.29 853.613 2157.23C852.178 2157.09 850.706 2156.92 849.289 2156.65C848.899 2156.58 848.527 2156.49 848.137 2156.38C847.783 2156.29 847.428 2156.19 847.074 2156.1C846.826 2156.03 846.595 2155.94 846.347 2155.87C845.94 2155.73 845.532 2155.6 845.107 2155.44C842.75 2154.59 840.446 2153.62 838.16 2152.59C836.76 2151.95 835.449 2151.23 834.137 2150.43C831.036 2149.14 828.183 2147.33 825.471 2145.34C821.573 2143.11 817.869 2140.56 814.395 2137.76C783.081 2111.46 764.491 2068.93 755.86 2029.64C748.949 1988.82 748.611 1943.92 770.019 1906.96C777.516 1895.71 786.483 1883.48 800.2 1879.83C803.142 1878.96 805.977 1878.63 808.795 1878.54Z" fill="#949494"/>
<path fill-rule="evenodd" clip-rule="evenodd" d="M720.983 1886.04C748.292 1843.87 785.509 1812.68 838.586 1821.42C839.135 1821.51 839.684 1821.58 840.233 1821.69C845.514 1823.05 850.796 1824.49 856.042 1825.94C898.007 1842.63 930.207 1877.37 953.033 1915.51C968.132 1942.57 978.358 1972.13 986.12 2002.08C995.725 2040.94 1002.42 2082.89 991.046 2122.09C983.567 2146.92 970.897 2169.94 953.246 2189.01C942.418 2201.54 929.534 2212.26 914.647 2219.65C906.389 2223.62 897.475 2226.35 888.383 2227.55C884.361 2227.48 880.32 2227.38 876.35 2227.2C856.91 2226.44 838.426 2219.33 821.413 2210.17C791.18 2194.13 766.351 2169.64 746.326 2142.13C710.351 2089.34 696.403 2039.19 697.732 1975.41C698.423 1957.97 700.585 1940.99 702.8 1923.78C707.975 1910.78 713.735 1897.98 720.983 1886.04ZM807.998 1869.2C783.418 1868.77 765.767 1890.02 754.868 1909.8C743.349 1931.56 739.254 1956.5 738.085 1980.87C736.791 2017.66 744.73 2054.46 760.503 2087.71C774.361 2116.72 794.67 2147.84 826.038 2158.47C834.083 2165.62 842.484 2171.29 854.198 2172.05C856.13 2172.33 858.044 2172.47 859.923 2172.47C878.743 2172.47 894.745 2158.56 905.786 2144.12C917.659 2129.62 923.596 2111.39 927.938 2093.42C934.442 2057.07 933.131 2019.22 922.587 1983.75C914.7 1953.91 899.353 1926.18 876.794 1904.91C860.578 1889.56 841.651 1874.14 819.038 1870.51C815.6 1869.29 811.577 1869.45 807.998 1869.2Z" fill="#949494"/>
<path d="M1314.43 1744.15C1337.74 1731.31 1360.23 1732.17 1385.53 1737.31C1415.93 1742.84 1442.46 1760.48 1464.25 1781.74C1464.94 1782.41 1465.62 1783.11 1466.29 1783.8C1466.88 1784.63 1467.46 1785.46 1468.06 1786.28C1475.51 1796.1 1482.51 1806.25 1488.44 1817.06C1502.89 1844.44 1512.3 1874.73 1515.24 1905.55C1516.94 1924.46 1515.35 1944.89 1513.02 1963.96C1512.65 1966.92 1512.26 1969.9 1511.84 1972.86C1511.36 1974.24 1510.84 1975.6 1510.33 1976.98C1505.09 1991.71 1499.68 2006.46 1491.79 2020.01C1474.37 2048.81 1450.29 2075.16 1418.37 2087.68C1404.96 2093.13 1390.41 2097.35 1375.61 2098.95C1366.8 2099.02 1358.03 2098.04 1349.51 2095.38C1327.97 2088.1 1307.73 2075.66 1292.37 2058.82C1274.21 2038 1260.26 2013.14 1252.53 1986.55C1249.84 1976.15 1248.23 1965.52 1247.5 1954.8C1256.22 1952.23 1264.95 1949.71 1273.69 1947.19C1273.76 1949.5 1273.96 1951.8 1274.26 1954.09C1275.43 1966.1 1278.92 1977.09 1284.61 1988.15C1300.08 2017.89 1330.99 2040.3 1364.6 2043.33C1393.9 2044.59 1422.11 2026.07 1436.84 2001.41C1446.57 1984.8 1453.27 1966.76 1457.87 1948.15C1460 1941.2 1462.02 1934.15 1462.69 1926.88C1463.86 1914.53 1464.09 1901.93 1462.29 1889.63C1462.29 1889.63 1462.29 1889.63 1462.29 1889.62C1462.3 1889.47 1462.32 1889.33 1462.32 1889.19C1462.32 1888.55 1462.18 1887.98 1461.95 1887.51C1461.61 1885.4 1461.19 1883.31 1460.71 1881.21C1459.75 1876.11 1457.98 1870.99 1457.02 1866.15C1454.47 1855.75 1450.8 1845.54 1445.93 1835.99C1438.01 1821.49 1426.93 1808.54 1412.88 1799.69C1400.86 1791.97 1387.87 1784.68 1373.29 1782.75C1355.96 1780.29 1338.8 1786.56 1323.83 1794.86C1318.4 1797.92 1313.96 1801.63 1310.34 1805.93C1307.03 1808.31 1303.43 1811.18 1301.5 1813.98C1291.77 1801.82 1282.46 1789.33 1273.53 1776.57C1278.71 1771.32 1283.69 1765.76 1289.32 1760.94C1296.78 1754.22 1305.41 1748.62 1314.43 1744.15Z" fill="#949494"/>
<path d="M392.545 1760.21C397.843 1759.98 402.734 1761.11 407.271 1763.1C426.216 1776.32 443.052 1792.77 453.72 1813.52C472.7 1855.25 482.872 1918.43 469.776 1963C465.541 1976.24 459.161 1988.84 450.425 1999.7C448.564 2002.13 446.135 2004.17 443.867 2006.28C441.882 2007.24 439.844 2008.16 437.842 2009.06C427.652 2013.83 416.114 2014.84 404.967 2013.35C404.028 2013.17 403.089 2013 402.168 2012.8C382.408 2007.71 367.291 1993.66 355.914 1974.84C342.871 1953.63 335.923 1929.79 331.847 1905.12C328.338 1889.67 328.515 1873.82 328.019 1858.09C327.984 1849.12 329.189 1840.21 330.997 1831.45C334.417 1820.15 339.043 1809.16 344.448 1798.7C352.972 1779.14 370.091 1761.22 392.545 1760.21Z" fill="#949494"/>
<path fill-rule="evenodd" clip-rule="evenodd" d="M387.529 1707.75C402.646 1707.06 417.745 1709.26 432.543 1712.38C442.201 1716.56 451.399 1721.66 460.153 1728.03C482.128 1748.97 502.19 1772.17 517.75 1798.24C526.097 1815.32 533.823 1832.82 538.43 1851.39C548.638 1893.74 551.261 1941.68 536.96 1983.35C528.648 2006.78 514.683 2028.27 496.731 2045.44C484.787 2056.8 469.599 2064.21 453.844 2068.68C437.221 2072.86 420.155 2069.44 404.524 2062.81C398.074 2059.05 391.889 2054.85 385.899 2050.41C366.919 2034.97 349.268 2017.62 335.002 1997.68C324.812 1982.71 317.422 1966.1 311.45 1949.05C298.69 1913.65 296.918 1875.28 301.207 1838.13C305.549 1805.17 313.045 1771.06 334.222 1744.53C346.149 1728.58 362.152 1714.66 381.54 1708.98C383.524 1708.46 385.509 1708.05 387.529 1707.75ZM433.217 1769.53C421.662 1757.36 409.398 1748.12 391.747 1749.08C375.319 1749.93 360.326 1758.65 348.807 1769.99C335.675 1784.05 328.391 1802.87 324.05 1821.35C323.447 1824.2 322.987 1827.09 322.685 1829.96C322.561 1830.41 322.42 1830.87 322.296 1831.29C317.387 1850.57 318.13 1870.53 319.353 1890.22C322.649 1920.47 329.543 1951.13 344.997 1977.69C352.298 1991.25 361.035 2002.29 372.82 2009.4C373.228 2010.12 373.777 2010.8 374.415 2011.33C384.109 2017.11 395.167 2021.09 406.403 2022.48C420.084 2024 432.826 2022.1 443.264 2016.11H443.282C452.976 2012.96 463.06 1998.25 467.172 1991.18C488.757 1955.15 487.551 1910.63 481.685 1870.39C475.607 1840.63 468.873 1808.96 448.404 1785.43C446.171 1782.86 443.796 1780.5 441.261 1778.29C439.436 1775.03 435.131 1772.1 433.217 1769.53Z" fill="#949494"/>
<path d="M1339.83 1800.51C1359.55 1790.69 1376.46 1790.57 1395.85 1801.48C1411.58 1809.71 1426.54 1820.68 1435.76 1836.27C1443.96 1850.24 1448.34 1865.18 1452.4 1880.98C1452.66 1882.47 1452.95 1883.96 1453.32 1885.43C1454.9 1897.45 1455.07 1909.64 1453.43 1921.94C1452.4 1932.71 1449.17 1943.05 1446.37 1953.47C1442.95 1967.73 1436.89 1981.13 1429.96 1994.01C1416.74 2017.6 1389.82 2035.93 1362.12 2033.07C1319.66 2026.89 1284.31 1988.66 1281.81 1945.72C1281.79 1945.44 1281.77 1945.14 1281.77 1944.84C1293.75 1941.35 1305.7 1937.77 1317.59 1933.97C1330.79 1929.61 1370.98 1917.08 1369.71 1899.98C1370.27 1899.15 1370.61 1898.12 1370.7 1897.2C1370.79 1895.36 1370.12 1893.57 1369.57 1891.83C1366.41 1884.67 1360.46 1879.46 1354.29 1874.69C1354.47 1874.64 1354.64 1874.59 1354.82 1874.53C1346.05 1865.05 1337.28 1855.59 1328.72 1845.91C1321.56 1838.04 1314.61 1830.02 1307.88 1821.83C1308.48 1821.35 1309.03 1820.77 1309.53 1820.18C1312.43 1817.38 1315.37 1814.58 1318.39 1811.85C1325.46 1807.93 1332.6 1804.12 1339.83 1800.51Z" fill="#949494"/>
<path d="M1265.26 1779.62C1275.82 1795.76 1287.46 1811.02 1299.67 1825.83V1825.87L1299.69 1825.85C1314.22 1843.48 1329.57 1860.48 1344.81 1877.56C1344.88 1877.55 1344.95 1877.51 1345.02 1877.49C1345.11 1877.6 1345.18 1877.69 1345.27 1877.78C1349.24 1882.03 1353.86 1885.7 1357.62 1890.11C1359.39 1893.44 1360.88 1896.85 1361.08 1900.51C1357.41 1907.09 1349.58 1910.08 1343.39 1913.91C1330.08 1921.05 1314.43 1925.41 1299.85 1929.7C1282.02 1935.02 1264.14 1940.16 1246.31 1945.53C1245.28 1944.22 1243.44 1943.54 1241.79 1944.18C1240.11 1944.87 1239.38 1946.18 1239.1 1947.71C1231.76 1949.94 1224.44 1952.21 1217.12 1954.55C1173.16 1968.19 1128.5 1979.47 1083.86 1990.63C1069.27 1994.37 1054.74 1998.18 1040.06 2001.6C1030.94 2003.76 1021.79 2005.87 1012.67 2008.07C1009.14 2008.94 1005.7 2010.25 1002.48 2011.97C1001.57 2007.66 1000.58 2003.39 999.535 1999.15C994.378 1978.61 988.016 1958.15 979.758 1938.56C983.638 1941.9 987.697 1945.05 992.18 1948.2C1002.21 1955.93 1013.71 1961.55 1026.33 1963.05C1027.32 1964.9 1030.1 1966.46 1034.06 1966.03C1080.86 1965.11 1125.71 1949.71 1170.71 1938.37C1199.6 1931.01 1228.38 1923.27 1257.25 1915.88C1271.64 1912.1 1286.06 1908.42 1300.24 1903.95C1307.24 1901.17 1314.84 1899.22 1321.38 1895.46C1323.74 1895.48 1326.09 1893.55 1325.83 1890.86C1327.72 1885.96 1324.62 1880.45 1319.24 1879.44C1304.93 1859.12 1289.3 1839.71 1271.48 1822.34C1269.21 1819.97 1266.8 1817.7 1264.49 1815.32C1265.34 1805.29 1265.75 1795.21 1265.54 1785.14C1265.4 1783.64 1265.34 1781.71 1265.26 1779.62Z" fill="#949494"/>
<path d="M556.595 1869.71C564.322 1875.07 574.317 1876.59 583.018 1879.99C619.188 1891.42 655.837 1901.01 691.635 1913.58C693.213 1914.02 694.967 1914.25 696.686 1914.16C694.808 1919.42 694.258 1925.2 693.301 1930.69C692.805 1933.96 692.345 1937.23 691.937 1940.53C685.327 1935.78 678.026 1932.02 670.246 1929.6C636.947 1921.59 604.462 1909.13 570.613 1903.88C570.135 1903.83 569.638 1903.79 569.16 1903.76C568.309 1902.71 566.962 1902.09 565.527 1902.29C564.517 1902.5 563.773 1902.91 563.241 1903.44C562.514 1903.4 561.788 1903.38 561.044 1903.37C560.282 1893.64 559.024 1883.96 557.393 1874.48C557.145 1872.89 556.879 1871.31 556.595 1869.71Z" fill="#949494"/>
<path d="M1265.16 1817.03L1265.32 1817.08L1265.41 1817.21L1285.91 1846.71L1286.03 1846.88L1275.94 1906.4L1275.63 1906.48L1243.38 1915.19L1260.1 1815.34L1265.16 1817.03Z" fill="#949494"/>
<path d="M1323.37 1888.72L1276.85 1905.77L1287.19 1848.41L1323.37 1888.72Z" fill="#949494"/>
<path d="M526.114 1473.33C531.82 1475.93 537.846 1477.9 544.19 1479.12C548.727 1479.74 552.874 1480.1 556.578 1480.1C558.846 1489.58 561.788 1499.7 565.403 1508.74C576.231 1537.16 591.171 1563.71 606.997 1589.62C629.415 1626.13 655.217 1660.72 686.23 1690.4C714.798 1716.42 742.302 1743.29 772.66 1767.33C788.042 1780.27 805.073 1793.28 821.324 1805.51C822.812 1806.55 824.284 1807.6 825.755 1808.66C811.329 1807.72 797.364 1809.69 784.179 1814.24C783.364 1813.07 782.424 1811.99 781.485 1811.04C772.536 1804.53 762.913 1798.86 754.176 1791.99C707.391 1758.28 665.921 1717.84 630.194 1672.63C587.254 1617.6 554.168 1555.04 531.643 1488.99C529.765 1483.78 527.851 1478.59 526.114 1473.33Z" fill="#949494"/>
<path d="M618.285 1671.97C623.353 1678.58 628.635 1685.03 634.04 1691.4C610.133 1712.93 582.398 1730.22 554.203 1745.57C539.937 1753.51 523.704 1756.54 509.863 1765.08C509.349 1764.43 508.87 1763.82 508.427 1763.29C505.291 1759.29 502.03 1755.27 498.645 1751.31C499.726 1751.05 500.789 1750.66 501.8 1750.18C506.832 1747.96 511.883 1745.71 516.863 1743.41C533.397 1735.58 549.347 1726.56 564.198 1715.85C582.948 1702.58 601.75 1688.98 617.824 1672.49C617.966 1672.33 618.125 1672.15 618.285 1671.97Z" fill="#949494"/>
<path d="M1127.45 1571.4C1127.49 1571.56 1127.52 1571.72 1127.57 1571.88C1153.17 1618.95 1179.25 1666 1210.78 1709.47C1219.09 1721.24 1228.15 1732.47 1237.11 1743.73C1239.4 1746.51 1241.67 1749.31 1243.97 1752.06C1236.03 1749.67 1227.88 1747.79 1220.01 1745.31C1217.35 1744.49 1214.68 1743.73 1211.98 1743C1212.02 1742.84 1212.04 1742.66 1212.04 1742.5C1212.3 1739.85 1210.26 1738 1208.51 1736.34C1195.64 1723.21 1184.41 1708.55 1173.86 1693.5C1149.96 1660.04 1126.95 1626.21 1108.28 1589.42C1114.82 1583.57 1121.23 1577.57 1127.45 1571.4Z" fill="#949494"/>
<path d="M853.595 1678.09C870.077 1658.72 896.872 1648.07 921.966 1654.34C929.782 1655.7 937.013 1658.86 943.747 1662.92C935.488 1667.91 927.124 1672.73 918.706 1677.45C909.809 1681.97 901.444 1687.39 893.434 1693.31C875.695 1695.83 857.955 1698.38 840.268 1701.14C844.61 1693.5 847.269 1684.8 853.595 1678.09Z" fill="#949494"/>
<path d="M978.162 1685.74C978.569 1687.64 979.403 1689.45 980.342 1691.11C981.211 1692.64 982.008 1694.21 982.805 1695.77C979.243 1695.13 975.699 1694.46 972.155 1693.73C969.142 1693.31 966.094 1692.94 963.046 1692.67C968.167 1690.62 973.2 1688.28 978.162 1685.74Z" fill="#949494"/>
<path d="M1224.94 1397.71C1223.24 1400.65 1222.1 1403.98 1221.02 1407.22C1216.11 1420.89 1210.64 1434.37 1204.1 1447.35C1183.54 1488.27 1157.51 1526.42 1125.71 1559.46C1118.15 1567.18 1110.31 1574.64 1102.29 1581.89C1101.01 1581.84 1099.7 1582.39 1098.71 1583.72C1098.28 1584.37 1098.07 1585.05 1097.98 1585.74C1075.01 1606.1 1050.56 1624.83 1026.08 1643.32C1008.5 1656.68 988.405 1666.11 970.329 1678.65C965.101 1682.57 960.068 1686.77 955.195 1691.13C949.046 1689.78 942.896 1688.45 936.587 1688.44C931.306 1688.58 926.06 1689.09 920.814 1689.71C920.885 1689.68 920.956 1689.62 921.027 1689.59C960.493 1667.88 997.425 1641.84 1031.4 1612.27C1090.8 1561.12 1147.48 1503.14 1180.76 1431.22C1184.02 1423.33 1187.12 1415.36 1189.81 1407.26C1190.17 1406.23 1190.59 1405.01 1190.93 1403.77C1200.13 1402.24 1209.31 1400.67 1218.47 1399C1220.63 1398.56 1222.78 1398.13 1224.94 1397.71Z" fill="#949494"/>
<path d="M763.994 1409.23C778.295 1410.93 792.615 1412.58 806.952 1414.08C803.142 1432.09 796.159 1449.37 788.787 1466.18C779.891 1486.94 770.604 1507.49 760.485 1527.7C739.68 1568.25 713.628 1606.19 683.926 1640.71C681.587 1643.33 678.663 1646.45 675.721 1649.54C673.861 1651.13 671.876 1653.42 671.008 1655.86C668.403 1652.89 665.833 1649.84 663.316 1646.75C659.063 1641.77 654.952 1636.67 650.965 1631.48C657.522 1627.77 662.129 1620.44 666.772 1614.59C674.339 1604.89 681.534 1594.95 688.357 1584.73C701.542 1564.2 715.383 1543.35 725.325 1520.93C729.862 1510.6 733.885 1500.07 737.73 1489.45C747.601 1463.1 758.713 1437 763.994 1409.23Z" fill="#949494"/>
<path d="M1040.45 1422.08C1040.63 1422.5 1040.83 1422.93 1041.02 1423.3C1042.39 1426.79 1043.84 1430.24 1045.38 1433.67C1049.56 1442.99 1053.83 1452.27 1058.27 1461.47C1067.23 1479.65 1075.9 1498.03 1085.57 1515.86C1088.83 1522.24 1092.75 1528.44 1098.19 1533.07C1093.21 1538.56 1088.11 1543.95 1082.92 1549.27C1074.18 1535.05 1066.04 1520.61 1057.38 1506.13C1042.26 1479.32 1028.01 1451.92 1015.04 1424.01C1023.51 1423.49 1032 1422.84 1040.45 1422.08Z" fill="#949494"/>
<path d="M445.976 1309.74C446.366 1310.64 446.986 1311.63 447.889 1312.68C457.955 1323.03 469.652 1333.41 484.113 1336.53C494.817 1338.57 501.711 1333.2 503.217 1324.73C511.635 1337.45 519.717 1350.37 526.557 1364.05C536.871 1383.12 546.654 1402.56 553.689 1423.1C557.836 1434.96 562.657 1446.9 563.915 1459.49C563.986 1461.86 564.233 1464.29 563.826 1466.65C563.277 1466.96 562.692 1467.19 562.107 1467.37C561.097 1466.73 559.838 1466.5 558.19 1466.95C557.482 1467.16 556.897 1467.48 556.454 1467.89C555.444 1467.87 554.433 1467.82 553.476 1467.8C520.088 1464.43 495.561 1437.35 478.601 1410.52C469.723 1397.34 463.379 1382.7 458.204 1367.74C453.862 1355.67 449.627 1343.46 446.827 1330.95C445.817 1325.38 445.427 1319.7 445.622 1314.02C445.888 1312.75 445.835 1311.19 445.976 1309.74Z" fill="#949494"/>
<path d="M272.94 950.901C276.343 957.901 281.393 964.299 285.345 970.909C299.062 993.398 312.247 1016.21 325.893 1038.75C348.878 1075.01 374.203 1109.69 397.064 1146.04C420.864 1184.18 444.08 1222.56 465.009 1262.38C474.048 1280.99 484.538 1298.39 493.754 1317.07C494.019 1319.93 493.896 1322.78 493.046 1325.65C485.921 1332.19 469.138 1320.12 459.781 1312.13C459.232 1307.02 457.211 1302.08 454.482 1297.68C450.052 1289.39 445.498 1280.85 441.05 1272.25C432.029 1253.2 420.74 1235.46 409.327 1217.78C380.086 1169.45 350.579 1121.28 318.467 1074.8C298.92 1047.2 281.358 1018.32 262.874 990.031C259.914 985.176 256.938 980.337 253.996 975.481C252.897 973.816 252.011 971.866 250.877 970.165C260.73 967.666 268.51 960.205 272.94 950.901Z" fill="#949494"/>
<path d="M435.538 725.975C432.915 730.635 430.398 735.686 427.882 741.145C424.071 749.35 418.932 757.183 414.945 765.317C414.661 765.938 414.378 766.558 414.112 767.196C412.428 766.417 410.426 765.937 409.185 765.831C394.689 766.93 380.529 771.467 366.299 774.479C345.298 779.247 324.209 782.242 303.191 787.913C279.462 793.761 254.811 800.301 235.387 815.86C231.471 819.192 227.342 823.321 224.79 828.053C224.187 827.344 223.567 826.653 222.929 825.979C222.398 829.01 222.238 832.005 222.397 834.965V834.982C222.185 836.524 222.167 838.119 222.397 839.749C222.858 842.212 223.532 845.119 224.755 847.636C226.739 854.016 229.752 860.165 233.049 865.96C238.206 875.601 243.291 885.312 248.626 894.864C255.165 906.667 262.963 918.276 265.001 932.188C266.064 949.041 252.134 965.22 234.537 959.709C232.871 959.107 231.081 959.55 229.805 960.56C227.821 959 225.924 957.334 224.01 955.704C219.367 951.805 214.582 948.084 210.488 943.564C198.26 928.731 187.911 912.303 178.979 895.308C169.392 875.317 163.791 852.899 164.128 830.676C164.5 826.104 165.262 821.566 166.379 817.136C170.118 805.847 178.483 797.11 188.531 790.979C200.174 783.535 212.863 778.113 225.694 773.133C248.927 763.474 273.312 757.005 298.016 752.397C324.953 745.964 351.944 739.656 379.271 734.995C393.236 732.425 407.218 729.838 421.236 727.569C425.454 726.931 429.725 726.489 433.978 726.081C434.492 726.046 435.006 726.01 435.538 725.975Z" fill="#949494"/>
</g>
<g id="Outline">
<path d="M549.399 1126.19C529.639 1124.26 514.806 1108.41 507.558 1090.82C499.016 1070.54 504.014 1047.49 512.378 1027.97C523.756 1000.24 549.559 982.216 576.567 971.459C616.742 953.808 660.462 946.843 703.934 943.547C812.71 934.083 922.355 929.688 1031.27 939.559C1041.16 940.747 1051.02 942.289 1060.9 943.511C1066.01 944.043 1071.45 945.904 1073.95 950.742C1078.31 959.426 1078.87 969.421 1080.1 978.938C1081.67 995.596 1081.55 1012.38 1080.73 1029.07C1080.29 1038.34 1076.23 1047.89 1068.93 1053.83C1061.12 1042.38 1061.97 1028.1 1062.78 1015C1063.03 996.925 1064.13 978.317 1060.16 960.595C1015.5 951.593 969.796 950.086 924.375 949.058C865.805 947.694 807.252 949.59 748.841 954.003C696.845 958.185 643.715 959.833 594.2 977.839C565.597 988.029 535.647 1003.11 523.065 1032.51C515.94 1048.55 511.12 1067.32 517.128 1084.42C522.923 1099.68 535.257 1112.74 551.366 1116.74C559.855 1119.05 557.959 1127.73 549.399 1126.19Z" fill="black"/>
<path d="M1115.51 1122.96C1031.72 1115.95 947.679 1110.65 863.678 1107.14C848.047 1106.07 832.435 1105.03 816.822 1103.98C794.421 1102.09 772.163 1099 749.745 1097.21C772.021 1095.97 794.722 1096.33 817.158 1096.38C833.25 1096.17 849.341 1095.99 865.433 1096.59C928.806 1098.7 992.073 1102.99 1055.34 1107.19C1068.72 1108.2 1082.12 1108.56 1095.48 1109.88C1105.16 1110.88 1116.11 1111.91 1125.5 1110.97C1147.19 1109.05 1168.46 1104.21 1189.87 1100.44C1212.37 1096.4 1234.93 1092.62 1257.49 1088.97C1280.27 1085.57 1302.93 1081.46 1325.79 1078.8C1336.21 1077.42 1346.95 1076.94 1356.91 1073.43C1332.97 1069.69 1308.78 1068.1 1284.66 1066.02C1247.21 1062.55 1209.82 1060.35 1172.32 1060.23C1149.51 1060.37 1126.71 1060.9 1103.9 1061.1C1080.36 1061.06 1056.83 1060.25 1033.29 1060.99C964.001 1061.82 895.028 1068.63 826.285 1076.74C795.112 1080.18 763.816 1082.34 732.661 1085.87C710.101 1088.44 687.275 1092.07 664.768 1093.47C657.609 1094.08 650.29 1094.73 643.307 1095.83C656.847 1089.73 671.644 1087.09 686.105 1084.15C717.349 1078.39 749.018 1075.4 780.634 1072.4C827.632 1068.06 874.347 1061.38 921.363 1057.2C973.979 1052.36 1026.88 1050.71 1079.71 1050.85C1118.73 1051.35 1157.74 1049.05 1196.74 1050.27C1243.21 1051.3 1289.46 1056.13 1335.75 1060.1C1342.86 1060.79 1349.96 1061.7 1357.05 1062.51C1362.21 1063.38 1367.7 1063.12 1372.52 1065.23C1382.56 1072.72 1363.89 1083.14 1357.27 1084.68C1342.59 1088.37 1327.35 1088.97 1312.45 1091.52C1298.04 1093.88 1283.6 1095.99 1269.15 1098.17C1246.36 1101.75 1223.66 1105.77 1200.92 1109.69C1172.5 1114.1 1144.36 1122.2 1115.51 1122.96Z" fill="black"/>
<path d="M1363.84 1350.37C1366.85 1345.66 1369.48 1340.94 1372.28 1336.12C1375.32 1331.11 1378.99 1326.36 1381.42 1321.02C1387.34 1303.78 1389.15 1286.24 1390.48 1268.37C1393.15 1215.56 1392.05 1162.54 1381.65 1110.66C1378.66 1098.81 1376.07 1085.91 1368.13 1076.27C1366.18 1073.61 1362.3 1074.21 1361.71 1070.68C1361.4 1068.73 1362.6 1066.77 1364.5 1066.2C1377.66 1065 1385.5 1089.66 1388.79 1099.75C1396.08 1124.84 1398.11 1150.54 1400.45 1176.4C1403.01 1207.32 1403.48 1238.42 1401.85 1269.42C1401.45 1279.01 1400.6 1289.07 1399 1298.39C1397.14 1308.65 1395.85 1319.32 1391.29 1328.8C1386.1 1339.76 1374.16 1345.37 1363.84 1350.37Z" fill="black"/>
<path d="M967.652 1425.19C923.418 1423.62 879.308 1419.58 835.128 1416.86C790.274 1412.81 745.633 1406.78 700.85 1402.1C648.748 1396.36 596.805 1389.84 544.756 1384.45C539.156 1384.54 532.563 1380.34 534.956 1374.1C537.738 1368.64 543.994 1369.39 549.098 1370.2C641.145 1380.71 733.866 1392.14 825.753 1402.83C871.83 1406.98 917.96 1410.82 964.178 1413C991.31 1413.99 1018.35 1411.94 1045.34 1409.3C1111.13 1403.47 1176.88 1396.01 1241.56 1383.12C1265.48 1379.05 1288.66 1372.38 1311.47 1364.58C1332.46 1356.79 1354.02 1349.04 1372.28 1335.77C1375.66 1333.68 1377.95 1328.15 1382.5 1329.87C1395.39 1342.13 1330.49 1368.25 1321.56 1371.44C1305.23 1377.56 1288.65 1383.07 1271.85 1387.71C1254.25 1392.3 1236.28 1395.35 1218.47 1398.98C1186.48 1404.78 1154.3 1409.78 1121.96 1413.14C1070.7 1418.88 1019.31 1426.04 967.652 1425.19Z" fill="black"/>
<path d="M554.822 1096.77C537.189 1086.47 536.161 1062.96 540.184 1045.04C539.652 1045.43 539.067 1046.1 538.571 1046.35C543.073 1039.69 544.295 1027.78 554.202 1026.93C586.774 999.814 597.018 1048.21 589.592 1072.51C585.729 1086.92 571.233 1105.14 554.822 1096.77ZM563.098 1086.97C569.708 1086.1 573.696 1079.46 576.141 1073.86C580.643 1062.85 578.906 1049.74 575.911 1038.71C574.901 1036.02 573.979 1033.01 571.587 1031.22C566.164 1028.86 560.05 1032.42 555.088 1034.6C549.7 1042.15 548.85 1051.26 548.797 1060.23C548.85 1069.82 552.182 1084.77 563.098 1086.97Z" fill="black"/>
<path d="M648.11 956.803C644.229 955.385 644.778 950.777 645.505 947.463C647.099 938.425 649.439 929.529 651.92 920.703C660.852 887.723 674.976 855.309 692.184 826.032C710.03 794.842 729.559 764.36 754.175 738.007C778.985 710.397 806.578 684.54 839.151 666.34C874.364 647.023 913.494 634.529 953.386 629.868C1021.31 623.152 1067.6 668.272 1077.93 733.276C1082.4 758.069 1078.18 783.163 1074.43 807.761C1071.7 825.891 1069.32 844.073 1066.17 862.132C1060.6 889.229 1056.33 918.098 1038.31 940.179C1039.37 928.217 1040.65 914.429 1043.94 903.141C1047.4 890.221 1049.92 877.072 1052.4 863.94C1055.89 844.251 1057.86 824.313 1060.67 804.5C1063.74 782.365 1067.41 759.947 1064.4 737.6C1059.82 704.141 1042.28 670.7 1012.4 653.438C983.903 638.02 949.877 641.086 919.378 648.175C870.501 658.631 826.249 682.945 790.132 717.113C745.013 758.37 710.632 809.267 683.482 863.727C672.584 886.446 663.953 910.247 657.555 934.597C656.067 940.587 654.49 946.595 653.639 952.727C653.32 955.403 650.697 957.511 648.11 956.803Z" fill="black"/>
<path d="M612.347 967.028C608.537 936.954 616.14 907.004 627.109 879.163C642.031 839.253 663.705 802.037 688.143 767.249C714.319 730.688 742.089 696.095 778.33 669.37C793.234 657.745 809.875 648.724 826.64 640.111C837.095 634.671 847.817 629.443 859.017 625.739C880.106 618.827 901.567 612.944 923.578 609.949C931.925 608.903 940.927 608.815 948.778 612.129C948.371 612.341 947.857 612.253 947.396 612.43C934.087 617.321 920.158 619.59 906.299 622.354C886.167 627.405 866 633.147 847.144 641.919C829.351 650.851 811.611 660.031 795.041 671.09C777.355 683.814 760.502 697.832 745.757 713.906C732.873 727.782 721.212 742.686 710.154 758.051C688.604 787.611 668.437 818.253 652.771 851.339C644.282 869.788 636.857 888.786 630.955 908.227C625.639 928.058 619.489 947.906 612.347 967.028Z" fill="black"/>
<path d="M1056.92 951.238C1053.55 949.572 1054.72 946.116 1055.82 943.352C1057.2 939.134 1058.71 934.934 1060.23 930.751C1067.73 909.414 1074.98 887.918 1080.56 865.996C1085.82 844.304 1090.04 822.329 1092.2 800.105C1094.17 780.842 1096.14 761.383 1093.76 742.048C1091.81 721.278 1088.21 701.571 1078.95 682.91C1068.51 661.573 1048.48 647.324 1029.89 633.555C1017.52 624.605 1003.1 618.916 988.635 614.238C978.391 611.686 967.758 611.189 957.232 610.977C968.113 609.151 979.65 606.865 990.867 607.68C1002.72 608.992 1014.47 611.721 1025.55 616.169C1051.76 629.159 1077.35 650.124 1089.83 677.097C1097.5 693.49 1101.77 711.141 1103.81 729.076C1105.42 740.684 1106.59 752.54 1105.9 764.254C1104.39 787.735 1101.75 811.182 1097.23 834.291C1091.86 863.745 1083.64 892.525 1073.49 920.685C1070.7 928.394 1067.59 935.979 1064.63 943.635C1063.23 947.073 1061.83 953.205 1056.92 951.238Z" fill="black"/>
<path d="M883.19 624.038C909.595 611.437 938.588 603.711 968.006 604.898C980.287 605.128 992.516 607.219 1004.25 610.852C1005.91 611.331 1007.72 611.668 1009.01 612.926C1012.49 616.187 1009.6 620.706 1005.2 620.086C965.029 608.779 923.4 619.058 883.19 624.038Z" fill="black"/>
<path d="M407.82 787.948C409.415 780.186 411.577 772.512 414.944 765.317C418.931 757.183 424.053 749.35 427.881 741.144C440.605 713.551 453.134 696.645 482.039 684.984C502.401 677.168 523.472 671.657 543.923 664.125C562.956 657.266 581.245 648.529 600.314 641.76C619.524 635.273 638.381 627.795 657.307 620.529C675.88 613.476 695.392 609.541 714.637 604.862C724.721 602.364 733.618 598.359 743.418 595.257C761.529 589.799 780.084 597.313 797.15 603.161C819.072 610.41 841.189 617.268 864.281 619.093C870.519 619.784 876.775 620.511 883.048 620.919C885.919 620.724 889.162 623.329 887.922 626.395C886.078 630.878 877.005 628.504 873 628.77C846.576 628.309 820.986 621.876 796.069 613.44C779.712 608.212 762.097 599.901 744.836 605.713C735.709 608.903 726.742 612.607 717.367 615.07C701.258 619.359 684.83 622.531 668.933 627.706C654.968 632.278 641.376 637.967 627.641 643.16C603.593 651.33 579.934 660.51 556.435 670.15C531.624 680.092 505.414 686.206 480.904 696.857C435.271 717.096 444.486 759.203 407.82 787.948Z" fill="black"/>
<path d="M373.191 1093.44C368.229 1082.27 365.801 1069.09 365.199 1057.11C362.328 1036.37 363.214 1015.23 368.194 994.887C371.064 980.125 377.693 966.568 382.991 952.603C388.467 938.39 392.171 923.663 394.847 908.705C398.781 889.069 402.592 870.054 403.052 850.542C403.744 829.506 399.561 808.045 405.516 787.434C408.085 779.105 411.098 770.102 417.283 763.793C421.306 761.436 425.01 765.778 422.812 769.694C422.121 771.006 421.483 772.335 420.863 773.682C411.683 793.442 413.951 815.576 415.334 836.63C416.096 851.641 414.837 868.034 412.534 882.619C408.652 903.655 405.339 925.01 398.321 945.266C393.447 959.78 386.358 973.444 381.52 987.958C376.346 1005.77 374.077 1024.52 375.885 1043.02C376.7 1051.69 378.543 1060.28 378.561 1068.98C378.401 1077.38 376.399 1085.8 373.191 1093.44Z" fill="black"/>
<path d="M454.357 913.083C440.339 878.365 425.914 843.719 417.283 807.176C414.341 794.682 411.098 781.001 416.007 768.596C417.389 765.601 418.683 761.436 422.493 761.046C425.825 760.656 427.42 764.697 425.896 767.284C416.432 782.188 423.893 800.796 426.8 816.693C433.729 849.443 444.539 881.307 454.357 913.083Z" fill="black"/>
<path d="M512.697 900.589C514.859 870.337 516.897 839.784 520.194 809.675C521.629 796.738 523.472 783.801 527.247 771.307C532.829 753.408 541.566 736.412 552.571 721.242C564.25 705.222 577.754 690.743 592.038 677.026C599.712 669.211 606.729 660.757 614.669 653.19C623.494 645.481 658.264 613.989 668.561 622.088C667.604 622.85 666.842 623.878 665.973 624.747C662.642 628.504 657.768 630.099 653.621 632.721C642.12 639.987 631.203 648.263 621.031 657.302C613.623 664.107 607.208 671.887 600.172 679.064C582.362 696.201 565.863 714.792 552.04 735.331C532.368 764.768 526.591 792.804 522.143 827.237C518.563 851.587 515.799 876.345 512.697 900.589Z" fill="black"/>
<path d="M479.593 1091.95C463.236 1088 446.896 1083.98 430.592 1079.86C414.926 1075.75 398.516 1072.67 384.586 1064C378.898 1059.89 364.596 1051.92 368.406 1043.53C368.442 1043.48 368.619 1043.25 368.708 1043.27C371.454 1043.62 374.343 1044.92 376.044 1046.87C387.918 1060.02 404.878 1066.38 421.324 1071.75C440.764 1078.3 460.436 1085.06 479.593 1091.95Z" fill="black"/>
<path d="M961.006 772.601C941.831 740.737 921.876 708.004 892.122 684.895C887.425 681.297 882.516 677.966 877.607 674.669C871.866 671.054 866.815 665.915 860.648 663.31C863.643 662.707 867.134 664.231 870.093 665.135C875.676 667.173 880.957 669.938 885.777 673.411C920.92 697.353 942.133 735.757 961.006 772.601Z" fill="black"/>
<path d="M544.171 1479.12C492.565 1469.18 462.598 1409.63 446.613 1364.35C442.306 1350.58 423.291 1307.82 444.929 1303.16C446.524 1303.16 447.711 1304.03 448.881 1305C448.598 1305.29 448.101 1305.41 447.782 1305.66C445.284 1307.43 446.134 1311.33 445.567 1314.02C445.39 1319.68 445.762 1325.37 446.772 1330.95C449.572 1343.46 453.825 1355.67 458.15 1367.74C463.324 1382.71 469.669 1397.35 478.547 1410.52C495.507 1437.35 520.052 1464.43 553.422 1467.8C556.842 1467.83 560.723 1468.38 563.789 1466.63C564.197 1464.27 563.949 1461.84 563.878 1459.47C562.602 1446.89 557.799 1434.94 553.617 1423.1C546.581 1402.56 536.799 1383.1 526.485 1364.05C519.06 1349.18 510.163 1335.24 500.966 1321.43C497.102 1315.07 495.1 1307.61 492.814 1300.73C500.239 1307.18 506.601 1314.91 512.538 1322.74C526.007 1339.28 536.338 1357.99 546.44 1376.69C559.111 1400.42 569.549 1425.53 575.433 1451.83C580.944 1478.68 567.795 1482.33 544.171 1479.12Z" fill="black"/>
<path d="M484.077 1336.55C469.616 1333.41 457.919 1323.03 447.853 1312.69C441.332 1305.09 449.271 1300.68 454.977 1307.79C461.534 1314.17 484.378 1333.59 493.026 1325.65C495.968 1315.74 490.262 1305.92 489.659 1296.04C495.808 1300.94 500.983 1307.84 502.897 1315.62C505.786 1328.95 498.272 1339.24 484.077 1336.55Z" fill="black"/>
<path d="M496.269 1322.28C486.487 1301.6 474.879 1282.71 465.008 1262.38C444.078 1222.54 420.863 1184.18 397.062 1146.02C374.201 1109.67 348.877 1074.99 325.892 1038.73C312.246 1016.19 299.061 993.381 285.344 970.892C278.592 959.62 268.65 948.899 269.182 934.934C282.987 941.845 289.207 956.838 296.845 969.421C310.35 993.204 323.96 1016.97 338.279 1040.29C355.558 1067.26 373.882 1093.55 391.675 1120.18C419.144 1163.51 446.116 1207.3 469.846 1252.79C479.876 1272.4 490.297 1291.82 500.505 1311.31C501.816 1314.31 503.659 1317.18 504.138 1320.42C504.315 1324.75 498.201 1326.41 496.269 1322.28Z" fill="black"/>
<path d="M459.231 1320.51C451.451 1317.52 446.524 1310.39 443.245 1303.09C439.967 1296.69 436.37 1290.17 433.02 1283.91C424.336 1267.11 415.617 1250.3 405.356 1234.38C368.034 1171.47 328.532 1109.94 287.843 1049.15C276.359 1029.41 263.475 1010.54 252.187 990.687C249.511 985.938 246.675 981.241 244.176 976.368C243.042 974.365 241.996 972.168 242.351 969.793C242.546 967.897 243.662 965.292 246.002 966.284C250.379 967.436 251.708 972.079 253.959 975.464C256.901 980.338 259.878 985.158 262.837 990.014C281.339 1018.3 298.884 1047.18 318.431 1074.78C350.543 1121.26 380.049 1169.43 409.29 1217.76C420.686 1235.44 431.974 1253.18 441.012 1272.24C445.461 1280.83 450.015 1289.39 454.446 1297.68C458.664 1304.45 461.215 1312.57 459.231 1320.51Z" fill="black"/>
<path d="M227.216 969.155C204.763 964.175 193.191 942.2 181.601 924.442C170.294 906.827 160.618 886.978 156.985 866.367C154.309 852.739 152.696 838.455 155.425 824.721C157.836 814.992 159.289 801.806 169.833 797.589C169.904 797.571 170.01 797.447 170.064 797.5C170.489 802.338 169.94 807.247 167.937 811.713C165.899 817.863 164.641 824.207 164.109 830.658C163.772 852.881 169.372 875.299 178.96 895.29C187.909 912.285 198.259 928.713 210.469 943.547C214.545 948.048 219.348 951.787 223.991 955.686C228.014 959.124 231.966 962.722 236.733 965.096C238.629 966.036 240.756 966.745 242.599 967.613C237.708 969.474 232.391 970.324 227.216 969.155Z" fill="black"/>
<path d="M239.445 970.768C235.581 970.112 230.158 969.828 228.351 965.752C226.72 961.977 230.92 958.398 234.518 959.709C252.133 965.221 266.063 949.04 264.999 932.187C262.961 918.275 255.164 906.667 248.624 894.864C243.29 885.312 238.222 875.601 233.047 865.96C226.171 853.82 220.482 840.21 222.946 825.979C234.642 838.455 240.118 855.132 248.553 869.788C258.106 889.743 273.222 907.819 276.891 930.096C278.557 951.309 262.306 973.833 239.445 970.768Z" fill="black"/>
<path d="M230.265 853.094C225.054 851.304 223.318 844.64 222.396 839.749C220.978 830.038 228.492 821.708 235.386 815.86C254.792 800.3 279.46 793.761 303.19 787.912C324.19 782.224 345.297 779.229 366.297 774.479C380.51 771.467 394.67 766.93 409.184 765.831C412.197 766.079 419.587 768.525 416.326 772.211C412.888 777.457 405.463 777.474 400.146 778.537C378.242 783.074 356.727 789.277 334.628 792.839C304.767 799.485 273.382 804.465 246.799 820.468C238.824 825.642 227.34 834.876 234.11 845.208C237.956 848.061 234.925 854.334 230.265 853.094Z" fill="black"/>
<path d="M161.663 822.913C155.674 822.346 158.349 815.629 159.732 811.996C167.813 786.601 194.874 775.613 217.416 765.955C240.915 756.031 265.389 748.446 290.607 744.511C326.246 736.164 361.832 727.481 398.179 722.643C409.361 721.065 420.42 718.567 431.656 717.379C435.873 716.812 440.871 715.43 444.202 718.903C444.876 719.594 445.177 720.303 444.84 721.225C442.997 725.478 438.018 725.797 433.995 726.063C429.741 726.488 425.47 726.914 421.235 727.534C407.217 729.802 393.234 732.39 379.27 734.959C351.96 739.62 324.952 745.929 298.015 752.362C273.311 756.952 248.943 763.438 225.692 773.097C212.862 778.077 200.155 783.517 188.53 790.943C178.145 797.252 169.567 806.379 166.023 818.199C165.491 820.414 164.322 823.037 161.663 822.913Z" fill="black"/>
<path d="M435.59 1326.31C396.495 1289.64 375.034 1236.84 373.457 1183.61C372.819 1176.34 381.875 1175.6 382.123 1182.99C383.771 1203.79 387.705 1224.42 393.979 1244.34C404.594 1273.6 421.146 1299.23 435.59 1326.31Z" fill="black"/>
<path d="M835.234 2227.59C774.732 2210.1 729.701 2146.87 707.052 2090.87C698.9 2070.52 693.123 2049.18 690.784 2027.37C688.675 2005.78 687.186 1983.97 689.561 1962.35C690.607 1951.78 691.705 1941.19 693.336 1930.69C694.753 1922.58 695.267 1913.79 700.549 1907.05C701.63 1905.65 702.959 1904.2 704.483 1903.46C703.863 1906.82 704.252 1910.31 704.093 1913.7C701.506 1934.42 698.581 1954.58 697.748 1975.41C696.402 2039.19 710.349 2089.32 746.342 2142.13C766.385 2169.64 791.196 2194.13 821.429 2210.17C838.46 2219.33 856.926 2226.44 876.367 2227.2C883.757 2227.52 891.413 2227.59 898.678 2227.77C888.205 2229.11 877.784 2230.99 867.24 2231.61C856.412 2232.04 845.637 2230.44 835.234 2227.59Z" fill="black"/>
<path d="M864.086 2236.82C859.903 2236.24 855.863 2235.02 851.911 2233.56C850.582 2233.1 848.969 2232.85 847.835 2231.99C845.779 2230.48 845.424 2227.24 847.338 2225.46C849.306 2223.39 852.07 2224.31 854.427 2224.97C859.655 2226.54 865.025 2227.47 870.466 2227.91C885.582 2229.38 901.018 2226.21 914.664 2219.65C929.532 2212.26 942.434 2201.54 953.262 2189.01C970.913 2169.94 983.584 2146.94 991.062 2122.09C1002.42 2082.91 995.723 2040.96 986.118 2002.08C978.374 1972.13 968.148 1942.57 953.031 1915.51C930.206 1877.37 898.005 1842.63 856.04 1825.94C841.366 1821.86 826.604 1818.07 811.682 1815.01C823.875 1815.43 836.51 1816.39 848.845 1817.2C854.817 1817.61 860.718 1818.51 866.425 1820.41C896.96 1830.16 923.524 1849.72 942.558 1875.42C971.746 1910.99 988.457 1954.9 999.551 1999.12C1011.57 2048.01 1016.35 2102.1 992.782 2148.36C982.591 2171.45 966.73 2191.63 948.53 2208.96C925.403 2230.82 896.003 2242.64 864.086 2236.82Z" fill="black"/>
<path d="M693.23 1949.11C695.941 1925.5 698.404 1900.87 709.658 1879.55C715.435 1868.7 723.463 1859.27 731.757 1850.27C763.337 1814.88 806.756 1799.37 852.761 1813.76C857.67 1815.16 862.26 1817.27 866.832 1819.51C870.536 1821.51 878.015 1823.65 875.818 1829.17C873.957 1832.18 870.04 1831.56 867.417 1830.02C858.255 1825.8 848.579 1822.93 838.584 1821.42C785.507 1812.67 748.274 1843.87 720.982 1886.03C709.02 1905.69 701.133 1927.73 693.23 1949.11Z" fill="black"/>
<path d="M850.316 2155.53C850.422 2155.55 850.546 2155.59 850.653 2155.6C850.546 2155.57 850.44 2155.55 850.316 2155.53Z" fill="black"/>
<path d="M838.407 2161.47C799.88 2155.71 776.097 2120.35 760.484 2087.71C744.711 2054.46 736.754 2017.66 738.066 1980.87C739.253 1956.5 743.347 1931.55 754.848 1909.8C765.765 1890.02 783.416 1868.77 807.978 1869.2C812.391 1869.5 817.442 1869.2 821.287 1871.61C823.964 1873.88 822.723 1878.15 819.338 1878.82C812.746 1878.59 806.791 1877.92 800.216 1879.83C786.482 1883.48 777.532 1895.69 770.036 1906.96C748.628 1943.92 748.965 1988.84 755.876 2029.64C764.507 2068.93 783.097 2111.46 814.411 2137.76C817.885 2140.54 821.606 2143.11 825.488 2145.34C828.181 2147.33 831.052 2149.14 834.154 2150.43C835.447 2151.23 836.776 2151.95 838.176 2152.59C840.498 2153.65 842.872 2154.65 845.283 2155.51C845.123 2155.46 844.964 2155.41 844.822 2155.36C846.293 2155.89 847.764 2156.37 849.306 2156.67C850.723 2156.95 852.194 2157.13 853.63 2157.25C855.242 2157.39 856.891 2157.5 858.521 2157.5C859.744 2157.5 860.984 2157.45 862.207 2157.32C862.313 2157.78 862.42 2158.23 862.526 2158.69C862.597 2159.01 862.668 2159.31 862.739 2159.64C858.45 2161.52 853.842 2162.6 848.473 2162.6C845.389 2162.57 842.057 2162.21 838.407 2161.47Z" fill="black"/>
<path d="M854.179 2172.03C839.807 2171.13 830.432 2162.76 820.543 2153.42C829.12 2153.92 837.751 2154.81 846.346 2155.87C847.303 2156.19 848.278 2156.45 849.288 2156.65C850.706 2156.93 852.177 2157.11 853.612 2157.23C855.225 2157.39 856.873 2157.48 858.503 2157.48C858.982 2157.48 859.46 2157.48 859.939 2157.46C861.658 2157.5 863.377 2157.41 865.096 2157.06C865.787 2156.86 866.478 2156.65 867.152 2156.44C868.534 2156.12 869.951 2155.76 871.263 2155.25C872.946 2154.59 874.488 2153.71 875.888 2152.59C903.605 2137.16 918.137 2096.15 919.714 2066.82C920.529 2051.52 921.026 2036.14 918.97 2020.92C916.064 2001.78 911.456 1982.74 904.421 1964.69C894.869 1941.38 878.547 1920.72 859.549 1904.57C848.632 1895.09 836.564 1886.66 822.847 1881.78C819.143 1880.54 815.333 1879.53 811.434 1879.28C807.606 1879.64 805.285 1874.44 808.138 1871.82C810.14 1869.87 813.348 1869.94 815.989 1870.1C839.931 1872.78 859.832 1888.89 876.757 1904.91C899.299 1926.16 914.664 1953.91 922.55 1983.75C933.094 2019.22 934.423 2057.07 927.919 2093.42C923.578 2111.39 917.641 2129.62 905.75 2144.1C894.709 2158.55 878.706 2172.46 859.886 2172.46C858.025 2172.46 856.111 2172.32 854.179 2172.03Z" fill="black"/>
<path d="M415.316 2070.7C388.804 2065.5 365.5 2050 346.36 2031.43C315.967 2001.64 297.714 1961.34 289.19 1920.04C279.141 1865.9 288.445 1789.79 320.469 1744.1C333.388 1725.65 350.259 1708.39 372.163 1701.35C379.606 1698.98 387.44 1697.86 395.273 1698.31C396.797 1698.39 398.392 1698.63 399.597 1699.65C402.095 1701.71 401.688 1705.27 398.764 1706.65C397.576 1707.34 396.123 1707.22 394.794 1707.19C390.31 1707.22 385.88 1707.89 381.538 1709.01C362.151 1714.68 346.148 1728.61 334.221 1744.56C313.043 1771.09 305.547 1805.21 301.205 1838.15C296.934 1875.28 298.706 1913.66 311.448 1949.07C317.421 1966.14 324.828 1982.73 335.001 1997.7C349.267 2017.64 366.918 2035.01 385.898 2050.42C397.417 2059 409.68 2066.6 423.025 2071.99C423.326 2072.2 423.84 2072.2 423.982 2072.43C421.075 2071.92 418.187 2071.32 415.316 2070.7Z" fill="black"/>
<path d="M438.124 2082.25C419.179 2081.05 400.731 2074.54 385.171 2063.7C381.449 2061.22 377.657 2058.77 374.467 2055.6C373.156 2054.25 371.844 2052.96 371.738 2050.96C371.561 2047.98 374.556 2045.87 377.32 2046.77C380.865 2049.02 383.824 2052.21 387.634 2054.2C407.253 2065.82 430.982 2074.42 453.843 2068.68C469.598 2064.19 484.803 2056.8 496.748 2045.44C514.7 2028.25 528.647 2006.77 536.976 1983.35C551.278 1941.68 548.655 1893.74 538.447 1851.39C533.84 1832.82 526.13 1815.32 517.73 1798.26C499.725 1768.13 475.73 1741.83 449.714 1718.4C470.431 1733.61 491.467 1749.36 508.391 1769.07C517.234 1778.66 525.581 1788.83 531.642 1800.44C544.685 1823.37 553.316 1848.43 557.427 1874.48C565.349 1920.93 564.605 1971.6 540.343 2013.35C525.918 2037.97 505.91 2060.68 479.487 2072.47C466.532 2078.44 452.514 2083.12 438.124 2082.25Z" fill="black"/>
<path d="M534.796 1820.25C530.969 1817.08 527.495 1813.46 525.634 1808.75C522.09 1800.58 518.156 1792.62 513.229 1785.2C498.662 1764.52 481.826 1745.23 462.048 1729.5C447.233 1718.31 431.124 1710.91 413.597 1705.43C401.776 1702.12 389.708 1702.58 377.763 1704.19C386.926 1700.57 396.956 1697.79 406.987 1697.77C450.228 1698.73 483.314 1731.23 508.391 1763.31C516.968 1773.75 540.521 1807.47 534.796 1820.25Z" fill="black"/>
<path d="M434.509 1712.79C434.42 1712.79 434.314 1712.77 434.261 1712.77C418.151 1709.31 401.652 1706.83 385.153 1707.91C382.938 1707.97 380.528 1708.25 378.401 1708.23C382.424 1706.25 386.518 1704.56 390.771 1703.13C404.984 1697.62 420.792 1699.81 434.863 1704.7C438.071 1706.33 440.977 1708.96 442.696 1712.09C440.073 1712.93 437.131 1713 434.367 1712.79H434.509Z" fill="black"/>
<path d="M437.025 2016.31C438.673 2008.88 446.063 2005.41 450.423 1999.72C459.16 1988.86 465.54 1976.28 469.775 1963.02C482.872 1918.45 472.717 1855.27 453.719 1813.53C440.959 1788.67 419.303 1769.99 395.769 1755.58C415.28 1761.04 434.774 1769.81 448.403 1785.45C468.871 1808.98 475.606 1840.65 481.684 1870.4C487.55 1910.65 488.755 1955.17 467.17 1991.2C462.155 1999.79 448.314 2019.75 437.025 2016.31Z" fill="black"/>
<path d="M324.58 1869.64C322.081 1853.66 320.664 1837.32 324.031 1821.35C328.373 1802.85 335.656 1784.05 348.788 1769.99C360.325 1758.65 375.3 1749.93 391.746 1749.08C409.397 1748.12 421.66 1757.36 433.215 1769.53C435.962 1773.23 443.618 1777.63 441.846 1782.73C439.613 1787.13 435.288 1785.07 432.914 1782.03C421.324 1771.98 409.06 1759.48 392.526 1760.19C370.072 1761.22 352.953 1779.12 344.429 1798.68C333.087 1820.68 325.183 1844.94 324.58 1869.64Z" fill="black"/>
<path d="M396.903 2017.55C371.738 2014.36 356.55 1999.17 344.978 1977.69C329.507 1951.13 322.631 1920.47 319.335 1890.22C318.112 1870.53 317.385 1850.57 322.276 1831.29C323.676 1826.93 324.102 1821.81 326.973 1818.16C329.188 1816.05 333.14 1817.47 333.353 1820.59C333.406 1823.32 332.077 1825.94 331.563 1828.62C329.436 1838.29 327.947 1848.15 327.983 1858.07C328.479 1873.82 328.302 1889.65 331.811 1905.1C335.887 1929.77 342.834 1953.61 355.877 1974.82C370.852 1999.58 392.277 2016.06 422.227 2014.8C414.04 2016.24 405.392 2018.84 396.903 2017.55Z" fill="black"/>
<path d="M406.384 2022.48C395.148 2021.09 384.09 2017.11 374.396 2011.33C371.773 2009.2 370.568 2004.42 375.229 2004.05C379.535 2003.73 383.08 2006.99 386.996 2008.32C392.756 2010.69 398.835 2012.23 404.949 2013.37C416.096 2014.84 427.633 2013.83 437.823 2009.08C446.949 2005.06 456.041 2000.45 463.218 1993.39C452.673 2016.86 431.071 2025.22 406.384 2022.48Z" fill="black"/>
<path d="M776.77 1821.85C768.902 1819.4 762.734 1813.29 756.018 1808.75C751.463 1805.36 746.909 1802.02 742.514 1798.44C719.918 1780.27 698.652 1760.55 677.865 1740.36C669.411 1732.07 661.507 1723.26 653.781 1714.31C638.061 1696.16 622.023 1678.19 608.36 1658.41C574.706 1610.85 545.837 1559.67 526.609 1504.52C522.816 1493.74 518.758 1483.07 515.657 1472.07C514.576 1466.8 509.631 1456.15 518.173 1455.66C520.335 1455.85 521.93 1457.59 522.161 1459.7C522.267 1460.25 522.32 1460.53 522.444 1460.96C524.908 1470.53 528.328 1479.74 531.677 1489.03C554.219 1555.08 587.288 1617.64 630.228 1672.66C665.955 1717.87 707.425 1758.31 754.21 1792.02C762.947 1798.9 772.57 1804.57 781.519 1811.07C784.107 1813.68 786.694 1817.22 786.411 1820.96C783.557 1822.7 779.925 1822.52 776.77 1821.85Z" fill="black"/>
<path d="M844.645 1821.46C843.085 1821.07 841.792 1820.3 840.498 1819.37C834.118 1814.72 827.774 1810.04 821.323 1805.51C805.054 1793.28 788.041 1780.27 772.641 1767.33C742.284 1743.28 714.797 1716.42 686.212 1690.4C655.199 1660.7 629.396 1626.12 606.977 1589.62C591.152 1563.71 576.212 1537.16 565.384 1508.73C561.149 1498.19 557.853 1486.14 555.46 1475.38C554.326 1472.3 554.415 1468.08 558.154 1466.93C564.108 1465.33 565.136 1472.42 566.572 1476.53C569.141 1484.63 571.693 1492.71 574.812 1500.62C586.225 1528.62 600.864 1555.15 616.441 1581C630.778 1603.87 645.806 1626.28 663.28 1646.74C685.538 1674.03 711.448 1696.98 737.091 1720.81C754.299 1736.78 772.216 1751.47 790.221 1765.93C808.882 1781 828.624 1794.63 848.508 1808.02C855.792 1812.4 855.207 1823.81 844.645 1821.46Z" fill="black"/>
<path d="M671.999 1662.15C668.348 1657.88 672.265 1652.53 675.703 1649.55C678.662 1646.47 681.569 1643.35 683.908 1640.73C713.645 1606.17 739.714 1568.17 760.537 1527.59C760.484 1527.68 760.448 1527.75 760.413 1527.82C770.532 1507.58 779.854 1486.99 788.768 1466.2C796.69 1448.11 804.168 1429.46 807.748 1409.97C808.545 1405.01 815.794 1404.83 816.573 1409.97C816.059 1421.37 811.806 1432.37 808.652 1443.27C801.634 1464.66 792.046 1485.13 783.256 1505.83C765.428 1547.42 741.149 1585.77 713.929 1621.82C707.301 1630.73 700.176 1639.27 693.141 1647.87C690.429 1651.18 687.594 1654.36 684.741 1657.55C681.994 1661.37 676.589 1665.98 671.999 1662.15Z" fill="black"/>
<path d="M505.095 1768.33C519.892 1757.18 538.252 1754.45 554.184 1745.57C582.699 1730.05 610.752 1712.52 634.836 1690.65C636.626 1688.36 640.454 1688.49 641.907 1691.09C643.892 1694.28 640.826 1697.31 638.753 1699.46C618.479 1720.32 594.005 1736.67 568.787 1750.92C549.24 1761.45 527.867 1771.53 505.095 1768.33Z" fill="black"/>
<path d="M642.279 1633.83C642.386 1624.26 648.429 1616.82 654.507 1610.05C669.553 1591.74 683.181 1572.2 694.825 1551.57C708.027 1529.19 718.837 1505.54 727.911 1481.21C737.481 1457.39 747.795 1433.82 754.831 1409.08C755.61 1405.24 757.241 1401.36 760.803 1399.43C764.046 1400.7 764.702 1405.24 764.117 1408.32C758.907 1436.46 747.671 1462.85 737.676 1489.51C733.83 1500.1 729.807 1510.63 725.271 1520.98C715.311 1543.38 701.488 1564.24 688.303 1584.78C681.48 1595.01 674.285 1604.95 666.718 1614.64C660.32 1622.7 653.905 1633.73 642.279 1633.83Z" fill="black"/>
<path d="M492.707 1750.91C489.375 1749.56 487.727 1745.52 489.464 1742.27C492.016 1736.87 498.733 1736.28 503.588 1733.89C513.016 1729.99 522.285 1725.67 530.632 1721.49C559.696 1705.52 587.306 1687.3 611.727 1665.02C615.059 1659.85 622.785 1662.24 620.783 1668.55C620.092 1670.06 618.886 1671.26 617.788 1672.5C601.714 1689 582.911 1702.58 564.162 1715.87C549.311 1726.56 533.361 1735.59 516.826 1743.43C511.829 1745.73 506.796 1747.98 501.763 1750.2C498.981 1751.53 495.631 1752.32 492.707 1750.91Z" fill="black"/>
<path d="M726.848 1793.77C702.073 1786.65 676.908 1781.14 651.991 1774.53C626.879 1768.04 601.182 1764.39 575.929 1758.6C572.118 1757.69 568.344 1756.74 564.534 1755.83C562.637 1755.48 560.458 1754.96 559.66 1752.98C557.959 1749.38 561.929 1745.87 565.438 1747.38C593.934 1754.29 623.193 1757.2 651.76 1763.88C676.252 1770.24 700.974 1775.66 725.465 1782.04C731.19 1783.27 737.233 1786.08 739.643 1791.74C736.045 1794.31 731.083 1794.77 726.848 1793.77Z" fill="black"/>
<path d="M906.281 1840.24C901.62 1839.9 896.818 1839.98 892.263 1838.82C889.8 1837.83 888.542 1834.91 890.083 1832.64C891.98 1829.93 895.294 1831.04 898.023 1831.27C904.668 1831.81 910.446 1831.97 916.932 1832.04C950.462 1831.26 983.407 1823.97 1016.35 1818.3C1037.64 1814.72 1058.65 1809.85 1079.71 1805.19C1114 1798.15 1148.22 1791.4 1181.98 1782.33C1200.27 1776.74 1218.7 1771.8 1237.41 1767.79C1243.12 1766.27 1247.96 1765.31 1252.78 1762.62C1254.64 1761.13 1256.61 1759.36 1259.21 1759.78C1261.66 1760.01 1263.54 1762.34 1263.13 1764.8C1261.46 1776.62 1221.18 1779.76 1210.25 1783.73C1158.64 1799.43 1105.3 1807.83 1052.82 1819.84C1028.1 1825.11 1003.2 1829.5 978.285 1833.7C954.538 1837.71 930.436 1841.71 906.281 1840.24Z" fill="black"/>
<path d="M1259 1770.17C1256.98 1769.66 1255.63 1768.04 1255.54 1765.99C1248.1 1762.18 1240.21 1760.46 1232.31 1758.08C1215.76 1753.55 1200.2 1749.56 1183.65 1745.84C1163 1740.08 1142.89 1735.63 1121.73 1732.17C1090.64 1725.44 1059.61 1718.26 1028.26 1712.86C1012.84 1710.14 997.283 1708.21 981.829 1705.64C972.189 1704.17 962.513 1702.35 953.581 1698.25C950.143 1696.73 946.722 1694.9 943.497 1693.15C952.943 1691.57 962.708 1692.41 972.136 1693.73C992.941 1697.92 1013.98 1700.75 1034.89 1704.37C1055.39 1708.04 1075.74 1712.45 1096.12 1716.77C1116.75 1721.66 1137.73 1724.87 1158.37 1729.6C1168.92 1732.23 1179.37 1735.17 1189.95 1737.65C1200.06 1739.88 1210.1 1742.31 1220.01 1745.32C1233.53 1749.61 1247.9 1752.06 1260.59 1758.49C1263.2 1760.05 1265.47 1762.99 1264.81 1766.18C1264.32 1768.75 1261.62 1770.86 1259 1770.17Z" fill="black"/>
<path d="M729.329 1725.51C725.554 1725.51 722.435 1721.31 724.721 1717.89C725.661 1716.19 727.681 1715.2 729.524 1714.98C733.529 1714.2 737.552 1713.69 741.628 1713.62C773.527 1711.3 805.373 1707.33 836.847 1701.66C860.754 1697.88 884.749 1694.51 908.727 1691.13C917.995 1690.1 927.264 1688.65 936.586 1688.4C944.862 1688.44 952.89 1690.69 960.953 1692.33C964.001 1693.24 967.616 1693.42 970.027 1695.65C971.994 1697.76 970.948 1701.51 968.042 1702.1C956.912 1700.98 945.712 1697.54 934.335 1698.08C909.507 1699.9 884.909 1704.07 860.258 1707.56C844.397 1709.51 828.748 1712.66 812.94 1714.91C785.17 1719.09 757.117 1721.68 729.329 1725.51Z" fill="black"/>
<path d="M585.942 1744.44C582.592 1744.14 579.261 1742.9 576.514 1741.03C580.43 1737.22 585.694 1734.81 591.081 1733.96C616.955 1730.17 643.024 1727 669.128 1725.44C672.725 1725.1 678.024 1725.72 677.404 1730.56C677.032 1732.86 674.923 1734.32 672.672 1734.12C652.788 1735.15 633.223 1739.14 613.428 1741.1C603.929 1741.76 595.316 1744.9 585.942 1744.44Z" fill="black"/>
<path d="M879.132 1704.62C891.413 1694.34 904.367 1684.71 918.704 1677.43C937.153 1667.12 955.389 1656.31 972.632 1644.04C999.64 1624.85 1024.52 1603.25 1049.26 1581.32C1094.45 1540.94 1135.18 1495.04 1163.99 1441.55C1169.75 1431.22 1174.78 1419.47 1179.06 1408.91C1180.35 1405.77 1181.22 1403.45 1182.37 1400.38C1182.9 1397.78 1185.05 1395.24 1187.97 1395.88C1193.48 1397.23 1191.11 1403.48 1189.83 1407.28C1187.14 1415.38 1184.04 1423.35 1180.77 1431.24C1147.49 1503.15 1090.8 1561.14 1031.4 1612.28C997.442 1641.86 960.492 1667.9 921.026 1689.6C908.107 1696.85 893.734 1702.45 879.132 1704.62Z" fill="black"/>
<path d="M947.927 1697.83C955.052 1691.06 962.477 1684.55 970.328 1678.65C988.386 1666.12 1008.5 1656.7 1026.08 1643.33C1060.69 1617.19 1095.3 1590.54 1125.7 1559.47C1157.51 1526.44 1183.52 1488.28 1204.08 1447.36C1210.62 1434.39 1216.09 1420.9 1221 1407.24C1222.95 1401.45 1225.06 1395.28 1230.36 1391.73C1233.51 1397.65 1231.23 1404.46 1229.14 1410.4C1225.1 1422.89 1220.24 1435.14 1214.75 1447.06C1197.17 1484.49 1174.41 1519.69 1147 1550.66C1122.04 1579.21 1092.47 1603.83 1062.87 1627.24C1043.09 1643.26 1023.88 1659.34 1002.03 1672.26C984.931 1682.6 967.067 1692.58 947.927 1697.83Z" fill="black"/>
<path d="M1103.91 1536.97C1095.34 1532.41 1089.88 1524.28 1085.57 1515.84C1075.9 1498.01 1067.23 1479.64 1058.26 1461.45C1053.83 1452.26 1049.58 1442.95 1045.38 1433.65C1043.84 1430.23 1042.38 1426.77 1041.02 1423.28C1039.64 1420.62 1038.57 1416.62 1041.92 1414.95C1045.59 1413.21 1047.93 1416.63 1048.89 1419.75C1050.36 1423.07 1051.88 1426.35 1053.44 1429.61C1060.11 1443.61 1066.93 1457.52 1074.04 1471.32C1081.53 1485.77 1088.98 1500.23 1096.95 1514.41C1101.35 1521.02 1104.46 1528.96 1103.91 1536.97Z" fill="black"/>
<path d="M1253.79 1760.28C1250.26 1759.54 1247.75 1756.81 1245.64 1754.06C1242.77 1750.64 1239.95 1747.18 1237.11 1743.73C1228.14 1732.47 1219.09 1721.22 1210.81 1709.45C1179.29 1665.98 1153.2 1618.93 1127.61 1571.86C1125.46 1564.84 1131.79 1562.7 1135.64 1568.6C1161 1614.13 1186.09 1659.96 1216.52 1702.36C1226.09 1715.87 1235.59 1728.08 1246.24 1740.45C1250.44 1746.17 1258.59 1751.19 1257.21 1759.2C1257.12 1760.92 1254.98 1760.51 1253.79 1760.28Z" fill="black"/>
<path d="M1260.24 1771.6C1258.17 1769.03 1257.63 1764.68 1261.67 1763.75C1264.55 1763.13 1266.14 1765.84 1267.52 1767.88C1286.13 1795.28 1306.42 1821.44 1328.72 1845.93C1337.28 1855.61 1346.07 1865.07 1354.82 1874.55C1353.35 1874.96 1351.9 1875.38 1350.44 1875.84C1348.58 1876.41 1346.74 1876.98 1344.88 1877.55C1314.72 1843.75 1284.18 1810.24 1260.24 1771.6Z" fill="black"/>
<path d="M1075.28 1558.37C1072.33 1553.82 1069.8 1548.54 1067.02 1544.09C1067.02 1544.09 1067.02 1544.11 1067.04 1544.11C1067.07 1544.16 1067.11 1544.21 1067.16 1544.32C1048.18 1511.77 1029.39 1478.98 1014.03 1444.51C1010.88 1436.91 1006.85 1429.29 1005.59 1421.12C1005.77 1417.48 1010.84 1416.1 1012.81 1419.19C1012.81 1419.19 1012.81 1419.19 1012.81 1419.17C1026.38 1448.75 1041.39 1477.74 1057.38 1506.09C1066.61 1521.53 1075.26 1536.91 1084.65 1552.03C1088.07 1559.9 1081.3 1565.37 1075.28 1558.37Z" fill="black"/>
<path d="M1203.42 1745.89C1186.96 1728.75 1173.14 1709.21 1159.51 1689.78C1137.27 1658.4 1115.97 1626.11 1099.36 1591.34C1098.3 1588.93 1097.15 1586.2 1098.7 1583.73C1101.24 1580.31 1105.92 1582 1106.57 1586C1125.55 1624.12 1149.25 1659.02 1173.9 1693.5C1184.43 1708.57 1195.68 1723.21 1208.54 1736.36C1210.3 1738.02 1212.32 1739.86 1212.07 1742.52C1211.88 1746.78 1206.54 1748.69 1203.42 1745.89Z" fill="black"/>
<path d="M1265.02 1768.61C1257.9 1764.37 1246.11 1756.7 1247.09 1747.36C1256.64 1750.62 1261.5 1759.8 1265.02 1768.61Z" fill="black"/>
<path d="M1272.1 1775.91C1263.62 1768.77 1250.33 1759.2 1250.3 1747.13C1260.1 1754.33 1266.07 1765.69 1272.1 1775.91Z" fill="black"/>
<path d="M1295.42 1854.1C1295.38 1854.05 1295.35 1854.01 1295.31 1853.98C1295.31 1853.98 1295.31 1853.96 1295.29 1853.96C1295.36 1854.05 1295.43 1854.12 1295.51 1854.19C1295.47 1854.15 1295.45 1854.12 1295.42 1854.1Z" fill="black"/>
<path d="M1296.29 1855.04C1296.36 1855.11 1296.43 1855.2 1296.5 1855.27C1296.43 1855.18 1296.36 1855.11 1296.29 1855.04Z" fill="black"/>
<path d="M1298.48 1857.43C1298.47 1857.41 1298.43 1857.38 1298.41 1857.36C1298.48 1857.43 1298.55 1857.5 1298.61 1857.57C1298.57 1857.52 1298.54 1857.47 1298.48 1857.43Z" fill="black"/>
<path d="M1299.3 1858.34C1299.24 1858.28 1299.19 1858.21 1299.14 1858.16C1299.21 1858.25 1299.3 1858.32 1299.37 1858.41C1299.35 1858.37 1299.33 1858.35 1299.3 1858.34Z" fill="black"/>
<path d="M679.247 1943.05C667.019 1942.92 655.376 1938.9 643.821 1935.32C619.808 1928.32 595.653 1921.5 571.853 1913.89C565.207 1911.04 558.561 1907.76 552.944 1903.19C558.739 1903.39 564.764 1903.33 570.63 1903.88C604.496 1909.13 636.963 1921.59 670.262 1929.6C679.212 1932.38 687.523 1936.93 694.878 1942.71C689.845 1943.37 684.404 1943.24 679.247 1943.05Z" fill="black"/>
<path d="M691.635 1913.57C655.836 1901.01 619.17 1891.42 583.017 1880.01C572.934 1876.07 561.149 1874.66 553.103 1866.9C552.766 1866.61 549.576 1863.42 550.445 1863.1C550.462 1863.12 550.445 1863.12 550.462 1863.14C550.462 1863.14 550.498 1863.16 550.48 1863.16C550.48 1863.16 550.551 1863.17 550.533 1863.19C562.797 1861.37 573.519 1866.97 585.126 1869.87C606.003 1875.88 627.162 1880.91 647.915 1887.31C657.963 1890.41 667.94 1893.69 677.936 1896.99C685.131 1899.89 693.318 1900.71 699.946 1904.77C701.594 1905.99 703.065 1907.64 703.845 1909.53C704.058 1910.07 704.306 1910.6 703.951 1911.09C700.974 1914.43 695.711 1914.73 691.635 1913.57Z" fill="black"/>
<path d="M681.196 2003.53C674.32 2002.59 668.649 1999.72 662.004 1998.2C652.771 1995.72 643.431 1993.68 634.216 1991.07C619.772 1986.89 605.311 1982.37 591.914 1975.42C587.448 1973.12 583.336 1970 580.022 1966.21C576.797 1962.49 574.794 1957.95 573.253 1953.33C569.691 1941.61 566.554 1929.72 564.037 1917.74C563.878 1913.17 558.827 1903.74 565.508 1902.3C567.812 1901.98 569.921 1903.77 570.098 1906.08C571.764 1913.4 573.465 1920.73 575.539 1927.95C583.655 1957.24 582.22 1964.12 613.464 1974.27C634.145 1981.24 655.748 1984.89 676.553 1991.32C682.933 1993.06 688.781 1996.87 692.645 2002.27C689.1 2003.69 685.006 2003.85 681.196 2003.53Z" fill="black"/>
<path d="M556.063 1868.17C551.916 1865.92 551.88 1860.73 550.906 1856.65C547.662 1841.2 542.718 1826.22 539.989 1810.65C537.632 1799.96 534.584 1789.45 532.369 1778.75C531.412 1772.21 526.875 1762.53 533.769 1757.99C538.624 1760.07 540.184 1765.42 540.981 1770.22C542.151 1775.36 543.339 1780.52 544.668 1785.62C547.485 1796.26 550.356 1806.91 552.625 1817.68C555.602 1830.19 559.324 1842.53 561.875 1855.16C562.319 1857.5 563.063 1859.82 563.187 1862.2C563.417 1865.85 559.926 1870.74 556.063 1868.17Z" fill="black"/>
<path d="M1029.08 1963.27C1015.39 1962.29 1002.97 1956.44 992.214 1948.15C984.133 1942.48 977.399 1936.76 970.664 1930.06C965.242 1925.08 960.705 1918.89 959.323 1911.5C959.27 1911.2 958.986 1910.69 959.11 1910.46C965.242 1913.22 970.629 1917.39 975.184 1922.33C986.047 1932.73 997.708 1941.66 1010.57 1948.84C1021.31 1953.2 1031.57 1958.66 1042.33 1962.95C1038.1 1963.76 1033.45 1963.75 1029.08 1963.27Z" fill="black"/>
<path d="M1242.34 1914.41C1239.38 1900.34 1243.7 1886.78 1245.9 1872.97C1250.65 1838.72 1259.09 1804.44 1255.19 1770.03C1251.02 1767.65 1253.88 1760.71 1258.57 1761.98C1265.96 1764.46 1265.01 1778.62 1265.59 1785.09C1265.83 1796.36 1265.29 1807.63 1264.23 1818.85C1263.45 1827.16 1262.38 1835.44 1261.13 1843.68C1260.04 1849.45 1259.3 1855.41 1258.57 1861.41C1258.52 1861.81 1258.47 1862.21 1258.42 1862.61C1256.46 1878.94 1254.46 1895.51 1245.89 1909.33C1244.82 1911.07 1243.64 1912.76 1242.34 1914.41Z" fill="black"/>
<path d="M1034.09 1966C1024.96 1966.97 1022.04 1957.45 1033.06 1957.93C1064.86 1956.71 1095.96 1949.05 1126.67 1941.31C1164.65 1930.32 1203.03 1920.88 1241.19 1910.62C1242.75 1910.18 1244.32 1909.75 1245.89 1909.33C1249.48 1908.37 1253.08 1907.43 1256.68 1906.49C1261.56 1905.21 1266.43 1903.94 1271.29 1902.6C1274.94 1901.6 1278.59 1900.56 1282.21 1899.45C1292.98 1896.17 1303.54 1892.34 1313.64 1887.26C1314.81 1886.67 1315.97 1886.07 1317.13 1885.45C1318.49 1883.68 1317.06 1881.23 1317.02 1879.27C1325.08 1878.86 1329.64 1888.06 1323.84 1893.94C1316.81 1898.72 1308.18 1900.8 1300.29 1903.93C1286.11 1908.42 1271.67 1912.09 1257.3 1915.86C1228.43 1923.25 1199.65 1930.98 1170.76 1938.35C1125.73 1949.67 1080.89 1965.06 1034.09 1966Z" fill="black"/>
<path d="M1318.07 1893.58C1316.68 1891.41 1315.2 1889.31 1313.64 1887.26C1307.15 1878.71 1299.47 1871.09 1292.92 1862.55C1291.29 1860.49 1289.68 1858.41 1288.1 1856.32C1285.8 1853.28 1283.55 1850.2 1281.36 1847.08C1275.03 1838.06 1269.21 1828.68 1264.23 1818.85C1263.98 1818.36 1263.73 1817.86 1263.48 1817.36C1262.38 1815.15 1260.97 1812.81 1260.35 1810.52C1263.68 1814.78 1267.81 1818.37 1271.55 1822.29C1291.16 1841.41 1308.12 1863.01 1323.61 1885.57C1324.5 1886.99 1325.51 1888.64 1325.83 1890.31C1326.71 1894.77 1320.64 1897.41 1318.07 1893.58Z" fill="black"/>
<path d="M995.847 2017.28C995.723 2017.28 995.599 2017.28 995.475 2017.28C995.404 2017.28 995.333 2017.3 995.28 2017.32C995.369 2017.46 995.05 2017.35 995.121 2017.23C995.28 2016.66 996.025 2016.2 996.468 2015.87C1001.22 2012.14 1006.83 2009.5 1012.7 2008.05C1021.83 2005.85 1030.97 2003.74 1040.1 2001.58C1054.77 1998.16 1069.3 1994.35 1083.89 1990.61C1128.53 1979.45 1173.19 1968.19 1217.16 1954.53C1244.57 1945.76 1272.29 1937.91 1299.87 1929.7C1314.45 1925.43 1330.1 1921.05 1343.41 1913.91C1349.57 1910.08 1357.41 1907.09 1361.09 1900.51C1360.69 1893.02 1354.87 1886.62 1352.45 1879.78C1356.06 1882.74 1359.77 1885.68 1363.15 1888.92C1388.58 1911.61 1333.5 1928.71 1317.6 1933.97C1290.72 1942.59 1263.48 1949.96 1236.46 1958.09C1192.12 1972.57 1146.85 1984 1101.66 1995.5C1080.42 2000.68 1059.33 2006.54 1037.99 2011.35C1024.08 2014.27 1010.26 2019.36 995.865 2017.27L995.847 2017.28Z" fill="black"/>
<path d="M1366.62 1901.7C1362.67 1901.33 1362.16 1896.88 1360.56 1894.06C1356.56 1887.74 1350.34 1883.25 1345.36 1877.74C1340.09 1871.77 1335.54 1864.89 1331.37 1858.28C1337.08 1861.9 1342.63 1865.64 1347.57 1869.57C1355.72 1875.92 1365.28 1882.07 1369.58 1891.83C1370.11 1893.57 1370.79 1895.36 1370.72 1897.2C1370.5 1899.29 1369 1901.86 1366.62 1901.7Z" fill="black"/>
<path d="M1002.12 2047.29C1000.49 2045.09 1000.6 2041.86 1002.63 2039.93C1003.88 2038.74 1005.31 2038.28 1006.94 2038.25L1006.91 2038.21C1029.64 2032.84 1052.1 2026.13 1074.8 2020.56C1101.86 2013.56 1129.04 2006.92 1155.45 1997.65C1170.92 1991.83 1186.57 1986.32 1201.58 1979.36C1213.28 1974.22 1219.66 1967.86 1223.94 1955.72C1225.77 1951.18 1232.98 1952.95 1232.26 1957.88C1227.91 1980.37 1209.57 1987.35 1190.47 1994.95C1161.69 2006.76 1132.11 2016.24 1102.04 2024.16C1077.51 2030.5 1053.04 2037.17 1028.56 2043.76C1024.1 2045.02 1019.67 2046.38 1015.22 2047.73C1011.25 2048.9 1005.36 2051.61 1002.12 2047.29Z" fill="black"/>
<path d="M986.437 1702.49C984.151 1698.86 982.467 1694.85 980.341 1691.11C978.87 1688.51 977.682 1685.53 977.877 1682.48C977.895 1682.29 977.842 1682.04 978.001 1681.91C980.11 1680.73 982.963 1681.74 984.86 1682.92C987.819 1684.73 989.166 1688.01 990.602 1691C991.878 1693.7 993.349 1696.41 993.987 1699.33C994.625 1703.45 988.936 1705.86 986.437 1702.49Z" fill="black"/>
<path d="M833.055 1710.41C825.984 1692.55 843.333 1671.56 855.774 1660.12C868.215 1650.17 883.704 1643.21 899.689 1642C912.324 1641.54 925.12 1644.34 936.94 1648.7C943.426 1651.87 949.717 1655.67 955.424 1660.1C957.48 1661.94 957.037 1665.72 954.626 1667.04C952.323 1668.44 950.001 1667.28 948.14 1665.73C940.183 1660.33 931.535 1656.02 922 1654.36C896.906 1648.08 870.111 1658.73 853.63 1678.1C844.468 1687.78 843.014 1701.55 833.055 1710.41Z" fill="black"/>
<path d="M1361.2 2106.3C1336.07 2104.48 1313.19 2090.74 1294.3 2074.79C1270.68 2052.25 1253.7 2022.65 1244.31 1991.5C1241.12 1979.64 1239.29 1967.41 1239.1 1955.15C1239.42 1951.54 1237.56 1945.97 1241.79 1944.2C1244.18 1943.28 1247 1945.12 1247.14 1947.67C1247.57 1960.84 1249.25 1973.92 1252.55 1986.66C1252.55 1986.64 1252.53 1986.62 1252.53 1986.61C1252.51 1986.52 1252.48 1986.43 1252.46 1986.34C1260.17 2013.01 1274.15 2037.95 1292.37 2058.84C1307.73 2075.68 1327.97 2088.12 1349.5 2095.4C1369.95 2101.82 1391.88 2098.41 1412.42 2094.41C1418.14 2093.36 1424.11 2092.02 1429.66 2090.85C1407.61 2098.72 1384.91 2107.28 1361.2 2106.3Z" fill="black"/>
<path d="M1464.25 1781.78C1442.45 1760.49 1415.93 1742.88 1385.53 1737.35C1360.23 1732.21 1337.74 1731.34 1314.43 1744.19C1305.39 1748.64 1296.78 1754.25 1289.32 1760.97C1283.15 1766.25 1277.75 1772.44 1272.02 1778.11C1269.03 1780.09 1264.79 1777.15 1265.4 1773.68C1266.94 1768.79 1271.6 1765.53 1274.84 1761.72C1282.07 1754.34 1289.82 1747.36 1298.59 1741.87C1325.1 1724.73 1348.76 1719.86 1379.74 1725C1412.38 1728.88 1443.06 1744.35 1465.78 1768.1C1469.48 1771.68 1472.87 1775.52 1475.97 1779.56C1475.49 1781.35 1475.13 1783.18 1474.74 1784.98C1474.19 1785.43 1473.65 1785.89 1473.1 1786.33C1472.95 1786.38 1472.81 1786.44 1472.67 1786.51C1471.73 1786.92 1470.81 1787.38 1469.94 1787.91C1468.17 1785.78 1466.27 1783.74 1464.25 1781.78Z" fill="black"/>
<path d="M1369.74 2108.32C1365.19 2108.06 1360.24 2108.91 1356.1 2106.64C1354.48 2105.7 1352.32 2103.84 1352.64 2101.82C1354.63 2100.88 1356.56 2099.8 1358.81 2099.57C1379.29 2100.38 1399.9 2095.21 1418.39 2087.69C1450.29 2075.16 1474.37 2048.83 1491.81 2020.03C1499.71 2006.47 1505.12 1991.73 1510.35 1977C1518.64 1954.87 1524.33 1931.55 1523.51 1907.78C1528.53 1928.94 1527.93 1951.66 1522.31 1972.78C1512.14 2014.48 1487.66 2052.76 1454.15 2079.58C1429.84 2097.19 1399.76 2107.44 1369.74 2108.32Z" fill="black"/>
<path d="M1502.11 2018.17C1507.81 2000.48 1510.72 1982.18 1513.02 1963.96C1515.34 1944.87 1516.94 1924.46 1515.24 1905.55C1512.3 1874.73 1502.89 1844.44 1488.44 1817.1C1482.52 1806.29 1475.51 1796.13 1468.06 1786.31C1465.79 1783.3 1463.86 1780.04 1461.31 1777.26C1459.01 1775.54 1457.98 1772.15 1460.12 1769.89C1464.2 1765.79 1468.52 1771.13 1471.24 1774.17C1475.88 1779.19 1480.03 1784.61 1483.89 1790.25C1498.65 1811.09 1509.43 1834.45 1516.43 1858.97C1523.16 1881.39 1527.18 1905.53 1526.14 1928.87C1525.98 1962.49 1520.06 1989.5 1502.11 2018.17Z" fill="black"/>
<path d="M1364.6 2043.33C1330.97 2040.29 1300.06 2017.89 1284.59 1988.15C1278.92 1977.09 1275.43 1966.1 1274.24 1954.09C1273.81 1950.74 1273.62 1947.37 1273.65 1944C1273.57 1942.48 1273.87 1940.96 1275.05 1939.89C1276.56 1938.39 1279.1 1938.67 1280.5 1940.12C1281.93 1941.61 1281.66 1943.83 1281.79 1945.74C1284.31 1988.66 1319.64 2026.91 1362.12 2033.09C1389.84 2035.93 1416.76 2017.6 1429.96 1994.03C1436.89 1981.15 1442.95 1967.75 1446.37 1953.48C1449.15 1943.06 1452.4 1932.73 1453.42 1921.96C1458.55 1883.39 1445.88 1845.82 1428.28 1812.19C1441.5 1831.97 1453.3 1852.84 1459.34 1876.02C1464.16 1892.49 1464.29 1909.94 1462.69 1926.9C1462 1934.17 1459.98 1941.2 1457.86 1948.17C1453.25 1966.78 1446.55 1984.82 1436.82 2001.42C1422.11 2026.07 1393.9 2044.59 1364.6 2043.33Z" fill="black"/>
<path d="M1455.04 1889.08C1455.23 1884.3 1462.29 1884.39 1462.34 1889.19C1462.14 1893.97 1455.09 1893.89 1455.04 1889.08Z" fill="black"/>
<path d="M1459.17 1897.06C1454.88 1892.73 1453.44 1886.78 1452.4 1881C1448.34 1865.19 1443.98 1850.24 1435.76 1836.27C1426.54 1820.69 1411.57 1809.72 1395.85 1801.48C1376.46 1790.55 1359.57 1790.69 1339.83 1800.51C1331.45 1804.71 1323.19 1809.17 1315 1813.73C1309.75 1817.56 1304.86 1821.85 1299.74 1825.82C1304.08 1812.4 1311.33 1801.94 1323.84 1794.86C1338.8 1786.54 1355.97 1780.29 1373.3 1782.75C1387.87 1784.68 1400.86 1791.98 1412.88 1799.69C1426.93 1808.52 1438.01 1821.49 1445.93 1835.99C1450.82 1845.54 1454.47 1855.73 1457.02 1866.15C1459.02 1876.13 1464.38 1887.35 1459.17 1897.06Z" fill="black"/>
<path d="M1302.03 1821.17C1294.09 1815.34 1312.55 1804.6 1316.9 1801.45C1323.24 1797.5 1330.36 1794.91 1337.33 1792.27C1332.19 1797.05 1326.75 1801.96 1321.7 1807C1317.11 1811.8 1312.18 1816.21 1307.26 1820.68C1305.86 1822.01 1303.64 1822.18 1302.03 1821.17Z" fill="black"/>
<path d="M1304.99 1822.86C1303.55 1822.82 1302.12 1821.9 1301.64 1820.5C1300.34 1815.7 1306.39 1812.06 1309.22 1808.96C1316.15 1803.15 1324.14 1798.61 1332.63 1795.49C1336.48 1794.16 1340.84 1793.53 1344.75 1793.21C1331.22 1799.62 1320.14 1809.94 1309.51 1820.2C1308.35 1821.56 1306.92 1822.98 1304.99 1822.86Z" fill="black"/>
<path d="M1275.37 1908.1C1272.96 1907.39 1271.79 1905.3 1271.29 1902.6C1270.68 1899.38 1271.03 1895.32 1271.34 1891.77C1271.53 1889.56 1271.7 1887.55 1271.62 1886.07C1272.66 1872.92 1275.99 1859.9 1280.89 1847.7C1281.04 1847.48 1281.2 1847.27 1281.36 1847.08C1284.8 1842.98 1290.33 1845.76 1289.46 1851.26C1289.13 1852.96 1288.59 1854.64 1288.1 1856.32C1288.01 1856.61 1287.93 1856.9 1287.85 1857.18C1285.23 1865.78 1283.58 1874.62 1282.64 1883.55C1282.2 1888.82 1282.04 1894.16 1282.21 1899.45C1282.21 1899.53 1282.21 1899.62 1282.21 1899.7C1283.3 1904.25 1280.62 1909.46 1275.37 1908.1Z" fill="black"/>
<path d="M316.127 631.002C310.651 618.455 322.489 607.149 320.008 594.371C315.223 571.191 300.425 551.874 288.073 532.203C277.99 515.597 269.04 498.301 260.214 481.004C254.047 469.644 248.642 457.93 242.971 446.304C237.07 434.519 231.009 422.77 226.153 410.488C217.044 386.298 209.814 361.416 202.955 336.517C196.682 310.288 190.639 283.989 184.241 257.778C176.266 227.811 166.75 197.541 159.112 167.591C146.972 123.517 139.228 76.4474 110.483 39.4262C103.465 30.4944 96.6066 22.6259 87.6571 16.0865C85.5128 14.4383 85.2823 10.6813 87.9583 9.44075C89.5179 8.69643 91.0774 8.94447 92.5483 9.81284C110.926 22.4486 124.501 41.2516 135.116 60.5508C152.873 92.2553 159.147 128.656 169.426 163.09C177.914 194.6 187.998 225.648 196.416 257.176C204.373 288.49 210.523 320.301 219.844 351.262C224.948 368.948 230.211 386.635 236.769 403.843C246.835 427.608 259.293 450.327 271.078 473.277C283.076 495.855 295.534 518.167 309.8 539.362C321.461 558.36 338.758 584.66 333.618 607.592C331.456 617.286 327.061 628.893 316.127 631.002Z" fill="black"/>
<path d="M343.33 651.347C333.14 647.59 325.006 638.959 321.355 628.787C319.884 623.86 316.499 614.592 323.304 612.394C325.697 611.756 328.373 613.245 329.17 615.549C334.239 627.298 341.646 638.41 343.33 651.347Z" fill="black"/>
<path d="M256.581 714.455C251.602 711.744 247.242 707.721 241.784 705.966C231.044 705.027 220.394 705.488 210.292 701.677C190.887 695.51 175.097 681.226 160.476 667.563C157.658 664.32 155.691 660.385 154.592 656.256C154.468 655.795 154.167 654.413 155.071 654.839C155.106 654.892 155.018 654.909 155 654.945C166.944 659.287 174.565 669.778 184.755 676.619C195.636 684.718 207.616 692.037 221.386 693.401C229.095 694.66 236.751 693.525 244.353 694.394C249.103 695.563 253.516 698.204 257.414 700.986C257.397 700.969 257.379 700.969 257.361 700.951C257.326 700.933 257.29 700.898 257.273 700.88C262.217 704.495 268.491 707.473 269.784 714.048C266.01 716.883 260.587 716.706 256.581 714.455Z" fill="black"/>
<path d="M263.227 714.898C261.774 712.187 263.67 708.961 266.63 708.589C270.015 707.543 273.329 706.374 276.572 704.956C292.061 697.531 305.972 686.951 318.059 674.793C327.38 665.578 333.849 654.059 341.026 643.319C344.783 651.241 342.532 660.722 336.985 667.226C331.155 674.9 324.545 682.042 317.261 688.368C306.256 697.761 294.382 706.48 281.162 712.488C276.979 713.888 265.85 720.268 263.227 714.898Z" fill="black"/>
<path d="M335.373 828.194C331.261 827.007 327.93 823.906 325.679 820.344C321.55 813.804 317.74 807.088 313.823 800.424C304.484 786.672 294.294 773.398 283.182 761.028C272.602 750.945 273.222 735.527 272.407 722.04C272.177 718.691 271.911 715.341 271.698 711.992C271.627 710.29 271.663 708.589 273.098 707.402C274.498 706.25 276.359 705.984 277.919 706.977C279.584 707.898 279.939 709.723 280.169 711.442C282.119 720.374 282.455 729.501 283.554 738.521C284.334 748.198 291.157 754.578 297.324 761.312C306.575 772.14 315.542 783.34 323.233 795.356C327.044 801.346 330.074 807.779 333.76 813.84C335.249 816.126 337.163 819.724 340.406 818.802C346.325 816.285 348.186 809.179 348.841 803.331C349.284 798.493 349.373 793.53 348.044 788.816C345.049 780.31 339.963 772.601 336.277 764.52C344.127 772.902 354.849 780.239 357.472 792.042C359.35 801.771 358.535 813.042 352.244 821.088C348.487 826.298 341.877 830.126 335.373 828.194Z" fill="black"/>
<path d="M361.388 832.093C357.366 825.341 358.677 816.852 359.545 809.392C360.91 800.814 365.961 792.13 364.72 783.376C360.236 776.624 354.229 770.953 348.54 765.353C346.36 763.368 344.234 761.223 341.522 759.983L341.504 759.93C341.115 759.823 340.725 759.681 340.317 759.77C340.264 759.841 340.246 759.912 340.211 760L340.104 760.284C339.732 762.942 336.507 764.856 334.256 762.96C330.871 759.788 333.92 753.886 337.783 752.646C347.051 749.225 359.722 766.593 366.102 772.459C370.568 776.996 374.148 782.135 372.216 788.781C370.816 800.566 365.854 811.589 367.502 823.516C368.708 836.258 385.206 811.926 387.156 808.47C405.959 772.743 391.019 775.932 380.971 744.015C392.667 754.631 408.954 767.355 406.171 785.006C406.136 785.644 406.065 786.371 405.923 787.151L405.888 787.257L405.852 787.381L405.817 787.487L405.782 787.611L405.746 787.718L405.64 788.09L405.604 788.196L405.285 789.313L405.25 789.419L405.179 789.667L405.144 789.773L405.108 789.897L404.966 790.323L404.931 790.447L404.895 790.553L404.754 791.049L404.736 791.173L404.701 791.297L404.63 791.546L404.612 791.67L404.541 791.918L404.523 792.024L404.488 792.13L404.47 792.237L404.435 792.343L404.417 792.414C399.402 808.417 383.523 836.099 369.664 836.099C366.882 836.223 364.029 834.982 361.388 832.093Z" fill="black"/>
<path d="M388.379 817.225C387.688 814.832 389.389 812.812 391.551 812.05C394.369 810.561 397.133 808.931 399.508 806.804C400.979 805.759 401.865 804.305 402.857 802.994V803.065L402.84 803.207V803.348L402.787 803.774V803.915L402.716 804.482V804.624L402.68 804.908V807.3L402.662 807.407V807.531L402.627 807.779L402.609 807.903L402.556 808.275V808.417L402.538 808.541V808.683L402.521 808.824V810.1L402.503 810.171V810.242L402.485 810.331V810.419L402.468 810.526V810.632L402.45 810.756V810.88L402.432 811.004V811.252L402.414 811.376V811.695L402.397 811.802V811.997L402.379 812.085V812.156L402.308 812.511L402.202 813.149V813.273L402.184 813.379V814.336L402.166 814.424V814.513L402.149 814.602V814.797L402.131 814.903V816.055C399.561 817.278 395.698 819.83 392.65 819.83C390.629 820.096 389.212 819.351 388.379 817.225Z" fill="black"/>
<path d="M414.235 760.727C411.559 755.34 409.432 749.704 407.288 744.086C406.295 741.357 405.02 738.468 404.683 735.651C406.703 737.919 408.936 739.992 410.992 742.225C413.544 744.901 417.832 750.608 420.225 756.084L420.207 756.119L420.154 756.208L420.101 756.297L420.048 756.385L419.994 756.474L419.924 756.562L419.817 756.74L419.746 756.828L419.693 756.917L419.41 757.342L419.356 757.449L419.286 757.555L419.232 757.661L419.073 757.98L418.86 758.335L418.807 758.423L418.754 758.512L418.701 758.6L418.222 759.557L418.187 759.664L418.134 759.77L418.081 759.876L418.045 759.965L417.939 760.142L417.903 760.231L417.85 760.32L417.797 760.408L417.637 760.674L417.584 760.78L417.513 760.887L417.46 760.993L417.389 761.099L417.318 761.206L417.265 761.312L417.194 761.436L417.124 761.542L417.07 761.666L416.999 761.773L416.84 762.092L416.681 762.358L416.627 762.446L416.574 762.535L416.503 762.641L416.432 762.747L416.361 762.854L416.291 762.96L416.007 763.456L415.794 763.828L415.759 763.917C415.139 762.924 414.625 761.826 414.235 760.727Z" fill="black"/>
<path d="M413.579 729.094C418.453 730.068 423.255 731.716 427.296 734.693C428.04 735.278 429.05 736.111 430.131 737.086L430.06 737.192L430.007 737.299L429.936 737.405L429.883 737.511L429.724 737.83L429.671 737.937L429.564 738.149L429.493 738.256L429.44 738.38L429.228 738.752L429.157 738.894L429.015 739.142L428.944 739.284L428.873 739.408L428.802 739.532L428.731 739.656L428.625 739.904L428.2 740.754L428.147 740.861L428.093 740.985L427.881 741.357L427.81 741.499L427.739 741.623L427.668 741.765L427.615 741.889L427.544 742.013L427.384 742.385L427.314 742.491L427.26 742.615L427.154 742.863L427.101 742.97L427.048 743.094L426.977 743.218L426.87 743.466L426.8 743.59L426.587 744.086L426.481 744.334L426.427 744.441L426.374 744.565L426.303 744.706C421.802 739.744 416.681 735.119 413.579 729.094Z" fill="black"/>
<path d="M433.197 724.769C428.979 722.855 425.488 719.807 421.767 717.114C413.703 711.194 405.179 705.949 396.371 701.234C377.692 691.399 358.057 682.857 341.93 668.945C339.112 666.535 336.312 663.983 334.044 661.041C331.084 657.001 337.003 652.092 340.406 655.831C350.064 667.137 363.391 674.333 376.186 681.492C391.781 689.45 407.501 697.318 421.962 707.242C427.172 711.159 433.109 714.561 437.131 719.86C437.557 720.392 437.964 720.959 438.372 721.544L438.319 721.615L437.929 722.217L437.592 722.714L437.309 723.139L437.078 723.511L436.883 723.812L436.706 724.078L436.564 724.309L436.423 724.521L436.299 724.716L436.192 724.876L436.086 725.017L435.909 725.301L435.767 725.549L435.696 725.655L435.625 725.762L435.572 725.833C434.774 725.496 433.977 725.141 433.197 724.769Z" fill="black"/>
<path d="M340.618 770.828C339.342 770.651 338.403 769.517 337.765 768.507C335.94 766.31 334.753 763.527 334.682 760.763C336.028 762.358 337.003 764.289 338.297 765.884C339.289 767.426 340.725 768.826 340.813 770.722C340.813 770.722 340.813 770.74 340.813 770.758C340.867 770.846 340.672 770.828 340.618 770.828Z" fill="black"/>
</g>
<path id="Clothing 1" d="M321.426 629.017C324.386 637.098 330.199 644.187 337.606 648.617C331.705 657.762 325.892 667.101 318.077 674.828C305.991 686.985 292.079 697.565 276.59 704.991C273.453 706.355 270.263 707.49 267.02 708.5C264.415 705.416 260.534 703.307 257.256 700.897C253.375 698.15 249.033 695.563 244.336 694.411C236.752 693.542 229.096 694.677 221.369 693.418C207.599 692.054 195.619 684.734 184.738 676.636C175.594 670.486 168.522 661.395 158.51 656.468L158.421 654.802L158.084 653.19L156.294 644.789L111.175 433.101L92.1769 281.117L92.0352 108.027L92.0528 107.159L92.1237 102.746L93.6478 20.9238C99.8327 26.3999 105.114 32.6026 110.501 39.461C139.246 76.4999 146.99 123.569 159.13 167.626C166.786 197.576 176.285 227.845 184.259 257.813C190.639 284.024 196.682 310.323 202.974 336.552C209.832 361.451 217.063 386.35 226.172 410.523C231.027 422.804 237.088 434.554 242.99 446.339C248.661 457.947 254.066 469.679 260.233 481.039C269.058 498.335 278.008 515.632 288.092 532.237C300.444 551.909 315.224 571.226 320.026 594.406C322.507 607.201 310.669 618.508 316.145 631.037C316.145 631.037 316.145 631.055 316.163 631.055C318.112 630.63 319.867 629.956 321.426 629.017Z" fill="white"/>
<g id="Stroller">
<path d="M404.576 792.485L404.505 792.698L404.487 792.822L404.416 793.034L404.381 793.141L404.31 793.389L404.274 793.495L404.239 793.619L404.203 793.725L404.186 793.832L404.15 793.938L403.955 795.108L403.938 795.232L403.902 795.444L403.884 795.569L403.76 796.313L403.743 796.401L403.636 797.039L403.619 797.163L403.566 797.536L403.548 797.677L403.53 797.802L403.512 797.943L403.495 798.067L403.477 798.209L403.406 798.705L403.388 798.812L403.371 798.936L403.353 799.042L403.335 799.166L403.317 799.272L403.3 799.396L403.282 799.503L403.176 800.247L403.158 800.371L403.105 800.743L403.069 800.956L403.052 801.062L403.016 801.275L402.998 801.399L402.981 801.505L402.963 801.629L402.945 801.753L402.928 801.877L402.91 802.019L402.892 802.143L402.874 802.285V802.427L402.839 802.71V802.799C401.847 804.11 400.96 805.564 399.49 806.609C398.993 807.052 398.497 807.46 397.965 807.85C400.872 802.515 403.158 797.022 404.576 792.485Z" fill="#E2E2E2"/>
<path d="M1250.54 1763.75C1246.45 1765.63 1242.23 1766.5 1237.41 1767.79C1218.72 1771.8 1200.29 1776.74 1181.98 1782.33C1148.22 1791.4 1114.02 1798.15 1079.71 1805.19C1058.65 1809.85 1037.63 1814.72 1016.35 1818.3C983.406 1823.97 950.461 1831.26 916.931 1832.04C910.445 1831.97 904.668 1831.81 898.022 1831.27C895.984 1831.11 893.645 1830.44 891.784 1831.22C885.776 1827.98 879.556 1825.12 873.123 1822.73C871.12 1821.39 868.551 1820.43 866.832 1819.49C862.348 1817.31 857.864 1815.24 853.062 1813.84C852.441 1811.64 850.918 1809.46 848.543 1808.02C828.641 1794.64 808.917 1781 790.256 1765.93C773.438 1752.43 756.726 1738.75 740.581 1724C764.665 1720.94 788.909 1718.51 812.957 1714.89C828.765 1712.64 844.431 1709.49 860.275 1707.54C884.926 1704.05 909.506 1699.88 934.352 1698.06C943.408 1697.63 952.357 1699.72 961.271 1701.16C967.952 1703.3 974.899 1704.56 981.846 1705.61C997.3 1708.18 1012.84 1710.11 1028.28 1712.82C1059.63 1718.23 1090.66 1725.4 1121.74 1732.14C1142.9 1735.58 1163 1740.04 1183.64 1745.8C1200.18 1749.52 1215.76 1753.51 1232.31 1758.05C1238.46 1759.94 1244.61 1761.4 1250.54 1763.75Z" fill="#E2E2E2"/>
<path d="M1255.44 1772.31C1258.73 1805.97 1250.56 1839.48 1245.92 1872.99C1243.92 1885.49 1240.18 1897.8 1241.7 1910.47C1241.52 1910.53 1241.35 1910.58 1241.17 1910.62C1203 1920.88 1164.61 1930.34 1126.65 1941.31C1095.94 1949.05 1064.84 1956.73 1033.04 1957.93C1032.25 1957.9 1031.54 1957.92 1030.88 1957.99C1024.13 1954.88 1017.45 1951.64 1010.57 1948.86C997.707 1941.68 986.046 1932.75 975.183 1922.35C973.517 1920.54 971.727 1918.82 969.831 1917.26C962.175 1902.46 953.208 1888.39 942.557 1875.44C932.455 1861.81 920.227 1849.9 906.422 1840.26C930.541 1841.71 954.572 1837.73 978.266 1833.72C1003.18 1829.52 1028.1 1825.12 1052.8 1819.86C1105.3 1807.85 1158.64 1799.45 1210.23 1783.74C1218.4 1780.77 1242.82 1778.27 1255.44 1772.31Z" fill="#E2E2E2"/>
<path d="M756.017 1808.75C761.156 1812.21 765.941 1816.6 771.435 1819.56C756.885 1826.7 743.505 1837.12 731.756 1850.27C723.462 1859.26 715.416 1868.7 709.657 1879.55C705.404 1887.61 702.391 1896.15 700.176 1904.94C700.123 1904.89 700.051 1904.84 699.998 1904.8C693.37 1900.73 685.201 1899.93 677.988 1897.02C668.011 1893.73 658.015 1890.47 647.967 1887.35C627.215 1880.95 606.055 1875.92 585.179 1869.91C577.665 1868.03 570.523 1865.02 563.097 1863.62C563.186 1863.14 563.204 1862.66 563.168 1862.22C563.026 1859.84 562.3 1857.52 561.857 1855.18C559.287 1842.56 555.583 1830.23 552.606 1817.7C550.355 1806.92 547.467 1796.29 544.649 1785.64C543.32 1780.54 542.132 1775.38 540.963 1770.24C540.644 1768.29 540.183 1766.25 539.439 1764.37C546.935 1761.86 554.254 1758.49 561.325 1754.87C562.282 1755.41 563.452 1755.67 564.533 1755.87C568.343 1756.77 572.118 1757.73 575.928 1758.63C601.181 1764.43 626.896 1768.06 651.99 1774.55C676.907 1781.16 702.072 1786.65 726.847 1793.79C729.913 1794.5 733.333 1794.47 736.346 1793.42C738.384 1795.1 740.44 1796.79 742.513 1798.44C746.908 1802.02 751.462 1805.36 756.017 1808.75Z" fill="#E2E2E2"/>
<path d="M677.864 1740.34C692.201 1754.27 706.768 1767.97 721.849 1781.1C698.545 1775.13 675.046 1769.94 651.76 1763.88C625.496 1757.71 598.612 1754.77 572.277 1748.96C575.379 1747.18 578.462 1745.36 581.528 1743.5C582.963 1743.98 584.452 1744.29 585.958 1744.44C595.333 1744.88 603.928 1741.74 613.445 1741.1C632.939 1739.17 652.203 1735.26 671.768 1734.18C673.752 1736.27 675.79 1738.32 677.864 1740.34Z" fill="#E2E2E2"/>
<path d="M691.634 1943.03C690.836 1949.46 690.181 1955.91 689.543 1962.35C688.249 1974.13 688.107 1985.95 688.586 1997.79C685.148 1994.74 680.983 1992.54 676.552 1991.32C655.747 1984.87 634.144 1981.24 613.463 1974.27C582.219 1964.12 583.655 1957.24 575.538 1927.95C574.209 1923.3 573.022 1918.63 571.905 1913.93C595.688 1921.53 619.807 1928.34 643.803 1935.34C655.357 1938.9 667 1942.94 679.228 1943.06C683.304 1943.21 687.558 1943.31 691.634 1943.03Z" fill="#E2E2E2"/>
<path d="M1220.68 1963.09C1216.5 1970.67 1210.62 1975.39 1201.56 1979.38C1186.55 1986.32 1170.92 1991.85 1155.45 1997.67C1129.04 2006.93 1101.86 2013.58 1074.8 2020.58C1052.15 2026.13 1029.77 2032.81 1007.12 2038.16C1006.2 2031.3 1005.04 2024.5 1003.72 2017.74C1015.32 2017.57 1026.61 2013.72 1037.97 2011.35C1059.31 2006.53 1080.4 2000.68 1101.65 1995.49L1103.52 1995.01C1142.74 1985.05 1182.01 1975.07 1220.68 1963.09Z" fill="#E2E2E2"/>
<path d="M443.245 1303.09L443.457 1303.57C435.252 1306.24 433.852 1315.23 435.252 1325.69C420.897 1298.82 404.505 1273.37 393.978 1244.34C389.282 1229.4 385.897 1214.09 383.788 1198.57C391.054 1210.44 398.231 1222.37 405.338 1234.35C415.599 1250.28 424.318 1267.08 433.001 1283.88C436.369 1290.17 439.948 1296.69 443.245 1303.09Z" fill="#E2E2E2"/>
<path fill-rule="evenodd" clip-rule="evenodd" d="M1381.67 1110.68C1392.07 1162.55 1393.17 1215.56 1390.49 1268.37C1389.16 1286.24 1387.36 1303.78 1381.44 1321.02C1379.1 1326.15 1375.64 1330.7 1372.67 1335.5C1372.52 1335.61 1372.4 1335.7 1372.26 1335.77C1354 1349.04 1332.44 1356.79 1311.45 1364.58C1288.63 1372.38 1265.45 1379.03 1241.54 1383.12C1176.87 1396.02 1111.11 1403.48 1045.33 1409.3C1018.35 1411.94 991.292 1413.99 964.16 1413C917.941 1410.8 871.811 1406.96 825.735 1402.81C733.847 1392.12 641.127 1380.69 549.079 1370.18C547.024 1369.85 544.773 1369.53 542.646 1369.64C533.732 1353.33 524.357 1337.2 512.572 1322.76C508.39 1317.25 503.995 1311.79 499.175 1306.79C498.041 1304.91 496.729 1303.12 495.294 1301.46C486.752 1285.26 478.139 1269.08 469.81 1252.78C446.08 1207.28 419.09 1163.49 391.639 1120.16C385.578 1111.09 379.446 1102.05 373.332 1093C376.451 1085.48 378.365 1077.21 378.525 1068.98C378.525 1065.77 378.259 1062.57 377.887 1059.38C380.403 1061.18 382.849 1062.76 384.532 1063.97C398.462 1072.65 414.872 1075.72 430.538 1079.83C446.842 1083.94 463.182 1087.98 479.539 1091.91C460.382 1085.04 440.71 1078.29 421.27 1071.71C404.948 1066.4 388.13 1060.09 376.274 1047.13C376.097 1045.75 375.955 1044.38 375.813 1043C374.006 1024.5 376.274 1005.75 381.449 987.94C386.269 973.408 393.358 959.762 398.231 945.23C405.249 924.974 408.563 903.619 412.444 882.583C414.766 867.998 416.006 851.605 415.244 836.595C414.358 823.126 413.117 809.214 414.73 795.763C415.421 799.609 416.343 803.419 417.194 807.123C425.824 843.666 440.25 878.312 454.268 913.029C444.45 881.254 433.639 849.39 426.71 816.622C424.087 802.179 417.654 785.467 423.627 771.36V771.343C442.855 744.742 443.369 713.427 480.833 696.839C505.342 686.189 531.553 680.075 556.363 670.133C579.118 660.793 602.014 651.897 625.283 643.922C620.622 647.838 616.794 651.241 614.597 653.173C606.658 660.722 599.64 669.176 591.966 677.009C577.7 690.725 564.178 705.186 552.5 721.225C541.494 736.395 532.775 753.39 527.175 771.289C523.383 783.783 521.557 796.72 520.122 809.657C516.826 839.767 514.788 870.32 512.626 900.571C515.727 876.31 518.492 851.552 522.054 827.22C526.502 792.786 532.261 764.768 551.95 735.314C565.773 714.774 582.272 696.184 600.083 679.047C607.136 671.869 613.534 664.107 620.941 657.284C630.6 648.707 640.967 640.785 651.831 633.785C657.466 631.64 663.137 629.585 668.879 627.706C684.758 622.531 701.186 619.359 717.313 615.07C726.687 612.607 735.655 608.903 744.764 605.713C762.025 599.901 779.64 608.194 795.997 613.44C814.924 619.838 834.241 625.101 854.019 627.458C844.591 630.967 835.482 635.451 826.568 640.094C809.803 648.707 793.162 657.709 778.258 669.353C742.017 696.077 714.247 730.653 688.072 767.231C663.633 802.019 641.959 839.235 627.038 879.145C617.06 904.452 609.883 931.514 611.513 958.823C599.604 962.279 587.908 966.426 576.495 971.441C549.469 982.216 523.666 1000.22 512.307 1027.96C503.942 1047.47 498.962 1070.52 507.486 1090.8C514.734 1108.41 529.567 1124.24 549.327 1126.17C557.887 1127.71 559.783 1119.03 551.312 1116.71C535.203 1112.7 522.851 1099.64 517.056 1084.38C511.048 1067.28 515.869 1048.5 522.993 1032.48C535.575 1003.07 565.507 988.011 594.128 977.803C643.625 959.798 696.773 958.15 748.769 953.967C807.18 949.537 865.733 947.64 924.303 949.023C969.707 950.051 1015.45 951.557 1060.09 960.56C1064.08 978.299 1062.98 996.907 1062.71 1014.97C1061.95 1026.98 1061.19 1039.97 1067.07 1050.87C1018.41 1051.01 969.724 1052.75 921.273 1057.2C874.275 1061.38 827.542 1068.06 780.544 1072.4L779.718 1072.48C748.394 1075.47 717.005 1078.46 686.016 1084.15C671.537 1087.09 656.739 1089.73 643.218 1095.85C650.2 1094.75 657.519 1094.08 664.679 1093.49C687.203 1092.09 710.011 1088.46 732.571 1085.89C763.726 1082.36 795.023 1080.18 826.196 1076.76C894.921 1068.65 963.912 1061.84 1033.19 1061.01C1056.72 1060.28 1080.26 1061.08 1103.79 1061.11C1126.6 1060.9 1149.41 1060.39 1172.21 1060.25C1209.71 1060.35 1247.11 1062.57 1284.55 1066.04C1308.67 1068.13 1332.88 1069.71 1356.8 1073.45C1346.83 1076.96 1336.11 1077.44 1325.68 1078.82C1302.82 1081.48 1280.16 1085.59 1257.39 1088.99C1234.81 1092.64 1212.27 1096.42 1189.76 1100.46C1168.37 1104.23 1147.08 1109.05 1125.39 1110.98C1116 1111.94 1105.05 1110.9 1095.37 1109.9C1082.03 1108.56 1068.61 1108.22 1055.23 1107.21L1049.18 1106.81C987.932 1102.74 926.678 1098.67 865.325 1096.61C849.252 1096.01 833.142 1096.17 817.051 1096.4C794.615 1096.35 771.913 1095.99 749.637 1097.23C772.055 1099.02 794.314 1102.1 816.714 1104L819.434 1104.18L819.488 1104.19C834.178 1105.17 848.882 1106.16 863.571 1107.16C947.59 1110.65 1031.63 1115.96 1115.4 1122.96C1144.25 1122.18 1172.39 1114.08 1200.8 1109.71C1223.54 1105.79 1246.26 1101.77 1269.03 1098.19C1283.47 1096.01 1297.91 1093.9 1312.32 1091.54C1327.23 1088.99 1342.47 1088.39 1357.14 1084.7C1360.1 1084.01 1365.49 1081.53 1369.62 1078.36C1376.46 1087.73 1378.89 1099.68 1381.67 1110.68ZM554.201 1026.93C586.774 999.814 597.017 1048.21 589.591 1072.51C585.728 1086.92 571.232 1105.12 554.821 1096.77C537.188 1086.47 536.16 1062.94 540.183 1045.04C539.634 1045.43 539.066 1046.1 538.57 1046.35C543.072 1039.69 544.294 1027.78 554.201 1026.93Z" fill="#E2E2E2"/>
<path d="M575.91 1038.73C578.923 1049.75 580.642 1062.85 576.141 1073.87C573.677 1079.47 569.708 1086.12 563.097 1086.97C552.181 1084.77 548.849 1069.82 548.778 1060.23C548.831 1051.26 549.682 1042.15 555.069 1034.6C560.032 1032.42 566.145 1028.86 571.568 1031.22C573.979 1033.02 574.9 1036.04 575.91 1038.73Z" fill="#E2E2E2"/>
<path d="M1093.74 742.066C1096.12 761.4 1094.17 780.841 1092.18 800.123C1090.04 822.328 1085.8 844.304 1080.54 866.013C1074.96 887.935 1067.73 909.432 1060.21 930.769C1058.74 934.792 1057.31 938.815 1055.96 942.891C1047.72 941.792 1039.5 940.552 1031.25 939.559C922.336 929.688 812.709 934.083 703.915 943.547C687.292 944.805 670.651 946.595 654.188 949.324C655.091 944.362 656.35 939.471 657.572 934.597C663.988 910.229 672.601 886.447 683.499 863.727C710.649 809.267 745.03 758.37 790.149 717.113C812.443 696.007 837.874 678.639 865.573 666.003C869.667 668.661 873.46 672.064 877.589 674.669C882.498 677.965 887.389 681.297 892.103 684.895C921.858 707.986 941.813 740.719 960.988 772.601C942.114 735.757 920.901 697.353 885.776 673.411C880.956 669.938 875.657 667.191 870.092 665.135C869.61 664.98 869.11 664.825 868.61 664.669L868.568 664.656C884.802 657.479 901.797 651.932 919.395 648.157C949.894 641.068 983.902 638.003 1012.42 653.403C1042.28 670.664 1059.82 704.123 1064.39 737.582C1067.41 759.929 1063.74 782.348 1060.67 804.482C1057.86 824.278 1055.89 844.215 1052.4 863.922L1052.37 864.054C1049.88 877.142 1047.39 890.247 1043.94 903.123C1040.65 914.412 1039.35 928.199 1038.31 940.162C1056.33 918.08 1060.6 889.211 1066.17 862.114C1069.32 844.056 1071.68 825.873 1074.43 807.743C1078.18 783.145 1082.4 758.051 1077.93 733.258C1067.6 668.254 1021.31 623.134 953.385 629.851C913.493 634.511 874.363 647.005 839.15 666.322C806.577 684.523 778.985 710.379 754.174 737.99C729.559 764.342 710.029 794.806 692.183 826.015C674.975 855.274 660.851 887.705 651.919 920.685C649.438 929.511 647.099 938.425 645.504 947.445C645.273 948.526 645.043 949.749 644.99 950.937C635.154 952.78 625.39 954.995 615.749 957.653C621.473 941.455 626.506 924.814 630.954 908.209C636.856 888.75 644.263 869.77 652.77 851.322C668.436 818.235 688.603 787.593 710.153 758.033C721.194 742.668 732.872 727.746 745.756 713.888C760.501 697.796 777.354 683.796 795.04 671.054C811.61 660.013 829.35 650.815 847.143 641.884C858.148 636.78 869.614 632.686 881.24 629.159C883.756 629.159 886.078 628.805 887.3 627.369C893.609 625.562 899.954 623.896 906.298 622.319C914.344 620.724 922.407 619.288 930.364 617.392C954.98 614.344 979.72 613.157 1003.93 619.696C1013.05 623.347 1021.88 627.759 1029.85 633.537C1048.46 647.307 1068.49 661.573 1078.91 682.91C1088.18 701.589 1091.79 721.296 1093.74 742.066Z" fill="#E2E2E2"/>
</g>
<path id="Skin" d="M367.503 823.516C365.855 811.571 370.834 800.566 372.217 788.781C374.148 782.135 370.569 777.013 366.103 772.459C359.723 766.575 347.034 749.207 337.783 752.646C333.92 753.904 330.89 759.805 334.257 762.96C334.522 763.19 334.824 763.367 335.107 763.474C335.603 765.281 336.543 767.018 337.766 768.489C338.102 769.021 338.51 769.57 339.006 770.013C342.196 776.145 345.758 782.224 348.062 788.798C349.391 793.512 349.302 798.475 348.877 803.33C348.221 809.179 346.361 816.285 340.442 818.802C337.216 819.706 335.285 816.108 333.796 813.839C330.092 807.779 327.079 801.346 323.251 795.356C315.56 783.34 306.593 772.157 297.342 761.312C291.157 754.577 284.352 748.197 283.572 738.521C282.527 729.926 282.172 721.26 280.453 712.753C280.719 712.647 280.949 712.559 281.162 712.488C294.383 706.48 306.256 697.761 317.261 688.368C324.545 682.042 331.138 674.899 336.986 667.226C337.429 666.712 337.836 666.18 338.226 665.631C339.431 666.765 340.672 667.864 341.912 668.927C358.022 682.857 377.675 691.399 396.354 701.217C405.162 705.913 413.686 711.176 421.749 717.095C425.471 719.789 428.962 722.837 433.18 724.751C433.96 725.123 434.757 725.46 435.555 725.779L435.537 725.797L435.484 725.903L435.431 726.01L435.377 726.098L435.324 726.205L435.271 726.311L435.218 726.399L435.165 726.506L435.111 726.612L435.058 726.718L435.005 726.825L434.952 726.931L434.899 727.037L434.863 727.144L434.828 727.25L434.793 727.357L434.757 727.445L434.722 727.551L434.686 727.64L434.651 727.729L434.615 727.817L434.58 727.888L434.544 727.977L434.509 728.065L434.474 728.154L434.438 728.243L434.403 728.331L434.367 728.42L434.332 728.526L434.296 728.632L434.261 728.739L434.208 728.845L434.154 728.951L434.119 729.058L434.066 729.164L434.03 729.27L433.995 729.377L433.96 729.483L433.924 729.589L433.889 729.696L433.853 729.784L433.818 729.891L433.782 729.979L433.747 730.068L433.711 730.174L433.676 730.263L433.641 730.351L433.605 730.44L433.552 730.546L433.499 730.653L433.446 730.741L433.393 730.848L433.339 730.954L433.286 731.043L433.233 731.149L433.18 731.255L433.127 731.361L433.073 731.468L433.02 731.574L432.967 731.681L432.914 731.787L432.861 731.893L432.825 732L432.772 732.106L432.719 732.212L432.684 732.319L432.63 732.425L432.577 732.531L432.524 732.638L432.471 732.744L432.418 732.85L432.365 732.957L432.312 733.063L432.258 733.169L432.187 733.293L432.134 733.4L432.063 733.524L431.992 733.648L431.921 733.789L431.851 733.931L431.78 734.073L431.709 734.215L431.638 734.357L431.585 734.481L431.514 734.622L431.461 734.746L431.408 734.871L431.337 734.995L431.284 735.119L431.213 735.243L431.142 735.367L431.071 735.491L431 735.615L430.929 735.739L430.858 735.863L430.787 735.987L430.717 736.111L430.646 736.253L430.575 736.377L430.504 736.501L430.433 736.625L430.362 736.749L430.291 736.873L430.22 736.979C429.139 736.005 428.129 735.19 427.385 734.587C423.344 731.627 418.542 729.962 413.668 728.987C416.787 735.012 421.891 739.655 426.392 744.671L426.357 744.759L426.304 744.866L426.251 744.972L426.197 745.078L426.144 745.185L426.091 745.309L426.038 745.433L425.985 745.575L425.932 745.699L425.861 745.84L425.808 745.982L425.754 746.124L425.684 746.266L425.63 746.408L425.577 746.549L425.524 746.691L425.471 746.815L425.418 746.939L425.364 747.063L425.311 747.187L425.258 747.311L425.205 747.418L425.152 747.542L425.099 747.648L425.046 747.754L424.992 747.878L424.939 747.985L424.886 748.091L424.833 748.197L424.78 748.304L424.727 748.41L424.673 748.534L424.62 748.64L424.549 748.765L424.496 748.889L424.425 749.013L424.354 749.137L424.283 749.261L424.23 749.385L424.16 749.509L424.106 749.615L424.053 749.722L424 749.828L423.947 749.934L423.894 750.04L423.84 750.129L423.805 750.218L423.752 750.289L423.699 750.377L423.646 750.448L423.592 750.519L423.539 750.608L423.486 750.696L423.433 750.785L423.362 750.873L423.291 750.98L423.22 751.086L423.149 751.192L423.078 751.299L423.008 751.405L422.937 751.511L422.866 751.618L422.813 751.724L422.742 751.813L422.688 751.919L422.635 752.008L422.582 752.096L422.529 752.185L422.476 752.273L422.423 752.344L422.369 752.433L422.316 752.522L422.263 752.61L422.21 752.699L422.157 752.787L422.104 752.894L422.051 753L421.98 753.106L421.926 753.213L421.873 753.319L421.82 753.425L421.749 753.532L421.696 753.638L421.643 753.744L421.59 753.851L421.537 753.957L421.483 754.046L421.43 754.134L421.377 754.223L421.324 754.312L421.271 754.4L421.218 754.489L421.164 754.577L421.094 754.666L421.04 754.755L420.97 754.861L420.899 754.949L420.828 755.056L420.757 755.162L420.686 755.269L420.615 755.375L420.544 755.464L420.473 755.552L420.42 755.641L420.367 755.729L420.332 755.782C417.921 750.306 413.65 744.6 411.081 741.924C409.025 739.691 406.792 737.617 404.772 735.349C405.108 738.167 406.384 741.055 407.377 743.785C409.521 749.42 411.63 755.038 414.324 760.426C414.731 761.524 415.245 762.623 415.919 763.598L415.901 763.633L415.83 763.74L415.777 763.846L415.706 763.952L415.653 764.059L415.6 764.165L415.529 764.271L415.458 764.377L415.387 764.484L415.316 764.59L415.245 764.714L415.174 764.821L415.104 764.945L415.033 765.069L414.962 765.175L414.891 765.281L414.838 765.388L414.785 765.494L414.731 765.6L414.678 765.707L414.625 765.795L414.572 765.902L414.519 765.99L414.466 766.079L414.43 766.167L414.395 766.238L414.359 766.309L414.324 766.38L414.288 766.451L414.253 766.522L414.217 766.593L414.182 766.664L414.147 766.735L414.111 766.805L414.076 766.876L414.04 766.93L414.005 766.983L413.916 767.178L413.686 767.656L413.385 768.294L413.066 768.968L412.764 769.623L412.481 770.244L412.215 770.811L411.985 771.325L411.772 771.803L411.577 772.211L411.4 772.583L411.258 772.92L411.116 773.221L411.01 773.504L410.904 773.752L410.815 773.983L410.726 774.195L410.655 774.39L410.585 774.585L410.514 774.763L410.443 774.94L410.372 775.099L410.301 775.259L410.23 775.418L410.159 775.578L410.106 775.72L410.035 775.861L409.982 776.003L409.911 776.145L409.858 776.287L409.805 776.428L409.752 776.552L409.698 776.694L409.645 776.836L409.592 776.96L409.539 777.102L409.486 777.244L409.433 777.386L409.379 777.527L409.326 777.669L409.273 777.811L409.22 777.953L409.167 778.077L409.114 778.218L409.06 778.342L409.007 778.467L408.972 778.591L408.936 778.697L408.901 778.803L408.865 778.91L408.83 779.016L408.795 779.122L408.759 779.228L408.724 779.335L408.688 779.441L408.653 779.548L408.617 779.654L408.582 779.76L408.546 779.866L408.511 779.973L408.476 780.079L408.44 780.186L408.405 780.292L408.369 780.398L408.334 780.487L408.298 780.575L408.263 780.664L408.228 780.753L408.192 780.823L408.157 780.912L408.121 781.001L408.086 781.072L408.05 781.16L408.015 781.249L407.979 781.337L407.944 781.444L407.909 781.532L407.873 781.639L407.838 781.745L407.802 781.852L407.767 781.958L407.731 782.064L407.696 782.17L407.66 782.259L407.625 782.365L407.59 782.454L407.554 782.542L407.519 782.631L407.483 782.72L407.448 782.808L407.412 782.897L407.377 782.986L407.341 783.074L407.306 783.163L407.271 783.269L407.235 783.376L407.2 783.482L407.164 783.588L407.129 783.694L407.093 783.801L407.058 783.907L407.022 784.014L406.987 784.12L406.951 784.226L406.916 784.332L406.881 784.439L406.845 784.545L406.81 784.651L406.774 784.758L406.739 784.864L406.703 784.97L406.668 785.077L406.633 785.183L406.597 785.289L406.562 785.396L406.526 785.502L406.491 785.609L406.455 785.715L406.42 785.821L406.384 785.927L406.349 786.034L406.314 786.14L406.278 786.264L406.243 786.37L406.207 786.495L406.172 786.619L406.136 786.725L406.101 786.849L406.083 786.884C406.207 786.105 406.296 785.378 406.331 784.74C409.114 767.071 392.827 754.347 381.131 743.749C391.179 775.649 406.119 772.459 387.316 808.204C385.756 810.933 375.017 826.901 370.072 826.901C368.637 827.184 367.751 826.121 367.503 823.516Z" fill="#B7B5B5"/>
</g>
</svg>
