<svg width="454" height="840" viewBox="0 0 454 840" fill="none" xmlns="http://www.w3.org/2000/svg">
<g id="Left Arm / Straight">
<path id="Clothing 1" d="M334.881 539.148L351.363 577.676L345.78 611.736L347.287 632.64L313.544 669.431L257.189 691.044L237.181 672.409L210.403 661.31L209.163 660.796L208.915 660.707L165.975 634.023L97.2672 542.854L80.0416 520L75.7706 514.344L0.71875 384.628L74.087 1.72461L113.235 35.0753L166.772 171.758L259.404 407.589L319.251 511.985L331.833 533.936L334.881 539.148Z" fill="white"/>
<g id="Outline">
<path d="M245.192 688.615C241.541 684.253 237.714 679.945 233.088 676.523C224.617 672.126 214.977 670.247 206.133 666.683C197.255 663.208 188.27 659.502 180.33 654.147C168.35 645.584 158.532 634.484 148.661 623.651C125.127 597.251 105.402 567.818 86.3338 538.102C66.9816 508.528 47.9306 478.812 29.9784 448.405C21.3125 433.352 13.249 417.962 5.53997 402.394C2.89942 396.455 -1.6019 390.072 0.577882 383.37C2.19057 385.107 4.31724 386.349 5.84132 388.21C10.3072 394.416 13.3376 401.614 17.325 408.157C22.1985 416.809 27.0366 425.462 32.0341 434.043C52.4142 467.819 73.3259 500.532 95.3541 533.138C110.347 556.205 126.722 579.769 144.036 600.584C158.993 617.694 174.004 635.796 193.569 647.764C202.057 652.392 210.794 655.619 219.939 658.456C229.118 661.612 239.504 663.403 245.742 671.559C248.896 674.466 251.944 677.551 254.124 681.257C257.084 686.789 250.137 692.764 245.192 688.615Z" fill="black"/>
<path d="M350.85 632.906C339.596 627.552 336.849 612.676 338.852 601.453C342.325 590.531 348.156 582.446 344.452 570.443C342.467 562.659 337.151 556.294 333.216 549.414C326.642 538.776 319.659 528.404 312.535 518.138C305.216 507.199 297.135 496.738 290.418 485.408C280.707 467.802 271.42 449.929 262.684 431.809C245.972 398.476 230.306 364.611 217.546 329.541C192.948 267.059 169.236 204.134 150.31 139.667C144.036 118.107 135.281 97.4154 126.615 76.7595C119.119 57.7172 110.435 38.6925 95.939 23.87C90.2326 17.9658 84.6679 13.09 78.3235 8.4978C76.2146 6.70704 72.3867 5.59004 73.4145 2.18582C73.9285 0.749659 75.5944 -0.331877 77.1185 0.0936504C104.392 12.2212 122.274 38.2493 133.421 65.1107C141.165 82.8056 149.193 100.376 155.856 118.497C164.7 143.55 171.948 169.135 180.738 194.205C198.442 244.045 217.44 294.346 236.615 343.388C246.185 368.796 258.041 393.193 270.091 417.483C282.249 441.845 293.644 466.738 308.512 489.592C319.535 505.479 330.487 521.418 340.695 537.854C345.267 545.851 350.921 553.351 354.554 561.826C359.214 574.006 358.824 587.233 353.543 599.148C350.034 605.495 352.711 612.304 354.093 618.811C354.625 623.669 353.862 628.953 350.85 632.906Z" fill="black"/>
<path d="M352.622 627.782C353.862 631.506 350.796 634.662 349.29 637.836C348.652 639.006 348.014 640.176 347.341 641.328C346.65 642.516 345.941 643.704 345.214 644.874C345.126 645.034 345.019 645.194 344.913 645.353C344.665 645.743 344.399 646.151 344.151 646.541C343.796 647.073 343.46 647.587 343.105 648.119C342.857 648.491 342.591 648.864 342.326 649.218C341.51 650.406 340.642 651.559 339.756 652.694C339.508 653.013 339.26 653.314 339.012 653.633C338.48 654.289 337.93 654.945 337.381 655.601C337.186 655.832 336.991 656.062 336.779 656.293C336.46 656.665 336.123 657.037 335.786 657.392C335.414 657.8 335.059 658.19 334.67 658.58C334.652 658.615 334.617 658.651 334.581 658.669C334.209 659.076 333.819 659.466 333.411 659.856C332.933 660.3 332.455 660.743 331.976 661.169C330.86 662.179 329.725 663.19 328.573 664.165C328.113 664.555 327.652 664.945 327.191 665.335C326.447 665.956 325.685 666.576 324.923 667.197C324.462 667.569 324.001 667.924 323.54 668.278C321.839 669.608 320.102 670.92 318.348 672.179C317.869 672.534 317.391 672.871 316.895 673.207C314.343 674.998 311.72 676.7 309.062 678.314C308.53 678.633 307.981 678.97 307.449 679.289C306.758 679.697 306.067 680.104 305.376 680.495C304.862 680.778 304.365 681.062 303.851 681.346C303.072 681.771 302.292 682.197 301.512 682.605C300.98 682.888 300.449 683.172 299.899 683.438C299.775 683.509 299.634 683.562 299.51 683.633C298.978 683.899 298.446 684.165 297.915 684.431C297.259 684.75 296.621 685.051 295.965 685.353C295.274 685.672 294.565 685.991 293.874 686.31C293.431 686.505 292.97 686.718 292.527 686.895C292.35 686.984 292.173 687.055 291.996 687.126C290.631 687.711 289.249 688.278 287.849 688.81C287.228 689.058 286.608 689.289 286.006 689.502C285.19 689.803 284.357 690.104 283.542 690.388C283.01 690.583 282.479 690.76 281.929 690.92C281.398 691.097 280.884 691.275 280.352 691.434C280.335 691.434 280.317 691.452 280.317 691.452C280.033 691.541 279.75 691.629 279.466 691.718C278.97 691.878 278.474 692.019 277.977 692.161C277.41 692.321 276.826 692.498 276.241 692.658C275.851 692.764 275.461 692.87 275.071 692.977C274.593 693.101 274.132 693.225 273.653 693.349C271.793 693.81 269.932 694.218 268.053 694.59C263.623 695.459 259.157 696.044 254.62 696.363C249.57 696.044 245.972 689.998 249.215 685.707C249.516 685.264 249.853 684.892 250.19 684.555C252.83 682.126 256.924 682.693 260.344 682.374C266.104 681.753 271.828 680.725 277.481 679.502C299.492 674.005 330.753 653.669 341.9 633.917C343.442 631.08 343.708 627.286 346.72 625.531C346.738 625.531 346.738 625.513 346.756 625.513C348.847 624.059 352.037 625.389 352.622 627.782Z" fill="black"/>
<path d="M328.272 784.572C325.153 781.735 324.462 777.462 322.92 773.721C321.821 770.742 319.784 768.26 317.568 766.026C308.672 757.231 297.383 751.221 288.93 741.966C283.418 736.274 279.785 729.129 277.003 721.789C273.476 712.852 269.879 703.899 268.018 694.431C267.079 691.47 271.208 689.395 272.98 692.055C274.114 693.916 274.557 696.151 275.39 698.154C282.054 714.838 288.168 733.597 303.444 744.377C313.474 752.48 326.411 758.88 331.551 771.203C332.844 774.731 334.687 778.277 334.262 782.143C333.784 785.228 333.287 786.823 332.047 786.823C331.214 786.806 330.027 786.079 328.272 784.572Z" fill="black"/>
<path d="M412.185 812.39C407.737 810.546 403.856 806.912 400.683 803.561C390.617 792.834 386.896 778.33 383.44 764.465C382.519 762.214 380.091 759.944 378.496 758.402C369.794 750.724 359.888 744.466 351.381 736.593C349.042 733.739 346.526 730.193 346.455 726.469C351.931 729.129 357.389 731.771 362.032 735.813C370.61 742.693 380.764 748.065 387.853 756.575C392.638 762.214 392.266 770.281 395.261 776.859C399.248 788.1 405.327 801.876 417.927 805.103C429.322 808.171 425.955 799.217 426.362 791.717C426.238 782.32 426.327 772.923 425.689 763.544C425.334 759.359 424.998 755.192 424.041 751.203C418.104 741.646 409.491 734.2 402.58 725.423C399.39 721.31 396.997 716.629 394.676 712.001C398.344 714.129 402.278 716.363 405.876 718.792C413.177 723.686 419.256 730.157 424.254 737.356C427.408 742.107 432.264 746.15 432.831 752.161C435.064 764.607 435.347 777.302 435.082 789.909C434.798 800.369 435.879 814.057 421.719 814.252C418.441 813.986 415.251 813.383 412.185 812.39Z" fill="black"/>
<path d="M451.084 767.551C452.839 784.341 456.844 804.625 447.576 819.802C443.269 825.245 436.623 828.294 430.173 830.404C421.064 834.021 411.299 834.784 401.729 836.433C396.005 837.709 390.352 839.163 384.486 839.163C384.184 839.163 383.883 839.163 383.582 839.146C376.936 838.685 370.734 835.528 364.017 835.387C362.316 835.387 360.632 835.617 358.949 835.865C357.247 836.114 355.546 836.344 353.827 836.344C348.351 836.273 342.875 834.961 337.806 832.922C325.437 828.773 314.431 821.096 306.368 810.812C300.662 804.554 298.588 793.472 304.915 786.947C311.596 781.983 319.535 783.685 326.872 786.894C327.918 787.355 328.946 787.834 329.974 788.33C331.551 789.111 333.11 789.926 334.581 790.724C334.9 790.884 335.201 791.061 335.52 791.22C336.194 791.593 336.867 791.947 337.505 792.284C334.014 792.621 330.452 792.497 326.872 792.391C321.715 792.213 316.54 792.054 311.543 793.26C310.143 793.703 309.895 795.476 309.788 796.823C309.629 803.49 315.672 808.064 320.031 812.266C327.085 818.419 335.698 822.248 344.488 825.209C347.802 826.131 351.222 827.142 354.695 826.947C355.262 826.929 355.812 826.876 356.361 826.805C356.893 826.734 357.407 826.646 357.938 826.557C358.328 826.486 358.7 826.415 359.09 826.344C360.721 826.025 362.333 825.741 363.999 825.83C365.701 825.83 367.366 825.99 369.032 826.273C370.291 826.486 371.531 826.752 372.754 827.036C373.161 827.124 373.569 827.231 373.959 827.337C376.919 828.082 379.878 828.915 382.873 829.465C383.174 829.518 383.476 829.553 383.777 829.607C387.357 829.678 390.919 828.951 394.428 828.224C394.8 828.099 395.19 827.993 395.562 827.887C395.934 827.78 396.324 827.674 396.714 827.585C397.476 827.39 398.256 827.231 399.035 827.089C402.846 826.38 406.762 826.167 410.625 825.919C411.157 825.883 411.706 825.848 412.238 825.795C419.841 825.156 427.373 823.135 434.32 820.015C446.565 814.766 443.978 799.571 443.942 788.667C442.755 775.689 440.044 762.887 438.431 749.962C437.421 735.866 434.639 725.654 424.555 715.193C415.712 705.796 405.008 698.473 395.083 690.299C388.101 684.661 381.207 678.899 374.207 673.261C364.513 665.406 354.855 657.392 346.632 647.977C346.543 647.871 346.472 647.764 346.384 647.64C345.994 647.073 345.657 646.399 345.427 645.708C345.391 645.584 345.338 645.424 345.303 645.3C345.267 645.158 345.232 645.016 345.214 644.874C345.019 643.881 345.073 642.853 345.48 641.931C345.516 641.842 345.799 641.222 346.065 641.346C346.508 641.293 346.933 641.293 347.341 641.346C351.098 641.701 353.419 645.371 356.148 647.729C359.179 650.548 362.28 653.261 365.417 655.974C379.382 667.41 393.754 678.349 407.896 689.555C416.314 696.239 425.405 702.232 432.92 709.962C438.236 715.352 442.596 721.682 445.112 728.863C448.851 741.292 449.046 754.749 451.084 767.551Z" fill="black"/>
<path d="M377.893 834.447C377.911 834.447 377.911 834.447 377.893 834.447C377.308 834.943 376.422 835.085 375.501 835.085C374.721 835.085 373.924 834.979 373.268 834.872C368.128 832.763 363.45 829.766 359.09 826.326C359.037 826.291 358.984 826.238 358.931 826.202C358.594 825.936 358.257 825.67 357.938 825.405C357.602 825.139 357.283 824.872 356.964 824.589C354.837 822.816 352.781 820.919 350.761 819.004C350.23 818.472 349.68 817.958 349.148 817.426C348.085 816.398 347.057 815.351 346.012 814.305C345.657 813.951 345.321 813.614 344.984 813.259C343.956 812.213 342.946 811.167 341.936 810.139C348.262 813.933 354.571 817.727 360.916 821.504C363.627 823.082 366.339 824.66 369.05 826.238C369.529 826.522 370.007 826.805 370.503 827.089C373.587 828.809 377.007 830.777 377.893 834.447Z" fill="black"/>
<path d="M413.301 827.408C415.712 829.731 413.762 833.206 410.998 833.206C410.484 833.206 409.952 833.082 409.42 832.833C405.717 831.273 402.296 829.323 399.053 827.071C399.035 827.053 399.018 827.053 399.018 827.036C398.468 826.663 397.919 826.255 397.369 825.865C396.82 825.458 396.271 825.05 395.721 824.624C395.704 824.624 395.704 824.607 395.686 824.607C395.19 824.216 394.694 823.826 394.215 823.436C393.542 822.904 392.886 822.337 392.248 821.787C391.84 821.433 391.433 821.096 391.043 820.741C387.729 817.798 384.574 814.66 381.473 811.504C380.8 810.83 380.144 810.156 379.488 809.482C378.443 808.419 377.397 807.355 376.369 806.291C376.086 806.008 375.802 805.724 375.519 805.44C375.2 805.103 374.863 804.766 374.526 804.447C373.994 803.844 373.179 803.206 372.789 802.639C381.314 808.135 389.731 813.702 398.309 819.021C398.894 819.394 399.496 819.748 400.099 820.103C400.524 820.351 400.949 820.599 401.375 820.848C401.729 821.06 402.101 821.273 402.473 821.468C402.952 821.734 403.43 822 403.909 822.266C405.646 823.224 407.382 824.146 409.101 825.085C409.615 825.369 410.129 825.653 410.643 825.936C411.529 826.38 412.415 826.894 413.301 827.408Z" fill="black"/>
<path d="M328.662 790.564C325.224 784.891 324.551 777.869 325.703 771.469C331.214 775.37 334.758 781.238 335.201 787.993C335.68 790.44 333.589 792.178 331.515 792.178C330.434 792.178 329.335 791.699 328.662 790.564Z" fill="black"/>
<path d="M360.792 783.543C367.597 779.252 378.62 776.717 382.749 785.706C378.07 787.568 373.339 787.905 368.625 789.447C366.02 790.635 363.432 792.71 360.561 792.71C359.835 792.71 359.108 792.586 358.346 792.266C355.209 791.38 352.586 789.288 349.556 788.188C345.055 787.302 337.86 785.103 335.768 790.759C335.733 790.848 335.698 790.919 335.644 790.99C335.591 791.061 335.556 791.132 335.503 791.203C334.652 792.479 333.022 792.71 331.728 792.178C330.541 791.699 329.637 790.6 329.814 789.093C329.849 788.827 329.903 788.561 329.956 788.313C330.115 787.586 330.31 786.894 330.54 786.274C331.267 784.288 332.401 782.781 333.801 781.681C333.961 781.54 334.138 781.415 334.315 781.309C334.457 781.22 334.599 781.114 334.758 781.025C334.9 780.937 335.06 780.848 335.219 780.759C335.325 780.689 335.432 780.635 335.538 780.6C335.751 780.476 335.963 780.387 336.176 780.298C336.336 780.228 336.513 780.157 336.672 780.103C336.69 780.103 336.708 780.086 336.725 780.086C337.044 779.962 337.363 779.855 337.7 779.766C344.718 777.745 354.66 780.83 360.792 783.543Z" fill="black"/>
</g>
<path id="Skin" d="M435.029 789.891C435.295 777.267 435.011 764.59 432.779 752.143C432.211 746.133 427.373 742.108 424.201 737.339C419.221 730.122 413.125 723.669 405.824 718.775C402.226 716.346 398.292 714.112 394.624 711.984C396.963 716.63 399.338 721.293 402.527 725.406C409.457 734.183 418.052 741.629 423.989 751.186C424.946 755.175 425.282 759.36 425.637 763.526C426.275 772.906 426.168 782.303 426.31 791.7C425.903 799.2 429.27 808.171 417.875 805.086C405.274 801.859 399.214 788.065 395.208 776.842C392.213 770.264 392.586 762.197 387.801 756.558C380.712 748.048 370.557 742.675 361.98 735.796C357.337 731.754 351.861 729.112 346.402 726.452C346.473 730.193 348.99 733.739 351.329 736.576C359.836 744.448 369.742 750.725 378.444 758.385C380.021 759.927 382.466 762.197 383.388 764.448C386.861 778.313 390.565 792.817 400.631 803.544C403.804 806.895 407.685 810.529 412.133 812.373C415.199 813.366 418.406 813.969 421.614 814.235C435.827 814.04 434.746 800.352 435.029 789.891ZM443.943 788.65C443.979 799.554 446.566 814.749 434.321 819.997C427.374 823.118 419.824 825.121 412.239 825.777C411.707 825.813 411.158 825.848 410.626 825.902C410.112 825.618 409.598 825.334 409.084 825.05C407.348 824.111 405.611 823.189 403.892 822.231C403.414 821.965 402.935 821.699 402.457 821.433C402.084 821.238 401.73 821.026 401.358 820.813C400.932 820.565 400.507 820.334 400.082 820.068C399.479 819.714 398.877 819.359 398.292 818.987C389.715 813.668 381.297 808.1 372.772 802.604C373.162 803.171 373.978 803.81 374.509 804.412C374.846 804.749 375.183 805.086 375.502 805.405C375.785 805.689 376.069 805.973 376.352 806.256C377.398 807.32 378.444 808.384 379.471 809.448C380.127 810.122 380.801 810.795 381.456 811.469C384.558 814.643 387.73 817.781 391.026 820.707C391.434 821.061 391.824 821.416 392.231 821.753C392.887 822.32 393.543 822.87 394.198 823.402C394.677 823.809 395.173 824.199 395.669 824.572C395.669 824.572 395.687 824.589 395.705 824.589C396.236 825.015 396.803 825.423 397.353 825.831C397.884 826.239 398.434 826.628 399.001 827.001C399.019 827.019 399.036 827.019 399.036 827.036C398.257 827.178 397.477 827.338 396.715 827.533C396.325 827.621 395.953 827.728 395.563 827.834C395.191 827.941 394.801 828.047 394.429 828.171C390.92 828.898 387.375 829.607 383.778 829.554C383.477 829.501 383.175 829.465 382.874 829.412C379.879 828.88 376.919 828.029 373.96 827.285C373.552 827.178 373.145 827.089 372.755 826.983C371.514 826.699 370.291 826.434 369.033 826.221C366.322 824.643 363.61 823.065 360.899 821.487C354.572 817.71 348.246 813.916 341.919 810.121C342.929 811.15 343.939 812.196 344.967 813.242C345.304 813.597 345.658 813.934 345.995 814.288C347.023 815.334 348.068 816.38 349.132 817.409C349.663 817.941 350.213 818.455 350.744 818.987C352.747 820.902 354.803 822.781 356.947 824.572C357.266 824.855 357.603 825.122 357.922 825.387C358.241 825.653 358.577 825.919 358.914 826.185C358.967 826.238 359.02 826.274 359.074 826.309C358.684 826.38 358.311 826.451 357.922 826.522C357.408 826.611 356.876 826.717 356.345 826.77C355.795 826.841 355.246 826.895 354.679 826.912C351.205 827.107 347.785 826.097 344.471 825.175C335.681 822.214 327.068 818.384 320.015 812.232C315.655 808.029 309.612 803.455 309.772 796.788C309.896 795.459 310.144 793.668 311.526 793.225C316.524 792.019 321.698 792.179 326.855 792.356C330.435 792.48 333.997 792.586 337.488 792.249C336.851 791.895 336.177 791.558 335.504 791.186C335.557 791.115 335.592 791.044 335.645 790.973C335.681 790.902 335.734 790.813 335.769 790.742C337.86 785.086 345.056 787.285 349.557 788.172C352.587 789.271 355.228 791.345 358.347 792.249C359.109 792.551 359.836 792.693 360.562 792.693C363.433 792.693 366.021 790.618 368.626 789.43C373.34 787.906 378.071 787.551 382.75 785.689C378.603 776.7 367.598 779.235 360.793 783.526C354.661 780.831 344.719 777.746 337.701 779.767C337.364 779.856 337.045 779.962 336.726 780.086C336.709 780.086 336.691 780.104 336.673 780.104C336.514 780.175 336.337 780.228 336.177 780.299C335.964 780.388 335.752 780.494 335.539 780.601C335.433 780.636 335.326 780.689 335.22 780.76C335.061 780.831 334.919 780.92 334.759 781.026C334.6 781.115 334.458 781.221 334.316 781.31C334.44 777.764 332.757 774.466 331.552 771.186C326.43 758.863 313.475 752.463 303.445 744.36C288.169 733.562 282.055 714.803 275.391 698.137C275.303 697.942 275.232 697.747 275.161 697.552C275.09 697.392 275.037 697.215 274.966 697.055C274.523 695.814 274.168 694.538 273.637 693.35C274.115 693.226 274.576 693.101 275.054 692.977C275.444 692.889 275.834 692.782 276.224 692.658C276.809 692.499 277.394 692.339 277.961 692.162C278.457 692.02 278.953 691.878 279.45 691.719C279.733 691.63 280.017 691.541 280.3 691.453C280.318 691.453 280.336 691.453 280.336 691.435C280.867 691.275 281.381 691.098 281.913 690.921C282.445 690.743 282.994 690.566 283.525 690.389C284.358 690.105 285.174 689.821 285.989 689.502C286.609 689.29 287.229 689.041 287.832 688.811C289.232 688.279 290.614 687.711 291.979 687.126C292.156 687.055 292.333 686.967 292.511 686.896C292.954 686.701 293.414 686.506 293.857 686.311C294.549 685.992 295.257 685.672 295.948 685.353C296.604 685.052 297.242 684.733 297.898 684.431C298.429 684.165 298.961 683.899 299.493 683.633C299.617 683.563 299.741 683.509 299.883 683.438C300.414 683.172 300.964 682.889 301.495 682.605C302.293 682.197 303.073 681.772 303.835 681.346C304.349 681.063 304.845 680.779 305.359 680.495C306.05 680.105 306.759 679.697 307.432 679.29C307.964 678.97 308.513 678.651 309.045 678.314C311.703 676.701 314.326 674.981 316.878 673.208C317.356 672.871 317.835 672.534 318.331 672.18C320.086 670.921 321.822 669.609 323.524 668.279C323.984 667.924 324.445 667.552 324.906 667.197C325.668 666.577 326.43 665.956 327.174 665.336C327.635 664.946 328.096 664.556 328.557 664.166C329.709 663.19 330.843 662.18 331.959 661.169C332.438 660.744 332.916 660.3 333.395 659.857C333.785 659.467 334.174 659.077 334.564 658.669C334.6 658.634 334.635 658.616 334.653 658.581C335.043 658.19 335.415 657.801 335.769 657.393C336.106 657.038 336.443 656.666 336.762 656.293C336.974 656.063 337.169 655.832 337.364 655.602C337.931 654.964 338.463 654.308 338.995 653.634C339.243 653.315 339.491 653.013 339.739 652.694C340.625 651.559 341.494 650.389 342.309 649.219C342.575 648.847 342.823 648.474 343.088 648.12C343.443 647.605 343.78 647.074 344.134 646.542C344.382 646.152 344.648 645.744 344.896 645.354C345.002 645.194 345.091 645.035 345.197 644.875C345.233 645.017 345.25 645.159 345.286 645.301C345.321 645.442 345.357 645.584 345.41 645.708C345.623 646.4 345.96 647.056 346.367 647.641C346.438 647.765 346.526 647.871 346.615 647.978C354.838 657.393 364.496 665.407 374.19 673.261C381.19 678.882 388.084 684.644 395.067 690.3C404.991 698.474 415.695 705.796 424.538 715.194C434.622 725.637 437.404 735.849 438.414 749.963C440.045 762.87 442.774 775.654 443.943 788.65Z" fill="#B7B5B5"/>
</g>
</svg>
