<svg width="772" height="842" viewBox="0 0 772 842" fill="none" xmlns="http://www.w3.org/2000/svg">
<g id="Left Arm / Up">
<path id="Clothing 1" d="M486.642 214.863L477.764 230.253L474.662 245.926L461.016 286.919L404.537 364.294L343.662 436.332L305.188 468.424L305.135 468.46L304.657 468.672L304.161 468.885L303.647 469.098L303.133 469.311L302.601 469.523L302.052 469.736L301.502 469.931L300.953 470.144L300.404 470.339L299.854 470.534L299.305 470.729L298.755 470.906L298.188 471.084L297.639 471.261L297.09 471.421L296.522 471.58L295.955 471.757L295.388 471.917L294.803 472.094L294.218 472.272L293.616 472.449L293.014 472.626L292.411 472.821L291.808 472.999L291.206 473.176L290.621 473.335L290.036 473.513L289.434 473.672L288.849 473.832L288.264 473.992L287.679 474.133L287.112 474.275L286.545 474.399L285.996 474.523L285.464 474.63L284.932 474.736L284.401 474.825L283.869 474.914L283.355 475.002L282.823 475.091L282.309 475.18L281.796 475.268L281.282 475.357L280.785 475.428L280.307 475.499L279.828 475.57L279.368 475.64L278.925 475.694L278.499 475.747L278.092 475.782L277.684 475.818L277.277 475.853L276.869 475.889L276.461 475.924L276.018 475.942L275.558 475.96L275.097 475.977L274.601 475.995L274.087 476.013L273.573 476.031H273.041H272.509H271.978H271.446H270.914H270.4H269.886H269.373H268.876H268.38H267.866L267.352 476.013L266.838 475.995L266.324 475.977H265.793L265.243 475.96L264.694 475.942H264.127H263.56H262.975H262.39H261.788H261.203H260.6H260.015L259.413 475.96L258.828 475.977L258.243 475.995L257.641 476.013L257.038 476.031L256.418 476.048L255.78 476.066L255.142 476.084L254.504 476.101L253.866 476.119L253.228 476.137L252.59 476.155L251.952 476.172L251.332 476.19L250.729 476.208H250.144H249.577H249.046H248.514L248 476.19L247.486 476.155L246.972 476.119L246.458 476.084L245.944 476.031L245.413 475.96L244.863 475.889L244.296 475.8L243.729 475.711L243.127 475.623L242.524 475.516L241.922 475.41L241.319 475.304L240.734 475.197L240.167 475.091L239.618 474.984L239.086 474.896L238.572 474.789L238.058 474.701L237.544 474.612L237.048 474.506L236.552 474.417L236.038 474.311L235.524 474.204L234.992 474.098L234.461 473.992L233.911 473.867L233.344 473.743L232.777 473.619L232.21 473.495L231.643 473.371L231.076 473.247L230.509 473.123L229.959 472.999L229.428 472.874L228.896 472.75L228.364 472.608L227.85 472.467L227.336 472.325L226.84 472.183L226.362 472.023L225.883 471.864L225.405 471.704L224.908 471.527L224.395 471.332L223.863 471.119L223.296 470.906L222.711 470.658L222.108 470.41L221.488 470.144L220.85 469.86L220.212 469.577L219.574 469.293L218.936 468.991L218.316 468.708L217.714 468.424L217.129 468.14L216.562 467.875L215.995 467.609L215.445 467.343L214.896 467.077L214.346 466.811L213.779 466.527L213.212 466.243L212.645 465.96L212.06 465.658L211.458 465.357L210.855 465.038L210.235 464.719L209.597 464.399L208.977 464.08L208.339 463.743L207.718 463.407L207.08 463.07L206.442 462.715L205.787 462.36L205.131 461.988L204.458 461.598L203.766 461.208L203.075 460.8L202.384 460.392L201.693 459.984L201.002 459.577L200.328 459.169L199.637 458.761L198.964 458.353L198.29 457.945L197.617 457.538L196.943 457.13L196.27 456.704L195.579 456.279L194.888 455.836L194.197 455.392L193.488 454.931L192.761 454.453L192.052 453.974L191.326 453.477L190.617 452.963L189.908 452.449L189.199 451.935L188.49 451.421L187.781 450.889L187.09 450.357L186.399 449.825L185.708 449.293L185.017 448.779L184.326 448.265L183.652 447.751L182.996 447.254L182.358 446.776L181.756 446.297L181.171 445.836L180.604 445.392L180.072 444.967L179.541 444.541L179.027 444.116L178.495 443.69L177.963 443.265L177.432 442.822L176.9 442.378L176.351 441.917L175.784 441.439L175.199 440.942L174.596 440.446L173.976 439.932L173.338 439.4L172.682 438.85L172.009 438.283L171.335 437.715L170.662 437.148L169.989 436.598L169.333 436.066L168.695 435.552L168.075 435.056L167.472 434.577L166.887 434.116L166.32 433.673L165.753 433.23L165.204 432.786L164.637 432.361L164.087 431.917L163.538 431.492L162.988 431.049L162.439 430.605L161.89 430.144L161.323 429.683L160.756 429.205L160.188 428.726L159.604 428.229L159.019 427.733L158.416 427.219L157.814 426.722L157.211 426.226L156.609 425.73L156.006 425.251L155.404 424.772L154.801 424.311L154.198 423.85L153.596 423.407L152.993 422.964L152.391 422.52L151.788 422.077L151.168 421.634L150.548 421.191L149.928 420.747L149.289 420.286L148.651 419.825L148.014 419.347L147.376 418.868L146.738 418.389L146.1 417.893L145.479 417.396L144.877 416.918L144.292 416.421L143.707 415.942L143.14 415.464L142.573 414.985L142.006 414.506L141.439 414.027L140.872 413.549L140.287 413.07L139.702 412.591L139.099 412.113L138.497 411.634L137.894 411.155L137.292 410.677L136.689 410.198L136.122 409.737L135.555 409.276L135.006 408.815L134.456 408.354L133.889 407.893L133.322 407.414L132.755 406.918L132.17 406.421L131.568 405.889L130.947 405.358L130.309 404.808L129.671 404.24L129.016 403.673L128.378 403.088L127.74 402.503L127.102 401.935L126.481 401.368L125.879 400.818L125.294 400.286L124.709 399.755L124.142 399.223L123.575 398.709L123.008 398.194L122.441 397.662L121.874 397.148L121.289 396.616L120.704 396.084L120.102 395.553L119.499 395.021L118.897 394.489L118.312 393.957L117.727 393.443L117.16 392.929L116.593 392.414L116.043 391.918L115.512 391.439L114.98 390.961L114.466 390.482L113.952 390.003L113.438 389.524L112.924 389.046L112.393 388.567L111.861 388.07L111.312 387.556L110.762 387.024L110.195 386.492L109.628 385.943L109.096 385.429L108.636 384.985L108.37 384.719L108.317 384.666L83.6301 357.361L83.5947 357.29L83.5593 357.22L83.5238 357.149L83.4884 357.078L83.4529 357.007L83.4175 356.936L83.382 356.865L83.3466 356.794L83.3111 356.705L83.2757 356.634L83.2403 356.546L83.2048 356.457L83.1693 356.369L83.1162 356.28L83.0807 356.174L83.0276 356.067L82.9744 355.961L82.9213 355.837L82.8681 355.713L82.815 355.588L82.7618 355.464L82.7087 355.322L82.6377 355.181L82.5669 355.039L82.4959 354.879L82.425 354.702L82.3542 354.525L82.2656 354.33L82.1947 354.135L82.1061 353.922L82.0175 353.709L81.9289 353.479L81.8402 353.23L81.7339 352.964L81.6275 352.681L81.5212 352.397L81.3972 352.096L81.2908 351.776L81.1668 351.457L81.0428 351.138L80.9365 350.819L80.8124 350.482L80.6883 350.145L80.582 349.808L80.458 349.472L80.3339 349.117L80.2098 348.762L80.0858 348.39L79.9441 348L79.8023 347.592L79.6604 347.166L79.501 346.723L79.3415 346.262L79.1819 345.783L79.0225 345.305L78.8629 344.826L78.7035 344.33L78.544 343.851L78.3845 343.372L78.225 342.893L78.0654 342.415L77.9237 341.936L77.7819 341.457L77.6224 340.961L77.463 340.447L77.3034 339.933L77.1262 339.383L76.9491 338.816L76.754 338.213L76.5591 337.592L76.3642 336.972L76.1693 336.351L75.9743 335.731L75.7971 335.128L75.6199 334.543L75.4604 333.975L75.3008 333.408L75.1414 332.858L74.9819 332.291L74.8224 331.723L74.6629 331.156L74.5034 330.553L74.3439 329.933L74.1845 329.277L74.0072 328.585L73.83 327.858L73.635 327.096L73.4401 326.298L73.2452 325.482L73.0502 324.614L72.8376 323.709L72.6249 322.77L72.4123 321.812L72.1995 320.837L71.9869 319.844L71.792 318.869L71.597 317.911L71.4198 316.989L71.2426 316.103L71.0654 315.216L70.8704 314.348L70.6755 313.461L70.4628 312.539L70.2324 311.582L69.9843 310.589L69.7185 309.543L69.4349 308.444L69.1337 307.291L68.8147 306.121L68.5135 304.933L68.2121 303.763L67.9286 302.61L67.6805 301.511L67.4678 300.483L67.2729 299.49L67.0957 298.532L66.9362 297.61L66.7766 296.724L66.6172 295.837L66.4577 294.951L66.2982 294.064L66.121 293.16L65.926 292.238L65.7134 291.245L65.4653 290.181L65.1995 289.029L64.8981 287.788L64.5614 286.458L64.2071 285.039L63.8349 283.55L63.4449 282.025L63.0551 280.465L62.6829 278.923L62.3108 277.415L61.9564 275.979L61.6374 274.614L61.3361 273.32L61.0525 272.061L60.769 270.82L60.5032 269.614L60.2373 268.409L59.9715 267.185L59.6879 265.944L59.4044 264.65L59.0854 263.284L58.7487 261.83L58.3765 260.252L57.969 258.55L57.5259 256.724L57.0474 254.809L56.569 252.841L56.0904 250.891L55.6119 248.958L55.1689 247.043L54.7613 245.182L54.3891 243.373L54.0347 241.583L53.6979 239.81L53.379 238.036L53.06 236.21L52.741 234.278L52.422 232.221L52.103 230.04L51.7841 227.735L51.4651 225.306L51.1461 222.788L50.827 220.235L50.4903 217.629L50.1359 214.987L49.7815 212.31L49.4093 209.633L49.0548 206.955L48.7181 204.349L48.4169 201.778L48.1511 199.207L47.9207 196.618L47.7257 193.976L47.5663 191.282L47.4244 188.533L47.3181 185.714L47.2295 182.789L47.1587 179.739L47.1232 176.548L47.1055 173.214V169.792L47.1409 166.264L47.2118 162.612L47.3004 158.853L47.4244 155.023L47.5663 151.158L47.7257 147.364L47.8852 143.658L48.0624 140.023L48.2574 136.442L48.4701 132.949L48.7181 129.527L48.9662 126.229L49.2498 123.055L49.5688 119.935L49.9233 116.85L50.3131 113.782L50.7384 110.697L51.1815 107.594L51.6423 104.456L52.1208 101.265L52.6169 98.0024L53.1309 94.7046L53.6626 91.3713L54.1942 88.0733L54.7258 84.811L55.2752 81.5663L55.8246 78.3394L56.4094 75.1125L57.012 71.8855L57.6322 68.7119L58.2702 65.5736L58.9259 62.4354L59.5993 59.3326L60.2905 56.2475L60.9817 53.2333L61.6728 50.3433L62.3639 47.5596L63.0551 44.8823L63.7463 42.2937L64.4197 39.7937L65.0754 37.3824L65.7134 35.0951L66.3336 32.9143L66.9362 30.8044L67.521 28.7655L68.1058 26.7797L68.6552 24.8826L69.1692 23.074L69.6476 21.3365L70.1084 19.6343L70.5514 17.9677L70.9945 16.3188L71.4021 14.723L71.8097 13.1627L72.1995 11.6202L72.5717 10.1132L72.9439 8.65928L73.2984 7.25862L73.6174 5.99973L73.8654 4.97134L73.9894 4.4572V4.43945L78.6858 5.6806L115.653 32.0456L144.558 61.3006L166.373 95.2896L196.022 153.888L229.499 225.288L243.534 250.625L250.127 247.504L292.021 215.519L348.022 176.53L384.866 158.321L410.935 154.332L435.249 136.3L439.272 170.466L457.667 194.367L486.642 214.863Z" fill="white"/>
<g id="Outline">
<path d="M483.326 217.346C477.46 217.098 472.586 213.499 467.624 210.751C462.822 207.896 458.072 204.935 453.801 201.3C438.294 187.949 426.952 167.95 429.044 146.992C429.628 143.34 429.256 139.031 431.507 135.946C433.368 133.961 436.788 134.688 437.745 137.205C438.472 139.563 438.011 142.081 438.277 144.528C439.092 164.067 448.803 183.215 464.363 195.112C469.857 198.8 475.723 201.832 481.766 204.456C486.303 206.602 490.06 210.431 491.867 215.13C489.688 217.222 486.25 217.506 483.326 217.346Z" fill="black"/>
<path d="M470.46 235.768C472.639 228.392 480.774 211.353 488.607 209.474C491.637 209.261 493.799 212.825 492.328 215.467C486.126 223.162 478.683 230.378 470.46 235.768Z" fill="black"/>
<path d="M405.225 159.404C410.967 150.592 417.719 142.471 426.191 136.159C429.274 133.57 433.828 129.12 437.816 132.861C439.588 134.546 439.836 137.383 438.419 139.351C427.892 146.39 418.286 156.602 405.225 159.404Z" fill="black"/>
<path d="M246.243 483C219.058 479.205 195.133 465.092 172.946 449.808C155.33 438.16 139.168 424.472 124.742 409.064C110.707 394.242 96.4937 379.366 84.7441 362.611C83.4859 360.625 81.9087 358.781 81.0226 356.6C79.4276 351.547 84.2302 349.1 87.6505 353.249C96.919 365.909 108.031 377.096 118.788 388.479C137.732 408.603 158.857 427.982 182.267 442.539C204.969 457.787 230.559 470.783 258.418 471.581C266.109 471.83 273.889 472.007 281.492 470.606C290.619 468.372 299.284 464.436 307.525 459.968C317.928 453.443 327.48 445.447 337.9 438.975C342.136 436.174 346.283 433.16 350.465 430.571C343.128 437.752 335.987 445.128 328.933 452.61C323.617 458.266 318.672 464.33 312.31 468.869C289.998 485.305 273.003 486.262 246.243 483Z" fill="black"/>
<path d="M314.029 463.833C325.637 453.727 333.895 440.677 344.44 429.596C363.473 409.401 381.053 387.752 398.314 366.05C413.271 347.38 426.97 327.771 439.872 307.629C453.004 286.725 469.059 265.661 469.91 240.183C470.477 235.165 472.09 230.307 474.943 226.105C476.556 223.676 478.399 219.58 481.943 221.265C485.948 223.676 482.776 227.258 481.075 230.059C479.427 232.807 478.364 235.839 477.991 239.013C477.283 244.42 477.495 249.899 476.574 255.289C472.498 273.817 461.368 289.739 451.568 305.661C436.788 329.473 420.289 352.097 402.727 373.71C386.866 393.16 371.359 412.947 354.488 431.546C342.898 444.418 329.447 456.085 314.029 463.833Z" fill="black"/>
<path d="M231.233 261.619C250.869 243.321 270.416 224.864 292.284 209.226C313.976 193.375 335.862 177.453 359.716 165.024C367.762 160.964 376.073 157.223 384.916 155.272C391.651 154.084 398.385 154.315 404.712 151.567C408.221 150.148 411.499 148.287 414.636 146.177C416.355 145.024 418.287 143.358 420.466 144.333C423.532 145.468 423.319 149.9 420.484 151.194C407.955 161.744 399.501 162.577 384.154 165.006C374.797 167.63 366.025 172.028 357.465 176.566C357.589 176.496 357.731 176.425 357.855 176.336C357.891 176.318 357.908 176.301 357.979 176.265C339.07 187.276 320.763 199.758 303.166 212.683C279.844 229.846 257.053 248.498 231.233 261.619Z" fill="black"/>
<path d="M238.127 253.534C235.77 251.938 235.114 248.747 233.696 246.389C230.542 239.58 227.121 232.896 224.073 226.07C218.225 212.346 210.622 199.527 205.359 185.574C196.799 165.06 187.194 144.989 176.986 125.255C168.497 108.287 159.548 91.4965 148.968 75.7343C134.702 54.6352 115.048 37.88 95.2354 22.2951C89.2809 17.7207 83.2023 13.3058 76.9997 9.08597C74.43 7.33067 69.8578 5.43356 71.506 1.58608C72.9414 -0.594751 76.0249 -0.275601 77.9566 1.03644C83.22 4.01514 88.1821 7.45477 93.2506 10.7349C112.674 24.4936 131.051 40.185 146.593 58.2345C160.629 76.0534 171.563 95.7518 182.09 115.734C193.662 137.347 204.189 159.528 213.83 182.081C218.455 193.41 224.197 204.226 229.336 215.307C232.916 223.96 236.886 233.41 241.086 241.389C242.149 243.516 243.319 245.591 244.365 247.718C246.261 251.442 241.777 255.839 238.127 253.534Z" fill="black"/>
<path d="M710.626 151.62C706.497 149.9 709.173 146.62 711.583 144.723C714.081 142.861 717.236 142.205 719.912 140.609C726.664 136.886 732.867 132.276 739.512 128.358C746.406 124.067 753.796 120.503 760.3 115.645C762.48 112.932 762.941 108.695 761.452 105.557C757.004 101.674 745.626 105.415 740.363 106.94C735.56 108.908 730.776 111.053 726.469 113.961C723.74 116.283 719.097 114.528 720.444 110.592C721.932 107.365 725.796 105.982 728.596 104.085C738.396 98.4999 750.216 94.1914 761.594 96.1595C772.581 98.6949 773.574 113.695 767.229 121.266C762.444 126.212 755.852 128.996 750.11 132.666C743.535 136.461 737.208 140.627 730.846 144.758C724.998 147.932 717.555 154.652 710.626 151.62Z" fill="black"/>
<path d="M665.878 180.538C671.106 175.769 677.043 171.265 683.653 168.446C693.116 164.545 702.367 158.517 706.337 148.677C712.398 134.138 713.089 118.056 714.844 102.578C714.861 98.6772 720.763 78.7661 713.567 80.6278C703.572 83.8902 698.309 97.9148 693.613 106.603C688.793 117.188 684.397 128.092 677.468 137.542C675.979 139.333 674.739 141.833 672.293 142.365C670.309 142.684 668.554 141.354 668.129 139.421C667.721 137.294 669.405 135.68 670.326 133.943C682.235 117.063 692.567 66.3194 718.246 70.2201C727.32 72.7023 729.039 83.4646 727.94 91.5319C726.894 100.096 726.15 108.677 724.927 117.223C722.73 134.014 720.302 152.17 708.534 165.255C697.547 176.247 681.597 183.765 665.878 180.538Z" fill="black"/>
<path d="M597.578 204.705C611.525 191.017 629.141 182.435 646.313 173.57C649.999 171.46 653.951 169.439 656.84 166.248C660.562 159.9 662.422 152.329 662.67 144.989C662.298 129.936 660.597 115.344 658.612 100.645C657.301 91.6561 656.379 82.5427 653.349 73.9258C652.303 70.7698 649.946 67.596 646.295 67.7379C641.936 72.2237 640.678 79.1207 639.526 85.1313C636.708 103.73 642.414 123.659 634.192 141.319C633.022 143.624 631.852 145.999 630.435 148.18C629.212 149.882 625.845 151.886 624.002 149.953C621.219 146.265 625.1 142.152 626.394 138.659C632.242 124.741 628.733 108.979 629.3 94.5461C629.212 78.5888 636.123 45.5041 657.992 61.7805C670.823 73.4825 673.977 121.532 675.253 139.67C675.785 151.673 673.233 164.599 666.126 174.457C661.217 179.864 654.536 183.18 648.121 186.478C632.224 194.935 614.201 198.339 597.578 204.705Z" fill="black"/>
<path d="M637.807 185.822C644.009 177.932 654.022 175.077 663.556 173.57C670.557 172.063 677.557 170.645 684.539 169.067C686.028 168.73 687.428 168.375 688.952 168.801C692.62 169.687 692.904 174.439 689.891 176.354C682.306 179.971 673.977 182.01 665.967 184.51C656.84 187.471 647.146 188.251 637.807 185.822Z" fill="black"/>
<path d="M565.147 210.165C550.013 210.077 535.215 206.336 520.098 206.424C509.944 206.726 499.736 206.744 489.635 207.825C485.789 208.676 481.89 209.439 477.956 208.658C475.918 208.322 473.685 207.754 472.019 206.478C472.905 203.393 475.28 200.662 477.743 198.712C486.392 192.719 497.751 194.261 507.764 193.322C517.334 192.967 526.957 192.879 536.473 194.12C550.403 196.336 564.474 198.41 578.616 198.02C590.809 198.463 602.062 193.269 613.297 189.155C619.677 187.276 626.748 182.24 633.376 185.432C633.553 185.538 634.369 185.964 634.245 186.247C632.792 190.396 629.158 192.932 625.206 194.527C620.333 196.832 615.584 199.403 610.675 201.62C604.295 204.368 597.95 207.417 591.127 208.889C582.32 210.414 573.725 210.414 565.147 210.165Z" fill="black"/>
<path d="M600.662 180.964C601.3 176.602 603.196 172.63 605.73 169.067C609.381 164.067 615.832 161.088 617.125 154.546C618.331 146.78 616.718 138.854 616.594 131.461C616.452 121.053 613.404 111.018 609.399 101.514C607.166 95.3262 603.409 86.0887 595.682 92.1171C592.156 103.606 592.368 115.698 592.102 127.578C591.819 134.812 593.112 143.003 588.753 149.262C583.613 155.308 576.791 159.581 570.978 164.829C567.292 167.719 562.542 164.12 565.13 159.847C567.487 157.046 570.606 154.865 573.282 152.347C576.365 149.404 580.619 146.886 582.107 142.719C583.029 131.709 582.196 120.574 583.49 109.546C584.411 101.851 584.553 93.4823 588.505 86.6207C591.234 82.8441 596.107 81.4611 600.591 81.2306C607.13 81.0178 612.394 86.0533 614.964 91.7093C621.645 105.964 625.579 121.283 626.731 136.975C627.457 143.978 628.077 150.042 626.5 156.726C623.027 168.446 612.854 178.907 600.662 180.964Z" fill="black"/>
<path d="M678.035 112.773C674.42 112.507 670.291 111.071 667.934 108.234C672.311 104.652 677.787 104.174 683.21 104.174C684.734 103.695 686.294 103.34 687.8 104.156C691.858 107.01 688.846 111.088 684.947 112.01C682.732 112.684 680.357 112.915 678.035 112.773Z" fill="black"/>
<path d="M628.007 108.979C622.921 108.695 614.662 108.447 614.113 101.869C614.024 97.8616 619.27 96.1063 622.371 97.312C626.872 99.28 635.397 98.2517 637.346 103.535C638.445 109.635 632.171 109.174 628.007 108.979Z" fill="black"/>
<path d="M434.679 152.542C435.707 144.368 442.814 139.014 448.697 134.067C455.662 128.482 462.609 122.897 469.697 117.471C480.384 109.298 491.779 101.78 504.645 97.5425C519.744 92.7908 535.641 90.4682 551.378 89.032C555.223 88.9611 559.157 89.2802 562.879 89.9894C557.722 93.8369 552.051 97.2056 545.795 98.9432C514.463 104.386 499.488 104.83 473.242 125.61C466.082 130.982 459.064 136.496 451.958 141.939C446.695 146.602 441.413 150.432 434.679 152.542Z" fill="black"/>
<path d="M546.291 93.234C544.484 88.2518 550.899 87.0816 554.177 85.539C558.838 83.5709 563.375 81.3369 567.699 78.7838C576.702 73.0569 585.332 66.7627 594.814 61.7805C605.908 54.9366 622.158 49.5642 628.715 64.9364C633.323 75.5214 620.687 87.1702 612.447 92.1701C614.573 86.6737 617.143 81.0532 619.695 75.681C622.141 71.1065 623.044 68.9258 618.986 64.8655C614.804 61.6386 608.938 64.5286 604.844 66.4258C590.029 73.6775 577.659 85.2376 562.258 91.3546C559.707 92.4184 557.084 93.3227 554.461 94.2269C551.803 95.4858 547.798 96.7624 546.291 93.234Z" fill="black"/>
</g>
<g id="Skin">
<path d="M658.63 100.644C660.614 115.342 662.298 129.934 662.688 144.987C662.422 152.328 660.579 159.898 656.857 166.246C653.969 169.437 650.035 171.459 646.331 173.569C639.153 177.274 631.887 180.927 624.852 184.934C620.918 185.927 616.983 188.072 613.297 189.171C602.062 193.285 590.808 198.48 578.616 198.036C564.474 198.444 550.403 196.352 536.455 194.136C526.939 192.895 517.316 192.983 507.746 193.338C497.733 194.26 486.391 192.735 477.725 198.728C476.768 199.49 475.829 200.359 474.978 201.316C471.328 199.472 467.766 197.416 464.345 195.129C450.487 184.526 441.272 168.178 438.844 150.927C443.682 148.711 447.811 145.572 451.94 141.92C459.046 136.494 466.064 130.963 473.224 125.59C499.452 104.81 514.445 104.367 545.777 98.9238C550.598 97.594 555.081 95.2891 559.228 92.5232C560.238 92.1509 561.248 91.7608 562.241 91.353C577.623 85.2361 590.011 73.6937 604.826 66.442C608.938 64.5448 614.786 61.6548 618.968 64.8817C623.026 68.9597 622.105 71.1227 619.659 75.6971C617.55 80.1297 615.442 84.7219 613.581 89.2786C610.745 84.6865 606.102 81.0517 600.52 81.229C596.054 81.4595 591.18 82.8424 588.434 86.6367C584.482 93.4983 584.34 101.849 583.418 109.544C582.125 120.555 582.957 131.707 582.036 142.718C580.547 146.884 576.294 149.402 573.211 152.345C570.535 154.863 567.416 157.044 565.059 159.845C562.471 164.118 567.22 167.718 570.907 164.827C576.719 159.579 583.56 155.306 588.682 149.26C593.059 142.984 591.748 134.792 592.031 127.558C592.297 115.679 592.084 103.569 595.611 92.0977C603.338 86.0694 607.095 95.3068 609.328 101.495C613.333 111.016 616.381 121.051 616.523 131.441C616.665 138.853 618.277 146.76 617.054 154.544C615.761 161.086 609.292 164.065 605.659 169.047C603.125 172.611 601.229 176.583 600.591 180.944C612.783 178.888 622.956 168.427 626.411 156.742C626.925 154.597 627.209 152.505 627.315 150.43C628.574 149.969 629.761 149.03 630.381 148.143C631.799 145.98 632.969 143.604 634.138 141.282C642.361 123.64 636.672 103.711 639.49 85.1119C640.624 79.1014 641.883 72.2043 646.26 67.7185C649.911 67.5944 652.267 70.7504 653.313 73.9241C656.379 82.541 657.318 91.6722 658.63 100.644Z" fill="#B7B5B5"/>
<path d="M629.601 109.048C630.027 118.764 630.31 128.622 626.784 137.7C626.766 137.47 626.748 137.239 626.713 137.009C626.004 127.239 624.196 117.612 621.325 108.303C623.611 108.782 626.039 108.871 628.006 108.995C628.503 108.995 629.052 109.03 629.601 109.048Z" fill="#B7B5B5"/>
<path d="M678.035 112.771C678.921 112.824 679.825 112.824 680.729 112.771C678.514 117.948 676.405 122.878 674.314 127.044C673.924 122.31 673.428 117.044 672.79 111.583C674.491 112.257 676.316 112.647 678.035 112.771Z" fill="#B7B5B5"/>
<path d="M713.567 80.6084C720.745 78.7467 714.861 98.6579 714.826 102.559C713.071 118.037 712.38 134.119 706.319 148.657C702.349 158.515 693.117 164.544 683.635 168.427C682.537 168.905 681.455 169.42 680.392 169.987C676.015 170.944 671.62 171.849 667.243 172.788C673.374 163.356 675.643 151.494 675.27 140.36C676.05 139.455 676.724 138.409 677.45 137.523C684.379 128.072 688.792 117.186 693.595 106.583C698.309 97.8954 703.59 83.8708 713.567 80.6084Z" fill="#B7B5B5"/>
<path d="M761.469 105.537C762.958 108.675 762.497 112.913 760.317 115.626C753.814 120.484 746.424 124.065 739.53 128.338C733.239 132.044 727.337 136.388 720.993 139.987C722.889 132.487 723.935 124.704 724.909 117.168C725.033 116.335 725.14 115.502 725.246 114.668C725.689 114.509 726.097 114.261 726.487 113.924C730.793 111.016 735.578 108.87 740.38 106.902C745.644 105.395 757.021 101.672 761.469 105.537Z" fill="#B7B5B5"/>
</g>
</g>
</svg>
