<svg width="472" height="1941" viewBox="0 0 472 1941" fill="none" xmlns="http://www.w3.org/2000/svg">
<g id="Left Arm / Walking Stick">
<path id="Clothing 1" d="M349.191 613.562C348.34 614.43 347.596 615.369 346.905 616.362C343.945 621.094 342.315 626.516 339.373 631.301C336.502 636.122 333.401 640.729 330.104 645.266C319.56 659.692 306.038 671.814 289.504 678.885C283.408 681.596 276.939 683.244 270.382 684.378C269.868 684.449 269.336 684.556 268.822 684.698C268.131 683.014 266.855 681.649 265.88 680.108C262.496 675.5 260.156 670.024 255.513 666.479C248.637 659.869 238.678 661.358 230.012 659.639C203.464 655.58 185.618 637.965 168.269 619.073C161.853 613.154 155.155 607.27 147.765 602.45L147.676 602.096L147.056 599.615L146.471 597.151L145.904 594.706L145.354 592.224L144.805 589.726L144.256 587.191L143.706 584.604L143.175 581.999L142.625 579.376L142.094 576.718L141.562 574.024L141.03 571.295L140.481 568.548L139.949 565.801L139.418 563.054L138.904 560.307L138.408 557.596L137.947 554.902L137.521 552.279L137.132 549.692L136.759 547.158L136.405 544.623L136.086 542.089L135.767 539.519L135.448 536.861L135.129 534.15L134.792 531.332L134.42 528.372L134.012 525.289L133.569 522.116L133.109 518.873L132.63 515.524L132.134 512.05L131.638 508.506L131.124 504.909L130.61 501.293L130.096 497.678L129.582 494.063L129.086 490.447L128.607 486.867L128.164 483.323L127.757 479.85L127.367 476.429L127.012 473.098L126.711 469.819L126.428 466.558L126.162 463.297L125.896 460.019L125.63 456.722L125.329 453.355L125.01 449.882L124.655 446.337L124.301 442.722L123.929 439.036L123.521 435.279L123.114 431.451L122.706 427.534L122.298 423.618L121.909 419.754L121.536 415.944L121.182 412.187L120.845 408.43L120.526 404.655L120.207 400.881L119.906 397.141L119.587 393.402L119.25 389.663L118.896 385.87L118.524 382.007L118.152 378.108L117.797 374.191L117.443 370.257L117.124 366.305L116.805 362.3L116.503 358.224L116.202 354.112L115.883 350.001L115.546 345.872L115.192 341.707L114.802 337.489L114.394 333.183L113.969 328.841L113.526 324.517L113.065 320.21L112.587 315.904L112.108 311.597L111.63 307.327L111.151 303.126L110.691 298.979L110.248 294.904L109.84 290.845L109.432 286.787L109.042 282.764L108.67 278.83L108.298 274.931L107.926 271.067L107.518 267.169L107.093 263.181L106.65 259.158L106.172 255.1L105.675 251.006L105.161 246.895L104.612 242.73L104.045 238.548L103.46 234.401L102.893 230.325L102.326 226.337L101.794 222.438L101.298 218.646L100.82 214.96L100.376 211.362L99.9689 207.853L99.579 204.397L99.2069 200.995L98.8524 197.61L98.498 194.207L98.1612 190.787L97.8245 187.349L97.4878 183.875L97.1511 180.366L96.7966 176.787L96.4423 173.118L96.0701 169.432L95.6625 165.764L95.2548 162.113L94.865 158.498L94.4928 154.989L94.1383 151.586L93.8194 148.308L93.5536 145.153L93.3232 142.123L93.1282 139.181L92.9688 136.345L92.8447 133.598L92.7384 130.887L92.6498 128.193L92.5612 125.464L92.4725 122.664L92.3662 119.811L92.2776 116.869L92.1712 113.821L92.0649 110.666L91.9586 107.441L91.8523 104.162L91.7282 100.848L91.6041 97.5696L91.4978 94.3974L91.4092 91.3669L91.3384 88.5137L91.3029 85.8022L91.2852 83.2502L91.3029 80.8401L91.3384 78.554L91.4092 76.3387L91.4978 74.1589L91.6219 72.0146L91.7637 69.8702L91.9231 67.6904L92.0827 65.4574L92.2421 63.1359L92.4016 60.7257L92.5434 58.2091L92.6851 55.6218L92.8092 52.928L92.9333 50.1811L93.0573 47.381L93.1814 44.5632L93.3055 41.7809L93.4295 39.1049L93.5536 36.5529L93.6953 34.1604L93.8371 31.9452L93.9966 29.8717L94.1561 27.9224L94.3156 26.097L94.4751 24.378L94.6523 22.7298L94.7409 21.8438C111.382 33.363 120.172 52.804 127.899 71.0221C137.202 92.0404 143.21 113.821 149.289 136.044C150.689 141.201 152.443 146.216 154.446 151.125C156.643 160.252 159 169.361 161.393 178.453C170.679 211.646 184.803 243.191 196.464 275.569C219.379 341.406 254.769 401.731 285.747 463.918C297.798 489.685 310.628 515.045 323.955 540.175C328.793 549.656 333.791 559.386 335.12 570.107C335.846 576.381 334.73 582.974 336.236 589.105C337.902 592.065 339.178 595.219 340.631 598.285C343.059 603.549 346.55 608.351 349.191 613.562Z" fill="white"/>
<g id="Outline">
<path d="M340.081 818.323C331.38 816.515 327.038 807.619 323.352 800.388C317.876 788.018 311.992 775.808 305.984 763.686C292.48 736.359 282.29 715.465 280.235 689.183C281.865 688.137 283.478 687.074 285.09 685.993C286.526 685.16 287.979 684.309 289.414 683.441C291.382 708.961 298.045 726.257 312.311 754.24C318.709 766.628 324.77 779.175 330.635 791.811C332.496 795.834 334.339 799.803 335.757 804.003C337.37 808.593 338.256 814.211 342.491 817.153C343.005 817.472 343.608 817.472 344.033 817.72C343.059 818.092 342.066 818.429 341.038 818.429C340.737 818.429 340.418 818.394 340.081 818.323Z" fill="black"/>
<path d="M340.808 818.482C337.068 817.082 328.562 811.589 332.532 807.052C333.825 805.758 335.952 805.616 337.388 806.733C340.223 809.692 344.423 812.014 348.41 810.224C357.838 799.91 344.157 772.795 344.972 759.326C345.274 747.878 348.729 730.103 362.056 727.693C371.378 726.541 381.603 728.402 389.614 733.417C392.325 735.207 394.93 737.404 396.738 740.045C389.95 740.222 384.244 740.01 377.846 739.301C372.069 738.982 363.704 734.569 359.788 740.772C348.41 758.83 360.993 779.157 361.365 798.279C362.127 810.437 354.454 823.285 340.808 818.482Z" fill="black"/>
<path d="M416.941 802.922C408.08 803.348 403.862 794.132 396.401 791.35C392.662 790.659 388.533 791.261 384.864 791.403C383.588 791.456 382.259 791.527 381.019 791.385C382.064 785.236 388.001 780.114 394.204 779.742C401.948 779.175 407.619 785.13 412.652 790.163C415.009 792.945 418.128 792.945 421.017 790.942C427.698 786.565 428.673 777.81 429.452 770.509C430.392 760.532 428.052 749.083 420.432 742.101C416.604 739.088 411.677 741.622 407.389 741.977C401.363 742.739 395.09 742.579 389.312 740.577C385.325 739.832 382.95 735.295 386.902 732.708C389.436 731.397 392.183 733.045 394.842 733.063C408.806 734.711 419.599 724.131 430.959 737.901C446.058 754.471 444.587 801.044 416.941 802.922Z" fill="black"/>
<path d="M457.187 1878.95C451.038 1866.15 451.481 1852.06 451.622 1838.24C451.498 1821.47 450.789 1804.73 450.063 1787.98C448.716 1753.49 447.103 1718.99 446.235 1684.5C444.799 1624.12 446.022 1563.58 440.174 1503.38C437.569 1468.81 434.734 1434.25 432.217 1399.66C429.098 1346.9 426.493 1294.07 421.672 1241.54C416.019 1180.56 411.429 1119.42 407.956 1058.28C407.105 1046.76 405.971 1035.26 404.943 1023.76C402.941 1001.34 403.951 978.813 403.508 956.341C403.791 926.409 401.611 896.459 398.404 866.704C396.49 852.703 395.604 838.597 394.877 824.49C394.434 817.472 394.044 810.437 393.637 803.915C393.105 800.371 393.353 796.543 395.249 793.477C395.231 793.441 395.161 793.423 395.178 793.37C395.356 792.998 395.799 792.981 396.153 793.105C399.804 794.77 400.796 798.917 401.062 802.604C402.09 813.343 402.905 824.118 403.844 834.875C404.908 851.676 407.867 868.246 409.462 884.993C411.553 909.077 413.414 933.196 413.042 957.387C413.414 976.792 412.847 996.233 414.07 1015.62C417.791 1054.04 420.326 1092.41 422.576 1130.46C427.645 1197.08 435.035 1263.48 439.128 1330.17C442.921 1399.23 449.177 1468.03 454.086 1536.98C457.807 1606.36 455.663 1675.94 459.615 1745.32C461.263 1780.39 463.39 1815.47 463.602 1850.59C463.992 1860.37 462.096 1870.46 457.187 1878.95Z" fill="black"/>
<path d="M425.412 1873.49C421.495 1871.77 420.733 1867.32 421.158 1863.49C421.318 1853.89 421.407 1844.3 421.442 1834.69C421.584 1812.33 421.017 1789.95 420.467 1767.58C419.989 1664.12 417.472 1560.68 407.052 1457.78C399.467 1377.89 393.406 1297.88 388.603 1217.78C384.403 1162.09 380.274 1106.43 377.014 1050.68C374.657 1017.36 372.441 984.005 368.613 950.83C365.353 921.092 360.461 891.585 357.555 861.812C356.137 850.417 355.357 838.969 354.206 827.538C352.912 821.318 353.302 814.938 353.975 808.806C359.628 812.74 361.099 820.254 361.844 826.705C362.57 831.986 363.049 837.303 363.58 842.62C365.388 858.782 367.196 874.962 369.198 891.107C379.176 957.263 383.889 1024 387.966 1090.73C396.171 1192.86 402.816 1295.13 412.298 1397.16C418.784 1466.08 425.766 1534.98 428.531 1604.17C431.065 1660.81 431.366 1717.52 432.571 1774.21C433.28 1796.15 433.883 1818.07 434.149 1840.01C434.29 1848.78 434.574 1857.56 434.556 1866.35C434.84 1870.97 430.019 1875.6 425.412 1873.49Z" fill="black"/>
<path d="M443.222 1885.72C437.268 1885.7 431.224 1884.01 426.741 1879.96C424.136 1877.58 421.797 1874.13 421.974 1870.47C422.293 1868.14 423.852 1866.56 426.209 1866.27C428.619 1865.99 430.498 1868.28 432.182 1869.69C437.906 1874.39 445.313 1872.37 452.03 1872.12C455.113 1871.77 458.374 1872.74 461.369 1871.96C462.131 1874.69 459.952 1877.63 458.233 1879.53C454.369 1883.73 448.875 1885.73 443.222 1885.72Z" fill="black"/>
<path d="M421.442 1929.13C413.485 1920.52 415.133 1907.76 416.019 1897C416.746 1890.09 416.799 1883.02 418.837 1876.32C419.599 1873.77 420.893 1870.85 423.586 1869.94C426.44 1868.99 429.364 1871.63 428.743 1874.55C425.66 1883.5 426.776 1893.32 426.209 1902.66C426.511 1911.71 426.776 1921.18 421.814 1929.17C421.832 1929.42 421.478 1929.17 421.442 1929.13Z" fill="black"/>
<path d="M468.582 1925.22C464.134 1918.34 460.412 1910.7 458.871 1902.62C457.577 1895.32 457.045 1887.9 456.762 1880.51C456.673 1878.89 456.638 1877.47 457.417 1875.99C458.871 1872.78 463.266 1872.8 465.144 1875.6C467.253 1878.91 467.448 1883.04 468.316 1886.8C470.975 1899.38 473.509 1912.92 468.582 1925.22Z" fill="black"/>
<path d="M438.349 1940.17C430.675 1939.77 422.771 1936.29 419.227 1929.12C417.526 1925.5 419.121 1920.5 423.905 1922.17C427.521 1923.69 430.161 1927.1 434.397 1927.27C446.678 1928.25 460.483 1926.64 469.575 1917.65C470.851 1923.84 467.678 1929.56 463.124 1933.55C456.62 1940.05 447.05 1940.88 438.349 1940.17Z" fill="black"/>
<path d="M429.594 744.369C424.774 736.784 423.569 727.888 420.715 719.541C418.5 713.958 414.105 709.723 410.26 705.239C398.315 691.77 384.864 680.233 372.902 666.853C365.831 658.896 355.942 650.549 355.393 639.384C358.281 641.724 361.755 643.407 364.537 645.977C369.358 650.585 374.32 656.238 378.892 660.668C386.353 668.572 394.186 676.087 401.966 683.672C410.277 692.444 419.209 700.543 426.812 709.847C433.564 719.878 434.468 733.488 429.594 744.369Z" fill="black"/>
<path d="M402.143 864.471C401.877 846.784 409.941 834.255 420.893 821.247C422.204 819.989 421.92 818.11 422.08 816.462C422.381 811.5 422.7 806.555 423.196 801.611C424.242 796.915 428.814 794.309 430.728 800.246C431.402 802.196 431.029 804.376 430.941 806.378C430.693 811.287 430.835 816.214 430.267 821.087C429.913 823.232 428.797 824.933 427.556 826.51C424.667 830.161 421.903 833.918 419.315 837.799C413.201 846.713 408.399 855.929 402.143 864.471Z" fill="black"/>
<path d="M313.552 782.135C308.944 781.621 305.967 777.74 302.635 774.94C297.496 770.102 291.329 765.494 286.455 760.567C280.43 754.294 282.22 740.825 292.179 740.027C294.554 739.779 296.893 740.169 299.02 741.232C296.787 743.891 293.242 746.088 292.463 749.704C290.974 754.488 295.511 756.686 298.364 759.61C303.273 764.2 308.217 768.755 313.109 773.38C315.412 775.524 316.582 778.413 316.759 781.479C316.759 781.479 316.759 781.479 316.777 781.479C317.202 782.33 314.083 782.188 313.552 782.135Z" fill="black"/>
<path d="M367.32 656.468C361.985 656.061 359.54 650.443 356.332 646.898C353.054 642.379 349.261 638.108 346.213 633.465C344.37 629.194 350.023 625.685 353.036 629.247C354.241 631.161 355.499 633.075 356.846 634.901C360.621 640.589 365.494 645.676 368.702 651.683C369.234 653.154 369.198 654.714 368.986 656.096C368.667 656.557 367.834 656.468 367.32 656.468Z" fill="black"/>
<path d="M266.394 692.391C265.029 691.912 263.47 691.026 262.743 689.732C262.672 689.626 262.601 689.467 262.708 689.378C262.708 689.396 262.69 689.396 262.69 689.413C263.93 686.277 267.262 684.806 270.399 684.363C276.956 683.228 283.425 681.58 289.521 678.869C306.073 671.78 319.577 659.676 330.121 645.25C333.418 640.731 336.519 636.106 339.39 631.303C342.35 626.536 343.98 621.095 346.939 616.364C349.35 612.855 352.823 609.824 357.094 609.08C357.732 609.381 358.033 610.497 358.299 611.135C361.011 619.589 355.783 627.475 351.529 634.387C338.805 654.43 323.121 673.907 301.217 684.239C290.637 689.573 278.303 693.897 266.394 692.391Z" fill="black"/>
<path d="M263.027 690.034C260.209 687.995 258.455 684.805 256.222 682.183C253.209 678.177 250.515 673.269 245.411 671.745C237.631 671.142 230.046 671.284 222.355 669.99C190.119 664.762 157.883 637.789 144.397 608.371C142.837 605.057 141.685 601.619 140.427 598.216C140.445 598.127 140.622 598.305 140.675 598.305C150.972 603.604 159.85 611.313 168.25 619.057C185.6 637.966 203.428 655.582 229.993 659.64C238.659 661.359 248.619 659.871 255.495 666.481C260.138 670.025 262.477 675.502 265.862 680.109C266.925 681.811 268.361 683.317 268.999 685.231C270.098 688.775 266.305 691.93 263.027 690.034Z" fill="black"/>
<path d="M350.254 615.832C347.578 609.7 343.413 604.313 340.648 598.199C339.213 595.133 337.919 591.978 336.253 589.019C334.747 582.887 335.881 576.294 335.137 570.021C333.79 559.299 328.792 549.57 323.972 540.088C310.645 514.959 297.815 489.598 285.764 463.831C254.804 401.644 219.396 341.319 196.481 275.482C184.838 243.086 170.714 211.541 161.41 178.366C154.268 151.216 147.445 124.03 144.096 96.1536C152.886 117.19 162.81 138.172 170.04 159.917C178.458 193.234 190.97 225.205 202.719 257.441C222.284 315.604 250.373 370.082 278.338 424.506C296.964 460.021 313.357 496.634 332.16 532.06C337.512 542.445 342.881 553.061 344.831 564.686C346.302 571.456 344.795 578.385 345.593 585.173C348.889 591.819 351.919 598.606 355.446 605.146C357.13 608.708 360.302 613.227 357.289 616.877C355.304 619.039 351.441 618.614 350.254 615.832Z" fill="black"/>
<path d="M173.319 189.938C164.777 172.181 154.463 155.132 149.288 135.957C143.209 113.734 137.22 91.9534 127.898 70.9352C119.604 51.4056 110.105 30.4761 91.0364 19.3999C89.6363 18.4783 87.9883 17.6808 87.0136 16.2985C84.4262 12.8073 87.1553 9.95406 91.1604 10.9819C112.427 19.7543 124.602 40.4889 133.711 60.5324C139.86 73.2922 145.478 86.3179 149.784 99.8221C159.762 129.418 170.395 158.96 173.319 189.938Z" fill="black"/>
<path d="M399.006 818.943C396.383 809.976 389.082 796.454 395.019 787.947C395.32 787.557 395.728 787.043 396.224 786.99C396.242 787.114 396.277 787.274 396.313 787.363C403.082 796.312 400.282 808.753 399.006 818.943Z" fill="black"/>
</g>
<g id="Skin">
<path d="M420.715 719.558C422.168 723.776 423.179 728.135 424.472 732.406C415.363 727.763 406.148 734.391 394.877 733.08C392.502 733.062 390.074 731.751 387.788 732.389C380.097 728.171 370.687 726.664 362.074 727.728C348.747 730.138 345.291 747.913 344.99 759.361C344.157 772.83 357.838 799.945 348.428 810.259C344.441 812.049 340.241 809.727 337.405 806.768C337.122 806.555 336.82 806.378 336.501 806.254C336.271 805.492 336.023 804.747 335.775 804.021C334.357 799.82 332.514 795.851 330.653 791.828C324.787 779.174 318.726 766.645 312.329 754.257C299.144 728.401 292.445 711.654 289.964 689.129C293.863 687.747 297.62 686.063 301.199 684.274C321.845 674.526 336.98 656.627 349.296 637.807C351.618 640.855 354.081 643.832 356.332 646.916C357.147 647.82 357.909 648.847 358.689 649.893C362.322 656.184 368.223 661.625 372.902 666.888C384.864 680.268 398.315 691.788 410.26 705.274C414.105 709.722 418.5 713.976 420.715 719.558Z" fill="#B7B5B5"/>
<path d="M305.984 763.668C306.906 765.529 307.827 767.389 308.731 769.25C305.275 766.025 301.82 762.835 298.364 759.61C295.493 756.703 290.974 754.488 292.462 749.703C292.976 747.328 294.66 745.574 296.397 743.89C299.339 750.199 302.546 756.739 305.984 763.668Z" fill="#B7B5B5"/>
<path d="M423.214 801.61C422.7 806.555 422.399 811.499 422.098 816.461C421.938 818.127 422.222 819.988 420.91 821.246C413.91 829.54 408.097 837.639 404.89 847.014C404.447 842.973 404.092 838.933 403.827 834.857C402.887 824.1 402.054 813.325 401.044 802.585C400.956 801.451 400.814 800.246 400.53 799.112C400.335 796.932 399.928 794.805 399.201 792.767C405.049 796.4 409.267 803.329 416.958 802.94C419.209 802.78 421.3 802.319 423.214 801.61Z" fill="#B7B5B5"/>
</g>
<path id="Walking Stick" d="M454.511 1872.05C453.678 1872.02 452.845 1872.02 452.03 1872.12C445.792 1872.35 438.951 1874.11 433.422 1870.58C434.219 1869.32 434.663 1867.83 434.574 1866.35C434.574 1857.56 434.308 1848.78 434.166 1840.01C433.901 1818.07 433.298 1796.13 432.589 1774.21C431.384 1717.53 431.083 1660.82 428.548 1604.17C425.802 1534.98 418.801 1466.06 412.315 1397.16C402.834 1295.13 396.188 1192.86 387.983 1090.73C383.907 1023.99 379.211 957.263 369.216 891.107C367.213 874.98 365.423 858.8 363.598 842.619C363.066 837.303 362.588 831.986 361.861 826.705C361.33 822.08 360.426 816.887 357.874 812.882C360.461 808.859 361.702 803.507 361.4 798.297C361.028 779.175 348.446 758.866 359.823 740.789C363.74 734.587 372.104 738.981 377.882 739.318C381.302 739.69 384.492 739.921 387.788 740.045C388.267 740.293 388.798 740.47 389.366 740.577C395.143 742.579 401.416 742.756 407.442 741.976C411.73 741.622 416.657 739.106 420.485 742.118C428.105 749.101 430.445 760.549 429.505 770.527C428.726 777.828 427.751 786.583 421.07 790.978C418.181 792.98 415.044 792.963 412.687 790.198C407.654 785.165 401.983 779.21 394.239 779.778C388.036 780.15 382.117 785.254 381.054 791.403C382.277 791.527 383.624 791.474 384.9 791.421C387.629 791.332 390.606 790.978 393.495 791.066C392.449 794.203 392.644 797.765 393.388 801.416C393.424 802.249 393.495 803.1 393.619 803.915C394.026 810.454 394.416 817.472 394.859 824.49C395.586 838.597 396.472 852.703 398.386 866.704C401.611 896.459 403.773 926.409 403.49 956.341C403.933 978.813 402.923 1001.34 404.925 1023.76C405.953 1035.27 407.087 1046.76 407.938 1058.28C411.411 1119.42 416.001 1180.54 421.655 1241.54C426.457 1294.07 429.08 1346.92 432.199 1399.66C434.716 1434.25 437.551 1468.81 440.156 1503.38C446.005 1563.57 444.764 1624.1 446.217 1684.5C447.103 1719.01 448.698 1753.49 450.045 1787.98C450.772 1804.73 451.498 1821.47 451.605 1838.24C451.516 1849.62 451.179 1861.19 454.511 1872.05Z" fill="white"/>
<path id="Walking Stick Tip" d="M458.888 1902.62C460.111 1909 462.681 1915.1 465.888 1920.75C456.992 1927.02 445.118 1928.12 434.414 1927.27C430.516 1927.11 427.964 1924.21 424.756 1922.56C426.634 1916.21 426.422 1909.34 426.209 1902.67C426.652 1895.32 426.05 1887.68 427.29 1880.38C431.721 1884.12 437.533 1885.7 443.258 1885.7C448.237 1885.72 453.093 1884.17 456.815 1880.89C457.08 1888.18 457.612 1895.44 458.888 1902.62Z" fill="#949494"/>
</g>
</svg>
