<svg width="1217" height="1964" viewBox="0 0 1217 1964" fill="none" xmlns="http://www.w3.org/2000/svg">
<g id="Left Arm / White Cane">
<path id="Clothing" d="M363.971 625.829C363.546 626.396 363.192 626.981 362.961 627.566C359.523 633.807 356.316 640.19 352.009 645.9C346.445 653.488 339.303 659.711 331.948 665.527C318.976 674.818 305.649 684.445 290.018 688.665C284.719 689.942 279.297 691.112 273.82 690.704C273.626 690.332 273.413 689.977 273.2 689.64C271.074 685.669 268.965 681.679 266.076 678.204C264.304 676.059 262.319 674.144 260.104 672.548C252.483 662.123 238.838 658.701 227.673 653.329C215.64 647.052 203.66 640.368 193.275 631.556C183.439 623.311 174.596 613.347 166.054 603.453C115.99 542.461 68.0701 479.376 28.7986 410.778C21.639 398.703 14.6212 386.523 7.14258 374.643L93.944 10.9414C98.9061 13.6896 103.266 16.952 108.175 20.4803C127.545 33.654 136.919 46.668 144.859 68.5294C152.302 87.9973 159.639 108.05 165.239 128.228C174.809 159.415 187.054 189.574 197.581 220.443C209.49 259.804 226.131 297.481 242.719 335.052C250.091 350.885 257.694 366.612 264.729 382.604C266.537 386.718 268.486 390.76 270.56 394.732C271.889 397.87 273.271 400.955 274.919 403.863L274.99 403.969L275.096 404.129L275.185 404.306L275.291 404.483L275.38 404.643L275.469 404.785L275.557 404.944L275.575 404.98L275.646 405.086L275.717 405.228L275.788 405.352L275.859 405.476L275.912 405.6L275.983 405.725L276.036 405.849L276.089 405.973L276.142 406.097L276.195 406.221L276.248 406.345L276.319 406.469L276.39 406.611L276.461 406.735L276.532 406.877L276.603 407.019L276.674 407.161L276.745 407.285L276.816 407.409L276.886 407.533L276.957 407.657L277.028 407.781L277.081 407.905L277.134 408.012L277.188 408.136L277.241 408.242L277.294 408.349L277.347 408.473L277.4 408.597L277.471 408.721L277.542 408.863L277.613 409.005L277.702 409.164L277.79 409.324L277.879 409.484L277.967 409.661L278.056 409.838L278.145 410.015L278.233 410.175L278.322 410.352L278.41 410.512L278.499 410.671L278.588 410.831L278.676 410.991L278.747 411.15L278.818 411.31L278.889 411.469L278.96 411.629L279.031 411.788L279.102 411.948L279.173 412.108L279.243 412.267L279.314 412.427L279.403 412.604L279.491 412.799L279.58 412.994L279.669 413.189L279.775 413.402L279.881 413.615L279.988 413.827L280.094 414.04L280.218 414.253L280.342 414.466L280.448 414.678L280.573 414.891L280.679 415.104L280.785 415.317L280.874 415.512L280.98 415.707L281.069 415.902L281.157 416.097L281.246 416.292L281.335 416.505L281.423 416.717L281.512 416.93L281.618 417.161L281.724 417.391L281.849 417.639L281.973 417.888L282.097 418.154L282.221 418.419L282.363 418.685L282.504 418.969L282.646 419.253L282.788 419.519L282.93 419.785L283.071 420.051L283.195 420.317L283.319 420.565L283.444 420.813L283.568 421.061L283.692 421.292L283.816 421.54L283.922 421.771L284.046 422.019L284.152 422.267L284.276 422.515L284.4 422.781L284.525 423.047L284.648 423.313L284.773 423.597L284.914 423.881L285.056 424.164L285.198 424.466L285.34 424.767L285.481 425.051L285.623 425.334L285.765 425.618L285.907 425.902L286.031 426.168L286.155 426.434L286.279 426.682L286.403 426.93L286.527 427.178L286.651 427.409L286.775 427.657L286.899 427.888L287.006 428.136L287.13 428.384L287.254 428.632L287.378 428.88L287.502 429.129L287.626 429.377L287.75 429.625L287.874 429.891L288.016 430.157L288.14 430.423L288.282 430.689L288.423 430.955L288.565 431.221L288.689 431.469L288.831 431.717L288.955 431.965L289.079 432.214L289.203 432.444L289.327 432.675L289.434 432.887L289.54 433.1L289.646 433.313L289.752 433.526L289.841 433.738L289.947 433.951L290.036 434.164L290.142 434.377L290.249 434.59L290.355 434.82L290.479 435.051L290.585 435.299L290.709 435.529L290.816 435.777L290.94 436.008L291.064 436.239L291.188 436.451L291.312 436.664L291.418 436.859L291.525 437.054L291.631 437.249L291.72 437.427L291.808 437.622L291.897 437.799L291.985 437.994L292.074 438.189L292.163 438.384L292.251 438.579L292.34 438.774L292.428 438.969L292.517 439.164L292.606 439.359L292.712 439.572L292.818 439.785L292.925 439.997L293.031 440.192L293.137 440.405L293.244 440.618L293.35 440.831L293.456 441.026L293.563 441.238L293.669 441.434L293.775 441.646L293.882 441.841L293.988 442.054L294.077 442.267L294.183 442.462L294.289 442.657L294.378 442.852L294.484 443.047L294.573 443.242L294.679 443.437L294.785 443.65L294.892 443.863L294.998 444.075L295.104 444.288L295.211 444.501L295.317 444.714L295.424 444.926L295.53 445.139L295.636 445.352C295.831 445.689 296.008 446.043 296.185 446.38C309.884 470.564 326.419 492.745 338.275 518.046C346.586 533.596 353.551 550.085 354.933 567.851C355.731 575.634 355.784 583.506 355.89 591.326C356.333 594.854 354.862 600.031 355.89 603.755C355.766 611.733 358.956 619.552 363.971 625.829Z" fill="white"/>
<g id="Skin">
<path d="M433.547 773.415C433.636 774 433.707 774.621 433.813 775.259C433.175 775.702 432.573 776.216 432.041 776.819C418.484 778.255 411.98 773.681 406.486 762.848C397.909 748.539 395.711 727.777 378.61 720.969C362.306 713.167 346.108 708.114 336.875 691.501C335.014 688.079 331.594 686.466 328.422 684.533C324.346 692.317 331.399 700.171 334.748 705.951C340.331 714.036 348.571 718.77 357.255 723.008C357.822 724.887 360.303 725.862 361.809 727.192C364.45 729.887 366.488 733.238 367.374 737.086C369.217 746.483 367.746 756.536 368.278 766.181C368.243 767.067 368.242 768.025 368.366 768.965C366.452 769.479 364.804 771.748 364.397 773.592C363.28 779.603 362.075 785.631 361.615 791.606C358.301 790.312 354.933 789.071 351.655 787.812C349.67 787.156 347.916 786.003 346.959 784.142C344.407 779.266 345.293 773.113 345.381 767.493C345.665 762.546 345.984 757.546 346.427 752.564C347.969 746.89 343.804 740.348 339.533 748.185C337.725 755.561 336.857 763.114 336.201 770.56C334.039 771.075 331.948 772.245 329.751 772.121C322.822 769.408 320.358 760.419 321.705 752.865C322.13 751.199 321.953 749.603 321.262 748.539C321.457 746.855 321.545 745.188 321.864 743.894C323.158 736.713 324.966 729.532 327.145 722.423C328.067 719.621 328.067 715.525 331.275 714.178C334.5 715.313 337.371 717.511 340.49 718.735C338.842 712.44 335.28 702.37 326.685 707.937C322.821 710.455 320.996 715.064 319.951 719.213C318.692 724.089 317.079 728.877 316.052 733.77C315.803 735.472 315.006 738.734 314.368 742.245C312.667 741.27 311.107 740.153 309.725 738.539C299.73 728.841 294.236 715.242 289.522 701.643C289.079 700.49 288.831 699.231 288.477 698.026C316.158 692.547 350.981 666.625 363.865 647.051C364.999 645.313 366.134 643.576 367.179 641.785C373.914 649.072 381.357 655.703 388.392 662.742C394.666 668.15 400.833 673.948 405.086 681.253C409.765 689.232 410.438 699.958 412.6 709.16C413.929 715.721 416.003 721.979 418.165 728.185C420.699 736.625 422.719 745.277 425.892 753.451C428.178 760.277 431.35 766.482 433.547 773.415Z" fill="#B7B5B5"/>
<path d="M390.714 808.787C390.005 813.255 390.341 818.609 393.372 821.588C381.392 820.258 372.903 816.322 372.283 803.202C371.911 796.642 372.088 789.993 372.372 783.326C372.212 781.216 372.744 778.397 372.886 775.773C373.559 775.684 374.232 775.489 374.87 775.206C377.511 774.851 380.169 775.507 382.207 776.908C390.359 784.55 390.66 797.617 390.714 808.787Z" fill="#B7B5B5"/>
<path d="M456.923 821.624C457.277 824.053 457.649 826.464 458.004 828.893C452.971 821.393 448.132 813.769 443.241 806.198C439.342 799.567 434.912 793.238 428.78 788.681C431.315 788.61 433.902 788.273 436.294 787.05C439.059 785.312 441.504 783.22 442.55 780.028C444.872 778.043 445.846 774.16 444.996 771.341C442.621 761.447 437.499 753.894 434.061 744.071C430.801 735.171 428.231 725.454 425.732 715.845C428.638 721.022 431.686 726.11 434.788 731.164C439.059 739.39 445.191 746.784 447.725 755.951C450.667 777.972 453.857 799.815 456.923 821.624Z" fill="#B7B5B5"/>
</g>
<g id="Cane White">
<path d="M982.498 1627.5C988.223 1635.82 993.929 1644.12 999.653 1652.43C999.334 1652.8 999.051 1653.18 998.732 1653.53C998.59 1653.69 998.448 1653.83 998.289 1653.97C998.271 1653.99 998.253 1654.01 998.218 1654.03C998.147 1654.1 998.076 1654.15 998.005 1654.2C997.916 1654.27 997.81 1654.35 997.704 1654.4C997.633 1654.43 997.58 1654.47 997.509 1654.51C997.473 1654.52 997.438 1654.54 997.42 1654.56C997.208 1654.65 996.995 1654.74 996.747 1654.77C996.127 1654.9 995.524 1654.98 994.904 1654.98C994.744 1654.91 994.602 1654.86 994.443 1654.81C994.266 1654.75 994.088 1654.7 993.929 1654.68C993.823 1654.65 993.716 1654.63 993.61 1654.63C993.575 1654.61 993.539 1654.61 993.521 1654.61C993.521 1654.61 993.521 1654.61 993.504 1654.61C993.344 1654.59 993.185 1654.58 993.025 1654.58C987.407 1646.58 981.79 1638.58 976.154 1630.59C954.977 1600.53 933.994 1570.37 912.834 1540.32C891.39 1509.86 870.142 1479.24 848.681 1448.8C836.79 1431.92 824.952 1415 813.131 1398.07C813.698 1397.79 814.247 1397.47 814.815 1397.11C815.009 1396.99 815.187 1396.88 815.364 1396.74C815.452 1396.69 815.523 1396.64 815.612 1396.56C816.321 1396.07 817.012 1395.52 817.65 1394.92C817.934 1394.67 818.199 1394.4 818.465 1394.14C818.997 1393.6 819.493 1393.04 819.954 1392.45C830.622 1407.84 841.291 1423.21 851.942 1438.62C873.828 1470.25 895.715 1501.9 917.601 1533.55C939.257 1564.84 960.913 1596.14 982.498 1627.5Z" fill="white"/>
<path d="M611.74 1092.45C611.669 1092.6 611.599 1092.74 611.528 1092.88C611.492 1092.95 611.457 1093 611.421 1093.07C611.35 1093.2 611.262 1093.32 611.173 1093.45C609.277 1095.65 606.282 1096.83 603.411 1097.08C603.251 1097.01 603.074 1096.94 602.897 1096.9C599.406 1091.89 595.915 1086.87 592.424 1081.87C582.606 1067.76 572.77 1053.62 562.917 1039.53C558.344 1032.99 553.701 1026.51 549.111 1019.99C547.18 1017.24 545.266 1014.48 543.316 1011.76C544.078 1011.43 544.84 1011.05 545.567 1010.63C545.797 1010.5 546.01 1010.36 546.24 1010.22C546.949 1009.8 547.64 1009.32 548.296 1008.8C548.509 1008.64 548.739 1008.45 548.97 1008.27C549.218 1008.08 549.448 1007.86 549.696 1007.65C550.175 1007.22 550.618 1006.8 551.061 1006.34C551.22 1006.18 551.344 1006.04 551.486 1005.88C551.522 1005.95 551.575 1006 551.61 1006.05C553.559 1008.86 555.509 1011.64 557.458 1014.44C561.41 1020.11 565.362 1025.77 569.314 1031.44C577.697 1043.5 586.061 1055.56 594.462 1067.6C600.239 1075.91 605.998 1084.19 611.74 1092.45Z" fill="white"/>
</g>
<g id="Cane Red">
<path d="M1158.23 1883.17C1158.07 1883.28 1157.93 1883.39 1157.79 1883.49C1157.64 1883.6 1157.48 1883.69 1157.34 1883.79C1156.72 1884.2 1156.08 1884.59 1155.41 1884.93C1155.09 1885.09 1154.76 1885.25 1154.44 1885.41C1154.4 1885.28 1154.37 1885.18 1154.31 1885.07C1154.26 1884.93 1154.21 1884.8 1154.15 1884.68C1153.83 1883.97 1153.37 1883.28 1152.93 1882.62C1152.45 1881.91 1151.99 1881.12 1151.42 1880.42C1151.07 1879.91 1150.72 1879.41 1150.36 1878.9C1149.23 1877.34 1147.77 1875.19 1146.27 1873.07C1139.67 1863.85 1133.22 1854.54 1126.77 1845.21C1122.25 1838.67 1117.68 1832.16 1113.11 1825.66C1107.99 1818.35 1102.9 1811.01 1097.78 1803.71C1078.07 1775.62 1058.3 1747.61 1038.66 1719.49C1028.49 1704.91 1018.19 1690.43 1007.98 1675.87C1005.2 1671.92 1002.42 1667.94 999.654 1663.97C999.902 1663.9 1000.15 1663.81 1000.38 1663.72C1000.45 1663.71 1000.5 1663.69 1000.56 1663.65C1000.79 1663.57 1001.02 1663.48 1001.25 1663.37C1001.5 1663.28 1001.73 1663.16 1001.96 1663.05C1002.19 1662.94 1002.44 1662.82 1002.65 1662.7C1002.76 1662.64 1002.86 1662.57 1002.97 1662.52C1002.99 1662.52 1003.02 1662.5 1003.04 1662.48C1003.2 1662.4 1003.34 1662.31 1003.48 1662.22C1004.17 1661.77 1004.83 1661.3 1005.41 1660.78C1018.83 1680.27 1032.23 1699.75 1045.61 1719.27C1055.99 1734.43 1066.39 1749.61 1076.8 1764.77C1086.51 1778.92 1096.11 1793.12 1105.83 1807.27C1114.44 1819.82 1123.07 1832.38 1131.81 1844.82C1136.56 1851.58 1141.32 1858.35 1146.02 1865.14C1148.29 1868.4 1150.52 1871.7 1152.75 1874.98C1153.69 1876.35 1154.61 1877.73 1155.55 1879.1C1155.96 1879.68 1156.39 1880.28 1156.76 1880.9C1156.86 1881.15 1156.99 1881.38 1157.13 1881.61C1157.47 1882.16 1157.86 1882.68 1158.23 1883.17Z" fill="#B7B5B5"/>
<path d="M786.957 1344.9C795.96 1357.86 804.962 1370.82 813.965 1383.8C813.859 1383.99 813.752 1384.17 813.681 1384.38C813.646 1384.56 813.593 1384.74 813.54 1384.92C813.292 1385.78 812.866 1386.62 812.352 1387.38C812.264 1387.5 812.175 1387.63 812.086 1387.73C811.856 1388.04 811.608 1388.32 811.342 1388.59C811.271 1388.66 811.2 1388.73 811.13 1388.78C810.917 1388.99 810.686 1389.19 810.456 1389.38C810.314 1389.51 810.173 1389.61 810.013 1389.72C809.854 1389.83 809.712 1389.93 809.552 1390.02C809.393 1390.13 809.215 1390.23 809.038 1390.32C808.879 1390.41 808.737 1390.48 808.577 1390.55C808.418 1390.62 808.241 1390.7 808.063 1390.77C799.876 1379.03 791.671 1367.27 783.448 1355.55C761.774 1324.63 740.171 1293.68 718.568 1262.7C697.408 1232.36 676.178 1202.06 655.036 1171.71C639.529 1149.44 624.005 1127.19 608.498 1104.92C608.622 1104.88 608.764 1104.85 608.906 1104.83C609.065 1104.79 609.225 1104.76 609.366 1104.71C610.607 1104.37 611.83 1103.89 612.982 1103.3C613.159 1103.22 613.336 1103.13 613.496 1103.02C613.815 1102.86 614.116 1102.67 614.417 1102.49C614.541 1102.4 614.683 1102.33 614.807 1102.24C615.658 1101.67 616.473 1101.02 617.182 1100.31C630.597 1119.67 644.013 1139.05 657.463 1158.41C679.013 1189.44 700.528 1220.5 722.077 1251.51C743.716 1282.65 765.336 1313.76 786.957 1344.9Z" fill="#B7B5B5"/>
</g>
<g id="Outline">
<path d="M384.156 767.139C384.369 767.209 384.599 767.28 384.812 767.351C384.599 767.28 384.386 767.209 384.156 767.139C383.766 767.014 383.376 766.908 382.986 766.819C383.376 766.926 383.766 767.014 384.156 767.139ZM386.531 768.114C386.779 768.238 387.045 768.38 387.293 768.522C387.045 768.38 386.796 768.238 386.531 768.114ZM388.197 769.071C388.427 769.231 388.675 769.39 388.888 769.55C388.657 769.39 388.427 769.213 388.197 769.071ZM391.9 821.411C392.379 821.482 392.875 821.535 393.371 821.588C393.229 821.446 393.088 821.305 392.964 821.145C392.857 821.021 392.751 820.897 392.663 820.773C392.503 820.578 392.344 820.365 392.219 820.134C392.131 820.01 392.06 819.886 391.989 819.744C391.918 819.656 391.865 819.549 391.812 819.425C391.705 819.212 391.599 819 391.511 818.769C391.457 818.645 391.404 818.503 391.351 818.361C391.298 818.237 391.245 818.096 391.209 817.971C391.103 817.688 391.014 817.386 390.943 817.085C390.908 816.961 390.873 816.819 390.855 816.677C390.819 816.535 390.784 816.393 390.766 816.234C390.642 815.613 390.553 814.975 390.5 814.319C390.465 814.053 390.465 813.787 390.447 813.521C390.447 813.362 390.43 813.22 390.43 813.06C390.394 811.606 390.518 810.135 390.731 808.752C390.678 797.581 390.376 784.497 382.207 776.89C380.169 775.49 377.51 774.834 374.87 775.188C374.746 775.241 374.622 775.294 374.48 775.348C374.391 775.383 374.285 775.419 374.196 775.436C374.09 775.472 373.984 775.507 373.877 775.543C373.558 775.631 373.222 775.702 372.903 775.738C372.885 775.933 372.885 776.11 372.867 776.305C372.849 776.607 372.814 776.908 372.796 777.192C372.761 777.529 372.725 777.865 372.708 778.202C372.708 778.255 372.708 778.291 372.69 778.344C372.655 778.628 372.619 778.912 372.601 779.195C372.584 779.355 372.566 779.514 372.548 779.692C372.53 779.851 372.513 780.011 372.495 780.17C372.46 780.419 372.442 780.649 372.424 780.897C372.389 781.447 372.353 781.961 372.353 782.458C372.353 782.741 372.353 783.025 372.389 783.291C372.105 789.957 371.928 796.606 372.3 803.166C372.353 804.408 372.495 805.542 372.672 806.624C372.725 806.908 372.779 807.191 372.849 807.457C372.867 807.546 372.885 807.635 372.903 807.723C372.974 808.06 373.062 808.397 373.151 808.698C373.452 809.762 373.842 810.755 374.303 811.659C374.533 812.138 374.799 812.581 375.082 813.025C376.996 816.003 379.814 817.989 383.305 819.336C383.5 819.425 383.713 819.496 383.908 819.549C384.457 819.745 385.024 819.939 385.609 820.099C385.804 820.17 386.017 820.223 386.212 820.276C387.116 820.524 388.073 820.737 389.047 820.914C389.366 820.985 389.685 821.039 390.022 821.092C390.394 821.163 390.784 821.216 391.174 821.269C391.404 821.358 391.652 821.376 391.9 821.411ZM433.83 775.241C433.813 775.099 433.795 774.975 433.759 774.833C433.724 774.567 433.689 774.302 433.635 774.036C433.6 773.823 433.564 773.61 433.547 773.397C431.331 766.465 428.159 760.259 425.891 753.38C422.719 745.206 420.698 736.554 418.164 728.114C416.02 721.908 413.929 715.65 412.6 709.089C410.42 699.87 409.746 689.143 405.086 681.182C400.85 673.877 394.665 668.079 388.392 662.671C386.371 660.65 384.316 658.682 382.26 656.696C381.746 656.2 381.232 655.703 380.718 655.207C377.457 652.069 374.178 648.931 371.006 645.704C370.581 645.278 370.156 644.835 369.73 644.409C369.305 643.966 368.88 643.523 368.454 643.062C368.029 642.619 367.604 642.158 367.179 641.697C366.133 643.487 365.016 645.243 363.865 646.962C363.156 648.044 362.376 649.143 361.525 650.278C361.312 650.562 361.1 650.845 360.869 651.129C360.586 651.501 360.285 651.874 359.983 652.246C359.771 652.512 359.558 652.778 359.328 653.044C356.262 656.75 352.576 660.597 348.446 664.374C347.738 665.03 347.029 665.668 346.302 666.306C345.788 666.749 345.257 667.211 344.725 667.672C344.353 667.991 343.981 668.31 343.591 668.629C340.064 671.59 336.307 674.498 332.391 677.264C331.912 677.601 331.434 677.937 330.955 678.256C329.874 679.019 328.775 679.746 327.659 680.473C327.269 680.721 326.879 680.987 326.489 681.235C326.294 681.359 326.099 681.483 325.904 681.607C325.621 681.803 325.32 681.98 325.036 682.157C317.504 686.891 309.6 690.987 301.891 693.948C300.97 694.302 300.066 694.639 299.162 694.958C298.701 695.118 298.258 695.278 297.798 695.419C297.479 695.526 297.159 695.632 296.823 695.739C296.539 695.827 296.256 695.916 295.99 696.005C294.909 696.341 293.828 696.643 292.765 696.927C292.339 697.033 291.914 697.139 291.471 697.246C290.461 697.494 289.468 697.724 288.494 697.919C288.813 698.965 289.043 700.065 289.397 701.093C289.451 701.235 289.486 701.377 289.557 701.536C294.271 715.153 299.765 728.735 309.76 738.433C309.919 738.628 310.097 738.805 310.256 738.983C310.788 739.55 311.355 740.064 311.957 740.525C312.152 740.685 312.347 740.827 312.542 740.969C313.145 741.394 313.747 741.784 314.385 742.139C314.474 741.696 314.545 741.252 314.633 740.809C314.704 740.437 314.775 740.064 314.846 739.71C314.988 739.036 315.112 738.398 315.254 737.777C315.289 737.582 315.324 737.405 315.377 737.227C315.608 736.128 315.821 735.153 315.945 734.373C315.962 734.249 315.98 734.142 315.998 734.036C316.033 733.912 316.051 733.788 316.069 733.664C317.097 728.788 318.727 723.983 319.968 719.107C321.013 714.941 322.838 710.348 326.702 707.831C335.297 702.263 338.841 712.334 340.507 718.628C337.406 717.405 334.517 715.224 331.292 714.072C328.084 715.419 328.066 719.515 327.163 722.316C324.983 729.444 323.175 736.607 321.881 743.788C321.846 743.912 321.811 744.036 321.793 744.16C321.758 744.284 321.74 744.408 321.722 744.55C321.687 744.674 321.669 744.816 321.651 744.958C321.633 745.1 321.616 745.242 321.58 745.383C321.545 745.667 321.509 745.969 321.474 746.27C321.403 746.961 321.332 747.671 321.261 748.398C321.332 748.486 321.385 748.593 321.438 748.699C321.474 748.77 321.509 748.859 321.545 748.929C321.58 749 321.616 749.071 321.633 749.142C321.669 749.213 321.687 749.284 321.704 749.355C321.722 749.39 321.74 749.444 321.74 749.479C321.775 749.586 321.793 749.692 321.811 749.798C321.828 749.869 321.846 749.94 321.846 750.011C321.846 750.082 321.864 750.153 321.881 750.224C321.97 750.986 321.917 751.855 321.687 752.724C320.322 760.259 322.803 769.248 329.732 771.979C330.14 771.997 330.547 771.979 330.937 771.926C331.026 771.926 331.097 771.908 331.185 771.89C331.309 771.873 331.433 771.855 331.558 771.819C331.717 771.784 331.894 771.748 332.054 771.695C332.408 771.606 332.78 771.5 333.135 771.376C333.383 771.287 333.649 771.199 333.897 771.128C334.11 771.057 334.304 770.986 334.517 770.915C334.942 770.773 335.368 770.631 335.793 770.525C335.917 770.49 336.041 770.454 336.165 770.436C336.449 767.263 336.768 764.071 337.175 760.88C337.229 760.419 337.299 759.958 337.353 759.514C337.494 758.486 337.654 757.458 337.813 756.429C337.849 756.146 337.902 755.844 337.955 755.561C338.008 755.241 338.062 754.94 338.115 754.621C338.221 753.983 338.345 753.327 338.469 752.688C338.522 752.369 338.593 752.05 338.664 751.713C338.735 751.43 338.788 751.146 338.841 750.88C338.93 750.472 339.018 750.064 339.107 749.656C339.231 749.125 339.355 748.593 339.479 748.078C343.75 740.242 347.915 746.784 346.373 752.458C345.93 757.44 345.611 762.422 345.327 767.387C345.239 773.007 344.37 779.16 346.905 784.036C347.862 785.915 349.616 787.05 351.601 787.706C354.064 788.663 356.581 789.585 359.062 790.542C359.895 790.862 360.728 791.181 361.561 791.5C361.561 791.482 361.561 791.482 361.561 791.464C361.596 791.11 361.632 790.738 361.649 790.383C361.72 789.638 361.791 788.876 361.88 788.131C361.968 787.369 362.075 786.624 362.163 785.879C362.269 785.117 362.376 784.372 362.5 783.628C362.73 782.121 362.996 780.614 363.28 779.124C363.404 778.38 363.563 777.617 363.687 776.872C363.776 776.429 363.847 775.986 363.935 775.543C364.059 774.851 364.184 774.177 364.308 773.486C364.343 773.362 364.378 773.22 364.414 773.078C364.449 772.99 364.485 772.883 364.52 772.777C364.556 772.653 364.609 772.529 364.662 772.422C364.715 772.298 364.768 772.174 364.821 772.068C364.892 771.926 364.963 771.802 365.034 771.66C365.087 771.571 365.158 771.465 365.211 771.376C365.513 770.897 365.885 770.454 366.275 770.082C366.363 770.011 366.434 769.922 366.523 769.851C366.736 769.656 366.983 769.479 367.214 769.337C367.32 769.266 367.427 769.213 367.551 769.142C367.657 769.089 367.781 769.036 367.905 768.983C368.029 768.929 368.135 768.894 368.26 768.858C368.153 767.919 368.135 766.961 368.171 766.075C367.639 756.447 369.11 746.394 367.267 736.979C366.381 733.132 364.343 729.781 361.702 727.086C361.171 726.607 360.515 726.199 359.859 725.756C359.789 725.721 359.735 725.667 359.665 725.632C359.31 725.401 358.973 725.153 358.654 724.905C358.583 724.852 358.512 724.781 358.442 724.728C358.353 724.657 358.282 724.586 358.211 724.515C358.193 724.497 358.176 724.479 358.158 724.462C358.069 724.373 357.998 724.302 357.91 724.214C357.733 724.018 357.573 723.806 357.449 723.593C357.378 723.486 357.325 723.38 357.29 723.274C357.236 723.15 357.201 723.043 357.166 722.919C355.163 721.944 353.196 720.933 351.264 719.869C351.052 719.745 350.839 719.639 350.626 719.515C347.649 717.831 344.796 716.004 342.173 713.877C341.978 713.717 341.783 713.557 341.588 713.398C341.393 713.238 341.198 713.061 341.003 712.884C340.649 712.582 340.312 712.263 339.958 711.944C339.763 711.767 339.586 711.589 339.391 711.412C339.16 711.199 338.948 710.969 338.717 710.756C338.558 710.596 338.416 710.455 338.274 710.295C338.061 710.065 337.849 709.852 337.636 709.604C337.459 709.409 337.299 709.231 337.122 709.036C337.104 709.018 337.104 709.018 337.087 709.001C336.927 708.806 336.75 708.611 336.591 708.416C336.289 708.061 336.006 707.707 335.722 707.334C335.598 707.175 335.456 706.997 335.332 706.82C335.102 706.501 334.872 706.182 334.641 705.862C331.274 700.065 324.221 692.228 328.314 684.444C331.487 686.377 334.889 687.99 336.768 691.412C346.001 708.026 362.216 713.097 378.503 720.88C395.587 727.689 397.802 748.451 406.379 762.759C411.873 773.592 418.377 778.167 431.934 776.731C432.058 776.589 432.2 776.447 432.341 776.305C432.483 776.163 432.625 776.039 432.767 775.897C432.785 775.879 432.785 775.88 432.802 775.862C432.926 775.756 433.051 775.649 433.175 775.543C433.21 775.507 433.245 775.489 433.263 775.472C433.547 775.436 433.689 775.348 433.83 775.241ZM458.003 828.875C457.808 827.563 457.613 826.251 457.418 824.939C457.258 823.84 457.081 822.723 456.922 821.606C453.856 799.798 450.648 777.954 447.724 755.951C445.19 746.802 439.058 739.408 434.787 731.164C432.324 727.121 429.878 723.079 427.503 718.965C426.901 717.937 426.316 716.908 425.731 715.862C427.344 722.121 429.01 728.433 430.871 734.515C431.048 735.118 431.243 735.72 431.438 736.323C431.526 736.642 431.633 736.944 431.721 737.245C431.934 737.919 432.164 738.61 432.395 739.267C432.661 740.082 432.927 740.88 433.21 741.678C433.494 742.476 433.777 743.273 434.061 744.054C437.499 753.858 442.638 761.412 444.995 771.323C445.19 771.997 445.296 772.741 445.296 773.504C445.296 773.646 445.296 773.805 445.279 773.947C445.279 774.107 445.261 774.248 445.243 774.408C445.243 774.568 445.208 774.709 445.19 774.869C445.172 774.993 445.155 775.117 445.119 775.241C445.119 775.312 445.101 775.365 445.084 775.419C445.066 775.543 445.03 775.667 444.995 775.773C444.959 775.933 444.924 776.075 444.871 776.216C444.782 776.518 444.676 776.802 444.552 777.085C444.499 777.227 444.428 777.369 444.357 777.511C444.304 777.635 444.233 777.759 444.162 777.883C444.162 777.919 444.144 777.936 444.127 777.954C444.056 778.078 443.985 778.202 443.914 778.309C443.843 778.451 443.754 778.575 443.666 778.699C443.506 778.947 443.311 779.177 443.117 779.39C442.922 779.603 442.709 779.816 442.496 780.011C442.425 780.206 442.355 780.401 442.284 780.596C442.213 780.755 442.16 780.915 442.071 781.075C442.053 781.128 442.035 781.163 442 781.216C441.929 781.376 441.841 781.535 441.752 781.695C441.681 781.837 441.592 781.979 441.522 782.103C441.451 782.209 441.397 782.316 441.327 782.404C441.309 782.44 441.291 782.458 441.273 782.475C441.185 782.599 441.096 782.723 441.008 782.848C440.742 783.22 440.44 783.574 440.121 783.929C439.997 784.071 439.856 784.213 439.714 784.355C439.572 784.496 439.413 784.638 439.271 784.78C439.164 784.869 439.058 784.975 438.952 785.064C438.863 785.135 438.792 785.206 438.704 785.277C438.42 785.507 438.119 785.738 437.818 785.968C437.729 786.039 437.623 786.11 437.534 786.181C437.445 786.252 437.339 786.305 437.25 786.376C436.914 786.606 436.577 786.837 436.24 787.05C436.063 787.138 435.886 787.227 435.726 787.298C435.39 787.457 435.035 787.599 434.681 787.723C433.99 787.972 433.263 788.167 432.554 788.291C432.271 788.344 431.97 788.397 431.668 788.433C431.473 788.468 431.278 788.504 431.066 788.521C430.924 788.539 430.782 788.557 430.64 788.557C430.481 788.574 430.321 788.592 430.162 788.592C429.86 788.61 429.559 788.628 429.24 788.645C429.081 788.645 428.904 788.663 428.726 788.663C429.099 788.947 429.488 789.231 429.843 789.532C430.587 790.135 431.296 790.755 431.987 791.394C432.235 791.642 432.501 791.872 432.749 792.12C432.767 792.138 432.785 792.156 432.82 792.191C432.997 792.351 433.175 792.528 433.334 792.706C433.618 792.989 433.901 793.273 434.167 793.574C434.38 793.805 434.592 794.036 434.805 794.266C435.496 795.028 436.152 795.826 436.79 796.624C437.091 796.996 437.375 797.369 437.658 797.741C437.942 798.113 438.225 798.504 438.509 798.894C438.722 799.177 438.916 799.479 439.129 799.762C440.565 801.819 441.911 803.964 443.187 806.145C443.808 807.12 444.446 808.078 445.066 809.053C446.129 810.702 447.193 812.333 448.238 813.982C450.932 818.166 453.626 822.333 456.372 826.482C456.957 827.315 457.471 828.095 458.003 828.875ZM546.612 992.225C546.718 991.906 546.825 991.569 546.949 991.25C546.825 991.569 546.718 991.888 546.612 992.225ZM611.527 1092.88C611.598 1092.74 611.669 1092.6 611.74 1092.45C605.98 1084.17 600.238 1075.89 594.479 1067.63C586.096 1055.59 577.714 1043.54 569.331 1031.48C565.379 1025.81 561.427 1020.13 557.475 1014.48C555.526 1011.68 553.577 1008.89 551.627 1006.09C551.592 1006.02 551.539 1005.97 551.503 1005.91C551.361 1006.07 551.219 1006.21 551.078 1006.37C550.635 1006.83 550.174 1007.26 549.713 1007.69C549.483 1007.9 549.235 1008.09 548.987 1008.31C548.774 1008.48 548.544 1008.66 548.313 1008.84C547.658 1009.35 546.966 1009.81 546.257 1010.26C546.045 1010.4 545.814 1010.52 545.584 1010.66C544.857 1011.07 544.095 1011.46 543.333 1011.8C545.283 1014.53 547.197 1017.28 549.128 1020.03C553.718 1026.55 558.362 1033.02 562.934 1039.56C572.787 1053.66 582.623 1067.77 592.441 1081.9C595.932 1086.92 599.423 1091.94 602.914 1096.94C603.091 1096.98 603.269 1097.05 603.428 1097.12C606.281 1096.87 609.276 1095.68 611.19 1093.48C611.279 1093.36 611.367 1093.23 611.438 1093.11C611.456 1093.02 611.492 1092.95 611.527 1092.88ZM813.963 1383.8C804.961 1370.82 795.958 1357.86 786.955 1344.9C765.335 1313.78 743.714 1282.65 722.093 1251.55C700.526 1220.52 679.012 1189.47 657.48 1158.45C644.029 1139.09 630.631 1119.71 617.198 1100.34C616.471 1101.05 615.674 1101.69 614.823 1102.28C614.699 1102.37 614.557 1102.45 614.433 1102.53C614.132 1102.72 613.831 1102.9 613.512 1103.06C613.335 1103.15 613.157 1103.25 612.998 1103.34C611.846 1103.93 610.623 1104.4 609.383 1104.74C609.223 1104.79 609.081 1104.83 608.922 1104.87C608.798 1104.9 608.656 1104.94 608.514 1104.95C624.021 1127.22 639.545 1149.47 655.052 1171.74C676.194 1202.1 697.425 1232.38 718.584 1262.74C740.187 1293.69 761.79 1324.67 783.464 1355.59C791.687 1367.31 799.892 1379.06 808.08 1390.8C808.257 1390.73 808.416 1390.68 808.594 1390.59C808.753 1390.52 808.913 1390.45 809.054 1390.36C809.232 1390.27 809.409 1390.16 809.568 1390.06C809.728 1389.97 809.887 1389.86 810.029 1389.76C810.189 1389.65 810.33 1389.54 810.472 1389.42C810.703 1389.22 810.933 1389.05 811.145 1388.82C811.216 1388.75 811.287 1388.69 811.358 1388.62C811.624 1388.36 811.872 1388.07 812.102 1387.77C812.191 1387.65 812.28 1387.54 812.368 1387.42C812.9 1386.65 813.308 1385.82 813.556 1384.95C813.609 1384.77 813.644 1384.6 813.698 1384.42C813.751 1384.17 813.839 1383.98 813.963 1383.8ZM999.635 1652.43C993.911 1644.12 988.204 1635.82 982.48 1627.5C960.895 1596.14 939.239 1564.84 917.601 1533.51C895.732 1501.87 873.828 1470.22 851.941 1438.59C841.29 1423.2 830.622 1407.81 819.953 1392.42C819.51 1392.98 818.996 1393.55 818.465 1394.1C818.199 1394.37 817.933 1394.63 817.649 1394.88C816.994 1395.48 816.32 1396.03 815.611 1396.53C815.523 1396.6 815.452 1396.65 815.363 1396.71C815.186 1396.83 814.991 1396.95 814.814 1397.08C814.265 1397.43 813.698 1397.77 813.13 1398.04C824.951 1414.97 836.789 1431.88 848.68 1448.76C870.141 1479.22 891.39 1509.83 912.833 1540.29C933.993 1570.34 954.976 1600.52 976.154 1630.55C981.789 1638.55 987.407 1646.54 993.025 1654.54C993.184 1654.54 993.344 1654.56 993.503 1654.58H993.521C993.556 1654.58 993.592 1654.58 993.609 1654.59C993.716 1654.59 993.822 1654.63 993.928 1654.65C994.106 1654.68 994.283 1654.72 994.442 1654.77C994.602 1654.82 994.761 1654.88 994.903 1654.95C995.523 1654.95 996.144 1654.86 996.746 1654.74C996.994 1654.68 997.225 1654.61 997.42 1654.52C997.455 1654.51 997.49 1654.49 997.508 1654.47C997.579 1654.43 997.632 1654.4 997.703 1654.36C997.809 1654.29 997.898 1654.24 998.004 1654.17C998.075 1654.12 998.146 1654.06 998.217 1653.99C998.235 1653.97 998.253 1653.96 998.288 1653.94C998.448 1653.8 998.589 1653.65 998.731 1653.49C999.032 1653.18 999.334 1652.8 999.635 1652.43ZM1155.04 1894.88C1154.81 1894.96 1154.56 1895.03 1154.31 1895.12C1154.56 1895.05 1154.81 1894.98 1155.04 1894.88ZM1157.77 1883.51C1157.93 1883.4 1158.07 1883.3 1158.21 1883.19C1157.84 1882.68 1157.45 1882.18 1157.13 1881.65C1156.99 1881.44 1156.86 1881.19 1156.76 1880.94C1156.38 1880.32 1155.94 1879.73 1155.55 1879.13C1154.61 1877.77 1153.69 1876.38 1152.75 1875.02C1150.52 1871.72 1148.29 1868.44 1146.02 1865.18C1141.32 1858.37 1136.55 1851.61 1131.8 1844.86C1123.05 1832.41 1114.44 1819.86 1105.82 1807.31C1096.11 1793.16 1086.51 1778.95 1076.8 1764.81C1066.39 1749.65 1055.99 1734.49 1045.61 1719.31C1032.23 1699.79 1018.83 1680.3 1005.41 1660.82C1004.83 1661.33 1004.17 1661.81 1003.48 1662.25C1003.34 1662.34 1003.18 1662.43 1003.04 1662.52C1003.02 1662.54 1002.98 1662.56 1002.97 1662.56C1002.86 1662.63 1002.75 1662.68 1002.65 1662.73C1002.42 1662.86 1002.19 1662.98 1001.96 1663.09C1001.73 1663.19 1001.5 1663.3 1001.25 1663.41C1001.03 1663.49 1000.8 1663.6 1000.56 1663.69C1000.49 1663.73 1000.43 1663.74 1000.38 1663.76C1000.13 1663.85 999.901 1663.94 999.653 1664.01C1002.43 1667.98 1005.22 1671.93 1007.98 1675.91C1018.17 1690.46 1028.49 1704.95 1038.66 1719.52C1058.29 1747.64 1078.07 1775.67 1097.78 1803.74C1102.9 1811.05 1107.97 1818.39 1113.11 1825.69C1117.68 1832.2 1122.25 1838.71 1126.77 1845.25C1133.2 1854.57 1139.66 1863.9 1146.27 1873.1C1147.77 1875.21 1149.24 1877.36 1150.36 1878.94C1150.71 1879.43 1151.07 1879.95 1151.42 1880.46C1151.99 1881.15 1152.45 1881.95 1152.93 1882.66C1153.37 1883.33 1153.83 1884.01 1154.15 1884.72C1154.22 1884.84 1154.28 1884.96 1154.31 1885.11C1154.35 1885.21 1154.4 1885.32 1154.44 1885.44C1154.77 1885.3 1155.09 1885.14 1155.41 1884.96C1156.07 1884.63 1156.7 1884.24 1157.34 1883.83C1157.47 1883.71 1157.62 1883.62 1157.77 1883.51ZM1211.14 1935.5C1217.72 1946.75 1221.26 1963.51 1202.82 1963.1C1191.1 1961.77 1185.13 1949.68 1177.92 1941.7C1165.9 1926.7 1154.86 1910.96 1143.64 1895.41C1143 1894.18 1143.15 1892.84 1143.77 1891.77C1143.64 1890.67 1143.86 1889.56 1144.48 1888.63C1143.94 1887.93 1143.47 1887.18 1142.95 1886.47C1142.84 1886.33 1142.76 1886.17 1142.67 1886.01C1142.35 1885.53 1141.98 1885.05 1141.66 1884.59C1140.9 1883.49 1140.13 1882.38 1139.35 1881.26C1137.19 1878.14 1135.05 1875.02 1132.89 1871.88C1124.59 1859.91 1116.17 1848.07 1107.86 1836.12C1098.04 1821.99 1088.17 1807.87 1078.36 1793.72C1068.4 1779.38 1058.45 1765.02 1048.51 1750.67C1038.84 1736.7 1029.02 1722.82 1019.36 1708.81C1009.17 1694.03 998.908 1679.29 988.665 1664.54C978.121 1649.38 967.612 1634.19 957.103 1619.01C946.594 1603.85 935.996 1588.74 925.451 1573.6C914.924 1558.48 904.451 1543.32 893.924 1528.19C883.132 1512.7 872.339 1497.24 861.546 1481.74C842.088 1453.78 822.736 1425.75 803.224 1397.81C801.682 1396.95 800.53 1395.71 800.548 1393.98C799.396 1392.31 798.226 1390.66 797.074 1388.99C775.241 1357.81 753.567 1326.53 731.752 1295.34C710.557 1265.04 689.397 1234.7 668.219 1204.39C647.219 1174.3 626.165 1144.26 605.129 1114.19C594.957 1099.65 584.749 1085.13 574.577 1070.59C564.989 1056.87 555.42 1043.15 545.903 1029.37C543.068 1025.26 540.214 1021.18 537.379 1017.07C536.546 1015.86 535.624 1014.69 535.075 1013.36C533.498 1013.29 531.938 1013 530.396 1012.46C528.305 1012.19 526.214 1010.98 525.222 1009.37C520.419 1008.34 519.32 1003.43 516.609 1000.26C512.32 993.732 508.599 986.888 504.328 980.399C494.988 966.693 486.269 952.669 478.206 938.254C469.876 923.555 459.952 909.921 451.003 895.683C438.013 874.052 424.172 853.006 409.551 832.652C406.361 828.184 402.941 823.698 400.69 818.645C400.478 819.78 400.088 820.897 399.432 821.979C398.954 822.759 398.263 824.053 397.235 823.61C396.384 823.414 395.64 823.131 394.984 822.759C387.576 831.819 374.285 831.783 367.639 824.071C361.065 816.925 360.48 806.482 361.224 796.518C358.885 797.581 356.404 798.238 353.905 798.273C342.864 798.504 336.856 790.968 335.775 781.376C334.039 782.032 332.16 782.333 330.459 782.351C317.557 782.759 310.929 767.387 313.251 755.507C313.393 754.993 313.499 754.444 313.623 753.876C313.322 753.93 313.021 753.947 312.702 753.947C307.102 753.344 303.433 748.788 300.154 744.798C291.506 733.894 286.03 720.667 282.202 706.838C281.617 704.32 280.483 701.625 280.643 698.912C278.516 699.019 276.443 698.966 274.476 698.753C273.235 698.753 271.87 698.451 270.701 697.902C269.797 697.884 268.911 697.565 268.167 696.98C263.329 691.767 259.926 685.455 256.931 678.983C256.133 678.859 255.354 678.434 254.698 677.618C245.678 666.271 229.214 664.586 217.252 657.282C201.515 649.179 186.93 639.019 174.826 626.023C119.073 563.79 69.0088 496.113 26.3878 424.216C15.5421 405.032 7.21278 384.199 0 363.561C2.44561 367.196 4.80267 370.866 7.14195 374.572C7.266 374.767 7.38998 374.962 7.51404 375.157C8.27607 376.38 9.05592 377.621 9.81796 378.845C10.8635 380.547 11.9091 382.267 12.9546 383.969C13.7699 385.334 14.5851 386.681 15.4003 388.047C16.3041 389.554 17.2079 391.061 18.094 392.568C21.6738 398.614 25.2359 404.66 28.8157 410.706C68.0873 479.305 116.025 542.389 166.071 603.381C174.613 613.275 183.456 623.239 193.292 631.484C203.677 640.296 215.657 646.998 227.69 653.257C230.827 654.764 234.176 656.129 237.508 657.53C237.88 657.689 238.252 657.849 238.624 658.008C239.369 658.327 240.113 658.647 240.857 658.966C241.159 659.09 241.46 659.232 241.779 659.374C243.108 659.976 244.437 660.579 245.731 661.235C246.103 661.413 246.475 661.608 246.83 661.803C247.06 661.927 247.29 662.051 247.521 662.175C247.751 662.299 247.999 662.423 248.23 662.547C248.69 662.796 249.151 663.062 249.594 663.345C249.878 663.505 250.161 663.682 250.445 663.859C250.463 663.859 250.48 663.877 250.498 663.895C250.799 664.072 251.1 664.267 251.402 664.462C251.473 664.498 251.544 664.551 251.614 664.604C251.863 664.764 252.111 664.941 252.359 665.1C252.66 665.313 252.944 665.508 253.245 665.721C253.422 665.845 253.599 665.969 253.759 666.111C253.972 666.271 254.202 666.448 254.432 666.625C254.716 666.838 254.999 667.086 255.265 667.317C255.566 667.565 255.868 667.831 256.151 668.097C256.435 668.363 256.718 668.629 257.002 668.895C257.285 669.161 257.551 669.445 257.817 669.711C258.136 670.03 258.437 670.384 258.739 670.721C259.217 671.288 259.696 671.874 260.139 672.494C260.405 672.689 260.67 672.884 260.936 673.097C260.972 673.115 260.989 673.132 261.025 673.168C261.255 673.345 261.486 673.523 261.698 673.718C262.212 674.125 262.691 674.569 263.169 675.012C263.382 675.225 263.612 675.437 263.842 675.65C264.64 676.448 265.402 677.281 266.129 678.168C269 681.643 271.126 685.632 273.253 689.604C273.359 689.763 273.465 689.941 273.572 690.118C273.66 690.278 273.767 690.455 273.855 690.632C273.855 690.65 273.873 690.668 273.873 690.668C274.245 690.703 274.6 690.721 274.972 690.739C275.007 690.739 275.025 690.739 275.06 690.739C275.432 690.756 275.787 690.756 276.159 690.756C280.856 690.756 285.516 689.728 290.071 688.629C305.684 684.409 319.01 674.781 332.001 665.491C339.337 659.675 346.497 653.452 352.062 645.863C356.368 640.172 359.576 633.771 363.014 627.53C363.049 627.424 363.103 627.317 363.156 627.193C363.191 627.14 363.209 627.087 363.244 627.034C363.315 626.909 363.368 626.785 363.457 626.661C363.528 626.537 363.599 626.413 363.669 626.307C363.776 626.129 363.9 625.97 364.024 625.792C363.865 625.597 363.723 625.42 363.581 625.225C363.28 624.835 362.978 624.445 362.713 624.055C362.146 623.257 361.614 622.441 361.1 621.608C360.976 621.395 360.852 621.2 360.728 620.987C360.48 620.562 360.249 620.136 360.019 619.711C359.664 619.073 359.345 618.417 359.044 617.761C358.938 617.548 358.849 617.317 358.743 617.087C358.654 616.874 358.548 616.644 358.459 616.431C358.264 615.988 358.087 615.527 357.928 615.066C357.768 614.622 357.609 614.161 357.449 613.7C357.29 613.239 357.166 612.779 357.042 612.318C356.971 612.087 356.917 611.857 356.864 611.626C356.811 611.396 356.758 611.165 356.705 610.934C356.652 610.704 356.616 610.473 356.563 610.243C356.28 608.842 356.102 607.406 356.031 605.988C356.031 605.739 356.014 605.509 355.996 605.261C355.978 604.782 355.978 604.286 355.996 603.807C355.961 603.683 355.925 603.559 355.908 603.435C355.872 603.31 355.854 603.168 355.819 603.044C355.766 602.778 355.73 602.495 355.695 602.211C355.677 602.087 355.659 601.945 355.659 601.821C355.642 601.679 355.642 601.537 355.624 601.396C355.464 598.062 356.333 594.215 355.978 591.396C355.872 583.577 355.819 575.704 355.021 567.921C353.639 550.155 346.674 533.666 338.363 518.116C326.507 492.815 309.955 470.634 296.274 446.45C296.079 446.113 295.901 445.759 295.724 445.422L295.511 444.997L295.405 444.784L294.767 443.507L294.661 443.312L294.572 443.117L294.466 442.922L294.377 442.727L294.165 442.337L294.076 442.124L293.97 441.911L293.863 441.716L293.757 441.503L293.651 441.308L293.544 441.096L293.438 440.901L293.119 440.262L293.013 440.067L292.694 439.429L292.605 439.234L292.517 439.039L292.251 438.454L292.162 438.259L291.985 437.869L291.896 437.691L291.808 437.496L291.719 437.319L291.4 436.734L291.152 436.309L290.904 435.848L290.797 435.599L290.673 435.369L290.567 435.121L290.443 434.89L290.337 434.66L290.124 434.234L290.035 434.021L289.929 433.809L289.84 433.596L289.415 432.745L289.167 432.284L288.919 431.787L288.777 431.539L288.653 431.291L288.228 430.493L288.104 430.227L287.962 429.961L287.838 429.695L287.094 428.206L286.987 427.957L286.863 427.727L286.739 427.479L286.615 427.248L286.243 426.504L285.995 425.972L285.428 424.837L285.144 424.234L284.861 423.667L284.737 423.383L284.364 422.585L284.24 422.337L284.134 422.089L284.01 421.841L283.904 421.61L283.78 421.362L283.656 421.131L283.407 420.635L283.283 420.387L283.159 420.121L282.734 419.323L282.45 418.756L282.309 418.49L282.061 417.958L281.812 417.461L281.6 417L281.423 416.575L281.334 416.362L281.068 415.777L280.962 415.582L280.873 415.387L280.66 414.961L280.537 414.749L280.43 414.536L280.182 414.11L279.757 413.259L279.491 412.674L279.402 412.497L279.331 412.337L279.048 411.699L278.977 411.539L278.835 411.22L278.764 411.061L278.587 410.741L278.41 410.422L278.321 410.245L278.233 410.085L278.144 409.908L277.967 409.553L277.878 409.394L277.79 409.234L277.701 409.075L277.559 408.791L277.488 408.667L277.382 408.419L277.276 408.206L277.223 408.082L277.169 407.976L277.116 407.851L276.762 407.231L276.549 406.805L276.478 406.681L276.407 406.539L276.336 406.415L276.071 405.795L276 405.671L275.946 405.547L275.876 405.422L275.805 405.298L275.734 405.156L275.663 405.05L275.645 405.015L275.557 404.855L275.468 404.713L275.379 404.554L275.273 404.376L275.185 404.199L275.007 403.933C274.759 403.49 274.511 403.029 274.263 402.568C274.015 402.125 273.784 401.664 273.572 401.203C273.572 401.203 273.554 401.185 273.554 401.167C273.324 400.706 273.093 400.245 272.881 399.784C272.278 398.525 271.711 397.249 271.162 395.954C271.002 395.6 270.843 395.227 270.701 394.855C270.701 394.855 270.701 394.837 270.683 394.82C270.683 394.802 270.665 394.784 270.665 394.766C270.648 394.749 270.648 394.731 270.648 394.713C270.134 393.756 269.655 392.781 269.159 391.823C267.635 388.791 266.2 385.742 264.835 382.621C257.799 366.628 250.197 350.902 242.824 335.069C226.237 297.498 209.596 259.821 197.687 220.46C187.143 189.591 174.914 159.432 165.345 128.244C159.745 108.067 152.408 88.0142 144.965 68.5463C137.043 46.6848 127.668 33.6885 108.28 20.4972C105.764 18.6887 103.407 16.951 101.014 15.3199C100.483 14.9652 99.9512 14.6107 99.4372 14.2561C99.1537 14.061 98.8524 13.866 98.5511 13.6887C97.9663 13.3164 97.3815 12.9263 96.779 12.5717C95.8751 12.022 94.9713 11.4902 94.0497 10.976C93.2168 10.4973 92.3484 10.054 91.48 9.61074C87.6167 8.81288 86.6952 3.49382 91.0547 2.44773C93.27 2.16405 95.2549 3.74198 97.2043 4.59303C103.017 7.62492 108.369 11.4547 113.756 15.1603C136.157 30.107 145.496 45.7451 154.304 70.6207C164.459 95.1772 171.37 120.851 179.947 145.975C192.796 181.152 205.768 216.453 217.766 251.896C230.809 285.353 245.288 318.26 260.741 350.689C266.536 362.675 272.26 374.802 277.382 387.142C277.63 387.603 277.861 388.064 278.109 388.525C286.509 405.901 294.909 423.277 303.486 440.581C306.02 445.369 308.555 450.209 310.93 455.12C323.246 474.5 336.697 493.152 346.533 514.003C350.786 522.46 355.411 530.811 358.548 539.783C363.262 552.868 365.318 566.751 365.92 580.598C366.275 588.222 366.93 595.899 366.098 603.523C365.956 604.374 365.583 605.172 365.052 605.846C368.33 611.803 371.006 618.044 374.303 623.984C375.295 625.881 374.976 627.654 373.984 628.878C373.736 630.473 373.027 631.998 372.194 633.47C375.118 636.129 377.652 639.728 380.381 641.821C389.543 650.579 399.592 658.434 408.718 667.352C413.716 671.98 416.569 677.937 418.536 684.409C419.547 685.207 420.521 686.04 421.319 687.104C426.848 696.59 431.101 707.015 437.038 716.306C442.904 726.181 449.39 735.667 454.848 745.827C457.914 752.085 457.897 758.504 458.836 765.33C459.881 774.107 461.388 782.759 462.947 791.358C464.932 804.55 466.899 817.705 469.061 830.79C469.327 834.638 471.117 838.698 468.99 842.563C468.742 843.007 468.423 843.45 468.033 843.84C472.535 850.436 477.107 856.978 481.52 863.662C488.803 874.708 495.219 886.286 502.414 897.421C514.482 916.002 526.444 934.743 537.786 953.892C541.455 959.796 545.513 965.488 549.341 971.321C552.478 975.222 554.409 979.902 554.888 984.831C555.366 984.991 555.827 985.292 556.235 985.753C560.01 989.229 558.113 994.494 556.199 998.803C556.288 998.927 556.377 999.033 556.448 999.157C557.44 1000.56 558.415 1001.98 559.389 1003.4C561.906 1007.07 564.422 1010.74 566.957 1014.41C571.883 1021.57 576.828 1028.73 581.772 1035.89C592.21 1051.04 602.648 1066.16 613.104 1081.28C614.947 1083.94 616.773 1086.6 618.616 1089.26C619.715 1089.83 620.583 1090.84 620.849 1092.21C620.849 1092.31 620.866 1092.42 620.849 1092.53C639.492 1119.48 658.153 1146.41 676.779 1173.39C698.328 1204.6 719.896 1235.77 741.463 1266.96C762.818 1297.86 784.138 1328.8 805.51 1359.69C827.308 1391.19 849.106 1422.7 870.921 1454.19C892.489 1485.34 914.127 1516.44 935.712 1547.56C957.351 1578.76 979.06 1609.93 1000.79 1641.07C1022.12 1671.65 1043.41 1702.25 1064.8 1732.78C1075.09 1747.47 1085.36 1762.16 1095.67 1776.83C1105.19 1790.36 1114.77 1803.85 1124.18 1817.45C1130.9 1827.15 1137.56 1836.88 1144.23 1846.61C1150.89 1856.33 1157.54 1866.08 1164.43 1875.64C1164.5 1875.73 1164.55 1875.8 1164.63 1875.87C1164.71 1875.96 1164.8 1876.05 1164.87 1876.15C1164.91 1876.08 1164.94 1876.03 1164.98 1875.96C1166.93 1872.84 1171.87 1874.11 1172.35 1877.59C1174.32 1879.18 1175.52 1881.7 1177.15 1883.63C1184.03 1892.98 1191.67 1901.79 1197.66 1911.77C1202.41 1919.43 1206.82 1927.46 1211.14 1935.5Z" fill="black"/>
<path d="M209.791 813.025C195.915 808.237 200.948 786.695 204.474 776.128C218.032 742.387 261.113 724.409 295.458 723.416C302.068 723.327 308.821 723.167 315.307 724.533C317.54 725.26 319.117 727.795 317.894 730.011C316.104 733.238 311.479 731.448 308.856 731.341C304.461 730.987 300.031 730.738 296.079 730.809C279.013 730.862 262.194 735.561 246.971 742.972C227.867 752.44 209.826 769.213 208.568 791.713C208.533 796.057 207.08 801.819 210.624 805.117C210.535 805.046 210.429 804.975 210.34 804.904C210.323 804.887 210.305 804.869 210.216 804.816C231.429 815.755 257.48 786.536 271.711 773.38C282.132 762.759 292.906 752.369 305.187 743.912C309.636 740.933 314.421 737.99 319.33 736.111C314.811 739.231 310.699 742.564 306.712 746.27C283.213 767.688 246.014 824.869 209.791 813.025Z" fill="black"/>
</g>
</g>
</svg>
