<svg width="539" height="601" viewBox="0 0 539 601" fill="none" xmlns="http://www.w3.org/2000/svg">
<g id="head/Bun">
<g id="Group 2">
<path id="&#240;&#159;&#142;&#168; Background" fill-rule="evenodd" clip-rule="evenodd" d="M215.486 133.161C411.5 124.3 469.897 236.184 474.321 279.998C477.392 310.412 475.308 350.974 475.308 378.152C475.308 392.024 482.923 434.191 474.321 454.41C455.174 499.413 433.543 534.663 373.606 534.663C313.669 534.663 222.297 506.108 190.922 469.279C185.193 462.554 114.008 413.331 114.008 374.639C114.008 292.09 107.335 138.05 215.486 133.161Z" fill="#B7B5B5"/>
<path id="&#240;&#159;&#150;&#141; Ink" fill-rule="evenodd" clip-rule="evenodd" d="M112.085 0.873012C120.723 -1.82699 126.236 2.06001 130.169 8.08201C131.036 7.91301 131.875 7.92401 132.809 8.14901C133.04 8.20501 133.599 8.41601 134.022 8.58201C134.349 8.71901 134.644 8.88501 134.928 9.06101L135.097 8.97201C135.745 8.26501 136.426 7.62001 137.161 7.10001C138.813 5.93201 140.515 5.59201 142.13 5.83201L142.878 5.55701C149.272 3.32901 156.204 4.36301 160.539 9.87101C161.378 10.935 162.056 12.12 162.635 13.37C163.935 13.796 165.155 14.412 166.206 15.17C166.944 14.823 167.724 14.531 168.559 14.316C173.276 13.106 178.232 14.248 182.076 17.14C183.948 18.547 185.325 20.309 186.369 22.321C187.558 22.6 188.733 23.102 189.834 23.776C190.78 23.305 191.741 22.863 192.726 22.56C196.327 21.454 200.19 21.047 203.938 21.326C212.015 21.925 219.826 31.1498 214.428 39.0714L214.26 39.311C213.575 40.266 212.979 41.253 212.427 42.256C214.36 43.097 216.222 44.222 217.942 45.632C226.356 52.5272 227.113 63.157 225.539 73.1846L225.472 73.602H225.492C229.963 74.0264 233.822 78.6951 231.181 83.0864L231.052 83.292C227.477 88.815 224.413 94.916 220.998 100.728C211.547 104.135 202.434 108.331 193.853 113.415C188.508 118.097 183.419 123.047 178.942 128.554C176.707 131.304 174.654 134.215 172.767 137.233C174.276 137.958 176.142 137.921 177.718 136.461C191.737 123.47 208.674 114.353 226.708 108.243C228.007 107.802 228.859 106.972 229.337 105.99C237.343 103.709 245.49 101.94 253.718 100.688C255.986 98.527 258.362 96.461 260.62 94.309C263.503 91.563 267.114 91.603 269.812 93.328C271.152 92.7172 272.523 92.1779 273.914 91.6933L274.777 91.399C275.137 91.281 275.481 91.144 275.835 91.036C285.491 88.0846 294.32 89.1804 303.816 91.6054L305.032 91.922C309.46 93.0965 312.245 92.9088 316.533 91.8278L317.015 91.704C321.57 90.516 326.442 89.636 331.098 90.887C335.97 92.1964 339.202 95.1081 342.52 98.6262L342.852 98.98C344.401 100.636 345.296 100.817 347.323 100.777L349.494 100.712C357.688 100.488 365.712 100.833 371.849 107.171C374.118 109.515 376.553 112.832 378.014 115.859L378.225 116.311C378.293 116.458 378.353 116.581 378.409 116.691C379.289 116.549 380.659 115.992 381.311 115.865C390.241 114.133 397.693 116.802 403.427 123.839C404.681 125.379 406.576 128.403 407.889 130.065C408.349 130.455 408.783 130.873 409.194 131.312C411.348 132.687 414.398 132.6 416.812 133.082C423.391 134.392 430.423 136.894 433.768 143.155C435.167 145.768 435.683 148.627 436.273 151.483C438.485 152.936 440.218 155.03 441.564 157.297C443.2 160.049 443.896 163.42 445.78 166.019C447.148 167.907 449.239 168.915 451.228 170.069L451.988 170.515C457.882 174.025 462.497 177.92 464.438 184.797L464.606 185.409C464.921 186.462 466.026 189.469 465.063 189.017C465.892 189.474 467.3 189.635 468.056 189.885C472.145 191.238 475.7 193.424 477.878 197.263C479.536 200.185 479.837 203.231 480.311 206.452L480.513 207.752C480.565 208.067 480.627 208.432 480.69 208.787L480.754 209.135L480.766 209.143C481.507 209.463 482.234 209.81 482.949 210.184C486.339 212.179 488.655 215.642 488.655 219.651C488.655 221.597 488.047 223.113 487.162 224.466C487.878 225.55 488.432 226.705 488.851 227.992C489.673 230.505 489.73 233.253 489.454 235.853C489.122 238.973 488.321 241.814 487.378 244.794C487.015 245.944 486.868 247.551 486.321 248.649C487.33 249.936 487.932 251.509 487.745 253.061C487.478 255.281 486.465 257.876 484.454 259.121C483.471 263.971 481.355 268.927 479.272 272.892C479.033 273.352 478.742 273.762 478.422 274.102C478.712 289.932 477.552 305.873 477.472 321.682C477.382 338.892 477.742 356.113 478.342 373.302C479.352 401.792 482.962 431.252 474.552 459.033C467.672 481.772 453.891 501.292 435.412 516.092C416.492 531.232 393.684 539.993 369.462 541.363C357.142 542.052 344.612 540.652 332.692 537.462L331.419 537.117C319.886 533.948 306.528 529.108 298.042 520.632C293.562 516.152 298.092 506.663 304.662 509.272C311.172 511.863 317.013 515.692 323.472 518.392C329.242 520.802 335.263 522.652 341.362 524.012C353.592 526.762 366.562 527.363 378.992 525.652C423.872 519.512 458.842 482.243 465.742 438.052C467.652 425.814 467.617 413.375 467.488 401.009L467.346 387.46C467.236 376.125 467.196 364.783 467.612 353.453C468.142 338.873 469.172 324.302 470.552 309.783L471.271 302.228C472.125 293.388 473.086 284.481 474.742 275.762C473.385 275.833 462.678 257.517 456.736 247.282C454.567 245.562 452.736 243.425 452.029 240.66C451.882 240.083 451.806 239.501 451.76 238.918C450.47 236.891 449.109 234.916 447.673 233L447.36 232.86C447.119 232.75 446.931 232.658 446.821 232.596C443.687 230.819 441.07 228.127 439.279 225.007C438.675 223.955 438.18 222.857 437.778 221.734C435.223 219.227 432.551 216.835 429.742 214.592C429.466 214.372 429.181 214.166 428.903 213.949C425.328 212.615 422.19 210.605 419.902 207.71C418.946 207.118 417.983 206.538 417.012 205.97C414.098 205.943 411.154 205.264 408.29 204.087C403.05 201.935 398.865 197.682 393.601 195.711C388.034 193.628 382.169 198.362 376.254 197.508C374.744 197.29 373.247 196.831 371.855 196.165C368.524 199.693 364.989 203.019 361.092 205.93C355.435 210.156 349.651 212.087 343.094 213.996C339.845 217.079 336.207 220.068 331.82 220.507C321.667 228.623 310.808 235.469 299.382 241.825C297.544 242.847 295.717 243.308 293.983 243.32C290.399 245.57 286.487 247.301 282.354 248.499C281.059 248.874 279.724 248.953 278.411 248.792L274.825 251.713C272.329 253.745 269.667 254.716 267.12 254.779C265.57 255.966 263.965 257.089 262.311 258.169C260.54 259.328 258.243 259.808 255.935 259.668C252.41 263.116 247.839 263.478 244.011 261.89C243.485 262.198 242.944 262.49 242.336 262.777C241.51 263.168 240.648 263.498 239.769 263.765C235.777 268.067 229.934 270.323 224.079 269.733C219.707 272.411 214.618 273.804 209.643 273.491C208.884 277.303 208.256 281.129 207.725 284.968L207.671 287.78C207.665 288.236 207.664 288.591 207.67 288.825L207.673 288.918C208.16 301.247 208.426 313.582 208.907 325.913L208.952 326.886C209.499 337.659 212.15 357.301 196.314 356.873C190.413 356.714 184.559 352.368 179.964 348.796L179.316 348.291C178.964 348.017 178.603 347.736 178.24 347.45C174.806 347.004 171.42 346.169 167.952 346.042C163.672 345.892 159.172 346.332 155.002 347.302C147.642 349.012 140.522 352.363 135.722 358.432C135.302 358.962 134.912 359.522 134.542 360.082C134.202 361.232 133.622 362.292 132.852 363.212C128.312 373.422 130.933 386.913 135.952 396.252C141.933 407.377 151.396 415.068 163.295 418.941L163.892 419.132C172.022 421.672 175.132 426.592 179.552 433.432C183.692 439.852 188.442 445.832 193.542 451.512C203.412 462.502 217.263 471.573 223.002 485.482C224.162 488.283 220.842 490.922 218.272 490.203C208.202 487.373 201.142 480.203 193.822 473.073C188.756 468.135 183.884 462.999 179.313 457.604C178.354 458.047 177.299 458.345 176.2 458.479C171.35 459.071 166.348 458.825 162.102 456.211C160.145 456.389 158.106 455.71 156.592 454.323C155.203 453.047 154.005 451.667 152.993 450.198C151.455 450.333 149.945 450.374 148.504 450.135C147.809 450.07 147.136 449.887 146.519 449.587C145.373 449.134 144.286 448.436 143.288 447.365C141.266 445.195 140.491 442.129 140.864 439.215C140.464 439.131 140.067 439.028 139.675 438.895C136.983 437.984 134.911 436.175 133.587 433.713C131.218 432.384 129.085 430.582 127.47 428.668C125.503 426.339 124.019 423.714 123.147 420.815C122.246 420.396 121.371 419.911 120.533 419.343C114.528 415.28 111.09 407.652 113.448 400.599L113.529 400.377C113.648 400.06 113.865 399.519 114.13 398.908C114.092 398.411 114.052 397.914 114.025 397.416L113.942 395.914L112.739 395.403C106.739 393.017 102.683 389.796 101.962 383.045C101.812 381.649 102.354 380.225 103.209 379.035L103.205 378.661C102.815 378.459 102.444 378.252 102.117 378.044C98.8465 375.955 96.8365 372.211 97.0615 368.339C97.2682 364.809 99.2232 361.996 101.422 359.394L102.05 358.664C102.102 358.605 102.16 358.539 102.222 358.468L100.769 358.011C99.8264 357.711 98.9628 357.412 98.3415 357.064C95.9375 355.717 93.8995 353.896 92.6425 351.582C92.4595 351.295 92.2735 351.013 92.1055 350.707C90.4825 347.746 90.2705 343.952 91.3175 340.773C91.4415 340.398 91.6015 340.045 91.7655 339.694C87.3455 338.136 83.9425 334.916 83.5325 328.982C83.3715 326.648 83.8825 324.323 84.9935 322.332C84.7475 320.991 84.6965 319.601 84.8555 318.226C83.3005 316.757 82.0925 314.987 81.5525 312.828C80.5315 308.749 82.4005 304.868 85.1785 301.309C84.1505 298.495 84.0975 295.32 85.2715 292.487C84.8195 291.073 84.5625 289.578 84.5485 288.043C84.5175 284.644 85.5645 281.805 87.2555 279.39C84.8785 276.484 83.7495 272.622 85.1535 269.003C86.1525 266.431 87.2945 264.078 88.6105 261.898C87.9195 260.24 87.5175 258.383 87.5175 256.304C87.5175 252.564 88.9195 249.601 91.0645 247.176C90.1335 242.747 92.0265 237.353 96.1525 235.403C97.7075 234.667 99.7895 233.899 102.083 233.301C102.944 230.611 103.843 227.932 104.792 225.272C106.287 221.085 107.895 216.956 109.599 212.875C108.618 213.734 107.589 214.535 106.525 215.261C103.16 219.539 98.6995 223.245 94.9505 225.462C87.5185 229.858 79.0185 227.25 75.3495 219.895C71.9015 222.469 67.7635 223.993 63.3485 223.472C58.3425 222.881 53.7655 219.639 52.5155 214.582C52.3345 213.85 52.2255 213.059 52.2145 212.263C49.3435 214.307 46.3395 216.188 43.0445 217.265C38.8475 218.637 34.5635 215.346 34.0095 211.246C33.7905 209.621 34.0945 208.185 34.7415 206.972L34.3316 206.811C34.2636 206.782 34.1958 206.753 34.1285 206.721C31.9275 205.69 30.2185 203.8 29.4065 201.62C24.6405 203.464 19.1845 201.303 17.6725 196.062C15.8725 189.832 15.7635 183.522 17.1725 177.453C12.1225 173.783 8.83248 167.613 8.27248 161.163C7.86348 156.533 8.96848 152.259 10.9155 148.307C6.13948 146.521 4.49748 140.261 6.76748 135.751C3.75248 134.025 1.78648 130.366 1.74248 126.804C0.39548 124.764 -0.0355198 122.137 1.08148 119.193C2.55448 115.314 5.55448 112.069 8.98948 109.524C7.49148 106.916 6.37848 104.072 5.68748 101.133C2.84148 100.3 0.54448 97.998 0.0764801 94.541C-0.50952 90.207 2.34348 86.533 6.18348 85.563C6.60948 84.243 7.12948 82.952 7.77248 81.712C5.87248 77.212 6.15248 71.522 8.60248 66.602C10.7725 62.252 14.3025 59.592 18.5525 57.752C17.4725 54.052 18.9025 50.362 22.5025 47.612C26.8975 44.251 31.7175 41.682 36.7825 39.867C36.3325 33.844 38.8505 27.676 44.8015 25.576C46.3925 25.015 48.0485 24.808 49.7315 24.815C50.9535 22.158 52.9925 19.998 55.6535 18.086C59.6802 15.194 67.2054 16.9608 69.4385 21.496L69.5475 21.729C69.6615 21.986 69.7845 22.221 69.9015 22.47C70.3515 20.268 71.4035 18.188 73.0945 16.483C77.3215 12.22 81.7845 12.14 86.0795 13.963C86.8675 12.009 87.8215 10.151 88.9815 8.45201C93.1925 2.28801 100.149 1.50301 105.243 4.84101C107.285 3.04601 109.564 1.66201 112.085 0.873012ZM142.194 371.542C150.673 368.222 160.963 369.203 169.343 372.392L169.957 372.631C177.358 375.557 189.383 382.067 190.833 390.392C191.583 394.703 187.484 398.432 183.323 396.163C179.703 394.192 177.673 390.222 174.793 387.342C171.944 384.493 168.753 382.203 165.274 380.192C158.014 376.002 150.383 374.372 142.194 373.163C141.274 373.033 141.524 371.802 142.194 371.542Z" fill="black"/>
</g>
</g>
</svg>
