<svg width="506" height="595" viewBox="0 0 506 595" fill="none" xmlns="http://www.w3.org/2000/svg">
<g id="head/Buns">
<path id="&#240;&#159;&#142;&#168; Background" fill-rule="evenodd" clip-rule="evenodd" d="M430.205 201.681C397.231 154.975 314.37 149.714 262.001 150.01C158.58 149.149 136.925 268.024 131.524 351.323C120.493 353.2 109.765 357.046 102.486 365.714C93.6226 376.271 90.5611 394.39 98.8707 406.196C104.39 414.035 113.105 416.655 122.221 417.091C152.412 414.21 158.603 441.121 173.472 461.299C211.628 512.845 277.728 529.566 338.353 529.822C358.945 530.37 383.751 531.915 396.939 512.541C438.591 440.344 439.498 344.593 442.065 262.778C442.418 241.832 442.329 219.658 430.205 201.681Z" fill="#B7B5B5"/>
<path id="&#240;&#159;&#150;&#141; Ink" fill-rule="evenodd" clip-rule="evenodd" d="M247.62 5.81406C251.348 0.180189 259.527 -2.00348 265.198 2.17538C269.92 -0.746616 275.861 -0.130546 280.105 3.42245C285.237 0.389454 291.61 1.61338 295.635 5.84238C302.084 2.31838 310.596 4.92124 314.049 11.5982C320.557 10.8763 326.69 15.1364 328.425 21.3023C328.732 21.5513 329.035 21.8081 329.338 22.0641C333.237 22.2511 336.942 23.7789 339.127 27.4049C340.219 29.2159 340.723 31.3443 340.649 33.4293C342.98 34.6893 344.863 36.7561 345.67 39.4352C346.426 41.9471 346.141 44.4323 345.147 46.5973C348.393 50.0502 349.251 55.4322 346.951 59.7691C347.903 61.401 348.397 63.3298 348.319 65.3346C348.204 68.3034 346.828 70.6969 344.955 72.7398C347.31 76.9898 346.392 82.4425 342.564 85.4225C340.365 93.2182 334.798 98.4046 326.271 101.587C321.988 103.185 317.507 104.416 312.94 105.32C331.215 107.779 349.194 112.101 366.464 118.545C367.404 118.895 368.201 118.759 368.81 118.35C369.187 118.55 369.571 118.734 369.947 118.939C374.707 121.549 379.368 124.379 383.908 127.409C383.908 126.909 383.918 126.409 383.938 125.899C383.85 121.784 384.283 117.731 385.376 113.824C383.946 111.875 382.876 109.653 382.294 107.363C380.841 101.649 383.605 93.5182 388.569 91.566C390.309 86.74 394.267 83.2476 399.117 81.8736C399.502 81.5268 399.911 81.1894 400.368 80.8766C401.389 80.1748 402.506 79.6955 403.653 79.4176C404.25 76.8027 405.71 74.3956 408.13 72.7066C411.545 70.3218 415.584 70.0629 419.132 71.3639C419.807 71.1369 420.492 70.9401 421.183 70.7691C426.895 65.9072 435.797 66.2651 440.823 71.9537C444.273 70.3767 448.34 70.3073 451.872 72.4293C454.698 74.1273 456.457 76.865 457.145 79.8697C462.495 80.0337 467.389 83.5844 468.932 88.8824C473.862 89.4404 477.895 93.2979 478.751 98.1539C481.896 98.5919 484.801 100.07 486.568 103.009C487.384 104.368 487.828 105.855 487.943 107.344C489.533 108.107 490.959 109.262 492.036 110.771C493.922 113.415 494.286 116.502 493.593 119.407C493.752 119.729 493.925 120.043 494.078 120.369C494.591 121.461 495.003 122.632 495.37 123.821C497.028 126.212 497.794 129.135 497.642 132.071C497.994 133.313 498.335 134.558 498.618 135.809C499.738 140.719 500.158 145.949 499.388 150.949C499.008 153.369 498.458 155.749 497.678 158.059C497.598 158.499 497.467 158.909 497.318 159.299C496.888 161.119 496.338 162.909 495.638 164.659C493.958 166.889 492.198 169.059 490.348 171.159C488.788 173.499 487.008 175.659 484.998 177.639C483.548 179.069 481.958 180.399 480.268 181.599C476.913 184.288 473.158 186.385 469.153 187.749C468.439 187.599 467.72 187.482 467 187.367C462.452 189.871 455.296 190.154 450.92 190.137C446.098 190.119 441.682 188.901 438.01 186.6C438.436 187.447 438.861 188.295 439.286 189.145C439.18 189.206 439.066 189.261 438.974 189.332C438.18 188.017 437.294 186.849 436.25 186.009C434.825 184.86 432.527 184.757 431.539 186.616C431.521 186.648 431.503 186.681 431.486 186.714C430.96 187.705 431.034 188.656 431.436 189.432C431.583 189.643 431.729 189.856 431.875 190.068C431.927 190.128 431.977 190.192 432.034 190.248L432.008 190.251C433.373 191.35 434.717 194.042 435.991 196.659C436.853 198.188 437.673 199.739 438.442 201.317C438.891 201.979 439.688 202.56 440.536 202.729C440.37 203.989 440.95 205.292 441.901 205.938C442.151 205.434 442.456 204.918 442.847 204.386C447.145 198.548 455.588 196.029 461.947 198.697C463.215 198.483 464.49 198.306 465.776 198.205C469.974 197.928 474.229 198.258 478.375 199.127C479.662 199.899 480.892 200.768 482.038 201.759C483.008 202.599 483.908 203.479 484.748 204.389C485.398 204.876 486.037 205.392 486.664 205.93C489.206 207.297 491.073 209.919 492.641 212.529C493.885 214.288 494.972 216.157 495.913 218.137C500.273 225.597 505.304 234.859 501.373 242.194C501.791 242.985 502.1 243.861 502.271 244.814C502.814 247.839 501.698 250.152 500.235 252.398C500.427 253.964 500.535 255.482 500.618 256.817C501.084 264.313 499.366 274.588 492.757 277.648C492.654 277.772 492.549 277.895 492.44 278.018C491.93 278.848 491.152 279.566 490.129 280.09C489.875 280.267 489.618 280.435 489.358 280.579C489.241 280.68 489.108 280.762 488.987 280.858C489.125 280.713 489.259 280.562 489.396 280.415C485.74 281.873 482.209 282.174 478.44 281.731C476.11 282.573 473.775 283.202 471.804 283.689C465.653 285.208 457.721 286.424 451.726 283.834C449.979 283.08 448.529 282.081 447.441 280.89C447.531 285.53 447.667 290.169 447.868 294.809C448.278 306.539 448.258 318.259 448.168 329.999C448.068 343.209 447.697 356.429 446.987 369.629C446.657 376.259 446.128 382.879 445.418 389.479C444.818 395.909 444.118 402.329 443.308 408.729C441.398 421.889 438.248 435.149 434.408 447.869C432.738 453.389 430.908 458.979 428.828 464.439C427.948 466.949 427.018 469.429 426.008 471.889C420.678 484.779 414.037 497.219 405.068 507.959C400.168 513.819 394.758 519.089 388.718 523.519C383.868 527.299 378.618 530.499 372.848 533.019C360.448 538.439 346.607 539.659 333.197 539.459C327.978 539.388 322.437 538.449 317.277 537.589C313.318 536.939 309.308 536.069 305.338 535.049C301.818 534.229 298.338 533.278 294.908 532.169C290.778 531.078 286.818 529.509 283.048 527.479L276.368 524.969C273.578 523.919 270.867 522.669 268.237 521.239L260.978 517.849C257.968 516.399 255.038 514.809 252.178 513.059C251.878 512.899 251.538 512.629 251.408 512.329C250.668 511.919 249.918 511.529 249.178 511.109C249.058 511.049 249.148 510.699 249.308 510.359C249.178 510.089 249.198 509.789 249.558 509.519C249.828 509.309 250.258 509.369 250.708 509.509C250.668 509.479 250.638 509.449 250.608 509.419C250.108 509.149 249.618 508.889 249.128 508.619C248.628 508.349 248.548 507.649 249.018 507.279C249.148 507.179 249.298 507.129 249.447 507.119C249.438 507.118 249.428 507.109 249.418 507.109C249.328 507.049 249.397 506.769 249.527 506.459C249.278 506.139 249.198 505.749 249.638 505.409C250.288 504.899 251.807 505.839 252.358 506.149C252.988 506.499 253.628 506.829 254.258 507.169C254.298 507.079 254.378 506.998 254.508 506.919C253.578 506.429 252.657 505.929 251.737 505.429C251.167 505.129 250.428 504.499 251.178 503.909C251.778 503.429 253.327 504.248 254.068 504.669C254.158 504.599 254.258 504.569 254.378 504.549C254.058 504.369 253.718 504.199 253.398 504.009C252.498 503.509 253.108 501.949 254.038 502.469C254.148 502.539 254.258 502.599 254.368 502.669C255.038 502.609 255.978 503.159 256.408 503.399C259.538 505.369 262.798 507.089 266.178 508.569C268.458 509.649 270.748 510.719 273.048 511.759C275.308 512.879 277.638 513.849 280.027 514.669C286.037 517.008 292.108 519.189 298.237 521.209C306.827 523.559 315.718 525.449 324.638 526.189C325.798 526.279 326.958 526.359 328.118 526.399C330.658 526.379 333.198 526.369 335.728 526.349C340.658 525.839 345.588 525.339 350.508 524.839C352.228 524.599 353.908 524.299 355.568 523.949C356.438 523.739 357.308 523.519 358.168 523.269C358.468 523.229 358.768 523.169 359.068 523.119C361.177 522.559 363.248 521.889 365.318 521.109C366.617 520.579 367.908 520.019 369.188 519.429C373.418 517.459 377.578 514.859 381.498 511.879C386.408 506.99 391.318 502.109 396.228 497.219L400.718 491.099C406.518 482.809 411.108 473.569 414.918 464.139C416.938 458.319 418.958 452.499 420.978 446.679C421.608 444.579 422.207 442.479 422.777 440.369C423.927 435.649 425.078 430.929 426.228 426.219C426.608 424.489 426.978 422.769 427.338 421.049C429.548 410.34 430.768 399.469 431.818 388.599C433.738 368.819 434.258 348.979 434.398 329.119C434.488 317.249 434.388 305.379 434.148 293.519C434.008 286.639 433.908 279.759 433.808 272.879C433.678 265.58 433.538 258.269 433.348 250.969C433.338 250.809 433.398 250.669 433.478 250.549C433.458 249.689 433.448 248.829 433.438 247.959C433.428 247.389 433.648 247.139 433.968 247.089C433.908 241.879 433.868 236.679 433.858 231.479C433.858 231.139 434.018 230.919 434.228 230.789V229.469C433.358 225.849 432.178 222.299 430.648 218.919C430.128 217.699 429.548 216.509 428.908 215.349C428.118 213.609 427.088 212.029 425.828 210.579C424.778 208.809 423.487 207.239 421.987 205.839C421.377 205.399 420.758 204.959 420.148 204.519C419.638 204.249 418.888 203.779 418.228 203.239C417.038 202.509 415.858 201.769 414.668 201.039C413.978 200.679 414.428 199.779 414.918 199.539V199.509C414.808 199.459 414.688 199.399 414.558 199.289C413.118 197.929 411.618 196.649 410.058 195.449C409.778 195.559 409.447 195.519 409.197 195.309C408.277 194.449 407.338 193.619 406.378 192.819C404.228 191.409 401.978 190.119 399.628 188.979C395.858 187.199 391.998 185.669 388.038 184.369C387.184 184.088 386.324 183.837 385.469 183.584C384.251 183.526 383.035 183.46 381.818 183.407C336.505 181.419 291.072 182.254 245.862 185.901C234.725 186.8 223.601 187.871 212.496 189.112C202.724 190.205 191.01 190.167 182.027 194.643C181.648 194.833 181.286 195.034 180.933 195.241C181.634 199.735 183.467 204.123 185.064 208.36C187.527 214.896 189.734 221.558 189.515 228.636C189.361 233.572 188.3 238.318 186.772 242.956C185.989 249.569 183.927 255.956 181.739 262.231C170.972 293.105 165.112 324.715 165.714 357.488C165.73 358.366 165.528 359.132 165.18 359.784C165.377 361.217 165.573 362.651 165.805 364.08C166.703 369.603 159.419 372.35 156.906 368.689C156.737 368.856 156.504 368.971 156.288 368.989C155.648 369.049 154.598 367.999 154.298 367.519C153.908 366.799 153.498 366.099 153.058 365.429C152.998 365.399 152.948 365.379 152.898 365.359C153.168 365.919 153.448 366.489 153.708 367.029C154.148 367.909 152.458 368.339 151.958 367.529C151.508 366.819 151.058 366.139 150.608 365.489C150.348 365.679 150.058 365.728 149.868 365.419C148.258 362.759 146.398 360.479 144.358 358.539C141.148 355.919 137.637 354.329 133.648 353.399C130.508 352.949 127.288 352.929 124.178 353.289C120.608 353.709 116.848 354.599 113.618 356.229C110.988 358.039 108.348 359.849 105.708 361.659C105.058 362.339 104.438 363.049 103.858 363.789C102.028 366.159 100.558 368.689 99.3478 371.379C99.2978 371.549 99.2473 371.72 99.1974 371.879C98.4575 374.139 97.9777 376.46 97.7677 378.839C97.7377 381.849 97.7176 384.849 97.6876 387.859C98.0876 391.769 99.0883 395.569 100.618 399.179C101.338 401.309 102.468 403.209 103.998 404.889C104.818 406.309 105.748 407.599 106.788 408.799C108.898 410.199 111.198 411.389 113.648 412.329C114.248 412.489 114.848 412.649 115.458 412.769C118.608 413.979 121.868 414.629 125.237 414.719C129.497 415.009 133.668 414.639 137.748 413.609C140.268 413.159 142.708 412.428 145.068 411.419C147.327 410.279 149.457 408.909 151.447 407.309C151.667 407.169 151.998 407.249 152.358 407.429C152.798 407.109 153.238 406.799 153.668 406.449C153.868 406.309 154.048 406.479 154.138 406.659C154.178 406.629 154.218 406.599 154.258 406.569C155.048 406.029 157.217 407.719 156.237 408.719C156.657 408.979 157.078 409.289 157.458 409.609C159.198 409.679 162.708 412.88 162.048 413.379C161.068 414.229 160.037 415.009 158.987 415.749C159.917 416.439 161.138 417.509 160.568 417.939C159.548 418.909 158.438 419.749 157.258 420.469C156.458 421.079 155.637 421.659 154.777 422.189C153.848 422.739 152.898 423.209 151.918 423.649C153.628 426.959 155.258 430.299 156.777 433.699C157.787 436.109 158.958 438.439 160.308 440.679C162.028 444.089 164.088 447.289 166.498 450.269C168.458 453.569 170.758 456.599 173.388 459.369C176.638 463.069 180.128 466.549 183.838 469.769C185.318 470.819 186.828 471.839 188.398 472.779C192.408 475.799 196.678 478.389 201.208 480.549C201.738 480.84 202.158 481.479 201.538 481.979C201.518 481.989 201.498 481.989 201.478 482.009C202.957 482.849 204.448 483.679 205.947 484.499C206.537 484.819 207.747 485.439 206.848 486.169C206.268 486.648 204.478 485.789 203.408 485.229C203.558 485.309 203.718 485.399 203.878 485.489C204.208 485.669 206.107 486.629 204.938 487.239C204.348 487.339 203.788 487.239 203.248 486.949C202.688 486.739 202.128 486.509 201.578 486.269C201.598 486.449 201.498 486.619 201.208 486.759C200.978 486.799 200.758 486.799 200.538 486.779C201.758 487.469 202.978 488.149 204.208 488.819C204.569 489.009 206.267 489.949 205.148 490.529C204.598 490.639 204.068 490.549 203.558 490.269C202.628 489.919 201.707 489.509 200.818 489.059C200.608 488.939 200.398 488.829 200.188 488.709C200.028 488.709 199.868 488.689 199.708 488.659C200.688 489.189 201.678 489.699 202.678 490.199C203.268 490.519 204.258 491.169 203.408 491.829C202.818 492.279 201.228 491.469 200.288 490.939C200.228 491.009 200.158 491.089 200.058 491.169C199.358 491.699 197.557 490.529 196.987 490.219C192.027 487.559 187.238 484.809 182.628 481.659C179.808 479.849 177.058 477.949 174.368 475.879C169.218 471.9 164.538 467.269 160.248 462.389C157.318 459.049 155.728 457.169 152.888 453.119C148.328 446.599 144.888 439.799 141.578 432.589C141.528 432.479 141.627 432.199 141.777 431.919C141.098 430.249 140.437 428.559 139.777 426.809C138.058 427.039 136.328 427.199 134.618 427.299C130.588 427.529 126.678 427.169 122.888 426.339C118.298 425.749 113.757 424.449 109.737 422.409C107.328 421.199 105.008 419.909 102.808 418.469C100.838 417.419 98.9382 416.219 97.1183 414.819C89.3683 408.899 85.158 399.709 84.128 390.169C83.3381 385.969 83.1678 381.649 83.6378 377.479C83.9778 374.449 84.6576 371.449 85.6476 368.559C87.4776 362.149 90.8882 356.219 95.8282 351.729C96.6582 350.879 97.5282 350.069 98.4581 349.309C101.208 347.059 104.328 345.249 107.648 343.929C108.288 343.619 108.938 343.329 109.588 343.059L108.798 341.239C108.518 341.319 107.548 341.159 107.428 340.819C107.108 339.949 106.808 339.059 106.498 338.189C106.318 338.299 106.088 338.359 105.838 338.369V339.379C105.847 339.671 105.298 341.468 104.998 340.529C104.688 339.669 104.408 338.789 104.108 337.919C103.858 337.759 103.668 337.569 103.598 337.349C103.568 337.259 103.538 337.169 103.498 337.079C103.478 337.069 103.448 337.069 103.428 337.059V337.369C103.438 337.559 102.938 338.998 102.848 338.719C101.118 333.959 99.7075 329.099 98.6075 324.159C97.8576 321.439 97.2675 318.689 96.8175 315.899C96.3275 313.389 95.8975 310.869 95.5275 308.329C95.4975 308.119 95.4676 307.909 95.4376 307.699C95.4276 307.649 95.4183 307.609 95.4083 307.559C95.3783 307.289 95.3477 307.009 95.3077 306.739C94.9078 303.869 94.5782 300.989 94.3282 298.089C93.7982 292.129 93.5876 286.139 93.6476 280.159C93.5176 280.209 93.3976 280.279 93.2677 280.339C90.6698 281.445 87.9248 282.349 85.132 283.069C80.327 290.013 72.6559 294.712 63.463 295.206C60.35 295.374 57.0856 294.995 54.0636 294.116C53.7497 294.188 53.4258 294.246 53.09 294.29C50.627 294.612 48.9135 293.609 46.6105 293.303C42.9238 292.815 39.7981 292.575 37.4122 290.434C36.6753 290.451 35.9708 290.344 35.3019 290.144C28.9749 291.661 22.2515 288.317 20.0265 281.309C16.2316 279.085 13.2079 275.786 11.1749 271.958C7.25899 266.938 4.12764 260.783 2.18566 254.316C2.15572 254.255 2.12282 254.196 2.09387 254.133C1.10887 251.997 0.639726 249.706 0.599726 247.408C-0.448204 240.862 -0.17238 234.308 1.82043 228.547C1.73643 225.425 2.4707 222.169 3.81457 219.216C5.4435 215.636 7.92772 211.519 11.1505 209.13C11.1585 205.461 12.7359 201.42 14.8029 198.682C18.9279 193.213 24.9099 190.322 31.3839 189.904C34.6759 181.465 44.651 179.494 53.255 182.303C56.829 178.651 62.0642 176.907 67.2892 177.528C71.7069 178.053 75.4827 180.166 78.6085 183.078C79.4324 183.313 80.2535 183.558 81.0734 183.813C83.8104 182.612 87.0039 182.34 89.9249 183.093C94.9878 184.398 98.2913 188.234 100.576 192.634C101.305 193.136 102.017 193.654 102.712 194.195C103.475 194.537 104.168 194.994 104.797 195.532C105.711 196.019 106.487 196.82 106.96 197.982C108.25 199.312 109.45 200.719 110.512 202.228C111.307 200.389 112.127 198.563 112.974 196.75C114.353 197.165 116.02 196.628 116.714 194.786C121.114 183.111 129.123 161.72 136.67 151.863C127.862 157.86 117.108 161.021 106.426 160.703C105.969 160.689 105.508 160.67 105.043 160.645C99.3011 161.635 93.4674 161.727 88.1124 160.653C84.5066 159.344 80.9928 157.784 77.588 156.019C76.7601 155.589 75.9391 155.137 75.1212 154.681C74.7643 154.38 74.4329 154.044 74.0919 153.722C73.3881 153.773 72.6511 153.718 71.8673 153.51C68.9203 152.731 66.1925 150.77 64.4825 148.25C64.1647 147.781 63.9087 147.298 63.6808 146.811C61.8258 144.997 60.2192 142.942 59.0382 140.539C57.6482 137.729 56.7981 134.569 56.7081 131.409C56.1282 128.309 56.1682 125.119 57.2482 122.159C57.3681 121.839 57.5079 121.528 57.6378 121.209C57.6977 121.009 57.7378 120.799 57.8077 120.599C58.1237 119.544 58.5259 118.604 59.0138 117.714C59.1948 116.799 59.4913 115.892 59.9093 115.009C59.9563 114.582 60.0141 114.155 60.0831 113.73C56.9051 107.735 58.0312 99.8951 62.7882 95.0221C62.1302 91.8721 62.7999 88.5319 64.7169 85.7369C66.1249 83.683 68.082 82.0621 70.2989 80.9371C70.53 80.8201 71.1422 80.6193 71.8741 80.3883C72.6941 79.6633 73.559 78.9766 74.506 78.3727C74.7422 72.2299 81.1593 68.8117 86.3732 65.7848C89.7549 63.8217 91.2331 60.1013 94.7159 58.2193C98.5258 56.1624 103.401 56.0388 107.611 55.5318C117.538 54.3358 128.11 53.4118 138.087 54.4928C143.626 55.0928 148.212 57.7681 150.109 62.15C154.874 62.713 159.122 66.1511 162.482 69.6871C166.676 74.1001 170.247 78.7983 171.478 84.5973C172.298 85.0403 173.043 85.5819 173.716 86.1939C173.691 90.2718 173.159 94.3568 172.033 98.2057C172.364 100.507 171.671 102.704 170.499 104.696C170.678 106.582 170.549 108.439 170.154 110.29C172.434 114.335 170.301 120.448 167.107 124.459C167.099 125.213 167.091 125.967 167.083 126.721C167.273 126.622 167.458 126.505 167.631 126.358C182.123 114.026 197.02 115.785 214.625 108.729C230.503 105.664 246.709 103.713 262.973 103.064C262.758 103.032 262.543 103.009 262.329 102.974C254.133 101.632 246.26 98.2606 239.49 93.4176C237.699 92.9635 235.999 92.1552 234.479 90.8023C233.001 89.4884 231.978 87.9722 231.39 86.3463C231.122 86.0593 230.857 85.7701 230.596 85.4762C225.514 84.2282 221.644 79.8312 222.292 74.0514C219.074 70.2424 217.89 65.5391 218.979 60.6422C217.181 57.6052 217.023 53.7759 218.365 50.5689C215.54 47.137 215.32 42.2653 217.536 38.3824C215.513 35.5074 215.066 31.6966 217.562 28.2916C218.74 26.6838 220.372 25.6703 222.15 25.1803C222.652 23.3273 223.673 21.6059 225.276 20.2769C226.101 19.5939 226.966 19.0866 227.849 18.7086C228.181 16.7957 229.262 14.9822 231.342 13.5553C232.286 12.9083 233.252 12.4904 234.212 12.2584C235.121 10.0084 236.707 8.03451 238.938 6.75351C241.632 5.20853 244.765 5.00406 247.62 5.81406ZM119.268 369.509C121.358 369.479 123.368 369.5 125.368 369.71C125.448 369.65 125.528 369.62 125.598 369.629C125.928 369.709 126.228 369.779 126.548 369.859C127.658 370.019 128.768 370.25 129.898 370.58C132.568 371.37 135.238 372.62 137.548 374.17C139.728 375.629 141.898 377.149 143.798 378.969C144.468 379.539 145.098 380.159 145.698 380.799C146.668 381.599 147.608 382.419 148.508 383.229C149.608 384.239 150.678 385.279 151.698 386.359C153.298 388.209 154.548 390.27 155.448 392.54C155.808 393.269 155.368 393.71 154.628 393.58C154.298 393.53 153.848 393.289 153.388 392.969C153.458 393.139 153.538 393.29 153.608 393.46C153.997 394.229 153.667 394.779 152.777 394.489C152.728 394.459 152.678 394.429 152.638 394.399C153.098 395.219 153.518 396.059 153.878 396.939C154.268 397.719 153.918 398.259 153.038 397.96C152.578 397.7 152.138 397.399 151.718 397.069C151.908 397.489 152.107 397.9 152.277 398.33C152.677 399.12 152.218 399.529 151.438 399.349C150.768 398.979 150.147 398.539 149.568 398.029C149.478 397.959 149.397 397.879 149.318 397.809C149.577 398.459 149.088 398.859 148.438 398.729C147.518 398.549 145.788 396.999 145.368 396.179C145.338 396.129 145.318 396.079 145.288 396.029C144.798 395.699 144.268 395.239 143.868 394.799C143.548 395.259 142.928 395.599 142.648 395.04C141.808 392.75 140.498 390.789 138.708 389.139C137.688 387.649 136.448 386.38 134.998 385.33C134.218 384.67 133.408 384.039 132.578 383.439C131.108 382.769 129.578 382.26 127.978 381.92C127.658 381.82 127.328 381.759 127.008 381.67C126.298 381.54 125.598 381.409 124.888 381.309C121.998 380.909 119.098 380.839 116.198 381.099C115.678 381.119 115.178 380.719 114.958 380.259C114.308 380.289 113.668 380.319 113.018 380.379C111.948 380.419 112.178 378.91 112.987 378.759C114.007 378.569 115.028 378.429 116.027 378.309C116.008 378.219 115.998 378.12 116.018 378.04C114.188 377.95 112.367 377.989 110.527 378.179C109.728 378.219 110.678 376.739 111.118 376.659C111.318 376.619 111.518 376.599 111.728 376.559C111.708 376.529 111.698 376.509 111.688 376.479H111.536C110.493 376.422 109.829 374.772 111.108 374.54C111.438 374.48 111.758 374.439 112.078 374.379C112.018 374.21 112.008 374.059 112.067 373.92C111.498 373.91 110.938 373.909 110.368 373.909C110.678 373.888 110.908 372.551 111.277 372.5C111.567 372.46 111.868 372.419 112.158 372.379C112.178 372.01 112.738 371.15 112.978 371.099C114.878 370.779 116.738 370.559 118.578 370.489C118.758 370.069 119.018 369.51 119.268 369.509Z" fill="black"/>
</g>
</svg>
