<svg width="484" height="567" viewBox="0 0 484 567" fill="none" xmlns="http://www.w3.org/2000/svg">
<g id="head/doctor-nurse-2">
<path id="background" fill-rule="evenodd" clip-rule="evenodd" d="M432.69 196.993C430.415 192.497 429.816 193.18 433.746 189.193C448.177 167.475 412.023 150.721 417.697 127.777C421.279 104.249 394.355 96.0535 382.188 78.2705C373.881 56.5375 369.408 39.6855 343.529 40.5785C327.106 37.6665 309.996 55.6365 296.568 48.5525C291.722 45.0375 290.552 40.2425 288.815 35.9525C274.177 -7.28849 222.103 15.7265 200.997 44.5795C192.426 57.0445 173.433 60.0355 161.387 48.4885C138.708 31.0215 106.915 45.9075 100.497 72.4235C91.3316 100.793 75.1686 106.531 47.6076 105.681C18.4766 111.912 20.7986 147.673 39.3806 164.991C55.1366 194.981 8.35959 197.708 17.4536 236.255C19.4466 246.467 24.0326 257.055 30.3446 266.335C31.1356 271.652 33.0026 276.78 35.7346 281.417C36.9916 283.549 38.4666 285.569 40.0446 287.477C39.7176 287.645 39.3976 287.824 39.0946 288.031C35.4486 290.507 33.6946 295.083 34.9916 299.354C35.3906 300.671 36.0656 301.898 36.9356 302.973C34.2726 303.625 31.7416 304.642 29.6636 305.846C23.0396 309.681 19.0356 317.03 18.2996 324.523C4.45059 344.098 3.34759 376.449 22.5286 389.434C31.9656 395.991 44.6986 399.54 49.9176 411.783C54.5116 423.095 46.1986 431.819 51.1186 442.421C67.3956 478.754 126.936 468.265 149.866 444.897C186.502 499.964 256.622 501.503 316.262 505.557C392.693 502.038 441.128 401.909 417.285 335.964C417.285 335.964 416.404 333.439 416.407 333.439C424.389 308.97 415.643 280.741 416.136 255.393C438.503 254.635 442.167 213.339 432.69 196.993Z" fill="white"/>
<path id="&#226;&#156;&#139; Skin" fill-rule="evenodd" clip-rule="evenodd" d="M143.104 340.028C142.703 337.569 144.064 334.928 147.203 335.248C161.024 336.618 174.844 338.449 188.474 341.139C219.712 343.52 171.109 423.731 161.583 436.19C149.54 448.863 142.933 395.784 142.133 388.508L141.712 382.34C140.771 368.245 140.118 353.868 143.104 340.028ZM149.373 298.056C174.96 195.107 318.345 130.277 406.693 195.248C410.243 198.788 404.743 204.278 401.193 200.748C399.483 199.059 397.673 197.489 395.773 196.038C420.137 229.698 411.261 275.035 416.003 314.059C422.105 319.543 414.982 326.902 408.293 324.288C396.083 321.248 384.233 317.378 371.823 315.028C354.825 311.871 337.401 310.999 320.233 313.348C312.651 323.072 288.214 325.925 275.983 329.638C246.918 336.955 216.352 337.776 187.343 329.767C173.734 327.513 160.241 321.266 146.759 319.029C142.257 318.637 144.194 313.212 145.439 310.647L145.535 309.788C146.004 305.745 146.8 301.3 149.373 298.056Z" fill="#B7B5B5"/>
<path id="&#240;&#159;&#152;&#183; Face Mask" fill-rule="evenodd" clip-rule="evenodd" d="M422.588 354.647C420.472 330.784 396.027 321.607 375.119 320.547C357.569 315.241 338.794 317.757 321.391 322.583C287.734 327.361 255.403 338.952 221.455 342.155C215.594 335.953 205.243 336.329 197.248 334.217C173.766 329.095 150.452 323.232 127.17 317.274C111.639 313.311 96.2292 308.936 80.7842 304.659C67.4802 299.4 50.4052 299.9 40.2322 289.124C39.1122 288.107 37.4072 289.408 38.1262 290.829C28.4992 308.601 184.661 341.902 203.034 345.468C208.139 371.871 193.726 401.033 180.334 423.203C177.489 427.219 174.296 430.983 170.848 434.495C167.108 437.836 153.992 447.329 164.285 450.005C174.898 472.096 199.846 480.886 222.242 486.288C262.421 500.508 306.064 509.198 346.135 489.696C377.275 480.357 388.655 465.571 401.716 436.866C414.283 411.442 426.143 383.592 422.588 354.647Z" fill="white"/>
<path id="&#240;&#159;&#150;&#141; Ink" fill-rule="evenodd" clip-rule="evenodd" d="M250.478 6.18111C263.396 5.03911 277.799 9.32011 286.569 19.2221C290.231 23.3563 292.218 28.0606 294.117 33.0318L295.728 37.2869C296.666 39.742 297.85 42.5234 299.952 44.0031C303.328 46.3821 307.605 43.6321 310.763 42.1341C331.807 32.1481 365.496 29.2841 378.697 53.1131C382.672 60.2881 383.356 68.8291 387.56 75.8481C390.449 80.6716 394.946 84.3994 399.363 87.8525L402.535 90.3244C412.667 98.2654 421.969 106.463 423.691 120.106C424.734 128.372 422.848 137.34 426.419 145.132C429.771 152.446 436.082 157.897 439.911 164.899C444.817 173.87 445.327 187.252 438.327 195.048C449.132 216.721 444.682 244.544 427.206 261.594C425.866 262.901 424.366 263.454 422.911 263.464L423.313 270.483C423.651 276.331 424.005 282.179 424.469 288.015C425.14 296.456 425.761 304.911 425.927 313.379L425.952 314.704C426.074 321.74 425.99 328.282 423.261 334.834C432.651 361.773 430.599 393.84 422.513 420.579C414.834 445.975 399.864 468.884 379.604 486.023C369.406 494.65 358.088 502.462 345.795 507.789C334.691 512.601 323.29 514.166 311.241 513.643C296.326 512.996 281.384 511.386 266.558 509.591L259.041 508.671C245.57 507.009 232.024 505.197 218.871 501.872C204.701 498.29 191.276 492.417 179.143 484.254L177.666 483.254C166.829 475.867 155.875 467.28 148.184 456.6C143.518 460.931 137.287 464.01 131.808 466.169C120.354 470.681 107.515 473.204 95.253 473.929C74.411 475.16 52.114 466.872 43.973 446.163C42.272 441.835 41.538 437.242 41.944 432.599C42.432 427.04 45.153 421.141 42.839 415.698C38.614 405.754 25.793 402.213 17.736 396.241C0.422016 383.409 -3.74898 359.96 3.19302 340.339C6.56002 330.821 12.168 321.622 18.577 313.83C22.975 308.483 28.895 304.409 35.432 303.963C31.703 298.938 31.9 289.102 36.804 286.606C32.264 282.593 28.312 277.999 24.905 272.704L24.0821 271.419C17.6499 261.316 11.5964 250.372 9.89002 238.422C7.93302 224.719 10.302 209.44 19.662 198.747C26.964 190.403 41.056 182.597 32.877 169.977C28.548 163.299 23.244 158.222 20.222 150.63C17.305 143.301 16.477 135.308 18.071 127.568C20.871 113.981 31.988 102.404 45.758 99.9691C54.289 98.4601 63.256 100.224 71.648 97.9931C77.719 96.3781 82.223 92.2481 85.542 87.0481C92.159 76.6791 94.936 64.3431 101.734 54.0631C109.658 42.0801 122.416 35.6891 136.705 35.3121C143.969 35.1201 151.442 36.4061 157.953 39.6901C164.558 43.0201 170.756 49.4701 178.348 50.4031C185.246 51.2501 190.961 45.4561 195.311 40.9191C200.266 35.7491 205.007 30.5081 210.419 25.7881C221.775 15.8861 235.148 7.53411 250.478 6.18111ZM374.579 322.464C360.854 319.866 346.619 319.466 332.764 321.258C307.631 324.509 284.319 335.433 259.464 339.966C239.954 343.524 220.203 342.153 200.782 338.845C202.936 343.636 203.246 350.525 202.368 356.501C202.623 370.22 199.516 383.919 194.166 396.806C190.046 406.727 184.478 416.032 177.986 424.579C174.75 428.84 171.307 432.935 167.611 436.806C165.82 438.681 163.977 440.503 162.08 442.271C161.136 443.151 160.18 444.02 159.21 444.873L158.613 445.388C170.498 453.337 180.247 464.074 192.418 471.775C205.004 479.739 218.67 484.425 233.202 487.424C246.396 490.148 259.813 491.949 273.189 493.552L282.851 494.702C293.829 496.002 304.91 497.214 315.919 497.401C338.419 497.784 358.712 484.731 374.902 470.079C393.269 453.456 408.117 432.671 416.127 409.104C419.335 399.667 421.513 389.878 422.661 379.975C422.837 372.794 422.901 365.622 421.939 358.372C421.241 353.116 420.137 347.966 418.515 342.915C417.954 341.17 417.148 339.497 416.304 337.839C415.19 337.45 414.22 336.752 413.652 335.763L413.526 335.724L408.877 333.773C397.679 329.095 386.685 324.757 374.579 322.464ZM38.3572 306.401C28.5902 307.922 21.9942 319.261 17.6082 327.118C12.1262 336.938 8.03518 347.214 8.51018 358.663C8.86918 367.298 11.9522 376.245 17.5772 382.885C23.8142 390.245 33.0772 393.202 40.7572 398.644C47.5092 403.429 53.3982 410.224 54.0562 418.808C54.4342 423.753 52.7402 428.423 52.4152 433.3C52.1542 437.207 52.9012 441.154 54.4992 444.727C62.7102 463.083 85.4762 465.716 102.977 463.213C111.801 461.951 120.891 459.994 129.195 456.689C132.921 455.207 136.613 453.292 139.766 450.797C140.474 450.236 141.136 449.632 141.773 449.005C140.614 446.913 139.707 444.615 138.846 442.905C136.349 437.94 134.171 432.802 132.287 427.575C128.535 417.16 126.053 406.311 124.461 395.366C122.832 384.167 122.029 372.898 121.996 361.583C121.98 356.143 122.016 350.698 122.451 345.276L122.579 343.798C122.826 341.163 122.972 338.395 123.468 335.735C102.676 330.599 82.2423 324.164 62.2148 316.496L59.1627 315.315C54.7166 313.565 47.7909 310.626 42.3002 306.806C40.8182 307.092 39.5042 306.913 38.3572 306.401ZM128.188 336.876C128.345 338.795 128.365 340.739 128.428 342.653L128.473 343.798C128.732 349.441 128.714 355.089 128.917 360.735C129.307 371.636 130.033 382.587 131.686 393.374C133.32 404.035 135.812 414.588 139.486 424.737C141.337 429.852 143.512 434.84 146.029 439.663C146.454 440.481 146.992 441.327 147.555 442.194C147.639 442.058 147.732 441.929 147.822 441.796L147.203 439.824C147.098 439.497 146.991 439.172 146.88 438.849C145.204 433.951 143.686 428.998 142.339 423.999C139.762 414.449 137.766 404.718 136.546 394.899C135.253 384.494 134.758 373.98 135.012 363.499L135.11 359.558C135.299 352.829 135.708 345.406 137.702 339.031C134.523 338.342 131.352 337.626 128.188 336.876ZM141.158 339.768C141.753 347.828 140.556 356.447 140.609 364.404C140.674 374.324 141.424 384.229 142.856 394.046C144.286 403.86 146.253 413.571 148.91 423.129C150.181 427.701 151.6 432.232 153.146 436.72C153.771 436.218 154.394 435.712 154.991 435.183C159.077 431.572 162.94 427.712 166.557 423.633C173.529 415.772 179.5 407.019 184.285 397.665C192.164 382.265 196.526 365.484 197.127 348.331C189.586 348.05 181.936 346.794 174.45 345.647L171.651 345.224C162.707 343.897 153.797 342.339 144.933 340.552C143.673 340.298 142.416 340.032 141.158 339.768ZM293.355 370.029C296.341 369.357 299.388 372.615 297.537 375.468C291.556 384.693 276.929 388.267 266.699 389.717C254.852 391.396 243.368 390.072 232.114 386.031C231.511 385.814 231.554 384.748 232.276 384.834C242.962 386.106 253.978 385.175 264.362 382.348C269.466 380.959 274.521 379.148 279.255 376.782C283.911 374.455 288.215 371.186 293.355 370.029ZM101.598 355.529L104.578 355.556C107.086 355.599 109.701 355.818 111.591 357.624C117.782 363.538 107.939 369.902 103.912 373.285L103.783 373.394C98.0918 378.235 91.1828 386.64 83.1578 386.765C80.8198 386.802 79.1388 384.461 79.7228 382.256C81.2558 376.464 86.7408 373.384 91.3288 370.09L99.2968 364.37C100.151 363.757 101.487 363.046 102.763 362.267L102.196 362.215C96.9196 361.754 86.9936 361.577 85.0386 361.561L84.8548 361.56C77.8738 361.532 70.8498 361.785 63.8968 362.399C62.9168 362.486 62.7948 360.998 63.6728 360.742C72.2388 358.247 80.7598 356.659 89.6538 355.976C93.6289 355.67 97.6127 355.52 101.598 355.529ZM374.546 363.383C374.317 363.113 374.613 362.656 374.944 362.868C375.866 363.458 378.356 364.026 379.492 364.648L382.812 366.481C383.366 366.785 383.921 367.088 384.477 367.387C388.091 369.331 391.878 370.837 395.774 372.114C399.839 373.445 404.029 374.441 408.287 374.903C411.948 375.299 415.3 375.307 418.796 376.649C421.502 377.687 421.498 381.127 418.796 382.163C410.914 385.187 400.629 381.347 393.26 378.178C389.261 376.458 385.497 374.218 381.982 371.655C380.28 370.415 378.688 369.112 377.213 367.602C375.902 366.262 375.712 364.758 374.546 363.383ZM38.136 289.323C37.47 290.577 37.047 291.921 36.867 293.364C37.1 300.602 47.796 305.045 54.339 307.704C66.946 312.825 80.124 316.925 93.118 320.909C103.867 324.206 114.722 327.155 125.661 329.753C125.978 329.573 126.435 329.621 126.609 329.974C132.96 331.47 139.338 332.851 145.74 334.11C154.313 335.794 162.927 337.265 171.573 338.518C180.055 339.749 188.691 340.284 197.158 341.585C197.133 340.452 197.09 339.32 197.032 338.186C192.635 337.382 188.256 336.492 183.904 335.542C158.471 329.988 133.144 323.238 108.123 316.011L96.27 312.571C86.2456 309.658 76.223 306.719 66.276 303.565C56.189 300.368 46.184 296.309 38.136 289.323ZM352.763 174.835C320.714 168.544 287.37 171.595 256.792 182.93C227.241 193.884 201.169 212.964 181.318 237.391C171.783 249.125 163.734 262.182 157.261 275.839C150.708 289.664 147.088 304.149 142.588 318.653C161.2 323.382 179.895 327.952 198.75 331.321C211.97 333.683 225.406 335.204 238.854 334.84C251.732 334.49 264.213 331.772 276.552 328.222C300.235 321.404 323.246 312.798 348.21 312.489C369.529 312.225 393.632 316.312 412.59 327.011C412.442 321.466 412.799 315.928 412.697 310.296C412.544 301.802 412.001 293.321 411.436 284.848C410.355 268.625 410.452 252.238 408.701 236.077L408.542 234.658C406.983 221.162 403.927 207.167 395.551 196.161C385.14 182.481 368.838 177.991 352.763 174.835ZM353.158 151.44C304.322 135.275 245.999 149.043 205.609 179.735C183.765 196.335 166.335 217.167 153.317 241.293C146.601 253.741 141.287 266.88 137.092 280.383C133.546 291.798 131.427 303.517 128.83 315.147L139.235 317.804C140.094 300.559 146.678 283.115 153.945 267.657C161.53 251.524 171.707 236.597 183.627 223.354C206.186 198.294 235.612 180.153 267.955 170.718C299.907 161.397 337.698 158.989 369.636 169.741C384.958 174.898 398.622 182.466 407.701 196.156C397.793 173.809 375.911 158.973 353.158 151.44ZM264.721 16.6962C250.547 12.8162 236.609 17.8862 224.899 25.9462C218.792 30.1492 213.131 35.1772 207.966 40.4872C203.639 44.9362 199.656 49.6912 194.698 53.4752C189.986 57.0722 184.406 59.6722 178.348 59.2822C171.512 58.8432 165.624 54.9742 160.012 51.4152C153.568 47.3312 147.454 44.7632 139.733 44.5102C132.517 44.2742 125.157 45.6242 118.94 49.4362C108.622 55.7652 104.426 68.1422 99.8803 78.6972L99.224 80.2073C95.1661 89.4526 90.185 98.9176 81.0853 104.04C67.6193 111.624 50.4933 104.21 37.8183 113.202C25.1553 122.186 23.4883 140.28 31.0843 153.097C37.3103 163.601 48.3533 172.776 41.9563 186.093C37.2863 195.813 26.5233 200.646 21.6183 210.198C14.8003 223.476 16.1873 240.372 22.6543 253.487L24.2828 256.783C28.1158 264.501 32.2452 272.328 38.0053 278.714C45.1183 286.602 54.1493 292.888 63.1523 298.636C66.8467 299.656 70.5769 300.576 74.2928 301.505L77.0763 302.205C91.5613 305.882 106.089 309.383 120.577 313.046L125.848 314.388C125.032 299.71 128.347 284.585 132.573 270.691C137.324 255.073 144.31 239.78 152.825 225.862C183.246 176.144 236.133 142.807 294.023 136.199C342.336 130.684 399.832 147.849 418.395 197.196C420.105 201.744 414.719 204.252 411.315 202.313C417.614 214.565 420.173 228.513 421.412 242.134C421.59 244.101 421.753 246.071 421.904 248.042C433.304 233.522 434.651 212.485 424.69 196.632C422.984 193.917 423.941 189.696 426.762 188.079L426.961 187.97C431.5 185.638 431.602 180.069 430.182 175.679C428.086 169.196 423.335 163.829 419.568 158.288C415.174 151.821 412.52 145.034 412.001 137.198C411.511 129.796 413.186 121.702 409.98 114.731C407.755 109.892 403.658 106.191 399.625 102.839L399.208 102.493C389.492 94.4582 379.472 87.6452 374.742 75.4172C372.148 68.7062 371.291 61.0792 366.671 55.3152C363.309 51.1232 358.493 48.5292 353.381 47.1262C341.819 43.9512 329.394 46.3162 318.335 50.2682L317.6 50.5371C311.23 52.9129 304.992 56.3834 298.072 53.8932C292.685 51.9562 289.669 47.0972 287.583 42.0542C285.377 36.7202 284.093 30.8922 280.386 26.3202C276.446 21.4622 270.682 18.3272 264.721 16.6962ZM38.7681 288.27L38.6621 288.421C39.1281 288.724 39.5921 289.028 40.0641 289.317C39.6241 288.975 39.1971 288.621 38.7681 288.27ZM80.6164 195.953L84.7192 195.672C103.175 194.439 125.169 193.674 140.175 205.667C143.064 207.978 144.156 211.794 141.295 214.666C138.23 217.741 133.078 216.96 129.14 217.054L126.167 217.125C121.525 217.248 116.826 217.469 112.297 218.389C107.759 219.312 102.803 222.026 98.1584 220.884C96.6594 220.516 95.7544 218.823 96.1614 217.366C98.0734 210.523 107.554 208.935 113.526 208.14C117.612 207.597 121.674 207.462 125.791 207.522C126.71 207.535 127.628 207.567 128.547 207.592C126.707 206.569 124.807 205.665 122.862 204.86C118.683 203.132 114.368 201.81 109.956 200.826C100.327 198.682 90.4414 198.078 80.6164 197.547C79.5864 197.491 79.5964 196.025 80.6164 195.953ZM107.314 122.917L107.412 122.931C123.643 126.22 137.277 134.914 151.835 142.295C155.194 143.998 158.605 145.606 162.118 146.966L163.646 147.545C165.904 148.425 173.919 151.737 175.139 150.538C175.483 150.201 168.098 142.455 167.322 141.459L166.436 140.315C164.404 137.66 162.688 135.058 162.811 131.523C162.881 129.507 165.081 128.076 166.902 129.175C171.605 132.012 173.864 138.014 177.57 142.009L177.93 142.392C180.546 145.144 183.826 148.037 182.86 152.234C180.832 161.048 168.262 156.065 163.073 154.063C143.194 146.393 127.06 131.443 107.088 124.107C106.386 123.848 106.615 122.865 107.314 122.917ZM343.107 68.6975C344.418 68.5335 345.22 69.2915 345.295 70.5225C345.328 71.0745 344.603 71.1665 344.334 70.7815C344.252 70.6655 342.993 76.5245 342.938 77.0355C342.804 78.2685 342.724 79.5045 342.607 80.7385L342.335 83.5408C342.155 85.4082 341.988 87.2755 341.896 89.1535C341.642 94.3327 341.646 99.569 341.96 104.752L342.053 106.164C342.065 106.339 342.273 107.63 342.497 109.1C342.796 108.177 343.075 107.249 343.319 106.313C344.522 101.71 343.82 96.6395 347.126 92.9855C349.057 90.8525 352.226 91.7485 353.678 93.8295C356.105 97.3087 354.995 102.367 353.765 106.583L352.8 109.783C351.624 113.655 350.114 118.209 346.974 120.809C343.873 123.38 339.488 123.501 336.548 120.634C333.712 117.871 333.657 113.634 333.575 109.949C333.324 98.6323 334.722 87.0655 338.636 76.4024L338.95 75.5625C339.631 73.7765 340.542 69.0185 343.107 68.6975ZM213.224 62.0207C218.401 55.9679 225.958 77.586 227.404 81.778L228.55 85.1003C231.544 93.7307 234.992 102.875 241.487 109.251C240.966 106.098 239.677 102.79 239.191 100.161L238.975 98.9739C238.158 94.405 237.509 89.6217 238.358 85.0687C238.644 83.5297 240.163 82.1537 241.638 81.7877C242.53 81.5677 243.243 81.5587 244.135 81.7877C245.654 82.1797 247.065 83.5137 247.415 85.0687C248.829 91.3627 248.768 97.9867 250.091 104.366L250.256 105.184C251.273 110.348 251.643 115.212 248.947 120.001C247.733 122.157 244.708 122.96 242.593 121.667C233.589 116.163 228.069 107.324 224.703 97.5107C223.1 92.8374 221.882 88.0058 220.752 83.1851L219.948 79.7372C219.032 75.931 215.583 62.2244 214.019 63.0517C213.338 63.4107 212.746 62.5787 213.224 62.0207Z" fill="black"/>
</g>
</svg>
