<svg width="490" height="567" viewBox="0 0 490 567" fill="none" xmlns="http://www.w3.org/2000/svg">
<g id="head/doctor-nurse-3">
<path id="background" fill-rule="evenodd" clip-rule="evenodd" d="M325.785 532.983C289.628 532.983 242.842 505.173 214.862 488.535C214.626 488.389 214.237 488.156 213.82 487.906C213.31 487.6 212.751 487.266 212.482 487.094L211.181 486.262L207.675 486.032C204.302 485.816 200.883 485.46 197.212 484.941L196.146 484.79L195.095 485.019C194.809 485.082 194.495 485.16 194.167 485.244C193.954 485.298 193.654 485.376 193.467 485.415H193.46C193.284 485.345 192.852 485.143 192.107 484.597L191.114 483.871L189.916 483.592C182.354 481.841 176.866 479.799 172.123 476.971L171.199 476.42L170.141 476.224C159.997 474.35 148.849 453.247 142.86 441.91C141.912 440.116 141.039 438.463 140.248 437.017L137.518 432.026L132.389 434.486C125.32 437.878 117.893 439.597 110.316 439.598C84.3552 439.6 59.1572 419.355 50.4002 391.46L50.3672 391.357C46.3402 379.29 46.2402 366.381 46.1662 354.976C46.8442 338.48 44.6022 320.143 23.1682 308.905C8.19418 299.963 1.65518 288.837 4.75118 277.563C8.78518 262.879 27.7152 251.805 48.7842 251.805C49.8662 251.805 50.9662 251.834 52.0542 251.889L57.6202 252.175L58.3152 246.645C59.4542 237.581 60.4202 234.928 66.6362 231.693L69.8742 230.007L69.8652 226.356C69.8182 207.615 63.5572 190.28 57.5032 173.516C48.6762 149.075 40.3382 125.988 52.2962 101.163C66.0652 75.398 89.2312 54.14 119.298 39.679C147.427 26.151 180.177 19 214.008 19C241.16 19 267.635 23.751 290.571 32.737L290.722 32.795C349.152 53.891 417.047 106.287 428.094 171.492C432.016 199.117 427.698 227.403 423.496 248.967L423.422 249.346C423.086 249.785 422.39 250.484 421.946 250.93C421.175 251.706 420.377 252.506 419.685 253.444L417.968 255.767L418.714 258.559C426.908 289.214 429.878 317.251 427.543 341.889L427.408 343.309L427.927 344.636C431.406 353.553 430.838 362.341 430.181 372.516C429.864 377.416 429.537 382.481 429.671 387.823C429.736 423.421 420.626 458.989 404.673 485.411C391.678 506.935 367.723 532.657 327.399 532.965C326.808 532.978 326.295 532.983 325.785 532.983Z" fill="white"/>
<path id="&#226;&#156;&#139; Skin" fill-rule="evenodd" clip-rule="evenodd" d="M426.58 342.019C419.344 301.989 427.696 241.737 399.285 210.537C392.592 181.621 386.091 158.972 352.909 153.291C289.474 144.499 221.081 173.368 179.318 221.247C132.779 267.641 107.565 457.629 185.411 482.544C189.814 483.915 196.162 481.716 198.21 477.335C218.344 438.45 229.327 396.35 240.018 354.228C273.105 362.58 305.752 347.644 338.284 343.048C356.791 339.97 375.715 340.795 393.783 345.906C401.059 347.964 409.957 352.355 416.884 347.81C420.905 349.575 427.221 347.262 426.58 342.019Z" fill="#B7B5B5"/>
<path id="&#240;&#159;&#152;&#183; Face Mask" fill-rule="evenodd" clip-rule="evenodd" d="M431.789 373.007C431.206 368.179 430.209 363.018 426.869 359.274C424.277 350.004 410.643 351.19 403.043 348.323C380.22 343.507 356.563 341.712 333.499 345.899C317.56 347.893 302.278 352.604 286.768 356.51C272.029 360.097 255.53 355.972 241.597 362.435C202.455 342.173 167.072 316.338 131.553 290.407C109.355 275.125 85.358 261.508 68.5 239.964C70.261 235.094 64.116 229.334 60.807 234.823C55.327 245.627 60.723 262.028 73.136 265.007C76.441 269.574 80.247 277.176 86.565 277.259C95.903 285.696 103.071 296.519 115.37 301.129C131.014 311.107 146.418 321.363 162.08 331.297C162.08 331.296 177.943 341.318 177.943 341.318C182.509 344.202 188.241 349.4 193.953 347.692C206.963 355.651 220.61 362.521 233.956 369.892C231.015 395.626 229.869 421.778 218.078 445.505C215.967 453.885 199.806 471.148 204.029 477.521C202.67 477.608 196.155 478.578 197.655 479.964C204.685 480.577 210.702 485.094 216.939 488.048C252.711 504.296 307.86 546.205 347.297 524.253C368.705 523.942 381.613 506.886 394.998 492.883C410.177 477.922 417.458 457.593 422.375 437.31C427.747 416.36 433.71 394.822 431.789 373.007Z" fill="white"/>
<path id="&#240;&#159;&#150;&#141; Ink" fill-rule="evenodd" clip-rule="evenodd" d="M48.4111 99.2471C94.4521 17.1191 208.617 -1.95086 291.731 28.9961C354.355 52.7911 418.464 101.787 431.684 170.82C435.412 196.908 432.075 223.994 427.067 249.701C426.549 252.365 424.031 254.209 421.408 254.598C429.366 283.371 433.97 313.178 431.089 343.002L431.104 343.037C433.459 342.704 435.499 343.258 436.473 345.578C437.218 347.355 436.55 349.922 436.407 351.767C436.205 354.379 436.031 356.994 435.819 359.606C435.595 362.377 434.988 364.904 434.142 367.398C433.816 374.428 433.112 381.483 433.313 387.623C432.461 446.192 410.494 519.268 346.314 534.837C293.364 545.056 242.745 509.996 199.726 483.429C198.722 485.029 197.465 486.5 196.57 487.591C192.534 492.51 185.835 486.331 188.344 481.224L188.24 481.163C196.875 470.877 204.024 459.66 209.916 447.815C212.888 435.548 219.09 424.336 223.113 412.255C225.703 404.48 227.568 396.471 228.028 388.271C228.353 382.5 227.941 376.729 227.879 370.95C227.54 370.484 227.192 370.025 226.832 369.574C218.681 369.156 209.299 362.267 201.753 359.52C181.369 349.722 161.6 338.645 142.591 326.391C140.747 365.072 128.925 407.648 152.844 442.057C157.757 450.318 163.554 458.02 169.943 465.189C172.228 467.918 172.767 470.057 173.82 473.285C174.955 476.766 171.103 481.207 167.419 479.686C154.646 475.71 140.929 448.299 135.4 436.189C112.508 451.281 81.7951 441.69 64.3401 422.938C47.427 405.851 41.1783 381.607 41.8031 358.113L41.8241 357.401C42.5921 328.919 37.5451 322.178 13.8091 307.553C-5.91888 294.265 -3.83388 268.961 15.7591 256.689C27.0811 249.863 42.2761 246.337 55.4071 248.938C53.3611 241.224 55.8741 229.974 64.9991 229.111C64.2201 224.441 64.0421 219.48 64.6491 214.736C59.5551 175.334 28.8791 138.986 48.4111 99.2471ZM375.505 348.938C331.146 339.163 287.824 370.059 243.82 360.098L242.432 360.725C241.049 361.36 239.708 362.069 238.617 363.272C237.303 364.723 236.472 366.469 236.237 368.421C236.087 369.665 236.198 370.49 235.873 371.381C236.077 375.07 236.123 378.762 236.026 382.448C236.821 390.259 235.357 398.706 233.466 406.121C228.499 432.639 216.828 458.166 201.891 480.227C227.967 490.291 251.948 505.089 277.901 515.451C353.703 549.633 408.903 496.474 418.741 421.911C421.704 402.62 422.247 383.057 422.703 363.574C422.74 361.871 422.805 360.158 422.854 358.441C406.147 358.669 391.436 352.002 375.505 348.938ZM56.844 253.617C37.997 253.479 11.82 262.276 10.959 282.27C12.252 299.362 33.846 301.934 43.475 313.291C68.868 342.48 43.371 384.482 78.853 414.758C93.488 428.271 113.023 431.627 130.128 420.619C126 402.125 127.558 383.238 130.778 364.51C130.787 359.695 130.97 354.883 131.399 350.079C131.804 345.532 132.387 341.031 133.084 336.526L133.521 333.742C134.105 329.889 134.615 325.805 136.397 322.338C125.131 314.895 114.179 306.922 103.619 298.563C103.489 300.493 103.396 302.422 103.32 304.351C103.723 307.988 103.593 311.759 103.127 315.244C103.18 333.938 105.014 352.578 105.864 371.26C105.878 374.424 101.449 374.832 100.523 371.982C96.478 359.523 96.155 346.416 96.676 333.416C96.862 328.778 97.228 324.133 97.786 319.508C97.011 314.578 96.908 309.711 96.345 304.709C95.813 299.988 94.44 295.412 93.781 290.725L82.518 281.668C72.638 273.727 61.589 265.771 56.844 253.617ZM66.8229 238.709L66.2742 238.137C64.6456 236.448 62.1295 233.967 61.2475 234.429L61.1719 234.479C61.0389 234.588 60.8709 234.557 60.7729 234.453C54.2739 246.502 66.8129 260.231 76.0229 267.451C120.869 304.684 170.216 336.855 223.958 359.68C225.832 360.188 228.501 361.734 230.135 363.549C230.442 363.514 230.738 363.457 231.017 363.372C231.317 363.215 231.602 363.029 231.854 362.803C177.921 331.996 125.416 296.098 80.6859 252.605C76.7119 249.963 73.3159 247.128 70.6959 243.631C70.6259 243.604 70.5569 243.58 70.4869 243.545C68.6499 242.623 67.5379 240.724 66.8229 238.709ZM372.74 162.571C336.833 148.168 294.382 155.008 258.636 167.23C212.784 183.645 176.885 219.149 154.438 261.692C153.647 263.732 152.864 265.774 152.114 267.83C152.683 272.725 150.111 278.285 149.004 282.898C148.095 286.689 147.823 290.34 147.56 294.205L147.501 295.213C147.466 295.753 147.41 296.261 147.254 296.734C176.244 317.771 206.783 336.584 237.059 355.56C284.435 357.563 327.745 327.188 375.476 335.387C391.094 337.789 406.139 343.906 422.037 344.417C427.852 289.382 407.423 236.824 386.979 186.694L384.55 180.739C381.826 173.997 379.048 166.69 372.74 162.571ZM308.391 46.8482C242.796 16.4912 162.333 15.6622 102.263 55.8442C60.1544 82.7652 38.0504 119.875 60.5364 168.523C67.4484 185.086 71.2434 200.742 69.8584 218.15L70.3724 221.657C70.8306 224.774 71.3195 227.883 72.0614 230.935C73.2944 236.002 76.3484 240.722 79.3464 245.289C99.2084 260.548 118.938 275.992 139.145 290.783C159.091 191.497 270.123 126.502 367.138 150.02C373.629 151.385 378.689 154.647 382.753 158.978C387.877 161.405 392.682 164.477 396.593 168.539C398.275 170.286 396.012 173.489 393.923 171.999C392.489 170.976 391.085 169.916 389.69 168.848C392.268 173.621 394.287 178.805 396.038 183.833C403.024 200.802 409.809 217.798 415.534 235.24L416.343 229.788C419.444 208.692 422.09 187.447 417.993 166.257C402.969 116.537 366.212 77.3872 320.689 52.9942C316.878 52.5822 313.081 52.0122 309.235 51.8282C303.329 51.5452 297.429 51.7342 291.532 51.3032C291.034 51.2662 290.986 50.6522 291.419 50.4752C296.422 48.4172 302.371 47.1782 308.391 46.8482ZM228.866 119.162C254.937 109.523 283.774 102.495 311.628 105.449C314.734 106.275 315.04 111.413 311.628 112.049C304.271 113.418 296.225 112.373 288.728 112.877C224.619 115.645 167.354 156.468 129.939 202.293C151.343 163.786 188.227 135.16 228.866 119.162ZM143.199 81.9396L145.319 80.8769C156.559 75.278 169.476 69.5462 182.14 71.6976C185.764 72.3126 185.674 77.2796 183.092 78.9806C172.91 85.6845 160.154 87.9182 149.122 93.0343L148.231 93.4556C114.033 109.371 88.6408 139.115 70.1888 171.329C69.8798 171.858 69.1398 171.483 69.2468 170.93C77.1128 131.392 108.221 99.9976 143.199 81.9396Z" fill="black"/>
</g>
</svg>
