<svg width="474" height="567" viewBox="0 0 474 567" fill="none" xmlns="http://www.w3.org/2000/svg">
<g id="head/doctor-nurse-2">
<path id="background" fill-rule="evenodd" clip-rule="evenodd" d="M195.321 463.407C189.691 469.142 181.523 464.595 174.561 463.329C114.789 447.061 50.632 397.406 38.704 337.352L32.746 319.986C30.623 316.469 28.99 305.783 29.521 304.883C29.983 304.977 33.324 302.658 33.777 302.77C29.521 271.336 30.336 243.458 42.513 203.514C22.285 189.661 35.929 166.442 56.323 167.76C56.586 154.323 60.377 144.235 71.245 129.991C113.552 77.2207 186.813 56.3697 255.097 60.5107C307.859 62.1927 342.877 74.7557 366.307 100.374C378.278 110.648 387.468 121.855 386.639 136.596L391.966 136.716L392.12 138.864C397.834 136.494 462.277 153.944 463.753 161.062L461.94 163.428C464.363 167.653 464.504 171.065 463.29 176.851C460.979 187.723 463.426 199.497 462.816 210.26C462.262 212.095 453.933 214.052 450.75 214.387C435.406 218.068 419.132 222.268 402.261 224.683C403.092 262.335 398.762 300.88 412.408 337.352L418.525 332.131C428.789 405.819 401.99 516.741 315.88 515.674C273.579 514.856 230.47 484.742 195.321 463.407Z" fill="white"/>
<path id="&#226;&#156;&#139; Skin" fill-rule="evenodd" clip-rule="evenodd" d="M147.878 366.793C141.585 360.198 144.073 343.574 154.614 352.534C157.872 349.823 162.295 350.317 166.188 351.683C176.828 355.607 187.799 358.748 199.171 359.496C203.201 357.461 208.675 359.583 213.365 358.502L213.803 358.391C216.813 357.554 219.502 360.393 218.758 363.345C217.545 366.365 218.082 371.123 215.022 372.899C211.164 389.256 207.076 405.407 203.125 421.727C206.197 427.454 202.57 434.546 201.081 440.468L200.614 442.872C198.374 454.125 193.645 472.556 179.973 462.846C173.344 462.461 166.923 459.852 162.306 454.912C157.476 450.128 159.887 444.211 157.837 438.706L157.213 435.92C152.142 413.162 147.703 390.274 147.878 366.793ZM147.914 286.498C149.076 279.52 152.659 212.224 165.821 227.948L165.842 227.945C165.812 227.443 165.888 227.575 166.001 227.963C166.151 227.994 166.281 228.076 166.389 228.185C196.643 226.481 226.507 234.487 256.748 235.316C288.306 238.243 320.596 235.486 351.843 236.326C368.104 234.185 384.223 231.551 399.951 226.805C404.01 225.644 406.051 230.418 404.04 233.084C407.235 250.01 402.315 267.586 404.067 284.768C404.601 298.45 405.934 312.178 407.588 325.662C409.731 333.711 399.533 341.95 395.333 332.567C347.196 312.502 319.985 323.522 272.575 334.823C273.278 341.783 218.667 344.379 215.009 339.066C195.474 338.227 175.899 336.386 156.656 332.852C148.386 332.554 145.9 326.89 148.763 319.67C148.665 308.366 145.875 297.942 147.914 286.498Z" fill="#B7B5B5"/>
<path id="&#240;&#159;&#152;&#183; Face Mask" fill-rule="evenodd" clip-rule="evenodd" d="M408.714 339.589C368.357 327.163 325.009 321.189 285.097 338.083C271.692 341.276 258.066 343.788 244.28 344.526C237.459 345.117 229.206 342.898 223.359 347.245C183.819 342.312 146.638 333.783 107.917 324.396C102.12 322.991 81.9065 315.913 76.7715 315.027C62.5357 312.572 23 289.581 26.1353 311.422C25.7133 318.475 28.2393 325.15 36.0553 326.011C97.4353 338.176 158.43 352.17 220.869 358.971C221.568 361.287 222.651 363.538 223.648 365.743C218.637 396.598 209.522 426.814 199.158 456.272C179.583 467.571 221.285 481.523 230.239 484.059C238.084 489.048 246.272 493.481 254.473 497.85C280.054 513.002 312.263 526.57 340.102 508.92C352.891 504.782 363.419 496.691 372.505 487.198C401.694 453.421 422.851 391.224 414.37 347.031C414.001 344.323 412.536 337.501 408.714 339.589Z" fill="white"/>
<path id="&#240;&#159;&#150;&#141; Ink" fill-rule="evenodd" clip-rule="evenodd" d="M462.543 173.36C458.694 185.26 457.097 198.47 458.293 211C332.633 244.43 200.437 236.738 76.043 201.589C81.941 192.739 83.426 180.753 79.223 170.91C181.959 208.224 295.666 211.575 402.863 194.232C422.033 190.97 448.143 188.339 462.573 173.27C462.563 173.3 462.553 173.33 462.543 173.36ZM156.402 228.151C146.968 260.942 142.111 295.512 141.642 329.561C138.392 328.941 135.132 328.291 131.882 327.621C131.373 292.154 131.298 256.549 127.172 221.291C137.008 223.688 146.716 225.814 156.582 227.791C156.512 227.901 156.452 228.021 156.402 228.151ZM202.273 452.411C209.975 426.409 219.094 399.743 221.695 372.562C222.095 369.548 222.286 366.5 222.312 363.397C222.45 359.758 222.451 356.11 222.308 352.454C222.545 351.345 222.798 350.362 223.428 349.546C223.761 349.337 224.052 349.054 224.284 348.727C224.466 348.596 224.66 348.47 224.882 348.354C229.214 346.07 237.254 348.434 242.153 348.664C252.804 349.163 264.147 349.423 274.308 345.768C274.712 345.624 274.996 345.373 275.181 345.08C304.065 339.54 332.958 328.248 362.213 334.712C378.925 337.446 397.605 347.214 414.583 343.132C413.987 364.677 413.744 386.341 410.443 407.68C400.613 482.237 345.403 535.417 269.602 501.218C244.915 491.228 221.833 477.656 197.273 467.34C200.073 463.141 201.173 455.921 202.273 452.411ZM149.304 383.58C148.522 374.343 148.296 365.061 148.094 355.8C170.48 358.138 193.799 362.629 216.074 361.256C216.002 363.021 215.923 364.667 215.945 366.036C215.952 366.486 215.962 366.934 215.971 367.383C209.744 399.443 199.723 430.703 188.234 461.24C180.216 459.631 172.267 457.618 164.534 454.94C156.309 431.927 151.106 407.981 149.304 383.58ZM131.922 345.44C131.932 341.94 131.932 338.44 131.922 334.94C159.188 340.893 186.84 344.929 214.613 347.562C215.445 349.306 215.869 351.411 216.051 353.638C215.581 353.482 215.092 353.394 214.622 353.381C186.902 352.36 159.312 349.679 131.922 345.44ZM143.533 355.16C140.297 390.453 143.932 418.179 153.653 450.83C145.343 447.32 137.313 443.11 129.643 438.36C130.903 410.04 131.683 381.69 131.873 353.339C135.753 353.98 139.643 354.589 143.533 355.16ZM404.323 329.92C389.983 328.557 376.382 323.339 362.183 321.16C314.255 312.896 270.724 343.657 223.143 341.27C220.923 339.461 217.193 339.82 214.543 339.599C192.857 337.757 171.225 334.898 149.803 331.07C152.414 296.972 154.75 262.381 159.353 228.33C239.763 244.133 323.005 245.065 403.793 231.4C397.419 263.843 396.178 297.687 404.323 329.92ZM446.733 354.831C446.743 408.238 443.605 461.658 440.113 514.85C342.16 566.842 219.67 557.264 126.203 499.76C127.273 483.771 128.213 467.76 129.013 451.741C140.51 458.654 183.384 478.624 194.873 471.57C215.81 485.368 237.95 497.585 260.653 508.212C363.211 558.864 425.728 469.001 425.021 373.388C424.727 366.79 429.402 326.665 419.373 326.129C418.631 325.844 417.847 325.625 417.145 325.335C416.094 324.898 415.058 324.562 413.958 324.583C405.266 294.208 408.476 261.964 407.893 230.691C420.483 228.53 433.024 225.999 445.443 223.021C444.175 266.95 447.632 310.876 446.733 354.831ZM122.383 325.54C92.6388 318.705 64.1298 307.48 34.3028 300.929C35.0248 271.095 35.3668 240.904 44.3928 212.15C55.2428 216.423 67.2828 212.649 74.3928 203.81C90.4128 211.11 107.563 216.39 124.813 220.7C122.153 255.5 123.063 290.66 122.383 325.54ZM121.972 343.83C92.482 339.162 63.795 331.512 34.662 325.089C34.482 324.79 34.112 324.62 33.692 324.86C32.641 325.069 31.458 324.718 30.382 324.82C27.189 320.129 27.799 314.378 27.161 309.25C27.142 306.06 26.222 304.259 29.612 304.78C60.964 312.436 90.7449 325.508 122.232 332.75C122.142 336.44 122.062 340.131 121.972 343.83ZM118.883 431.19C86.0071 408.993 64.2961 375.816 44.4381 342.349C43.1961 338.363 41.5451 334.463 39.5421 330.983C39.2781 330.523 38.9981 330.069 38.7051 329.626C65.3621 340.217 93.6811 346.138 121.773 351.58C121.083 378.131 120.153 404.67 118.883 431.19ZM41.0937 174.24C42.6127 172.576 44.3617 171.22 46.2497 170.134C47.6617 169.891 49.0937 169.693 50.5677 169.56C55.4497 169.122 63.4457 168.92 66.7147 173.338C68.5227 175.78 69.2847 179.47 69.6907 182.91C69.7077 183.357 69.7117 183.802 69.6837 184.25C68.0257 218.015 20.4377 200.037 41.0937 174.24ZM78.3427 166.79C179.098 176.726 281.441 161.388 380.333 142.16C406.189 146.239 433.133 150.049 456.623 163.31C445.153 178.07 420.343 179.849 403.523 182.679C295.173 202.184 184.628 191.349 78.0527 167.07C78.1427 166.97 78.2427 166.881 78.3427 166.79ZM265.813 78.7412C299.425 77.1502 336.175 82.2782 362.722 104.349C371.293 112.884 377.031 123.832 384.892 132.67C284.898 155.83 181.991 162.67 79.6016 165.589C128.289 115 194.847 80.6432 265.813 78.7412ZM469.227 167.498C469.265 167.347 469.298 167.195 469.309 167.034C469.362 166.298 469.341 165.517 469.314 164.779C469.304 164.498 469.282 164.211 469.247 163.925C474.654 152.454 427.223 139.473 406.074 135.389C404.089 134.603 402.018 133.988 400.07 133.361C397.396 132.501 394.632 131.568 391.828 131.234C390.851 117.193 380.497 106.308 369.823 96.8504C340.651 65.0644 296.129 56.7834 254.823 55.4814C185.546 51.5324 111.171 71.5914 66.0728 127.24C58.0538 137.666 51.1128 149.718 50.2228 163.08C28.6238 164.757 16.8978 191.733 35.1728 206.67C26.6778 236.099 22.5018 268.103 30.4498 298.107C29.0078 298.474 27.6268 299.063 26.4418 299.974C26.3988 300.007 26.3628 300.045 26.3218 300.08C20.7948 302.132 23.5148 313.412 24.9328 318.34C25.6988 321.532 27.8288 327.209 31.4198 327.293C34.8658 331.246 37.1878 336.091 39.4488 340.958C49.1608 380.398 85.9298 423.199 118.193 444.91C117.173 464.24 115.963 483.55 114.653 502.849C114.513 504.83 115.833 506.759 117.463 507.75C215.341 568.165 344.178 580.379 446.273 523.099C454.723 525.783 458.256 514.232 452.893 510.461C458.686 414.589 462.965 317.421 449.823 221.99C454.62 220.33 464.863 219.491 467.114 214.771C470.729 206.334 466.711 195.959 467.904 186.839C467.72 180.823 470.615 173.41 469.227 167.498Z" fill="black"/>
</g>
</svg>
