<svg width="473" height="570" viewBox="0 0 473 570" fill="none" xmlns="http://www.w3.org/2000/svg">
<g id="head/Flat Top Long">
<path id="&#240;&#159;&#142;&#168; Background" fill-rule="evenodd" clip-rule="evenodd" d="M242.041 78.2588C298.822 78.2588 381.932 116.175 388.182 152.655C395.547 195.645 411.906 357.298 403 410.197C394.094 463.096 359.365 502.183 282.567 502.183C205.768 502.183 148.447 460.302 135.285 445.922C122.124 431.541 106.176 386.792 106.176 386.792C106.176 386.792 64.1281 379.665 63.9332 346.146C63.7383 312.627 85.0561 302.269 85.0561 302.269C85.0561 302.269 73.5509 163.22 97.7327 128.781C121.914 94.3416 185.261 78.2588 242.041 78.2588Z" fill="#B7B5B5"/>
<path id="&#240;&#159;&#150;&#141; Ink" d="M225.642 0.0160183C236.081 0.186021 246.601 0.575958 257.08 1.43594C257.571 1.38594 258.072 1.34532 258.562 1.29532C278.281 -0.59564 297.972 1.10494 317.682 1.93594C336.461 2.72595 356.291 4.66575 373.151 13.6547C375.319 14.8087 377.157 16.1205 378.724 17.5824C380.921 17.8914 383.016 18.515 384.898 19.5619C390.326 18.465 396.386 20.8968 397.67 27.1957C399.54 36.4256 400.25 45.7343 399.13 55.0951C399.101 55.3141 399.08 55.5456 399.05 55.7855C401.317 64.4696 401.166 73.9539 399.282 82.519C400.076 93.3408 400.529 104.194 400.592 115.029C400.636 122.524 400.97 130.154 400.273 137.627C399.66 144.197 396.955 149.396 392.7 154.386C391.898 155.326 390.543 155.482 389.416 155.254C389.124 155.195 388.871 155.116 388.641 155.021C391.206 160.52 393.234 166.353 395.312 171.925C398.612 180.785 401.811 189.796 404.08 198.976C408.681 217.485 411.711 236.346 413.472 255.335C416.581 289.125 417.751 323.205 418.352 357.125C418.932 389.265 416.101 422.786 397.79 450.266C381.781 474.306 357.401 491.755 330.25 501.175C314.8 506.545 297.691 508.536 281.371 509.026C272.941 509.276 264.491 508.915 256.111 508.045C247.981 507.195 239.571 507.285 233.63 501.125C232 499.435 232.022 495.966 234.432 494.866C239.022 492.776 242.13 492.556 247.161 493.246C251.33 493.814 255.511 494.265 259.71 494.555C268.71 495.185 277.772 495.206 286.772 494.516C303.311 493.246 320.231 488.574 335.25 481.496C358.8 470.376 379.031 452.155 389.951 428.246C402.641 400.496 401.822 368.346 401.232 338.526C400.581 305.826 399.371 273.225 396.531 240.635C395.151 224.835 393.022 209.145 391.102 193.415C390.091 185.056 388.761 176.735 387.13 168.476C386.271 164.105 385.152 159.795 384.232 155.455C383.562 155.564 382.881 155.626 382.182 155.655C378.001 155.796 373.431 154.775 370.33 151.805C369.141 152.615 367.63 153.125 365.812 153.215C348.622 154.064 331.161 153.015 313.941 153.005C296.661 152.995 279.371 153.005 262.08 153.055C244.811 153.104 227.491 153.265 210.232 152.805C194.162 152.375 177.55 152.726 161.691 149.786C156.361 168.725 156.55 189.535 167.661 206.455C170.8 211.225 168.25 216.846 164.161 219.826C159.98 222.867 152.465 227.529 146.035 228.008C145.412 229.407 144.772 230.8 144.164 232.188C141.095 239.181 138.331 246.218 136.396 253.621C135.399 257.437 134.54 261.316 133.818 265.219C133.877 265.902 133.939 266.585 134.012 267.266C134.012 267.336 134.021 267.405 134.031 267.485C134.071 267.766 134.121 268.086 134.151 268.266C134.521 270.226 134.881 272.185 135.272 274.135C136.202 278.885 136.921 283.676 137.432 288.485C138.362 297.286 138.271 308.726 129.691 313.936C125.101 316.726 119.601 316.436 114.75 314.565C111.491 313.306 108.722 311.526 105.722 309.776C103.942 308.735 102.08 307.885 100.34 306.805C99.8613 306.505 99.4015 306.146 98.9717 305.766C95.7219 306.456 92.5506 307.745 90.7716 308.625C86.0006 310.995 81.8111 314.426 78.2501 318.366C70.6812 326.756 68.4118 338.575 69.4717 349.545C70.4607 359.755 74.4711 371.485 82.5401 378.276C86.0501 381.235 90.4316 382.965 95.0616 382.915C97.3405 382.895 99.4418 382.415 101.642 381.835C103.812 381.265 106.491 381.435 108.491 380.635C111.46 379.445 115.121 383.075 113.911 386.055C113 388.295 112.481 390.276 111.34 392.026C119.621 405.546 128.691 418.645 138.34 431.215C147.04 442.535 157.281 452.055 166.96 462.425C171.231 467.005 173.011 476.026 165.281 477.985C157.571 479.956 151.811 471.676 147.38 466.646C129.031 445.776 115.161 421.815 108.67 394.766C105.741 396.846 102.38 397.975 98.8399 398.465C91.7901 399.435 84.6613 398.046 78.4815 394.476C55.0806 380.966 49.42 344.456 60.38 321.576C63.023 316.067 66.9276 311.148 71.6866 307.329C71.3116 306.612 71.1634 305.773 71.4044 304.87C71.8274 303.289 72.2923 301.726 72.7803 300.17C72.2474 299.933 71.8577 299.443 71.9317 298.715C72.3717 294.215 72.8005 289.715 73.2315 285.215C73.0805 278.415 72.7501 271.625 72.8301 264.786C72.9511 253.886 73.6114 242.995 73.6514 232.095C73.7814 194.075 75.3305 156.095 75.4415 118.076C75.5005 99.4846 75.5399 80.8655 75.0499 62.2855C75.0399 62.0356 75.0403 61.7953 75.0313 61.5453C74.6303 46.6753 70.6916 26.7756 85.2315 17.1547C87.6215 15.5758 90.6013 15.5556 93.2012 16.5756C100.681 11.3656 110.061 8.85469 119.031 7.40469C136.121 4.64569 153.361 3.31485 170.571 1.56485C179.55 0.654854 189 0.305287 198.04 0.505276C207.181 0.705276 216.442 -0.123982 225.642 0.0160183ZM87.0313 332.795C90.3003 329.686 95.1816 330.405 99.1915 331.146C104.771 332.176 110.191 334.616 114.891 337.746C119.951 341.115 126.201 345.785 127.201 352.175C128.111 358.045 122.271 364.515 116.261 360.585C110.691 356.935 107.981 350.245 103.191 345.665C100.841 343.426 98.3003 341.456 95.6114 339.655C94.3915 338.836 93.1913 337.925 91.8614 337.295C91.7314 337.234 86.2515 335.456 87.3106 337.805C87.6706 338.585 86.7306 339.455 86.0606 338.765C84.1612 336.835 85.2214 334.515 87.0313 332.795Z" fill="black"/>
</g>
</svg>
