<svg width="473" height="567" viewBox="0 0 473 567" fill="none" xmlns="http://www.w3.org/2000/svg">
<g id="head/Gray Short">
<path id="Hair" fill-rule="evenodd" clip-rule="evenodd" d="M287.408 509.469C265.212 509.6 246.348 503.302 231.954 492.883C213.992 486.478 192.326 476.599 179.166 466.228C174.033 467.538 167.891 462.085 163.963 459.207C139.538 440.968 120.366 414.271 114.685 387.529C105.915 398.599 93.4352 399.059 81.4802 393.557C56.4202 379.345 57.3572 349.42 66.3792 327.062C47.4122 284.505 34.2672 172.159 63.2202 126.818C69.1422 120.034 77.8332 115.976 84.0902 109.019C89.6582 102.943 94.9542 96.728 101.432 91.92C121.198 76.876 155.242 68.866 176.558 65.099C265.54 45.861 333.908 80.439 414.51 109.606C409.871 121.206 403.454 131.785 396.1 141.649C416.11 149.118 406.919 165.911 391.395 174.424L382.153 169.932C396.56 221.478 429.716 349.66 415.41 390.823C404.002 455.043 353.936 509.935 287.408 509.469Z" fill="white"/>
<path id="Skin" fill-rule="evenodd" clip-rule="evenodd" d="M290.499 158L318.999 166.5L359.999 142L376.999 154.5L385.966 171.785L382.152 169.932C396.559 221.478 429.715 349.66 415.409 390.823C404.001 455.043 353.935 509.935 287.407 509.469C265.211 509.6 246.347 503.302 231.953 492.883C213.991 486.478 192.325 476.599 179.165 466.228C174.032 467.537 167.89 462.085 163.962 459.207C139.537 440.968 120.366 414.271 114.685 387.529C105.915 398.599 93.4346 399.059 81.4796 393.557C56.4196 379.345 57.3561 349.42 66.3781 327.062C65.938 326.074 65.5018 325.049 65.0685 323.988L85.4992 308L103.999 312L116.999 320L109.499 273.5L127.499 234.5L109.499 194L141.499 151L206.499 137.5L290.499 158Z" fill="#B7B5B5"/>
<path id="&#240;&#159;&#150;&#141; Ink" fill-rule="evenodd" clip-rule="evenodd" d="M300.265 514.999C271.445 517.957 237.207 511.144 217.994 487.733C217.419 487.032 217.168 486.238 217.153 485.472C217.136 484.62 217.422 483.797 217.916 483.157C218.435 482.484 219.175 482.015 220.022 481.862C220.736 481.734 221.549 481.817 222.388 482.287L224.155 483.271C237.276 490.518 250.903 496.698 265.774 499.343C281.084 502.066 296.675 501.762 311.849 498.304C339.49 492.006 361.86 475.94 378.325 454.757C396.699 431.118 407.733 401.11 410.545 371.1C413.953 334.731 406.047 298.584 397.868 263.37C389.274 226.369 379.88 189.557 368.967 153.172C368.638 152.076 368.55 151.051 368.645 150.107C365.426 148.846 362 149.196 358.591 150.347C352.361 152.451 346.155 157.194 340.979 161.109C339.105 162.527 337.361 163.845 335.794 164.917C329.376 169.309 322.36 172.469 314.515 172.966C306.356 173.481 298.357 170.945 290.947 167.772C287.182 166.16 283.478 164.487 279.789 162.822C269.284 158.078 258.903 153.382 247.559 150.33C232.358 146.239 216.664 144.224 200.922 144.368C172.826 144.625 144.644 151.857 127.425 175.619C120.45 185.245 115.902 196.308 119.449 208.187C121.378 214.65 125.019 220.516 128.993 225.912L130.357 227.75C132.537 230.711 134.43 233.661 135.001 236.802C135.479 239.433 135.106 242.216 133.227 245.267C132.045 247.187 130.54 248.91 129.027 250.626C127.935 251.864 126.841 253.1 125.899 254.431C124.001 257.113 122.321 260.003 121.003 263.016C118.422 268.915 117.327 275.261 117.098 281.66C116.821 289.381 117.906 296.934 118.983 304.498C119.747 309.861 120.508 315.23 120.816 320.664C120.87 321.612 120.58 322.318 120.174 322.841C119.677 323.481 118.952 323.884 118.127 323.996C117.876 324.03 117.617 324.035 117.356 324.012C117.484 324.535 117.597 325.06 117.695 325.587C117.174 324.916 116.619 324.265 116.033 323.636C115.996 323.618 115.959 323.598 115.922 323.578C115.318 323.246 114.807 322.741 114.484 322.09C113.655 321.319 112.777 320.588 111.855 319.901C107.061 316.324 101.463 314.204 95.8477 314.133C90.4341 314.065 85.0073 315.909 80.8346 319.802C72.5412 327.539 70.1119 340.17 70.0252 351.014C69.9374 362.085 72.4994 375.37 82.1514 382.243C86.0231 385 90.7518 386.657 95.5154 386.705C99.4644 386.744 103.243 385.347 106.963 384.016C108.111 383.606 109.252 383.198 110.391 382.827C111.686 382.406 112.865 382.432 113.893 382.74C115.052 383.087 116.035 383.804 116.77 384.76C117.502 385.712 117.981 386.904 118.13 388.152C118.274 389.361 118.108 390.616 117.597 391.747C117.468 392.032 117.333 392.309 117.192 392.579L119.315 396.07C127.443 409.401 135.714 422.489 146.56 433.948C152.785 440.525 159.384 446.731 166.622 452.164L167.666 452.939C168.29 453.398 168.983 453.963 169.722 454.568C171.833 456.295 174.364 458.611 176.726 458.702C177.427 458.729 178.039 458.642 178.596 458.569C179.941 458.392 181.069 458.34 182.178 458.793C183.07 459.157 183.996 459.836 184.946 461.239C185.589 462.189 185.919 463.38 185.919 464.589C185.919 465.803 185.586 467.018 184.991 467.978C183.762 469.965 182.274 471.196 180.66 471.895C178.86 472.674 176.871 472.793 174.804 472.408C169.712 471.458 164.075 467.24 160.487 464.487L159.793 463.956C151.845 457.893 144.311 451.184 137.689 443.681C126.411 430.905 116.282 415.849 111.079 399.398C107.412 401.807 102.882 402.95 98.1449 403.13C91.2438 403.393 83.9396 401.617 78.5574 399.065C66.6955 393.44 59.4909 382.801 56.1144 370.566C52.1934 356.358 53.4678 340.023 58.4316 327.259C58.5755 326.888 58.7258 326.519 58.8801 326.143C43.5982 287.426 38.8994 244.434 40.2083 203.115C40.8206 183.775 42.1376 163.484 46.7004 144.621C48.7454 136.167 52.2986 128.116 57.9721 121.46C61.2068 117.665 65.1756 114.71 69.1627 111.763C72.6159 109.211 76.0824 106.665 78.9992 103.478L80.3785 101.965C80.6775 101.636 80.9757 101.307 81.2734 100.979C86.3104 95.4276 91.2143 90.0405 97.3268 85.4875C104.416 80.2085 112.238 76.0766 120.367 72.6449C137.878 65.2548 156.724 60.8237 175.369 57.3955C215.705 49.9804 257.111 49.6145 296.952 60.0377C315.476 64.8831 333.453 71.5156 351.4 78.1402C353.066 78.7553 354.732 79.3703 356.398 79.9837C370.345 85.1189 384.299 90.2322 398.253 95.3455C404.738 97.7219 411.224 100.098 417.708 102.477C419.115 102.993 420.493 104.105 421.277 105.487C422.043 106.835 422.271 108.407 421.653 109.973C417.674 120.054 412.653 129.512 406.542 138.344C408.666 139.789 410.473 141.71 411.84 143.958C413.569 146.802 414.593 150.168 414.663 153.74C414.896 165.701 404.011 173.809 394.98 179.673C394.139 180.221 393.305 180.544 392.5 180.692C401.25 214.149 409.627 247.719 416.744 281.556L417.234 283.901C424.566 319.313 429.296 355.452 422.362 391.334C416.392 422.233 402.521 452.053 380.846 475.072C359.605 497.631 331.103 511.833 300.265 514.999ZM110.494 311.288C106.721 299.312 104.721 286.282 106.165 274.143C107.074 266.512 109.368 259.166 113.103 252.44C115.243 248.588 117.851 245.022 120.696 241.664L121.678 240.536C122.175 239.959 122.669 239.43 122.823 238.766C122.912 238.38 122.821 237.958 122.587 237.454C122.067 236.338 121.102 235.262 120.198 234.212C119.623 233.544 119.062 232.889 118.591 232.252C110.32 221.056 104.153 207.727 106.157 193.53C108.113 179.678 117.191 166.767 126.856 157.036C148.136 135.61 181.129 130.686 210.031 131.868C226.856 132.556 243.654 135.521 259.676 140.701C267.577 143.255 275.302 146.367 282.809 149.933L284.472 150.731C285.369 151.165 286.265 151.605 287.161 152.044C293.029 154.922 298.92 157.828 305.29 159.392C317.73 162.447 326.168 156.013 335.038 149.525C338.078 147.301 341.164 145.047 344.444 143.068L345.119 142.669C351.037 139.239 358.115 136.93 364.915 137.034C370.821 137.124 376.52 139.009 381.159 143.466C382.111 144.382 382.66 145.381 382.917 146.375C383.43 147.095 383.844 147.953 384.114 148.966C385.776 155.202 387.431 161.442 389.08 167.685L390.428 166.816C394.422 164.222 398.764 161.257 400.725 156.917C401.48 155.247 401.373 152.464 400.422 150.418C400.089 149.703 399.65 149.067 399.042 148.67C398.6 148.382 398.068 148.246 397.449 148.296C395.943 148.49 394.561 148.27 393.389 147.774C392.038 147.203 390.96 146.263 390.261 145.131C389.545 143.971 389.218 142.608 389.393 141.193C389.544 139.978 390.067 138.708 391.102 137.515C397.916 129.661 403.654 120.998 408.015 111.594L379.168 100.922C368.883 97.1183 358.596 93.3197 348.304 89.5358L342.669 87.4654C323.955 80.6013 305.133 73.8931 285.671 69.4739C246.993 60.692 206.661 62.756 168.09 71.0224L165.76 71.5259C149.575 75.0552 133.172 79.3253 118.316 86.7477C111.024 90.3907 104.092 94.8207 98.1398 100.418C95.5111 102.889 93.1343 105.595 90.7569 108.298C87.425 112.085 84.0893 115.862 80.1279 119.053L76.4506 121.997C70.9803 126.405 66.0462 130.7 62.9595 137.536C59.732 144.682 58.1915 152.578 56.9346 160.27C53.7646 179.649 52.5134 199.337 52.6327 218.966C52.8346 251.924 57.8418 284.211 64.1676 316.384C69.2428 309.121 76.3722 303.49 85.5227 302.29C91.4883 301.507 97.4028 302.619 102.531 305.257C105.496 306.782 108.197 308.816 110.494 311.288ZM100.907 350.423C94.225 347.835 87.2092 346.987 80.1397 348.225C79.3991 348.354 78.6927 348.199 78.099 347.855C77.4971 347.505 77.0228 346.952 76.7652 346.341C76.4675 345.635 76.4524 344.871 76.7151 344.192C76.943 343.603 77.3774 343.031 78.1762 342.649C85.8312 338.996 94.3396 337.384 102.785 338.531L103.619 338.65C107.937 339.29 114.008 340.638 118.561 343.29C122.138 345.374 124.756 348.247 125.407 352C125.747 353.956 125.261 355.997 124.134 357.477C123.044 358.908 121.378 359.862 119.222 359.801C115.418 359.692 113.166 358.085 110.456 356.003C110.127 355.75 109.79 355.491 109.439 355.229C106.821 353.27 103.96 351.606 100.907 350.423Z" fill="black"/>
</g>
</svg>
