<svg width="583" height="567" viewBox="0 0 583 567" fill="none" xmlns="http://www.w3.org/2000/svg">
<g id="head/hat-hip">
<path id="&#240;&#159;&#142;&#168; Background" fill-rule="evenodd" clip-rule="evenodd" d="M480.581 283.192C480.183 260.79 479.743 237.94 476.413 215.756C473.157 194.068 464.2 174.464 448.808 158.715C416.115 125.262 368.725 117.091 324.613 109.603L249.194 96.8001C226.185 92.8951 201.638 86.6531 178.391 92.1911C166.936 94.9201 157.208 101.26 148.317 108.761C139.747 115.991 130.533 123.755 124.726 133.482C118.909 143.223 116.908 154.61 115.017 165.627C112.884 178.048 111.227 190.566 110.05 203.114C107.691 228.254 107.369 253.583 109.08 278.775C109.909 290.994 111.228 303.178 112.912 315.308C113.747 321.323 114.691 327.323 115.757 333.302C116.071 335.065 116.31 337.017 116.632 338.989C114.253 345.755 112.901 352.762 113.01 359.739C113.331 380.291 130.678 393.23 148.166 400.177C158.306 404.205 168.907 406.942 178.87 411.442C189.351 416.175 196.485 423.848 203.651 432.601C217.318 449.295 232.741 464.299 250.352 476.817C287.69 503.358 334.982 515.911 380.286 506.383C391.156 504.097 402.122 500.547 411.893 495.198C422.209 489.551 429.966 481.368 436.48 471.693C448.575 453.732 457.249 433.507 463.811 412.926C470.504 391.932 475.255 370.9 477.846 349.009C480.428 327.189 480.972 305.147 480.581 283.192Z" fill="#B7B5B5"/>
<path id="&#240;&#159;&#150;&#141; Ink" fill-rule="evenodd" clip-rule="evenodd" d="M239.911 18.7638C271.121 14.4708 314.198 28.4238 329.741 56.5578C403.947 39.0638 497.54 38.4908 558.701 96.7278C622.52 165.81 542.36 256.895 489.207 277.431C493.077 296.238 487.043 416.723 444.348 470.466C410.464 516.002 331.557 537.017 295.044 482.628L294.759 482.179C290.848 475.898 294.217 476.099 298.232 480.772C333.986 512.214 382.599 512.751 420.06 479.569C490.268 418.919 483.029 270.209 449.621 184.178C354.491 173.73 252.637 202.563 186.932 274.172L191.375 300.92C192.132 305.477 192.992 310.03 193.648 314.603C194.068 317.533 194.115 320.447 192.085 322.819C185.382 330.649 174.085 318.883 164.79 314.203C162.046 313.817 159.297 313.668 156.601 313.858C111.943 319.61 120.742 406.24 169.824 391.055C173.948 388.486 177.491 389.27 179.091 392.998C190.79 403.714 198.504 422.826 217.941 441.234C224.799 448.139 231.04 453.916 238.754 459.455C243.285 464.037 256.957 468.709 252.623 476.55C244.427 494.392 196.096 438.347 187.551 422.848C160.778 433.42 131.108 429.829 103.363 427.245C-43.0067 419.635 -23.4667 265.345 96.5093 167.934C119.093 151.308 144.01 137.745 169.911 127.308C173.447 125.883 171.902 120.077 168.316 121.522C151.178 128.429 134.471 136.65 118.545 146.165L118.521 140.476C118.498 130.895 118.648 120.92 120.312 112.166C121.144 106.1 122.543 99.6208 124.697 94.7468C127.36 79.8038 169.075 28.5118 239.911 18.7638ZM154.647 333.746C156.907 331.599 161.126 334.159 163.138 334.095C168.283 334.799 173.171 336.972 176.983 339.654C179.5 341.064 181.264 342.388 182.738 343.606L182.778 343.595C182.767 343.595 182.753 343.606 182.741 343.609L182.88 343.703C185.026 345.228 192.883 353.817 187.919 351.507C187.549 351.026 187.17 350.564 186.788 350.111C186.747 350.173 186.69 350.234 186.622 350.293L186.901 350.707C191.12 357.054 183.836 350.367 182.715 348.591C182.662 348.634 182.602 348.663 182.543 348.694L184.003 350.471C184.207 350.723 184.367 350.924 184.5 351.094L184.808 351.391C189.686 356.186 189.838 360.501 184.171 353.412C184.394 353.746 184.573 354.1 184.598 354.414L184.934 354.843C189.384 360.576 185.764 358.54 183.553 356.091L183.368 355.88L183.406 355.938C185.463 359.106 181.382 356.883 180.661 355.188L180.63 355.111C179.844 354.47 179.361 353.751 179.195 353.569L179.164 353.538C175.338 349.618 169.792 346.301 165.081 344.794C164.398 344.664 163.707 344.56 163.009 344.486C160.176 343.854 157.312 343.421 154.418 343.187C154.064 343.145 153.705 342.885 153.437 342.549C149.061 342.402 150.412 340.608 152.228 340.275L152.259 340.27L151.899 340.239C149.091 339.965 147.173 338.957 150.012 338.339L150.372 338.267C150.328 338.198 150.289 338.129 150.251 338.06C147.819 337.793 149.406 335.429 150.756 336.001C150.188 334.144 152.784 335.071 153.108 334.795C153.355 334.521 153.662 334.279 153.839 334.266C154.621 333.714 154.242 333.764 154.647 333.746ZM169.528 303.681L168.958 304.014C168.497 304.283 168.023 304.462 167.547 304.567C168.219 304.853 168.883 305.162 169.54 305.492C169.529 305.089 169.522 304.686 169.522 304.284L169.528 303.681Z" fill="black"/>
</g>
</svg>
