<svg width="488" height="567" viewBox="0 0 488 567" fill="none" xmlns="http://www.w3.org/2000/svg">
<g id="head/hat-beanie">
<path id="Beanie" fill-rule="evenodd" clip-rule="evenodd" d="M259.801 58.7061C304.573 58.7061 358.291 80.4106 362.858 80.8447L362.981 80.8513C365.384 80.8513 374.773 88.0045 391.149 102.311L373.412 136.905L374.848 138.276C381.716 144.861 387.58 150.863 392.208 155.595C430 194.229 436.792 345.919 427.886 398.818C418.98 451.717 402.484 503.48 325.685 503.48C248.887 503.48 163.447 457.303 150.285 442.922C141.511 433.336 131.655 428.743 120.718 429.144C120.268 428.576 119.822 428.011 119.38 427.447L117.771 427.219C102.634 425.027 91.7876 422.076 85.2329 418.368C72.4297 411.124 58.3575 373.045 58.3575 364.657C58.3575 356.352 37.3447 295.94 36.9245 289.547L36.9181 289.37C36.9181 284.025 9.46702 259.458 9.46702 251.656C9.46702 243.853 3.9338 244.327 9.46702 216.833L11.0746 208.756C16.9628 179.484 28.4876 131.012 72.4297 109.95C120.718 86.8049 214.578 58.7061 259.801 58.7061Z" fill="white"/>
<path id="Skin" d="M381.084 121.941L373.412 136.905L374.848 138.275C381.716 144.861 387.58 150.863 392.208 155.595C430 194.229 436.793 345.919 427.887 398.818C418.98 451.717 402.484 503.48 325.686 503.48C248.887 503.48 163.447 457.303 150.285 442.923C146.252 438.517 141.99 435.167 137.5 432.871V415L128.5 403H104.5L82.5 377.5V335.5L97 312.5L128.5 302L171.5 155.5L378.5 119L381.084 121.941Z" fill="#B7B5B5"/>
<path id="&#240;&#159;&#150;&#141; Ink" fill-rule="evenodd" clip-rule="evenodd" d="M64.9759 108.863C89.0586 83.3012 225.78 43.7632 294.952 52.1443L297.027 52.413C302.547 53.113 307.987 54.173 313.356 55.613C330.71 59.666 348.636 65.803 362.975 76.054C374.946 84.44 412.709 98.135 401.579 120.073C405.706 127.892 407.246 137.552 404.457 145.253C404.106 147.913 403.286 150.363 402.237 152.903C411.054 165.914 418.035 180.628 423.686 194.623C433.561 229.844 439.706 266.498 440.606 302.433C443.6 370.705 436.114 452.256 376.652 496.404C342 516.3 276 515.3 244.096 490.633C241.431 488.572 231.032 480.606 234.627 479.323C235.697 480.453 236.797 481.553 237.917 482.633C237.866 482.513 237.856 482.393 237.877 482.263L236.823 481.309C234.84 479.474 232.27 476.812 235.197 477.333C235.326 477.483 235.467 477.613 235.606 477.763C236.226 478.135 236.694 478.457 237.059 478.741L237.246 478.892L237.188 478.831C235.502 477.033 234.491 475.2 237.012 476.371L237.346 476.533C238.467 477.713 239.606 478.843 240.766 479.943C240.747 479.813 240.766 479.683 240.837 479.543L239.755 478.498C238.7 477.464 238.861 477.459 239.377 476.623C237.133 473.478 241.322 475.346 241.616 476.573C244.237 475.953 246 480.457 248.226 481.473C335.5 521.3 429.612 487.884 427.873 329.359L427.846 326.257C427.338 275.568 423.072 223.469 402.106 177.583C400.067 173.163 397.786 168.863 395.277 164.703C393.547 161.583 391.697 158.543 389.707 155.583C384.136 155.133 378.636 154.113 373.217 152.533C371.356 152.063 369.516 151.543 367.677 150.933C340.797 152.399 314.516 153.994 287.561 155.506L279.141 156.03C256.307 157.498 232.692 159.85 214.266 173.973C196.186 186.831 196.104 212.186 180.627 226.303C158.557 241.282 158.396 254.789 154.146 276.863C154.461 293.503 165.999 317.68 144.826 324.683C148.398 329.776 143.419 327.329 143.027 325.543C142.987 325.553 142.947 325.563 142.917 325.563C146.1 331.48 141.421 327.754 141.007 325.853C140.757 325.783 140.507 325.603 140.257 325.353C143.464 330.537 138.28 326.907 138.587 325.963C132.39 316.438 119.636 314.959 110.646 317.483C110.536 317.823 110.137 317.853 109.887 317.673C71.6599 325.957 81.5229 405.093 120.697 397.443C122.374 397.101 122.334 397.906 122.667 397.983C121.762 395.607 124.313 396.574 124.286 397.073L124.441 397.065C124.564 397.055 124.514 397.041 124.606 397.073C123.731 392.214 128.655 399.254 128.266 399.543C128.417 399.453 128.587 399.403 128.737 399.383L128.567 398.922C127.75 396.745 127.82 397.65 127.826 396.403C127.212 394.862 127.167 395.536 127.311 394.532C129.469 392.86 130.106 397.932 130.826 398.303C129.592 396.583 130.573 395.178 131.737 396.112C140.56 414.67 142.588 423.034 157.317 436.77C158.928 438.04 160.558 439.29 162.247 440.47C168.512 445.927 178.122 449.436 183.987 454.27C183.987 454.35 183.948 454.45 183.888 454.55L184.022 454.671L184.158 454.8L186.198 455.78C186.798 456.29 187.338 456.86 187.817 457.49C188.328 458.08 188.777 458.73 189.158 459.42C189.348 460.26 188.928 460.61 188.128 460.25C187.777 460.13 187.428 459.99 187.078 459.86C187.098 459.89 187.107 459.91 187.128 459.93C187.243 460.104 188.02 461.904 187.124 461.611L187.018 461.57C186.527 461.39 186.038 461.19 185.558 461C186.128 461.71 186.647 462.48 187.107 463.13C187.598 463.64 187.897 464.24 188.018 464.92C187.997 465.3 187.788 465.46 187.408 465.41C186.828 465.22 186.258 465.02 185.687 464.81L185.849 465.12C186.253 465.913 186.826 467.244 185.808 466.8C184.937 466.53 184.098 466.22 183.258 465.88C183.187 466.02 183.048 466.07 182.768 465.94C180.098 464.99 177.518 463.83 175.048 462.46C172.878 460.88 170.687 459.33 168.508 457.76C166.457 456.53 164.477 455.16 162.588 453.62C156.5 449.8 144.5 439.8 139.457 432.593C124.768 445.314 95.3989 433.161 77.2319 423.203C61.1629 414.303 54.8469 397.847 53.2139 380.105C49.8189 356.219 30.2989 348.043 31.6569 295.633C31.6269 295.643 31.5959 295.643 31.5559 295.643C30.8459 295.433 30.1569 295.153 29.5069 294.793C28.8369 294.473 28.2069 294.093 27.6159 293.633L26.8859 292.623C26.5069 292.413 26.1669 292.193 25.9069 291.973L25.772 292.147C25.3452 292.662 25.6321 291.887 25.6569 291.733L24.3887 290.008C21.3818 285.903 18.083 281.297 15.3959 277.613L15.3112 277.763C15.2504 277.876 15.2183 277.957 15.2469 277.993C8.85186 268.805 2.83786 257.707 1.16686 246.963C-0.806141 238.687 -0.0351405 230.159 1.68586 222.493C9.06486 195.648 33.2369 134.9 64.9759 108.863ZM238.524 480.116L238.123 479.759L238.475 480.201C238.66 480.429 238.849 480.634 239.157 480.843C239.137 480.773 239.137 480.703 239.146 480.623C238.942 480.467 238.733 480.297 238.524 480.116ZM294.647 65.6331C247.739 61.6001 201.602 71.9341 156.84 84.4431L153.752 85.3306C128.3 92.5931 101.387 99.1283 79.8778 114.673C49.8268 137.69 34.3088 174.306 20.7668 208.113C8.94179 233.231 14.9868 261.554 32.8068 279.093C34.6608 261.664 37.8218 244.745 42.7618 227.962C43.7928 225.34 43.0128 224.481 45.2348 224.139C48.5908 269.367 32.0618 302.783 64.7718 356.385C78.9648 381.677 62.5348 400.183 102.615 413.492L103.699 413.906C112.05 417.057 121.168 419.544 129.347 417.783L128.614 416.591C127.867 415.364 127.64 414.768 128.727 414.243C128.698 414.183 128.658 414.123 128.617 414.053C127.738 412.393 126.888 410.713 126.077 409.013C125.748 409.123 125.418 409.203 125.077 409.293C125.298 409.703 125.327 410.113 124.708 410.253C122.504 411.009 120.241 411.312 117.925 411.17L117.428 411.133C114.811 410.973 113.162 410.496 111.687 410.053C111.198 409.973 110.708 409.893 110.227 409.793C105.482 408.741 100.459 406.065 97.2078 403.413C60.1498 382.365 63.9798 310.716 109.658 303.943C110.595 258.831 132.052 182.723 167.662 139.736C199.85 100.195 287.724 83.0571 348.86 89.1001C349.751 89.3951 350.642 89.6931 351.533 89.9941C360.965 90.8321 369.954 95.0341 379.393 96.9861C372.616 91.9071 364.928 88.5241 357.009 85.6491C341.231 75.9981 323.143 70.7761 305.668 67.0931C302.048 66.2031 298.378 65.7131 294.647 65.6331ZM107.565 340.183C110.021 338.849 109.74 340.137 110.305 339.763C127.971 338.322 147.02 353.789 156.895 366.683C156.115 367.493 154.005 365.093 153.635 364.713C153.585 364.763 153.525 364.803 153.465 364.823L153.74 365.211C157.743 370.955 149.808 364.196 149.065 362.803C148.935 362.873 148.805 362.913 148.655 362.883C149.284 363.5 151.205 365.109 151.535 366.253L152.045 366.677C156.847 370.789 156.449 373.883 150.996 368.043C151.125 368.313 151.175 368.563 151.085 368.763L151.273 368.888C153.954 370.762 156.159 375.984 150.555 370.623C151.138 374.539 145.002 366.97 144.805 367.023C134.187 358.688 118.554 350.582 105.235 349.493L104.777 349.44C102.333 349.126 101.177 348.401 102.035 346.803C99.0254 346.087 99.7304 344.605 101.155 344.653C99.0324 343.257 100.943 341.922 102.175 342.443C101.328 340.098 104.725 341.66 105.035 341.333C106.798 338.614 107.273 340.882 107.565 340.183ZM70.5355 194.833C79.0205 191.725 104.083 201.029 102.078 213.351C100.884 216.18 96.9505 217.801 94.1855 216.204L90.5767 213.78C84.2964 209.574 78.6322 205.886 71.8895 202.218C68.2195 200.397 66.6395 196.531 70.5355 194.833ZM118.811 176.522L115.534 174.389C97.8503 162.816 72.8511 145.279 117.186 163.423C122.239 165.59 128.953 166.872 131.71 171.684C136.041 180.553 124.643 181.149 118.811 176.522ZM120.798 124.593C119.379 119.208 137.036 125.527 142.176 127.193L142.959 127.488C147.959 129.351 153.69 131.08 156.681 135.395C160.185 141.357 153.093 142.592 148.7 139.899C139.693 134.013 129.818 129.572 120.798 124.593ZM165.699 99.5078C155.76 88.6544 182.359 99.0516 186.343 101.938L186.457 102.023C189.43 104.116 188.827 108.624 186.034 109.948C178.087 110.099 172.239 103.475 165.699 99.5078ZM210.925 87.6166C195.125 76.2616 215.938 81.6626 223.167 86.1126C228.094 90.4576 223.019 97.7926 210.925 87.6166Z" fill="black"/>
</g>
</svg>
