<svg width="473" height="664" viewBox="0 0 473 664" fill="none" xmlns="http://www.w3.org/2000/svg">
<g id="head/Hijab">
<path id="Hair" fill-rule="evenodd" clip-rule="evenodd" d="M260.282 105.173C410.795 109.939 419.874 181.43 419.874 301.325C419.874 421.22 341.794 496.771 313.044 509.964C284.294 523.156 208.591 579.821 140.273 553.708C71.9554 527.595 91.7393 417.272 91.7393 369.87C91.7393 322.467 109.77 100.408 260.282 105.173Z" fill="white"/>
<path id="Skin" d="M209 215L119.5 292L112.5 438.5L259.5 503L357.5 464L415.5 377V242L374.5 202.5L290 148L209 215Z" fill="#E2E2E2"/>
<path id="&#240;&#159;&#150;&#141; Ink" fill-rule="evenodd" clip-rule="evenodd" d="M321.341 470.587C293.701 486.017 262.052 486.617 232.321 476.907C214.491 471.098 198.142 462.117 182.841 451.377C169.531 442.027 157.651 431.657 145.881 420.646C136.191 399.277 127.562 377.947 123.521 354.697C119.901 333.827 119.421 312.157 123.621 291.327C154.682 265.777 185.552 240.017 216.381 214.178C232.081 201.017 247.821 187.928 263.751 175.047C271.841 168.507 279.852 161.867 287.911 155.297C289.241 154.217 290.562 153.137 291.892 152.057C308.531 164.237 326.371 174.678 342.892 187.057C351.541 193.547 359.951 200.457 367.961 207.726C372.161 211.537 376.262 215.467 380.262 219.497C383.921 223.178 387.451 228.457 392.642 229.848C393.352 230.037 394.021 230.077 394.651 229.987C401.591 290.747 406.521 356.357 376.791 411.537C363.821 435.607 345.432 457.127 321.341 470.587ZM141.532 492.918C137.726 489.431 143.398 483.788 147.188 487.26C170.994 509.066 202.116 520.625 233.552 525.975C238.624 526.84 236.461 534.547 231.425 533.689C198.604 528.103 166.346 515.647 141.532 492.918ZM112.968 526.375C108.424 523.937 112.469 517.034 117.005 519.467C135.552 529.414 155.895 534.582 176.529 538.072C181.604 538.93 179.439 546.637 174.403 545.786C153.068 542.178 132.133 536.653 112.968 526.375ZM188.452 189.348C203.842 175.537 220.382 162.396 237.853 151.307C255.532 140.087 274.842 133.377 295.712 133.217C294.252 134.387 292.862 135.687 291.452 136.896C287.513 140.267 283.582 143.657 279.652 147.037C271.792 153.807 263.912 160.566 256.152 167.447C240.872 181.007 225.542 194.497 210.292 208.087C180.982 234.207 152.303 260.896 124.242 288.357C124.393 287.687 124.553 287.017 124.712 286.348C134.002 247.547 159.272 215.537 188.452 189.348ZM309.092 134.907C309.192 134.607 309.263 134.316 309.303 134.037C349.353 139.257 382.803 168.726 393.862 207.527C392.902 208.867 392.372 210.457 392.572 212.146C392.672 212.997 392.772 213.857 392.872 214.707C391.502 213.348 390.092 212.077 388.893 210.867C384.902 206.827 380.813 202.896 376.612 199.066C368.022 191.237 359.103 183.917 349.702 177.087C333.353 165.207 315.652 154.287 296.162 148.587C297.442 147.537 298.723 146.487 300.013 145.447C303.862 142.316 307.433 139.737 309.092 134.907ZM380.893 93.4168C356.303 66.5468 322.252 46.8668 286.393 40.0268C252.152 33.4868 216.702 37.7968 184.353 50.5068C116.662 77.1068 63.2517 135.598 38.2417 203.377C23.6617 242.867 18.8817 286.157 23.2627 327.957C27.6217 369.566 40.1517 412.537 62.9517 447.937C65.0417 451.178 67.3317 454.287 69.7317 457.297C68.6617 469.517 64.5817 481.497 58.1617 491.917C57.8167 492.475 57.4527 493.023 57.0927 493.572C50.5187 498.495 43.6997 503.115 37.0427 507.884C31.2737 512.016 25.5637 516.255 20.1387 520.832C15.0177 525.153 9.07074 529.965 5.60374 535.797C2.76274 540.574 1.60274 547.069 5.48074 551.625C10.1537 557.113 18.0717 555.178 24.4017 555.178C24.9437 555.178 25.4847 555.19 26.0257 555.196C27.9267 556.391 29.8847 557.471 31.7817 558.476C50.9517 568.637 70.1917 578.687 89.4517 588.687C127.813 608.617 166.013 629.348 205.162 647.697C223.303 656.207 242.723 663.646 263.042 663.617C282.103 663.587 299.332 656.017 314.212 644.507C331.172 631.396 345.353 614.747 359.112 598.428C364.612 591.896 370.002 585.287 375.292 578.587C385.452 575.197 395.532 574.207 404.592 580.747C411.862 585.997 421.442 578.857 421.612 570.976C421.672 568.178 421.553 565.417 421.252 562.697C419.433 545.896 411.212 530.697 401.952 516.598C396.893 508.887 391.563 501.316 386.202 493.816C384.942 492.047 383.702 490.277 382.502 488.476C404.032 456.777 421.112 421.627 431.612 384.896C442.643 346.247 446.393 306.167 443.933 266.117C440.152 204.737 423.313 139.777 380.893 93.4168Z" fill="black"/>
</g>
</svg>
