<svg width="662" height="609" viewBox="0 0 662 609" fill="none" xmlns="http://www.w3.org/2000/svg">
<g id="head/Long Curly">
<path id="&#240;&#159;&#142;&#168; Background" fill-rule="evenodd" clip-rule="evenodd" d="M453.407 188.718C387.637 135.262 282.24 117.905 211.837 171.836C157.133 222.449 134.495 366.275 144.176 438.547C146.868 484.902 182.283 537.443 234.27 522.782C243.098 521.913 251.67 518.529 260.579 517.82C271.236 516.593 281.974 516.572 292.61 518.075C315.786 521.353 336.331 533.658 358.825 539.411C400.564 550.085 447.135 542.905 483.063 518.861C601.79 440.803 548.01 264.268 453.407 188.718Z" fill="#B7B5B5"/>
<path id="&#240;&#159;&#150;&#141; Ink" fill-rule="evenodd" clip-rule="evenodd" d="M444.649 540.696C445.87 540.275 447.089 539.836 448.299 539.386C448.379 539.666 448.509 539.935 448.66 540.196C448.83 540.616 449 541.025 449.189 541.435C447.67 541.446 446.149 541.175 444.649 540.696ZM442.209 22.6748C441.669 21.4658 441.048 20.3058 440.348 19.1848C442.048 19.7358 443.749 20.4958 445.289 21.4758C444.249 21.8258 443.228 22.2258 442.209 22.6748ZM182.419 180.836C182.349 180.824 182.28 180.814 182.211 180.802C183.103 178.427 184.692 176.185 186.447 174.566C186.762 174.275 187.103 174.006 187.433 173.728C185.57 175.947 183.88 178.314 182.419 180.836ZM657.769 429.185C656.889 420.845 655.769 412.536 654.319 404.275C652.929 396.366 651.759 387.906 647.729 380.886C643.729 373.896 639.719 367.105 634.96 360.956C635.639 357.816 636.54 354.866 637.319 352.486C641.819 338.786 646.25 321.386 636.899 308.656C634.729 305.706 632.08 303.446 629.049 301.406C627.759 300.536 625.62 299.746 624.629 298.546C623.929 297.696 624.17 298.156 624.139 297.736C623.969 295.476 629.269 290.706 630.509 288.916C632.83 285.605 634.559 281.876 635.879 278.066C641.099 262.986 637.549 246.376 634.41 231.265C632.75 223.256 630.92 215.226 630.319 207.046C629.759 199.366 630.809 191.866 631.429 184.226C632.03 176.685 631.87 168.906 628.639 161.925C627.059 158.525 624.67 155.525 621.759 153.185C618.92 150.896 615.379 149.566 612.61 147.286C609.849 145.015 610.639 141.946 611.36 138.806C612.349 134.546 613.599 130.316 613.719 125.916C613.939 118.246 610.809 110.775 605.92 104.976C600.879 98.9857 593.679 94.9347 585.899 94.0247C582.339 93.6047 578.839 94.3157 575.299 94.0657C571.799 93.8257 571.04 92.0757 570.379 88.8757C568.86 81.5457 569.479 74.3057 565.87 67.4657C562.67 61.3857 556.979 57.2647 550.689 54.8357C539.16 50.3757 525.75 51.2957 513.589 53.9247C506.41 32.8057 484 18.9557 461.95 18.7857C458.509 12.9457 452.679 8.58572 446.03 6.02472C435.03 1.77472 423.379 4.25572 411.92 4.25572H411.87C410.719 4.18472 409.569 4.15572 408.42 4.16572C407.339 4.10472 406.259 4.01472 405.179 3.89572C392.139 2.35472 379.239 -2.98528 366.319 2.24572C360.559 4.57572 355.979 8.16572 353.08 12.7457C348.71 13.9347 344.399 15.2957 340.17 16.8757C321.839 17.3547 303.679 27.1847 294.41 43.1157C281.36 41.6357 267.2 44.1457 258.569 54.8057C256.321 57.5797 254.58 60.8387 253.426 64.2987C244.626 67.1447 236.483 72.2157 231.154 79.8537C226.291 86.8237 225.357 95.8357 228.646 103.318C220.79 109.009 214.651 117.156 211.694 126.776C209.897 132.621 209.63 138.66 210.786 144.413C202.743 146.197 195.05 149.504 188.234 154.467C181.091 159.666 172.17 167.941 171.7 177.465C171.665 178.164 171.692 178.863 171.748 179.56C156.023 178.455 139.989 181.119 129.36 193.726C121.379 203.185 117.91 215.366 120.04 226.456C101.33 230.256 83.6386 240.036 71.2986 254.496C62.3296 265.006 54.3596 278.366 54.8386 292.675C54.9886 296.986 55.9996 301.326 57.7496 305.336V305.345C56.9996 306.756 56.2286 308.326 55.4886 309.996C43.8986 318.105 35.4786 330.816 30.7386 344.826C26.9096 356.175 24.4996 370.916 28.5886 382.466C29.2096 384.226 29.9996 385.886 30.9196 387.425C30.1486 388.246 29.4196 389.066 28.7096 389.896C20.8986 399.025 12.9886 410.525 13.5296 423.095C13.7496 428.156 15.6286 433.246 18.6996 437.425C7.89859 448.376 -0.800405 462.196 0.0585952 477.626C0.798595 491.056 8.1696 504.696 19.7186 511.146C17.7896 521.496 20.3696 532.416 28.4286 540.496C32.4496 544.536 37.1886 547.196 42.2096 548.616C43.3296 560.806 54.1486 570.616 65.6386 573.435C67.7796 573.966 69.9196 574.286 72.0486 574.435C82.3886 579.506 94.7186 578.925 105.269 574.275C108.379 578.226 112.429 581.446 117.149 583.756C119.059 584.696 121.08 585.476 123.189 586.105C138.089 590.515 153.37 584.536 166.399 577.556C166.819 577.336 167.589 577.056 168.269 576.746C170.069 578.756 173.349 580.746 175.059 581.726C180.86 585.056 187.95 586.605 194.61 586.166C202.42 585.646 209.309 583.066 215.689 579.396C216.62 579.556 217.559 579.646 218.5 579.696C224.5 580.015 229.849 578.116 234.66 575.116C237.839 575.536 241.099 575.496 244.399 574.916C251.67 576.765 258.75 573.826 264.439 569.156C266.96 567.086 269.089 564.656 271.37 562.336C273.739 559.925 275.54 559.366 278.309 557.746C284.86 553.916 285.649 544.206 282.809 537.185C283.349 535.956 283.66 534.586 283.66 533.066C283.639 519.806 277.53 507.646 270.03 497.036C266.679 492.306 263.04 487.675 259.049 483.476C255.839 480.105 251.33 474.636 246.58 473.265C246.29 473.056 245.989 472.845 245.689 472.646C246.61 469.425 247.149 466.146 246.92 462.796C246.679 459.355 245.569 456.095 243.79 453.316C249.759 441.746 252.28 429.056 251.08 415.816C255.939 408.925 259.62 401.316 261.519 392.976C262.689 387.816 263.36 382.386 263.269 377.095C263.229 374.556 262.299 371.345 262.28 368.716C262.42 369.546 263.5 366.446 263.92 365.675C268.739 356.726 274.929 349.746 275.96 339.196C276.559 333.025 275.099 326.206 271.399 321.146C273.769 311.806 273.739 301.775 270.009 292.866C269.009 290.486 267.86 288.156 266.54 285.946C267.149 284.086 267.71 282.206 268.429 280.515C268.71 279.845 268.989 279.166 269.269 278.486C271.979 276.095 274.5 273.486 276.62 270.925C281.319 265.256 284.91 258.756 285.36 251.265C285.58 247.515 284.7 243.925 283.61 240.366C283.129 238.756 282.839 236.966 282.269 235.396C281.95 234.525 281.179 233.636 280.91 232.816C280.849 232.636 280.799 232.486 280.759 232.366C280.799 232.246 280.83 231.996 280.83 231.525C280.839 227.935 281.309 224.425 281.33 220.966C284.62 224.286 288.58 226.765 293.08 228.216C302.149 231.126 311.61 229.806 319.639 225.316C328.28 231.236 337.989 236.595 348.17 238.746C354.219 240.025 360.28 239.496 366.349 240.286C372.379 241.076 378.21 243.706 383.889 245.756C396.53 250.326 409.139 255.015 421.819 259.466C432.059 263.056 443.139 265.906 453.86 263.886C456.87 268.525 460.78 272.446 465.79 275.326C469.379 277.376 473.319 278.765 477.389 279.456C480.989 280.066 485.21 279.826 488.129 282.296C490.979 284.696 492.759 288.275 495.319 290.976C498.17 293.996 501.689 296.616 505.379 298.496C508.339 300.006 511.36 301.095 514.429 301.806C514.16 308.636 513.899 315.456 513.819 322.296C513.67 337.156 513.729 352.015 513.53 366.876C513.33 381.685 512.86 396.496 512.08 411.286C511.339 425.166 510.299 439.095 506.989 452.636C496.009 497.566 454.879 529.736 408.839 531.376C395.17 531.866 381.639 529.946 368.569 525.925C355.03 521.756 342.939 513.175 329.059 510.536C325.429 509.855 322.009 513.506 324.089 517.015C327.67 523.046 332.019 526.726 337.969 530.355C344.2 534.146 351.139 536.956 357.989 539.416C370.589 543.935 383.92 546.556 397.29 547.286C407.489 547.845 417.729 547.146 427.719 545.226C428.42 547.376 429.66 549.466 430.599 551.456C430.739 551.746 431.21 551.546 431.12 551.246C430.969 550.746 430.87 550.306 430.83 549.946C434.189 554.326 439.379 557.355 444.71 558.826C448.469 559.866 452.46 560.185 456.33 559.746C457.58 559.605 458.769 559.396 459.95 559.136C463.889 562.586 468.929 564.886 473.989 566.036C473.12 571.316 475.729 577.076 481.78 578.576C484.319 579.206 486.759 579.216 489.2 578.986C491.17 579.906 493.29 580.626 495.54 581.116C498.469 581.756 501.969 580.935 504.179 578.816C505.389 579.666 506.519 580.256 507.639 581.605C512.25 587.166 522.189 582.736 522.629 576.306C524.089 576.306 525.559 576.326 527.03 576.376C527.379 576.536 527.729 576.696 528.089 576.866C534.519 579.855 541.179 582.466 548.29 580.116C549.599 579.685 550.799 579.136 551.889 578.496C556.899 578.946 561.839 578.956 566.92 577.316C569.92 576.345 572.739 574.806 575.089 572.786C582.929 575.086 591.2 576.126 599 573.275C604.839 571.146 609.54 567.786 612.849 563.355C617.91 563.536 623.049 562.316 627.679 559.906C635.599 555.806 641.149 548.015 645.019 540.206C653.54 522.976 658.58 504.466 660.559 485.376C662.509 466.576 659.729 447.876 657.769 429.185Z" fill="black"/>
</g>
</svg>
