<svg width="530" height="567" viewBox="0 0 530 567" fill="none" xmlns="http://www.w3.org/2000/svg">
<g id="head/Medium Bangs 2">
<path id="Hair" fill-rule="evenodd" clip-rule="evenodd" d="M464.868 144.463C462.647 138.858 458.719 131.813 452.154 131.532C447.076 116.007 434.45 100.196 416.888 100.616C365.34 47.9021 300.444 50.3871 232.594 61.5461C196.798 68.1851 160.451 81.1851 133.753 106.839C101.777 137.041 89.326 189.74 114.366 227.931C92.725 239.528 92.305 267.048 101.56 286.907C90.435 294.6 89.759 313.272 102.286 319.14C101.62 321.868 102.091 324.688 103.361 327.112C97.15 332.282 89.066 336.101 82.383 339.384C79.429 340.835 77.725 343.205 77.017 345.876C55.073 360.272 0.354996 395.454 1.007 423.455C0.684996 438.063 11.521 447.677 24.689 451.505C16.854 467.168 10.907 485.463 18.407 502.359C20.48 507.464 36.0122 522.467 36.7942 522.744C38.1612 523.916 60.444 513.686 71.274 508.468C73.374 522.128 87.981 529.285 100.572 524.604C112.511 521.005 119.85 510.898 127.38 501.704C137.375 523.507 166.782 523.758 185.788 514.358C202.857 506.473 215.832 492.021 223.06 474.606C261.442 493.395 306.348 498.872 348.048 491.367C350.724 496.103 356.648 499.284 361.925 497.452C384.099 490.786 408.616 490.412 427.412 475.139C466.591 447.018 469.89 395.174 467.158 350.981C464.735 306.918 466.856 262.488 458.846 218.901C462.322 206.068 468.104 194.723 473.454 182.667C479.266 170.025 479.144 151.232 464.868 144.463Z" fill="white"/>
<path id="Skin" d="M408 131C420.833 135.833 445.8 153.2 443 184L458 162C460 165.833 463.4 180.5 461 208.5C461 209.277 461.062 210.243 461.18 211.384C460.325 213.842 459.539 216.342 458.846 218.901C466.856 262.488 464.735 306.918 467.158 350.981C469.89 395.174 466.591 447.019 427.412 475.14C408.616 490.413 384.099 490.786 361.925 497.452C356.648 499.284 350.724 496.103 348.048 491.367C310.153 498.187 269.611 494.285 233.723 479.416L231.5 472.5L189.5 433.5L165 391H129.5L117.5 348.5L136.5 312.5L161 303.5L173 312.5L176 318.5L187 303.5V274.5L176 261L183.5 236.5C196.5 234.833 222.3 223.6 221.5 192C225 195 230.5 205.8 224.5 225L242.5 188.5L234 160C250.167 161.667 283.3 173.3 286.5 206.5L304 184L294.5 144C310 150 340 168.3 336 193.5C336.8 194.3 351 177.5 358 169L346 131C366.833 140 407.2 164.7 402 191.5L417 165.5L408 131Z" fill="#B7B5B5"/>
<path id="&#240;&#159;&#150;&#141; Ink" fill-rule="evenodd" clip-rule="evenodd" d="M100.609 331.496C102.918 330.916 104.158 334.019 102.198 335.266C89.7541 343.181 76.8991 350.25 64.8781 358.862C53.4446 367.048 42.8841 376.374 33.0364 386.401L31.9451 387.518C23.0421 396.677 13.1821 408.329 13.0821 421.84C13.0051 432.342 21.1021 443.805 32.3991 442.425C36.6551 441.905 40.5671 447.305 39.0821 451.198L37.5196 455.301C31.234 471.906 24.8388 490.72 29.8039 508.189L29.9861 508.813C31.1871 512.813 32.4531 516.348 37.0961 516.268C41.4051 516.192 45.8891 514.739 49.9231 513.352C58.2941 510.473 65.8801 505.672 72.3191 499.634C78.0145 494.293 85.2911 499.719 84.5243 506.506L84.4971 506.723C83.4481 514.339 95.5811 517.875 101.097 516.786C111.988 514.632 119.753 503.72 125.938 495.401C128.911 491.404 136.132 489.83 138.744 495.401C143.92 506.436 154.589 514.684 167.07 515.03C173.553 515.209 179.773 513.364 185.264 509.942C187.505 508.544 189.51 506.882 191.348 504.999L191.804 504.524C194.524 501.641 196.401 500.108 199.875 498.225C203.298 496.37 207.726 498.67 207.705 502.717C207.677 507.959 206.141 511.444 202.526 515.246C199.535 518.395 195.981 521.159 192.245 523.368C184.737 527.804 175.811 530.3 167.07 530.011C153.292 529.555 140.141 522.688 131.616 512.008C122.912 522.415 112.115 531.977 98.0841 531.72C87.5801 531.528 77.7911 526.06 73.1011 517.588C66.4801 522.153 59.2131 525.722 51.4391 528.053L50.7464 528.257C39.7424 531.46 27.079 532.733 19.9961 521.809C13.3461 511.553 12.8501 497.35 14.3741 485.627C15.7351 475.155 18.9571 465.21 22.6571 455.401C12.1251 452.256 3.95009 442.363 1.14209 431.699C-3.10591 415.573 5.13509 399.934 15.3231 387.952C26.3901 374.936 40.3191 363.927 54.3521 354.291C68.3481 344.682 84.0271 335.652 100.609 331.496ZM460.48 205.363C460.506 204.915 461.24 204.758 461.308 205.25C466.142 240.328 468.941 275.335 471.258 310.654C472.433 328.547 473.767 346.422 475.227 364.293C476.628 381.43 478.96 399.023 478.433 416.23C477.608 443.174 464.524 465.082 443.07 480.848C422.513 495.957 397.011 503.427 371.99 506.583C357.459 508.416 342.726 508.504 328.179 506.782C320.623 505.888 313.078 504.697 305.678 502.91L302.478 502.11C296.651 500.621 290.144 498.601 289.313 491.698C288.91 488.355 290.686 485.889 293.554 484.211C297.293 482.023 301.58 483.311 305.433 484.308C311.926 485.988 318.488 487.43 325.124 488.427C339.377 490.571 354.029 490.698 368.355 489.214C392.453 486.716 417.873 478.9 436.453 462.758C444.528 455.744 451.549 447.197 455.242 437.043C459.99 423.989 459.287 409.748 459.128 396.078C458.759 364.293 459.084 332.508 458.642 300.72C458.198 268.835 458.585 237.201 460.48 205.363ZM218.145 56.8188C246.303 49.5568 274.88 47.6698 303.804 49.8558C331.081 51.9158 362.154 58.0188 384.432 74.7958C385.513 75.6098 384.866 77.1508 383.528 76.9378C368.634 74.5638 354.116 70.2458 339.286 67.3888C325.022 64.6408 310.501 62.5778 295.977 62.0998C246.855 60.4808 192.196 71.6118 152.586 102.237C134.013 116.596 119.839 135.904 114.198 158.877C108.413 182.44 111.543 207.922 123.16 229.237C124.833 232.306 124.143 237.161 120.653 238.795C110.063 243.753 102.52 254.737 102.684 266.59C102.763 272.339 104.745 277.852 107.93 282.604C111.298 287.629 116.425 291.145 120.192 295.838C121.675 297.686 121.732 300.231 120.557 301.933C122.76 302.898 125.136 303.416 127.304 304.556C129.142 305.523 129.194 308.542 127.304 309.494C122.524 311.901 117.356 309.346 114.13 305.465C113.554 304.772 113.056 304.051 112.602 303.315C108.738 302.496 105.276 300.557 102.253 297.905C96.4934 301.354 95.7044 309.032 100.652 314.899C103.179 317.894 106.769 319.743 110.398 321.072L110.833 321.229C114.364 322.483 117.598 323.183 119.892 326.008C121.405 322.854 123.142 319.881 125.078 317.172C132.117 307.325 142.937 298.589 155.776 299.698C165.833 300.565 174.546 307.765 176.607 317.699C176.759 318.434 175.651 319.008 175.321 318.241C170.496 306.99 155.229 306.577 146.135 312.44C135.44 319.336 129.595 332.331 127.25 344.434C124.942 356.356 126.276 370.856 135.199 379.924C138.85 383.635 143.817 386.201 149.001 386.877C151.535 387.209 153.771 386.882 156.194 386.394L157.8 386.059C158.914 385.828 160.022 385.642 161.19 385.746L162.931 385.98L163.921 386.442C164.779 386.828 164.701 386.722 163.688 386.125C166.646 385.883 168.175 388.069 168.337 390.466C168.431 390.526 168.522 390.591 168.598 390.684C179.824 404.422 188.159 420.213 200.072 433.501L203.56 437.393C212.525 447.366 222.76 458.178 234.939 463.352L236.388 463.952C239.932 465.448 243.49 467.497 243.941 471.768C244.346 475.594 241.33 478.473 237.853 479.366C229.935 481.397 220.909 474.36 215.11 469.743C202.64 459.818 192.16 447.166 183.505 433.854L182.65 432.528C175.535 421.417 168.848 408.744 166.77 395.557L166.396 396.164C166.368 396.208 166.346 396.24 166.331 396.26C165.907 396.836 165.44 397.322 164.898 397.788C163.442 399.045 161.666 399.779 159.821 400.277C156.358 401.212 152.561 401.396 149.001 401.032C141.77 400.293 135.011 397.541 129.295 393.059C111.891 379.41 109.836 354.012 116.875 333.407C111.099 334.786 104.52 330.899 100.01 327.568C94.8384 323.746 90.5734 318.229 89.5544 311.739C88.5424 305.299 92.6484 296.771 98.7384 294.286C92.4194 286.699 88.7404 275.932 88.3604 267.311C87.7004 252.315 95.6674 238.141 107.899 229.959C96.3964 205.308 94.1804 176.709 101.925 150.535C117.294 98.5958 168.778 69.5508 218.145 56.8188ZM174.325 451.442L174.469 450.986C175.694 446.969 177.276 438.98 183.277 442.021C189.01 444.926 185.35 453.525 183.345 457.711C180.946 462.72 176.803 466.736 171.239 467.812C166.713 468.687 161.743 467.563 158.577 464.066C157.654 463.047 157.133 461.929 156.586 460.695C156.373 460.215 156.277 459.886 156.237 459.672C156.185 459.907 156.037 460.257 155.659 460.669C153.133 463.429 150.747 466.642 148.914 469.907C148.48 470.679 147.112 470.138 147.458 469.293C149.593 464.071 149.234 455.996 153.993 452.219C158.188 448.89 162.129 451.51 164.348 455.388L164.461 455.589C167.704 461.477 172.872 455.885 174.325 451.442ZM128.695 432.574L129.134 431.966C133.619 425.836 141.183 418.462 148.751 424.163C151.158 425.976 151.247 429.002 148.751 430.801L147.807 431.475C144.501 433.819 141.208 436.033 138.779 439.395C136.141 443.05 133.77 446.92 130.223 449.787C123.947 454.857 113.806 455.857 108.361 449.022L107.826 448.344C107.37 447.757 106.848 447.051 106.423 446.346L106.093 446.804C106.061 446.85 106.03 446.893 106.002 446.935L105.926 447.051C103.688 450.627 100.861 453.572 97.3405 455.896C90.6485 460.311 83.1075 460.925 75.5365 458.588C74.7955 458.358 74.9945 457.365 75.7115 457.299C84.6825 456.461 93.4235 450.088 97.0725 441.881L97.4846 440.96C98.9612 437.695 100.615 434.593 104.263 433.311C107.814 432.063 111.542 433.381 113.977 436.067C116.013 438.312 116.537 442.775 120.21 441.791C124.232 440.713 126.496 435.676 128.695 432.574ZM103 378.051C104.987 376.541 108.099 378.161 108.646 380.349C111.125 390.255 100.829 401.928 90.9348 402.235C88.3878 402.313 85.9378 401.697 83.6818 400.518C81.9318 399.604 79.8608 397.268 77.9398 396.881C75.4588 396.382 73.2608 399.686 71.5138 401.382C69.3468 403.487 67.2028 405.441 64.7748 407.235C63.8048 407.952 62.2998 406.748 62.7098 405.647L63.5311 403.458C66.504 395.666 71.6245 384.292 81.2068 387.525C85.9018 389.109 89.4358 394.451 94.3798 390.221C98.3388 386.834 98.7078 381.312 103 378.051ZM145.279 338.172C154.212 327.918 175.21 333.334 179.193 345.809C180.072 348.564 179.154 352.145 177.003 354.095C174.167 356.664 170.124 357.442 166.682 355.427C163.719 353.694 162.503 350.858 160.326 348.425C157.133 344.86 152.79 342.881 148.315 341.463C147.197 342.051 146.156 342.824 145.221 343.756C144.743 344.233 143.84 343.579 144.264 343.017C144.84 342.253 145.544 341.534 146.345 340.871L145.96 340.758C144.783 340.43 144.527 339.036 145.279 338.172ZM203.336 224.958C205.338 224.961 207.67 226.841 207.414 229.036L207.336 229.645C206.76 233.824 205.417 236.19 201.235 238.132C197.686 239.777 193.958 240.686 190.068 241.046C188.596 241.182 187.038 241.19 185.459 241.073L185.126 242.991C184.465 246.827 183.854 250.666 183.74 254.577C183.526 261.826 186.231 267.8 189.132 274.272C194.701 286.704 195.327 299.114 189.264 311.528C188.377 313.343 185.866 314.823 183.84 314.639C181.213 314.401 179.944 313.641 178.416 311.528C177.132 309.753 177.426 307.245 178.314 305.39L178.416 305.187C181.471 299.268 182.434 292.581 180.874 286.075C179.408 279.96 176.087 274.464 174.604 268.368C172.188 258.438 174.761 248.588 179.789 240.069C175.994 238.976 172.484 237.028 170.142 234.057L170.152 234.053C169.258 233.098 169.746 231.103 171.315 231.223L173.089 231.366C178.165 231.79 182.837 232.231 187.97 230.817C190.601 230.09 192.872 228.88 195.131 227.414L195.615 227.097C198.441 225.219 200.008 224.954 203.336 224.958ZM215.483 151.565C228.207 150.842 239.07 159.239 244.351 170.417C250.088 182.552 247.681 196.476 242.618 208.416L241.179 211.758C238.661 217.548 235.356 224.433 230.199 227.54C224.407 231.03 219.4 226.983 221.108 220.549C222.126 216.719 224.881 213.764 227.11 210.602C229.19 207.649 231.131 204.593 232.833 201.405C236.167 195.153 238.656 188.187 238.629 181.024C238.582 167.95 229.944 152.967 215.483 153.159C214.45 153.171 214.467 151.622 215.483 151.565ZM279.836 130.469C279.043 129.867 279.752 128.528 280.639 129.093C295.394 138.477 306.411 156.104 308.629 173.421C309.86 183.029 308.92 193.297 304.828 202.164C302.481 207.252 298.453 212.109 292.821 213.504C287.643 214.785 282.306 211.828 280.699 206.774C280.076 204.813 281.148 202.762 282.767 201.691C288.017 198.22 292.244 193.84 294.717 187.948C297.29 181.822 298.316 175.321 298.347 168.713C298.423 153.238 292.247 139.901 279.836 130.469ZM460.077 137.176C459.394 136.419 460.253 135.303 461.157 135.777C471.824 141.387 478.602 152.133 480.544 163.902C482.447 175.424 479.887 191.11 470.968 199.443C465.935 204.147 456.919 197.891 461.103 191.832C464.053 187.559 467.242 184.04 468.931 178.991C470.437 174.486 470.97 169.943 470.888 165.209C470.709 154.881 467.019 144.876 460.077 137.176ZM329.658 122.748C347.883 121.88 358.928 142.685 361.458 158.192C363.02 167.773 361.846 177.641 356.556 185.951L356.243 186.435C351.879 193.073 343.943 200.716 335.392 197.573C331.773 196.244 330.81 192.367 333.241 189.426C336.961 184.924 342.711 183.089 346.209 178.282C350.133 172.891 351.419 166.137 351.192 159.581L351.162 158.857C350.554 146.797 344.801 123.651 329.658 124.061C328.809 124.083 328.819 122.787 329.658 122.748ZM386.665 119.291C404.293 117.038 415.028 137.776 418.339 152.062C420.407 160.993 420.859 170.956 418.214 179.82L418.017 180.451C415.864 187.067 409.511 198.402 401.219 195.021C398.947 194.095 396.628 191.572 397.716 188.852C399.105 185.375 401.11 184.473 403.782 182.248C405.84 180.535 407.277 178.076 408.335 175.654C411.153 169.199 411.781 161.658 411.396 154.702L411.343 153.879C410.347 140.292 402.98 120.044 386.665 120.416C385.92 120.433 385.971 119.379 386.665 119.291ZM418.939 99.7948C428.75 96.0588 436.788 105.44 442.428 112.135C449.493 120.524 455.902 129.561 459.525 140.004C462.752 149.309 463.32 159.655 460.413 169.127C458.974 173.817 456.732 178.166 453.672 181.994L453.282 182.477C450.097 186.36 447.022 188.746 441.805 187.356C439.682 186.789 438.785 184.69 439.152 182.684C439.938 178.398 442.147 177.285 445.008 174.293C447.531 171.654 449.403 168.404 450.662 164.987C453.258 157.938 453.393 150.301 451.65 143.039C449.701 134.909 445.862 127.402 441.422 120.367L440.464 118.86C435.759 111.423 429.051 99.9689 419.126 101.176C418.276 101.28 418.265 100.051 418.939 99.7948Z" fill="black"/>
</g>
</svg>
