<svg width="549" height="567" viewBox="0 0 549 567" fill="none" xmlns="http://www.w3.org/2000/svg">
<g id="head/Medium 2">
<path id="&#240;&#159;&#142;&#168; Background" fill-rule="evenodd" clip-rule="evenodd" d="M467.825 167.573C437.77 126.207 382.432 114.311 334.442 124.372C240.623 141.474 150.988 213.051 134.411 310.395C108.548 369.286 125.063 462.045 200.279 468.975C210.987 469.579 221.594 467.114 232.322 468.445C297.793 478.903 375.16 523.671 433.115 470.876C436.02 472.957 439.846 473.963 443.103 472.704C467.771 463.171 468.93 435.594 471.033 412.925C473.75 383.634 476.298 354.327 478.674 325.008C479.523 274.446 499.565 211.263 467.825 167.573Z" fill="#B7B5B5"/>
<path id="&#240;&#159;&#150;&#141; Ink" fill-rule="evenodd" clip-rule="evenodd" d="M285.93 62.1663C325.43 60.0663 398.211 78.1583 432.671 99.3693C488.818 133.928 493.17 202.866 490.88 214.786C490.01 219.335 487.23 223.545 482.88 222.146C486.57 253.465 486.28 271.366 486.9 302.866L487.326 323.897C487.602 337.917 487.84 351.939 487.9 365.965C489.32 365.436 490.72 366.085 491.24 367.446C491.37 367.776 490.92 367.956 490.7 367.766C488.2 365.585 489.98 370.555 490.84 371.566C492.03 372.956 494.01 374.266 495.4 375.456L499.175 378.725L502.95 381.986C507.827 386.194 512.544 390.41 517.094 394.942L518.33 396.186C526.62 404.606 537.01 412.755 542.17 423.646C547.1 434.045 545.58 445.835 537.39 454.125C534.41 457.135 530.93 459.436 527.15 461.176C533.88 472.256 534.86 486.906 527.84 498.305C520.81 509.746 507.29 515.736 494.27 514.816C493.87 516.446 493.25 518.036 492.43 519.545C487.267 529.033 476.998 530.265 467.259 529.757L466.88 529.736C444.96 528.475 423.87 522.986 404.67 512.316C398.01 512.766 392.07 507.295 390.77 501.295C387.27 501.166 383.75 500.875 380.16 500.465C369.51 499.236 358.59 496.946 349.2 491.536C347.76 490.706 348.43 488.516 350.03 488.475C361.47 488.215 372.92 489.006 384.34 487.766C394.82 486.635 405.99 483.746 415.76 479.816C433.32 472.736 448.38 460.726 456.69 444.085C467.45 422.545 466.47 396.676 467.64 373.276C468.936 347.374 470.532 321.497 472.238 295.621L473.066 283.218C474.722 259.042 476.094 246.109 480.29 221.016C467.64 222.146 415.091 203.233 398.75 172.295C367.735 238.11 210.599 211.175 203.63 312.496C203.571 313.355 202.21 313.116 202.16 312.295L202.031 309.986C201.968 308.845 201.911 307.722 201.872 306.608L201.84 305.496L199.37 305.526C199.37 305.835 198.93 305.946 198.82 305.616C196.49 299.005 185.39 301.135 180.56 302.706C176.21 304.125 172.11 306.305 168.43 308.996C161.04 314.396 155.31 321.666 153.41 330.755C149.8 348.016 160.79 365.596 175.38 373.926C184.58 379.176 194.66 382.566 203.48 388.516C211.27 393.766 218.53 399.916 224.82 406.906C249.74 434.596 264.4 476.596 252.61 513.146C251.71 515.936 249.33 519.125 246.18 519.576C240.97 520.326 235.76 519.566 232.84 514.606C231.7 512.666 231.16 510.456 231.28 508.276C229.26 515.215 222.71 522.076 216.67 524.656C208.44 528.176 199.17 527.125 191.91 522.585L190.993 523.264C179.186 531.954 165.997 539.875 150.87 538.276C139.91 537.116 129.15 531.536 123.09 522.736C115.03 527.266 106.42 530.875 97.5402 533.335L96.5951 533.595C84.3778 536.921 68.794 539.971 57.3902 533.215C46.4402 526.725 42.8002 512.555 45.3702 500.725C45.6802 499.316 46.0702 497.946 46.5502 496.616C38.3102 497.055 30.0802 496.266 22.2602 493.846C14.2702 491.375 6.6502 486.625 2.8202 478.926C-1.4998 470.215 -0.349804 460.316 2.8702 451.446C8.0202 437.215 16.3002 424.555 26.6102 413.526C36.5248 402.911 48.4842 393.905 60.9134 386.398L63.0087 385.145C74.1972 378.471 87.6899 370.652 100.91 371.166C100.87 370.996 100.84 370.835 100.82 370.666C98.8202 355.936 99.0502 340.916 98.5802 326.066C98.1502 312.406 97.6602 298.746 97.3402 285.076C96.8202 261.835 96.9902 238.496 100.02 215.416C102.71 194.936 107.55 174.965 116.38 156.215C125.65 136.516 139.61 119.706 156.85 106.486C193.03 78.7363 240.82 64.5663 285.93 62.1663ZM163.041 335.136C166.981 327.706 175.951 325.366 183.821 326.706C194.851 328.586 202.351 338.227 208.791 346.517C215.551 355.206 201.451 363.396 197.821 354.977L196.961 352.988C194.048 346.311 190.606 339.271 184.661 334.916C178.341 330.296 169.421 329.616 163.841 335.756C163.441 336.206 162.771 335.626 163.041 335.136Z" fill="black"/>
</g>
</svg>
