<svg width="473" height="567" viewBox="0 0 473 567" fill="none" xmlns="http://www.w3.org/2000/svg">
<g id="head/Mohawk 2">
<path id="Skin" fill-rule="evenodd" clip-rule="evenodd" d="M434.781 366.753C417.886 290.162 414.594 206.05 370.001 139.174C350.514 111.905 319.204 76.3475 282.627 87.5545C284.134 71.4075 285.557 55.2535 286.873 39.0895C287.626 29.8435 291.087 17.5245 283.262 10.4155C270.343 -0.0165462 248.956 15.9465 238.971 24.8655C217.339 45.5795 208.797 65.6985 180.302 79.5325C168.88 71.3925 157.748 62.8515 146.155 54.9315C134.342 46.8615 117.444 33.7525 105.185 48.6505C94.7946 61.2785 101.432 81.1835 105.552 95.0775C107.659 102.183 109.753 109.939 112.681 117.247C112.928 122.802 113.358 128.347 113.989 133.876C92.8805 137.632 71.1566 140.792 50.9896 148.163C39.9916 154.12 40.9616 167.649 48.7636 175.747C60.4396 187.054 75.2146 195.896 91.3446 201.831C88.4156 211.967 81.3946 220.562 72.5666 226.182C69.6056 228.059 67.9446 230.812 67.3436 233.749C62.8186 235.998 57.9736 237.62 52.8556 238.673C46.5436 239.976 42.8966 247.426 44.5236 253.347C49.1076 267.737 65.2616 259.512 75.7556 258.496C76.0716 268.545 76.2356 279.016 80.7986 288.325C56.4096 294.725 35.2816 318.062 40.9206 344.356C46.0426 369.492 73.1756 377.173 94.6536 382.885C96.2806 383.843 96.2756 384.784 96.7926 387.157C100.337 403.452 97.3526 421.379 91.7656 436.849C90.2426 441.066 92.4806 446.343 95.8636 448.872C113.355 460.009 119.154 426.094 139.093 447.681C137.605 447.458 133.903 445.607 134.093 448.289C159.961 493.685 236.339 496.475 283.136 497.589C288.752 500.321 295.218 498.772 301.642 497.028C307.771 496.696 313.893 496.237 320 495.614C331.149 493.602 350.76 495.987 351.46 480.284C380.255 468.925 405.013 449.302 421.897 423.302C434.421 406.049 439.366 387.787 434.781 366.753Z" fill="#B7B5B5"/>
<path id="Hair" fill-rule="evenodd" clip-rule="evenodd" d="M99.9997 408L122.841 440.893C113.955 443.763 107.494 456.278 95.863 448.872C92.4802 446.343 90.2424 441.067 91.7653 436.85C95.1295 427.535 97.546 417.328 98.1657 407.124L99.9997 408ZM75.9342 263.847C75.8629 262.056 75.8113 260.269 75.7555 258.496C65.2616 259.512 49.1072 267.738 44.5231 253.348C42.8961 247.427 46.5432 239.977 52.8551 238.674C57.9731 237.621 62.8184 235.998 67.3434 233.749C67.9445 230.812 69.6053 228.06 72.5661 226.183C78.937 222.127 84.3659 216.521 87.9958 209.905L75.9342 263.847ZM238.97 24.8654C248.955 15.9464 270.342 -0.0165563 283.261 10.4152C291.086 17.5242 287.626 29.844 286.873 39.09C285.557 55.2539 284.134 71.408 282.627 87.5549C286.026 86.5133 289.38 85.8747 292.683 85.5969L271.5 103.5L238 95.5002L205 73.5002L145.5 117.5L91.9997 192L89.9196 201.298C74.3448 195.372 60.0947 186.72 48.7633 175.747C40.9615 167.649 39.9911 154.12 50.9889 148.163C71.1559 140.792 92.88 137.632 113.988 133.876C113.357 128.347 112.927 122.802 112.68 117.247C109.752 109.939 107.658 102.183 105.551 95.0773C101.431 81.1833 94.7943 61.2785 105.184 48.6506C117.443 33.7527 134.341 46.8618 146.154 54.9318C157.747 62.8518 168.879 71.3924 180.301 79.5324C208.796 65.6984 217.338 45.5793 238.97 24.8654Z" fill="white"/>
<path id="&#240;&#159;&#150;&#141; Ink" fill-rule="evenodd" clip-rule="evenodd" d="M260.153 4.67762L261.834 3.9436C267.63 1.43408 273.958 -0.972513 280.303 0.39962C287.611 1.97962 291.836 8.26462 293.645 15.1166C295.739 23.0426 296.675 31.4796 297.249 39.6376C297.842 48.0866 297.613 56.5176 296.977 64.9536C296.446 72.0086 295.348 80.1846 292.722 87.0226C292.834 86.9226 292.968 86.8486 293.128 86.8316C303.464 85.7726 312.989 86.3896 322.86 89.7186C332.055 92.8196 340.969 97.1706 348.971 102.668C366.255 114.54 379.628 132.47 388.945 151.033C407.872 188.746 411.865 231.408 417.169 272.65L417.33 273.9C420.184 295.953 423.975 317.674 430.057 339.066L431.107 342.713C436.689 362.284 440.02 381.323 435.569 401.585C426.962 440.765 396.621 470.339 361.523 487.41C343.603 496.126 324.213 502.557 304.629 506.265C284.542 510.069 262.802 510.706 244.487 500.315C235.407 495.163 243.401 482.005 252.578 486.472C271.516 495.691 292.979 492.656 312.637 487.587C332.19 482.546 351.367 475.488 368.692 465.005C398.423 447.017 423.439 415.962 424.259 379.898C424.72 359.605 416.048 340.228 411.867 320.636C408.182 303.371 405.895 285.853 403.737 268.338L402.137 255.327C397.494 218.014 391.68 179.603 372.519 146.626C355.604 117.517 326.47 94.3696 292.94 88.2126C292.739 88.1766 292.606 88.0796 292.526 87.9566C291.5 93.4796 285.413 98.6296 281.518 101.808C275.999 106.314 269.312 109.579 262.038 109.433C248.012 109.152 235.968 98.2746 226.354 89.1656C225.27 88.1396 226.444 86.7076 227.677 86.8936C238.835 88.5726 248.401 97.6376 259.838 97.5026C265.724 97.4326 270.234 94.2746 274.077 90.0756C275.512 88.5056 276.774 86.6106 278.139 84.8686C278.476 80.2926 279.772 75.8056 280.352 71.2506C280.893 67.0006 281.357 62.6856 281.632 58.4036C282.192 49.6656 282.015 40.8626 281.048 32.1576C280.633 28.4213 280.107 24.6502 279.292 20.9706L278.91 19.3122C278.404 17.0326 278.074 14.9556 275.318 15.1896C269.192 15.7076 262.344 19.4446 256.987 22.2646C236.219 33.2016 221.12 50.1126 209.975 69.9796C210.675 70.3296 211.343 70.7906 211.968 71.3906C213.225 72.5976 213.87 74.7236 213.294 76.4066C211.069 82.9106 203.159 83.1006 197.594 85.6476C191.53 88.4216 185.834 91.9876 180.44 95.8936C169.822 103.582 160.067 112.614 150.791 121.853C136.182 136.401 122.616 151.884 109.515 167.769L106.727 173.996C103.944 180.222 101.222 186.469 98.9701 192.955C95.3041 203.501 92.2331 214.282 89.8721 225.195C87.4961 236.179 85.9471 247.415 85.3601 258.638C84.8361 268.652 86.1651 278.659 86.1091 288.615C86.9991 290.28 87.3211 292.157 86.9021 294.07C89.7041 294.863 92.4181 296.072 94.9671 297.74C95.5881 298.148 95.1941 299.12 94.4611 298.94C91.2291 298.144 87.9961 297.967 84.8301 298.275C83.1501 300.347 80.4301 301.666 77.7911 301.608L76.6651 301.583C75.8401 301.565 75.0221 301.433 74.2321 301.208C69.7781 303.261 65.6801 306.216 62.2111 309.747C53.8701 318.239 49.8421 329.364 50.4341 341.249C51.0201 352.972 57.2641 363.546 67.6061 369.177C72.2191 371.688 77.3451 373.01 82.5891 373.107C87.6341 373.198 94.2551 371.665 98.4001 374.952C98.8661 375.322 99.1731 375.814 99.3621 376.358C99.6511 375.137 99.9581 373.919 100.293 372.706C100.549 371.779 102.092 371.671 102.281 372.706L102.524 374.055C105.998 393.635 107.219 413.793 121.018 429.464C127.472 436.794 135.253 443.405 143.235 449.017L144.556 449.938C147.966 452.292 151.65 454.579 155.716 455.431C160.234 456.378 163.969 456.118 168.124 458.601C170.077 459.769 171.276 462.347 170.557 464.583C165.948 478.935 147.783 472.488 138.626 466.814C133.534 463.659 128.579 459.847 123.975 455.648C119.96 458.094 115.192 459.671 111.095 460.284C104.776 461.23 98.0671 459.916 93.0301 455.835C87.7011 451.519 85.8781 445.239 86.7831 438.572C87.2333 435.254 88.094 432.018 89.0214 428.805L89.7881 426.181C90.9061 422.359 91.7801 418.414 94.0341 415.077C95.1721 413.394 97.8731 413.553 98.4581 415.656C99.7971 420.468 99.2176 425.901 98.8709 430.915L98.7961 432.064C98.5691 435.835 96.9621 441.619 100.268 444.413C104.25 447.777 108.608 446.241 112.848 443.923C112.416 443.396 111.989 442.866 111.57 442.335C97.8501 424.897 94.4381 403.189 98.1961 381.97C94.6551 386.615 85.4251 387.62 80.5271 387.259C72.8371 386.693 65.2701 384.355 58.7201 380.245C45.0011 371.639 37.2851 356.546 36.9571 340.491C36.6371 324.901 43.6121 309.134 56.4741 300.056C59.8721 297.658 63.6521 295.794 67.5981 294.568C65.6801 286.952 65.4771 278.538 65.8931 270.305C61.2921 270.931 56.3111 270.118 52.1511 268.702L51.5054 268.476C45.094 266.18 36.9514 261.564 35.7511 254.361C34.2731 245.501 45.2071 240.409 51.5511 236.87C54.5183 235.215 57.5525 233.667 60.7025 232.39L61.6511 232.015C64.3701 230.969 67.5711 229.018 70.3311 230.572C70.5281 230.683 70.5761 230.894 70.5471 231.101C70.0011 234.946 63.6991 238.218 60.8971 240.643C58.7451 242.504 56.6651 244.452 54.6691 246.481C53.3751 247.797 51.4291 251.122 49.7691 252.055C50.5401 252.458 51.4641 253.45 52.1081 253.831C53.9221 254.9 55.8351 255.654 57.8821 256.142C60.9251 256.87 63.9731 256.558 67.0201 256.489C68.2571 244.363 70.5031 232.502 74.1191 220.853C80.1841 201.309 90.1251 180.72 104.307 165.269C114.706 145.787 128.137 127.992 143.477 112.079C153.316 101.874 163.709 91.9716 175.236 83.6796C180.346 80.0038 185.721 76.692 191.426 74.0238L193.321 73.1544C196.488 71.689 200.34 69.7868 204.013 69.2426C206.389 59.8146 210.622 50.7976 215.758 42.6246C222.834 31.3636 232.147 21.8656 243.044 14.2766C248.421 10.5306 254.151 7.30962 260.153 4.67762ZM71.1186 333.05C80.2616 326.909 91.4746 324.506 102.401 325.413C107.821 325.863 113.182 327.133 118.261 329.076L120.355 329.903C125.206 331.847 130.413 334.246 130.587 340.113C130.656 342.43 128.941 344.275 126.871 344.995C121.822 346.75 117.731 342.547 113.562 340.311C109.353 338.051 104.879 336.561 100.27 335.354C99.8276 335.238 99.3846 335.133 98.9426 335.028C99.1826 335.509 99.3186 336.041 99.2716 336.614C99.1576 337.986 98.7586 339.006 98.3706 340.292C98.2536 340.682 97.9686 343.063 97.6766 343.357C97.7716 344.167 97.7816 344.933 97.8066 345.749C97.8766 348.158 97.5796 350.193 96.3496 352.326C93.2856 357.639 84.5266 358.129 81.5936 352.326C78.6606 346.524 80.9526 340.846 85.4096 336.674C86.6246 335.538 88.2446 334.381 90.0046 333.583C83.8246 333.019 77.5756 333.286 71.4016 334.098C70.7996 334.178 70.7076 333.327 71.1186 333.05ZM71.6653 138.404C84.2053 136.272 97.3013 135.847 109.957 137.108C110.647 137.178 110.905 138.228 110.132 138.397C90.8874 142.622 70.9373 144.05 53.7668 154.634L52.9763 155.129C51.3283 156.177 47.4073 158.156 46.5913 160.02C45.6283 162.22 48.2363 165.048 49.4493 166.636C52.1763 170.202 55.5643 173.315 59.3043 175.792C63.2553 178.408 67.5033 180.427 72.0723 181.702C74.2423 182.308 76.4933 182.616 78.6383 183.306C81.0803 184.09 81.8683 185.341 83.7183 186.976C85.8503 188.858 85.1343 192.47 82.8353 193.821L82.19 194.196C79.1689 195.925 77.4897 196.434 73.6523 195.758C70.6503 195.228 67.7833 194.179 64.9733 193.013C59.8105 190.869 55.0984 188.062 50.7507 184.567L50.1013 184.038C42.3373 177.62 29.1823 163.582 37.8473 153.362C45.4953 144.344 60.5243 140.298 71.6653 138.404ZM102.549 41.1688C114.576 27.0008 131.562 36.6748 143.614 45.1458C156.603 54.2738 167.873 65.0408 176.985 78.0498C177.564 78.8768 176.444 79.8828 175.638 79.3968C165.535 73.3058 155.326 67.4748 144.963 61.8298C140.708 59.5119 136.448 57.25 132.094 55.1316L129.767 54.0122C126.13 52.2173 120.909 48.9417 117.031 51.0778C108.669 55.6865 113.83 70.7822 115.553 78.0931L115.71 78.7828L120.965 102.842L123.359 113.674C124.21 114.364 124.918 115.287 125.419 116.477C126.775 119.694 125.668 124.04 122.388 125.728C112.707 130.71 109.429 120.98 107.606 113.668C106.125 107.728 104.628 101.791 103.128 95.8561L100.647 86.0474C96.8461 71.1991 91.4507 54.242 102.549 41.1688Z" fill="black"/>
</g>
</svg>
