<svg width="473" height="580" viewBox="0 0 473 580" fill="none" xmlns="http://www.w3.org/2000/svg">
<g id="head/Mohawk">
<path id="Hair" fill-rule="evenodd" clip-rule="evenodd" d="M393.143 255.549C393.657 230.456 391.329 204.74 379.135 182.312C368.547 161.262 352.838 143.015 336.712 126.03C329.984 118.943 320.999 111.802 321.84 101.059C322.723 89.7857 329.504 65.3657 330.55 53.9907C332.608 31.6247 316.6 25.4697 297.886 14.8417C275.316 2.02267 248.345 3.50567 223.881 9.26067C178.26 20.1467 124.049 38.2137 106.809 86.5577C102.665 98.4807 103.699 111.03 102.874 123.398C102.101 134.975 97.466 146.001 93.024 156.579C69.54 208.863 69.752 266.591 74.016 322.71C61.476 325.61 49.351 335.407 46.587 348.407C41.955 371.169 65.827 381.691 79.927 393.994C97.123 408.997 109.641 428.416 125.273 444.9C226.707 556.742 450.531 505.267 404 331.062C397.687 306.307 392.202 281.265 393.143 255.549Z" fill="white"/>
<path id="Skin" d="M219.5 114.999L255.5 149.999H309L320 114.999L326.257 114.666C329.26 118.782 333.279 122.413 336.712 126.03C352.838 143.015 368.547 161.262 379.135 182.312C391.329 204.74 393.657 230.455 393.143 255.548C392.202 281.264 397.687 306.307 404 331.062C450.531 505.267 226.708 556.741 125.273 444.9C109.641 428.416 97.1228 408.997 79.9268 393.994C65.8268 381.691 41.955 371.169 46.587 348.407C49.351 335.407 61.4758 325.609 74.0157 322.709C69.7517 266.59 69.5405 208.862 93.0245 156.578C95.9488 149.615 98.9551 142.456 100.89 135.075L152.5 109.999L182 102.499L219.5 114.999Z" fill="#B7B5B5"/>
<path id="&#240;&#159;&#150;&#141; Ink" fill-rule="evenodd" clip-rule="evenodd" d="M192.498 11.673C217.69 1.88097 244.919 -2.25903 271.853 1.21097C286.345 3.07797 300.395 6.97597 313.648 13.162C320.04 16.146 326.172 19.684 331.923 23.771L332.448 24.1464C337 27.4293 341.643 31.4896 341.111 36.939C341.463 38.08 341.525 39.334 341.246 40.585C336.756 60.735 332.045 80.821 327.396 100.932C326.418 105.16 325.472 109.395 324.534 113.633C356.173 137.457 385.915 170.027 397.178 208.73C408.203 246.618 403.376 286.522 407.273 325.298C408.197 334.485 409.757 343.598 412.207 352.508C414.839 362.074 419.236 371.116 421.459 380.789C425.933 400.25 419.444 419.355 409.175 435.856C390.138 466.446 361.377 492.259 327.935 505.965C310.823 512.977 291.987 516.789 273.476 516.492C255.322 516.201 234.655 512.472 219.457 501.996C209.184 494.916 217.963 480.971 229.015 485.644L232.018 486.909C239.682 490.117 247.29 493.092 255.507 494.798C264.692 496.704 274.13 497.111 283.481 496.525C301.615 495.389 318.809 489.353 334.461 480.289C348.586 472.108 361.17 461.544 372.407 449.741L373.658 448.42C384.298 437.134 395.008 424.271 400.991 409.912C404.071 402.523 405.739 394.399 404.405 386.429C402.867 377.241 398.776 368.587 396.389 359.608C391.855 342.551 390.326 324.766 389.806 307.169L389.768 305.816C388.805 269.702 391.542 233.129 378.751 198.61C367.168 167.348 343.29 143.433 323.761 117.125C322.802 121.478 321.847 125.833 320.877 130.183C319.719 135.381 318.663 140.612 317.401 145.784L317.306 146.161C317.686 147.276 317.554 148.544 316.538 149.342C316.426 149.43 316.313 149.506 316.2 149.588C315.165 151.98 313.558 153.815 310.487 154.577C307.546 155.306 305.218 154.063 303.912 151.915L288.561 151.993C278.814 152.043 268.118 153.163 258.532 151.179C257.058 150.873 257.244 148.779 258.532 148.376C267.59 145.546 278.169 145.614 287.573 144.737L302.394 143.354C303.049 143.293 303.708 143.215 304.37 143.133L305.363 143.008L310.515 120.083C312.559 110.987 314.699 101.906 316.567 92.773C319.934 76.306 323.626 59.914 327.316 43.518C315.73 40.677 303.903 39.405 291.915 39.911L290.533 39.9721C285.889 40.1936 280.909 40.6585 277.026 43.354C272.209 46.696 271.861 53.59 270.794 58.906C267.866 73.485 265.77 88.203 263.933 102.958C263.045 110.093 262.374 117.247 261.587 124.391C261.229 127.633 261.01 130.929 260.527 134.151C260.067 137.218 258.967 140.203 258.346 143.234C259.416 147.86 253.006 152.255 249.428 148.145C245.005 143.064 241.13 137.76 236.188 133.114C231.23 128.452 225.813 124.371 219.974 120.874C208.108 113.766 195.779 109.394 182.527 105.699C182.087 105.577 181.838 105.304 181.717 104.988C168.494 108.74 155.56 113.824 143.559 120.359C115.737 135.51 93.8352 161.669 85.5362 192.391C80.3842 211.468 79.2472 231.619 79.1772 251.302C79.1452 260.439 79.3392 269.681 80.7842 278.722C82.3972 288.809 86.0572 297.827 89.0062 307.505C89.7762 310.032 89.5872 312.288 88.7672 314.172L89.5187 314.285C95.5414 315.227 107.34 317.883 108.415 324.45C108.716 326.291 107.686 327.731 105.793 327.891C102.428 328.176 100.312 325.732 97.6252 324.063C97.1422 323.764 96.6452 323.489 96.1502 323.211C96.0222 323.299 95.8502 323.321 95.6732 323.22C79.7842 314.171 60.3652 328.011 56.8292 344.068C53.5272 359.061 59.1462 376.423 73.6352 382.977C80.9202 386.273 88.6672 388.342 95.3722 392.85C101.015 396.644 106.001 401.282 110.35 406.496C119.305 417.228 126.06 429.465 133.993 440.919C137.475 445.946 141.341 450.696 145.936 454.758C150.969 459.206 157.972 460.961 160.104 467.924C160.935 470.639 159.553 473.9 157.109 475.282C148.165 480.342 138.033 471.541 131.776 465.574C125.353 459.449 120.113 452.032 115.304 444.61C107.25 432.18 100.372 417.999 88.5572 408.577C81.4652 402.922 72.6302 400.783 64.6482 396.783C55.4892 392.195 48.9842 384.676 45.0972 375.275C37.9422 357.968 39.8262 335.903 53.3822 322.132C57.7842 317.658 63.3552 314.797 69.1882 313.646C63.1652 303.109 60.9282 289.826 59.4172 278.035C57.8982 266.189 57.7392 254.266 58.3642 242.352L58.4901 240.037C59.6866 218.793 62.0978 196.975 69.7872 177.028C76.2602 160.239 86.0832 144.837 99.1352 132.392C100.482 131.108 101.865 129.85 103.27 128.613C102.893 128.324 102.531 128.014 102.208 127.663C98.5512 123.683 99.3342 118.31 99.8212 113.363C100.362 107.864 101.238 102.381 102.554 97.013C111.734 59.559 139.966 29.001 176.295 16.361C181.541 14.535 186.97 12.964 192.498 11.673ZM70.1002 343.108C75.9802 339.393 84.9542 340.817 91.0842 343.252C98.2952 346.115 105.975 351.457 108.815 358.921C111.445 365.831 101.631 368.28 97.9712 363.492C95.7092 360.533 94.0352 357.683 91.8892 355.104C91.6156 355.371 91.3555 355.65 91.1246 355.954L90.9572 356.186C90.0472 357.524 88.3882 358.915 86.6142 358.676L86.1352 358.613C84.3446 358.373 82.3735 357.505 81.879 355.557L81.8302 355.336L81.7642 354.984C81.3552 352.82 82.0012 350.436 84.0762 349.304C84.2152 349.228 84.3572 349.163 84.4972 349.091C79.9272 346.697 75.2142 345.948 70.2452 344.222C69.7512 344.05 69.6402 343.399 70.1002 343.108ZM233.576 20.849C202.935 20.08 169.319 29.502 146.669 50.728C135.946 60.779 128.682 72.471 122.168 85.503C119.092 91.656 117.112 98.473 115.646 105.176C114.844 108.843 114.243 112.542 113.923 116.284C113.861 117.005 113.873 117.766 113.761 118.48C113.666 119.088 113.551 119.246 113.445 119.206C113.497 119.376 113.75 119.723 113.994 120.054C136.936 103.553 165.332 93.949 193.414 100.206C194.308 100.405 194.308 101.815 193.414 102.014C191.978 102.334 190.546 102.692 189.113 103.043C201.401 103.314 214.028 107.164 224.641 112.889C235.246 118.61 246.4 126.698 254.088 136.536C253.868 135.1 253.694 133.658 253.661 132.199C253.576 128.302 253.666 124.385 253.811 120.491C254.125 112.046 254.7 103.602 255.394 95.181L255.7 91.5107C256.944 76.7922 258.474 61.6561 261.449 47.258C263.184 38.861 267.828 33.746 274.07 30.747C262.482 23.265 246.756 21.181 233.576 20.849ZM290.399 15.95C276.591 11.812 262.217 9.98897 247.832 10.238C253.061 11.559 258.123 13.479 262.887 16.13C269.017 19.542 273.333 24.062 277.198 29.448C280.835 28.182 284.88 27.483 289.136 27.181C298.964 26.484 308.9 27.008 318.663 28.556C316.841 27.434 314.992 26.357 313.113 25.334C305.889 21.405 298.272 18.309 290.399 15.95Z" fill="black"/>
</g>
</svg>
