<svg width="493" height="567" viewBox="0 0 493 567" fill="none" xmlns="http://www.w3.org/2000/svg">
<g id="head/No Hair 3">
<path id="Skin" fill-rule="evenodd" clip-rule="evenodd" d="M418.851 192.084C383.67 99.5267 320.253 31.7597 213.341 74.3237C210.274 72.2357 206.272 71.6757 202.437 74.1207C144.198 110.69 102.259 169.319 84.0839 235.43C73.0229 237.533 62.2749 241.201 52.6749 247.216C31.8109 260.289 17.7739 281.091 4.61592 301.351C0.658923 307.442 4.32292 317.526 11.7589 318.909C14.9889 319.511 18.1899 319.869 21.3729 319.963C20.5979 322.776 19.5779 325.494 18.2789 327.987C13.5759 337.011 22.4609 346.592 30.7879 344.125C31.7119 344.614 32.6799 345.016 33.6829 345.318C33.7969 350.43 36.4239 357.273 41.6229 358.306C50.0309 360.11 61.2049 353.675 59.2209 344.271C61.7609 344.718 64.2919 344.774 66.7589 344.464C67.0349 349.361 66.9489 354.471 67.6249 358.988C69.8349 380.276 91.1049 394.576 111.389 388.1C112.633 394.733 114.094 404.053 120.627 407.651C128.265 429.078 141.454 453.531 163.056 463.294C161.133 468.221 162.176 474.215 167.968 477.512C207.509 500.055 254.969 507.683 299.673 499.302C317.539 498.238 334.946 494.201 351.654 485.6C363.838 479.328 375.039 471.363 385.973 463.152C396.913 454.938 408.61 446.94 417.342 436.275C426.826 424.692 431.241 411.064 434.106 396.559C447.235 330.72 442.7 266.073 418.851 203.355C389.33 125.72 448.362 269.723 418.851 192.084Z" fill="#B7B5B5"/>
<path id="Hair" d="M143.5 254L154.5 284.5L160.5 319.5L143.5 324L133 313.5L120 296.5L96.4998 300L71.4998 324L66.9011 347.788C66.8629 346.675 66.8206 345.564 66.7586 344.464C64.2916 344.774 61.7604 344.717 59.2205 344.271C61.2045 353.674 50.0308 360.11 41.6228 358.306C36.4238 357.273 33.7964 350.429 33.6824 345.317C32.6796 345.015 31.7117 344.614 30.7879 344.125C22.4609 346.592 13.5761 337.01 18.2791 327.986C19.5779 325.493 20.5979 322.776 21.3728 319.963C18.1898 319.869 14.9886 319.511 11.7586 318.909C4.32262 317.526 0.659003 307.442 4.61599 301.351C17.7739 281.091 31.8107 260.289 52.6746 247.216C62.2746 241.201 73.0228 237.533 84.0838 235.43C84.2149 234.953 84.3476 234.476 84.4812 234H112L143.5 254Z" fill="white"/>
<path id="&#240;&#159;&#150;&#141; Ink" fill-rule="evenodd" clip-rule="evenodd" d="M248.769 56.2876C266.774 55.0166 285.107 58.0516 302.253 63.4806C329.599 72.1366 354.713 87.4126 375.346 107.3C396.611 127.795 412.338 153.064 421.901 180.973C433.433 214.631 435.159 250.569 438.405 285.704C440.045 303.455 442.747 320.936 445.556 338.516L446 341.293C448.744 358.421 450.288 375.744 446.497 392.845C440.195 421.267 421.303 445.393 398.878 463.22C352.811 499.842 281.097 522.169 227.46 488.47C219.162 483.256 227.025 469.923 235.126 475.356C240.827 479.181 246.867 482.534 253.344 484.849C280.406 494.52 310.127 491.075 336.873 482.079C363.23 473.214 388.521 458.235 407.969 438.247C428.397 417.252 439.718 391.319 438.082 361.811C437.107 344.254 433.107 327.022 430.887 309.608C428.92 294.184 427.741 278.677 426.382 263.192L425.884 257.622C423.003 226.071 418.864 193.655 404.509 165.016C392.434 140.922 374.753 119.487 353.493 102.933C331.235 85.6016 304.65 73.4806 276.756 68.9596C243.954 63.6436 212.554 73.3106 185.191 91.3066C160.923 107.267 140.059 128.595 124.061 152.795C116.303 164.529 109.694 177.06 103.987 189.911C98.609 202.019 94.901 214.709 90.576 227.189C94.135 227.083 97.753 227.22 101.427 227.626C120.271 229.714 137.828 239.48 149.005 254.879C162.664 273.696 158.972 296.794 164.307 318.194C164.72 319.855 164.018 321.481 162.595 322.4C154.506 327.628 143.68 327.802 135.851 321.915C129.056 316.806 125.866 307.569 128.617 299.498C128.976 298.446 130.508 298.632 130.551 299.76C131.068 313.495 143.811 324.072 156.302 317.536C150.944 299.083 153.764 278.474 142.805 261.806C123.408 232.306 83.268 231.087 55.075 247.717C40.2375 256.467 28.4932 269.625 19.7481 284.343L17.2286 288.615C13.8765 294.324 10.3264 300.782 9.63097 307.069C9.22997 310.697 10.569 314.106 14.731 312.278C18.098 310.8 20.705 307.351 22.705 304.386C26.1159 299.329 33.9541 303.698 31.1366 309.083L31.041 309.259C26.9406 316.523 24.4161 324.528 23.9525 332.869L23.8347 335.178C23.7574 336.862 23.7018 339.254 24.058 339.342C24.485 339.447 27.452 336.022 27.946 335.548C30.326 333.262 32.777 331.394 36.09 330.785C40.4451 329.986 44.8392 335.375 41.0587 338.907L40.901 339.05C37.527 341.983 37.677 347.832 41.404 350.575C46.664 354.446 53.1399 348.127 53.9033 342.925L53.929 342.733C54.604 337.112 62.411 336.913 62.835 342.733C63.756 355.363 48.719 365.949 37.278 359.577C32.754 357.059 29.878 352.448 28.977 347.506C27.533 348.269 25.975 348.798 24.328 348.944C18.966 349.419 15.154 345.649 14.287 340.589C13.277 334.694 13.876 328.382 15.429 322.26C12.517 322.962 9.45397 322.694 6.37497 320.917C-2.94003 315.542 -0.265026 303.586 3.25197 295.514C18.267 261.06 49.375 229.797 87.915 227.315C88.126 221.236 88.95 215.489 90.298 209.402C103.48 149.863 146.184 94.7306 201.779 68.9626C216.635 62.0766 232.39 57.4446 248.769 56.2876ZM102.976 294.123L103.504 294.004C109.511 292.71 125.317 291.19 123.412 301.297C123.322 301.772 122.631 301.714 122.508 301.297C120.642 294.942 107.966 300.024 104.265 301.554C99.1629 303.662 94.1299 306.772 89.9639 310.387C80.8429 318.303 74.7289 329.459 73.7989 341.575C72.8769 353.594 76.3639 366.576 85.0339 375.27C89.2839 379.531 94.7089 382.424 100.803 382.637C106.278 382.827 112.327 378.565 117.379 381.061C118.375 381.553 119.164 382.904 119.074 384.016C118.904 386.121 117.962 387.76 116.56 389.031C125.018 404.444 131.94 420.758 142.729 434.774C148.143 441.806 154.278 448.318 161.225 453.86C164.527 456.495 168.117 458.809 171.819 460.842C176.157 463.227 179.911 464.719 183.007 468.759C185.647 472.204 183.006 478.865 178.654 479.459C168.405 480.855 158.445 472.569 150.921 466.362C143.404 460.16 136.907 452.51 131.538 444.393C121.228 428.806 114.175 410.418 111.355 391.815C108.081 392.853 104.395 393.17 101.622 393.176C94.2439 393.193 87.1989 390.539 81.4009 386.054C60.1749 369.637 57.8159 335.93 72.7949 314.674C79.9629 304.503 90.8549 296.988 102.976 294.123ZM103.109 333.217C108.031 332.785 112.949 333.562 117.575 335.24L119.482 335.932C123.511 337.404 127.799 339.136 130.708 342.156C135.153 346.772 130.727 354.77 124.395 353.001C117.394 351.045 111.704 345.149 104.705 342.676C98.4491 340.466 91.3631 340.779 85.8111 344.585C85.0781 345.088 84.1141 344.096 84.5931 343.366C88.8401 336.899 95.5451 333.88 103.109 333.217Z" fill="black"/>
</g>
</svg>
