<svg width="503" height="598" viewBox="0 0 503 598" fill="none" xmlns="http://www.w3.org/2000/svg">
<g id="head/Shaved 3">
<path id="&#240;&#159;&#142;&#168; Background" fill-rule="evenodd" clip-rule="evenodd" d="M382.423 82.0236C328.954 66.3306 145.07 82.4166 140.523 85.8156C133.082 91.9986 96.8878 111.617 91.2558 116.096C40.3308 170.07 88.8785 250.223 85.1425 315.335C85.3805 338.431 75.5385 359.519 71.0145 381.738C69.1045 393.382 69.5255 405.426 75.5945 415.88C86.2645 434.56 108.797 438.347 127.123 445.879C136.242 449.805 144.762 455.372 152.572 461.463C205.156 507.98 234.426 539.834 311.153 529.34C311.545 533.003 314.79 536.602 318.813 534.965C328.233 531.129 337.586 527.06 347.088 523.424C349.119 528.318 354.953 529.715 358.905 525.393L358.928 525.424C376.517 511.156 387.703 491.647 396.011 470.762C401.825 458.713 406.586 446.141 410.224 433.195C410.635 431.73 410.581 430.421 410.209 429.294C426.995 371.451 433.207 310.487 428.788 250.43C427.893 238.039 425.553 225.484 426.128 213.041C426.648 201.799 431.491 191.165 435.183 180.695C454.221 136.186 425.119 96.0376 382.423 82.0236Z" fill="#B7B5B5"/>
<path id="&#240;&#159;&#150;&#141; Ink" fill-rule="evenodd" clip-rule="evenodd" d="M389.149 9.75579L389.719 9.31391C395.884 4.47747 401.696 -1.86108 410.389 0.51579C417.519 2.46579 421.119 8.36579 422.649 15.4958C424.819 13.2258 426.929 10.8758 428.989 8.44579C434.589 1.84579 447.099 5.26579 448.769 13.6758C452.149 30.6158 452.319 47.8558 449.029 64.8258C448.529 67.3958 447.939 69.9558 447.249 72.4858C450.999 67.8158 454.489 62.9458 457.619 57.8158C461.009 52.2458 468.669 55.0058 469.199 60.9558C469.339 62.4958 469.419 64.0558 469.439 65.6258C471.829 66.4658 473.479 68.9258 472.849 71.9458C469.369 88.5658 464.959 104.956 459.659 121.066C468.179 116.546 477.729 113.866 486.719 117.056C500.999 122.136 504.399 137.716 501.609 151.126C498.099 167.986 487.059 182.096 472.819 191.346C471.129 193.886 469.459 196.446 467.869 199.056C467.839 206.426 466.499 213.776 463.799 220.606C460.759 228.276 455.399 234.906 448.799 239.946C446.48 244.997 440.336 248.687 434.942 247.664L434.659 247.606L434.649 247.616C436.029 252.556 437.219 257.546 438.249 262.546C446.224 301.284 442.186 341.608 434.912 380.127L434.679 381.356C428.149 415.636 420.549 451.136 405.779 482.966C392.419 511.746 369.769 537.056 337.399 543.336C299.319 550.726 257.169 539.016 224.419 519.486C212.549 512.406 223.429 493.746 235.249 500.946C252.309 511.326 270.839 518.576 290.439 522.396C308.759 525.956 329.249 527.166 346.819 519.786C371.289 509.506 385.829 484.396 395.029 460.756C400.449 446.806 404.509 432.406 408.289 417.946C413.159 399.356 417.699 380.646 421.109 361.726C427.459 326.436 429.519 289.786 422.799 254.396C420.659 243.106 417.629 231.746 413.679 220.826C413.059 220.056 412.469 219.196 411.939 218.256C407.809 211.016 404.959 202.786 401.889 194.956C399.199 190.286 396.259 185.796 393.139 181.406C388.474 177.821 384.031 173.988 379.961 169.806C391.782 162.152 402.213 152.57 409.718 140.364C410.956 138.351 410.17 136.427 408.703 135.342C402.71 142.839 394.952 149.188 386.792 154.813C382.612 158.393 378.11 161.609 373.392 164.515C370.021 165.182 366.613 165.64 363.309 166.016C353.899 167.086 344.439 166.686 335.079 165.436C314.839 162.736 229.241 139.162 193.159 148.326C185.643 150.235 182.099 156.976 178.119 163.306C174.667 168.812 170.276 173.369 165.008 177.122L164.419 177.536C154.119 184.666 133.41 207.222 124.705 227.354C113.465 253.346 102.669 331.236 107.639 331.906C120.639 333.666 127.839 340.506 138.429 347.846C139.129 348.326 138.719 349.626 137.819 349.296C130.829 346.776 123.269 345.286 115.939 344.066C109.309 342.956 102.329 342.756 95.929 345.126C86.109 348.766 81.319 356.996 79.349 366.276C78.579 369.906 78.239 373.696 78.199 377.446L78.1934 378.533C78.1986 390.357 80.4032 403.464 88.989 412.186C92.639 415.896 97.589 418.396 102.769 419.086C108.439 419.846 111.939 417.286 117.149 415.956C123.149 414.426 127.829 418.376 127.269 423.526C128.539 424.636 129.769 425.806 130.989 426.996L130.99 427.001L130.999 427.006C131.799 427.366 132.559 427.846 133.249 428.426C134.379 429.386 135.329 430.436 136.089 431.566C137.779 431.896 139.399 432.836 140.729 434.556C143.469 438.086 145.999 441.656 148.349 445.296C152.559 449.766 156.749 454.246 160.879 458.796C165.85 464.264 170.69 469.858 175.56 475.419L177.999 478.196C180.629 481.186 183.249 484.176 185.869 487.176L186.651 488.057C189.286 491.008 191.306 493.187 191.589 497.436C191.789 500.586 188.399 502.726 185.589 502.006C181.256 500.889 179.245 497.488 176.65 494.113L172.729 489.085L169.039 484.346C167.209 481.986 165.359 479.636 163.519 477.286C162.969 481.616 158.389 485.106 154.209 485.296L153.235 485.334C143.419 485.66 131.49 484.275 124.019 477.356C120.659 480.746 116.479 483.416 111.329 485.016C99.629 488.656 87.669 482.206 82.939 472.396C73.769 476.326 63.409 477.116 53.499 474.226C47.7831 472.55 45.8063 465.427 49.7894 461.066L49.969 460.876L50.015 460.824C49.193 459.755 48.741 458.447 48.668 457.022C48.579 455.292 49.84 453.458 49.58 451.843C48.588 445.684 38.544 450.247 35.352 451.581C34.742 451.835 34.17 451.956 33.636 451.975C28.701 453.412 23.334 446.928 25.919 441.576C31.709 429.616 37.359 417.566 43.219 405.626C42.479 405.876 41.719 406.106 40.969 406.296C30.439 408.996 17.669 403.816 20.099 391.126C20.659 388.146 23.359 386.106 26.039 385.186C31.259 383.386 35.179 384.686 39.199 383.006C43.729 381.126 48.459 377.676 52.439 374.426C56.689 370.966 60.359 367.076 63.609 362.856C64.909 356.726 67.159 350.866 70.759 345.826C70.979 345.526 71.199 345.226 71.429 344.936C48.3422 339.431 51.3653 316.726 41.1817 296.605L40.3213 294.937C33.4048 281.477 27.3708 266.302 30.859 250.976C31.479 248.266 32.379 245.676 33.539 243.256C31.689 243.486 29.829 243.696 27.979 243.906C23.729 244.386 19.409 238.906 21.099 234.876C21.989 232.766 22.969 230.726 24.029 228.746C26.969 223.286 30.579 218.326 34.829 213.846C27.689 213.656 20.539 213.656 13.479 212.836C6.80901 212.066 -0.200988 208.416 0.00440717 200.726C0.211012 193.394 6.64401 187.844 12.609 184.267C18.48 176.458 25.927 169.968 34.35 165.145C32.6837 164.77 30.9954 164.493 29.2794 164.322L28.419 164.246C23.609 163.866 19.289 162.546 14.929 160.536C11.029 158.736 11.089 153.276 13.639 150.526C21.883 141.614 34.235 144.516 43.846 149.623C43.1768 148.774 42.4438 147.956 41.6451 147.173L41.158 146.708C36.436 142.311 43.523 135.255 48.229 139.637C49.716 141.022 51.048 142.527 52.236 144.122L52.349 143.886C58.5667 131.274 67.6607 119.986 78.42 110.94L80.9486 108.838C100.35 92.631 106.337 84.9496 132.139 87.3358C131.039 82.6488 131.147 77.3763 131.394 73.041L131.429 72.4558C132.419 56.1558 138.429 36.6458 154.329 29.3258C158.459 27.4358 163.139 30.5258 162.039 35.2558C161.269 38.6058 160.329 41.8658 159.159 45.0358C162.629 41.3858 166.349 37.9758 170.289 34.8358C186.349 22.0358 207.809 11.0258 228.919 14.6258C240.519 16.6158 249.619 23.8958 259.329 29.9758C269.089 36.0958 279.989 39.7258 291.419 41.0358C307.389 42.8758 323.419 41.0258 339.209 38.1058C350.059 33.3758 360.589 27.8358 370.869 21.8658C377.189 18.1958 383.339 14.1858 389.149 9.75579ZM105.609 363.785C108.989 362.915 112.779 362.926 116.169 363.776C124.919 365.975 133.059 373.296 133.569 382.526C133.799 386.695 130.439 390.685 126.539 391.755C122.119 392.975 118.319 390.815 115.739 387.355C112.969 383.655 112.279 379.646 108.889 376.285L108.107 375.524C105.225 372.769 100.868 369.206 96.8687 369.845C96.2787 369.935 95.8387 369.135 96.4387 368.815C99.6987 367.035 101.839 364.745 105.609 363.785ZM151.058 320.316C152.602 319.056 154.641 320.534 153.915 322.346L153.858 322.476C152.028 326.336 154.178 330.866 156.398 334.096C158.308 336.886 154.698 339.536 152.158 338.336C145.018 334.946 145.388 324.916 151.058 320.316ZM177.158 204.345C177.028 203.405 178.278 203.015 178.598 203.945C183.928 219.415 185.458 233.115 184.588 249.475L184.506 250.927C183.565 266.685 180.805 283.363 171.268 296.305C169.058 299.295 164.538 297.535 165.268 293.775C168.198 278.725 173.828 264.435 176.018 249.205C178.308 233.285 179.338 220.275 177.158 204.345ZM127.38 260.576C128.16 256.446 134.51 252.196 137.72 256.346C138.8 257.756 137.53 259.486 136.23 260.006C135.01 260.486 133.92 259.826 132.72 260.066C131.749 260.262 131.04 260.867 130.567 261.695L130.47 261.876C129.53 263.676 127.05 262.336 127.38 260.576ZM124.78 227.676C127.06 223.456 132.31 220.766 136.8 223.396C138.28 224.266 137.7 226.796 135.9 226.716L134.833 226.672C131.632 226.556 128.431 226.621 125.74 228.646C125.14 229.096 124.48 228.246 124.78 227.676ZM132.795 112.428C120.006 106.678 107.287 111.869 96.8438 119.965C95.9798 120.635 95.5608 121.417 95.4688 122.203C102.441 119.488 109.864 117.708 116.96 116.239C122.762 115.037 128.619 114.226 134.483 113.906C134.155 113.317 133.616 112.797 132.795 112.428Z" fill="black"/>
</g>
</svg>
