<svg width="478" height="567" viewBox="0 0 478 567" fill="none" xmlns="http://www.w3.org/2000/svg">
<g id="head/Shaved 1">
<path id="&#240;&#159;&#142;&#168; Background" fill-rule="evenodd" clip-rule="evenodd" d="M346.463 91.6774C272.561 53.8014 162.444 57.8744 110.446 129.508C102.17 143.104 93.7694 157.994 89.6934 173.144C84.5813 192.704 75.5373 221.723 73.4406 249.857C72.2226 266.199 77.7618 282.045 76.2588 296.081C75.0706 307.177 63.7084 303.804 64.1699 314.449C65.0715 335.244 65.7295 365.508 76.2588 381.876C86.1548 396.02 104.636 395.152 115.5 408.493C125.739 421.056 134.589 434.994 147.531 445.05C174.62 495.598 251.927 507.074 304.043 502.357C428.215 482.629 426.751 297.043 424.968 199.422C425.528 149.453 388.87 112.464 346.463 91.6774Z" fill="#B7B5B5"/>
<path id="&#240;&#159;&#150;&#141; Ink" d="M159.477 36.5222C204.588 11.4122 258.448 0.871614 309.718 6.46161C335.388 9.27164 360.988 15.6423 383.508 28.6423C404.048 40.4822 420.856 57.9021 431.917 78.8708C442.447 98.8518 447.768 121.762 448.357 144.282C448.658 155.662 447.538 167.052 445.348 178.221C444.258 183.801 442.607 189.982 443.928 195.662C445.208 201.162 450.377 204.232 454.247 207.892C471.587 224.302 480.118 249.202 476.808 272.772C473.958 293.102 461.638 314.331 443.598 325.152C446.328 328.272 448.436 332.032 449.877 335.712C453.407 344.772 453.158 354.472 449.308 363.362C445.378 372.422 437.537 383.422 428.627 388.152C424.217 390.482 419.037 391.291 414.297 389.782C411.377 421.702 402.568 452.172 379.718 476.702C361.338 496.442 336.287 510.152 309.497 513.912C294.936 515.942 280.007 515.352 265.577 512.581C258.787 511.282 252.106 509.371 245.657 506.882C238.487 504.112 231.257 501.362 226.047 495.541C220.606 489.472 225.918 480.331 233.897 482.072C241.427 483.712 248.028 487.971 255.327 490.471C262.106 492.781 269.177 494.572 276.287 495.502C290.517 497.382 305.127 495.862 318.867 491.831C341.097 485.302 361.727 470.941 375.218 452.051C390.738 430.331 397.088 404.252 399.397 377.992C402.048 347.762 401.008 317.272 401.268 286.962C401.408 270.992 401.267 255.022 401.377 239.062C401.487 223.852 401.077 208.672 402.037 193.502C401.356 193.371 400.658 193.081 399.968 192.572C392.778 187.352 387.138 179.932 380.268 174.212C373.328 168.432 365.797 163.362 357.957 158.902C328.627 142.202 294.707 135.032 261.127 135.581C242.657 135.882 224.537 138.302 206.487 142.152L150.528 157.102C139.038 149.112 126.037 143.492 113.367 137.602C112.047 142.812 108.277 147.812 105.947 152.432C102.857 158.552 100.007 164.802 97.4875 171.182C92.4076 184.022 88.3377 197.331 85.2678 210.801C82.1278 224.601 80.4174 238.612 78.6574 252.632C77.7974 259.502 76.848 266.462 76.468 273.372C76.258 277.102 76.3375 280.852 76.2775 284.581C76.2265 287.132 75.3878 292.512 77.5978 294.912C77.7778 295.102 77.9678 295.272 78.1867 295.422C90.2776 291.762 104.177 295.772 109.707 308.162C110.057 308.942 109.198 309.632 108.528 309.072C97.2575 299.632 77.7171 305.002 71.5471 317.822C68.6672 323.791 68.238 331.022 69.718 337.422C71.468 344.952 76.1466 351.222 79.0676 358.291C80.7075 362.262 81.4971 366.202 82.1271 370.422C82.5171 373.032 82.6978 376.722 84.5978 378.742C86.6179 380.892 90.5481 381.172 93.258 381.782C97.0278 382.632 100.668 383.662 104.107 385.462C117.538 392.482 124.407 408.882 133.947 419.982C139.436 426.371 145.408 432.371 151.778 437.892C157.877 443.182 167.646 447.522 168.477 456.261C168.758 459.151 166.178 462.001 163.558 462.721C157.038 464.521 152.368 460.052 147.607 456.291C143.198 452.812 138.948 449.132 134.897 445.242C126.878 437.552 119.657 429.062 113.167 420.062C108.476 413.552 104.557 405.142 97.8273 400.432C90.9573 395.632 81.6862 396.87 74.9572 391.301C66.8276 384.571 68.4678 375.422 66.0978 366.291C63.8078 357.512 57.7872 350.241 55.9572 341.221C52.6974 325.081 57.5876 305.312 73.3371 297.362C74.2871 296.882 75.268 296.452 76.258 296.081C75.958 295.862 75.6779 295.612 75.4279 295.331C73.647 293.402 72.9276 290.152 72.3566 287.692C70.5576 280.012 69.5573 272.031 68.4973 264.221C66.3174 248.342 67.4678 232.202 70.0178 216.432C72.4078 201.592 76.1576 187.062 81.2775 172.942C79.4975 171.712 78.0878 169.892 77.3078 167.581C75.6178 162.672 77.1376 157.661 78.1066 152.721C78.3966 151.212 78.7171 149.702 79.0471 148.192C78.2871 99.3711 119.258 58.9022 159.477 36.5222ZM81.3967 330.981C88.2267 330.871 94.028 332.172 99.967 335.831C105.657 339.352 110.947 344.433 113.517 350.673C115.646 355.831 107.107 359.222 104.607 354.423C102.037 349.492 100.127 344.902 96.007 340.963C92.097 337.213 86.4465 333.791 81.2375 332.182C80.5767 331.972 80.7068 330.991 81.3967 330.981Z" fill="black"/>
</g>
</svg>
