<svg width="473" height="567" viewBox="0 0 473 567" fill="none" xmlns="http://www.w3.org/2000/svg">
<g id="head/Turban">
<path id="Hair" fill-rule="evenodd" clip-rule="evenodd" d="M463.871 255.553C454.72 205.654 432.156 158.175 397.503 121.026C393.504 116.615 389.911 109.657 383.809 108.545C377.684 96.064 366.009 87.241 356.676 77.162C336.305 56.851 316.815 34.154 290.54 21.328C168.671 -28.794 51.3942 114.122 26.5072 221.603C1.78823 308.04 28.7862 427.278 135.908 430.776C151.063 450.82 171.975 464.694 193.456 477.085C222.791 495.867 254.791 503.491 288.729 493.039C322.528 501.871 357.565 473.529 377.877 448.673C393.932 429.42 404.936 405.923 419.621 385.994C436.958 385.561 451.94 370.881 454.261 353.674C470.454 323.917 469.718 288.259 463.871 255.553Z" fill="white"/>
<path id="Skin" d="M323.5 176.5L391 240.5L415 312V392.542C402.512 410.931 392.205 431.491 377.877 448.673C357.565 473.529 322.528 501.871 288.729 493.039C254.791 503.491 222.791 495.867 193.456 477.085C171.975 464.694 151.063 450.82 135.908 430.776C129.851 430.579 124.05 430.009 118.5 429.098V415L100 387L103 370L134 303L207.5 208.5L274.5 138L323.5 176.5Z" fill="#B7B5B5"/>
<path id="&#240;&#159;&#150;&#141; Ink" fill-rule="evenodd" clip-rule="evenodd" d="M198.415 4.34579C220.59 -0.835214 243.845 0.238787 265.81 5.93279C309.345 17.2198 345.166 46.5708 374.867 79.2958C403.838 111.216 427.729 147.808 445.178 187.227L446.062 189.232C458.404 217.332 469.13 246.538 469.59 277.479C469.986 304.108 467.296 331.85 458.693 357.178C451.029 379.741 436.932 402.477 412.679 407.886C398.694 443.434 371.334 474.218 336.869 490.69C315.493 500.907 292.018 505.468 268.384 503.2C244.271 500.888 221.748 489.302 202.903 474.527C202.386 474.122 203.051 473.337 203.584 473.643C226.273 486.718 253.107 491.392 279.095 490.532C321.803 489.12 360.956 466.069 383.454 429.836C389.052 420.818 394.04 411.306 398.019 401.411C397.786 400.597 397.651 399.772 397.651 398.968C397.651 395.559 399.269 392.954 401.683 391.271C402.802 387.774 403.792 384.237 404.619 380.66C406.494 372.558 407.54 364.339 408.171 356.054C408.683 349.323 408.399 342.182 409.075 335.279C408.829 329.748 408.487 324.222 407.986 318.708C406.373 300.94 403.111 283.216 396.828 266.47C390.463 249.508 380.411 234.55 367.729 221.675C340.527 194.061 306.659 173.899 280.208 145.531L278.823 144.031L278.729 144.001C275.447 147.366 272.167 150.731 268.878 154.089L253.851 169.416C223.182 200.732 192.761 232.352 166.08 267.2C150.717 287.267 136.914 308.302 125.021 330.608C119.389 341.172 114.282 352 109.666 363.046L107.85 367.443C105.689 372.706 103.353 378.596 102.056 384.539C105.916 388.368 108.739 393.995 111.861 398.341C115.402 403.27 119.486 407.962 123.688 412.341C127.941 416.774 132.606 421.023 137.558 424.664L138.152 425.093C143.834 429.125 150.357 431.91 151.209 439.586C151.579 442.919 148.599 445.6 145.84 446.638C138.287 449.475 130.463 441.325 125.429 436.637C122.29 433.713 119.404 430.562 116.728 427.235C114.123 427.608 111.501 427.795 108.906 427.487C104.885 427.009 100.903 426.306 96.9858 425.276C64.4978 416.746 40.4508 389.776 27.4768 359.739C10.0588 319.413 10.4638 272.928 17.7048 230.284C30.9358 152.354 73.7578 79.5758 138.419 33.5008C156.528 20.5968 176.609 9.43979 198.415 4.34579ZM233.417 14.7708C191.645 12.5698 153.561 34.1098 123.006 60.9228C67.3723 109.743 33.1043 181.223 26.2103 254.626C22.5473 293.626 25.2883 335.663 45.6243 370.12C53.5143 383.489 63.6763 395.138 75.6713 404.96C86.9743 414.217 99.8583 419.552 113.632 423.182C113.005 422.318 112.386 421.448 111.784 420.565C108.58 415.874 106.035 410.888 103.903 405.664C103.715 405.852 103.361 405.89 103.152 405.603C94.4583 393.674 97.1793 379.44 101.323 366.322C105.668 352.563 111.175 339.175 117.46 326.188C140.369 278.86 174.443 237.629 209.813 199.154C227.877 179.505 246.54 160.425 265.134 141.28C274.42 131.72 283.681 122.132 292.825 112.434C297.376 107.606 301.899 102.753 306.381 97.8608C310.813 93.0238 314.801 87.9008 320.319 84.2778C324.718 81.3908 329.109 86.9088 327.053 91.0128C323.891 97.3251 318.453 102.329 313.641 107.462L313.145 107.994C308.454 113.058 303.719 118.081 298.956 123.077C293.478 128.823 287.957 134.53 282.419 140.222C287.142 139.675 291.921 139.36 296.616 138.647C302.992 137.679 309.282 136.253 315.54 134.702C322.135 133.069 328.645 130.984 334.928 128.392C340.831 125.958 346.41 122.058 352.905 121.676C358.403 121.352 360.12 128.159 357.074 131.741C352.876 136.677 345.329 138.62 339.191 140.452L338.324 140.714C331.535 142.786 324.588 144.341 317.566 145.38C308.327 146.748 297.649 147.374 287.764 145.974C307.504 157.548 325.669 171.892 343.782 185.88L346.978 188.345C364.675 201.961 381.947 216.639 394.565 235.268C406.343 252.659 413.455 272.906 417.446 293.421C419.415 303.542 420.714 313.77 421.586 324.041C424.835 333.147 424.314 343.974 423.495 353.989L423.203 357.446L423.225 358.46C423.347 364.724 425.864 378.671 419.936 383.401C419.835 383.905 419.741 384.412 419.635 384.916C420.373 384.46 421.102 383.991 421.825 383.509C422.122 383.31 422.41 383.091 422.701 382.876L423.52 382.203C423.552 382.177 423.579 382.154 423.6 382.135C425.44 380.52 427.195 378.834 428.831 377.011C431.854 373.642 434.728 369.361 437.45 364.429C443.431 353.589 447.252 341.805 450.207 329.621C455.609 307.346 457.838 283.421 455.374 260.577C455.03 257.388 454.324 253.39 453.229 249.288C450.629 239.548 447.638 229.911 444.289 220.404C437.59 201.385 429.378 182.934 419.803 165.19C400.357 129.15 375.337 95.8298 345.359 67.8688C315 39.5518 275.629 16.9948 233.417 14.7708ZM174.511 129.921C176.017 129.001 177.567 130.788 176.82 132.23C173.203 139.209 167.121 145.101 162.069 151.081C156.838 157.273 151.645 163.499 146.465 169.734C135.917 182.429 125.622 195.357 115.733 208.573L113.122 212.069C104.428 223.739 95.8399 235.595 88.2399 247.995C84.2639 254.482 80.7599 261.191 77.5779 268.1C74.5489 274.677 73.1519 282.616 69.5119 288.794C69.2829 289.184 68.5729 289.152 68.4849 288.659C67.2969 282.007 70.2319 273.995 72.3289 267.766C74.8219 260.358 78.3699 253.302 82.1679 246.487C90.0899 232.271 99.5819 218.946 109.118 205.782C118.803 192.415 128.858 179.321 139.407 166.623C144.362 160.658 149.428 154.813 154.645 149.083L156.609 146.94C162.074 141.012 167.582 134.151 174.511 129.921ZM149.185 109.254C151.662 107.419 153.776 111.169 152.196 113.157C142.757 125.031 132.017 135.7 121.687 146.774C111.767 157.409 102.285 168.442 93.338 179.909C75.095 203.292 60.492 228.95 48.124 255.841C47.891 256.348 47.157 255.97 47.267 255.48C53.8181 226.393 69.1339 199.975 86.5728 176.106L87.236 175.201C104.875 151.198 125.151 127.069 149.185 109.254Z" fill="black"/>
</g>
</svg>
