<svg width="473" height="567" viewBox="0 0 473 567" fill="none" xmlns="http://www.w3.org/2000/svg">
<g id="head/Twists">
<path id="&#240;&#159;&#142;&#168; Background" fill-rule="evenodd" clip-rule="evenodd" d="M67.9726 102.4C73.1586 96.8355 79.7916 92.6895 87.0426 91.3645C80.4146 94.6755 73.9356 98.1265 67.9726 102.4ZM57.8149 150.384C56.8979 146.143 56.2819 141.861 56.0879 137.58C57.2469 139.342 59.0979 140.519 61.1769 141.127C59.8339 144.134 58.6919 147.232 57.8149 150.384ZM404.835 216.878C398.849 191.961 370.921 144.034 364.32 134.809C357.152 111.968 396.246 93.6505 374.985 75.7895C365.359 67.7305 352.637 64.8785 340.703 62.0205C258.073 42.1765 169.295 52.1845 92.6586 88.6755C81.0016 86.2225 68.8566 91.0165 60.3796 99.4365C20.5546 139.464 74.8286 211.686 86.6966 256.812C107.059 307.129 65.1146 315.594 69.6126 358.167C73.1076 380.16 95.3846 385.973 114.184 389.297C117.197 390.002 121.225 390.108 122.197 393.293C125.243 411.884 135.685 429.602 149.704 441.625C148.478 445.257 149.414 449.666 153.737 452.856C192.905 481.963 242.292 496.53 291.144 493.911C349.362 490.791 379.469 457.423 386.734 448.831C426.903 394.583 422.103 323.009 413.909 258.36C408.201 213.325 415.439 261.018 404.835 216.878Z" fill="#B7B5B5"/>
<path id="&#240;&#159;&#150;&#141; Ink" fill-rule="evenodd" clip-rule="evenodd" d="M225.322 9.54145C227.152 3.82145 232.332 0.381454 238.262 1.09145C243.512 1.71145 249.132 6.92145 248.492 12.6715C248.372 13.7815 248.212 14.8215 248.022 15.8015L248.047 15.8102L248.072 15.8115L247.942 16.1915C247.552 18.0215 247.012 19.6615 246.212 21.2115C245.192 24.1815 244.212 27.1615 243.242 30.1515C244.642 30.0915 246.072 30.1715 247.522 30.4415C249.022 26.6015 250.532 22.7715 252.032 18.9215C253.642 14.8115 254.772 9.53145 257.952 6.35145C262.022 2.29145 269.082 1.45145 274.042 4.35145C279.282 7.41145 281.152 12.8515 280.012 18.6815C279.432 21.6552 277.445 23.7248 274.987 25.0251L274.722 25.1615L272.832 29.6415C273.412 29.3915 274.012 29.1615 274.662 28.9715C275.682 28.6715 276.682 28.4815 277.662 28.4015C280.362 23.5115 283.332 18.7615 286.402 14.1015C289.932 8.74145 296.832 6.46145 302.622 9.85145C307.802 12.8815 310.582 20.8415 306.872 26.0715C304.052 30.0415 301.382 34.0915 298.752 38.1815C299.202 38.2615 299.652 38.3615 300.082 38.4915C300.282 38.2215 300.492 37.9515 300.712 37.6815C303.582 34.1215 306.922 31.4515 310.352 28.4915C313.562 25.7115 315.042 21.3415 319.262 19.2315C324.572 16.5815 330.972 17.8515 334.132 23.1315C340.912 34.4415 329.532 42.7015 322.252 49.5515C328.582 45.6015 335.172 41.9915 341.932 38.8715C345.732 37.1215 349.592 35.4315 353.512 33.9715C359.322 31.8115 364.022 32.5025 368.792 36.5215C370.922 38.3215 371.982 42.2525 371.002 44.8715C369.102 49.8915 366.102 52.9415 360.842 54.3915C357.142 55.4115 353.352 56.1015 349.652 57.1715C343.452 58.9515 337.432 61.1215 331.592 63.8315C332.012 64.0915 332.412 64.3715 332.782 64.6915C337.142 63.2815 341.582 62.0615 346.042 61.0215C353.439 59.2871 360.967 58.1152 368.529 57.3822L371.041 57.1484C380.107 56.2784 391.008 54.6729 396.572 63.3515C398.402 66.2114 398.602 70.9314 396.572 73.7615C392.692 79.2015 388.832 80.2815 382.412 80.3815C388.732 81.0515 395.042 81.8815 401.322 82.8515C405.65 83.5115 409.979 84.2596 414.289 85.0896L416.442 85.5115C421.692 86.5615 427.552 87.1715 432.062 90.2115C441.902 96.8515 437.282 109.781 426.382 111.161C421.112 111.821 415.262 109.591 410.092 108.551C405.072 107.541 400.032 106.651 394.972 105.871C392.352 105.461 389.732 105.101 387.102 104.771C392.452 105.541 397.762 106.631 402.932 108.171L404.368 108.605C414.363 111.651 427.854 116.502 430.972 127.181C432.862 133.671 427.692 139.331 421.432 139.711C415.612 140.061 410.762 136.591 405.822 134.031C402.222 132.171 398.562 130.781 394.682 129.591C390.672 128.361 386.582 127.341 382.462 126.511C385.944 128.43 389.334 130.538 392.589 132.896L394.086 134.002C402.737 140.448 415.93 150.428 412.882 162.511C411.922 166.321 407.672 169.961 403.592 169.571C392.972 168.581 387.112 157.271 379.102 151.211C377.012 149.631 374.722 148.071 372.322 146.551C384.462 161.031 394.122 177.771 401.472 195.061C417.625 233.099 422.581 268.325 422.7 309.225L422.702 310.491C422.722 333.051 422.212 356.021 420.012 378.481C417.972 399.231 414.232 419.711 404.822 438.502C389.052 470.011 358.322 494.551 324.432 503.891C286.722 514.291 244.572 506.161 213.682 482.161C205.802 476.041 216.252 462.752 224.302 468.401C256.452 490.951 298.032 498.091 334.932 482.831C364.202 470.731 387.772 444.701 397.762 414.731C404.12 395.665 405.972 375.336 408.24 355.465L408.392 354.141C410.792 333.361 412.182 312.441 412.162 291.521C412.132 252.671 406.552 220.691 389.462 185.451C381.422 168.851 370.992 153.502 358.532 140.031C354.752 140.801 350.732 139.721 346.912 139.311C344.962 139.101 343.012 138.901 341.062 138.721C343.054 140.009 345.007 141.349 346.928 142.719L349.446 144.535C357.328 150.18 367.328 156.609 365.302 167.521C364.752 170.471 361.812 173.181 358.962 173.851C348.632 176.311 341.532 166.271 334.552 160.311C328.482 155.131 322.132 150.491 315.662 145.841C314.192 144.791 312.712 143.741 311.222 142.701C312.622 144.333 313.983 145.991 315.312 147.664L317.276 150.153C323.218 157.588 331.784 167.253 326.492 176.891C324.992 179.611 321.792 181.421 318.692 181.361C308.032 181.141 303.792 169.041 298.792 161.401C294.492 154.851 289.822 148.681 284.992 142.511C283.662 140.821 282.322 139.131 280.962 137.441C258.572 138.601 236.262 141.561 214.342 146.291C199.282 149.541 184.472 153.752 169.772 158.361L168.55 158.75C160.595 161.312 152.398 164.59 146.662 170.211C145.843 174.085 146.471 178.169 147.255 182.038L147.865 184.998C150.38 197.379 152.094 209.53 150.812 222.241C149.482 235.351 145.532 247.141 140.712 259.321C138.432 265.061 136.072 264.021 135.262 270.181C134.641 274.873 135.025 279.717 135.449 284.449L135.803 288.46C136.692 298.967 137.139 310.422 130.252 319.091C129.182 320.421 126.892 319.891 126.132 318.561C125.832 318.031 125.512 317.521 125.162 317.031C121.842 312.221 116.752 309.481 110.932 308.421C110.192 308.291 110.482 307.301 111.102 307.221C116.022 306.641 120.682 307.871 124.642 310.411C122.764 303.918 108.226 307.076 103.446 308.338L103.282 308.381C97.3217 309.981 91.6817 312.581 86.7117 316.261C76.7117 323.661 70.9317 335.201 71.2217 347.631C71.5117 359.851 77.8217 371.141 88.6617 376.991C93.8917 379.811 99.8418 381.171 105.762 381.111C111.942 381.051 117.442 378.341 123.632 378.721C127.212 378.941 129.952 382.781 127.882 386.131C126.502 388.371 124.702 390.131 122.622 391.481C127.692 403.171 134.162 414.321 141.622 424.611C145.752 430.321 150.432 435.591 155.582 440.401C159.602 444.161 168.312 448.511 167.822 454.781C167.652 457.041 166.482 458.421 164.422 459.261C158.017 461.88 150.23 452.864 145.946 448.518L145.602 448.171C140.262 442.851 135.392 436.971 131.152 430.731C123.632 419.651 118.962 407.161 117.032 394.041C106.762 397.131 93.1617 394.231 84.7817 390.441C58.4417 378.541 49.8317 343.071 65.8417 319.451C68.9417 314.881 72.8217 310.971 77.2417 307.811C76.2717 307.281 75.3617 306.601 74.5517 305.741C70.071 300.982 66.9031 294.771 63.759 289.046L63.3817 288.361C60.5906 283.321 57.9575 278.202 55.4895 273.004L54.5717 271.051C49.0617 259.201 44.2317 254.021 40.3017 241.561C36.5217 229.541 33.5417 217.291 31.6117 204.831L31.0989 201.533C29.9827 194.303 28.9271 186.572 29.7417 179.231C24.1317 181.061 18.4917 182.191 12.9417 179.441C9.28175 177.631 7.26175 172.351 8.51175 168.561C9.42175 165.771 10.9417 163.581 12.8717 161.861C11.7217 161.281 10.6417 160.541 9.69175 159.721L8.86175 159.002C5.50175 156.081 5.26175 150.531 7.30175 146.871C7.50175 146.521 7.70175 146.161 7.89175 145.811C9.83175 142.341 13.8417 140.071 17.8017 140.131C18.4417 140.141 19.0817 140.141 19.7317 140.131C17.8817 139.721 16.0717 139.091 14.3517 138.031C6.59175 133.261 7.57175 120.331 16.9617 118.051C20.9017 117.101 25.2517 117.491 29.5917 118.511C29.4317 118.421 29.2717 118.331 29.1117 118.231C25.8317 116.221 23.0817 112.291 23.3917 108.261C23.7317 103.801 25.1717 100.621 29.1117 98.2815C32.5317 96.2615 37.3717 96.0715 40.7717 98.2815C43.7217 100.211 46.6117 102.341 49.3917 104.631C46.6017 101.201 44.1817 97.4715 43.2017 93.5115C41.9917 88.5815 44.0117 83.2114 48.4517 80.6115C51.9917 78.5415 55.7317 78.7715 59.0717 80.3715C58.8917 77.7815 59.5217 75.1414 61.2417 72.8015C64.7617 68.0025 71.1617 65.2415 76.7317 68.7415C77.4617 69.2015 78.4417 69.9915 79.3917 70.9615C77.5417 65.0715 79.2117 58.8915 85.5217 56.2315C89.3717 54.6015 94.5817 55.4215 97.9217 58.2315C95.8017 46.7615 112.732 38.3315 119.312 50.1815C120.805 52.8659 122.283 55.6926 123.604 58.5842L124.092 59.6715L124.142 59.6515L123.805 58.8565L123.462 58.0615C121.632 53.8115 119.302 49.3915 118.662 44.7815C117.722 37.9615 120.762 31.4915 128.182 30.4915C132.012 29.9715 136.272 31.7115 138.842 34.7525C137.452 24.1715 149.272 16.4815 157.782 24.3815C161.812 28.1215 163.962 33.5915 166.522 38.3915C167.972 41.1015 169.452 43.8015 170.902 46.5215C171.272 46.0815 171.672 45.6415 172.092 45.2115C169.942 38.7715 168.272 32.1715 166.862 25.5315C165.522 19.2715 168.652 12.7715 175.112 11.0025C180.982 9.38145 188.332 13.0025 189.642 19.2525C190.562 23.6515 191.652 28.0025 192.852 32.3315C193.672 32.1315 194.482 31.9915 195.282 31.8915C195.348 31.0781 195.424 30.2603 195.508 29.447L195.823 26.5543C196.522 19.9449 197.228 12.3999 200.682 6.78145C206.572 -2.81855 221.672 1.16145 221.832 12.5115C221.922 18.3815 219.532 24.2015 218.702 30.0115C218.342 32.5415 218.132 35.1015 218.012 37.6615C219.622 29.1615 221.832 20.7715 224.392 12.5115C224.692 11.5215 225.012 10.5315 225.322 9.54145ZM95.0408 337.322C108.291 335.272 120.401 342.662 128.251 353.012C129.681 354.902 128.741 357.572 127.451 359.162C126.521 360.332 125.271 360.472 123.861 360.652C122.241 360.862 120.191 359.552 119.481 358.142C114.431 348.062 105.421 341.692 95.0408 337.772C94.8508 337.702 94.7908 337.362 95.0408 337.322ZM113.41 156.717L113.812 156.287C116.493 153.506 112.256 149.258 109.569 152.045C106.74 154.979 104.86 158.543 103.052 162.155C101.329 165.599 106.503 168.641 108.233 165.184L109.02 163.612C110.257 161.169 111.575 158.755 113.41 156.717ZM76.1983 151.009C79.9983 150.369 78.3873 144.586 74.6033 145.224C69.7013 146.05 64.8183 146.989 59.9153 147.816C56.1163 148.456 57.7273 154.239 61.5113 153.602C66.4133 152.775 71.2963 151.836 76.1983 151.009ZM302.567 111.528C298.896 110.303 297.321 116.096 300.972 117.314C306.017 118.997 311.021 120.722 315.807 123.059C319.264 124.747 322.309 119.574 318.835 117.878C313.582 115.313 308.105 113.376 302.567 111.528ZM75.335 103.752C71.75 102.318 70.193 108.119 73.74 109.538L86.7001 114.721C90.285 116.155 91.842 110.355 88.295 108.936L75.335 103.752ZM347.821 89.6649L347.348 89.3664C344.098 87.2604 341.087 92.4524 344.319 94.5474C346.216 95.7766 348.523 96.6104 350.261 98.0746L350.624 98.3984C353.43 101.048 357.681 96.8144 354.867 94.1554C352.808 92.212 350.202 91.1299 347.821 89.6649Z" fill="black"/>
</g>
</svg>
