<svg width="425" height="138" viewBox="0 0 425 138" fill="none" xmlns="http://www.w3.org/2000/svg">
<path fill-rule="evenodd" clip-rule="evenodd" d="M391.089 63.2824C381.555 127.771 315.001 134.903 303.176 70.8814C305.074 70.0504 306.439 68.4144 306.154 65.2384C306.087 51.2864 310.418 36.5404 323.004 28.7814C336.01 20.7754 351.231 19.9814 366.282 20.1834C395.004 19.4994 394.4 43.5064 391.089 63.2824ZM292.758 35.2353C283.744 34.8553 272.34 35.1733 264.265 40.6653C262.045 34.6873 256.277 28.3043 250.449 24.8913C272.111 25.5253 294.409 23.3933 316.233 21.7383C311.009 25.2993 306.149 30.6493 302.99 36.8343C300.059 35.2713 295.861 35.4173 292.758 35.2353ZM253.026 70.119C228.031 156.155 165.64 118.655 158.838 107.629C146.569 89.383 144.261 45.029 154.948 33.17C170.246 22.446 191.903 25.206 209.975 24.943C243.176 25.391 266.756 35.323 253.026 70.119ZM420.603 30.5482C413.812 29.6602 406.555 29.4812 400.241 32.4712C398.297 24.2082 392.194 17.3002 385.303 14.2602C384.469 13.2142 384.594 12.6522 381.745 12.8092C364.25 7.55124 344.673 10.3332 327.861 15.7252C301.309 17.9612 273.452 19.7242 246.677 22.8052C221.595 11.5412 145.902 9.89024 141.198 37.6532C135.281 36.7682 125.204 32.1112 120.232 38.4282C83.7606 32.2452 46.0756 40.8382 9.44663 44.6652C0.226627 46.3632 -4.52237 64.6612 5.94363 64.4112C11.8276 62.8142 5.76263 53.0172 13.6856 52.2802C49.0266 48.4202 83.5946 42.9442 119.298 42.3032C118.056 48.4682 142.912 48.8692 143.279 45.2692C143.332 45.2962 143.388 45.3142 143.442 45.3382C137.3 68.2282 142.844 101.17 153.944 115.364C169.496 133.95 208.541 139.282 225.854 127.324C248.187 116.287 271.42 60.8852 264.894 42.4792C276.738 38.7252 288.447 39.8522 300.739 41.7642C297.925 49.7132 293.067 69.2812 300.056 70.9782C298.773 109.828 334.13 134.069 366.724 118.132C394.935 104.889 404.801 62.9712 401.349 37.5282C404.861 44.3142 434.349 36.9262 420.603 30.5482Z" fill="black"/>
</svg>
