<svg width="396" height="138" viewBox="0 0 396 138" fill="none" xmlns="http://www.w3.org/2000/svg">
<path fill-rule="evenodd" clip-rule="evenodd" d="M367.091 74.4322C364.263 82.1282 359.959 90.1402 354.696 96.6172C333.402 114.649 312.711 104.665 302.205 80.2262C298.213 62.9552 308.812 44.3512 320.043 31.6462C336.263 15.3892 362.734 23.9212 370.192 43.2472C370.645 45.7512 370.919 48.2492 371.05 50.7392C370.895 58.8302 369.92 65.7452 367.091 73.4322M162.411 58.9113C190.463 25.5443 242.943 23.7603 241.604 75.1153C235.578 140.119 134.107 124.164 162.411 58.9113ZM375.913 31.0764C374.93 29.4114 373.839 27.8004 372.648 26.2594C372.208 25.9974 371.955 23.6734 370.337 23.5014C348.71 -0.357621 310.717 13.1794 296.989 36.9534C294.482 39.9594 292.437 43.4784 290.929 47.1964C277.403 44.7154 261.634 45.1974 249.054 50.3064C236.58 17.7344 198.815 14.8264 173.928 28.7434C158.449 36.3564 148.412 52.2994 133.358 61.0574C97.9688 63.6044 59.9878 55.6754 25.2378 64.5524C-2.16822 70.2504 20.7418 84.1274 25.3378 74.8664C58.1008 65.1864 96.9158 73.3664 130.933 71.1854C134.47 77.1684 141.253 82.0644 148.013 81.8554C155.314 146.576 249.698 135.844 252.954 78.3114C256.647 72.4724 261.24 66.8844 267.814 63.2464C270.331 62.7254 272.762 62.0484 274.984 61.0004C278.782 60.4644 284.634 62.0744 288.128 65.2364C300.097 137.052 369.052 128.688 381.375 65.7744C381.62 65.5244 382.305 64.5864 382.831 63.0814C387.049 57.5044 397.375 55.4314 395.725 46.0164C394.256 36.5994 382.364 36.7114 375.913 31.0764Z" fill="black"/>
</svg>
