<svg width="415" height="138" viewBox="0 0 415 138" fill="none" xmlns="http://www.w3.org/2000/svg">
<path fill-rule="evenodd" clip-rule="evenodd" d="M381.268 94.0813C372.088 105.55 336.151 118.281 317.025 104.461C297.898 90.6413 290.34 81.0103 287.783 63.7419C287.511 61.9006 284.181 60.6759 282.774 61.9832C274.893 69.3034 269.791 78.6268 264.737 87.9741C259.037 98.5163 253.422 109.123 243.063 116.26C224.714 126.095 191.52 127.496 181.714 123.157C162.928 114.847 148.067 97.0726 144.688 72.6129C144.688 72.6129 141.25 61.7631 138.239 59.4801C135.385 57.3159 119.632 55.3879 117.907 55.0677C86.8075 49.2974 47.4753 45.6191 19.7764 65.9201C16.0279 68.186 3.19502 76.6986 3.00534 74.6055C2.87112 66.4065 12.1626 47.8489 33.2943 39.0187C59.4261 28.0991 98.2712 27.4605 120.775 29.8703C121.907 29.9915 125.765 29.0435 126.038 28.9254C160.131 14.1645 199.36 18.0848 235.84 24.2889C241.067 25.3033 287.864 36.8906 306.478 29.8703C337.254 17.3062 370.068 8.20397 403.302 11.785C403.58 11.815 407.776 37.2813 404.507 39.0187C401.906 40.4012 397.481 43.944 395.908 45.8829C394.503 47.6161 393.617 49.771 393.696 52.7562C394.328 70.0254 389.4 83.9205 381.268 94.0813ZM254.729 78.6722C258.631 73.0271 259.863 60.3462 258.229 51.095C257.402 46.4108 255.795 42.6823 253.78 40.8263C252.44 39.5926 250.911 39.0119 249.244 39.0981C248.329 39.1453 247.339 39.4053 246.291 39.9707C232.098 32.2931 214.903 29.5287 198.605 30.3237C185.63 30.3213 176.373 33.3838 170.095 38.1511C162.541 43.8873 159.138 52.1334 158.941 61.0763C158.707 71.688 163.067 83.2971 170.217 92.483C177.062 101.275 186.425 107.793 196.582 109.297C208.112 111.586 219.863 109.372 230.079 103.955C240.557 98.3992 249.408 89.4766 254.729 78.6722ZM368.507 84.6589C375.084 76.8873 379.457 66.777 380.122 56.7596C380.728 47.6432 378.287 38.6128 371.537 31.15C365.418 25.8978 354.605 25.8108 343.231 28.7356C328.523 32.5176 313.307 40.9694 308.235 46.4279C307.04 47.0543 305.931 48.1452 304.965 50.4853L304.958 51.3195C303.422 58.406 304.333 65.5973 306.991 72.2314C309.878 79.4377 314.83 85.9795 320.868 90.9709C328.89 97.5788 337.264 99.6017 345.101 98.5346C353.979 97.3259 362.234 92.0713 368.507 84.6589Z" fill="white"/>
<path fill-rule="evenodd" clip-rule="evenodd" d="M305.419 27.0632C336.584 14.3392 369.897 5.16819 403.623 8.80219C406.412 7.74119 409.874 8.63519 411.11 12.5792C423.123 49.1742 396.334 38.9972 396.694 52.6772C399.502 129.38 296.407 142.479 284.815 64.1812L284.602 64.3072C267.924 79.8702 264.411 105.195 244.764 118.73C205.131 147.715 148.949 124.75 141.733 73.1502L141.576 72.4521C139.154 61.9214 136.258 59.3103 124.311 59.3622L122.424 58.9872C91.3849 52.8718 50.0518 47.3764 21.4632 68.4072C15.2452 72.0232 14.9532 81.3192 9.69924 85.3582C3.94324 86.4762 0.397241 79.5532 0.00724128 74.7622C-0.904759 26.9992 84.5652 23.5632 122.843 27.6622C123.574 26.9052 125.135 26.9992 125.661 27.9422C160.279 12.9542 199.28 15.0282 236.346 21.3312C259.307 25.7762 281.985 35.9012 305.419 27.0632ZM400.519 17.6204C381.818 16.6854 364.52 17.7084 346.164 22.2034C336.49 24.5374 329.066 27.4884 319.806 31.0374C262.048 56.6264 255.386 11.1414 125.918 28.9714C127.593 36.1454 127.901 43.2484 127.991 49.9884C154.426 48.9231 148.202 74.1648 158.106 91.8945L158.411 92.4294C172.845 118.297 206.905 130.363 234.38 113.205C257.302 99.8454 259.538 65.9604 282.36 52.5124C302.143 51.7344 294.241 78.4344 305.007 89.4084C320.161 109.629 352.372 112.456 371.374 93.4364C380.289 84.2844 385.027 72.6644 385.289 60.1804C385.786 52.2044 384.418 44.0994 390.448 38.4894C394.675 34.1954 402.185 35.6284 403.047 29.1374C403.595 25.2994 401.999 21.1364 400.519 17.6204ZM197.279 28.0747C215.856 27.1597 235.512 30.3857 251.463 39.4967C263.27 30.1007 266.163 67.4427 258.326 78.2437C247.035 101.346 220.748 116.535 195.437 111.491C155.951 105.769 128.439 28.0057 197.279 28.0747ZM250.329 42.0003L249.318 41.8526C232.206 39.2415 185.611 27.1449 167.64 46.2373C150.199 77.9063 194.446 131.1 240.491 88.7303C253.306 75.6833 258.273 59.8623 250.329 42.0003ZM304.559 46.0481C313.421 35.5551 358.586 14.3011 374.329 27.9401C403.062 60.1411 357.495 125.274 319.329 93.5411C306.617 82.9341 298.254 66.0341 301.914 49.6691L301.919 48.9831C301.927 48.7344 301.974 48.7911 302.24 48.4811C302.711 47.2441 303.559 46.4541 304.559 46.0481ZM373.928 65.5651C383.618 13.0081 343.119 32.9881 309.859 47.0161C311.644 48.6471 311.636 50.8741 311.123 52.7041C307.615 91.7001 355.012 113.798 373.928 65.5651ZM122.172 30.2163C108.299 34.9143 16.5375 26.5123 8.06055 69.5263C17.0085 55.0293 35.5405 49.2763 52.2005 46.1543C74.8615 41.9073 97.3985 44.3663 119.742 48.8353L120.203 44.2113C120.699 39.3065 121.221 34.7181 122.172 30.2163Z" fill="black"/>
</svg>
