<svg width="418" height="138" viewBox="0 0 418 138" fill="none" xmlns="http://www.w3.org/2000/svg">
<path fill-rule="evenodd" clip-rule="evenodd" d="M411.934 13.2313C411.111 13.0943 410.287 12.9653 409.463 12.8443C408.82 12.4793 408.065 12.1983 407.187 12.0293C405.182 11.5203 403.191 11.1773 401.203 10.9923C372.671 4.57131 306.664 13.6883 303.94 38.0363C294.854 41.0693 286.992 38.3533 276.461 38.6233C268.445 5.11831 129.862 9.84731 123.197 30.0473C123.172 30.0403 123.147 30.0343 123.121 30.0263C116.717 28.0443 107.276 28.5223 99.9463 28.2083C84.2953 27.8803 68.6263 29.2753 53.3133 32.5763C24.6383 37.1333 -14.4967 42.4683 5.44632 78.2763C5.45032 78.2823 5.45332 78.2893 5.45832 78.2953L5.46132 78.2923C8.89832 81.8153 14.7313 78.9783 14.9483 74.2093C8.24332 57.2453 23.3873 55.2083 35.0393 50.3333C64.0323 39.9173 93.5503 38.4733 123.536 41.6953C125.792 44.3513 129.215 46.6673 132.833 47.8793C152.882 51.2073 142.316 66.0793 154.989 68.2423C152.661 120.084 215.602 148.382 252.071 114.303C266.632 100.067 270.103 78.9783 273.479 59.9693C275.264 59.5683 276.399 58.5923 277.062 57.3003C281.355 53.0143 284.052 49.0563 292.541 47.8793C301.03 46.7033 307.565 49.0643 308.449 49.7873C308.672 50.2363 308.911 50.6863 309.189 51.1363C309.577 51.8073 310.105 52.3423 310.705 52.7633C302.322 104.387 342.399 137.035 382.858 110.26C400.438 93.7233 404.153 68.4053 404.887 45.8073C407.27 44.3693 408.779 41.5823 407.954 38.0783C406.817 33.2483 409.483 29.0663 413.729 26.9663C419.246 24.2393 418.27 14.2803 411.934 13.2313ZM238.088 37.7223C233.066 36.6177 230.921 44.3606 235.959 45.4681C239.527 46.2524 242.55 48.0515 244.593 51.0993L244.808 51.4306C247.549 55.7925 254.481 51.766 251.721 47.3759C248.615 42.4356 243.79 38.9754 238.088 37.7223ZM385.172 32.9217C383.402 31.6745 380.723 32.6004 379.695 34.3626C378.564 36.3031 379.305 38.4638 380.963 39.7332L381.132 39.8572C382.653 40.9291 384.134 42.8505 384.32 44.8193L384.336 45.0656C384.536 50.2177 392.543 50.2438 392.343 45.0656C392.148 39.9998 389.214 35.7674 385.172 32.9217Z" fill="black"/>
</svg>
