<svg width="1304" height="1005" viewBox="0 0 1304 1005" fill="none" xmlns="http://www.w3.org/2000/svg">
<g id="Right Arm / Laptop">
<g id="Laptop">
<path d="M1249.08 204.704C1242.18 203.445 1234.97 202.258 1227.9 201.425C1210.14 200.043 1192.31 200.929 1174.54 201.195C1151.96 201.514 1129.38 201.567 1106.82 201.992C1065.53 202.081 1024.08 201.833 982.983 206.972C977.737 207.894 949.347 210.782 941.532 217.499C937.349 219.803 933.202 224.339 931.147 227.051C918.015 247.573 914.382 272.472 907.098 295.387C897.121 329.572 890.901 364.608 884.06 399.521C879.346 422.719 874.951 445.421 869.617 468.566C860.632 514.962 853.543 562.013 848.297 609.012C856.839 569.722 865.434 529.937 871.726 490.062C877.538 458.694 885.088 427.504 891.202 396.012C897.794 362.978 904.192 329.927 913.691 297.549C920.673 275.644 924.43 252.127 936.109 232.048C938.076 229.124 940.539 226.537 943.428 224.517C944.651 224.268 945.874 223.453 946.848 222.638C954.575 218.544 963.631 218.066 972.066 216.276C993.776 212.59 1015.77 210.871 1037.74 209.949C1037.76 209.949 1037.78 209.949 1037.81 209.949C1037.81 209.949 1037.81 209.949 1037.8 209.949C1070.65 208.514 1103.54 208.85 1136.42 208.018C1163.27 208.159 1190.13 206.795 1216.96 207.628C1227.74 208.443 1238.87 208.886 1249.08 204.704ZM1294.92 209.471C1291.64 216.914 1291.31 225.35 1290.85 233.484C1286.68 303.131 1278.48 372.778 1263.5 440.972C1255.93 473.262 1247.23 505.285 1238.35 537.238C1235.43 547.605 1232.6 557.99 1229.79 568.393C1227.72 576.882 1224.64 585.3 1224.23 593.984C1220.85 594.25 1217.53 596.234 1214.2 596.89C1202.24 600.47 1190.17 603.678 1178.1 606.885C1103.9 626.255 1028.55 640.787 953.175 654.752C945.2 656.152 937.154 657.552 929.162 659.236C911.369 662.284 893.63 665.332 875.553 666.165C861.075 667.299 846.206 666.147 831.78 667.884C830.894 668.097 830.026 668.363 829.175 668.682C826.145 667.352 823.008 666.218 819.73 665.704C802.646 662.142 785.544 658.74 768.283 656.135C724.812 649.365 681.907 639.742 638.595 632.086C620.466 628.825 602.62 626.078 584.313 623.154C558.315 619.06 532.654 613.265 506.94 607.701C498.929 605.928 490.972 603.855 483.086 601.533C482.129 601.179 481.137 600.877 480.109 600.647C479.506 600.133 478.85 599.672 478.266 598.999C478.514 598.751 478.78 598.521 479.063 598.308L479.116 598.326C481.863 597.014 484.805 596.057 487.906 595.366C493.613 595.951 499.408 594.374 505.096 593.824C505.114 593.824 505.132 593.824 505.15 593.824C514.648 593.895 524.325 595.029 532.707 595.561C553.53 597.829 574.371 599.921 595.123 602.915C629.681 607.665 664.15 613.23 698.424 619.769C740.974 628.417 783.559 636.977 826.801 641.443C836.725 643.215 839.1 631.891 832.649 628.914C833.482 628.347 834.138 627.514 834.492 626.539C836.973 620.177 838.125 613.318 839.277 606.637C840.517 599.601 841.847 592.548 843.105 585.495C843.105 585.495 843.105 585.477 843.105 585.459C843.902 582.039 844.593 578.619 845.338 575.287C853.685 540.942 857.92 505.782 864.3 471.047C873.303 410.526 884.609 350.484 902.438 291.86C905.432 281.227 908.356 270.576 911.174 259.89C915.41 244.897 918.901 229.036 926.645 215.23C928.985 211.526 931.82 207.628 935.471 205.182C946.689 207.521 957.871 203.25 969.036 202.205C991.72 198.979 1014.6 198.075 1037.44 196.835C1076.8 194.212 1116.3 193.805 1155.75 193.663C1190.93 194.691 1268.07 184.784 1294.92 209.471Z" fill="#949494"/>
<path d="M837.646 550.104C835.36 561.021 832.596 571.689 829.636 582.642C828.218 588.384 828.183 594.232 828.573 600.062C828.094 602.667 827.669 605.29 827.315 607.931C826.889 610.713 826.482 613.495 826.11 616.296C825.915 619.946 823.894 625.139 826.446 628.116C787.866 626.556 749.906 618.635 712.105 611.333C658.373 601.48 604.374 593.009 550.021 587.515C580.184 583.528 610.293 579.327 640.403 574.95C702.606 566.125 765.058 559.319 827.368 551.274C830.788 550.866 834.226 550.494 837.646 550.104Z" fill="#949494"/>
</g>
<g id="Outline">
<path d="M885.903 673.502C906.709 662.869 930.279 658.739 953.175 654.769C1028.55 640.805 1103.9 626.255 1178.1 606.902C1190.17 603.695 1202.24 600.487 1214.2 596.907C1218.63 596.021 1223.08 592.796 1227.65 594.391C1231.34 595.862 1233.14 600.434 1231.11 603.961C1229.95 606.141 1227.81 607.328 1225.47 607.842C1221.36 608.976 1217.2 609.862 1213.05 610.854C1138.81 629.409 1064.29 646.068 988.903 658.952C965.084 662.78 941.337 667.246 917.413 670.312C906.975 671.534 896.412 671.942 886.152 673.466C886.098 673.502 886.045 673.519 885.992 673.537V673.555C886.169 673.608 885.886 673.643 885.903 673.502Z" fill="black"/>
<path d="M1224.18 601.87C1224.23 601.71 1224.55 601.816 1224.6 601.426C1222.83 590.031 1227.14 579.274 1229.8 568.393C1232.6 557.99 1235.43 547.605 1238.35 537.238C1247.25 505.285 1255.95 473.261 1263.5 440.972C1278.48 372.778 1286.68 303.131 1290.85 233.483C1291.45 223.276 1291.82 212.589 1298.06 203.976C1298.25 203.693 1298.38 203.338 1298.56 203.126C1303.38 210.587 1303.04 220.068 1301.83 228.539C1297.67 283.158 1292.78 337.813 1283.6 391.864C1277.71 426.015 1269.78 459.615 1260.68 493.039C1255.01 514.128 1249.09 535.146 1242.91 556.094C1239.95 566.372 1237.1 576.687 1234.26 587.001C1232.77 592.672 1230.29 599.087 1225.06 602.153C1224.73 602.189 1224.46 602.082 1224.18 601.87Z" fill="black"/>
<path d="M1298.04 215.017C1296.84 214.415 1296.06 213.21 1295.97 211.88C1295.93 211.437 1296 211.012 1296.09 210.587C1270.38 184.518 1191.46 194.726 1155.75 193.68C1116.3 193.804 1076.82 194.229 1037.44 196.852C1014.6 198.093 991.72 198.997 969.036 202.222C957.535 203.285 946.033 207.769 934.497 204.987C931.36 204.296 928.294 203.268 925.494 201.726C930.81 195.984 938.342 192.28 945.998 190.951C960.725 189.055 975.593 188.275 990.391 187.07C1049.85 183.437 1110.24 181.558 1169.7 182.391C1193.62 182.214 1217.07 180.672 1240.8 182.834C1260.13 184.819 1279.7 186.839 1295.53 198.323C1299.67 201.708 1305.63 206.475 1303.36 212.465C1302.72 214.663 1300.22 216.134 1298.04 215.017Z" fill="black"/>
<path d="M829.761 613.247C828.928 603.092 827.155 592.725 829.637 582.641C833.589 568.038 837.204 553.967 839.756 539.151C845.249 503.92 851.523 468.813 856.627 433.529C863.219 385.272 873.835 337.688 886.931 290.796C892.974 269.725 897.795 247.75 905.45 227.245C911.529 211.703 924.076 190.26 943.517 194.247C948.975 195.222 949.631 202.222 943.588 202.665C935.702 202.488 930.474 209.116 926.646 215.194C918.901 229 915.392 244.861 911.175 259.854C908.357 270.54 905.433 281.191 902.438 291.824C884.592 350.466 873.303 410.49 864.3 471.011C857.921 505.746 853.685 540.906 845.338 575.251C842.379 588.578 839.986 603.429 829.761 613.247Z" fill="black"/>
<path d="M848.28 609.012C853.525 562.013 860.614 514.961 869.599 468.565C874.933 445.403 879.329 422.701 884.043 399.52C890.883 364.608 897.121 329.554 907.081 295.386C914.382 272.472 917.997 247.572 931.129 227.05C934.461 222.673 943.109 213.635 948.692 216.701C952.325 219.395 947.274 222.585 944.775 223.595C941.302 225.739 938.36 228.663 936.074 232.048C924.395 252.109 920.638 275.626 913.656 297.548C904.157 329.926 897.759 362.978 891.167 396.011C885.053 427.503 877.521 458.694 871.69 490.062C865.417 529.936 856.822 569.722 848.28 609.012Z" fill="black"/>
<path d="M940.345 223.506C933.132 212.394 976.355 208.123 982.966 206.954C1024.06 201.814 1065.5 202.08 1106.81 201.974C1129.38 201.566 1151.96 201.495 1174.52 201.176C1192.3 200.911 1210.12 200.042 1227.88 201.407C1234.95 202.222 1242.15 203.409 1249.06 204.685C1238.85 208.868 1227.72 208.407 1216.93 207.592C1190.1 206.759 1163.23 208.123 1136.38 207.982C1103.47 208.814 1070.53 208.495 1037.66 209.931C1037.67 209.931 1037.69 209.931 1037.71 209.931C1037.76 209.931 1037.8 209.931 1037.8 209.931C1015.79 210.852 993.776 212.572 972.049 216.258C963.613 218.048 954.54 218.526 946.831 222.62C944.988 224.144 942.347 225.686 940.345 223.506Z" fill="black"/>
<path d="M831.001 675.965C828.325 675.238 825.614 673.945 823.629 672.048C825.844 669.922 828.786 668.61 831.763 667.901C846.189 666.165 861.057 667.317 875.536 666.182C894.675 665.296 913.407 661.929 932.246 658.704C934.957 657.729 938.626 658.048 938.36 661.61C937.952 664.729 934.372 665.154 931.874 665.633C920.992 667.618 910.466 670.081 899.584 671.818C886.665 673.626 873.622 674.618 860.614 675.451C850.442 675.309 840.872 677.684 831.001 675.965Z" fill="black"/>
<path d="M812.624 672.438C766.139 663.595 719.69 656.577 673.472 646.582C624.79 636.622 575.346 630.88 526.859 620.46C514.206 617.872 501.588 615.09 489.041 612.006C481.633 610.199 472.648 609.206 469.104 601.391C473.446 599.247 478.638 599.955 483.086 601.55C490.973 603.872 498.93 605.928 506.94 607.718C532.654 613.283 558.315 619.078 584.313 623.171C602.62 626.095 620.466 628.842 638.595 632.103C681.89 639.777 724.812 649.4 768.284 656.152C785.545 658.757 802.646 662.16 819.73 665.722C824.072 666.395 828.13 668.149 832.064 670.028C832.773 670.294 833.287 670.578 834.014 670.542C834.067 670.542 834.12 670.613 834.085 670.666L833.872 670.95C833.748 671.109 833.589 671.251 833.429 671.375C827.12 675.167 819.446 673.82 812.624 672.438Z" fill="black"/>
<path d="M827.935 629.321C823.239 626.769 825.897 620.513 826.11 616.313C826.482 613.513 826.889 610.731 827.315 607.948C831.409 577.998 843.938 549.944 846.614 519.746C846.773 518.824 846.791 517.743 847.004 516.981C847.199 522.954 847.376 528.926 847.642 534.898C848.811 559.106 843.406 582.925 839.259 606.637C838.107 613.336 836.955 620.194 834.474 626.539C833.553 629.126 830.434 630.579 827.935 629.321Z" fill="black"/>
<path d="M826.766 641.442C783.524 636.977 740.939 628.399 698.389 619.751C664.115 613.229 629.663 607.664 595.088 602.915C574.336 599.92 553.495 597.829 532.672 595.56C516.067 594.515 494.375 591.077 479.099 598.343L479.046 598.325C478.762 598.538 478.514 598.768 478.266 598.998C479.435 600.345 480.942 600.895 481.544 602.596C482.395 604.829 481.296 607.381 479.063 608.267C476.618 609.242 474.03 607.824 472.063 606.406C468.466 604.014 466.569 599.087 468.554 595.082C472.294 587.639 481.633 586.292 489.023 584.927C505.469 582.765 522.127 584.91 538.556 586.416C596.789 591.857 654.58 600.806 712.088 611.351C750.597 618.776 789.248 626.857 828.555 628.222C839.667 627.637 838.391 643.498 826.766 641.442Z" fill="black"/>
<path d="M485.16 594.905C483.263 594.497 481.438 593.558 479.666 593.026C479.63 593.044 479.577 593.097 479.56 593.026C479.843 591.874 481.261 591.165 482.094 590.421C488.881 585.211 497.99 585.866 505.983 584.041C528.1 580.284 550.234 576.722 572.475 573.798C640.403 563.466 708.472 554.534 776.684 546.205C793.342 544.255 809.93 541.863 826.5 539.151C830.044 538.584 833.571 537.946 837.115 537.379C839.047 537.078 841.032 536.865 842.786 537.982C846.277 539.931 847.11 544.929 844.222 547.782C842.804 549.341 840.925 549.714 838.958 549.944C835.113 550.387 831.249 550.795 827.386 551.273C765.094 559.319 702.624 566.124 640.421 574.95C606.802 579.841 573.184 584.502 539.495 588.915C528.029 590.545 516.581 592.246 505.097 593.824C498.487 594.462 491.735 596.5 485.16 594.905Z" fill="black"/>
<path d="M161.364 546.01C147.222 535.377 133.594 523.078 124.113 507.996C116.085 492.72 110.148 475.636 109.812 458.251C109.581 440.724 109.794 423.108 112.505 405.741C117.875 375.826 127.516 346.851 134.463 317.291C142.508 281.953 153.23 247.36 163.668 212.678C170.243 189.427 177.19 166.264 185.679 143.615C194.309 121.02 202.869 98.1233 215.753 77.5304C225.216 62.2718 236.593 48.2891 248.68 35.0685C259.525 24.3468 270.3 13.3237 282.794 4.4982C285.665 2.83234 288.253 -0.517112 291.85 0.0677124C293.622 0.528483 294.739 2.24749 294.562 4.03741C294.349 6.03999 292.577 7.20964 291.212 8.46789C289.794 9.77932 288.412 11.1262 287.03 12.4908C264.683 36.2205 242.3 60.5704 225.819 88.8723C199.466 136.881 185.448 190.313 169.711 242.398C158.653 277.204 150.572 312.825 141.853 348.251C135.242 375.277 126.683 403.171 125.903 431.012C125.052 450.187 124.29 469.894 131.414 488.095C134.232 496.69 137.723 502.928 142.118 510.353C148.906 521.997 155.481 533.977 161.364 546.01Z" fill="black"/>
<path d="M508.003 571.618C495.102 557.122 494.286 536.157 496.59 517.797C498.646 500.961 500.95 482.441 512.327 469.097C516.403 463.621 526.097 460.962 529.57 468.423C530.226 469.983 530.191 472.021 529.145 473.386C528.649 473.545 528.046 473.527 527.586 473.829C524.36 478.543 520.408 482.796 518.477 488.29C510.502 511.293 504.086 539.949 518.459 561.676C518.601 561.534 518.742 561.41 518.902 561.286L518.92 561.304L519.008 561.428L519.274 561.747L519.38 561.854L519.487 561.96L519.593 562.066L519.699 562.172L519.823 562.279L519.948 562.385L520.072 562.492L520.196 562.598L520.32 562.704L520.444 562.81L520.568 562.899L520.692 562.988L520.94 563.165L521.064 563.253L521.206 563.342L521.347 563.431L521.773 563.697L522.092 563.874L522.57 564.087L522.73 564.157L523.208 564.37L523.687 564.53L523.829 564.583L524.112 564.689L524.254 564.725L524.396 564.778L524.537 564.813L524.661 564.849L525.087 564.955L525.229 565.008L525.654 565.168L525.796 565.221L526.079 565.362L526.203 565.433L526.451 565.575L526.575 565.646L526.948 565.859L526.983 565.876C527.072 568.056 526.292 570.431 525.211 572.15C523.385 574.968 520.532 576.191 517.573 576.191C513.993 576.226 510.271 574.472 508.003 571.618Z" fill="black"/>
<path d="M518.742 565.008C517.112 564.76 515.73 563.803 514.914 562.367C513.957 560.825 514.471 558.823 515.641 557.582C515.871 557.37 516.102 557.175 516.35 557.015L516.385 557.086L516.421 557.175L516.74 557.813L516.775 557.884L516.846 558.061L516.953 558.238L517.006 558.344L517.077 558.433L517.13 558.539L517.183 558.646L517.679 559.39L517.75 559.496L518.104 560.028L518.193 560.134L518.264 560.258L518.441 560.507L518.53 560.63L518.884 561.127L518.973 561.251L519.061 561.357L519.15 561.481L519.239 561.588L519.416 561.8L519.522 561.906L519.629 562.013L519.735 562.119L519.841 562.226L519.965 562.332L520.461 562.757L520.585 562.863L520.71 562.952L520.834 563.041L520.958 563.129L521.082 563.218L521.206 563.307L521.348 563.395L521.489 563.484L521.915 563.75L522.234 563.927L522.553 564.069L522.712 564.139L523.031 564.281L523.191 564.352L523.35 564.423L523.829 564.583L524.112 564.689L524.254 564.742L524.396 564.778L524.537 564.831L524.679 564.866L524.803 564.902L525.229 565.008L525.654 565.168L525.796 565.221L525.938 565.274L526.221 565.416L526.345 565.486L526.593 565.628L526.717 565.699L526.965 565.841L527.089 565.912H527.107C524.183 565.788 521.436 565.628 518.742 565.008Z" fill="black"/>
<path d="M717.759 492.135C710.723 487.439 703.634 482.867 696.563 478.223C683.715 469.859 671.274 459.917 656.246 455.77C649.423 454.706 641.448 456.55 634.891 457.294C627.129 458.641 620.483 459.74 613.022 461.459C595.478 465.57 578.146 470.621 560.655 475.034C548.816 478.631 536.712 481.555 524.413 483.044C519.026 484.337 515.623 477.674 521.33 475.229C526.841 474.201 532.3 473.066 537.723 471.649C555.267 467.006 572.723 462.132 590.339 457.79C611.179 452.03 632.658 446.377 654.385 446.218C667.535 448.238 678.841 456.461 689.988 463.231C700.905 470.302 711.786 477.479 722.791 484.426C731.103 489.264 725.733 497.718 717.759 492.135Z" fill="black"/>
<path d="M744.979 574.808C735.959 570.945 728.48 564.299 723.235 556.023C717.953 548.261 712.265 540.693 708.313 532.134C704.538 523.858 700.728 515.617 696.404 507.606C698.07 509.201 699.736 511.239 701.401 512.994C709.358 521.784 716.394 531.354 724.068 540.392C727.966 545.514 731.05 551.22 735.303 556.094C738.475 560.56 753.06 570.041 758.076 566.691C758.377 564.476 756.268 562.598 755.329 560.701C752.529 556.413 750.119 551.876 747.726 547.339C740.053 531.301 731.209 516.574 724.475 500.216C723.288 497.842 722.118 495.431 720.435 493.358C719.708 492.667 719.176 491.816 719.052 490.806C718.556 487.581 722.49 485.436 725.095 487.297C731.28 491.479 734.346 498.763 737.625 505.178C744.058 517.495 751.324 529.351 757.473 541.828C760.61 548.456 765.572 554.162 768.567 560.772C771.403 567.826 766.83 576.367 759.245 577.608C754.336 578.512 749.463 576.881 744.979 574.808Z" fill="black"/>
<path d="M695.589 505.604C687.507 499.206 679.001 493.145 671.398 486.269C681.89 487.634 690.112 497.168 695.589 505.604Z" fill="black"/>
<path d="M723.146 578.796C716.571 578.211 710.812 574.081 705.69 570.183C699.133 564.636 695.34 556.749 690.945 549.537C681.872 534.81 672.869 520.012 665.107 504.541C674.34 513.951 683.626 523.964 691.069 535.04C698.903 545.939 703.492 560.507 716.288 566.674C720.399 568.942 727.825 571.441 730.04 565.646C730.589 564.193 731.617 562.81 733.23 562.509C734.523 562.226 736.047 562.491 736.951 563.537C739.202 565.841 737.696 569.261 736.739 571.848C734.665 577.183 728.409 578.884 723.146 578.796Z" fill="black"/>
<path d="M684.477 571.087C674.535 566.621 668.12 557.051 661.758 548.58C654.527 539.311 648.892 528.908 642.317 519.268C654.651 528.483 665.408 540.197 675.279 552.071C679.71 556.643 684.442 563.236 691.495 562.97C695.677 562.491 699.931 561.871 704.131 562.686C708.313 563.696 707.923 570.112 703.617 570.573C697.255 571.086 690.715 573.727 684.477 571.087Z" fill="black"/>
<path d="M660.464 569.208C652.418 567.737 646.092 562.208 639.729 557.441C628.175 548.846 617.701 538.903 606.519 529.83C605.331 528.784 603.896 527.703 602.85 526.657C616.337 531.974 628.972 539.045 641.023 547.091C648.254 551.734 654.704 558.362 663.565 559.656C667.039 560.241 670.636 559.585 674.057 560.329C678.097 561.446 678.611 566.94 674.677 568.588C670.105 569.935 665.125 569.988 660.464 569.208Z" fill="black"/>
<path d="M566.857 560.17C558.173 559.975 548.356 558.256 540.469 555.314C535.011 552.567 528.95 551.876 522.907 551.982C517.13 552.142 511.104 552.514 505.433 553.045C502.562 553.666 499.532 550.476 501.056 547.676C502.102 545.301 504.884 545.071 507.135 544.734C512.912 543.919 518.742 543.352 524.591 543.298C532.158 542.855 539.318 545 546.335 547.552C553.123 549.217 560.07 550.21 567.07 550.245C586.404 549.785 605.331 545.124 624.719 545.939C607.688 557.068 587.007 560.843 566.857 560.17Z" fill="black"/>
<path d="M621.387 547.073C621.051 547.073 620.732 546.985 620.413 546.985C621.813 545.602 624.808 545.443 626.881 544.982C631.56 545.567 622.451 547.286 621.387 547.073Z" fill="black"/>
<path d="M500.914 574.826C495.438 574.188 489.944 572.947 484.929 570.838C491.628 567.099 499.372 565.522 506.993 565.398C509.935 565.398 512.877 565.61 515.836 565.646C518.583 565.291 522.056 565.787 522.624 569.031C523.386 573.248 518.689 574.524 515.411 574.613C510.608 575.109 505.752 575.34 500.914 574.826Z" fill="black"/>
<path d="M490.653 472.659C484.38 468.14 489.448 460.572 496.218 461.884C506.302 463.674 515.375 461.618 525.14 463.16C529.393 464.648 528.897 470.869 524.502 471.737C522.322 472.18 518.902 472.34 517.023 472.623C510.679 473.474 504.707 474.094 498.345 474.005C495.722 474.005 492.904 474.218 490.653 472.659Z" fill="black"/>
<path d="M496.289 470.621C489.058 467.041 485.461 459.474 479.382 454.583C454.501 437.835 424.799 430.463 396.32 422.258C379.307 417.473 362.347 412.422 345.76 406.308C321.959 396.685 313.01 396.738 288.713 405.652C282.475 408.116 276.255 410.632 270.052 413.166C264.913 415.665 258.976 417.171 253.535 414.655C255.892 409.817 261.546 406.645 266.526 404.429C271.789 401.824 277.105 399.29 282.404 396.738C297.698 389.189 315.633 383.89 332.362 389.809C349.233 395.427 365.803 401.984 382.905 406.91C412.252 415.789 442.237 422.683 469.777 436.364C476.653 440.104 484.469 443.01 489.962 448.752C494.676 454.831 496.519 463.071 496.289 470.621Z" fill="black"/>
<path d="M369.348 604.563C344.856 604.475 320.223 604.333 295.997 600.221C254.12 593.593 213.821 579.008 177.048 557.972C167.407 552.922 158.795 546.205 150.838 538.815C148.126 535.944 143.855 533.197 143.696 528.944C143.891 527.189 144.936 525.47 146.832 525.187C148.924 524.797 150.802 525.984 152.06 527.561C157.944 533.179 164.731 537.734 171.554 542.076C212.634 564.884 257.665 580.444 304.202 587.16C331.707 590.935 359.636 591.042 387.353 590.386C404.756 589.464 422.265 588.224 439.331 584.52C448.015 582.446 456.273 578.813 463.964 574.365C472.648 569.314 483.086 562.669 493.081 568.304C489.767 576.19 482.75 581.56 475.165 585.105C459.959 594.923 442.592 600.47 424.569 601.781C406.244 603.819 387.796 604.758 369.348 604.563Z" fill="black"/>
<path d="M325.203 396.525C319.354 395.232 321.641 388.001 321.587 383.677C322.208 374.497 323.501 365.37 324.76 356.261C329.048 323.245 339.026 291.31 353.15 261.218C352.459 267.102 351.378 273.251 350.563 279.224C346.646 307.384 342.8 335.597 336.633 363.368C335.003 371.077 333.39 378.786 331.884 386.512C330.998 390.447 330.856 397.287 325.203 396.525Z" fill="black"/>
</g>
<path id="Skin" d="M671.398 486.269C679.019 493.145 687.508 499.206 695.589 505.604C690.113 497.168 681.89 487.616 671.398 486.269ZM755.329 560.719C756.268 562.615 758.359 564.494 758.076 566.709C753.061 570.059 738.476 560.577 735.303 556.111C731.05 551.238 727.967 545.531 724.068 540.41C716.412 531.354 709.359 521.802 701.402 513.011C699.736 511.257 698.052 509.219 696.404 507.624C700.728 515.634 704.538 523.875 708.313 532.151C712.265 540.711 717.954 548.278 723.235 556.04C725.29 559.266 727.683 562.261 730.377 564.919C730.253 565.15 730.146 565.397 730.058 565.646C727.842 571.441 720.417 568.96 716.306 566.674C703.51 560.524 698.921 545.939 691.087 535.058C683.644 523.999 674.34 513.986 665.125 504.558C672.887 520.029 681.89 534.827 690.963 549.554C693.533 553.79 695.908 558.256 698.761 562.332C696.333 562.402 693.905 562.721 691.513 563.005C684.477 563.271 679.745 556.678 675.315 552.106C665.444 540.233 654.687 528.501 642.352 519.303C648.927 528.944 654.563 539.346 661.793 548.615C664.611 552.354 667.429 556.324 670.583 559.975C668.244 559.904 665.887 560.063 663.565 559.691C654.722 558.397 648.254 551.769 641.041 547.126C629.008 539.098 616.354 532.027 602.868 526.693C603.914 527.738 605.349 528.819 606.537 529.865C612.739 534.898 618.729 540.197 624.79 545.39C624.028 545.514 623.231 545.673 622.522 545.886C603.914 545.496 585.66 549.82 567.07 550.263C560.07 550.228 553.123 549.253 546.336 547.569C539.335 545.017 532.158 542.891 524.591 543.316C520.143 543.351 515.695 543.688 511.264 544.22C507.418 525.931 512.522 505.551 518.477 488.325C519.168 486.376 520.107 484.585 521.188 482.884C522.11 483.256 523.209 483.363 524.414 483.079C536.73 481.59 548.817 478.666 560.655 475.069C578.146 470.674 595.46 465.623 613.023 461.494C620.484 459.775 627.129 458.676 634.892 457.329C641.449 456.567 649.423 454.742 656.246 455.805C671.274 459.952 683.715 469.876 696.563 478.259C703.634 482.902 710.741 487.474 717.759 492.17C718.769 492.879 719.744 493.358 720.63 493.659C722.225 495.662 723.359 497.983 724.493 500.27C731.227 516.627 740.071 531.354 747.744 547.392C750.119 551.893 752.529 556.413 755.329 560.719Z" fill="#B7B5B5"/>
<path id="Clothing 1" d="M498.345 474.006C501.978 474.059 505.487 473.882 508.996 473.563C500.472 486.394 498.434 502.769 496.59 517.815C494.588 533.747 494.942 551.628 503.502 565.558C499.603 565.841 495.722 566.55 492.018 567.773C482.36 563.183 472.347 569.545 463.982 574.401C456.291 578.867 448.033 582.482 439.349 584.555C422.283 588.242 404.791 589.482 387.371 590.404C359.654 591.059 331.724 590.953 304.22 587.178C257.665 580.462 212.669 564.902 171.572 542.076C164.732 537.734 157.944 533.179 152.078 527.562C151.883 527.331 151.688 527.083 151.476 526.871C148.445 521.306 145.309 515.777 142.136 510.318C137.741 502.875 134.232 496.655 131.432 488.06C124.326 469.859 125.088 450.152 125.921 430.977C126.718 403.136 135.26 375.224 141.87 348.216C150.59 312.772 158.671 277.168 169.729 242.362C185.466 190.278 199.484 136.846 225.836 88.8372C242.318 60.5353 264.7 36.1853 287.048 12.4556C288.43 11.1087 289.812 9.76197 291.23 8.45054C291.992 7.74166 292.878 7.05042 293.552 6.25293L351.821 264.125C338.406 293.366 328.942 324.327 324.777 356.279C323.519 365.388 322.243 374.515 321.605 383.695C321.623 384.794 321.481 386.105 321.357 387.452C307.995 386.3 294.402 390.837 282.422 396.738C277.123 399.273 271.825 401.824 266.544 404.43C261.564 406.645 255.91 409.835 253.553 414.655C258.994 417.172 264.931 415.665 270.07 413.167C276.273 410.632 282.493 408.116 288.731 405.652C313.01 396.738 321.977 396.685 345.778 406.308C362.365 412.422 379.325 417.473 396.338 422.258C424.817 430.481 454.519 437.853 479.418 454.583C482.998 457.471 485.727 461.282 488.846 464.666C487.216 467.006 487.34 470.267 490.689 472.659C492.887 474.219 495.722 474.006 498.345 474.006Z" fill="white"/>
</g>
</svg>
