<svg width="497" height="990" viewBox="0 0 497 990" fill="none" xmlns="http://www.w3.org/2000/svg">
<g id="Right Arm / On Hip">
<path id="Clothing 1" d="M192.999 642.581L163.084 635.17L92.1438 538.15L43.5684 436.236L45.6595 355.687L66.6245 279.89L113.959 195.653L176.907 108.066L237.551 42.3216L284.16 3.15527L284.231 3.19077L284.461 3.29715L284.674 3.40352L284.886 3.5099L285.099 3.59853L285.294 3.68716L285.489 3.77579L285.684 3.86453L285.879 3.95316L286.056 4.04179L286.251 4.13042L286.428 4.21905L286.623 4.30779L286.818 4.39642L287.013 4.48505L287.208 4.57368L287.403 4.66231L287.598 4.75105L287.793 4.83968L287.988 4.94605L288.2 5.03468L288.395 5.12331L288.608 5.22969L288.803 5.31843L289.016 5.42481L289.21 5.51344L289.405 5.60207L289.6 5.6907L289.795 5.77933L289.973 5.86806L290.15 5.95669L290.309 6.04532L290.486 6.13395L290.646 6.22258L290.823 6.31132L291.018 6.4177L291.213 6.52408L291.408 6.6482L291.621 6.77222L291.851 6.89634L292.081 7.03822L292.33 7.18009L292.578 7.32186L292.826 7.46373L293.074 7.6056L293.322 7.74747L293.552 7.8716L293.765 7.99562L293.978 8.11974L294.19 8.24387L294.385 8.35024L294.58 8.45662L294.775 8.563L294.97 8.66938L295.165 8.7935L295.36 8.89988L295.573 9.024L295.785 9.14813L295.998 9.27225L296.211 9.39638L296.423 9.52051L296.636 9.64463L296.849 9.76865L297.043 9.89277L297.239 10.0169L297.433 10.141L297.628 10.2651L297.806 10.3893L297.983 10.5134L298.16 10.6375L298.337 10.7615L298.497 10.8679L298.656 10.992L298.833 11.0984L299.011 11.2225L299.188 11.3289L299.365 11.453L299.542 11.5772L299.72 11.6836L299.897 11.8077L300.074 11.9141L300.251 12.0382L300.428 12.1446L300.606 12.2509L300.783 12.3573L300.96 12.4637L301.137 12.5701L301.315 12.6764L301.492 12.7828L301.687 12.8892L301.864 12.9956L302.041 13.102L302.218 13.2083L302.396 13.2971L302.573 13.3857L302.75 13.4921L302.927 13.5807L303.104 13.6693L303.282 13.758L303.459 13.8643L303.654 13.9531L303.849 14.0595L304.044 14.1658L304.239 14.2722L304.434 14.3786L304.628 14.485L304.823 14.6091L305.018 14.7155L305.213 14.8219L305.391 14.9282L305.568 15.0346L305.727 15.1232L305.887 15.2119L306.046 15.3005L306.206 15.3892L306.347 15.4779L306.507 15.5665L306.649 15.6551L306.808 15.7438L306.968 15.8325L307.109 15.9211L307.269 16.0098L307.429 16.0984L307.588 16.187L307.748 16.2758L307.907 16.3644L308.067 16.453L308.226 16.5416L308.385 16.6303L308.545 16.719L308.704 16.8076L308.846 16.8963L308.988 16.9849L309.13 17.0735L309.272 17.1623L309.413 17.2509L309.555 17.3395L309.697 17.4282L309.839 17.5168L309.98 17.6055L310.14 17.6942L310.299 17.7828L310.459 17.8714L310.618 17.96L310.778 18.0488L310.937 18.1552L311.097 18.2615L311.256 18.3679L311.416 18.4743L311.575 18.5807L311.735 18.6693L311.894 18.7757L312.054 18.8643L312.196 18.953L312.337 19.0417L312.461 19.1303L312.586 19.2189L312.71 19.3076L312.834 19.3963L312.94 19.4849L313.046 19.5736L313.153 19.6622L313.259 19.7508L313.365 19.8396L313.472 19.9282L313.578 20.0168L313.684 20.1055L313.808 20.1941L313.915 20.2828L314.021 20.3715L314.145 20.4601L314.251 20.5487L314.358 20.6196L314.464 20.6906L314.57 20.7615L314.677 20.8325L314.783 20.9033L314.872 20.9742L314.978 21.0452L315.067 21.1161L315.173 21.187L315.279 21.258L315.386 21.3288L315.492 21.4175L315.598 21.4885L315.705 21.5771L315.811 21.6657L315.917 21.7366L316.024 21.8253L316.13 21.8962L316.236 21.9849L316.325 22.0559L316.413 22.1267L316.502 22.1976L316.591 22.2686L316.679 22.3395L316.768 22.4104L316.856 22.4814L316.945 22.5522L317.034 22.6231L317.122 22.6941L317.211 22.765L317.3 22.8359L317.388 22.9069L317.477 22.9778L317.565 23.0487L317.654 23.1196L317.743 23.1905L317.849 23.2615L317.938 23.3324L318.026 23.4033L318.133 23.4743L318.221 23.5451L318.327 23.616L318.434 23.687L318.522 23.7579L318.629 23.8289L318.735 23.8998L318.841 23.9706L318.948 24.0416L319.054 24.1125L319.089 24.1303L335.907 237.816L233.653 346.698V346.733L225.713 365.563L231.88 403.683L258.41 457.53L271.294 509.019L266.899 541.182L285.542 574.054L269.557 584.692L224.526 650.72L218.128 665.489L192.999 642.581Z" fill="white"/>
<g id="Outline">
<path d="M420.689 739.266C405.785 737.174 397.775 722.972 388.595 712.706C380.974 706.855 372.663 702.635 364.085 698.539C357.156 695.436 349.554 693.185 342.004 695.188C318.948 699.904 295.272 701.872 271.843 699.142C255.504 696.482 241.22 685.667 231.863 672.316C227.858 665.827 222.205 659.923 219.812 652.635C219.156 649.054 223.853 646.483 226.475 649.089C228.07 650.579 228.921 652.653 230.268 654.338C239.164 666.891 248.947 679.55 263.532 685.72C273.084 689.833 283.699 688.929 293.836 688.539C304.008 687.954 314.004 687.263 324.052 685.844C332.328 684.78 340.569 682.688 348.933 682.688C365.929 685.33 382.109 693.593 395.985 703.397C403.109 710.702 415.071 735.986 427.264 726.11C425.279 716.642 419.378 708.858 414.539 700.702C410.552 694.124 406.707 687.404 401.461 681.731C398.732 679.319 395.223 678.007 392.051 676.27C384.324 672.156 376.686 667.848 368.675 664.302C362.615 661.607 356.306 659.639 349.943 657.795C345.035 656.43 340.728 655.242 337.379 651.554C341.526 647.05 348.313 646.341 353.771 648.628C368.339 652.937 382.233 659.142 395.506 666.11C402.134 669.178 408.922 672.263 413.015 678.646C420.884 689.053 427.441 700.56 433.555 712.067C436.196 718.362 440.537 726.677 435.522 732.83C431.641 736.553 426.165 739.549 420.689 739.266Z" fill="black"/>
<path d="M456.753 699.532C448.938 698.663 441.246 695.419 435.735 689.727C430.383 684.585 424.712 679.834 418.935 675.206C414.238 671.625 409.701 667.547 404.385 664.922C392.352 660.915 379.716 659.018 367.134 657.777C363.66 657.139 357.316 659.125 357.564 653.681C357.989 650.543 361.622 650.295 364.139 650.49C370.288 650.72 376.455 651.217 382.569 651.979C393.734 654.072 405.944 655.011 415.231 662.139C421.77 666.625 427.92 671.678 433.998 676.749C440.502 682.174 445.943 689.568 454.821 690.968C459.783 692.28 465.029 690.897 469.442 688.486C470.47 685.791 466.677 684 465.33 682.068C459.074 675.454 452.429 669.213 445.96 662.813C436.71 653.238 428.274 641.891 415.993 636.164C406.139 631.572 395.737 628.859 385.493 625.419C379.185 623.841 372.875 621.412 368.587 616.271C379.433 612.955 390.154 619.568 400.486 622.263C411.066 625.614 421.894 629.107 430.755 636.004C441.884 644.852 450.32 656.518 460.776 666.11C465.791 671.376 471.178 676.323 475.875 681.873C478.817 685.791 478.161 692.192 474.067 695.046C468.981 698.096 462.778 700.135 456.753 699.532Z" fill="black"/>
<path d="M473.996 653.947C467.847 653.894 462.566 650.738 457.515 647.6C448.264 641.979 439.173 636.128 429.638 631.004C424.428 628.256 418.456 627.848 412.75 626.767C403.605 625.118 394.337 624.284 385.157 622.99C382.747 622.476 379.929 619.338 382.871 617.405C384.802 615.845 387.372 616.501 389.605 616.714C394.673 617.157 399.742 617.671 404.792 618.256C412.555 619.373 420.423 620.118 428.044 621.979C435.292 624.338 441.707 628.735 448.424 632.298C451.773 634.249 455.105 636.252 458.383 638.327C463.257 641.093 467.918 645.011 473.713 645.348C477.86 645.561 487.27 643.699 488.085 638.983C485.055 631.625 477.895 626.412 472.508 620.667C465.153 613.238 457.621 605.969 448.867 600.136C445.5 598.079 442.398 595.171 438.482 594.267C422.975 591.891 407.256 591.04 391.731 588.788C389.942 588.54 388.152 588.31 386.38 588.079L386.202 587.99L385.724 587.724L385.582 587.636L385.44 587.547L385.298 587.459L385.05 587.281L384.926 587.193L384.785 587.104L384.66 587.015L384.164 586.661L384.04 586.572L383.916 586.483L383.81 586.377L383.704 586.271L383.615 586.164L383.526 586.04L383.349 585.827L383.278 585.721L383.207 585.615L382.924 585.189L382.853 585.1L382.782 585.012L382.569 584.746L382.499 584.657L382.428 584.569L382.374 584.48L382.304 584.391L382.25 584.303L382.197 584.214L382.02 583.771L381.984 583.593L381.967 583.505L381.949 583.416V583.026L381.967 582.955L381.984 582.884L382.002 582.813L382.25 582.317L382.357 582.175L382.41 582.104L382.463 582.033L382.534 581.962L382.605 581.891L382.817 581.679L382.959 581.537L383.048 581.466L383.225 581.324L383.314 581.253L383.526 581.111L383.65 581.04L383.898 580.898L384.023 580.828L384.271 580.686L384.554 580.544L384.838 580.437L384.979 580.384L385.405 580.225L385.564 580.172L386.202 579.959L386.38 579.923L386.504 579.888C391.111 580.615 395.719 581.412 400.327 582.175C413.671 584.338 427.211 584.923 440.573 586.767C443.461 587.175 445.925 588.7 448.3 590.295C454.839 594.533 461.485 598.717 467.28 603.948C474.209 611.323 498.346 630.366 496.609 639.905C495.457 649.993 483.566 653.947 474.741 653.947C474.475 653.965 474.244 653.965 473.996 653.947Z" fill="black"/>
<path d="M286.039 594.249C281.626 592.405 277.727 589.497 274.395 586.093C273.385 585.047 272.8 583.966 272.552 582.529C272.109 580.012 274.324 578.168 276.735 579.001C278.985 579.675 280.279 581.678 282.175 582.937C285.915 585.561 290.203 587.778 294.9 587.388C305.054 586.82 313.862 579.409 321.908 574.586C328.872 570.367 335.341 565.756 342.766 562.476C348.171 560.296 354.339 559.125 360.098 559.285C355.242 565.136 349.111 569.799 342.412 573.345C324.92 581.288 306.029 601.554 286.039 594.249Z" fill="black"/>
<path d="M467.546 598.079C456.576 594.568 445.801 590.331 434.831 586.767C429.16 584.852 423.383 582.813 417.322 582.813C411.562 582.991 405.962 584.568 400.38 585.88C395.365 586.395 387.159 591.448 384.271 585.118C383.101 581.767 385.83 578.576 389.197 578.469C396.534 577.051 403.765 575.1 411.137 573.913C427.264 571.944 442.079 580.615 457.161 584.941C465.561 587.76 471.037 590.721 479.774 586.519C483.141 585.313 484.913 581.749 482.91 578.576C481.953 576.306 481.475 573.345 478.958 572.264C464.019 565.544 448.92 559.445 433.218 555.349C425.492 553.54 417.942 550.774 410.339 548.629C410.357 548.629 410.393 548.647 410.41 548.647C410.57 548.7 410.747 548.735 410.907 548.771C400.787 545.65 395.559 546.998 386.131 551.147C379.202 553.877 372.202 556.413 365.592 559.87C360.878 562.388 355.987 564.515 351.166 566.803C348.526 568.593 344.024 569.941 342.748 565.898C342.04 562.778 345.052 560.863 347.551 559.888C353.895 557.016 359.974 553.629 366.23 550.562C375.41 546.643 384.59 542.601 394.018 539.303C399.99 537.477 406.281 539.073 412.165 540.455C432.616 546.537 453.403 551.891 473.022 560.367C478.001 562.547 483.921 563.789 487.518 568.15C490.495 572.937 493.774 578.753 492.622 584.586C490.336 595.295 477.204 599.054 467.546 598.079Z" fill="black"/>
<path d="M217.384 669.071C199.716 658.539 226.883 621.979 235.035 610.756C240.157 604.161 246.111 598.292 251.853 592.228C259.296 584.799 266.314 575.42 276.894 572.53C289.849 568.966 292.596 585.473 281.431 583.558C272.676 587.778 267.395 596.767 261.015 603.788C251.215 615.171 242.248 627.334 235.797 640.951C233.511 646.234 231.136 651.589 230.126 657.281C232.43 665.188 225.306 672.688 217.384 669.071Z" fill="black"/>
<path d="M217.278 670.507C205.723 666.678 198.05 656.199 187.931 649.922C180.523 642.706 190.376 631.536 198.67 637.511C207.939 644.745 214.318 655.029 223.286 662.529C227.078 663.717 226.795 669.195 223.233 670.578C221.354 671.429 219.156 671.039 217.278 670.507Z" fill="black"/>
<path d="M282.618 580.632C277.869 574.285 273.527 567.619 269.043 561.094C266.934 557.548 263.248 554.48 262.699 550.243C262.433 546.466 266.226 543.328 269.876 544.321C272.641 544.959 274.076 547.495 275.441 549.746C280.598 558.541 285.472 567.565 289.991 576.696C291.391 581.022 285.542 584.143 282.618 580.632Z" fill="black"/>
<path d="M172.353 647.192C154.348 640.951 141.535 626.04 130.476 611.217C112.542 587.228 97.9746 560.934 82.2199 535.509C64.7108 506.431 48.4067 476.591 40.0065 443.737C35.7356 424.978 35.0798 405.616 35.7887 386.432C36.8875 348.755 45.394 311.593 61.2905 277.391C85.0909 221.984 119.312 171.824 155.039 123.509C173.009 100.07 191.457 76.9318 211.784 55.4781C231.544 35.4783 253.253 17.5885 275.175 0H275.21L275.423 0.0531347L276.114 0.212755L277.107 0.496393L277.638 0.638265L278.17 0.815525L279.411 1.25878L281.023 1.87941L281.519 2.05667L282.016 2.26942L282.264 2.35805L283.008 2.67719L283.239 2.78356L283.983 3.10281L284.444 3.31556L284.869 3.52832L285.082 3.61695L285.277 3.70558L285.454 3.79421C285.347 3.86513 285.259 3.95379 285.153 4.02471C257.843 26.7195 230.038 49.237 206.964 76.4176C161.348 129.733 120.641 187.551 87.0579 249.164C73.2881 276.912 60.2094 305.387 53.8827 335.883C50.3561 353.933 48.9384 372.354 48.5662 390.723C48.4953 408.258 49.3813 425.935 54.0244 442.903C68.769 491.467 100.278 533.009 127.003 575.384C139.94 593.487 152.097 613.823 171.467 625.703C175.171 627.565 179.105 628.894 183.163 629.763C185.751 630.135 188.285 630.987 190.376 632.6C198.635 638.876 195.356 648.752 185.024 649.958C184.546 650.011 184.05 650.029 183.571 650.029C179.725 650.047 175.897 648.469 172.353 647.192Z" fill="black"/>
<path d="M264.064 548.984C256.549 544.463 258.286 535.083 259.226 527.778C259.864 522.016 259.686 516.254 259.35 510.474C257.985 482.158 247.175 455.74 234.521 430.758C231.402 424.18 228.372 417.567 225.82 410.741C221.212 396.858 219.724 381.769 220.291 367.177C221.549 353.011 229.276 340.28 238.314 329.642C262.912 302.603 291.586 279.589 315.9 252.249C319.356 248.295 322.758 244.306 326.125 240.281C327.703 238.384 329.298 236.451 331.034 234.678C333.196 232.48 337.29 232.462 338.371 235.725C339.417 239.732 335.234 242.498 333.391 245.583C322.634 260.653 309.945 274.164 297.044 287.391C281.112 303.614 264.028 318.702 248.823 335.617C244.197 341.025 239.891 346.734 236.666 353.082C230.162 365.049 232.466 378.932 234.823 391.716C239.253 413.205 253.377 430.793 262.575 450.332C269.026 463.346 273.74 477.3 276.026 491.662C278.525 506.91 279.411 522.442 277 537.761C276.611 543.878 270.816 552.406 264.064 548.984Z" fill="black"/>
</g>
<path id="Skin" d="M482.926 578.557C484.911 581.731 483.139 585.295 479.79 586.5C471.035 590.703 465.577 587.742 457.177 584.922C442.095 580.596 427.28 571.944 411.153 573.894C403.781 575.1 396.532 577.032 389.213 578.451C387.689 578.504 386.289 579.196 385.332 580.242L385.244 580.277L385.102 580.33L384.96 580.384L384.818 580.437L384.677 580.49L384.535 580.543L384.393 580.614L384.251 580.685L384.127 580.756L384.003 580.827L383.879 580.898L383.755 580.969L383.631 581.04L383.507 581.11L383.401 581.181L383.294 581.252L383.206 581.323L383.117 581.394L383.028 581.465L382.94 581.536L382.869 581.607L382.798 581.678L382.727 581.749L382.656 581.82L382.585 581.891L382.515 581.961L382.444 582.032L382.39 582.103L382.337 582.174L382.284 582.245L382.231 582.316L382.195 582.387L382.16 582.458L382.125 582.529L382.089 582.6L382.054 582.671L382.018 582.742L381.983 582.813L381.965 582.883L381.947 582.954L381.93 583.025V583.096V583.185V583.256V583.327V583.415L381.947 583.504L381.965 583.593L381.983 583.681L382.001 583.77L382.036 583.859L382.072 583.947L382.107 584.036L382.142 584.125L382.178 584.213L382.231 584.302L382.284 584.39L382.355 584.479L382.408 584.568L382.479 584.656L382.55 584.745L382.621 584.834L382.692 584.922L382.763 585.011L382.834 585.1L382.904 585.188L382.975 585.295L383.046 585.401L383.117 585.507L383.188 585.614L383.259 585.72L383.33 585.827L383.418 585.933L383.507 586.039L383.596 586.163L383.684 586.27L383.79 586.376L383.897 586.483L384.021 586.571L384.145 586.66L384.269 586.749L384.393 586.837L384.517 586.926L384.641 587.015L384.765 587.103L384.907 587.192L385.031 587.281L385.155 587.369L385.279 587.458L385.421 587.547L385.563 587.635L385.704 587.724L385.864 587.812L386.023 587.901L386.183 587.99L386.36 588.078C388.15 588.309 389.94 588.557 391.712 588.788C407.254 591.04 422.973 591.89 438.462 594.266C442.379 595.171 445.48 598.078 448.847 600.135C457.584 605.968 465.116 613.238 472.488 620.667C477.876 626.411 485.035 631.624 488.066 638.982C487.268 643.698 477.84 645.56 473.693 645.347C467.88 645.028 463.237 641.092 458.364 638.326C455.068 636.269 451.754 634.248 448.404 632.298C441.688 628.734 435.272 624.337 428.024 621.979C420.404 620.117 412.553 619.373 404.773 618.256C399.722 617.67 394.654 617.174 389.586 616.713C387.742 616.536 385.687 616.057 383.95 616.766C378.882 615.348 373.742 614.674 368.585 616.252C372.856 621.394 379.183 623.823 385.492 625.401C395.753 628.823 406.155 631.553 415.991 636.145C428.272 641.872 436.69 653.237 445.959 662.812C452.409 669.212 459.055 675.436 465.329 682.049C466.675 683.982 470.468 685.79 469.44 688.468C465.045 690.897 459.782 692.262 454.82 690.95C445.923 689.549 440.483 682.173 433.996 676.73C427.918 671.659 421.768 666.606 415.229 662.12C405.943 654.993 393.732 654.053 382.568 651.961C376.454 651.198 370.287 650.702 364.137 650.471C363.003 650.383 361.638 650.4 360.451 650.72C358.236 649.957 356.003 649.248 353.752 648.592C348.276 646.323 341.506 647.032 337.359 651.518C340.691 655.223 344.997 656.393 349.924 657.759C356.286 659.602 362.595 661.571 368.656 664.266C376.666 667.812 384.287 672.12 392.031 676.234C395.203 677.971 398.712 679.283 401.441 681.712C406.687 687.386 410.533 694.124 414.52 700.684C419.358 708.857 425.26 716.623 427.244 726.091C415.052 735.949 403.072 710.666 395.965 703.379C382.089 693.574 365.909 685.294 348.914 682.652C340.549 682.652 332.309 684.744 324.033 685.808C314.002 687.226 303.989 687.936 293.817 688.503C283.68 688.911 273.065 689.797 263.512 685.702C249.14 679.62 239.429 667.244 230.656 654.886C231.826 650.064 233.846 645.489 235.813 640.932C242.264 627.316 251.231 615.153 261.031 603.77C265.869 598.451 270.07 591.979 275.652 587.316C278.7 590.188 282.174 592.617 286.055 594.249C306.045 601.536 324.919 581.288 342.445 573.344C346.592 571.146 350.527 568.504 354.089 565.437C357.97 563.628 361.869 561.855 365.643 559.852C372.254 556.412 379.254 553.859 386.183 551.129C395.611 546.98 400.839 545.632 410.958 548.753C410.799 548.717 410.621 548.664 410.444 548.629C410.426 548.629 410.391 548.629 410.373 548.611C417.994 550.756 425.525 553.522 433.252 555.331C448.954 559.409 464.053 565.525 478.992 572.245C481.491 573.327 481.969 576.288 482.926 578.557Z" fill="#B7B5B5"/>
</g>
</svg>
