<svg width="770" height="1005" viewBox="0 0 770 1005" fill="none" xmlns="http://www.w3.org/2000/svg">
<g id="Right Arm / On Table">
<g id="Outline">
<path d="M161.364 546.01C147.222 535.377 133.594 523.078 124.113 507.996C116.085 492.72 110.148 475.636 109.812 458.251C109.581 440.724 109.794 423.108 112.505 405.741C117.875 375.826 127.516 346.851 134.463 317.291C142.508 281.953 153.23 247.36 163.668 212.678C170.243 189.427 177.19 166.264 185.679 143.615C194.309 121.02 202.869 98.1233 215.753 77.5304C225.216 62.2718 236.593 48.2891 248.68 35.0685C259.525 24.3468 270.3 13.3237 282.794 4.4982C285.665 2.83234 288.253 -0.517112 291.85 0.0677124C293.622 0.528483 294.739 2.24749 294.562 4.03741C294.349 6.03999 292.577 7.20964 291.212 8.46789C289.794 9.77932 288.412 11.1262 287.03 12.4908C264.683 36.2205 242.3 60.5704 225.819 88.8723C199.466 136.881 185.448 190.313 169.711 242.398C158.653 277.204 150.572 312.825 141.853 348.251C135.242 375.277 126.683 403.171 125.903 431.012C125.052 450.187 124.29 469.894 131.414 488.095C134.232 496.69 137.723 502.928 142.118 510.353C148.906 521.997 155.481 533.977 161.364 546.01Z" fill="black"/>
<path d="M508.003 571.618C495.102 557.122 494.286 536.156 496.59 517.797C498.646 500.961 500.95 482.441 512.327 469.097C516.403 463.621 526.097 460.962 529.571 468.423C530.226 469.983 530.191 472.021 529.145 473.385C528.649 473.545 528.046 473.527 527.586 473.829C524.36 478.543 520.408 482.796 518.477 488.29C510.502 511.293 504.086 539.949 518.459 561.676C518.601 561.534 518.742 561.41 518.902 561.286L518.92 561.304L519.008 561.428L519.274 561.747L519.38 561.854L519.487 561.96L519.593 562.066L519.699 562.172L519.824 562.279L519.948 562.385L520.072 562.492L520.196 562.598L520.32 562.704L520.444 562.81L520.568 562.899L520.692 562.988L520.94 563.165L521.064 563.253L521.206 563.342L521.348 563.431L521.773 563.696L522.092 563.874L522.57 564.086L522.73 564.157L523.208 564.37L523.687 564.53L523.829 564.583L524.112 564.689L524.254 564.724L524.396 564.777L524.537 564.813L524.662 564.848L525.087 564.955L525.229 565.008L525.654 565.168L525.796 565.221L526.079 565.362L526.203 565.433L526.451 565.575L526.576 565.646L526.948 565.859L526.983 565.876C527.072 568.056 526.292 570.431 525.211 572.15C523.386 574.968 520.532 576.19 517.573 576.19C513.993 576.226 510.272 574.472 508.003 571.618Z" fill="black"/>
<path d="M518.743 565.008C517.112 564.76 515.73 563.803 514.915 562.367C513.958 560.825 514.472 558.823 515.641 557.582C515.872 557.37 516.102 557.175 516.35 557.015L516.385 557.086L516.421 557.175L516.74 557.813L516.775 557.884L516.846 558.061L516.953 558.238L517.006 558.344L517.077 558.433L517.13 558.539L517.183 558.646L517.679 559.39L517.75 559.496L518.104 560.028L518.193 560.134L518.264 560.258L518.441 560.507L518.53 560.63L518.884 561.127L518.973 561.251L519.062 561.357L519.15 561.481L519.239 561.588L519.416 561.8L519.522 561.906L519.629 562.013L519.735 562.119L519.841 562.226L519.965 562.332L520.461 562.757L520.586 562.863L520.71 562.952L520.834 563.041L520.958 563.129L521.082 563.218L521.206 563.307L521.348 563.395L521.489 563.484L521.915 563.75L522.234 563.927L522.553 564.069L522.712 564.139L523.031 564.281L523.191 564.352L523.35 564.423L523.829 564.583L524.112 564.689L524.254 564.742L524.396 564.777L524.538 564.831L524.679 564.866L524.803 564.902L525.229 565.008L525.654 565.168L525.796 565.221L525.938 565.274L526.221 565.416L526.345 565.486L526.593 565.628L526.717 565.699L526.965 565.841L527.089 565.912H527.107C524.183 565.788 521.436 565.628 518.743 565.008Z" fill="black"/>
<path d="M717.759 492.135C710.723 487.439 703.634 482.867 696.563 478.223C683.715 469.859 671.274 459.917 656.246 455.77C649.423 454.706 641.448 456.55 634.891 457.294C627.129 458.641 620.483 459.74 613.023 461.459C595.478 465.57 578.146 470.621 560.655 475.034C548.816 478.631 536.712 481.555 524.413 483.044C519.026 484.337 515.623 477.674 521.33 475.229C526.841 474.201 532.3 473.066 537.723 471.649C555.267 467.006 572.723 462.132 590.339 457.79C611.18 452.03 632.658 446.377 654.385 446.218C667.535 448.238 678.841 456.461 689.989 463.231C700.905 470.302 711.786 477.479 722.792 484.426C731.103 489.264 725.733 497.718 717.759 492.135Z" fill="black"/>
<path d="M744.979 574.808C735.959 570.945 728.48 564.299 723.235 556.023C717.953 548.261 712.265 540.693 708.313 532.134C704.538 523.858 700.728 515.617 696.404 507.606C698.07 509.201 699.736 511.239 701.401 512.994C709.359 521.784 716.394 531.354 724.068 540.392C727.966 545.514 731.05 551.22 735.303 556.094C738.475 560.56 753.061 570.041 758.076 566.691C758.377 564.476 756.268 562.598 755.329 560.701C752.529 556.413 750.119 551.876 747.726 547.339C740.053 531.301 731.209 516.574 724.475 500.216C723.288 497.842 722.118 495.432 720.435 493.358C719.708 492.667 719.176 491.816 719.052 490.806C718.556 487.581 722.49 485.436 725.096 487.297C731.28 491.479 734.346 498.763 737.625 505.178C744.058 517.495 751.324 529.351 757.473 541.828C760.61 548.456 765.572 554.162 768.567 560.772C771.403 567.826 766.83 576.367 759.245 577.608C754.336 578.512 749.463 576.882 744.979 574.808Z" fill="black"/>
<path d="M695.589 505.604C687.507 499.206 679.001 493.145 671.398 486.269C681.89 487.634 690.113 497.168 695.589 505.604Z" fill="black"/>
<path d="M723.146 578.795C716.571 578.211 710.812 574.081 705.69 570.183C699.133 564.636 695.341 556.749 690.945 549.537C681.872 534.81 672.869 520.012 665.107 504.54C674.34 513.951 683.626 523.964 691.07 535.04C698.903 545.939 703.492 560.506 716.288 566.674C720.399 568.942 727.825 571.441 730.04 565.646C730.589 564.193 731.617 562.81 733.23 562.509C734.523 562.226 736.048 562.491 736.951 563.537C739.202 565.841 737.696 569.261 736.739 571.848C734.665 577.183 728.409 578.884 723.146 578.795Z" fill="black"/>
<path d="M684.477 571.086C674.535 566.621 668.12 557.051 661.758 548.58C654.527 539.311 648.892 528.908 642.317 519.268C654.651 528.483 665.408 540.197 675.279 552.071C679.71 556.643 684.442 563.236 691.495 562.97C695.677 562.491 699.93 561.871 704.13 562.686C708.313 563.696 707.923 570.112 703.617 570.572C697.254 571.086 690.715 573.727 684.477 571.086Z" fill="black"/>
<path d="M660.464 569.208C652.418 567.737 646.091 562.208 639.729 557.441C628.175 548.846 617.701 538.903 606.519 529.83C605.331 528.784 603.896 527.703 602.85 526.657C616.337 531.974 628.972 539.045 641.023 547.091C648.254 551.734 654.704 558.362 663.565 559.656C667.039 560.241 670.636 559.585 674.057 560.329C678.097 561.446 678.611 566.94 674.677 568.588C670.105 569.935 665.125 569.988 660.464 569.208Z" fill="black"/>
<path d="M566.857 560.17C558.174 559.975 548.356 558.256 540.47 555.314C535.011 552.567 528.95 551.876 522.907 551.982C517.13 552.142 511.104 552.514 505.433 553.045C502.563 553.666 499.532 550.476 501.056 547.676C502.102 545.301 504.884 545.071 507.135 544.734C512.912 543.919 518.743 543.352 524.591 543.298C532.158 542.855 539.318 545 546.335 547.552C553.123 549.217 560.07 550.21 567.07 550.245C586.404 549.785 605.331 545.124 624.719 545.939C607.688 557.068 587.007 560.843 566.857 560.17Z" fill="black"/>
<path d="M621.387 547.073C621.051 547.073 620.732 546.985 620.413 546.985C621.813 545.602 624.808 545.443 626.881 544.982C631.56 545.567 622.451 547.286 621.387 547.073Z" fill="black"/>
<path d="M500.914 574.826C495.438 574.188 489.945 572.947 484.929 570.838C491.628 567.099 499.373 565.522 506.993 565.398C509.935 565.398 512.877 565.61 515.836 565.646C518.583 565.291 522.057 565.788 522.624 569.031C523.386 573.248 518.689 574.524 515.411 574.613C510.608 575.109 505.752 575.34 500.914 574.826Z" fill="black"/>
<path d="M490.653 472.659C484.38 468.14 489.448 460.572 496.218 461.884C506.302 463.674 515.375 461.618 525.14 463.16C529.393 464.648 528.897 470.869 524.502 471.737C522.322 472.18 518.902 472.34 517.023 472.623C510.679 473.474 504.707 474.094 498.345 474.006C495.722 474.006 492.904 474.218 490.653 472.659Z" fill="black"/>
<path d="M496.289 470.621C489.058 467.041 485.461 459.474 479.382 454.583C454.501 437.835 424.799 430.463 396.32 422.258C379.307 417.473 362.347 412.422 345.76 406.308C321.959 396.685 313.01 396.738 288.713 405.652C282.475 408.116 276.255 410.632 270.052 413.166C264.913 415.665 258.976 417.171 253.535 414.655C255.892 409.817 261.546 406.645 266.526 404.429C271.789 401.824 277.105 399.29 282.404 396.738C297.698 389.189 315.633 383.89 332.362 389.809C349.233 395.427 365.803 401.984 382.905 406.91C412.252 415.789 442.237 422.683 469.777 436.364C476.653 440.104 484.469 443.01 489.962 448.752C494.676 454.831 496.519 463.071 496.289 470.621Z" fill="black"/>
<path d="M369.348 604.563C344.856 604.475 320.223 604.333 295.997 600.221C254.12 593.593 213.821 579.008 177.048 557.972C167.407 552.922 158.795 546.205 150.837 538.815C148.126 535.944 143.855 533.197 143.696 528.944C143.891 527.189 144.936 525.47 146.832 525.187C148.924 524.797 150.802 525.984 152.06 527.561C157.944 533.179 164.731 537.734 171.554 542.076C212.633 564.884 257.665 580.444 304.202 587.16C331.706 590.935 359.636 591.042 387.353 590.386C404.756 589.464 422.265 588.224 439.331 584.52C448.015 582.446 456.273 578.813 463.964 574.365C472.648 569.314 483.086 562.669 493.081 568.304C489.767 576.19 482.749 581.56 475.165 585.105C459.959 594.923 442.592 600.469 424.569 601.781C406.244 603.819 387.796 604.758 369.348 604.563Z" fill="black"/>
<path d="M325.203 396.525C319.354 395.232 321.641 388.001 321.587 383.677C322.208 374.497 323.501 365.37 324.76 356.261C329.048 323.245 339.026 291.31 353.15 261.218C352.459 267.102 351.378 273.251 350.562 279.224C346.646 307.384 342.8 335.597 336.633 363.368C335.003 371.077 333.39 378.786 331.884 386.512C330.998 390.447 330.856 397.287 325.203 396.525Z" fill="black"/>
</g>
<path id="Skin" d="M671.398 486.269C679.019 493.145 687.508 499.206 695.589 505.604C690.113 497.168 681.89 487.616 671.398 486.269ZM755.329 560.719C756.268 562.615 758.359 564.494 758.076 566.709C753.061 570.059 738.476 560.577 735.303 556.111C731.05 551.238 727.967 545.531 724.068 540.41C716.412 531.354 709.359 521.802 701.402 513.011C699.736 511.257 698.052 509.219 696.404 507.624C700.728 515.634 704.538 523.875 708.313 532.151C712.265 540.711 717.954 548.278 723.235 556.04C725.29 559.266 727.683 562.261 730.377 564.919C730.253 565.15 730.146 565.397 730.058 565.646C727.842 571.441 720.417 568.96 716.306 566.674C703.51 560.524 698.921 545.939 691.087 535.058C683.644 523.999 674.34 513.986 665.125 504.558C672.887 520.029 681.89 534.827 690.963 549.554C693.533 553.79 695.908 558.256 698.761 562.332C696.333 562.402 693.905 562.721 691.513 563.005C684.477 563.271 679.745 556.678 675.315 552.106C665.444 540.233 654.687 528.501 642.352 519.303C648.927 528.944 654.563 539.346 661.793 548.615C664.611 552.354 667.429 556.324 670.583 559.975C668.244 559.904 665.887 560.063 663.565 559.691C654.722 558.397 648.254 551.769 641.041 547.126C629.008 539.098 616.354 532.027 602.868 526.693C603.914 527.738 605.349 528.819 606.537 529.865C612.739 534.898 618.729 540.197 624.79 545.39C624.028 545.514 623.231 545.673 622.522 545.886C603.914 545.496 585.66 549.82 567.07 550.263C560.07 550.228 553.123 549.253 546.336 547.569C539.335 545.017 532.158 542.891 524.591 543.316C520.143 543.351 515.695 543.688 511.264 544.22C507.418 525.931 512.522 505.551 518.477 488.325C519.168 486.376 520.107 484.585 521.188 482.884C522.11 483.256 523.209 483.363 524.414 483.079C536.73 481.59 548.817 478.666 560.655 475.069C578.146 470.674 595.46 465.623 613.023 461.494C620.484 459.775 627.129 458.676 634.892 457.329C641.449 456.567 649.423 454.742 656.246 455.805C671.274 459.952 683.715 469.876 696.563 478.259C703.634 482.902 710.741 487.474 717.759 492.17C718.769 492.879 719.744 493.358 720.63 493.659C722.225 495.662 723.359 497.983 724.493 500.27C731.227 516.627 740.071 531.354 747.744 547.392C750.119 551.893 752.529 556.413 755.329 560.719Z" fill="#B7B5B5"/>
<path id="Clothing 1" d="M498.345 474.006C501.978 474.059 505.487 473.882 508.996 473.563C500.472 486.394 498.434 502.769 496.59 517.815C494.588 533.747 494.942 551.628 503.502 565.558C499.603 565.841 495.722 566.55 492.018 567.773C482.36 563.183 472.347 569.545 463.982 574.401C456.291 578.867 448.033 582.482 439.349 584.555C422.283 588.242 404.791 589.482 387.371 590.404C359.654 591.059 331.724 590.953 304.22 587.178C257.665 580.462 212.669 564.902 171.572 542.076C164.732 537.734 157.944 533.179 152.078 527.562C151.883 527.331 151.688 527.083 151.476 526.871C148.445 521.306 145.309 515.777 142.136 510.318C137.741 502.875 134.232 496.655 131.432 488.06C124.326 469.859 125.088 450.152 125.921 430.977C126.718 403.136 135.26 375.224 141.87 348.216C150.59 312.772 158.671 277.168 169.729 242.362C185.466 190.278 199.484 136.846 225.836 88.8372C242.318 60.5353 264.7 36.1853 287.048 12.4556C288.43 11.1087 289.812 9.76197 291.23 8.45054C291.992 7.74166 292.878 7.05042 293.552 6.25293L351.821 264.125C338.406 293.366 328.942 324.327 324.777 356.279C323.519 365.388 322.243 374.515 321.605 383.695C321.623 384.794 321.481 386.105 321.357 387.452C307.995 386.3 294.402 390.837 282.422 396.738C277.123 399.273 271.825 401.824 266.544 404.43C261.564 406.645 255.91 409.835 253.553 414.655C258.994 417.172 264.931 415.665 270.07 413.167C276.273 410.632 282.493 408.116 288.731 405.652C313.01 396.738 321.977 396.685 345.778 406.308C362.365 412.422 379.325 417.473 396.338 422.258C424.817 430.481 454.519 437.853 479.418 454.583C482.998 457.471 485.727 461.282 488.846 464.666C487.216 467.006 487.34 470.267 490.689 472.659C492.887 474.219 495.722 474.006 498.345 474.006Z" fill="white"/>
</g>
</svg>
