<svg width="941" height="995" viewBox="0 0 941 995" fill="none" xmlns="http://www.w3.org/2000/svg">
<g id="Right Arm / Out">
<path id="Clothing 1" d="M518.177 363.938C490.714 358.648 463.269 352.985 436.143 345.867C414.507 340.275 393.599 333.033 372.922 323.962C354.394 315.885 335.352 307.773 319.4 294.69C313.857 289.755 310.553 282.797 306.343 276.673C304.869 274.542 303.022 272.022 300.446 271.542C299.22 270.442 297.87 269.501 296.484 268.702C292.736 266.679 288.615 265.507 284.743 263.767C284.441 263.625 284.121 263.466 283.819 263.306C284.014 261.087 283.819 258.832 283.393 257.359C281.741 250.862 280.657 244.206 280.586 237.478C280.923 210.301 285.169 179.573 305.189 160.562C306.681 161.059 308.209 161.485 309.647 162.017C314.639 163.473 319.666 165.159 324.835 165.656C327.003 165.692 329.294 165.354 331.302 164.414C331.781 164.289 332.243 164.13 332.687 163.934C337.821 162.426 342.795 160.384 347.911 158.804C365.07 154.295 383.314 155.573 400.189 160.863C415.608 165.638 431.098 170.165 446.731 174.07C495.048 186.159 544.272 194.076 593.815 197.75C596.124 197.928 598.7 198.354 600.76 197.023C603.567 196.81 606.551 195.034 609.145 194.111C617.831 190.774 626.18 186.567 634.387 182.129C654.585 171.798 674.551 160.917 693.896 148.863C721.767 131.929 750.403 116.095 776.284 95.7695C804.973 72.3023 832.791 47.131 855.493 16.9894C857.909 13.9007 860.467 10.8652 863.487 7.86524C864.411 7.20845 865.121 6.28543 865.423 5.25586L866.489 6.71148L867.803 8.55757L869.118 10.4925L870.432 12.4629L871.765 14.522L873.097 16.6521L874.394 18.8001L875.655 20.9479L876.863 23.0958L878.035 25.226L879.172 27.3739L880.274 29.5573L881.357 31.7407L882.441 33.9241L883.507 36.143L884.572 38.3797L885.656 40.6873L886.775 43.0838L887.912 45.5512L889.067 48.0541L890.239 50.6103L891.394 53.1842L892.548 55.8114L893.721 58.4919L894.858 61.1545L895.977 63.7639L897.043 66.3025L898.091 68.7876L899.103 71.2373L900.116 73.6869L901.111 76.1011L902.105 78.4976L903.082 80.8762L904.059 83.2727L905.036 85.7046L906.031 88.1897L907.008 90.7104L907.985 93.2488L908.944 95.805L909.904 98.3789L910.827 100.988L911.733 103.651L912.586 106.314L913.385 108.923L914.131 111.479L914.806 113.947L915.428 116.308L915.979 118.562L916.476 120.728L916.938 122.84L917.364 124.899L917.773 126.941L918.164 128.964L918.537 130.988L918.91 133.065L919.265 135.195L919.638 137.378L920.011 139.597L920.384 141.905L920.775 144.284L921.166 146.716L921.557 149.165L921.93 151.633L922.285 154.1L922.622 156.55L922.907 158.928L923.155 161.254L923.369 163.526L923.528 165.763L923.67 167.964L923.759 170.147L923.83 172.331L923.866 174.532L923.884 176.751V178.97V181.189V183.425L923.866 185.697L923.848 187.987L923.83 190.295L923.813 192.638L923.795 194.999V197.324L923.777 199.561L923.759 201.709L923.724 203.75L923.688 205.721L923.635 207.638L923.564 209.52L923.493 211.401L923.386 213.301L923.28 215.2L923.138 217.099L922.978 218.999L922.818 220.898L922.64 222.797L922.463 224.715L922.267 226.614L922.072 228.513L921.876 230.395L921.681 232.241L921.486 234.052L921.29 235.791L921.077 237.478L920.864 239.093L920.633 240.62L920.402 242.075L920.171 243.46L919.922 244.791L919.674 246.087L919.425 247.365L919.141 248.643L918.857 249.939L918.572 251.253L918.288 252.584L918.004 253.933L917.72 255.318L917.435 256.72L917.151 258.158L916.867 259.631L916.583 261.14L916.299 262.667L916.014 264.211L915.73 265.738L915.464 267.247L915.197 268.738L914.931 270.175L914.682 271.542L914.433 272.838L914.185 274.063L913.954 275.199L913.776 276.033C898.339 277.897 883.258 283.01 869.278 290.234C851.443 298.897 833.306 306.796 814.974 314.199C781.986 328.187 748.289 340.062 714.644 352.062C678.282 364.239 640.871 374.571 602.501 374.713C601.968 374.713 601.418 374.713 600.885 374.713C572.978 374.659 545.622 369.441 518.177 363.938Z" fill="white"/>
<path id="Ink" fill-rule="evenodd" clip-rule="evenodd" d="M862.803 0.410601C865.189 -0.260997 867.461 -0.176809 868.638 1.17427C869.651 2.15058 869.864 3.42861 869.651 4.68892C869.296 8.34551 865.352 10.1208 863.096 12.3042C857.711 17.1169 852.409 22.2924 847.217 27.4653C826.198 53.0372 801.573 75.0485 776.284 95.7348C750.402 116.078 721.767 131.895 693.896 148.83C674.551 160.883 654.585 171.764 634.387 182.095C626.163 186.551 617.831 190.758 609.144 194.078C606.551 194.991 603.568 196.759 600.765 196.982C599.621 197.725 598.307 197.929 596.977 197.929C595.911 197.965 594.828 197.84 593.797 197.751C544.272 194.077 495.048 186.16 446.712 174.072C431.08 170.166 415.59 165.639 400.171 160.846C383.296 155.556 365.035 154.261 347.893 158.788C342.777 160.367 337.803 162.391 332.669 163.917C332.215 164.105 331.726 164.273 331.225 164.403C329.341 165.28 327.215 165.639 325.172 165.639C325.084 165.657 324.959 165.657 324.835 165.657C319.683 165.16 314.638 163.474 309.646 162.018C308.197 161.489 306.679 161.069 305.196 160.571C304.88 160.869 304.581 161.169 304.282 161.467C303.998 161.751 303.696 162.053 303.412 162.355C303.376 162.373 303.358 162.39 303.34 162.425C303.074 162.692 302.808 162.976 302.559 163.26C302.346 163.473 302.15 163.704 301.937 163.935C301.777 164.112 301.617 164.29 301.475 164.467C301.244 164.716 301.013 164.982 300.8 165.248C300.534 165.55 300.285 165.852 300.037 166.154C300.001 166.189 299.966 166.225 299.948 166.278C299.717 166.562 299.485 166.845 299.254 167.129C299.219 167.183 299.184 167.219 299.148 167.272C298.899 167.591 298.668 167.911 298.419 168.23C298.189 168.532 297.958 168.834 297.745 169.154C297.691 169.225 297.656 169.278 297.621 169.349C297.39 169.668 297.159 169.988 296.946 170.307C296.697 170.644 296.466 170.999 296.253 171.336C295.755 172.082 295.276 172.828 294.832 173.591C294.618 173.911 294.423 174.266 294.228 174.585C293.979 174.994 293.748 175.402 293.517 175.828C293.34 176.147 293.161 176.449 293.002 176.769C292.593 177.532 292.203 178.296 291.812 179.077C291.634 179.432 291.456 179.769 291.296 180.123C290.87 181.011 290.479 181.899 290.088 182.804C289.946 183.124 289.822 183.425 289.698 183.727C289.556 184.064 289.414 184.402 289.29 184.721C288.686 186.23 288.116 187.757 287.584 189.301C287.459 189.674 287.335 190.029 287.211 190.402C287.139 190.615 287.068 190.828 287.015 191.04C286.891 191.431 286.766 191.839 286.642 192.23C286.109 193.987 285.594 195.781 285.15 197.574C285.061 197.893 284.991 198.212 284.919 198.532C284.689 199.49 284.475 200.449 284.262 201.408C284.191 201.727 284.12 202.047 284.049 202.384C283.961 202.81 283.872 203.236 283.783 203.679C283.623 204.442 283.48 205.188 283.356 205.952C283.285 206.271 283.232 206.591 283.178 206.911C282.486 210.976 281.953 215.076 281.562 219.176C281.473 220.064 281.403 220.952 281.332 221.822C281.296 222.265 281.26 222.709 281.224 223.153C281.153 224.04 281.1 224.91 281.046 225.797C280.958 227.306 280.887 228.816 280.816 230.325C280.798 230.91 280.78 231.496 280.745 232.064C280.674 233.91 280.638 235.738 280.621 237.567C280.638 238.863 280.692 240.141 280.781 241.437C280.834 242.2 280.905 242.964 280.976 243.727C280.994 243.816 280.994 243.886 281.011 243.975C281.171 245.537 281.367 247.081 281.616 248.625C281.705 249.176 281.793 249.727 281.9 250.277C282.113 251.448 282.344 252.603 282.592 253.756C282.77 254.573 282.965 255.389 283.161 256.206C283.267 256.614 283.356 257.022 283.462 257.43C283.587 257.838 283.676 258.283 283.747 258.797C283.871 259.649 283.96 260.608 283.942 261.62C283.942 261.904 283.942 262.188 283.924 262.49V262.507C283.924 262.789 283.894 263.056 283.876 263.335C284.017 263.41 284.155 263.475 284.281 263.538C284.441 263.626 284.582 263.698 284.742 263.769C285.221 263.982 285.719 264.195 286.199 264.39C286.678 264.585 287.176 264.799 287.673 264.976C288.419 265.26 289.166 265.544 289.894 265.828C290.143 265.916 290.392 266.023 290.64 266.112C291.386 266.396 292.132 266.68 292.86 266.999C293.588 267.319 294.317 267.621 295.045 267.976C295.525 268.207 296.005 268.455 296.466 268.704C296.697 268.828 296.928 268.97 297.159 269.112C297.354 269.236 297.55 269.361 297.746 269.485C298.012 269.662 298.261 269.84 298.509 270.017C298.705 270.141 298.883 270.283 299.06 270.425C299.255 270.585 299.468 270.727 299.664 270.905C299.944 271.097 300.189 271.323 300.434 271.534C303.018 272.008 304.866 274.531 306.342 276.656C310.552 282.762 313.839 289.721 319.399 294.656C335.351 307.738 354.412 315.851 372.921 323.946C393.598 332.999 414.488 340.258 436.142 345.85C463.267 352.951 490.695 358.614 518.175 363.921C546.153 369.531 574.025 374.856 602.553 374.643C640.905 374.501 678.334 364.17 714.678 351.993C748.341 339.975 782.021 328.1 815.008 314.129C833.323 306.709 851.477 298.827 869.312 290.165C884.394 282.372 900.772 277.028 917.47 275.573C904.112 288.638 887.396 296.591 870.84 303.94C840.269 317.821 809.04 330.088 777.865 342.372C721.323 363.123 663.572 387.14 603.104 387.14C598.503 387.158 593.885 387.016 589.249 386.732C555.249 384.886 521.941 376.791 488.563 370.152C463.427 364.702 438.097 359.856 413.476 352.063C394.451 346.365 376.225 338.182 358 330.123C343.86 323.697 329.772 316.721 317.018 307.472C308.58 301.508 302.826 292.206 298.633 282.656C298.066 281.29 297.238 280.011 296.616 278.662C296.613 278.661 296.61 278.662 296.608 278.662C290.213 277.88 284.511 273.994 278.933 270.763C278.676 270.642 278.433 270.495 278.202 270.333C278.185 270.328 278.167 270.323 278.151 270.318C272.787 268.702 270.567 262.507 269.856 257.076C269.854 257.06 269.852 257.044 269.85 257.029C269.834 257.027 269.818 257.025 269.802 257.023C268.133 256.757 266.462 256.562 264.793 256.456C264.677 256.448 264.561 256.442 264.447 256.436C259.477 256.417 254.511 256.568 249.571 257.396C248.471 257.531 247.31 257.884 246.172 258.007C246.168 258.01 246.163 258.014 246.159 258.017C240.297 261.443 234.116 264.373 228.041 267.373C215.18 272.574 201.359 275.148 187.592 276.781C180.451 277.739 173.523 277.437 166.63 277.135C158.228 276.78 149.932 276.408 141.495 278.325C133.341 279.834 125.987 281.077 118.135 283.082C104.99 286.437 92.0228 291.443 78.2916 291.443C77.7764 291.443 77.2784 291.443 76.7633 291.425C67.4019 291.39 57.1345 289.579 50.1002 283.118C48.3239 281.254 46.4413 278.68 46.9918 275.982C47.1161 275.361 47.4006 274.845 47.8092 274.419C47.8157 274.412 47.822 274.405 47.8287 274.398C51.1589 262.774 74.918 258.716 84.4371 253.863C90.672 251.36 96.7115 248.449 102.982 246.052C109.466 243.514 116.5 242.945 123.073 240.708C122.735 240.62 122.398 240.531 122.06 240.44L121.048 240.159C117.62 240.052 114.192 239.804 110.763 239.555C103.8 239.04 96.8191 238.525 89.8736 239.271C75.3073 239.928 60.8295 242.662 46.2633 242.662C44.3626 242.662 42.4442 242.626 40.5435 242.52C30.3826 242.413 14.8921 237.922 16.4908 225.549C19.6173 214.845 33.0119 210.532 43.1373 208.58C58.8048 206.059 73.673 201.923 89.234 200.183C92.4135 199.917 95.7529 200.023 99.0924 200.147C102.521 200.271 105.968 200.396 109.307 200.094C109.419 200.085 109.531 200.072 109.643 200.061C109.519 200.048 109.396 200.037 109.272 200.024C96.9974 198.781 84.7583 196.633 72.5191 195.763C67.19 195.515 61.8246 195.337 56.5133 194.787C40.437 191.432 9.27999 196.793 1.53474 179.379C1.37486 178.936 1.25032 178.491 1.17927 178.047C1.17336 178.015 1.16906 177.983 1.16364 177.951C-0.400801 175.449 -0.30824 171.915 0.966377 169.314C2.90263 165.409 6.73901 162.763 10.647 160.881C20.8612 156.248 32.639 156.604 43.6881 156.196C52.783 155.699 61.8957 155.184 71.0084 154.811C81.0982 154.19 91.2418 153.231 101.332 154.331C106.963 155.13 112.878 154.722 117.674 151.544C117.686 151.537 117.698 151.529 117.71 151.521C117.704 151.517 117.698 151.514 117.692 151.51C112.292 148.155 104.902 147.054 99.484 145.421C79.8727 140.7 59.3197 139.918 40.2769 132.959C14.8397 124.102 15.4438 105.499 42.9771 101.38C61.0074 100.031 79.1091 103.599 97.0328 105.197C123.821 107.771 151.088 112.83 177.823 108.498C180.967 107.948 184.217 107.487 187.059 105.96C187.841 105.055 188.889 104.434 189.991 104.167L189.993 104.166C191.083 99.727 181.311 90.333 179.634 86.8588C177.005 83.0424 174.607 79.0304 172.44 74.9477C165.938 62.3976 161.551 48.1434 162.812 33.978C164.464 16.3155 181.251 5.98377 195.995 19.2085C205.481 27.9243 209.602 40.546 217.205 50.6997C223.173 59.3799 230.829 67.1019 236.389 76.0307C236.392 76.0358 236.395 76.0413 236.398 76.0463C236.401 76.0474 236.405 76.0482 236.408 76.0493C236.656 76.138 236.923 76.2442 237.154 76.3862C239.072 77.7175 240.635 79.5106 242.252 81.1792C248.309 87.6051 252.36 96.0721 256.019 103.652C262.787 116.379 270.709 129.729 278.507 141.569C281.314 146.131 285.88 149.486 289.77 153.267L289.709 153.373C291.589 154.561 293.383 155.71 295.348 156.869L295.401 156.816L295.419 156.798L295.455 156.763L295.472 156.745L295.49 156.727L295.508 156.709L295.544 156.692L295.561 156.674L295.579 156.638L295.597 156.621L295.615 156.603C295.636 156.633 295.656 156.664 295.677 156.695C295.691 156.682 295.706 156.669 295.72 156.657C295.738 156.639 295.755 156.621 295.773 156.621C296.879 155.613 298.029 154.681 299.238 153.836C299.487 152.96 300.001 152.146 300.764 151.527C302.381 150.231 304.442 150.799 306.236 151.243C312.666 152.893 319.168 154.367 325.687 155.645C326.661 155.932 327.64 156.311 328.583 156.783C330.218 155.857 332.203 155.208 333.593 154.509C340.166 151.634 346.756 148.51 353.862 147.534C370.133 144.463 386.867 145.705 402.765 150.373C419.161 154.971 435.539 159.569 452.095 163.492C478.883 169.758 505.991 175.704 533.152 179.237C553.012 181.917 572.925 183.977 592.962 184.492C595.549 184.741 598.449 184.252 600.729 185.662C604.442 184.722 608.628 182.625 611.916 181.563C626.127 175.687 639.894 168.586 653.626 161.575C685.582 143.912 716.793 124.741 747.738 105.162C785.326 79.5466 819.024 47.5764 848.849 12.3403C850.994 9.82088 853.211 7.35051 855.555 5.02193C856.079 4.33237 856.766 3.66886 857.551 3.06197C858.999 1.61117 860.986 0.107132 862.803 0.410601ZM188.587 25.1381C183.204 21.4282 178.568 22.4392 175.584 26.0249C175.282 26.3799 174.997 26.7533 174.731 27.1616C174.465 27.5697 174.216 27.9953 174.003 28.4389C173.772 28.8825 173.559 29.3622 173.364 29.8413C172.973 30.8176 172.671 31.8655 172.44 32.9838C172.316 33.7471 172.227 34.5106 172.156 35.2739C171.747 39.8358 172.102 44.5218 173.008 49.1547C173.044 49.3144 173.079 49.4921 173.097 49.6518C173.666 52.5098 174.447 55.333 175.371 58.0844C175.619 58.8654 175.904 59.6466 176.17 60.392C177.219 63.2498 178.391 66.0013 179.652 68.6284C179.972 69.2495 180.291 69.8706 180.628 70.4917C181.605 72.3377 182.619 74.184 183.667 75.9946C184.022 76.598 184.359 77.2017 184.732 77.8051C185.443 79.0122 186.189 80.1843 186.953 81.3559C187.326 81.9415 187.716 82.5271 188.107 83.1127C188.729 84.0713 189.439 85.0485 190.168 86.0249C190.771 86.8058 191.376 87.6041 191.998 88.4028C192.3 88.811 192.602 89.2016 192.921 89.6098C193.241 90.018 193.543 90.4264 193.845 90.8168C194.147 91.2251 194.449 91.6342 194.733 92.0424C194.875 92.2554 195.018 92.4681 195.16 92.6811C195.586 93.3024 195.995 93.9417 196.385 94.5629C198.872 98.6989 200.257 103.101 198.286 107.947C198.25 108.035 198.215 108.142 198.179 108.248C198.108 108.408 198.055 108.587 197.966 108.764C197.878 108.959 197.789 109.137 197.7 109.314C197.646 109.403 197.611 109.509 197.54 109.598C197.504 109.687 197.451 109.794 197.38 109.882C197.274 110.06 197.167 110.237 197.043 110.415C197.043 110.415 197.042 110.415 197.025 110.432C196.776 110.787 196.51 111.142 196.208 111.498C195.941 111.817 195.639 112.136 195.337 112.42C195.071 112.669 194.804 112.917 194.52 113.148C194.165 113.432 193.809 113.681 193.436 113.912C192.885 114.249 192.299 114.515 191.731 114.71C191.553 114.764 191.375 114.817 191.198 114.852C191.18 114.852 191.163 114.853 191.145 114.871C191.127 114.871 191.109 114.888 191.091 114.888C191.023 114.902 190.955 114.913 190.887 114.924C190.524 115.08 190.148 115.218 189.759 115.368C189.6 115.421 189.44 115.474 189.28 115.545C185.336 116.912 180.185 117.8 174.891 118.386C174.447 118.439 174.003 118.475 173.559 118.528C173.115 118.563 172.671 118.616 172.227 118.652C171.552 118.705 170.894 118.759 170.237 118.812C169.793 118.847 169.349 118.883 168.922 118.901H168.851C167.555 118.99 166.276 119.06 165.033 119.114C158.247 119.451 152.402 119.397 150.128 119.362C122.435 119.078 95.2563 112.883 67.6871 110.984C56.0696 109.99 43.2086 107.878 32.9234 114.374C32.4261 114.623 32.0705 114.871 31.8218 115.137C31.7509 115.208 31.6798 115.297 31.6265 115.368C30.9693 116.326 31.5375 117.392 32.5855 118.421C33.9711 119.806 36.2097 121.084 37.3111 121.794C49.5857 127.723 63.7077 128.628 77.0836 130.581C86.9958 131.752 96.8017 133.563 106.483 135.924C110.693 137.007 115.028 137.984 119.078 139.599C119.806 139.901 120.534 140.22 121.262 140.557C121.991 140.894 122.684 141.267 123.359 141.658C123.714 141.853 124.052 142.066 124.389 142.279C124.762 142.527 125.135 142.794 125.508 143.06C125.633 143.149 125.757 143.255 125.881 143.344C125.935 143.38 125.97 143.415 126.023 143.451C126.147 143.539 126.254 143.646 126.378 143.735C126.521 143.859 126.663 143.983 126.805 144.107C126.947 144.231 127.071 144.356 127.213 144.498C127.462 144.764 127.711 145.031 127.942 145.315C128.048 145.457 128.155 145.599 128.261 145.741V145.758C128.617 146.273 128.901 146.841 129.096 147.427C129.292 148.066 129.38 148.723 129.327 149.433C129.309 149.628 129.292 149.824 129.256 150.019V150.037C129.221 150.232 129.185 150.409 129.15 150.569V150.586C129.097 150.746 129.061 150.906 129.007 151.066C129.007 151.101 128.99 151.119 128.972 151.155C128.901 151.314 128.848 151.456 128.777 151.598V151.617C128.706 151.759 128.617 151.901 128.545 152.025C128.545 152.042 128.528 152.042 128.528 152.06C128.439 152.202 128.35 152.326 128.244 152.451C128.244 152.452 128.243 152.468 128.226 152.468C128.137 152.592 128.031 152.699 127.942 152.805C127.924 152.823 127.906 152.841 127.906 152.841C127.799 152.948 127.693 153.054 127.569 153.161C127.567 153.162 127.564 153.164 127.562 153.165C127.564 153.176 127.567 153.186 127.569 153.196C127.569 153.231 127.586 153.249 127.586 153.285C127.657 153.764 127.658 154.243 127.586 154.705V154.722C127.48 155.432 127.213 156.124 126.734 156.763C125.686 158.467 123.661 159.869 121.795 160.881C121.618 160.97 121.457 161.077 121.28 161.148C120.605 161.485 119.984 161.77 119.433 162C112.576 165.551 105.204 164.875 97.8502 164.183C96.4113 164.041 94.9716 163.917 93.5328 163.811C93.4797 163.811 93.4267 163.81 93.3736 163.792C91.011 163.633 88.6477 163.562 86.3384 163.722C73.531 164.61 60.7057 164.929 47.8804 165.533C39.6736 166.172 16.9006 164.823 10.6832 172.047C10.0259 172.793 9.58147 173.627 9.31501 174.568C9.45712 174.799 9.56408 175.029 9.6529 175.26C9.70617 175.42 9.75899 175.58 9.7945 175.722C9.86549 176.059 9.88373 176.397 9.84821 176.734V176.769C9.81269 177.089 9.72354 177.426 9.59919 177.746C9.5912 177.766 9.58018 177.786 9.57185 177.806C9.57501 177.81 9.57844 177.813 9.58161 177.817C9.58164 177.818 9.58244 177.834 9.59919 177.834C9.77678 178.03 9.95446 178.225 10.1675 178.42C10.3629 178.616 10.5589 178.793 10.772 178.953C10.8076 178.988 10.843 179.024 10.8785 179.041C11.0739 179.201 11.269 179.362 11.4644 179.486L11.482 179.503C12.1748 180 12.9393 180.408 13.7564 180.746C14.307 180.994 14.8752 181.189 15.4791 181.349C26.9011 184.58 38.5009 183.48 50.1539 184.101C56.5133 184.634 63.0331 185.344 69.357 185.592C77.5638 186.001 85.7886 186.55 93.8355 188.254C101.918 189.799 110.107 189.905 118.225 190.651C118.314 190.669 118.421 190.687 118.509 190.705H118.545C118.74 190.74 118.935 190.775 119.113 190.829C119.219 190.846 119.309 190.882 119.416 190.9C119.611 190.971 119.824 191.024 120.019 191.095C120.108 191.131 120.215 191.166 120.303 191.202C120.623 191.326 120.943 191.485 121.262 191.645C121.422 191.734 121.564 191.805 121.724 191.912C121.813 191.965 121.902 192.018 121.991 192.071C122.08 192.124 122.169 192.177 122.24 192.248C122.258 192.249 122.275 192.267 122.275 192.285C122.382 192.356 122.488 192.426 122.577 192.515C122.63 192.551 122.684 192.586 122.737 192.639C122.914 192.728 123.057 192.852 123.216 192.994C123.237 193.013 123.258 193.034 123.279 193.054C123.292 193.046 123.306 193.037 123.323 193.029C125.33 191.733 128.297 192.585 129.7 194.307C130.073 194.875 130.357 195.426 130.552 195.958C130.588 196.047 130.623 196.225 130.676 196.402C132.08 202.082 123.66 206.307 118.846 207.851C112.949 209.892 106.767 209.662 100.603 209.431C97.3701 209.307 94.1541 209.183 90.9566 209.396C79.1793 210.71 67.6326 213.443 56.0152 215.662C46.1565 217.579 35.2674 218.023 27.2916 224.662C27.0606 224.839 26.8647 225.017 26.6871 225.195C26.6164 225.248 26.5634 225.318 26.5103 225.372C25.2313 226.721 25.2841 227.999 26.2789 229.206C26.3676 229.313 26.4565 229.419 26.5631 229.526C26.9539 229.934 27.469 230.325 28.0552 230.715C29.0144 231.195 29.9736 231.585 30.9683 231.922C37.9671 234.319 45.9254 233.715 53.2261 233.538C74.1341 231.407 95.2557 228.514 116.253 231.354C119.024 231.886 122.221 231.621 124.885 232.597C125.4 232.792 125.898 233.005 126.36 233.307C126.368 233.312 126.376 233.317 126.384 233.322C126.483 233.308 126.581 233.306 126.679 233.306C126.715 233.306 126.75 233.289 126.786 233.306C127.034 233.288 127.301 233.271 127.549 233.271C128.668 233.271 129.805 233.378 130.907 233.644C131.546 233.804 132.204 233.999 132.843 234.265C134.033 234.638 135.099 235.295 135.917 236.147C136.041 236.271 136.147 236.395 136.253 236.519C136.467 236.714 136.663 236.999 136.84 237.283C137.533 238.436 137.817 239.785 137.533 241.134C137.479 241.383 137.409 241.614 137.337 241.863C137.284 241.969 137.248 242.075 137.195 242.2C136.875 242.963 136.431 243.62 135.88 244.17C134.228 245.874 131.724 246.815 129.628 247.844C122.948 250.826 115.523 251.519 108.56 253.738C101.863 256.258 95.4504 259.507 88.7535 262.045C82.0211 264.903 75.0221 267.176 68.0943 269.448C67.9522 269.501 67.8097 269.555 67.6675 269.608C67.65 269.608 67.6324 269.625 67.6148 269.625C67.2062 269.767 66.7794 269.909 66.3531 270.069C66.0689 270.175 65.7673 270.283 65.4654 270.389C65.3056 270.46 65.1631 270.495 65.0211 270.548C64.275 270.815 63.5287 271.082 62.8004 271.383C62.4452 271.525 62.1077 271.667 61.7525 271.827C60.1538 272.519 58.6262 273.353 57.3472 274.454C57.2229 274.56 57.0985 274.667 56.9742 274.774C56.8499 274.88 56.7254 275.004 56.6011 275.128C56.4768 275.253 56.37 275.377 56.2457 275.501C56.1392 275.608 56.0504 275.714 55.9439 275.838C55.7361 276.098 55.5278 276.357 55.3365 276.633C55.8833 277.161 56.4649 277.636 57.0816 278.04C57.206 278.129 57.3303 278.219 57.4547 278.29C57.5434 278.36 57.6501 278.414 57.7388 278.467C57.8986 278.574 58.0586 278.662 58.2183 278.75C58.4137 278.857 58.5913 278.964 58.7867 279.071C58.8221 279.088 58.8752 279.106 58.9107 279.141C59.1239 279.248 59.3372 279.355 59.5504 279.461C59.7279 279.55 59.9234 279.638 60.1187 279.709C60.2253 279.763 60.3325 279.798 60.439 279.833C60.5988 279.904 60.7762 279.976 60.9537 280.029C61.2379 280.135 61.5228 280.242 61.8248 280.348C62.0201 280.419 62.2154 280.472 62.4107 280.543C63.5831 280.916 64.8089 281.183 66.0523 281.396C66.1411 281.414 66.2477 281.431 66.3365 281.449C66.816 281.537 67.2954 281.609 67.775 281.663C68.3077 281.734 68.8408 281.786 69.3736 281.839C70.173 281.91 70.9727 281.964 71.772 281.999C73.1042 282.07 74.4187 282.088 75.7154 282.088C77.2786 282.088 78.7892 282.053 80.2281 282.017H80.2633C81.0626 281.964 81.8623 281.893 82.6617 281.822C83.4609 281.751 84.2423 281.644 85.0416 281.538C85.8408 281.431 86.6224 281.307 87.4039 281.165C90.1395 280.686 92.8581 280.083 95.5582 279.373C96.3219 279.177 97.0853 278.963 97.8668 278.75C99.0035 278.431 100.159 278.112 101.313 277.775C101.686 277.668 102.077 277.561 102.45 277.437C103.214 277.224 103.978 276.975 104.742 276.745C105.239 276.585 105.737 276.443 106.234 276.301C108.792 275.52 111.332 274.739 113.89 274.011C115.027 273.692 116.182 273.373 117.336 273.071C119.983 272.467 122.647 271.863 125.33 271.295C126.662 271.011 127.994 270.728 129.344 270.461C132.027 269.929 134.71 269.414 137.41 268.953C140.11 268.509 142.809 268.1 145.527 267.781C146.877 267.621 148.227 267.479 149.595 267.355C151.496 267.337 153.343 267.354 155.209 267.425C155.688 267.443 156.186 267.461 156.666 267.479C158.62 267.55 160.538 267.638 162.474 267.727C167.626 267.976 172.724 268.224 177.964 268.029C179.243 267.993 180.522 267.905 181.819 267.816C189.386 267.141 196.882 265.934 204.272 264.195C205.622 263.875 206.954 263.538 208.287 263.183C210.276 262.651 212.284 262.083 214.255 261.479C215.41 261.142 216.529 260.751 217.648 260.343C218.483 260.024 219.301 259.704 220.118 259.349C220.402 259.243 220.668 259.118 220.934 258.994C221.467 258.763 222.018 258.515 222.551 258.266C223.084 258.018 223.635 257.751 224.15 257.502C225.749 256.739 227.347 255.922 228.928 255.123C229.461 254.857 229.976 254.591 230.509 254.325C230.776 254.2 231.043 254.059 231.309 253.935C233.707 252.763 236.123 251.663 238.628 250.74C239.178 250.544 239.747 250.349 240.315 250.154C241.014 249.954 241.713 249.785 242.427 249.633C243.947 248.711 246.088 248.397 247.545 248.077C253.655 246.337 260.068 245.041 266.445 245.787C267.03 245.84 267.616 245.886 268.2 245.94C267.476 238.036 267.744 230.062 268.719 222.194C270.318 211.312 272.111 200.236 275.522 189.816C276.037 188.254 276.588 186.71 277.174 185.183C278.951 180.603 281.082 176.165 283.729 171.976C283.978 171.586 284.209 171.177 284.458 170.787V170.769C284.955 169.988 285.47 169.206 285.985 168.425C286.234 168.035 286.501 167.645 286.785 167.254C287.051 166.864 287.318 166.473 287.602 166.082C287.886 165.674 288.188 165.248 288.507 164.84C288.577 164.753 288.647 164.666 288.716 164.579C287.439 163.672 285.941 162.574 284.408 161.361C283.936 161.015 283.478 160.655 283.02 160.279C283.002 160.261 282.984 160.243 282.966 160.225C282.842 160.119 282.718 160.012 282.593 159.906C282.327 159.693 282.061 159.462 281.812 159.231C281.35 158.858 280.906 158.451 280.461 158.042C280.142 157.741 279.822 157.439 279.503 157.137C279.183 156.835 278.881 156.515 278.579 156.213C276.429 154.03 274.457 151.705 272.61 149.255C271.882 148.279 271.153 147.267 270.461 146.255C270.159 145.829 269.875 145.403 269.59 144.959C268.862 143.877 268.169 142.758 267.459 141.64C266.535 140.149 265.647 138.622 264.758 137.114C264.314 136.35 263.888 135.587 263.461 134.841C262.182 132.551 260.922 130.243 259.678 127.971C257.476 124.172 255.343 120.321 253.283 116.433C251.915 113.859 250.565 111.267 249.251 108.64C247.279 104.717 245.361 100.776 243.496 96.8002C241.257 92.4867 238.646 88.3325 235.289 84.729C234.951 84.303 234.542 83.895 234.116 83.4868C233.991 83.3626 233.85 83.2379 233.708 83.1137C233.477 82.883 233.227 82.6521 233.014 82.4213C232.943 82.3504 232.855 82.2618 232.801 82.1909C232.73 82.1199 232.659 82.0313 232.588 81.9604C232.5 81.854 232.41 81.7475 232.339 81.6411C232.215 81.4813 232.091 81.2854 231.984 81.1079C231.949 81.0549 231.931 81.0192 231.914 80.9663C231.914 80.9663 231.913 80.9653 231.913 80.9477C231.908 80.9384 231.904 80.9287 231.899 80.9194C230.661 79.9641 229.475 78.9559 228.325 77.9126C227.17 76.8653 226.033 75.7642 224.95 74.646C224.435 74.1134 223.936 73.5808 223.439 73.0483C222.871 72.4271 222.321 71.8053 221.77 71.184C221.521 70.8823 221.254 70.5813 221.005 70.2973C220.757 69.9955 220.49 69.6928 220.242 69.3911C219.638 68.6634 219.051 67.9361 218.465 67.2085C218.163 66.8357 217.862 66.4445 217.578 66.0717C217.471 65.9476 217.382 65.8238 217.294 65.6997C216.832 65.1139 216.387 64.5278 215.943 63.9243C215.215 62.948 214.486 61.9535 213.776 60.9594C212.39 59.0424 211.04 57.1071 209.708 55.1723C209.477 54.853 209.264 54.5337 209.033 54.2143C208.589 53.5753 208.145 52.9363 207.701 52.2973C206.653 50.9305 205.675 49.4924 204.752 48.019C204.396 47.4333 204.024 46.8293 203.669 46.2436C201.359 42.3385 199.299 38.2384 196.847 34.4575C195.906 33.0019 194.91 31.5818 193.809 30.2504C192.281 28.3688 190.576 26.647 188.587 25.1381Z" fill="black"/>
<path id="Skin" fill-rule="evenodd" clip-rule="evenodd" d="M177.201 24.3028C180.114 22.1549 184.058 21.9947 188.481 25.0479C189.476 25.8112 190.4 26.6107 191.271 27.4805C191.484 27.6934 191.697 27.9239 191.91 28.1368C192.336 28.5805 192.745 29.025 193.136 29.4688C193.331 29.6994 193.526 29.9296 193.722 30.1602C194.823 31.4915 195.818 32.9116 196.76 34.3672C197.364 35.3258 197.968 36.2845 198.536 37.2608C199.389 38.7164 200.223 40.2258 201.058 41.7168C201.893 43.2079 202.711 44.6986 203.581 46.1719C203.936 46.7754 204.309 47.3615 204.664 47.9473C205.588 49.4207 206.565 50.8588 207.613 52.2256C207.826 52.545 208.057 52.8643 208.271 53.1836C208.484 53.5032 208.714 53.8231 208.945 54.1426C209.158 54.4621 209.389 54.7821 209.62 55.1016C210.952 57.0364 212.303 58.9707 213.688 60.8877C214.399 61.8818 215.127 62.8763 215.855 63.8526C216.3 64.4561 216.743 65.0422 217.205 65.628C217.294 65.7521 217.401 65.8759 217.489 66C217.791 66.3728 218.076 66.764 218.378 67.1368C218.946 67.8644 219.55 68.5917 220.154 69.3194C220.403 69.6212 220.669 69.9239 220.918 70.2256C221.167 70.5272 221.433 70.8285 221.682 71.1124C222.215 71.7514 222.783 72.3731 223.352 72.9766C223.849 73.5091 224.364 74.0595 224.861 74.5743C225.945 75.6926 227.082 76.7936 228.236 77.8409C229.391 78.8882 230.599 79.8999 231.825 80.8584V80.876C231.861 80.9291 231.879 80.9645 231.914 81.0176C232.021 81.2129 232.145 81.3911 232.27 81.5508C232.341 81.6572 232.429 81.7638 232.518 81.8702C232.589 81.9412 232.66 82.0296 232.731 82.1006C232.802 82.1716 232.873 82.2602 232.944 82.3311C233.157 82.5618 233.406 82.7928 233.637 83.0235C233.761 83.1477 233.904 83.2723 234.046 83.3965C234.472 83.8046 234.88 84.2129 235.218 84.6387C238.557 88.2422 241.187 92.3787 243.425 96.71C245.29 100.686 247.191 104.627 249.181 108.55C250.495 111.159 251.845 113.751 253.213 116.343C255.273 120.23 257.405 124.082 259.607 127.881C260.851 130.153 262.113 132.443 263.392 134.751C263.818 135.514 264.244 136.278 264.688 137.023C265.559 138.55 266.464 140.059 267.388 141.55C268.08 142.668 268.791 143.769 269.52 144.869C269.804 145.295 270.089 145.739 270.391 146.165C271.083 147.177 271.812 148.189 272.54 149.165C274.37 151.615 276.341 153.958 278.508 156.123C278.81 156.425 279.13 156.745 279.432 157.047C279.751 157.349 280.072 157.65 280.392 157.952C280.747 158.272 281.084 158.591 281.439 158.893C281.795 159.212 282.167 159.514 282.522 159.815C282.647 159.922 282.771 160.028 282.896 160.135C282.913 160.153 282.931 160.171 282.949 160.189C283.571 160.703 284.21 161.2 284.832 161.68C285.791 162.443 286.733 163.135 287.621 163.774C288.012 164.094 288.332 164.307 288.634 164.52C288.563 164.608 288.491 164.697 288.42 164.786C288.1 165.194 287.816 165.603 287.515 166.028C287.23 166.419 286.964 166.81 286.697 167.2C286.431 167.573 286.165 167.982 285.898 168.372C285.383 169.153 284.885 169.934 284.37 170.715C284.37 170.715 284.37 170.715 284.37 170.732C284.121 171.123 283.873 171.531 283.642 171.922C282.647 173.502 281.741 175.099 280.871 176.732C280.303 177.833 279.769 178.934 279.236 180.034C278.455 181.703 277.744 183.407 277.087 185.129C276.501 186.655 275.951 188.2 275.436 189.762C275.009 191.057 274.618 192.371 274.228 193.685C273.659 195.655 273.144 197.661 272.664 199.685C270.923 207.069 269.733 214.65 268.632 222.123C267.992 227.324 267.655 232.578 267.708 237.832C267.708 238.595 267.743 239.377 267.761 240.141C267.832 242.058 267.939 243.992 268.116 245.909H268.099C267.53 245.856 266.962 245.821 266.411 245.768C266.145 245.732 265.878 245.697 265.594 245.679C259.661 245.146 253.728 246.3 248.025 247.898C247.848 247.951 247.67 247.986 247.511 248.039C246.072 248.359 243.958 248.679 242.448 249.566C241.684 249.726 240.92 249.903 240.174 250.116C239.605 250.312 239.055 250.489 238.504 250.702C235.999 251.625 233.584 252.726 231.186 253.898C230.919 254.022 230.652 254.164 230.386 254.288C229.853 254.537 229.32 254.803 228.805 255.087C227.224 255.886 225.625 256.685 224.026 257.466C223.494 257.714 222.961 257.98 222.428 258.229C221.895 258.477 221.344 258.725 220.812 258.956C220.545 259.08 220.278 259.205 219.994 259.312C219.177 259.667 218.342 259.986 217.525 260.306C216.424 260.714 215.286 261.104 214.132 261.441C212.16 262.045 210.171 262.613 208.164 263.146C206.832 263.501 205.499 263.838 204.149 264.157C196.777 265.897 189.263 267.122 181.695 267.778C180.399 267.867 179.12 267.939 177.841 267.992C172.601 268.188 167.502 267.921 162.333 267.673C160.415 267.584 158.496 267.477 156.542 267.424C156.062 267.406 155.565 267.388 155.085 267.37C153.238 267.317 151.372 267.282 149.472 267.3C148.104 267.424 146.754 267.566 145.404 267.726C142.686 268.045 139.986 268.454 137.286 268.898C134.586 269.341 131.904 269.856 129.222 270.406C127.889 270.673 126.557 270.956 125.207 271.24C122.542 271.808 119.877 272.412 117.213 273.016C116.058 273.317 114.903 273.637 113.767 273.956C111.209 274.684 108.651 275.447 106.11 276.246C105.613 276.388 105.115 276.548 104.618 276.689C103.854 276.92 103.091 277.151 102.327 277.382C101.954 277.506 101.563 277.613 101.19 277.72C100.054 278.057 98.8988 278.395 97.7441 278.696C96.9803 278.909 96.2162 279.122 95.4346 279.317C92.7346 280.01 90.0346 280.631 87.2812 281.11C86.4819 281.252 85.6996 281.376 84.918 281.482C84.1365 281.589 83.3373 281.696 82.5381 281.767C81.7387 281.855 80.9568 281.926 80.1396 281.962H80.1045C78.6835 281.997 77.1559 282.033 75.5928 282.033C74.6335 282.033 73.6559 282.015 72.6611 281.98C72.3237 281.962 71.9858 281.944 71.6484 281.944C70.8493 281.909 70.0501 281.855 69.251 281.784C68.7182 281.731 68.1851 281.678 67.6523 281.607C67.1727 281.554 66.6925 281.483 66.2129 281.395C66.1241 281.377 66.0175 281.359 65.9287 281.341C65.3071 281.234 64.685 281.11 64.0811 280.968C63.4772 280.826 62.8732 280.666 62.2871 280.488C62.0919 280.417 61.8964 280.365 61.7012 280.294C61.417 280.205 61.1152 280.098 60.8311 279.974C60.6534 279.903 60.4931 279.849 60.3154 279.778C60.209 279.743 60.1025 279.69 59.9961 279.654C59.8008 279.566 59.623 279.495 59.4277 279.406C59.2146 279.318 59.0013 279.21 58.7881 279.086C58.7526 279.068 58.7164 279.051 58.6631 279.016C58.4678 278.927 58.29 278.821 58.0947 278.696C57.9349 278.608 57.7751 278.519 57.6152 278.412C57.5264 278.359 57.4199 278.288 57.3311 278.234C57.2068 278.163 57.0823 278.074 56.958 277.985C56.3364 277.559 55.7498 277.08 55.1992 276.565C55.3946 276.281 55.6081 276.015 55.8213 275.749C55.91 275.643 56.0165 275.519 56.123 275.412C56.2296 275.288 56.3542 275.163 56.4785 275.039C56.6029 274.915 56.7272 274.808 56.8516 274.684C56.9759 274.577 57.1003 274.471 57.2246 274.364C57.5443 274.098 57.8821 273.832 58.2373 273.602C58.7523 273.247 59.3028 272.909 59.8711 272.607C60.4395 272.306 61.026 272.021 61.6299 271.755C61.985 271.595 62.3226 271.454 62.6777 271.312C63.406 271.028 64.1701 270.743 64.8984 270.477C65.0583 270.423 65.2007 270.388 65.3428 270.317C65.6446 270.229 65.9464 270.122 66.2305 269.998C66.6568 269.856 67.0836 269.714 67.4922 269.554C67.5099 269.554 67.5281 269.536 67.5459 269.536C67.6879 269.483 67.8297 269.429 67.9717 269.376C74.8995 267.104 81.8984 264.832 88.6309 261.974C95.3277 259.435 101.741 256.188 108.438 253.667C115.401 251.448 122.809 250.756 129.506 247.773C130.82 247.117 132.295 246.513 133.609 245.731C133.876 245.572 134.142 245.412 134.391 245.234C134.639 245.057 134.871 244.88 135.102 244.685C135.332 244.489 135.546 244.294 135.759 244.081C136.309 243.513 136.771 242.874 137.073 242.11C137.126 242.004 137.162 241.898 137.215 241.773C137.304 241.543 137.375 241.294 137.41 241.046C137.694 239.679 137.411 238.347 136.718 237.193C136.558 236.909 136.363 236.643 136.132 236.377C136.025 236.253 135.918 236.128 135.794 236.004C134.977 235.152 133.911 234.477 132.721 234.122C132.081 233.856 131.441 233.661 130.784 233.501C129.683 233.235 128.546 233.128 127.427 233.128C127.178 233.128 126.912 233.129 126.663 233.164H126.557C126.45 233.164 126.344 233.164 126.237 233.182C125.758 232.898 125.26 232.667 124.745 232.489C122.063 231.513 118.882 231.762 116.111 231.247C95.1147 228.407 73.9937 231.3 53.0859 233.43C45.7851 233.607 37.827 234.211 30.8281 231.814C29.8334 231.477 28.8555 231.087 27.9141 230.607C27.328 230.235 26.8126 229.826 26.4219 229.418C26.3331 229.312 26.2264 229.205 26.1377 229.099C25.1432 227.892 25.0903 226.614 26.3691 225.265C26.4224 225.211 26.4758 225.14 26.5469 225.087C26.7244 224.91 26.9197 224.732 27.1504 224.555C35.1263 217.916 46.0161 217.472 55.875 215.555C67.4924 213.336 79.0391 210.602 90.8164 209.288C93.996 209.075 97.229 209.2 100.462 209.324C106.626 209.555 112.808 209.786 118.705 207.744C123.341 206.271 131.282 202.312 130.66 196.969C130.642 196.756 130.589 196.525 130.536 196.295C130.483 196.117 130.447 195.939 130.376 195.762C130.181 195.229 129.896 194.662 129.523 194.094C128.12 192.372 125.172 191.52 123.146 192.815C123.111 192.833 123.075 192.851 123.058 192.887C122.916 192.763 122.773 192.638 122.631 192.514C122.578 192.478 122.542 192.425 122.471 192.39C122.382 192.301 122.276 192.229 122.169 192.158C122.151 192.158 122.134 192.141 122.134 192.123C122.045 192.052 121.956 191.999 121.885 191.945C121.796 191.874 121.707 191.822 121.618 191.786C121.458 191.68 121.316 191.591 121.156 191.52C120.837 191.36 120.517 191.217 120.197 191.075C120.108 191.022 120.002 190.987 119.913 190.969C119.718 190.898 119.523 190.827 119.31 190.773C119.221 190.738 119.113 190.721 119.007 190.703C118.812 190.65 118.634 190.614 118.438 190.578H118.403C118.315 190.543 118.208 190.543 118.119 190.525C110.001 189.78 101.812 189.673 93.7119 188.129C85.6827 186.425 77.44 185.874 69.251 185.466C62.9093 185.217 56.4073 184.508 50.0479 183.976C38.3949 183.354 26.7597 184.454 15.3555 181.224C14.7693 181.064 14.1832 180.851 13.6504 180.62C12.8333 180.265 12.0688 179.857 11.376 179.378C11.3735 179.378 11.3587 179.376 11.3584 179.36C11.163 179.218 10.9501 179.076 10.7725 178.916C10.7369 178.898 10.7015 178.863 10.666 178.827C10.4529 178.667 10.2569 178.472 10.0615 178.295C9.86615 178.1 9.68854 177.922 9.49316 177.709L9.47559 177.691C9.59993 177.372 9.68908 177.052 9.72461 176.715V176.68C9.76013 176.343 9.7419 176.005 9.6709 175.668C9.63538 175.508 9.58257 175.348 9.5293 175.206C9.44048 174.975 9.33352 174.744 9.19141 174.514C9.4401 173.573 9.90232 172.739 10.5596 171.993C10.7549 171.763 10.9674 171.549 11.1982 171.336C11.4114 171.123 11.6603 170.928 11.9268 170.732C12.0511 170.644 12.1931 170.537 12.3174 170.448C12.8502 170.076 13.4544 169.738 14.0938 169.419C14.4134 169.259 14.7514 169.1 15.0889 168.976C15.6039 168.763 16.1368 168.567 16.7051 168.372C17.2557 168.177 17.8424 168.017 18.4463 167.857C19.0503 167.698 19.6544 167.537 20.2939 167.413C20.7202 167.324 21.1468 167.236 21.5908 167.165C22.8875 166.917 24.2553 166.721 25.623 166.562C33.9187 165.585 43.1383 165.851 47.7568 165.479C60.5821 164.875 73.4073 164.556 86.2148 163.668C88.5241 163.508 90.8874 163.579 93.25 163.738C93.3031 163.738 93.3561 163.757 93.4092 163.757C94.848 163.846 96.2877 163.987 97.7266 164.129C105.081 164.821 112.471 165.497 119.31 161.946C119.594 161.822 119.878 161.698 120.197 161.556C120.499 161.414 120.837 161.254 121.156 161.076C121.334 160.987 121.494 160.898 121.672 160.81C122.365 160.437 123.093 159.993 123.785 159.514C124.016 159.354 124.23 159.176 124.461 159.017C124.781 158.768 125.101 158.502 125.385 158.2C125.864 157.721 126.29 157.224 126.628 156.691C126.983 156.212 127.214 155.698 127.356 155.165C127.41 154.988 127.445 154.809 127.463 154.632V154.614C127.534 154.135 127.534 153.656 127.463 153.194C127.463 153.159 127.463 153.123 127.445 153.106C127.569 152.999 127.676 152.893 127.782 152.786C127.8 152.768 127.818 152.751 127.818 152.751C127.925 152.645 128.014 152.537 128.103 152.413L128.12 152.396C128.209 152.271 128.316 152.147 128.404 152.005C128.404 151.987 128.422 151.987 128.422 151.97C128.511 151.846 128.582 151.704 128.653 151.562V151.544C128.724 151.402 128.778 151.259 128.849 151.1C128.849 151.064 128.866 151.046 128.884 151.011C128.937 150.851 128.973 150.692 129.026 150.532C129.026 150.532 129.026 150.531 129.026 150.514C129.08 150.336 129.115 150.159 129.133 149.981V149.964C129.168 149.769 129.185 149.591 129.203 149.378C129.256 148.668 129.168 147.993 128.973 147.372C128.777 146.786 128.493 146.236 128.138 145.703V145.686C128.049 145.544 127.943 145.402 127.818 145.26C127.587 144.976 127.338 144.692 127.09 144.443C126.965 144.319 126.823 144.177 126.681 144.053C126.539 143.929 126.397 143.804 126.255 143.68C126.131 143.591 126.024 143.484 125.899 143.396C125.846 143.36 125.811 143.325 125.758 143.289C125.634 143.2 125.509 143.094 125.385 143.005C125.012 142.739 124.639 142.473 124.266 142.225C123.928 142.012 123.591 141.798 123.235 141.603C122.543 141.212 121.849 140.839 121.139 140.502C120.428 140.165 119.7 139.846 118.954 139.544C114.904 137.929 110.569 136.952 106.359 135.869C96.6781 133.508 86.8722 131.716 76.96 130.526C63.584 128.574 49.4444 127.686 37.1875 121.739C36.0684 121.047 33.8477 119.768 32.4443 118.384C31.3964 117.354 30.8281 116.272 31.4854 115.331C31.5386 115.26 31.5919 115.172 31.6807 115.101C31.9293 114.834 32.284 114.568 32.7812 114.337C43.0842 107.84 55.9284 109.97 67.5459 110.946C95.1152 112.846 122.294 119.023 149.987 119.325C151.799 119.361 155.832 119.396 160.788 119.236H160.93C161.676 119.201 162.422 119.183 163.222 119.148C163.772 119.13 164.323 119.094 164.909 119.076C166.152 119.005 167.431 118.934 168.728 118.863H168.799C169.243 118.828 169.669 118.792 170.113 118.774C170.771 118.721 171.446 118.669 172.104 118.615C172.547 118.58 172.992 118.544 173.436 118.491C173.88 118.438 174.324 118.402 174.768 118.349C175.105 118.313 175.425 118.278 175.763 118.242C176.42 118.171 177.077 118.083 177.734 117.994C180.985 117.55 184.111 116.982 186.829 116.236C187.646 116.023 188.428 115.775 189.174 115.509C189.334 115.456 189.494 115.402 189.653 115.331C190.115 115.154 190.56 114.976 190.986 114.799C191.004 114.799 191.021 114.781 191.039 114.781C191.057 114.781 191.075 114.78 191.093 114.763C191.27 114.727 191.448 114.674 191.626 114.621C192.212 114.426 192.781 114.16 193.331 113.822C193.704 113.609 194.059 113.343 194.414 113.059C194.698 112.846 194.983 112.597 195.231 112.331C195.533 112.047 195.835 111.728 196.102 111.408C196.404 111.071 196.67 110.716 196.919 110.343C196.937 110.343 196.937 110.343 196.937 110.325C197.061 110.148 197.168 109.97 197.274 109.793C197.345 109.704 197.399 109.598 197.435 109.509C197.488 109.42 197.54 109.313 197.594 109.225C197.682 109.047 197.789 108.852 197.86 108.675C197.931 108.515 198.003 108.337 198.074 108.159C198.11 108.053 198.145 107.946 198.181 107.857C200.152 103.012 198.766 98.6096 196.279 94.4737C195.906 93.8346 195.48 93.2131 195.054 92.5918C194.912 92.3789 194.77 92.1829 194.628 91.9522C194.344 91.544 194.041 91.1358 193.739 90.7276C193.437 90.3194 193.135 89.911 192.815 89.5206C192.514 89.1124 192.211 88.7217 191.892 88.3135C191.27 87.5148 190.649 86.7333 190.062 85.9346C189.334 84.9584 188.624 83.982 188.002 83.0235C187.611 82.4555 187.22 81.87 186.847 81.2842C186.083 80.1129 185.355 78.9235 184.627 77.7344C184.272 77.1309 183.916 76.5264 183.561 75.9229C182.513 74.1124 181.518 72.266 180.523 70.42C180.204 69.7988 179.866 69.1779 179.546 68.5567C178.302 65.9296 177.112 63.1782 176.064 60.3204C175.78 59.5572 175.513 58.776 175.265 58.0127C174.341 55.2613 173.577 52.4381 172.991 49.5801C172.956 49.4204 172.92 49.2427 172.902 49.0831C171.996 44.4502 171.641 39.7641 172.05 35.2022C172.121 34.4389 172.21 33.6754 172.334 32.9122C172.547 31.794 172.867 30.7468 173.258 29.7706C173.453 29.2735 173.649 28.811 173.897 28.3672C174.128 27.9236 174.377 27.498 174.626 27.0899C174.892 26.6816 175.177 26.3082 175.479 25.9532C175.692 25.7048 175.905 25.4561 176.136 25.2432C176.242 25.1192 176.349 25.0127 176.473 24.9063C176.704 24.6933 176.953 24.498 177.201 24.3028ZM248.113 247.949L248.148 247.968L248.185 248.003L248.256 248.074L248.309 248.109L248.345 248.145L248.397 248.181L248.451 248.216L248.504 248.251H248.54C248.131 248.358 247.722 248.482 247.296 248.606C247.189 248.642 247.083 248.678 246.977 248.695C246.639 248.802 246.301 248.908 245.964 249.032H245.946C244.81 249.157 243.673 249.352 242.571 249.564C242.536 249.564 242.518 249.583 242.5 249.583C244.01 248.678 246.124 248.375 247.562 248.056C247.74 248.002 247.918 247.967 248.078 247.914L248.113 247.949ZM265.61 245.768C265.877 245.785 266.144 245.821 266.428 245.856C266.996 245.821 267.564 245.875 268.15 245.928C268.168 246.194 268.204 246.478 268.222 246.744C267.866 246.726 267.529 246.709 267.174 246.727H265.504L265.558 246.673L265.575 246.638L265.646 246.566L265.682 246.496L265.699 246.46L265.734 246.39L265.753 246.354V246.318L265.771 246.282V246.034L265.753 245.998L265.734 245.945L265.699 245.892L265.664 245.839L265.628 245.785L265.61 245.768Z" fill="#B7B5B5"/>
</g>
</svg>
