<svg width="1082" height="1101" viewBox="0 0 1082 1101" fill="none" xmlns="http://www.w3.org/2000/svg">
<g id="Right Arm / Paper">
<path id="Paper" d="M1074.13 11.0574L1074.23 10.9865C1072.09 17.1389 1070.23 23.3977 1068.12 29.5679C1061.92 48.0606 1057.22 66.9966 1051.99 85.7907C1045.05 110.365 1037.28 134.709 1029.61 159.052C1024.72 173.946 1019.42 188.715 1014.03 203.449C1003.26 233.147 994.238 263.413 983.836 293.235C977.722 310.877 969.41 329.618 972.866 348.625C972.884 348.856 972.901 349.068 972.937 349.299C970.722 349.707 968.435 350.823 966.344 351.32C957.909 353.944 949.367 356.355 940.541 357.189C879.543 362.774 818.066 361.497 757.138 367.951C735.464 370.735 713.153 372.224 691.957 377.951C691.231 360.664 695.626 343.625 697.486 326.604C697.345 325.522 696.707 324.671 695.874 324.263C701.013 320.38 705.337 315.363 708.368 309.671C715.829 297.65 721.429 284.601 728.535 272.385C731.424 267.633 734.047 262.438 738.477 258.927C743.014 255.771 748.065 253.59 753.292 251.995C751.113 257.314 752.336 265.222 754.338 269.796C756.394 274.158 760.682 277.385 765.343 278.484C767.31 278.856 769.348 278.714 771.298 278.2C778.617 279.299 788.665 267.367 793.503 263.165C802.417 254.654 810.25 243.981 810.481 231.179C810.8 228.963 810.747 226.818 810.357 224.779C811.739 222.633 812.395 219.548 812.944 217.296C812.997 217.101 813.05 216.889 813.104 216.694C815.549 214.211 817.144 209.584 818.42 206.977C821.273 200.896 819.572 193.999 816.63 188.29C815.549 185.559 813.883 183.024 811.048 181.924C810.888 181.854 810.729 181.765 810.552 181.712C811.562 180.116 811.969 177.953 811.686 176.198C811.261 170.471 811.65 164.301 808.585 159.194C803.303 151.216 792.635 150.311 784.253 147.404C768.055 141.553 751.609 140.666 735.305 143.609C737.804 142.404 740.267 141.145 742.677 139.85C750.404 135.648 753.062 132.244 761.072 138.521C765.627 141.092 770.802 142.333 775.817 143.645C783.278 145.276 792.901 147.28 800.716 144.443C805.076 142.439 806.033 136.978 805.749 132.652C805.022 127.687 801.248 123.982 797.863 120.595C787.177 109.478 771.83 105.152 758.45 98.1842C758.361 98.131 758.255 98.0955 758.166 98.0423C760.222 97.3509 762.189 95.7906 763.358 93.9821C766.212 89.4077 766.619 83.7695 768.179 78.6809C772.131 63.3619 775.427 47.8656 779.538 32.582C781.984 24.763 783.756 16.1461 788.718 9.47949C792.28 12.2809 797.136 13.1851 801.638 13.7347C825.208 17.068 849.114 16.0751 872.826 17.6176C879.011 17.99 885.196 18.1319 891.399 18.1319C902.315 18.1319 913.267 17.7063 924.184 17.4049C958.316 17.1567 992.378 15.1354 1026.49 14.373C1034.7 14.4616 1042.88 14.0007 1051.09 13.5397C1058.02 13.1674 1064.95 12.7773 1071.88 12.7241L1072.16 12.5291L1072.57 12.2454L1072.8 12.0858L1072.96 11.9617L1073.35 11.678L1073.72 11.3943L1074.13 11.0574Z" fill="white"/>
<path id="Skin" d="M807.344 190.612C809.418 194.655 811.775 199.389 809.63 203.857C809.595 204.016 809.542 204.158 809.488 204.3C809.453 204.424 809.418 204.53 809.364 204.654C809.329 204.743 809.294 204.814 809.276 204.903C809.258 204.974 809.223 205.027 809.205 205.08C809.116 205.31 809.01 205.541 808.886 205.771C808.85 205.86 808.797 205.949 808.762 206.02C808.337 206.871 807.823 207.74 807.326 208.608C807.255 208.697 807.202 208.803 807.149 208.91C806.848 209.442 806.547 209.991 806.281 210.523C806.263 210.541 806.245 210.576 806.228 210.594C806.104 210.772 805.98 210.949 805.856 211.108C805.785 211.197 805.731 211.286 805.661 211.374C805.536 211.552 805.412 211.729 805.288 211.924C805.288 211.924 805.288 211.942 805.271 211.959C805.147 212.137 805.04 212.314 804.934 212.491C804.739 212.811 804.544 213.147 804.349 213.484C804.012 213.13 803.658 212.775 803.304 212.438C803.144 212.279 802.985 212.137 802.825 211.995C802.79 211.959 802.754 211.924 802.701 211.888C802.542 211.747 802.382 211.605 802.24 211.481C801.585 210.913 800.911 210.364 800.22 209.849C800.007 209.69 799.777 209.53 799.564 209.371C798.554 208.662 797.526 208.006 796.463 207.403C796.25 207.279 796.038 207.155 795.807 207.048C795.524 206.889 795.258 206.764 794.992 206.623C775.728 196.995 744.68 212.084 724.034 215.47C722.226 215.984 721.181 218.36 722.527 219.832C723.75 221.268 725.735 220.825 727.366 220.559C730.414 220.169 733.462 219.672 736.475 219.105C752.832 216.445 769.419 209.619 786.113 212.952C791.146 214.495 795.382 218.236 798.891 222.066C800.946 224.991 801.23 228.555 800.929 232.136C800.876 232.686 800.823 233.218 800.752 233.768C800.716 234.016 800.681 234.264 800.663 234.495C800.628 234.778 800.574 235.062 800.539 235.346C800.504 235.594 800.45 235.842 800.415 236.073C800.344 236.427 800.291 236.8 800.22 237.154C800.114 237.686 800.025 238.236 799.919 238.75C799.954 238.626 799.99 238.502 800.025 238.36C798.696 244.707 794.389 250.115 789.817 254.565C785.794 258.395 781.612 263.058 776.809 266.728C776.437 267.012 776.047 267.26 775.675 267.544C775.48 267.668 775.285 267.81 775.09 267.934C774.7 268.2 774.293 268.466 773.921 268.75C773.726 268.874 773.531 269.016 773.354 269.157C772.964 269.441 772.592 269.725 772.237 270.026C771.954 270.097 771.652 270.15 771.351 270.168C765.361 271.498 762.862 264.317 763.66 259.494C764.05 257.331 764.617 255.062 764.51 252.845C764.51 252.668 764.493 252.491 764.475 252.331C764.457 252.172 764.44 252.012 764.422 251.87C764.422 251.835 764.422 251.817 764.404 251.799C764.386 251.64 764.351 251.463 764.316 251.303C764.28 251.126 764.245 250.966 764.192 250.789C764.156 250.647 764.121 250.505 764.067 250.381C764.05 250.328 764.032 250.275 763.996 250.221C763.943 250.08 763.908 249.938 763.837 249.814C763.766 249.654 763.695 249.477 763.607 249.317C763.802 249.282 763.997 249.229 764.209 249.175C764.759 249.034 765.343 248.892 765.928 248.75C766.212 248.679 766.495 248.608 766.779 248.537C767.009 248.484 767.257 248.413 767.488 248.36C769.295 247.881 771.156 247.331 772.875 246.711C773.035 246.64 773.212 246.587 773.371 246.533C773.407 246.516 773.442 246.498 773.478 246.498C773.673 246.427 773.868 246.339 774.063 246.268C774.258 246.197 774.435 246.108 774.63 246.037C774.789 245.966 774.931 245.913 775.09 245.842C775.356 245.718 775.622 245.594 775.888 245.47C775.994 245.417 776.101 245.363 776.207 245.31C776.349 245.239 776.473 245.168 776.615 245.097C776.969 244.885 777.288 244.69 777.589 244.477C777.678 244.406 777.784 244.353 777.855 244.282C777.89 244.246 777.944 244.211 777.979 244.193C778.068 244.122 778.156 244.034 778.245 243.963C778.582 243.679 778.847 243.36 779.042 243.041C779.096 242.952 779.149 242.846 779.202 242.739C779.202 242.722 779.22 242.704 779.22 242.704C779.255 242.615 779.29 242.527 779.326 242.42C779.361 242.314 779.397 242.207 779.397 242.101C779.609 240.452 778.759 238.839 777.111 238.307C772.787 237.597 768.374 238.91 764.067 239.388C753.293 240.629 742.713 243.502 733.462 249.299C714.039 263.36 708.049 288.501 694.811 307.455C690.876 312.827 684.851 315.735 679.836 319.884C679.481 320.203 679.144 320.504 678.825 320.824C678.79 320.859 678.755 320.895 678.719 320.93C678.436 321.196 678.152 321.48 677.868 321.746C677.461 322.153 677.053 322.561 676.646 322.987C676.362 323.288 676.079 323.589 675.813 323.873C675.529 324.175 675.263 324.476 674.998 324.777C674.643 325.185 674.306 325.575 673.97 325.983C673.686 326.338 673.403 326.692 673.119 327.047C672.818 327.419 672.534 327.809 672.233 328.199C669.646 326.958 667.094 325.611 664.577 324.175C663.921 323.802 663.266 323.412 662.61 323.04C660.856 321.994 659.119 320.912 657.4 319.795C656.638 319.281 655.858 318.785 655.096 318.271C652.455 316.48 649.868 314.6 647.334 312.632C646.979 312.348 646.607 312.065 646.253 311.781C646.146 311.693 646.04 311.622 645.934 311.533C645.189 310.948 644.463 310.363 643.718 309.76C640.812 307.366 637.977 304.884 635.248 302.348C632.465 299.884 629.683 297.42 626.971 294.884C626.635 294.583 626.298 294.263 625.961 293.944C624.331 292.42 622.736 290.859 621.194 289.246C620.928 288.962 620.662 288.679 620.397 288.395C619.865 287.845 619.351 287.278 618.837 286.71C618.518 286.356 618.217 286.019 617.916 285.664C617.827 285.576 617.738 285.469 617.667 285.363C617.384 285.044 617.1 284.707 616.835 284.388C616.728 284.264 616.622 284.14 616.516 284.015C616.267 283.696 616.002 283.395 615.754 283.076C615.683 283.005 615.629 282.916 615.559 282.845C615.576 282.828 615.594 282.792 615.612 282.774C615.807 282.508 615.984 282.242 616.161 281.959C616.551 281.356 616.923 280.718 617.26 280.079C617.437 279.76 617.597 279.441 617.756 279.104C617.774 279.086 617.791 279.069 617.791 279.033C617.951 278.732 618.093 278.413 618.234 278.111C619.014 276.427 619.67 274.672 620.326 272.916C620.45 272.579 620.574 272.242 620.698 271.906C621.336 270.168 621.956 268.431 622.665 266.782C628.017 251.746 632.89 236.516 638.65 221.64C647.635 197.545 656.159 172.917 669.344 150.737C677.284 141.694 685.223 132.616 693.428 123.804C702.839 114.053 713.596 104.177 725.239 96.925C726.568 95.8435 728.535 95.5421 730.201 96.1981C745.265 100.081 758.84 107.882 772.822 114.46C779.255 117.528 785.741 120.613 790.898 125.79C793.681 128.911 798.979 132.226 797.065 137.013C786.627 138.006 775.658 134.992 765.981 130.932C755.083 122.829 746.611 126.357 736.262 133.166C735.925 133.396 735.588 133.645 735.252 133.893C735.039 134.052 734.809 134.212 734.578 134.372C734.366 134.531 734.171 134.673 733.976 134.832C733.338 135.311 732.7 135.825 732.08 136.34C731.831 136.535 731.583 136.747 731.353 136.96C731.3 137.013 731.247 137.049 731.193 137.102C730.91 137.35 730.626 137.598 730.361 137.847C730.059 138.113 729.758 138.379 729.457 138.662C729.173 138.911 728.907 139.176 728.642 139.46C728.447 139.637 728.252 139.833 728.057 140.028C727.809 140.258 727.578 140.506 727.348 140.737C725.452 142.669 723.662 144.726 721.996 146.871C720.578 147.315 719.143 147.776 717.725 148.272C712.32 150.187 706.277 151.676 702.378 156.198C701.935 156.783 701.031 157.598 701.368 158.378C701.988 157.793 703.069 158.042 704.044 157.971C711.505 157.758 719.019 153.928 726.479 152.652C737.113 150.311 747.692 149.088 758.786 150.293C767.009 151.286 774.807 154.194 782.746 156.375C787.425 157.74 792.05 159.283 796.569 161.056C799.546 161.924 801.39 164.513 801.177 167.616C801.248 168.095 801.301 168.609 801.319 169.141C801.425 171.375 801.23 173.963 801.39 176.357C801.39 176.499 801.407 176.641 801.425 176.8C801.425 176.853 801.425 176.889 801.443 176.942C801.46 177.137 801.478 177.314 801.514 177.509C801.549 177.722 801.567 177.935 801.602 178.148C801.62 178.307 801.655 178.449 801.691 178.591C798.483 177.687 795.24 176.889 792.05 175.896C783.916 173.467 776.455 170.559 767.505 171.18C745.211 173.555 724.477 182.545 702.821 187.775C701.633 188.219 700.836 189.353 700.925 190.63C701.722 195.062 707.251 192.651 710.264 192.35C716.697 191.073 723.059 189.371 729.404 187.633C742.961 184.158 757.369 179.336 771.599 179.602C778.777 180.559 785.44 183.52 792.316 185.648C797.243 187.367 802.524 188.396 807.344 190.612Z" fill="#B7B5B5"/>
<path id="Clothing" d="M678.417 343.465C678.275 343.66 678.133 343.873 677.992 344.068C677.708 344.44 677.442 344.83 677.159 345.167C676.999 345.362 676.858 345.54 676.698 345.717C672.711 351.196 668.386 356.533 665.285 362.561C661.05 371.958 659.047 382.135 655.857 391.904C650.186 409.599 644.019 427.188 636.257 444.085C631.011 455.574 624.986 466.673 618.907 477.737C604.163 505.52 587.221 532.825 563.385 553.942C549.686 565.998 534.994 576.849 519.718 586.796C500.348 600.147 479.72 613.463 455.76 615.892C444.046 616.831 432.349 615.271 421.078 612.08C408.921 609.101 396.906 605.112 385.883 599.101C370.624 589.863 356.784 577.541 344.343 564.633C320.861 542.79 302.094 516.637 287.031 488.393C274.359 465.822 262.131 443.305 251.835 419.245C241.875 395.061 234.202 369.653 228.566 343.909C218.571 297.774 215.505 248.626 229.311 202.953C234.202 187.935 241.22 173.751 248.592 159.797C249.673 157.793 250.736 155.772 251.782 153.751C252.101 153.166 252.402 152.581 252.703 151.996C254.812 148.006 256.939 144.017 259.296 140.152C259.526 139.779 259.757 139.407 259.987 139.052C260.093 138.875 260.2 138.716 260.306 138.538C260.501 138.219 260.696 137.918 260.909 137.616C261.104 137.297 261.316 136.996 261.511 136.694C262.557 135.116 263.655 133.556 264.807 132.049C265.126 131.641 265.445 131.233 265.782 130.808C266.101 130.4 266.438 129.992 266.775 129.602C267.306 128.982 267.856 128.379 268.405 127.794C268.954 127.191 269.504 126.606 270.089 126.038C270.656 125.471 271.223 124.904 271.79 124.336C271.79 124.336 271.807 124.336 271.807 124.318C272.375 123.751 272.959 123.201 273.544 122.67H273.562C274.147 122.12 274.749 121.588 275.352 121.056L275.37 121.038C275.919 120.542 276.486 120.063 277.053 119.585C278.329 118.503 279.641 117.439 280.952 116.411L280.97 116.393C279.676 115.95 278.382 115.507 277.071 115.081H277.089C278.666 115.613 280.225 116.127 281.785 116.659L281.98 116.712L282.21 116.783L282.441 116.854L282.653 116.925L282.866 116.996L283.079 117.067L283.291 117.138L283.522 117.209L283.752 117.297L283.982 117.368L284.23 117.457L284.479 117.545L284.727 117.634L284.993 117.723L285.258 117.811L285.524 117.9L285.772 117.989L286.02 118.077L286.269 118.166L286.499 118.255L286.729 118.343L286.942 118.432H286.977C287.793 118.716 288.608 119.017 289.423 119.319C290.238 119.62 291.036 119.921 291.851 120.223C291.993 120.294 292.117 120.382 292.258 120.453C292.4 120.542 292.56 120.631 292.701 120.702L292.79 120.737L292.95 120.808L293.021 120.843L293.269 120.95L293.517 121.056L293.765 121.163L294.013 121.287L294.261 121.393L294.491 121.499L294.722 121.606L294.934 121.712L295.147 121.819L295.36 121.925L295.555 122.014L295.75 122.102L295.927 122.191L296.122 122.28L296.299 122.368L296.476 122.457L296.653 122.563L296.848 122.652L297.043 122.758L297.238 122.865L297.433 122.971L297.628 123.077L297.841 123.184L298.036 123.308L298.231 123.414L298.426 123.521L298.621 123.627L298.816 123.733L298.993 123.84L299.17 123.946L299.347 124.035L299.507 124.123L299.666 124.212L299.826 124.301L299.985 124.389L300.145 124.478L300.304 124.567L300.464 124.655L300.623 124.744L300.783 124.833L300.942 124.921L301.119 125.028L301.297 125.116L301.474 125.223L301.651 125.329L301.846 125.436L302.023 125.542L302.2 125.648L302.378 125.755L302.537 125.843L302.697 125.95L302.856 126.038L303.016 126.127L303.157 126.216L303.299 126.304L303.441 126.393L303.583 126.482L303.742 126.57L303.902 126.677L304.061 126.783L304.238 126.907L304.433 127.031L304.628 127.173L304.841 127.315L305.071 127.475L305.302 127.634L305.55 127.794L305.798 127.971L306.046 128.148L306.294 128.326L306.542 128.503L306.79 128.68L307.038 128.857L307.269 129.053L307.499 129.23L307.73 129.407L307.96 129.584L308.19 129.779L308.421 129.957L308.651 130.152L308.881 130.347L309.112 130.542L309.342 130.737L309.59 130.932L309.821 131.127L310.051 131.322L310.282 131.499L310.512 131.677L310.725 131.854L310.937 132.031L311.15 132.208L311.363 132.386L311.558 132.545L311.752 132.723L311.947 132.9L312.142 133.077L312.337 133.255L312.55 133.45L312.763 133.645L312.993 133.84L313.223 134.052L313.471 134.265L313.72 134.496L313.985 134.709L314.251 134.939L314.517 135.169L314.783 135.4L315.049 135.63L315.297 135.861L315.545 136.074L315.793 136.286L316.041 136.499L316.272 136.712L316.484 136.925L316.697 137.138L316.91 137.35L317.122 137.563L317.335 137.794L317.565 138.006L317.796 138.255L318.044 138.503L318.292 138.751L318.54 138.999L318.806 139.247L319.072 139.513L319.337 139.779L319.603 140.045L319.869 140.311L320.135 140.595L320.401 140.861L320.667 141.145L320.932 141.411L321.198 141.677L321.464 141.96L321.73 142.244L322.013 142.528L322.297 142.829L322.598 143.148L322.917 143.45L323.236 143.769L323.555 144.088L323.874 144.407L324.211 144.726L324.548 145.045L324.884 145.364L325.203 145.683L325.522 146.003L325.983 146.623L326.284 146.942L326.568 147.244L326.851 147.528L327.117 147.811L327.365 148.077L327.596 148.325L327.826 148.556L328.039 148.786L328.252 149.017L328.393 149.159C328.978 149.691 329.545 150.223 330.13 150.754C330.13 150.772 330.148 150.772 330.148 150.79C330.839 151.694 331.565 152.563 332.31 153.414L332.505 153.627L332.7 153.84C333.231 154.46 333.781 155.081 334.295 155.701C334.631 156.127 334.968 156.57 335.305 157.013L335.429 157.155L335.712 157.474L335.996 157.793L336.279 158.112L336.563 158.432L336.829 158.733L337.095 159.034L337.343 159.318L337.573 159.584L337.786 159.832L337.981 160.063L338.176 160.293L338.371 160.506L338.548 160.719L338.725 160.932L338.92 161.144L339.115 161.375L339.31 161.605L339.523 161.854L339.753 162.12L340.001 162.403L340.249 162.687L340.515 162.988L340.781 163.29L341.047 163.573L341.313 163.857L341.578 164.141L341.826 164.407L342.075 164.673L342.305 164.921L342.518 165.151L342.73 165.382L342.925 165.595L343.12 165.807L343.315 166.02L343.51 166.233L343.705 166.463L343.918 166.712L344.13 166.96L344.361 167.244L344.609 167.527L344.857 167.829L345.123 168.13L345.371 168.449L345.619 168.751L345.867 169.052L346.097 169.336L346.31 169.619L346.523 169.885L346.718 170.134L346.913 170.382L347.09 170.612L347.249 170.843L347.409 171.056L347.568 171.268L347.71 171.481L347.852 171.694L347.994 171.907L348.135 172.119L348.277 172.332L348.419 172.545L348.578 172.758L348.738 172.97L348.897 173.183L349.057 173.396L349.216 173.609L349.376 173.822L349.535 174.034L349.695 174.247L349.854 174.442L349.996 174.637L350.138 174.815L350.28 174.992L350.404 175.151L350.528 175.311L350.652 175.471L350.776 175.63L350.918 175.79L351.042 175.949L351.183 176.127L351.325 176.322L351.485 176.517L351.644 176.712L351.804 176.907L351.981 177.119L352.158 177.314L352.318 177.509L352.495 177.705L352.654 177.9L352.814 178.095L352.973 178.29L353.115 178.467L353.257 178.644L353.399 178.804L353.523 178.963L353.647 179.123L353.771 179.3L353.895 179.478L354.037 179.673L354.178 179.868L354.338 180.08L354.498 180.311L354.657 180.541L354.834 180.79L355.011 181.038L355.206 181.304L355.401 181.57L355.596 181.836L355.791 182.102L355.986 182.368L356.181 182.616L356.376 182.864L356.553 183.112L356.713 183.343L356.872 183.573L357.032 183.786L357.173 183.999L357.315 184.212L357.457 184.424L357.599 184.637L357.741 184.85L357.882 185.063L358.024 185.275L358.184 185.506L358.343 185.736L358.503 185.967L358.662 186.197L358.822 186.428L358.981 186.658L359.141 186.889L359.3 187.119L359.46 187.332L359.619 187.545L359.761 187.758L359.903 187.953L360.044 188.148L360.186 188.343L360.31 188.538L360.434 188.715L360.558 188.892L360.682 189.087L360.807 189.282L360.93 189.477L361.072 189.673L361.214 189.885L361.374 190.098L361.533 190.311L361.693 190.541L361.852 190.772L362.012 191.002L362.171 191.25L362.331 191.481L362.49 191.711L362.632 191.942L362.774 192.155L362.898 192.367L363.022 192.58L363.146 192.793L363.27 192.988L363.394 193.183L363.518 193.378L363.642 193.591L363.766 193.804L363.89 194.016L364.032 194.247L364.174 194.477L364.333 194.726L364.493 194.974L364.652 195.24L364.812 195.506L364.971 195.754L365.131 196.002L365.29 196.25L365.45 196.499L365.591 196.729L365.733 196.942L365.875 197.155L365.999 197.367L366.123 197.562L366.247 197.758L366.371 197.953L366.495 198.148L366.619 198.343L366.743 198.538L366.867 198.733L366.991 198.928L367.115 199.123L367.24 199.318L367.363 199.531L367.488 199.743L367.629 199.956L367.753 200.169L367.895 200.382L368.037 200.594L368.161 200.807C368.356 201.073 368.533 201.339 368.728 201.605C368.746 201.623 368.764 201.64 368.764 201.676C368.781 201.711 368.799 201.747 368.834 201.765C368.852 201.8 368.87 201.818 368.888 201.853C368.888 201.853 368.888 201.853 368.888 201.871C368.888 201.889 368.905 201.889 368.905 201.906C368.923 201.942 368.941 201.96 368.941 201.977C368.941 201.977 368.959 201.995 368.959 202.013C368.994 202.048 368.994 202.084 369.029 202.101C369.969 203.502 370.926 204.885 371.847 206.303C372.627 207.864 373.371 209.442 374.098 211.038C374.435 211.782 374.753 212.527 375.108 213.272L375.179 213.413L375.285 213.608L375.392 213.803L375.516 214.016L375.64 214.229L375.764 214.442L375.888 214.654L376.012 214.885L376.1 215.027L376.154 215.115L376.278 215.346L376.419 215.576L376.561 215.807L376.703 216.055L376.845 216.286L376.987 216.534L377.128 216.764L377.27 216.995L377.412 217.243L377.554 217.474L377.695 217.704L377.837 217.952L377.997 218.201L378.156 218.449L378.316 218.697L378.475 218.963L378.635 219.247L378.812 219.53L378.989 219.814L379.166 220.098L379.343 220.399L379.521 220.701L379.698 221.002L379.875 221.321L380.052 221.64L380.247 221.959L380.442 222.296L380.637 222.651L380.832 223.006L381.027 223.36L381.222 223.715L381.417 224.069L381.612 224.424L381.807 224.779L382.002 225.133L382.197 225.47L382.392 225.789L382.587 226.108L382.782 226.427L382.976 226.747L383.171 227.066L383.366 227.385L383.561 227.704L383.756 228.023L383.951 228.342L388.665 227.775L405.43 257.668L405.908 258.519L405.997 258.679L430.329 311.054H430.294L445.269 343.323L447.856 367.188L450.816 386.373L451.188 387.046C451.099 387.117 451.028 387.188 450.957 387.259C450.869 387.348 450.798 387.419 450.709 387.507C450.638 387.578 450.585 387.631 450.514 387.685C449.894 388.287 449.256 388.89 448.618 389.475C448.53 389.564 448.441 389.635 448.352 389.724C445.818 392.117 443.248 394.511 440.714 396.975C440.324 397.348 439.952 397.72 439.562 398.092C439.314 398.341 439.048 398.589 438.8 398.837C438.446 399.192 438.109 399.528 437.755 399.883C437.577 400.06 437.4 400.238 437.241 400.397C436.727 400.911 436.213 401.443 435.699 401.975C435.593 402.082 435.486 402.188 435.38 402.312C435.061 402.667 434.724 403.004 434.405 403.358C434.033 403.766 433.661 404.156 433.289 404.564C433.005 404.883 432.704 405.22 432.42 405.539C431.304 406.798 430.223 408.092 429.177 409.404C428.841 409.812 428.522 410.238 428.203 410.663C427.901 411.071 427.6 411.461 427.316 411.869C427.281 411.904 427.246 411.958 427.228 411.993C426.927 412.401 426.643 412.826 426.342 413.252C426.041 413.695 425.739 414.121 425.456 414.564C425.137 415.06 424.818 415.557 424.499 416.071C424.322 416.355 424.144 416.638 423.985 416.922C423.878 417.099 423.772 417.294 423.666 417.472C423.63 417.543 423.595 417.596 423.559 417.649C423.365 417.986 423.187 418.323 422.992 418.66C422.514 419.546 422.053 420.432 421.628 421.337C421.504 421.585 421.397 421.833 421.273 422.099C421.202 422.241 421.149 422.383 421.078 422.542C420.954 422.808 420.848 423.074 420.742 423.34C420.529 423.819 420.334 424.316 420.139 424.812C420.033 425.096 419.926 425.379 419.82 425.663C419.732 425.876 419.661 426.071 419.608 426.301C419.466 426.709 419.324 427.117 419.2 427.525C419.873 427.33 420.547 427.117 421.185 426.886C421.504 426.78 421.823 426.674 422.142 426.532C422.408 426.425 422.673 426.319 422.957 426.213C424.304 425.663 425.615 425.025 426.856 424.333C427.104 424.209 427.352 424.05 427.6 423.908C427.866 423.766 428.114 423.606 428.38 423.447C429.301 422.897 430.187 422.294 431.056 421.674C431.304 421.496 431.534 421.319 431.782 421.142C432.314 420.752 432.846 420.344 433.377 419.918C433.625 419.723 433.891 419.511 434.139 419.316C435.77 417.968 437.329 416.55 438.853 415.06C439.208 414.706 439.562 414.369 439.917 414.014C440.289 413.642 440.661 413.27 441.033 412.897C441.405 412.525 441.76 412.153 442.132 411.78C443.142 410.734 444.152 409.653 445.162 408.589C446.527 407.135 447.892 405.681 449.256 404.245C449.575 403.908 449.894 403.571 450.231 403.234C450.248 403.199 450.284 403.181 450.302 403.146C451.241 402.188 452.198 401.231 453.155 400.291C453.438 400.043 453.704 399.777 453.97 399.511C454.271 399.227 454.555 398.961 454.856 398.695C454.874 398.678 454.892 398.66 454.909 398.642C455.849 397.791 456.806 396.94 457.78 396.142C462.14 392.188 466.641 388.394 471.302 384.795C473.163 383.358 475.041 381.94 476.955 380.575C478.852 379.21 480.783 377.862 482.75 376.55C484.7 375.238 486.667 373.961 488.669 372.72C490.158 371.781 491.682 370.859 493.188 369.972C494.695 369.086 496.254 368.199 497.796 367.348C499.852 366.196 501.943 365.096 504.034 364.015C519.576 355.735 535.012 347.26 549.916 337.862C559.149 331.71 568.896 326.462 578.519 321.001C580.025 319.866 581.496 318.678 582.808 317.349C582.949 317.207 583.091 317.047 583.251 316.905C583.41 316.763 583.534 316.604 583.676 316.444C583.96 316.125 584.225 315.806 584.491 315.487C584.881 314.99 585.253 314.494 585.59 313.962C587.327 311.586 589.064 309.175 590.747 306.781C591.367 305.912 591.97 305.044 592.572 304.175C593.033 303.519 593.494 302.863 593.937 302.189C594.451 301.444 594.965 300.7 595.461 299.937C596.17 298.891 596.879 297.828 597.57 296.764C597.765 296.48 597.942 296.196 598.137 295.895C598.811 294.884 599.449 293.874 600.104 292.863C600.264 292.615 600.423 292.384 600.583 292.136C601.15 291.249 601.717 290.345 602.266 289.441C602.426 289.211 602.568 288.962 602.709 288.732C603.276 287.828 603.844 286.906 604.393 285.984C604.499 285.806 604.606 285.629 604.712 285.452C605.155 286.409 605.616 287.331 606.13 288.235C606.254 288.448 606.378 288.679 606.502 288.891C607.158 290.026 607.866 291.143 608.628 292.225C608.77 292.437 608.93 292.65 609.089 292.863C609.851 293.927 610.666 294.955 611.499 295.983C611.836 296.391 612.173 296.799 612.51 297.189C612.846 297.579 613.201 297.987 613.555 298.377C613.732 298.572 613.91 298.767 614.087 298.962C614.264 299.157 614.441 299.352 614.618 299.547C614.796 299.742 614.973 299.937 615.15 300.132C616.408 301.48 617.702 302.792 618.978 304.069C619.35 304.423 619.705 304.796 620.077 305.15C629.895 314.654 639.713 324.405 651.622 331.302C659.526 336.16 667.429 341.089 676.68 342.809C677.301 343.199 677.868 343.359 678.417 343.465Z" fill="white"/>
<g id="Outline">
<path d="M274.536 114.23C274.483 114.212 274.448 114.194 274.395 114.177C274.43 114.194 274.483 114.212 274.536 114.23Z" fill="black"/>
<path d="M689.263 334.21C690.007 332.082 690.273 329.529 691.177 327.366C689.298 328.43 687.349 329.352 685.346 330.132C685.47 330.22 685.559 330.327 685.665 330.433C688.27 333.341 688.891 336.373 688.111 338.784C688.111 338.802 688.111 338.82 688.128 338.82C688.571 337.011 688.961 335.451 689.263 334.21ZM809.647 203.857C811.774 199.371 809.434 194.637 807.361 190.612C802.541 188.396 797.259 187.367 792.244 185.665C785.368 183.52 778.705 180.559 771.527 179.619C757.297 179.353 742.889 184.176 729.332 187.651C723.005 189.371 716.643 191.073 710.192 192.367C707.179 192.669 701.65 195.062 700.853 190.647C700.764 189.371 701.562 188.236 702.749 187.793C724.387 182.545 745.14 173.573 767.434 171.197C776.383 170.577 783.844 173.485 791.978 175.914C795.151 176.906 798.394 177.704 801.619 178.609C801.584 178.467 801.548 178.307 801.53 178.165C801.495 177.952 801.459 177.74 801.442 177.527C801.406 177.332 801.389 177.155 801.371 176.96C801.371 176.924 801.353 176.871 801.353 176.818C801.335 176.676 801.318 176.534 801.318 176.375C801.158 173.963 801.353 171.392 801.247 169.158C801.229 168.626 801.176 168.112 801.105 167.633C801.318 164.531 799.475 161.942 796.497 161.073C791.978 159.283 787.335 157.74 782.674 156.392C774.735 154.212 766.937 151.286 758.714 150.311C747.638 149.105 737.041 150.329 726.408 152.669C718.947 153.946 711.433 157.775 703.972 157.988C702.997 158.059 701.916 157.829 701.296 158.396C700.959 157.616 701.863 156.8 702.306 156.215C706.205 151.694 712.248 150.205 717.653 148.29C719.071 147.793 720.506 147.332 721.924 146.889C723.59 144.744 725.362 142.687 727.276 140.754C727.506 140.506 727.737 140.276 727.985 140.045C728.18 139.85 728.375 139.655 728.57 139.478C728.835 139.212 729.119 138.946 729.385 138.68C729.686 138.396 729.987 138.13 730.289 137.864C730.572 137.616 730.838 137.368 731.122 137.12C731.175 137.066 731.228 137.031 731.281 136.978C731.529 136.765 731.76 136.57 732.008 136.357C732.628 135.843 733.266 135.329 733.904 134.85C734.099 134.691 734.312 134.531 734.506 134.389C734.719 134.23 734.95 134.07 735.18 133.91C735.517 133.662 735.853 133.432 736.19 133.183C746.539 126.375 755.011 122.864 765.909 130.949C775.586 135.01 786.573 138.024 796.994 137.031C798.89 132.244 793.609 128.928 790.826 125.808C785.687 120.63 779.201 117.545 772.75 114.478C758.768 107.9 745.193 100.081 730.129 96.2158C728.446 95.5597 726.496 95.8788 725.167 96.9427C713.506 104.194 702.767 114.07 693.356 123.822C685.151 132.634 677.212 141.712 669.272 150.754C656.087 172.953 647.563 197.562 638.578 221.658C632.819 236.551 627.927 251.764 622.593 266.799C621.884 268.448 621.264 270.186 620.626 271.923C620.502 272.26 620.378 272.597 620.254 272.934C619.616 274.689 618.942 276.444 618.163 278.129C618.021 278.448 617.879 278.749 617.72 279.051C617.72 279.069 617.702 279.086 617.684 279.122C617.525 279.459 617.365 279.778 617.188 280.097C616.834 280.735 616.479 281.356 616.089 281.976C615.912 282.26 615.717 282.526 615.54 282.792C615.522 282.827 615.504 282.845 615.487 282.863C615.558 282.952 615.611 283.022 615.682 283.093C615.93 283.412 616.196 283.732 616.444 284.033C616.55 284.157 616.656 284.281 616.763 284.405C617.029 284.742 617.312 285.061 617.596 285.381C617.684 285.487 617.755 285.576 617.844 285.682C618.145 286.037 618.446 286.373 618.765 286.728C619.279 287.295 619.793 287.863 620.325 288.412C620.591 288.696 620.856 288.98 621.122 289.263C622.682 290.877 624.259 292.437 625.889 293.962C626.226 294.281 626.563 294.6 626.9 294.902C629.629 297.437 632.411 299.902 635.176 302.366C637.905 304.919 640.723 307.402 643.647 309.777C644.373 310.38 645.118 310.983 645.862 311.551C645.968 311.639 646.075 311.71 646.181 311.799C646.535 312.082 646.907 312.366 647.262 312.65C649.796 314.618 652.383 316.497 655.024 318.288C655.786 318.802 656.548 319.316 657.328 319.813C659.047 320.93 660.784 322.011 662.538 323.057C663.194 323.448 663.85 323.82 664.505 324.192C667.022 325.611 669.574 326.958 672.161 328.217C672.445 327.827 672.746 327.437 673.047 327.065C673.331 326.71 673.614 326.355 673.898 326.001C674.235 325.593 674.571 325.185 674.926 324.795C675.192 324.494 675.457 324.192 675.741 323.891C676.007 323.589 676.29 323.288 676.574 323.004C676.981 322.579 677.389 322.171 677.797 321.763C678.08 321.479 678.364 321.213 678.647 320.947C678.683 320.912 678.718 320.877 678.754 320.841C679.09 320.522 679.427 320.203 679.764 319.901C684.761 315.753 690.804 312.845 694.739 307.472C707.977 288.519 713.967 263.359 733.39 249.317C742.641 243.519 753.221 240.647 763.996 239.406C768.302 238.927 772.715 237.597 777.039 238.324C778.687 238.856 779.52 240.47 779.325 242.119C779.307 242.225 779.29 242.331 779.254 242.438C779.219 242.526 779.183 242.633 779.148 242.721C779.148 242.739 779.13 242.757 779.13 242.757C779.095 242.863 779.041 242.952 778.97 243.058C778.776 243.377 778.51 243.679 778.173 243.98C778.084 244.051 777.996 244.14 777.907 244.211C777.872 244.246 777.819 244.282 777.783 244.299C777.695 244.37 777.606 244.441 777.517 244.494C777.216 244.707 776.897 244.902 776.543 245.115C776.419 245.186 776.277 245.257 776.135 245.328C776.029 245.381 775.922 245.434 775.816 245.487C775.568 245.611 775.302 245.735 775.019 245.86C774.859 245.931 774.717 245.984 774.558 246.055C774.363 246.143 774.186 246.214 773.991 246.285C773.796 246.356 773.618 246.445 773.406 246.516C773.37 246.533 773.335 246.551 773.299 246.551C773.14 246.622 772.981 246.675 772.803 246.728C771.084 247.349 769.224 247.899 767.416 248.377C767.186 248.448 766.937 248.501 766.707 248.555C766.423 248.626 766.14 248.714 765.856 248.767C765.272 248.909 764.687 249.051 764.137 249.193C763.942 249.246 763.73 249.282 763.535 249.335C763.623 249.494 763.694 249.654 763.765 249.831C763.836 249.973 763.872 250.115 763.925 250.239C763.96 250.292 763.978 250.345 763.996 250.399C764.049 250.54 764.084 250.682 764.12 250.806C764.173 250.966 764.208 251.143 764.244 251.321C764.279 251.48 764.315 251.64 764.332 251.817C764.35 251.835 764.35 251.852 764.35 251.888C764.368 252.048 764.385 252.189 764.403 252.349C764.421 252.509 764.439 252.686 764.439 252.863C764.527 255.079 763.978 257.349 763.588 259.512C762.79 264.335 765.289 271.515 771.279 270.186C771.581 270.168 771.882 270.115 772.165 270.044C772.52 269.742 772.892 269.459 773.282 269.175C773.477 269.033 773.654 268.891 773.849 268.767C774.239 268.484 774.629 268.235 775.019 267.952C775.214 267.827 775.408 267.686 775.603 267.562C775.993 267.296 776.365 267.03 776.737 266.746C781.54 263.076 785.723 258.413 789.745 254.583C794.335 250.115 798.624 244.725 799.953 238.377C799.918 238.502 799.882 238.643 799.847 238.767C799.935 238.253 800.042 237.721 800.148 237.172C800.219 236.817 800.272 236.463 800.343 236.09C800.378 235.842 800.432 235.611 800.467 235.363C800.52 235.08 800.556 234.796 800.591 234.512C800.627 234.264 800.662 234.016 800.68 233.785C800.751 233.253 800.822 232.704 800.857 232.154C801.176 228.59 800.875 225.009 798.819 222.083C795.328 218.254 791.092 214.512 786.041 212.97C769.365 209.637 752.76 216.463 736.403 219.122C733.39 219.69 730.342 220.186 727.294 220.576C725.663 220.842 723.678 221.285 722.456 219.849C721.109 218.378 722.137 216.002 723.962 215.488C744.626 212.101 775.656 197.013 794.92 206.64C795.204 206.782 795.47 206.924 795.735 207.066C795.948 207.172 796.178 207.296 796.391 207.42C797.454 208.005 798.5 208.661 799.492 209.388C799.705 209.548 799.935 209.707 800.148 209.867C800.839 210.381 801.513 210.931 802.168 211.498C802.328 211.622 802.487 211.764 802.629 211.906C802.665 211.942 802.7 211.977 802.753 212.012C802.913 212.154 803.072 212.296 803.232 212.456C803.586 212.793 803.941 213.147 804.277 213.502C804.472 213.165 804.667 212.828 804.862 212.509C804.968 212.332 805.075 212.154 805.199 211.977C805.199 211.977 805.199 211.959 805.216 211.942C805.341 211.747 805.465 211.569 805.589 211.392C805.66 211.303 805.713 211.215 805.784 211.126C805.908 210.949 806.032 210.771 806.156 210.612C806.174 210.594 806.191 210.559 806.209 210.541C806.475 210.009 806.776 209.459 807.077 208.927C807.13 208.839 807.184 208.732 807.255 208.626C807.751 207.757 808.265 206.888 808.69 206.037C808.743 205.949 808.779 205.86 808.814 205.789C808.92 205.559 809.027 205.328 809.133 205.098C809.169 205.044 809.186 204.974 809.204 204.92C809.239 204.832 809.275 204.761 809.292 204.672C809.346 204.548 809.381 204.442 809.417 204.317C809.558 204.158 809.594 204.016 809.647 203.857ZM1073.45 13.291C1073.7 12.5109 1073.97 11.7485 1074.25 10.9861L1074.15 11.0747L1073.4 11.6421L1073.01 11.9259L1072.85 12.0322L1072.62 12.2095L1072.21 12.4931L1071.95 12.6883C1068.49 12.7237 1065.02 12.8301 1061.56 12.9719C1058.11 13.1315 1054.63 13.3088 1051.18 13.5038C1042.99 13.9648 1034.78 14.4258 1026.58 14.3372C992.465 15.1173 958.404 17.1208 924.272 17.369C918.849 17.5286 913.426 17.7059 908.003 17.8477C902.492 17.9896 896.998 18.096 891.486 18.096C887.623 18.096 883.742 18.0428 879.879 17.901C878.337 17.8478 876.777 17.7768 875.235 17.7059C874.473 17.6704 873.694 17.6172 872.932 17.5817C861.076 16.8016 849.167 16.6598 837.293 16.3052C837.293 16.3052 837.293 16.3052 837.275 16.3052C825.384 15.9329 813.528 15.3478 801.743 13.6989C797.259 13.1493 792.386 12.245 788.824 9.44358C788.204 10.2592 787.637 11.128 787.123 12.0145C786.981 12.2273 786.857 12.4578 786.733 12.6883C786.609 12.9188 786.485 13.1315 786.361 13.362C786.237 13.5925 786.112 13.8229 786.006 14.0534C785.297 15.4364 784.677 16.8726 784.11 18.3265C784.021 18.5747 783.915 18.8052 783.826 19.0534C783.596 19.6562 783.383 20.2591 783.188 20.8619C782.976 21.5002 782.763 22.1385 782.55 22.7768C782.462 23.025 782.391 23.291 782.32 23.5392C782.231 23.7874 782.16 24.0356 782.09 24.2838C781.93 24.8158 781.771 25.3477 781.611 25.8796C781.469 26.3583 781.328 26.837 781.203 27.298C780.76 28.7874 780.353 30.259 779.91 31.6951C779.821 31.9611 779.75 32.2448 779.662 32.5107C775.55 47.7943 772.254 63.2906 768.302 78.6096C767.522 81.145 767.026 83.84 766.37 86.4463C766.282 86.7655 766.211 87.1023 766.122 87.4215C766.034 87.7406 765.945 88.0775 765.839 88.3966C765.732 88.7512 765.626 89.1237 765.502 89.4783C765.413 89.7619 765.307 90.0278 765.218 90.2938C764.758 91.5526 764.19 92.7584 763.482 93.9108C763.411 94.035 763.322 94.1413 763.234 94.2654C763.163 94.3717 763.074 94.4605 763.003 94.5669C762.489 95.2229 761.887 95.8257 761.213 96.3576C761.107 96.4463 761.001 96.5349 760.877 96.6058C760.788 96.6767 760.682 96.7477 760.593 96.8009C760.451 96.9073 760.309 96.9959 760.15 97.0845C759.92 97.2264 759.671 97.3505 759.423 97.4747C759.299 97.5278 759.175 97.5987 759.051 97.6519C758.803 97.7583 758.537 97.8646 758.289 97.9533C758.378 97.9888 758.466 98.042 758.573 98.0774C771.953 105.045 787.3 109.372 797.986 120.489C801.371 123.875 805.146 127.581 805.872 132.545C806.156 136.871 805.199 142.332 800.839 144.336C793.024 147.173 783.401 145.169 775.94 143.538C770.925 142.226 765.75 140.967 761.196 138.414C753.185 132.137 750.527 135.542 742.8 139.744C742.198 140.063 741.595 140.382 740.975 140.701C739.699 141.375 738.405 142.031 737.129 142.669C736.562 142.953 736.013 143.237 735.446 143.502C751.75 140.559 768.196 141.446 784.393 147.297C792.776 150.205 803.444 151.109 808.725 159.088C811.791 164.176 811.401 170.364 811.827 176.091C811.88 176.463 811.915 176.836 811.915 177.226C811.915 177.421 811.915 177.598 811.898 177.793C811.88 177.97 811.862 178.148 811.827 178.325C811.791 178.573 811.756 178.821 811.703 179.07C811.667 179.211 811.632 179.353 811.596 179.495C811.596 179.513 811.596 179.531 811.579 179.548C811.579 179.584 811.561 179.601 811.543 179.637C811.508 179.779 811.455 179.921 811.419 180.045C811.348 180.222 811.295 180.399 811.224 180.559C811.206 180.594 811.189 180.63 811.171 180.665C811.1 180.825 811.029 180.967 810.958 181.109C810.941 181.144 810.923 181.179 810.905 181.197C810.834 181.321 810.763 181.445 810.693 181.57C810.693 181.57 810.693 181.587 810.675 181.605C810.834 181.676 811.012 181.747 811.171 181.818C814.007 182.899 815.672 185.452 816.753 188.183C819.695 193.892 821.397 200.789 818.543 206.871C818.455 207.03 818.384 207.208 818.295 207.385C818.083 207.846 817.852 208.342 817.622 208.874C817.515 209.105 817.409 209.353 817.303 209.601C817.179 209.867 817.055 210.133 816.931 210.417C816.842 210.629 816.736 210.86 816.629 211.09C816.47 211.463 816.293 211.817 816.098 212.19C815.938 212.544 815.743 212.881 815.566 213.218C815.477 213.395 815.371 213.573 815.282 213.732C815.017 214.193 814.751 214.637 814.45 215.062C814.343 215.239 814.219 215.399 814.095 215.559C814.077 215.594 814.06 215.612 814.042 215.629C813.918 215.789 813.794 215.949 813.67 216.09C813.546 216.215 813.439 216.356 813.315 216.481C813.298 216.498 813.28 216.516 813.245 216.551C813.245 216.569 813.227 216.587 813.209 216.587C813.156 216.782 813.103 216.995 813.05 217.19C812.5 219.441 811.844 222.527 810.462 224.672C810.852 226.711 810.905 228.856 810.586 231.073C810.356 243.856 802.523 254.547 793.609 263.058C793.396 263.253 793.166 263.448 792.935 263.661C792.811 263.767 792.705 263.874 792.581 263.998C791.482 265.026 790.171 266.338 788.753 267.721C788.434 268.023 788.115 268.342 787.796 268.661C787.583 268.874 787.353 269.069 787.123 269.299C786.786 269.618 786.449 269.937 786.095 270.257C785.988 270.363 785.864 270.469 785.74 270.576C785.51 270.788 785.279 271.001 785.049 271.214C784.819 271.427 784.571 271.639 784.34 271.835C784.11 272.047 783.862 272.242 783.614 272.437C783.49 272.544 783.366 272.65 783.259 272.739C783.011 272.934 782.781 273.147 782.533 273.342C782.16 273.625 781.806 273.909 781.434 274.193C781.186 274.388 780.938 274.565 780.69 274.725C780.441 274.884 780.193 275.079 779.945 275.239C779.697 275.398 779.467 275.558 779.219 275.717C778.971 275.877 778.722 276.037 778.474 276.178C778.315 276.267 778.173 276.356 778.014 276.444C777.712 276.622 777.411 276.781 777.092 276.923C776.932 276.994 776.791 277.065 776.631 277.136C776.507 277.189 776.401 277.242 776.277 277.296C776.241 277.313 776.188 277.331 776.153 277.349C775.834 277.49 775.497 277.597 775.178 277.703C775.054 277.739 774.948 277.774 774.824 277.81C774.7 277.845 774.576 277.881 774.469 277.898C774.239 277.969 773.991 278.005 773.778 278.058C773.654 278.076 773.548 278.093 773.424 278.111H773.406C773.211 278.146 772.998 278.164 772.803 278.164C772.591 278.182 772.378 278.182 772.165 278.164C772.077 278.164 772.006 278.164 771.917 278.164C771.917 278.164 771.917 278.164 771.899 278.164C771.882 278.164 771.864 278.164 771.864 278.164C771.846 278.164 771.829 278.164 771.829 278.164C771.687 278.147 771.563 278.129 771.421 278.111C771.279 278.164 771.12 278.2 770.978 278.235C770.854 278.271 770.73 278.288 770.606 278.306C770.57 278.306 770.517 278.324 770.482 278.342C770.358 278.377 770.234 278.395 770.11 278.413C770.056 278.413 770.003 278.43 769.95 278.43C769.773 278.466 769.596 278.501 769.418 278.519C769.17 278.554 768.922 278.572 768.674 278.59C768.568 278.59 768.461 278.608 768.355 278.608C768.16 278.608 767.965 278.625 767.753 278.625C766.991 278.625 766.211 278.554 765.449 278.413C760.788 277.313 756.517 274.086 754.444 269.725C753.132 266.71 752.157 262.26 752.264 258.04C752.264 257.881 752.264 257.721 752.281 257.562C752.281 257.508 752.281 257.473 752.281 257.42C752.299 257.012 752.335 256.604 752.37 256.179C752.37 256.125 752.388 256.072 752.388 256.019C752.388 255.984 752.388 255.948 752.388 255.93C752.423 255.718 752.441 255.487 752.476 255.257C752.494 255.133 752.512 254.991 752.547 254.867C752.583 254.618 752.636 254.388 752.689 254.157C752.725 254.069 752.742 253.962 752.76 253.856C752.795 253.696 752.831 253.537 752.884 253.377C752.884 253.377 752.884 253.36 752.884 253.342C752.937 253.147 753.008 252.934 753.079 252.739C753.097 252.668 753.114 252.615 753.15 252.562C753.221 252.349 753.309 252.118 753.398 251.906C753.292 251.941 753.185 251.977 753.079 251.994C752.671 252.118 752.264 252.243 751.838 252.402C751.714 252.438 751.573 252.491 751.431 252.526C751.236 252.597 751.059 252.65 750.881 252.721C750.687 252.792 750.509 252.845 750.332 252.916C749.995 253.04 749.659 253.147 749.34 253.289C749.092 253.377 748.843 253.466 748.613 253.572C748.276 253.696 747.922 253.838 747.603 253.98C747.231 254.14 746.841 254.299 746.469 254.477C746.256 254.565 746.026 254.672 745.813 254.76C745.476 254.92 745.14 255.079 744.803 255.239C744.608 255.328 744.413 255.434 744.218 255.523C744.023 255.611 743.828 255.718 743.633 255.824C743.19 256.037 742.783 256.267 742.339 256.516C741.95 256.728 741.577 256.941 741.188 257.172C741.152 257.207 741.099 257.225 741.063 257.243C740.727 257.438 740.39 257.65 740.053 257.863C740.018 257.881 739.982 257.899 739.965 257.916C739.788 258.023 739.61 258.129 739.451 258.253C739.167 258.448 738.884 258.625 738.6 258.838C734.17 262.349 731.547 267.544 728.658 272.296C721.534 284.512 715.952 297.561 708.491 309.582C708.331 309.884 708.172 310.185 707.995 310.487C707.569 311.249 707.126 311.976 706.648 312.703C706.471 312.969 706.293 313.235 706.116 313.519C706.027 313.643 705.939 313.784 705.833 313.926C705.655 314.192 705.46 314.458 705.283 314.707C705.071 315.008 704.858 315.292 704.627 315.575C704.592 315.611 704.574 315.646 704.557 315.664C704.362 315.912 704.167 316.178 703.972 316.426C703.954 316.444 703.936 316.462 703.936 316.48C703.706 316.781 703.458 317.065 703.21 317.366C702.997 317.614 702.767 317.88 702.536 318.128C702.235 318.483 701.916 318.82 701.579 319.174C701.367 319.405 701.154 319.618 700.941 319.848C700.746 320.043 700.551 320.238 700.357 320.433C700.144 320.646 699.949 320.841 699.736 321.036C698.921 321.816 698.053 322.561 697.184 323.27C696.989 323.43 696.812 323.572 696.617 323.713C696.405 323.873 696.21 324.033 695.979 324.21C696.068 324.263 696.156 324.299 696.245 324.369C696.298 324.405 696.351 324.441 696.405 324.476C696.493 324.547 696.599 324.635 696.67 324.706C696.777 324.795 696.865 324.901 696.936 324.99C696.989 325.043 697.025 325.114 697.078 325.185C697.131 325.256 697.167 325.309 697.202 325.38C697.273 325.486 697.326 325.611 697.379 325.735C697.397 325.77 697.415 325.806 697.432 325.859C697.468 325.947 697.503 326.036 697.521 326.125C697.521 326.142 697.521 326.16 697.539 326.178C697.574 326.267 697.592 326.373 697.61 326.497C697.61 326.515 697.61 326.533 697.61 326.568C695.749 343.589 691.336 360.61 692.08 377.897C713.258 372.17 735.57 370.663 757.261 367.897C818.189 361.444 879.666 362.72 940.664 357.135C949.49 356.319 958.032 353.908 966.467 351.266C966.574 351.231 966.68 351.213 966.804 351.178C966.857 351.178 966.893 351.16 966.946 351.142C967.318 351.036 967.708 350.93 968.08 350.788C968.204 350.752 968.346 350.699 968.47 350.663C969.445 350.327 970.437 349.954 971.429 349.653C971.553 349.617 971.678 349.564 971.819 349.529C972.05 349.458 972.28 349.405 972.51 349.351C972.617 349.316 972.723 349.298 972.83 349.281C972.9 349.263 972.989 349.245 973.042 349.227C973.007 348.997 972.989 348.784 972.971 348.554C969.515 329.564 977.827 310.806 983.941 293.164C994.344 263.342 1003.36 233.076 1014.14 203.378C1019.51 188.662 1024.83 173.892 1029.72 158.981C1037.39 134.62 1045.15 110.294 1052.1 85.7194C1057.33 66.943 1062.02 48.007 1068.23 29.4966C1068.51 28.6455 1068.79 27.7945 1069.08 26.9434C1069.48 25.7023 1069.89 24.4434 1070.3 23.1846C1070.87 21.4115 1071.43 19.6385 1072 17.8655C1072.43 16.3939 1072.92 14.8513 1073.45 13.291ZM1080.05 7.12091C1081.27 8.07835 1081.78 10.0819 1080.97 11.979C1070.53 50.702 1062.22 89.301 1050.22 127.386C1041.32 157.155 1030.82 186.357 1020.39 215.612C1013.48 235.665 1007.35 255.966 1001.06 276.214C995.62 294.707 987.964 312.685 984.969 331.816C984.597 335.699 984.012 339.618 984.366 343.501C986.015 349.547 987.539 360.397 978.128 359.546C977.987 359.511 977.845 359.493 977.685 359.458C977.154 359.848 976.516 360.149 975.842 360.309C972.44 361.319 969.037 362.33 965.581 363.199C955.639 366.178 945.467 367.738 935.188 368.624C935.188 368.642 935.188 368.678 935.188 368.695H932.76L932.654 368.713H932.406L932.3 368.731H932.176L931.928 368.766H931.857C931.839 368.766 931.821 368.766 931.803 368.766L931.68 368.784H931.555L931.431 368.802L931.29 368.819L930.581 368.908H930.439L930.155 368.944L930.031 368.961L929.89 368.979H929.765L929.518 369.015L929.393 369.032L929.145 369.068H929.021L928.897 369.085H928.773L928.667 369.103H928.436L928.33 369.121H928.011L927.905 369.139H927.692L927.603 369.156H927.497L927.409 369.174H927.32L927.231 369.192H927.143L927.054 369.21H926.965L926.877 369.227H926.788L926.7 369.245L926.611 369.263H926.522L926.345 369.298H926.239L926.15 369.316L925.938 369.351H925.831L925.707 369.369H925.601L925.495 369.387H925.37L925.264 369.405H924.91L924.786 369.422H924.661L924.538 369.44H924.449C924.537 369.351 924.626 369.245 924.697 369.156C913.249 369.741 901.73 369.812 890.334 370.433C872.719 371.355 855.157 372.561 837.523 372.738C798.606 373.908 758.98 376.727 720.524 381.745C715.261 382.33 710.316 382.791 705.195 383.66C701.278 384.333 697.344 385.397 693.534 386.355C692.134 386.691 690.574 387.117 689.068 387.117C687.739 387.117 686.48 386.78 685.417 385.77C679.959 379.724 683.964 357.171 687.118 343.004C681.926 351.816 675.067 359.706 671.027 369.139C667.11 379.458 665.586 390.539 662.166 401.035C653.199 434.599 638.472 466.212 621.37 496.336C598.545 537.896 575.896 562.452 536.766 588.924C509.776 606.689 481.138 627.735 447.608 627.753C446.509 627.753 445.41 627.717 444.312 627.682C432.916 627.505 421.876 624.65 410.853 622.062C399.954 619.278 389.126 615.608 379.202 610.218C359.672 598.587 343.191 582.594 327.348 566.459C306.79 545.626 291.691 520.112 277.886 494.474C269.468 479.403 261.458 464.084 253.749 448.641C226.865 396.62 211.075 338.802 208.416 280.274C205.244 239.796 212.386 198.147 232.305 162.509C237.409 152.971 241.273 145.258 245.012 138.556L245.047 138.503L245.278 138.219L245.526 137.918L245.774 137.598L246.04 137.279L246.323 136.942L246.607 136.588L246.908 136.215L247.546 135.471L248.184 134.691L248.787 133.946L249.088 133.591L249.389 133.219L249.691 132.864L250.825 131.446L251.108 131.109L251.392 130.754L251.675 130.418L251.941 130.081L253.075 128.662L254.032 127.598L254.369 127.244L255.787 125.754L257.187 124.354L257.541 124.035L257.878 123.715L258.197 123.414L259.473 122.137L260.076 121.499L260.359 121.18L260.962 120.542L261.245 120.223L262.096 119.318L262.379 118.999L263.443 117.794L263.691 117.51L263.957 117.226L264.205 116.943L264.701 116.411L266.154 114.957L266.367 114.726L267.005 114.088L267.395 113.662L268.174 112.882L268.352 112.687L268.635 112.404C268.688 112.421 268.759 112.439 268.812 112.439L270.177 110.95L282.724 114.407L280.881 116.109C279.623 115.684 278.382 115.258 277.124 114.85H277.106C278.364 115.276 279.623 115.701 280.863 116.109C280.916 116.127 280.952 116.145 281.005 116.162L280.987 116.18C279.658 117.226 278.364 118.272 277.088 119.354C276.521 119.833 275.954 120.311 275.405 120.808C275.405 120.808 275.387 120.808 275.387 120.825C274.785 121.357 274.182 121.889 273.597 122.439C273.597 122.439 273.597 122.439 273.58 122.439C272.995 122.971 272.41 123.538 271.843 124.088L271.825 124.106C271.258 124.673 270.691 125.24 270.124 125.808C269.557 126.375 269.007 126.978 268.44 127.563C267.891 128.166 267.341 128.769 266.81 129.371C266.473 129.779 266.136 130.169 265.817 130.577C265.481 130.985 265.162 131.393 264.843 131.818C263.691 133.325 262.592 134.886 261.546 136.464C261.334 136.765 261.139 137.066 260.944 137.386C260.731 137.687 260.536 138.006 260.341 138.308C260.235 138.467 260.129 138.644 260.022 138.822C259.792 139.194 259.562 139.549 259.331 139.921C256.992 143.768 254.848 147.758 252.739 151.765C252.42 152.35 252.118 152.935 251.817 153.52C250.754 155.541 249.69 157.563 248.627 159.566C241.273 173.52 234.255 187.704 229.346 202.722C215.541 248.395 218.606 297.544 228.602 343.678C234.237 369.422 241.911 394.83 251.87 419.014C262.167 443.074 274.395 465.591 287.066 488.162C302.129 516.407 320.897 542.559 344.378 564.403C356.819 577.292 370.66 589.633 385.918 598.87C396.923 604.881 408.939 608.87 421.114 611.849C432.385 615.04 444.081 616.601 455.795 615.661C479.755 613.25 500.383 599.916 519.753 586.565C535.03 576.619 549.721 565.768 563.42 553.711C587.256 532.594 604.198 505.29 618.942 477.506C625.021 466.46 631.046 455.343 636.292 443.854C644.054 426.957 650.221 409.369 655.892 391.674C659.082 381.887 661.085 371.727 665.32 362.33C668.422 356.284 672.746 350.965 676.733 345.486C676.893 345.309 677.052 345.132 677.194 344.937C677.478 344.582 677.761 344.21 678.027 343.837C678.169 343.642 678.311 343.43 678.452 343.235C677.903 343.128 677.336 342.969 676.769 342.774C667.5 341.071 659.596 336.125 651.71 331.267C639.801 324.37 629.983 314.618 620.165 305.114C619.793 304.76 619.439 304.387 619.066 304.033C617.773 302.756 616.479 301.444 615.239 300.097C615.061 299.902 614.884 299.707 614.707 299.512C614.53 299.316 614.352 299.122 614.175 298.927C613.998 298.731 613.821 298.536 613.644 298.341C613.289 297.951 612.952 297.544 612.598 297.154C612.244 296.746 611.907 296.356 611.588 295.948C610.737 294.937 609.94 293.891 609.178 292.827C609.018 292.614 608.876 292.402 608.717 292.189C607.955 291.107 607.246 290.008 606.59 288.856C606.466 288.643 606.342 288.43 606.218 288.2C605.704 287.295 605.243 286.356 604.8 285.416C604.694 285.593 604.588 285.771 604.481 285.948C603.932 286.87 603.365 287.774 602.798 288.696C602.656 288.927 602.514 289.175 602.355 289.405C601.805 290.31 601.238 291.196 600.671 292.1C600.512 292.349 600.352 292.579 600.193 292.827C599.555 293.838 598.899 294.849 598.226 295.859C598.031 296.143 597.853 296.427 597.659 296.728C596.967 297.792 596.258 298.855 595.55 299.902C595.036 300.646 594.539 301.409 594.026 302.153C593.582 302.827 593.122 303.483 592.661 304.139C592.058 305.008 591.456 305.877 590.836 306.746C589.134 309.157 587.415 311.55 585.679 313.926C585.324 314.458 584.97 314.972 584.58 315.451C584.314 315.77 584.048 316.089 583.765 316.409C583.623 316.568 583.481 316.728 583.339 316.87C583.197 317.011 583.056 317.171 582.896 317.313C581.585 318.643 580.114 319.848 578.608 320.965C569.002 326.408 559.238 331.674 550.004 337.827C535.1 347.224 519.665 355.699 504.123 363.979C502.014 365.061 499.94 366.16 497.885 367.312C494.783 369.014 491.753 370.823 488.758 372.702C486.755 373.943 484.788 375.22 482.839 376.532C480.889 377.844 478.958 379.192 477.044 380.557C475.13 381.922 473.251 383.34 471.391 384.777C466.73 388.376 462.228 392.152 457.869 396.124C456.894 396.922 455.937 397.773 454.998 398.624C454.98 398.642 454.962 398.66 454.945 398.677C454.643 398.943 454.342 399.209 454.059 399.493C453.775 399.741 453.509 400.007 453.243 400.273C452.286 401.213 451.347 402.152 450.39 403.128C450.355 403.163 450.337 403.181 450.319 403.216C450 403.553 449.664 403.89 449.345 404.227C447.98 405.663 446.615 407.117 445.251 408.571C444.241 409.635 443.248 410.716 442.22 411.762C441.866 412.135 441.494 412.507 441.122 412.879C440.749 413.252 440.377 413.624 440.005 413.996C439.651 414.351 439.296 414.688 438.942 415.042C437.418 416.532 435.841 417.95 434.228 419.298C433.98 419.493 433.732 419.705 433.466 419.9C432.934 420.326 432.42 420.734 431.871 421.124C431.623 421.301 431.392 421.478 431.144 421.656C430.276 422.276 429.372 422.879 428.468 423.429C428.22 423.588 427.954 423.748 427.689 423.89C427.44 424.032 427.192 424.173 426.944 424.315C425.686 425.007 424.392 425.645 423.045 426.195C422.78 426.301 422.514 426.407 422.23 426.514C421.911 426.638 421.592 426.744 421.273 426.869C420.618 427.099 419.962 427.312 419.288 427.507C419.412 427.099 419.554 426.691 419.696 426.283C419.767 426.071 419.838 425.858 419.909 425.645C419.997 425.361 420.121 425.078 420.228 424.794C420.423 424.298 420.618 423.801 420.83 423.323C420.937 423.057 421.043 422.79 421.167 422.525C421.238 422.383 421.291 422.241 421.362 422.081C421.486 421.833 421.592 421.567 421.716 421.319C422.142 420.415 422.602 419.51 423.081 418.642C423.258 418.305 423.453 417.968 423.648 417.631C423.683 417.578 423.719 417.507 423.754 417.454C423.861 417.259 423.967 417.081 424.073 416.904C424.233 416.62 424.41 416.337 424.587 416.053C424.889 415.539 425.207 415.042 425.544 414.546C425.828 414.103 426.129 413.659 426.43 413.234C426.714 412.808 427.015 412.401 427.316 411.975C427.352 411.94 427.369 411.904 427.405 411.851C427.688 411.443 427.99 411.035 428.291 410.645C428.61 410.22 428.929 409.794 429.266 409.386C430.311 408.056 431.392 406.78 432.509 405.521C432.792 405.202 433.094 404.865 433.377 404.546C433.749 404.138 434.122 403.73 434.494 403.34C434.813 402.986 435.149 402.649 435.468 402.294C435.575 402.17 435.681 402.064 435.787 401.957C436.301 401.425 436.798 400.894 437.329 400.379C437.489 400.202 437.666 400.025 437.843 399.865C438.198 399.51 438.534 399.174 438.889 398.819C439.137 398.571 439.403 398.305 439.651 398.074C440.023 397.702 440.413 397.312 440.803 396.957C443.337 394.493 445.907 392.099 448.441 389.706C448.529 389.617 448.618 389.546 448.707 389.457C449.345 388.855 449.965 388.252 450.603 387.667C450.674 387.596 450.727 387.543 450.798 387.489C450.886 387.401 450.957 387.33 451.046 387.241C451.117 387.17 451.205 387.082 451.276 387.028C470.965 368.057 495.616 356 519.629 343.536C532.247 336.799 544.493 329.369 556.916 322.277C562.676 318.483 569.516 316.48 574.975 312.26C583.056 302.171 590.038 291.125 598.296 281.125C600.405 278.643 602.284 275.806 604.942 273.856C605.775 273.413 606.643 273.377 607.388 273.643C608.469 273.43 609.674 273.501 610.968 273.962C611.765 274.122 612.616 274.494 613.378 275.008C613.608 274.476 613.821 273.962 614.033 273.448C617.241 265.203 619.882 256.781 622.487 248.324C631.224 221.25 640.847 194.389 652.366 168.36C655.378 161.96 658.462 155.577 661.918 149.424C667.731 140.772 675.493 133.556 682.032 125.471C693.25 112.687 705.496 100.577 719.691 91.1272C725.008 86.9074 730.413 87.4393 736.527 89.4605C741.471 90.7903 746.309 92.5101 751.023 94.4959C748.932 90.6661 750.066 85.5421 751.324 81.801C753.433 74.3543 755.737 66.0033 757.616 59.3367C763.304 40.5071 767.682 16.8194 782.727 3.50397C785.297 1.60682 789.444 -1.12367 792.616 0.489791C793.502 1.16354 793.839 1.94369 793.786 2.72383C795.363 2.52879 796.994 2.54647 798.553 2.77696C826.89 7.17408 856.309 5.20605 884.575 7.24504C927.497 7.4578 970.384 5.06413 1013.29 4.284C1029.24 4.39038 1045.21 4.65633 1061.17 4.72725C1066.49 4.83364 1071.84 5.01099 1077.12 5.66701C1078.27 5.80886 1079.59 6.00384 1080.67 6.50029L1080.47 6.64216L1080.05 7.12091Z" fill="black"/>
</g>
</g>
</svg>
