<svg width="577" height="1259" viewBox="0 0 577 1259" fill="none" xmlns="http://www.w3.org/2000/svg">
<g id="Right Arm / Phone Call">
<path id="Clothing 1" d="M311.911 740.63C305.957 731.57 299.524 722.811 292.169 714.319C287.331 708.769 282.67 703.113 278.364 697.156C261.156 673.734 246.287 648.557 234.378 622.014C218.429 584.001 210.649 543.044 208.097 502.016C206.449 478.488 208.664 454.889 212.137 431.609C215.646 406.378 220.608 381.219 230.923 357.797C242.991 330.776 257.098 304.181 276.716 281.841C279.516 278.578 282.245 275.28 284.974 271.965L285.063 271.983L285.311 272.036L285.559 272.107L285.807 272.178L286.055 272.231L286.303 272.302L286.551 272.373L286.817 272.444L287.083 272.497L287.349 272.568L287.632 272.639L287.898 272.709L288.182 272.78L288.448 272.851L288.713 272.922L288.979 272.993L289.245 273.064L289.511 273.135L289.777 273.206L290.043 273.277L290.308 273.365L290.574 273.454L290.858 273.543L291.141 273.631L291.425 273.72L291.708 273.809L291.992 273.897L292.293 273.986L292.594 274.075L292.896 274.163L293.197 274.252L293.498 274.341L293.817 274.429L294.136 274.536L294.455 274.624L294.774 274.731L295.076 274.819L295.377 274.908L295.678 275.014L295.979 275.103L296.281 275.21L296.582 275.316L296.865 275.422L297.167 275.529L297.45 275.635L297.734 275.741L298.035 275.848L298.336 275.972L298.638 276.078L298.939 276.202L299.258 276.309L299.559 276.433L299.878 276.557L300.197 276.681L300.516 276.805L300.835 276.929L301.154 277.053L301.473 277.178L301.792 277.302L302.111 277.426L302.43 277.55L302.731 277.674L303.033 277.798L303.334 277.922L303.635 278.046L303.954 278.17L304.255 278.295L304.557 278.419L304.858 278.543L305.159 278.685L305.461 278.826L305.762 278.968L306.063 279.11L306.364 279.252L306.666 279.394L306.967 279.536L307.286 279.695L307.605 279.855L307.906 280.014L308.225 280.174L308.526 280.334L308.828 280.493L309.129 280.653L309.43 280.812L309.732 280.972L310.033 281.131L310.316 281.291L310.6 281.451L310.883 281.61L311.167 281.77L311.433 281.929L311.699 282.089L311.965 282.248L312.23 282.408L312.496 282.568L312.762 282.727L313.028 282.887L313.294 283.046L313.559 283.206L313.808 283.365L314.056 283.507L314.41 283.809L314.8 284.146L315.19 284.465L315.562 284.784L315.934 285.103L316.306 285.422L316.678 285.741L317.051 286.06L317.405 286.38L317.759 286.699L318.114 287.018L318.468 287.337L318.823 287.674L319.177 288.011L319.549 288.348L319.922 288.702L320.311 289.057L320.719 289.429L321.127 289.802L321.552 290.192L321.995 290.564L322.42 290.954L322.846 291.326L323.253 291.699L323.643 292.053L324.015 292.408L324.387 292.745L324.742 293.082L325.096 293.418L325.451 293.773L325.823 294.128L326.195 294.5L326.585 294.89L326.993 295.298L327.4 295.723L327.808 296.149L328.215 296.575L328.623 297L329.031 297.426L329.438 297.833L329.828 298.241L330.218 298.649L330.608 299.057L330.998 299.465L331.388 299.872L331.813 300.298L332.238 300.723L332.646 301.149L333.053 301.557L333.461 301.965L333.869 302.372L334.258 302.78L334.648 303.188L335.038 303.596L335.41 304.004L335.8 304.429L336.208 304.872L336.616 305.333L337.041 305.812L337.466 306.291L337.891 306.787L338.317 307.284L338.724 307.78L339.132 308.259L339.54 308.738L339.912 309.199L340.284 309.642L340.656 310.085L341.01 310.528L341.365 310.954L341.719 311.379L342.074 311.805L342.446 312.23L342.818 312.656L343.19 313.099L343.562 313.542L343.952 313.986L344.36 314.447L344.768 314.908L345.175 315.386L345.583 315.865L345.99 316.344L346.398 316.84L346.806 317.319L347.195 317.798L347.585 318.276L347.958 318.755L348.33 319.234L348.702 319.695L349.056 320.156L349.411 320.599L349.765 321.042L350.12 321.486L350.474 321.929L350.828 322.372L351.183 322.798L351.52 323.223L351.856 323.631L352.175 324.039L352.494 324.447L352.813 324.854L353.132 325.262L353.451 325.67L353.77 326.078L354.089 326.503L354.426 326.947L354.763 327.408L355.117 327.886L355.472 328.365L355.844 328.844L356.216 329.34L356.588 329.837L356.978 330.333L357.35 330.812L357.722 331.29L358.094 331.769L358.467 332.212L358.821 332.656L359.175 333.099L359.53 333.524L359.884 333.968L360.239 334.411L360.575 334.854L360.912 335.297L361.249 335.741L361.568 336.184L361.887 336.627L362.206 337.071L362.525 337.514L362.826 337.975L363.145 338.436L363.446 338.897L363.748 339.376L364.049 339.854L364.35 340.333L364.651 340.812L364.953 341.29L365.254 341.769L365.555 342.248L365.857 342.727L366.158 343.188L366.441 343.649L366.725 344.11L367.008 344.553L367.292 344.996L367.575 345.457L367.859 345.918L368.143 346.379L368.426 346.858L368.71 347.336L369.011 347.815L369.312 348.312L369.614 348.826L369.933 349.34L370.251 349.854L370.553 350.386L370.854 350.918L371.155 351.45L371.439 351.964L371.722 352.478L371.988 352.992L372.254 353.489L372.502 353.968L372.733 354.446L372.963 354.925L373.193 355.386L373.406 355.847L373.619 356.29L373.831 356.733L374.044 357.177L374.257 357.602L374.469 358.028L374.682 358.436L374.895 358.826L375.107 359.198L375.302 359.553L375.497 359.907L375.692 360.226L375.887 360.545L376.064 360.847L376.241 361.131L376.419 361.414L376.578 361.698L376.738 361.964L376.897 362.23L377.057 362.496L377.216 362.762L377.376 363.028L377.535 363.294L377.712 363.56L377.872 363.826L378.049 364.092L378.226 364.358L378.404 364.624L378.581 364.872L378.758 365.12L378.935 365.368L379.13 365.616L379.307 365.865L379.485 366.095L379.662 366.326L379.821 366.538L379.999 366.751L380.158 366.964L380.317 367.159L380.477 367.354L380.619 367.549L380.778 367.744L380.92 367.939L381.062 368.134L381.204 368.329L381.328 368.524L381.452 368.719L381.469 368.755C374.664 379.747 368.036 390.847 361.302 401.875C348.968 423.258 337.023 444.871 325.451 466.679C318.557 479.693 311.716 492.796 306.347 506.519C302.962 515.899 300.569 525.579 298.088 535.225C307.942 517.512 318.841 500.083 328.747 482.282C347.071 447.513 366.051 413.045 386.946 379.747C398.181 361.379 408.867 342.212 424.445 327.106C434.44 318.631 446.172 312.284 456.752 304.039C458.772 302.514 461.537 300.723 461.2 297.993C466.552 293.082 469.972 286.043 472.294 279.004C473.162 279.695 474.066 280.351 474.952 280.972C486.985 289.412 501.021 294.305 514.826 299.004C524.555 301.876 534.249 305.174 544.28 306.84C546.176 307.159 547.913 307.213 549.472 307.053C548.108 312.213 547.984 318.791 548.338 324.057C543.872 331.113 550.075 354.73 551.634 361.006C554.346 370.74 556.596 380.545 558.351 390.51C567.088 428.417 559.113 467.14 549.703 504.179C543.589 526.608 536.784 548.948 527.568 570.313C517.945 592.423 505.948 613.38 494.269 634.426C479.259 660.152 464.283 686.234 445.126 709.141C434.635 720.648 422.974 731.482 411.969 742.794C409.346 743.432 406.688 744.017 404.012 744.62C387.654 748.183 372.077 752.297 355.046 753.449C351.644 753.662 348.471 753.804 345.494 753.804C332.15 753.786 322.456 751.056 311.911 740.63Z" fill="white"/>
<path id="Skin" d="M560.23 142.32C561.009 144.147 560.229 146.646 559.308 148.278C556.738 151.292 552.645 151.948 549.153 153.384C543.784 155.405 538.29 157.426 533.594 160.795C531.892 162.072 529.766 163.579 528.951 165.707C528.259 168.118 528.118 170.671 527.338 173.065C526.115 177.267 523.687 182.515 524.431 186.947C523.368 188.791 523.9 191.185 524.396 193.242C526.221 199.571 528.986 205.635 532.991 210.883C540.913 222.816 549.118 237.355 548.25 252.355C547.736 260.741 546.85 269.145 545.095 277.372C542.915 283.613 542.738 289.996 543.536 296.468C534.373 294.766 525.601 291.521 516.634 288.702C506.018 284.996 495.563 280.723 485.851 275.014C485.266 274.713 484.717 274.376 484.185 274.003C484.398 273.702 484.593 273.383 484.752 273.099C485.975 270.847 485.302 268.081 485.107 265.67C484.965 248.95 472.436 236.38 465.294 222.178C455.511 203.49 446.367 184.235 441.351 163.65C437.275 151.469 440.572 138.703 442.273 126.381C443.336 119.945 444.063 112.587 445.215 105.619C446.686 96.4874 448.352 87.374 449.752 78.2429C450.904 71.5231 452.126 64.8211 451.294 58.0835C453.03 54.6616 455.068 51.2041 458.932 53.9523C465.613 62.6579 464.213 74.9273 464.851 85.3528C464.691 89.874 465.489 94.5194 467.775 98.4555C462.122 104.111 459.818 110.459 457.496 120.672C455.919 126.735 455.104 132.923 454.058 139.076C453.633 141.505 452.818 144.377 454.962 146.239C456.681 147.87 459.499 146.859 460.491 144.891C461.909 140.778 462.565 136.381 463.663 132.143C465.63 124.608 467.349 116.948 470.327 109.75C471.975 106.328 475.094 103.987 478.018 101.7C482.2 98.6327 486.879 95.9377 491.504 93.1718C496.449 90.7959 510.254 79.4841 515.003 81.9486C521.383 86.8244 506.125 99.4484 503.36 104.2C501.73 106.434 499.993 108.668 498.451 110.973C497.778 111.239 497.104 111.523 496.449 111.824C488.864 114.555 485.302 121.895 482.998 129.111C481.013 134.82 477.079 142.019 480.889 147.657C480.889 147.675 480.907 147.657 480.907 147.639C480.907 147.639 480.907 147.639 480.924 147.622V147.604C483.937 145.636 485.869 142.48 486.737 139.022C488.155 134.466 489.856 129.944 491.947 125.636C497.335 113.172 528.313 114.094 540.47 112.427C541.728 112.427 543.039 112.214 544.298 112.516C545.981 114.413 545.042 117.462 544.085 119.519C542.206 123.881 537.315 125.14 533.204 126.469C527.568 128.437 521.809 130.015 516.226 132.108C509.456 134.483 505.221 137.533 504.264 143.1C502.97 145.937 501.978 148.934 501.606 152.001C501.499 154.341 501.499 157.09 502.12 159.554C501.854 160.653 501.942 161.682 502.51 162.586C502.988 163.118 503.52 163.437 504.069 163.579C504.388 163.969 504.742 164.324 505.15 164.643C505.239 164.306 505.345 163.969 505.434 163.65C507.294 163.366 509.155 161.699 510.148 160.192C511.884 158.136 513.71 156.132 515.588 154.217C521.56 147.675 529.783 143.544 538.698 142.941C544.776 142.391 551.705 141.239 558.316 141.859C558.847 141.983 559.503 142.161 560.23 142.32Z" fill="#B7B5B5"/>
<g id="Phone">
<path d="M504.016 74.9812C501.588 76.1691 499.249 77.5698 497.087 78.7578C490.353 82.7825 483.796 87.091 477.186 91.2931C475.466 92.3569 473.907 93.3853 472.507 94.4314C475.466 86.7719 473.517 77.4457 473.18 69.3607C472.649 58.1551 465.365 39.1837 451.205 46.0099C448.263 47.4638 442.876 55.141 443.284 59.7687C441.83 62.2332 441.299 65.1409 440.998 67.9954C439.775 76.3642 438.534 84.5556 437.329 92.747C435.025 89.9102 432.792 87.0378 430.949 83.8464C433.413 66.7721 439.349 21.9321 449.77 9.82227C455.21 14.5917 458.436 20.0704 463.256 25.815C473.889 39.556 485.763 52.2332 496.555 65.8146C498.93 68.9174 501.305 72.1443 504.016 74.9812Z" fill="white"/>
<path d="M550.182 128.456C551.28 129.892 552.432 131.293 553.584 132.693C552.149 132.818 550.713 132.977 549.296 133.03C543.855 133.828 538.184 134.094 532.743 135.158C538.769 133.438 545.202 131.683 549.189 126.825C549.42 127.445 549.756 128.013 550.182 128.456Z" fill="white"/>
<path d="M527.126 101.133C528.419 102.41 529.536 103.829 530.688 105.211C524.166 105.832 517.556 106.293 511.105 107.445C515.358 103.953 518.725 99.3781 521.809 94.8214C523.333 97.0732 525.46 98.9703 527.126 101.133Z" fill="white"/>
<path d="M512.47 143.066C516.049 140.903 520.037 139.271 524.06 137.906C519.824 139.839 515.837 142.392 512.665 145.92C512.168 146.523 511.477 147.25 510.662 148.083C511.176 146.47 511.743 144.856 512.381 143.278C512.416 143.207 512.434 143.137 512.47 143.066Z" fill="white"/>
<path d="M567.655 150.867C567.779 159.289 563.863 167.463 560.637 175.087C556.083 185.175 551.316 195.175 547.169 205.441C546.371 207.498 545.556 209.554 544.67 211.593C539.744 204.253 533.346 197.498 531.857 188.491C531.822 188.136 531.716 187.817 531.592 187.516C531.928 186.665 532.159 185.92 532.212 185.548C533.24 180.069 535.065 174.75 536.483 169.36C540.399 165.69 545.68 163.863 550.554 161.789C555.622 159.927 561.293 159.076 565.068 154.839C566.167 153.739 567.035 152.356 567.655 150.867C567.655 150.849 567.655 150.849 567.655 150.867Z" fill="white"/>
</g>
<g id="Outline">
<path d="M240.778 665.295C219.441 628.008 204.767 587.015 198.937 544.374C193.726 508.594 192.982 472.194 198.83 436.432C201.737 418.347 204.466 400.155 209.641 382.567C214.869 364.925 222.276 348.028 231.066 331.876C241.469 312.816 252.457 293.756 267.556 277.994C270.001 275.245 272.482 272.515 274.963 269.784L275.087 269.802L276.062 269.979L276.275 270.015L276.47 270.068L276.895 270.139L277.746 270.352L278.667 270.565L278.915 270.635L279.146 270.689L279.394 270.742L279.854 270.848L280.103 270.901L280.351 270.972L284.817 271.93L284.994 271.965C282.247 275.281 279.518 278.579 276.718 281.841C257.1 304.199 242.993 330.777 230.925 357.798C220.61 381.219 215.648 406.396 212.139 431.609C208.666 454.889 206.468 478.488 208.099 502.016C210.651 543.044 218.431 583.983 234.38 621.997C246.289 648.522 261.158 673.699 278.366 697.138C282.672 703.096 287.333 708.752 292.171 714.301C303.495 727.368 312.64 741.092 321.199 755.577C284.994 735.649 261.335 700.046 240.778 665.295Z" fill="black"/>
<path d="M344.646 765.471C326.233 764.903 313.668 757.474 302.84 742.865C298.746 738.095 304.966 732.652 308.989 737.563C323.096 753.184 335.04 754.709 355.084 753.432C372.114 752.28 387.692 748.166 404.049 744.602C413.885 742.421 423.454 740.205 432.634 736.34C429.214 740.081 425.28 743.751 421.027 746.712C408.054 756.145 392.264 760.453 376.633 762.918C366.071 764.584 355.367 765.967 344.646 765.471Z" fill="black"/>
<path d="M544.353 306.841C534.322 305.174 524.628 301.876 514.899 299.004C501.094 294.305 487.058 289.412 475.025 280.972C472.881 279.43 470.506 277.781 469.017 275.547C466.182 271.841 467.351 264.838 472.739 264.536C474.121 264.465 475.663 265.068 476.159 266.451C479.331 269.394 481.901 272.923 485.835 274.997C495.547 280.688 506.003 284.979 516.618 288.685C527.304 292.071 537.725 295.99 548.836 297.266C548.181 296.025 547.117 294.997 546.905 293.596C546.55 290.848 549.12 288.72 551.743 289.607C563.475 297.515 558.052 309.146 544.353 306.841Z" fill="black"/>
<path d="M549.226 330.83C547.738 323.436 546.621 300.795 555.996 298.632C556.368 298.614 556.811 299.235 557.006 299.465C561.986 305.812 553.568 324.997 549.226 330.83Z" fill="black"/>
<path d="M456.435 301.504C455.637 292.515 459.217 283.898 463.718 276.309C465.313 273.916 465.792 270.476 468.45 269.004C470.984 267.745 474.192 269.784 474.21 272.604C471.481 283.401 466.66 295.848 456.435 301.504Z" fill="black"/>
<path d="M398.644 757.404C412.999 740.453 430.277 725.453 445.181 709.124C464.339 686.216 479.314 660.135 494.324 634.408C506.003 613.363 518.018 592.405 527.623 570.296C536.857 548.931 543.662 526.608 549.758 504.179C559.168 467.141 567.143 428.435 558.406 390.51C556.652 380.546 554.401 370.741 551.69 361.007C549.935 353.862 542.102 324.199 550.928 322.16C557.237 322.071 554.064 329.199 554.543 333.046C555.925 349.855 563.351 365.422 566.151 381.964C569.057 396.609 571.875 411.396 571.609 426.396C571.361 446.751 567.692 466.91 563.652 486.821C556.953 516.573 548.624 546.094 537.299 574.427C525.39 602.76 509.494 629.231 494.608 656.075C471.179 696.872 444.437 739.709 398.644 757.404Z" fill="black"/>
<path d="M298.161 535.225C300.66 525.58 303.035 515.899 306.42 506.538C311.807 492.814 318.63 479.711 325.524 466.697C337.096 444.889 349.04 423.276 361.375 401.893C371.689 384.996 381.737 367.957 392.565 351.397C401.036 339.181 409.773 326.699 421.434 317.302C432.298 309.288 444.402 302.798 455.513 295.174C457.392 294.022 460.156 294.784 460.989 296.894C462.354 300.263 459.111 302.337 456.842 304.057C446.263 312.302 434.531 318.667 424.535 327.124C408.958 342.231 398.272 361.415 387.036 379.766C366.16 413.081 347.162 447.549 328.838 482.3C318.913 500.101 308.014 517.53 298.161 535.225Z" fill="black"/>
<path d="M481.387 275.635C478.587 275.245 477.134 271.912 477.027 269.536C476.212 264.855 475.964 259.98 474.157 255.547C469.602 245.902 462.602 237.657 457.463 228.313C452.341 220.104 448.407 211.239 444.65 202.338C439.776 191.487 435.31 179.963 432.564 168.42C430.685 161.647 428.789 154.732 429.551 147.64C430.206 139.981 431.766 131.453 432.812 124.165C435.399 104.857 438.199 86.8961 440.964 68.0134C441.336 64.5205 442.045 60.9567 444.384 58.1908C445.979 56.1341 447.875 54.3256 450.498 53.7937C450.551 53.8115 450.533 54.0064 450.551 54.0419C452.625 62.1269 451.136 70.1588 449.754 78.226C448.354 87.3749 446.688 96.4705 445.217 105.602C444.065 112.57 443.321 119.928 442.257 126.364C440.574 138.686 437.26 151.452 441.336 163.633C446.351 184.218 455.495 203.491 465.278 222.161C472.42 236.363 484.932 248.934 485.091 265.653C485.286 268.065 485.959 270.831 484.737 273.082C484.116 274.288 482.911 275.795 481.387 275.635Z" fill="black"/>
<path d="M454.964 146.222C452.82 144.36 453.635 141.488 454.06 139.059C455.106 132.889 455.921 126.718 457.498 120.655C460.83 106.063 464.126 99.3428 477.187 91.311C483.797 87.0912 490.354 82.7827 497.089 78.7756C503.486 75.2473 511.443 69.8396 518.816 73.6693C525.816 77.7118 527.641 87.4812 522.52 93.7578C518.319 100.017 513.729 106.453 507.066 110.247C503.717 112.144 500.101 113.35 496.397 114.343C498.276 110.779 500.952 107.499 503.345 104.201C506.127 99.4492 521.385 86.8253 514.988 81.9494C510.238 79.4849 496.433 90.7968 491.489 93.1727C486.881 95.9386 482.202 98.6336 478.002 101.701C475.078 103.97 471.959 106.329 470.311 109.751C467.334 116.967 465.615 124.626 463.648 132.144C462.531 136.364 461.893 140.761 460.475 144.892C459.501 146.825 456.683 147.853 454.964 146.222Z" fill="black"/>
<path d="M504.461 149.839C502.529 139.697 507.048 135.282 516.175 132.073C521.757 129.981 527.517 128.403 533.153 126.453C537.282 125.123 542.155 123.846 544.034 119.502C544.991 117.446 545.93 114.396 544.246 112.499C543.006 112.197 541.694 112.41 540.419 112.41C528.261 114.077 497.284 113.155 491.896 125.619C489.823 129.928 488.121 134.449 486.686 139.023C485.818 142.481 483.886 145.654 480.855 147.605C480.855 147.623 480.855 147.623 480.838 147.64C480.838 147.658 480.82 147.658 480.82 147.658C477.01 142.002 480.944 134.804 482.929 129.094C485.233 121.896 488.795 114.556 496.38 111.825C507.527 106.719 519.968 106.275 531.983 105.088C537.087 104.822 542.421 103.226 547.436 104.786C555.464 108.279 554.472 119.414 550.112 125.513C545.363 132.8 535.74 133.988 528.173 136.559C519.4 139.289 510.345 142.658 504.461 149.839Z" fill="black"/>
<path d="M505.099 164.608C501.519 161.736 501.377 156.222 501.572 151.966C502.122 147.605 503.912 143.385 506.021 139.555C507.314 137.658 510.203 137.073 511.815 138.881C513.056 140.247 512.897 142.144 512.4 143.279C511.514 145.459 510.752 147.676 510.132 149.963C509.104 155.016 506.393 159.768 505.099 164.608Z" fill="black"/>
<path d="M502.458 162.551C499.499 157.871 509.778 149.449 512.666 145.92C516.352 141.807 521.155 139.023 526.17 136.984C533.489 134.218 541.606 134.148 549.297 133.031C553.214 132.853 557.361 131.931 561.171 133.19C564.892 134.608 566.576 139.626 564.201 142.871C562.234 142.782 559.895 142.303 558.247 141.789C551.654 141.169 544.707 142.339 538.629 142.871C529.715 143.474 521.492 147.605 515.519 154.147C513.641 156.062 511.816 158.066 510.079 160.122C508.555 162.498 504.922 165.229 502.458 162.551Z" fill="black"/>
<path d="M527.659 192.161C521.297 187.374 525.585 179.129 527.34 173.066C528.102 170.654 528.244 168.101 528.953 165.708C529.785 163.58 531.912 162.073 533.596 160.796C538.292 157.427 543.786 155.424 549.155 153.385C552.647 151.949 556.74 151.293 559.328 148.279C560.338 146.488 561.171 143.651 559.966 141.807C556.652 138.74 560.692 133.562 564.485 136.009C570.315 140.105 569.854 150.087 565.087 154.839C561.312 159.076 555.642 159.91 550.573 161.789C545.7 163.864 540.436 165.672 536.502 169.342C535.066 174.732 533.259 180.051 532.231 185.53C531.965 186.931 529.342 193.704 527.659 192.161Z" fill="black"/>
<path d="M543.91 299.128C542.722 291.717 542.598 284.447 545.079 277.338C546.851 269.111 547.72 260.724 548.234 252.32C549.12 237.303 540.915 222.781 532.975 210.831C528.952 205.583 526.206 199.519 524.38 193.19C523.76 190.69 523.14 187.622 525.39 185.761C527.676 183.739 531.487 185.565 531.841 188.455C533.436 198.083 540.649 205.14 545.646 213.101C550.803 221.629 555.11 230.778 557.361 240.512C559.186 249.395 557.91 258.579 556.847 267.497C555.004 278.455 554.454 292.798 543.91 299.128Z" fill="black"/>
<path d="M468.929 100.194C465.774 95.9387 464.675 90.5664 464.87 85.3359C464.25 74.9105 465.632 62.6235 458.951 53.9179C453.333 49.9108 451.579 59.0065 448.974 62.0915C447.928 63.049 446.351 63.3503 445.075 62.6943C439.705 59.8397 447.414 47.8363 451.189 45.9924C465.367 39.1662 472.65 58.1376 473.164 69.3432C473.607 79.609 476.62 91.8784 468.929 100.194Z" fill="black"/>
<path d="M436.994 103.598C432.067 98.0663 425.688 92.3749 422.941 85.4423C422.905 79.1658 424.553 72.8716 425.298 66.6305C427.194 53.776 429.515 40.9569 432.67 28.3507C434.672 20.7621 436.303 12.8898 440.556 6.18778C448.513 -5.40785 456.878 1.31199 463.594 9.89346C469.106 16.631 474.405 23.5458 479.845 30.3542C488.033 40.4605 496.522 50.3186 504.585 60.5135C507.403 64.5915 512.276 67.5169 513.818 72.3218C514.81 77.1622 509.742 79.5559 505.967 76.914C502.405 73.6694 499.463 69.6269 496.486 65.8326C485.676 52.2512 473.802 39.574 463.187 25.833C458.384 20.0884 455.159 14.6097 449.701 9.84022C439.28 21.95 433.361 66.7723 430.898 83.8643C433.999 89.2543 438.217 93.7401 442.009 98.6159C443.055 99.9102 443.126 101.541 442.257 102.942C441.194 104.697 438.483 105.034 436.994 103.598Z" fill="black"/>
<path d="M533.791 108.616C531.38 106.329 529.52 103.492 527.145 101.134C525.071 98.4563 522.307 96.2046 520.871 93.1018C519.826 90.4245 521.261 87.0026 524.557 88.0309C527.517 88.7047 529.094 91.5592 531.008 93.6337C533.844 96.9315 536.644 99.9279 539.621 102.924C542.988 106.843 537.672 112.038 533.791 108.616Z" fill="black"/>
<path d="M543.927 223.597C541.305 222.019 541.11 218.526 542.616 216.097C544.317 212.64 545.788 209.023 547.171 205.423C551.317 195.157 556.085 185.158 560.639 175.069C563.882 167.445 567.781 159.271 567.675 150.849C562.73 142.747 555.978 135.92 550.201 128.438C548.021 126.133 548.128 120.672 552.416 121.719C555.73 122.463 557.29 125.921 559.629 128.084C563.634 132.552 567.728 136.949 571.432 141.665C576.429 147.339 577.032 152.569 574.817 159.679C572.849 167.87 570.049 175.796 566.629 183.473C563.156 191.948 558.902 201.239 555.783 209.501C554.419 213.172 552.859 216.753 551.406 220.37C550.502 223.455 546.745 225.352 543.927 223.597Z" fill="black"/>
<path d="M243.986 315.546C241.203 312.834 244.127 309.004 245.563 306.362C252.474 293.561 261.176 281.221 271.508 271.079C275.247 266.15 281.964 271.451 277.498 275.866C269.044 283.916 261.424 293.082 254.991 302.834C253.36 305.44 251.836 308.117 250.224 310.759C249.019 312.958 247.051 316.788 243.986 315.546Z" fill="black"/>
</g>
</g>
</svg>
