<svg width="358" height="989" viewBox="0 0 358 989" fill="none" xmlns="http://www.w3.org/2000/svg">
<g id="Right Arm / Straight">
<path id="Vector" d="M246.521 544.099C246.502 544.135 246.502 544.153 246.484 544.171C246.502 544.135 246.521 544.117 246.521 544.099Z" fill="white"/>
<path id="Vector_2" d="M246.502 544.152C246.502 544.17 246.484 544.188 246.484 544.207V544.225C246.484 544.207 246.484 544.189 246.502 544.152Z" fill="white"/>
<path id="Vector_3" d="M246.147 544.985C246.129 545.021 246.111 545.056 246.111 545.091C246.129 545.056 246.129 545.021 246.147 544.985Z" fill="white"/>
<path id="Vector_4" d="M246.11 545.092C246.075 545.18 246.039 545.251 246.004 545.321C246.039 545.251 246.075 545.162 246.11 545.092Z" fill="white"/>
<path id="Vector_5" d="M237.782 547.148C237.782 547.167 237.764 547.185 237.764 547.203C237.782 547.185 237.782 547.167 237.782 547.148Z" fill="white"/>
<path id="Vector_6" d="M237.764 547.219C237.764 547.201 237.764 547.201 237.782 547.201C237.782 547.219 237.764 547.237 237.764 547.256C237.746 547.237 237.764 547.237 237.764 547.219Z" fill="white"/>
<path id="Vector_7" d="M237.391 548.124C237.391 548.124 237.391 548.105 237.409 548.105C237.409 548.124 237.391 548.124 237.391 548.124Z" fill="white"/>
<path id="Vector_8" d="M237.286 548.389C237.286 548.372 237.286 548.372 237.286 548.389C237.304 548.372 237.304 548.372 237.286 548.389Z" fill="white"/>
<path id="Vector_9" d="M289.334 4.7958C288.199 5.91281 287.065 7.02986 285.949 8.1646C268.936 25.8949 255.503 48.7315 243.629 69.0859C229.328 93.5006 217.968 120.22 207.246 146.231C193.476 180.964 179.706 215.734 167.815 251.159C158.157 279.651 149.597 308.498 138.822 336.601C125.726 372.363 111.566 407.735 97.7784 443.213C97.548 443.869 97.3177 444.508 97.0873 445.164C97.0696 445.181 97.0696 445.199 97.0696 445.217C96.9278 445.66 96.7683 446.103 96.591 446.547C96.591 446.547 96.5733 446.564 96.591 446.564C94.234 453.284 91.9834 460.039 89.8213 466.83L89.7682 466.795L89.4137 466.547L88.4567 465.891L88.4036 465.855L85.5857 463.922L84.5402 463.195L83.2466 462.291L81.5275 461.085L81.244 460.89L81.1199 460.802L80.7832 460.554L83.087 454.313L86.4542 445.199L88.3858 439.969L91.3277 431.99L95.51 420.696L104.406 396.6L164.04 235.13L235.867 62.774L284.336 3.21777L289.334 4.7958Z" fill="white"/>
<path id="Vector_10" d="M352.424 343.905L352.406 344.615L260.341 532.201L254.032 545.073L253.022 547.13L252.827 547.502L251.888 549.435L247.635 557.095L247.351 557.609L244.321 563.052L238.295 573.903L237.941 573.584L236.133 572.024L235.779 571.722L235.371 571.368C235.531 570.96 235.708 570.534 235.867 570.109C235.974 569.843 236.08 569.577 236.186 569.293C236.346 568.868 236.505 568.442 236.682 568.017C237.32 566.368 237.941 564.719 238.579 563.087C239.199 561.527 239.819 559.967 240.44 558.424C240.953 557.148 241.485 555.853 242.035 554.577C242.141 554.311 242.247 554.045 242.371 553.779V553.761C242.389 553.744 242.389 553.726 242.407 553.708C242.442 553.637 242.46 553.584 242.495 553.513C242.513 553.478 242.513 553.46 242.531 553.425C242.584 553.3 242.637 553.159 242.69 553.017C243.771 550.446 244.923 547.91 246.004 545.339C246.04 545.268 246.075 545.18 246.111 545.109C246.128 545.073 246.146 545.038 246.146 545.02C246.146 545.003 246.146 545.003 246.164 544.985C246.27 544.737 246.376 544.488 246.465 544.258C246.465 544.24 246.483 544.222 246.483 544.205C246.483 544.187 246.5 544.169 246.518 544.134C246.518 544.134 246.518 544.134 246.518 544.116C246.536 544.081 246.554 544.063 246.554 544.027C246.589 543.956 246.624 543.868 246.66 543.797C247.546 541.705 248.343 539.595 249.176 537.485C250.257 534.737 251.374 531.989 252.49 529.258C252.614 528.974 252.721 528.673 252.845 528.389C254.068 525.357 255.202 522.308 256.354 519.258C257.488 516.244 258.746 513.301 259.809 510.251C259.969 509.79 260.128 509.329 260.288 508.886V508.868C260.43 508.585 260.554 508.301 260.696 508.017C260.89 507.609 261.103 507.184 261.298 506.776C261.706 505.943 262.113 505.109 262.485 504.258C262.68 503.833 262.858 503.407 263.053 502.982C263.815 501.191 264.506 499.365 265.339 497.627C265.764 496.811 266.207 496.014 266.668 495.234C266.792 495.092 266.881 494.95 266.969 494.79C267.005 494.719 267.058 494.631 267.093 494.542C267.2 494.312 267.27 494.063 267.306 493.815C267.341 493.62 267.359 493.425 267.359 493.212C267.359 493.088 267.359 492.946 267.341 492.822C281.731 461.564 296.352 430.429 312.904 400.288C324.742 380.607 338.069 361.653 352.424 343.905Z" fill="white"/>
<path id="Vector_11" d="M85.6046 463.922L81.5463 461.085L77.6297 458.301L74.3867 455.926C79.9868 439.188 86.278 422.681 93.4022 406.494C110.415 364.756 126.542 322.629 140.33 279.722C154.099 236.282 169.819 193.517 186.637 151.159C192.006 137.418 197.624 123.766 202.905 110.858C208.116 97.6668 213.964 82.5605 221.159 70.9294C231.544 53.27 240.422 34.3695 254.05 18.891C260.023 12.2598 266.438 6.08972 273.314 0.416016L281.626 2.4018L289.299 4.8131C288.165 5.93011 287.031 7.04716 285.914 8.1819C268.901 25.9122 255.468 48.7488 243.595 69.1032C229.293 93.5179 217.933 120.238 207.212 146.248C193.442 180.982 179.672 215.751 167.781 251.176C158.122 279.668 149.563 308.516 138.788 336.618C125.691 372.38 111.532 407.752 97.7441 443.231C94.9617 451.05 92.3211 458.94 89.8046 466.847L85.6046 463.922Z" fill="black"/>
<path id="Vector_12" d="M246.572 543.992C246.555 544.028 246.555 544.045 246.537 544.081C246.537 544.045 246.555 544.028 246.572 543.992Z" fill="black"/>
<path id="Vector_13" d="M246.521 544.099C246.502 544.135 246.502 544.153 246.484 544.171C246.502 544.135 246.521 544.117 246.521 544.099Z" fill="black"/>
<path id="Vector_14" d="M246.502 544.152C246.502 544.17 246.484 544.188 246.484 544.207V544.225C246.484 544.207 246.484 544.189 246.502 544.152Z" fill="black"/>
<path id="Vector_15" d="M241.753 576.971L237.96 573.567L235.391 571.315C236.489 568.567 237.517 565.801 238.598 563.053C239.839 559.914 241.097 556.829 242.391 553.727C242.408 553.709 242.408 553.674 242.426 553.656C242.462 553.567 242.515 553.478 242.55 553.372C242.603 553.248 242.657 553.106 242.71 552.964C243.844 550.269 245.049 547.61 246.183 544.915C246.13 545.039 246.077 545.163 246.024 545.287C246.183 544.915 246.343 544.542 246.502 544.17C246.52 544.134 246.538 544.099 246.538 544.064C246.538 544.064 246.538 544.046 246.555 544.028C246.573 543.993 246.573 543.957 246.591 543.939C246.626 543.851 246.662 543.78 246.697 543.691V543.709C247.583 541.617 248.398 539.489 249.214 537.379C250.419 534.33 251.659 531.298 252.882 528.284C254.105 525.252 255.239 522.202 256.391 519.152C257.525 516.138 258.783 513.195 259.847 510.146C260.006 509.685 260.166 509.223 260.325 508.762C260.467 508.479 260.591 508.195 260.733 507.911C261.548 506.245 262.381 504.578 263.108 502.876C263.87 501.085 264.561 499.259 265.394 497.522C265.819 496.706 266.262 495.908 266.723 495.128C267.272 494.472 267.503 493.568 267.396 492.717C281.786 461.458 296.407 430.324 312.959 400.182C325.223 379.845 339.116 360.2 354.074 341.885C345.425 366.335 334.544 389.987 323.628 413.498C297.878 466.582 273.085 520.128 247.335 573.23C246.378 575.269 245.386 577.29 244.393 579.312L241.753 576.971Z" fill="black"/>
<path id="Vector_16" d="M216.392 635.198L204.43 656.704L203.012 659.275L200.567 663.655L199.964 664.736L183.022 695.232L149.351 710.995L140.915 743.512L140.295 743.654L136.378 744.522L107.687 750.923L74.9545 746.739L45.04 724.948L44.0831 724.257L42.9489 723.441L42.7362 723.282L43.7641 719.931L52.0934 692.661L34.7969 643.992L56.4884 531.475L57.7289 525.039L58.8985 521.865L59.6252 522.397L59.8909 522.592L60.3695 522.929L61.5745 523.78L63.6657 525.252L66.9265 527.486L67.8835 528.142H67.9012L67.9544 528.177C67.8127 528.709 67.6 529.276 67.3519 529.808C58.9694 556.528 52.2174 583.726 47.3262 611.244C42.3464 631.403 40.716 653.176 49.5769 672.537C51.8276 677.591 54.4503 682.466 56.258 687.112C57.8707 694.434 56.1517 702.342 53.5643 709.275C51.9516 713.477 49.6655 717.324 47.3262 721.154C47.1136 721.526 46.9009 721.934 46.6705 722.342C48.5313 723.938 50.4807 725.445 52.4478 726.916C65.4911 736.349 80.4837 742.555 96.327 744.257C102.53 744.771 108.803 744.948 114.988 744.079C121.333 743.086 127.358 740.799 133.543 739.221C134.376 739.115 135.209 739.203 135.988 739.452C136.112 738.14 136.307 736.863 136.272 735.799C136.573 728.636 139.373 720.746 141.837 714.576C142.758 712.058 143.573 709.488 144.619 707.023C145.54 704.895 147.791 703.637 149.599 702.324C156.563 697.041 164.981 694.346 172.354 689.789C175.402 687.732 178.007 685.268 180.311 682.537C180.346 682.52 180.364 682.502 180.399 682.466H180.417C180.488 682.413 180.577 682.36 180.647 682.289C180.736 682.218 180.807 682.165 180.878 682.076C181.658 681.279 182.26 680.357 182.863 679.435C183.04 679.169 183.217 678.903 183.394 678.619C183.465 678.53 183.518 678.424 183.589 678.318C183.873 677.874 184.156 677.413 184.44 676.952C184.794 676.385 185.131 675.818 185.485 675.25C186.318 673.956 187.169 672.662 187.967 671.35C188.162 671.048 188.356 670.729 188.534 670.428C190.217 667.662 191.865 664.878 193.407 662.041C194.914 659.293 196.331 656.509 197.82 653.743C198.245 652.945 198.671 652.13 199.078 651.332C199.291 650.924 199.503 650.516 199.716 650.109C199.929 649.718 200.124 649.311 200.336 648.921C200.779 648.087 201.222 647.254 201.666 646.421C202.055 645.694 202.428 644.949 202.8 644.222C203.101 643.655 203.385 643.07 203.686 642.485C204.023 641.846 204.377 641.226 204.714 640.587C204.838 640.339 204.962 640.073 205.086 639.825C205.192 639.506 205.316 639.204 205.44 638.885C206.415 636.811 207.425 634.754 208.435 632.68C208.4 632.768 208.364 632.839 208.329 632.928C208.79 631.988 209.286 631.066 209.782 630.144C209.853 630.003 209.924 629.861 209.995 629.719L210.066 629.772L210.154 629.843L210.509 630.144L212.033 631.439L215.294 634.293L215.453 634.435L215.595 634.559L216.003 634.914L216.392 635.198Z" fill="white"/>
<path id="Vector_17" d="M39.9179 726.721C38.1988 725.888 37.3481 723.866 37.9507 722.04C41.0165 712.058 45.6242 702.732 44.9331 692.253C29.1075 676.118 23.0644 651.97 25.1733 629.842C27.2822 615.64 30.5253 601.598 32.8114 587.396C37.0469 569.364 41.7964 551.439 47.2192 533.726C47.7332 532.858 48.0522 531.847 48.1231 530.801C48.1408 530.748 48.1585 530.694 48.1762 530.641C48.4066 530.003 48.6547 529.365 48.9028 528.726C49.2927 527.663 49.6116 526.581 49.9129 525.482C50.0547 524.95 50.1965 524.4 50.3383 523.868C51.0472 521.652 51.7737 519.453 52.5181 517.255L55.7612 519.631L59.6776 522.414L63.736 525.251L67.9538 528.141C59.3233 555.393 52.3763 583.159 47.3964 611.261C42.3989 631.42 40.7862 653.193 49.6471 672.555C51.8978 677.608 54.5207 682.484 56.3283 687.129C57.9587 694.452 56.2219 702.359 53.6345 709.292C52.0218 713.494 49.718 717.342 47.3964 721.171C46.0318 723.565 44.4546 727.129 41.6368 727.129C41.0875 727.111 40.5381 726.987 39.9179 726.721Z" fill="black"/>
<path id="Vector_18" d="M96.3078 757.093C78.6923 755.373 61.0413 748.777 47.7854 736.845C44.4537 733.423 32.5446 722.164 41.6536 719.557C42.9473 719.398 44.0638 719.93 44.9676 720.799C47.36 722.979 49.912 724.983 52.4994 726.916C65.5426 736.348 80.5353 742.554 96.3786 744.256C102.581 744.77 108.855 744.947 115.04 744.078C121.384 743.086 127.41 740.798 133.594 739.22C137.192 738.777 140.754 741.88 140.541 745.568C140.116 752.571 131.486 752.305 126.453 754.22C119.7 756.685 112.523 757.412 105.346 757.412C102.333 757.412 99.3028 757.27 96.3078 757.093Z" fill="black"/>
<path id="Vector_19" d="M138.698 746.561C134.339 745.036 136.43 739.274 136.323 735.781C136.625 728.618 139.425 720.728 141.888 714.558C142.81 712.04 143.625 709.469 144.67 707.005C145.592 704.877 147.843 703.618 149.65 702.306C156.615 697.023 165.033 694.328 172.405 689.771C175.453 687.714 178.058 685.25 180.362 682.519C180.557 682.395 180.752 682.235 180.929 682.076C181.709 681.278 182.312 680.356 182.914 679.434C183.641 678.353 184.314 677.236 185.005 676.136C185.2 675.853 185.378 675.551 185.555 675.268C186.6 673.69 187.61 672.076 188.603 670.445C190.286 667.679 191.935 664.895 193.476 662.059C194.983 659.31 196.4 656.527 197.889 653.761C198.775 652.112 199.644 650.463 200.476 648.796C200.902 648.016 201.309 647.236 201.735 646.438C202.426 645.126 203.099 643.832 203.755 642.502C204.092 641.864 204.446 641.225 204.783 640.587C206.573 636.988 208.363 633.388 210.117 629.771L212.084 631.438L216.054 634.896L219.846 638.3L222.434 640.676C215.044 655.693 206.768 670.285 197.907 684.469C187.008 701.916 172.635 706.437 154.506 713.388C152.273 719.522 149.278 725.338 146.957 731.437C145.521 735.604 144.369 739.859 143.111 744.079C142.686 745.604 141.197 746.703 139.637 746.703C139.318 746.703 138.999 746.65 138.698 746.561Z" fill="black"/>
<path id="Vector_20" d="M139.993 943.048C114.615 935.885 114.101 898.492 107.456 877.482C106.871 875.46 106.038 873.35 105.471 871.453C107.863 874.255 110.167 877.269 111.921 880.513C118.78 892.02 122.041 904.981 126.382 917.499C129.324 924.431 133.099 932.197 140.4 935.3C143.041 936.24 146.638 935.832 148.003 933.084C145.575 917.641 144.831 902.056 143.183 886.56C142.048 863.971 147.135 841.666 147.082 819.078C147.135 812.624 147.33 806.117 146.656 799.681C143.307 782.766 134.251 767.819 128.633 751.667C127.995 749.646 129.998 747.323 132.107 747.891C133.595 748.21 134.41 749.451 134.712 750.869C135.935 754.238 137.459 757.483 138.947 760.727C144.406 772.695 150.201 784.628 153.249 797.482C155.358 815.354 153.373 833.67 151.813 851.471C150.661 863.35 149.882 875.265 150.59 887.18C152.168 900.212 152.823 913.332 154.542 926.328C154.861 929.502 156.208 932.782 154.826 935.867C152.699 940.619 147.666 943.314 142.58 943.314C141.73 943.296 140.861 943.208 139.993 943.048Z" fill="black"/>
<path id="Vector_21" d="M86.9151 986.169C73.0743 979.378 68.8565 962.57 65.897 948.651C61.5906 929.148 63.5578 908.918 67.6161 889.663C71.6035 916.169 67.687 955.265 86.543 975.867C93.7026 981.931 102.67 982.977 103.698 971.417C103.91 965.797 101.979 960.371 100.508 955.017C94.1634 937.641 94.5709 918.829 95.776 900.62C96.9102 889.326 97.4064 875.797 106.976 868.103C108.429 867.056 110.556 866.365 112.133 867.588C113.675 868.794 113.87 871.223 112.364 872.5C111.761 873.014 110.893 873.138 110.113 872.943C99.728 882.783 101.5 925.035 103.822 939.272C105.789 949.573 110.946 959.165 111.513 969.733C111.903 980.654 105.115 988.598 95.9886 988.598C93.1709 988.669 90.0873 987.888 86.9151 986.169Z" fill="black"/>
<path id="Vector_22" d="M69.4945 962.995C60.8462 959.343 49.3093 959.183 44.5421 949.609C41.6889 943.793 38.7294 937.605 32.385 934.91C18.4556 929.768 13.5998 919.219 9.73641 905.815C7.55663 900.035 5.51867 894.148 4.47308 888.031C1.30088 868.883 1.93886 849.219 5.02246 830.088C7.71617 813.085 14.6276 797.199 21.2556 781.454C25.3316 771.366 29.5494 761.348 34.4229 751.632C37.0457 745.267 40.9091 739.061 47.5016 736.26C49.1675 746.455 42.3269 755.178 38.2331 763.955C32.8989 775.036 28.0076 786.33 23.1341 797.607C14.4859 816.95 10.5162 837.996 10.5162 859.148C10.5871 872.109 11.2251 885.336 15.4074 897.712C19.3417 907.357 20.724 919.963 30.9672 925.158C38.3218 928.19 45.3219 932.605 48.9726 939.946C50.7625 942.995 51.8966 946.701 54.9271 948.775C60.6158 952.694 68.4665 951.984 73.3223 957.286C75.6439 959.467 73.6236 963.296 70.859 963.296C70.4159 963.296 69.9552 963.208 69.4945 962.995Z" fill="black"/>
<path id="Vector_23" d="M47.9808 943.615C44.277 942.552 42.3275 938.811 41.5301 935.3C38.6769 925.992 41.7782 916.169 45.3048 907.623C45.4466 915.034 44.5074 922.534 46.0137 929.857C46.953 934.573 48.7429 938.757 48.229 943.527C48.229 943.598 48.1403 943.615 48.0517 943.615C48.0162 943.633 47.9986 943.615 47.9808 943.615Z" fill="black"/>
<path id="Vector_24" d="M23.6836 926.861C15.9392 919.361 19.0937 900.478 20.8837 890.727C21.9647 897.375 22.8507 904.379 24.233 911.081C25.1191 915.088 26.0761 919.077 27.6357 922.854C28.3268 925.052 27.3521 927.357 25.4027 927.357C24.8888 927.375 24.3216 927.216 23.6836 926.861Z" fill="black"/>
<path id="Vector_25" d="M86.5793 975.902C67.7233 955.3 71.6221 916.187 67.6524 889.698C63.5941 908.935 61.627 929.183 65.9334 948.686C66.2524 950.211 66.6069 951.771 66.9613 953.35C62.9562 951.896 58.5257 951.257 54.9459 948.793C51.9154 946.718 50.7813 943.013 48.9914 939.963C48.6724 939.325 48.3179 938.704 47.9635 938.101C47.4673 935.406 46.599 932.747 46.0319 929.892C44.5255 922.57 45.4647 915.07 45.3229 907.658C42.4166 914.68 39.8114 922.587 40.5558 930.336C37.6317 928.226 34.3531 926.559 31.0037 925.176C29.7809 924.555 28.6821 923.829 27.6897 923.013C27.6897 922.977 27.6719 922.942 27.6542 922.889C26.0947 919.112 25.1378 915.105 24.2517 911.116C22.8694 904.414 21.9655 897.41 20.9022 890.762C20.1047 895.123 19.0414 901.329 18.7933 907.517C17.6946 904.183 16.7022 900.797 15.444 897.729C11.2616 885.354 10.6236 872.145 10.5527 859.166C10.5527 838.014 14.5224 816.968 23.1707 797.624C28.0442 786.33 32.9354 775.054 38.2697 763.972C42.3103 755.284 49.0445 746.667 47.5913 736.632C47.6622 736.72 47.7509 736.791 47.804 736.862C61.06 748.795 78.7108 755.391 96.3263 757.11C99.3213 757.305 102.352 757.429 105.382 757.429C112.56 757.429 119.719 756.703 126.489 754.238C127.34 753.919 128.314 753.653 129.307 753.405C134.942 768.901 143.484 783.387 146.71 799.698C147.383 806.135 147.188 812.642 147.135 819.096C147.188 841.666 142.102 863.989 143.236 886.577C144.902 902.073 145.628 917.659 148.056 933.102C146.692 935.85 143.094 936.258 140.454 935.318C133.135 932.215 129.36 924.467 126.436 917.517C122.076 904.999 118.815 892.038 111.975 880.531C110.947 878.634 109.742 876.825 108.43 875.088C108.962 874.29 109.547 873.581 110.167 872.996C110.929 873.191 111.815 873.067 112.418 872.553C113.942 871.258 113.729 868.829 112.187 867.641C110.61 866.436 108.484 867.109 107.03 868.155C97.4606 875.833 96.9643 889.361 95.8301 900.673C94.6251 918.882 94.2174 937.694 100.562 955.069C102.033 960.424 103.964 965.849 103.752 971.47C103.185 977.817 100.243 980.37 96.5036 980.37C93.3845 980.335 89.8047 978.633 86.5793 975.902Z" fill="#B7B5B5"/>
<path id="Vector_26" d="M51.7387 535.287C50.2855 532.22 50.5514 528.248 51.6679 525.127C53.1211 521.032 54.8046 517.025 56.2046 513.071C57.2325 510.11 58.2249 507.131 59.3237 504.206C60.4933 501.103 61.6274 497.982 62.549 495.305C63.7895 491.688 64.9947 488.089 66.377 484.543C67.7947 480.943 69.1947 477.344 70.5593 473.727C71.9416 470.022 73.253 466.281 74.6353 462.575C75.929 459.1 77.2405 455.642 78.3747 452.362C80.1646 447.132 81.9013 441.901 83.638 436.653C84.7899 433.178 86.0304 429.685 86.8279 426.104C86.8279 425.696 86.8811 425.288 86.952 424.898C87.1292 423.675 87.6963 422.487 88.5647 421.618C90.1774 419.969 92.7116 419.472 94.8382 420.359C96.9648 421.245 98.3825 423.373 98.3648 425.678C98.3648 426.458 98.1876 427.221 97.9218 427.859C97.9041 427.894 97.8864 427.93 97.8687 427.965C97.7978 428.143 97.7091 428.302 97.5673 428.515C97.6559 428.338 97.7446 428.178 97.8332 428.001C97.9041 427.788 97.9927 427.558 98.0636 427.327C97.9218 427.753 97.7623 428.16 97.5673 428.533L97.5496 428.55C97.5319 428.568 97.5319 428.586 97.5142 428.604C97.5142 428.604 97.5142 428.586 97.5319 428.586C97.5319 428.586 97.5319 428.586 97.5319 428.568C97.5319 428.55 97.5496 428.55 97.5496 428.533C97.5673 428.515 97.5673 428.515 97.5851 428.497C97.5319 428.586 97.4788 428.692 97.4079 428.781C97.2129 429.153 96.9825 429.49 96.699 429.809C96.4686 430.217 96.2737 430.625 96.061 431.05C94.3774 434.508 92.9774 438.089 91.5065 441.635C89.8229 445.713 88.1039 449.809 86.4558 453.923C84.7722 458.125 83.2127 462.362 81.6354 466.6C80.0227 470.926 78.3391 475.234 76.7442 479.561C75.1669 483.869 73.7669 488.248 72.0656 492.521C70.4175 496.67 68.6985 500.766 67.1567 504.95C65.6681 508.975 64.0377 512.947 62.5136 516.954C61.787 518.869 61.149 520.801 60.4401 522.716C59.678 524.79 59.0224 526.971 58.0299 528.957C56.7362 531.563 54.592 534.152 51.8805 535.358C51.8628 535.358 51.845 535.376 51.8273 535.376C51.8096 535.376 51.7564 535.34 51.7387 535.287Z" fill="black"/>
<path id="Vector_27" d="M52.997 523.886C51.5438 522.964 51.1716 521.563 51.2957 520.091C52.0577 517.467 52.8198 514.861 53.5464 512.219C53.9894 510.695 54.4501 509.152 54.9109 507.609C55.5666 505.606 56.2578 503.62 56.8426 501.599C56.7717 501.865 56.6831 502.148 56.6122 502.414C56.8249 501.723 57.0375 501.014 57.2502 500.322C57.4806 499.737 57.711 499.17 57.9591 498.585C59.8022 494.17 61.2908 489.631 62.9212 485.145C62.8326 485.411 62.7263 485.677 62.6199 485.943C62.8858 485.234 63.1516 484.542 63.4174 483.833C63.382 483.957 63.3288 484.063 63.2934 484.188C63.2934 484.205 63.2756 484.241 63.2756 484.259C63.2756 484.259 63.2756 484.259 63.2756 484.241C63.2225 484.365 63.187 484.489 63.1338 484.613C63.187 484.489 63.2402 484.365 63.2756 484.241C63.2756 484.223 63.2934 484.205 63.2934 484.188V484.17C64.463 481.156 65.6858 478.177 66.8908 475.181C66.8908 475.198 66.8732 475.216 66.8555 475.234C66.9264 475.056 66.9972 474.879 67.0681 474.702C67.0504 474.72 67.0504 474.755 67.0327 474.773C67.0681 474.667 67.1213 474.56 67.1567 474.454C67.1567 474.489 67.139 474.525 67.1212 474.542C68.3263 471.564 69.496 468.567 70.5593 465.535C71.6935 462.379 72.8099 459.206 73.9618 456.05C74.5644 454.436 75.1315 452.805 75.6986 451.191C75.9468 450.5 76.1771 449.791 76.4252 449.099C77.0455 447.769 77.4176 446.262 77.8784 444.915C78.2328 443.887 78.605 442.876 78.9594 441.865C80.8556 437.22 82.7874 432.592 84.7545 427.965C90.1419 416.21 94.909 403.089 105.967 395.447C107.456 403.958 102.051 411.724 98.5066 419.082C86.8634 444.064 76.6202 469.684 67.2808 495.606C65.1187 501.563 62.6908 507.432 60.5819 513.407C59.111 516.581 58.7211 524.116 54.5033 524.116C54.0425 524.152 53.5464 524.063 52.997 523.886Z" fill="black"/>
<path id="Vector_28" d="M60.7581 531.669C57.9934 530.145 58.4187 526.581 59.4465 524.099C61.6441 516.971 64.1074 509.755 66.4289 502.751C71.0898 489.046 75.6975 475.34 80.9078 461.83C83.6015 454.986 85.9939 448.036 87.5357 440.837C88.1028 438.603 87.9787 436.156 89.0775 434.117C91.7712 429.436 99.2143 431.883 98.47 437.291C95.1915 450.092 89.9281 462.202 84.9305 474.4C80.6064 485.127 76.8848 496.085 73.0746 506.953C70.9303 513.513 68.9632 520.127 67.1201 526.776C66.6948 529.755 64.0898 533.247 60.7581 531.669Z" fill="black"/>
<path id="Vector_29" d="M62.2111 532.716C59.7478 531.245 60.2263 528.036 61.0415 525.731C62.8137 519.507 64.958 513.426 66.872 507.256C73.6594 487.486 77.1861 466.742 85.4445 447.487C86.7382 444.792 87.004 441.654 88.9357 439.295C90.8142 437.327 93.8269 436.795 95.9358 438.746C99.1612 441.848 96.7864 446.175 95.3332 449.508C93.9332 452.629 92.48 455.731 91.1686 458.905C86.8799 469.047 84.328 479.756 81.0494 490.235C78.1608 498.249 75.4317 506.263 72.7911 514.206C71.0189 519.029 69.6543 522.965 68.1303 527.645C67.5277 530.358 65.5251 534.17 62.2111 532.716Z" fill="black"/>
<path id="Vector_30" d="M63.4348 522.202C62.7791 513.709 65.4375 505.659 68.0426 497.716C70.5059 489.312 73.1996 480.961 76.6376 472.876C80.3237 465.695 81.458 457.521 85.215 450.429C87.448 446.67 90.5669 443.301 94.2176 440.943C96.3265 456.457 87.1998 470.269 81.6352 484.099C75.6629 496.812 73.8376 512.06 63.4703 522.237C63.4526 522.219 63.4348 522.219 63.4348 522.202Z" fill="black"/>
<path id="Vector_31" d="M74.7042 501.191C73.251 489.17 79.6131 477.822 83.3169 466.705C86.4183 458.053 89.431 449.17 94.9602 441.741C93.9855 448.053 93.3475 454.738 91.6462 461.014C89.7145 467.663 87.0208 474.046 84.6106 480.535C82.1118 487.893 79.4713 495.109 74.7042 501.191Z" fill="black"/>
<path id="Vector_32" d="M201.504 669.683C200.813 661.208 205.315 653.867 209.001 646.598C212.403 639.719 216.09 632.999 219.563 626.137C234.219 596.226 246.022 565.11 258.072 534.17C260.961 529.986 265.409 532.202 264.257 537.184C260.589 545.73 256.921 554.347 253.766 563.124C245.703 584.95 236.966 606.563 227.095 627.627C223.834 634.471 220.697 641.35 217.348 648.141C213.236 655.995 210.489 666.208 201.504 669.683Z" fill="black"/>
<path id="Vector_33" d="M198.83 672.041C199.698 660.534 206.929 651.385 212.086 641.527C216.995 631.456 221.709 621.297 226.193 611.049C233.76 594.808 239.484 577.769 246.13 561.138C248.132 555.517 249.816 549.134 255.044 545.695C255.026 545.695 255.061 545.677 255.044 545.677C255.044 545.641 255.079 545.677 255.079 545.659C257.542 552.166 254.353 559.116 252.226 565.322C247.654 578.726 242.904 592.077 237.783 605.286C229.524 623.336 215.825 663.069 198.83 672.041Z" fill="black"/>
<path id="Vector_34" d="M199.096 665.038C199.025 657.343 200.886 650.038 204.589 643.3C209.197 632.697 214.301 622.325 219.281 611.9C224.58 599.56 229.684 587.113 234.734 574.666C238.225 565.251 240.972 555.411 247.264 547.45C249.107 554.684 246.803 562.485 244.499 569.453C240.441 581.581 236.418 593.708 232.218 605.783C229.01 613.673 225.448 621.403 222.152 629.258C219.44 635.464 216.853 641.403 214.159 647.538C211.341 654.736 207.035 662.715 199.096 665.038Z" fill="black"/>
<path id="Vector_35" d="M201.576 659.487C204.27 647.608 207.017 635.658 212.581 624.718C219.192 611.243 225.465 597.591 231.065 583.69C235.886 572.822 240.6 561.9 244.605 550.694C249.018 539.595 251.534 527.219 260.253 518.514C261.086 525.996 258.127 533.46 255.645 540.446C250.169 556.421 244.233 572.219 237.605 587.751C231.686 603.282 225.696 618.761 218.518 633.761C214.265 643.122 209.338 652.644 201.576 659.487Z" fill="black"/>
<path id="Vector_36" d="M205.492 638.885C206.466 636.811 207.494 634.754 208.487 632.679C208.451 632.75 208.416 632.839 208.38 632.928C209.32 631.048 210.348 629.222 211.287 627.343C212.261 625.392 213.023 623.318 213.874 621.314C213.874 621.332 213.856 621.332 213.856 621.35C214.654 619.63 215.487 617.946 216.284 616.243C217.099 614.506 217.808 612.733 218.553 610.978C218.5 611.102 218.446 611.226 218.393 611.35C219.208 609.382 220.077 607.449 220.91 605.499C221.53 604.063 222.097 602.609 222.7 601.173C223.019 600.499 223.338 599.843 223.674 599.187C226.598 593.371 228.902 587.237 231.366 581.208C232.553 578.283 233.74 575.357 234.945 572.45C236.204 569.347 237.355 566.226 238.578 563.106C239.801 559.985 241.077 556.882 242.371 553.797C242.371 553.762 242.389 553.744 242.406 553.726C242.459 553.638 242.495 553.549 242.53 553.461C242.583 553.319 242.637 553.194 242.69 553.053C243.824 550.358 245.029 547.698 246.163 545.003C246.11 545.127 246.057 545.251 246.004 545.375C246.181 544.968 246.358 544.56 246.518 544.134C246.5 544.188 246.482 544.223 246.465 544.276C246.589 543.992 246.695 543.727 246.819 543.443C246.766 543.567 246.713 543.691 246.659 543.815C247.546 541.723 248.361 539.595 249.176 537.485C250.257 534.737 251.374 531.989 252.49 529.259C253.305 528.496 254.209 527.787 255.184 527.184V527.166C255.184 527.149 255.219 527.113 255.219 527.131C255.556 528.071 255.343 529.276 255.361 530.269C255.45 534.152 254.333 538.39 252.703 541.634C246.11 559.187 238.809 576.457 231.809 593.85C227.644 604.311 223.284 614.683 219.279 625.215C214.087 639.382 207.618 653.849 196.4 664.186C199.342 655.693 202.373 647.271 205.492 638.885Z" fill="black"/>
<path id="Vector_37" d="M357.263 66.515L357.28 66.5505L352.424 343.906C338.07 361.654 324.743 380.608 312.923 400.235C296.37 430.377 281.75 461.511 267.36 492.77C267.377 492.894 267.377 493.036 267.377 493.16C267.377 493.373 267.36 493.568 267.324 493.763C267.271 494.011 267.2 494.259 267.112 494.49C267.076 494.578 267.041 494.649 266.988 494.738C266.899 494.897 266.793 495.057 266.686 495.181C266.208 495.961 265.782 496.759 265.357 497.575C264.524 499.33 263.833 501.156 263.071 502.929C262.894 503.355 262.699 503.78 262.504 504.206C262.132 505.057 261.724 505.89 261.317 506.723C261.104 507.131 260.909 507.557 260.696 507.965C260.572 508.248 260.43 508.532 260.289 508.816V508.833C260.129 509.294 259.97 509.755 259.81 510.199C258.765 513.23 257.506 516.191 256.355 519.206C255.203 522.255 254.068 525.305 252.846 528.337C252.721 528.62 252.615 528.922 252.491 529.205C251.392 531.936 250.258 534.684 249.177 537.432C248.362 539.542 247.547 541.652 246.661 543.744C246.625 543.833 246.59 543.904 246.554 543.975C246.554 544.01 246.537 544.046 246.519 544.063C246.519 544.063 246.519 544.063 246.519 544.081C246.519 544.099 246.501 544.117 246.483 544.152C246.466 544.188 246.466 544.188 246.466 544.205C246.377 544.453 246.271 544.684 246.164 544.932C246.147 544.968 246.129 545.021 246.111 545.056C246.076 545.127 246.04 545.216 246.005 545.287C244.924 547.858 243.79 550.393 242.691 552.964C242.638 553.088 242.585 553.23 242.531 553.372C242.514 553.407 242.514 553.443 242.496 553.461C242.461 553.531 242.443 553.585 242.407 553.656C242.407 553.673 242.39 553.691 242.39 553.709V553.726C242.283 553.992 242.177 554.258 242.053 554.524C241.521 555.801 240.99 557.077 240.458 558.372C239.82 559.932 239.2 561.475 238.597 563.035C237.959 564.666 237.339 566.315 236.701 567.964C236.541 568.389 236.364 568.815 236.205 569.24C235.974 569.861 235.726 570.482 235.478 571.102C235.443 571.173 235.425 571.244 235.39 571.315C235.248 571.67 235.106 572.024 234.964 572.396C233.759 575.304 232.572 578.23 231.384 581.155C228.921 587.184 226.635 593.318 223.693 599.134C223.357 599.79 223.037 600.463 222.718 601.119C222.134 602.573 221.549 604.01 220.946 605.464C220.166 607.29 219.369 609.116 218.589 610.96C217.845 612.733 217.136 614.506 216.321 616.226C215.523 617.91 214.691 619.594 213.911 621.297C213.042 623.3 212.298 625.375 211.323 627.325C210.933 628.123 210.508 628.903 210.083 629.701C210.012 629.843 209.923 629.985 209.87 630.126C209.374 631.048 208.895 631.988 208.417 632.91C208.452 632.821 208.488 632.75 208.523 632.662C207.531 634.719 206.521 636.793 205.528 638.867C205.404 639.187 205.298 639.488 205.174 639.807C205.05 640.055 204.926 640.321 204.802 640.569C204.465 641.208 204.111 641.828 203.774 642.467C203.49 643.052 203.189 643.619 202.888 644.204C202.516 644.931 202.126 645.676 201.754 646.403C201.346 647.201 200.921 647.981 200.495 648.761C200.265 649.204 200.052 649.648 199.804 650.091C199.591 650.499 199.379 650.906 199.166 651.314C198.759 652.112 198.333 652.928 197.908 653.725C196.419 656.491 195.002 659.275 193.495 662.023C191.936 664.86 190.305 667.644 188.622 670.41C188.427 670.729 188.249 671.03 188.055 671.332C187.239 672.644 186.406 673.938 185.574 675.232C185.219 675.8 184.865 676.367 184.528 676.934C184.244 677.395 183.961 677.839 183.677 678.3C183.606 678.406 183.553 678.495 183.482 678.601C183.305 678.885 183.128 679.151 182.951 679.417C182.348 680.339 181.746 681.261 180.966 682.058C180.895 682.129 180.824 682.2 180.735 682.271C180.665 682.342 180.576 682.395 180.505 682.449H180.487C180.452 682.484 180.434 682.484 180.399 682.519C178.095 685.25 175.49 687.732 172.442 689.771C165.069 694.328 156.669 697.023 149.687 702.307C147.879 703.619 145.629 704.895 144.707 707.005C143.661 709.47 142.846 712.041 141.925 714.558C139.461 720.728 136.661 728.618 136.36 735.781C136.395 736.845 136.218 738.122 136.077 739.434C135.297 739.185 134.464 739.097 133.631 739.203C127.446 740.781 121.421 743.069 115.076 744.062C108.891 744.93 102.635 744.753 96.4151 744.239C80.554 742.537 65.5791 736.331 52.5358 726.898C50.5687 725.427 48.6193 723.92 46.7585 722.324C46.9889 721.916 47.2015 721.508 47.4142 721.136C49.7357 717.306 52.0396 713.459 53.6523 709.257C56.2397 702.324 57.9763 694.417 56.3459 687.094C54.5383 682.449 51.8978 677.573 49.6649 672.519C40.804 653.176 42.4166 631.385 47.4142 611.226C52.3054 583.708 59.0574 556.492 67.4398 529.79C67.6879 529.259 67.8829 528.691 68.0424 528.159C68.0956 527.964 68.131 527.787 68.1665 527.627C69.6906 522.947 71.0551 519.011 72.8273 514.188C75.4856 506.245 78.197 498.231 81.0856 490.216C81.1211 490.092 81.1743 489.968 81.2097 489.826C82.4857 486.812 83.5845 483.674 84.6655 480.518C86.3668 475.926 88.2098 471.387 89.8225 466.777L89.8757 466.812C92.0201 460.022 94.2707 453.266 96.6455 446.547V446.529C96.8227 446.086 96.9821 445.642 97.1239 445.199C97.1239 445.181 97.1239 445.164 97.1416 445.146C97.3543 444.49 97.6024 443.852 97.8328 443.196C111.638 407.7 125.78 372.345 138.876 336.583C149.634 308.498 158.211 279.634 167.869 251.141C179.761 215.716 193.531 180.947 207.301 146.213C218.022 120.202 229.382 93.4828 243.683 69.0682C255.557 48.7138 268.99 25.8772 286.003 8.14685C287.12 7.01211 288.254 5.89506 289.388 4.77805L284.426 3.21777L293.18 5.96606L293.234 5.98381L293.322 6.01919L293.429 6.05469L293.553 6.10782L293.677 6.16107L293.801 6.2142L293.925 6.26744L294.031 6.30294L294.137 6.35607L294.244 6.39157L294.35 6.4447L294.456 6.4802L294.545 6.51569L294.634 6.55108L294.722 6.58658L294.811 6.62207L294.9 6.65746L294.988 6.69295L295.077 6.72845L295.165 6.76384L295.254 6.79933L295.325 6.83483L295.413 6.87032L295.484 6.90571L295.555 6.94121L295.626 6.9767L295.697 7.01209L295.768 7.04758L295.856 7.08308L295.927 7.11846L296.016 7.15396L296.105 7.18946L296.193 7.22484L296.282 7.26034L296.37 7.29583L296.459 7.33122L296.548 7.36672L296.636 7.40221L296.707 7.4376L296.778 7.47309L296.849 7.50859L296.92 7.54398L296.991 7.57947L297.062 7.61497L297.132 7.63271L297.203 7.6681L297.274 7.7036L297.345 7.72134L297.398 7.73909L297.469 7.75684L297.522 7.77448L297.575 7.80997L297.629 7.82772L297.682 7.84547L297.735 7.86322L297.788 7.88086L297.841 7.8986L297.895 7.91635L297.948 7.9341L298.001 7.95185L298.054 7.96959L298.107 7.98723L298.143 8.00498L298.196 8.02273L298.231 8.04048L298.267 8.05822L298.32 8.07597L298.355 8.09361L298.408 8.11136L298.462 8.12911L298.515 8.1646L298.568 8.18235L298.621 8.21774L298.674 8.25323L298.727 8.28873L298.798 8.32411L298.851 8.35961L298.922 8.3951L298.993 8.43049L299.064 8.46599L299.135 8.50148L299.206 8.53687L299.277 8.57236L299.348 8.60786L299.419 8.64335L299.489 8.67874L299.56 8.71424L299.631 8.74973L299.702 8.78512L299.773 8.82061L299.844 8.87375L299.915 8.90924L299.986 8.94474L300.057 8.98013L300.127 9.01562L300.198 9.05112L300.269 9.08661L300.34 9.122L300.411 9.15749L300.482 9.19299L300.553 9.22838L300.624 9.26387L300.694 9.29937L300.765 9.33475L300.836 9.37025L300.907 9.40575L300.978 9.44113L301.049 9.47663L301.12 9.51212L301.191 9.54751L301.262 9.583L301.333 9.6185L301.403 9.65389L301.474 9.68938L301.563 9.72488L301.634 9.76026L301.722 9.79576L301.793 9.83126L301.882 9.86664L301.971 9.90214L302.059 9.93763L302.148 9.97313L302.236 10.0085L302.325 10.044L302.414 10.0971L302.502 10.1326L302.591 10.1859L302.679 10.239L302.768 10.2923L302.857 10.3454L302.963 10.3986L303.069 10.4518L303.176 10.505L303.3 10.5759L303.406 10.6468L303.53 10.7178L303.654 10.7887L303.778 10.8596L303.902 10.9305L304.026 11.0014L304.15 11.0724L304.274 11.1433L304.398 11.2142L304.522 11.2852L304.629 11.356L304.735 11.4269L304.841 11.4979L304.948 11.5688L305.054 11.6397L305.16 11.7107L305.267 11.7815L305.355 11.8525L305.462 11.9234L305.568 11.9943L305.674 12.0653L305.781 12.1362L305.905 12.2071L306.011 12.278L306.135 12.3489L306.259 12.4198L306.383 12.4908L306.507 12.5617L306.631 12.6327L306.738 12.7036L306.844 12.7744L306.95 12.8454L307.039 12.9163L307.145 12.9872L307.234 13.0582L307.322 13.1291L307.411 13.2L307.5 13.2709L307.588 13.3418L307.695 13.4127L307.801 13.4837L307.907 13.5546L308.014 13.6256L308.102 13.6965L308.209 13.7673L308.297 13.8383L308.386 13.9092L308.474 13.9801L308.563 14.0511L308.652 14.122L308.74 14.1928L308.811 14.2638L308.9 14.317L308.971 14.3702L309.042 14.4411L309.112 14.4943L309.183 14.5475L309.254 14.6185L309.343 14.6893L309.414 14.7602L309.502 14.8312L309.591 14.9021L309.679 14.973L309.768 15.044L309.857 15.1149L309.945 15.1857L310.034 15.2567L310.122 15.3276L310.211 15.3986L310.3 15.4695L310.388 15.5404L310.477 15.6114L310.566 15.6822L310.654 15.7531L310.743 15.8241L310.831 15.9127L310.92 15.9836L311.009 16.0723L311.097 16.161L311.186 16.2319L311.274 16.3205L311.363 16.4091L311.452 16.4979L311.54 16.5865L311.629 16.6751L311.717 16.7638L311.806 16.8524L311.895 16.9411L311.983 17.0298L312.072 17.1184L312.161 17.207L312.249 17.2956L312.355 17.3844L312.462 17.473L312.568 17.5616L312.674 17.6503L312.781 17.7389L312.887 17.8276L312.976 17.9163L313.082 18.0049L313.171 18.0935L313.259 18.1645L313.348 18.2532L313.436 18.324L313.525 18.395L313.596 18.4659L313.685 18.5368L313.755 18.6078L313.826 18.6787L313.897 18.7495L313.968 18.8205L314.039 18.8914L314.128 18.9623L314.198 19.0333L314.287 19.1042L314.376 19.1751L314.464 19.246L314.553 19.3169L314.642 19.3879L314.73 19.4588L314.819 19.5297L314.907 19.6007L314.996 19.6716L315.085 19.7424L315.173 19.8134L315.262 19.8843L315.35 19.9552L315.421 20.0262L315.492 20.0971L315.563 20.1681L315.634 20.2389L315.705 20.3098L315.776 20.3808L315.864 20.4517L315.935 20.5226L316.024 20.5936L316.112 20.6645L316.201 20.7353L316.29 20.8063L316.378 20.8772L316.485 20.9658L316.591 21.0546L316.68 21.1255L316.786 21.2141L316.892 21.285L316.981 21.3737L317.069 21.4446L317.158 21.5155L317.247 21.5865L317.335 21.6573L317.424 21.7282L317.512 21.7992L317.601 21.8701L317.69 21.9411L317.778 22.012L317.867 22.1006L317.956 22.1715L318.044 22.2425L318.133 22.3311L318.221 22.4197L318.31 22.5084L318.399 22.5971L318.487 22.668L318.576 22.7566L318.664 22.8452L318.753 22.934L318.842 23.0049L318.93 23.0758L319.019 23.1467L319.107 23.2176L319.196 23.2885L319.285 23.3595L319.373 23.4304L319.462 23.5013L319.551 23.5723L319.621 23.6431L319.71 23.7141L319.781 23.785L319.852 23.8559L319.923 23.9269L319.994 23.9978L320.064 24.0686L320.135 24.1396L320.206 24.2105L320.277 24.2814L320.348 24.3524L320.419 24.4233L320.49 24.4942L320.578 24.5651L320.649 24.636L320.738 24.707L320.827 24.7779L320.915 24.8488L321.004 24.9198L321.092 24.9907L321.181 25.0615L321.27 25.1325L321.358 25.2034L321.447 25.2743L321.535 25.3453L321.624 25.4162L321.713 25.4872L321.801 25.558L321.89 25.6289L321.978 25.6999L322.067 25.7708L322.156 25.8417L322.244 25.9127L322.333 25.9835L322.421 26.0544L322.51 26.1254L322.599 26.1963L322.687 26.2672L322.776 26.3382L322.865 26.4091L322.953 26.48L323.042 26.5509L323.13 26.6218L323.201 26.6928L323.29 26.7637L323.361 26.8346L323.432 26.9056L323.52 26.9764L323.609 27.0473L323.68 27.1183L323.768 27.1892L323.857 27.2602L323.945 27.3311L324.034 27.4197L324.123 27.4906L324.211 27.5793L324.3 27.6679L324.389 27.7388L324.477 27.8275L324.566 27.8985L324.654 27.9693L324.743 28.0402L324.832 28.1112L324.92 28.1821L325.009 28.2531L325.097 28.3417L325.186 28.4126L325.275 28.4835L325.363 28.5722L325.452 28.6431L325.541 28.7317L325.629 28.8204L325.718 28.9091L325.806 28.9977L325.895 29.0686L325.984 29.1572L326.072 29.2282L326.161 29.2991L326.249 29.37L326.32 29.441L326.409 29.5119L326.48 29.5829L326.568 29.6537L326.639 29.7246L326.71 29.7956L326.799 29.8665L326.87 29.9374L326.958 30.0084L327.029 30.0792L327.118 30.1501L327.206 30.2211L327.295 30.292L327.366 30.363L327.454 30.4339L327.543 30.5048L327.632 30.5757L327.72 30.6644L327.809 30.753L327.898 30.8416L327.986 30.9303L328.075 31.019L328.163 31.1076L328.27 31.214L328.376 31.3204L328.482 31.4268L328.589 31.5331L328.695 31.6395L328.801 31.7636L328.908 31.87L329.014 31.9764L329.12 32.0828L329.227 32.1892L329.333 32.2955L329.422 32.4019L329.51 32.5083L329.599 32.6147L329.687 32.721L329.776 32.8274L329.865 32.9338L329.953 33.0402L330.042 33.1643L330.131 33.2707L330.219 33.3948L330.308 33.5189L330.414 33.6431L330.503 33.7672L330.591 33.8913L330.698 34.0154L330.786 34.1395L330.875 34.2458L330.963 34.37L331.052 34.4763L331.141 34.5827L331.229 34.6891L331.318 34.7956L331.406 34.9019L331.495 35.0083L331.584 35.1147L331.672 35.2211L331.761 35.3275L331.849 35.4338L331.938 35.5402L332.027 35.6466L332.115 35.753L332.222 35.8593L332.31 35.9657L332.399 36.0721L332.487 36.1785L332.576 36.2671L332.665 36.3557L332.753 36.4445L332.842 36.5331L332.93 36.6217L333.001 36.7104L333.09 36.799L333.161 36.8877L333.249 36.9764L333.338 37.065L333.427 37.1714L333.515 37.2778L333.604 37.3841L333.71 37.4905L333.799 37.5969L333.905 37.7033L333.994 37.8096L334.1 37.916L334.189 38.0224L334.277 38.1288L334.366 38.2351L334.455 38.3416L334.543 38.4303L334.632 38.5366L334.72 38.6253L334.809 38.7317L334.898 38.838L334.986 38.9267L335.075 39.033L335.163 39.1394L335.252 39.2282L335.341 39.3345L335.429 39.4409L335.518 39.5473L335.607 39.6537L335.695 39.7423L335.784 39.8487L335.872 39.9373L335.961 40.0259L336.05 40.1147L336.138 40.2033L336.227 40.2919L336.315 40.3806L336.404 40.4692L336.493 40.5579L336.581 40.6466L336.67 40.7352L336.758 40.8238L336.847 40.9124L336.936 41.0012L337.024 41.0898L337.113 41.1784L337.202 41.2671L337.29 41.3735L337.379 41.4621L337.467 41.5685L337.556 41.6748L337.645 41.7812L337.733 41.8877L337.822 41.9941L337.91 42.1005L337.999 42.2245L338.088 42.3486L338.194 42.4727L338.3 42.5968L338.407 42.721L338.513 42.8451L338.619 42.9692L338.726 43.0933L338.832 43.2175L338.938 43.3415L339.045 43.4656L339.133 43.5897L339.239 43.7139L339.328 43.838L339.434 43.9621L339.523 44.0862L339.612 44.2104L339.7 44.3344L339.789 44.4585L339.895 44.5826L339.984 44.7068L340.09 44.8309L340.197 44.955L340.303 45.0969L340.409 45.2386L340.533 45.3805L340.657 45.5401L340.781 45.6997L340.905 45.8593L341.029 46.0188L341.153 46.1784L341.277 46.3379L341.402 46.4975L341.526 46.6571L341.65 46.7989L341.774 46.9408L341.88 47.0827L341.986 47.2068L342.093 47.3308L342.181 47.4549L342.27 47.5791L342.359 47.7032L342.447 47.8273L342.553 47.9514L342.642 48.0756L342.748 48.2173L342.855 48.3592L342.961 48.5011L343.067 48.6429L343.174 48.7847L343.28 48.9266L343.386 49.0685L343.493 49.2102L343.581 49.3343L343.67 49.4585L343.759 49.5826L343.847 49.7067L343.936 49.8308L344.024 49.955L344.113 50.0791L344.202 50.2031L344.308 50.3272L344.397 50.4691L344.485 50.5932L344.591 50.7351L344.68 50.8769L344.769 51.0187L344.857 51.1429L344.946 51.267L345.035 51.4089L345.123 51.5329L345.212 51.657L345.3 51.7811L345.389 51.9053L345.478 52.0294L345.566 52.1535L345.655 52.2599L345.743 52.3663L345.832 52.4726L345.921 52.579L346.009 52.6854L346.098 52.7918L346.186 52.8982L346.275 53.0045L346.364 53.1109L346.452 53.2173L346.541 53.3237L346.63 53.43L346.718 53.5364L346.807 53.6605L346.895 53.7847L347.002 53.9088L347.108 54.0329L347.214 54.157L347.321 54.2989L347.427 54.4407L347.533 54.5826L347.64 54.7244L347.746 54.8662L347.852 55.0081L347.959 55.1322L348.065 55.2563L348.154 55.3804L348.242 55.5046L348.331 55.6287L348.419 55.7527L348.508 55.8768L348.597 56.001L348.703 56.1251L348.809 56.267L348.916 56.4087L349.022 56.5683L349.128 56.728L349.235 56.8875L349.341 57.0471L349.447 57.2066L349.554 57.3662L349.66 57.5257L349.766 57.6854L349.873 57.845L349.979 58.0045L350.085 58.1641L350.174 58.3059L350.262 58.4478L350.351 58.5719L350.44 58.696L350.528 58.8201L350.617 58.9443L350.706 59.0683L350.794 59.1924L350.883 59.3165L350.989 59.4406L351.095 59.5648L351.202 59.6889L351.308 59.813L351.414 59.9371L351.521 60.0613L351.627 60.1853L351.733 60.3094L351.84 60.4335L351.946 60.5577L352.052 60.6818L352.159 60.8059L352.265 60.93L352.371 61.0542L352.478 61.1782L352.584 61.3023L352.69 61.4087L352.797 61.5328L352.903 61.6392L352.992 61.7456L353.08 61.8519L353.169 61.9583L353.257 62.0647L353.346 62.1534L353.435 62.2598L353.523 62.3484L353.612 62.4371L353.683 62.5257L353.754 62.6143L353.825 62.7031L353.895 62.7917L353.966 62.8803L354.037 62.969L354.108 63.0576L354.179 63.1463L354.25 63.235L354.321 63.3236L354.392 63.43L354.463 63.5186L354.551 63.625L354.64 63.7314L354.728 63.8555L354.817 63.9796L354.906 64.1037L354.994 64.2279L355.083 64.352L355.171 64.4761L355.26 64.6002L355.349 64.7242L355.437 64.8484L355.526 64.9548L355.597 65.0611L355.668 65.1675L355.738 65.2562L355.809 65.3626L355.88 65.4513L355.951 65.5399L356.022 65.6463L356.093 65.7526L356.164 65.859L356.235 65.9654L356.323 66.0718L356.412 66.1959L356.5 66.3023L356.589 66.4264L357.263 66.515Z" fill="white"/>
<path id="Vector_38" d="M260.695 519.843C261.599 515.02 262.663 510.233 264.009 505.606C266.154 498.868 267.607 490.872 273.969 486.812C275.954 492.45 272.392 497.946 270.212 502.964C267.341 508.708 264.151 514.577 260.695 519.843Z" fill="black"/>
<path id="Vector_39" d="M263.992 509.17C265.357 502.255 265.942 494.153 271.595 489.241C272.552 496.387 267.395 503.301 263.992 509.17Z" fill="black"/>
<path id="Vector_40" d="M262.982 509.525C264.932 501.511 265.517 491.352 272.286 485.837C272.286 485.837 272.286 485.837 272.286 485.82V485.802V485.784C274.856 491.015 265.712 504.437 262.982 509.525Z" fill="black"/>
</g>
</svg>
