<svg width="358" height="989" viewBox="0 0 358 989" fill="none" xmlns="http://www.w3.org/2000/svg">
<g id="Right Arm / Straight">
<path id="Skin" d="M86.5793 975.902C67.7233 955.3 71.6221 916.187 67.6524 889.698C63.5941 908.935 61.627 929.183 65.9334 948.686C66.2524 950.211 66.6069 951.771 66.9613 953.35C62.9562 951.896 58.5257 951.257 54.9459 948.793C51.9154 946.718 50.7813 943.013 48.9914 939.963C48.6724 939.325 48.3179 938.704 47.9635 938.101C47.4673 935.406 46.599 932.747 46.0319 929.892C44.5255 922.57 45.4647 915.07 45.3229 907.658C42.4166 914.68 39.8114 922.587 40.5558 930.336C37.6317 928.226 34.3531 926.559 31.0037 925.176C29.7809 924.555 28.6821 923.829 27.6897 923.013C27.6897 922.977 27.6719 922.942 27.6542 922.889C26.0947 919.112 25.1378 915.105 24.2517 911.116C22.8694 904.414 21.9655 897.41 20.9022 890.762C20.1047 895.123 19.0414 901.329 18.7933 907.517C17.6946 904.183 16.7022 900.797 15.444 897.729C11.2616 885.354 10.6236 872.145 10.5527 859.166C10.5527 838.014 14.5224 816.968 23.1707 797.624C28.0442 786.33 32.9354 775.054 38.2697 763.972C42.3103 755.284 49.0445 746.667 47.5913 736.632C47.6622 736.72 47.7509 736.791 47.804 736.862C61.06 748.795 78.7108 755.391 96.3263 757.11C99.3213 757.305 102.352 757.429 105.382 757.429C112.56 757.429 119.719 756.703 126.489 754.238C127.34 753.919 128.314 753.653 129.307 753.405C134.942 768.901 143.484 783.387 146.71 799.698C147.383 806.135 147.188 812.642 147.135 819.096C147.188 841.666 142.102 863.989 143.236 886.577C144.902 902.073 145.628 917.659 148.056 933.102C146.692 935.85 143.094 936.258 140.454 935.318C133.135 932.215 129.36 924.467 126.436 917.517C122.076 904.999 118.815 892.038 111.975 880.531C110.947 878.634 109.742 876.825 108.43 875.088C108.962 874.29 109.547 873.581 110.167 872.996C110.929 873.191 111.815 873.067 112.418 872.553C113.942 871.258 113.729 868.829 112.187 867.641C110.61 866.436 108.484 867.109 107.03 868.155C97.4606 875.833 96.9643 889.361 95.8301 900.673C94.6251 918.882 94.2174 937.694 100.562 955.069C102.033 960.424 103.964 965.849 103.752 971.47C103.185 977.817 100.243 980.37 96.5036 980.37C93.3845 980.335 89.8047 978.633 86.5793 975.902Z" fill="#B7B5B5"/>
<path id="Clothing 1" d="M357.263 66.515L357.28 66.5505L352.424 343.906C338.07 361.654 324.743 380.608 312.923 400.235C296.37 430.377 281.75 461.511 267.36 492.77C267.377 492.894 267.377 493.036 267.377 493.16C267.377 493.373 267.36 493.568 267.324 493.763C267.271 494.011 267.2 494.259 267.112 494.49C267.076 494.578 267.041 494.649 266.988 494.738C266.899 494.897 266.793 495.057 266.686 495.181C266.208 495.961 265.782 496.759 265.357 497.575C264.524 499.33 263.833 501.156 263.071 502.929C262.894 503.355 262.699 503.78 262.504 504.206C262.132 505.057 261.724 505.89 261.317 506.723C261.104 507.131 260.909 507.557 260.696 507.965C260.572 508.248 260.43 508.532 260.289 508.816V508.833C260.129 509.294 259.97 509.755 259.81 510.199C258.765 513.23 257.506 516.191 256.355 519.206C255.203 522.255 254.068 525.305 252.846 528.337C252.721 528.62 252.615 528.922 252.491 529.205C251.392 531.936 250.258 534.684 249.177 537.432C248.362 539.542 247.547 541.652 246.661 543.744C246.625 543.833 246.59 543.904 246.554 543.975C246.554 544.01 246.537 544.046 246.519 544.063C246.519 544.063 246.519 544.063 246.519 544.081C246.519 544.099 246.501 544.117 246.483 544.152C246.466 544.188 246.466 544.188 246.466 544.205C246.377 544.453 246.271 544.684 246.164 544.932C246.147 544.968 246.129 545.021 246.111 545.056C246.076 545.127 246.04 545.216 246.005 545.287C244.924 547.858 243.79 550.393 242.691 552.964C242.638 553.088 242.585 553.23 242.531 553.372C242.514 553.407 242.514 553.443 242.496 553.461C242.461 553.531 242.443 553.585 242.407 553.656C242.407 553.673 242.39 553.691 242.39 553.709V553.726C242.283 553.992 242.177 554.258 242.053 554.524C241.521 555.801 240.99 557.077 240.458 558.372C239.82 559.932 239.2 561.475 238.597 563.035C237.959 564.666 237.339 566.315 236.701 567.964C236.541 568.389 236.364 568.815 236.205 569.24C235.974 569.861 235.726 570.482 235.478 571.102C235.443 571.173 235.425 571.244 235.39 571.315C235.248 571.67 235.106 572.024 234.964 572.396C233.759 575.304 232.572 578.23 231.384 581.155C228.921 587.184 226.635 593.318 223.693 599.134C223.357 599.79 223.037 600.463 222.718 601.119C222.134 602.573 221.549 604.01 220.946 605.464C220.166 607.29 219.369 609.116 218.589 610.96C217.845 612.733 217.136 614.506 216.321 616.226C215.523 617.91 214.691 619.594 213.911 621.297C213.042 623.3 212.298 625.375 211.323 627.325C210.933 628.123 210.508 628.903 210.083 629.701C210.012 629.843 209.923 629.985 209.87 630.126C209.374 631.048 208.895 631.988 208.417 632.91C208.452 632.821 208.488 632.75 208.523 632.662C207.531 634.719 206.521 636.793 205.528 638.867C205.404 639.187 205.298 639.488 205.174 639.807C205.05 640.055 204.926 640.321 204.802 640.569C204.465 641.208 204.111 641.828 203.774 642.467C203.49 643.052 203.189 643.619 202.888 644.204C202.516 644.931 202.126 645.676 201.754 646.403C201.346 647.201 200.921 647.981 200.495 648.761C200.265 649.204 200.052 649.648 199.804 650.091C199.591 650.499 199.379 650.906 199.166 651.314C198.759 652.112 198.333 652.928 197.908 653.725C196.419 656.491 195.002 659.275 193.495 662.023C191.936 664.86 190.305 667.644 188.622 670.41C188.427 670.729 188.249 671.03 188.055 671.332C187.239 672.644 186.406 673.938 185.574 675.232C185.219 675.8 184.865 676.367 184.528 676.934C184.244 677.395 183.961 677.839 183.677 678.3C183.606 678.406 183.553 678.495 183.482 678.601C183.305 678.885 183.128 679.151 182.951 679.417C182.348 680.339 181.746 681.261 180.966 682.058C180.895 682.129 180.824 682.2 180.735 682.271C180.665 682.342 180.576 682.395 180.505 682.449H180.487C180.452 682.484 180.434 682.484 180.399 682.519C178.095 685.25 175.49 687.732 172.442 689.771C165.069 694.328 156.669 697.023 149.687 702.307C147.879 703.619 145.629 704.895 144.707 707.005C143.661 709.47 142.846 712.041 141.925 714.558C139.461 720.728 136.661 728.618 136.36 735.781C136.395 736.845 136.218 738.122 136.077 739.434C135.297 739.185 134.464 739.097 133.631 739.203C127.446 740.781 121.421 743.069 115.076 744.062C108.891 744.93 102.635 744.753 96.4151 744.239C80.554 742.537 65.5791 736.331 52.5358 726.898C50.5687 725.427 48.6193 723.92 46.7585 722.324C46.9889 721.916 47.2015 721.508 47.4142 721.136C49.7357 717.306 52.0396 713.459 53.6523 709.257C56.2397 702.324 57.9763 694.417 56.3459 687.094C54.5383 682.449 51.8978 677.573 49.6649 672.519C40.804 653.176 42.4166 631.385 47.4142 611.226C52.3054 583.708 59.0574 556.492 67.4398 529.79C67.6879 529.259 67.8829 528.691 68.0424 528.159C68.0956 527.964 68.131 527.787 68.1665 527.627C69.6906 522.947 71.0551 519.011 72.8273 514.188C75.4856 506.245 78.197 498.231 81.0856 490.216C81.1211 490.092 81.1743 489.968 81.2097 489.826C82.4857 486.812 83.5845 483.674 84.6655 480.518C86.3668 475.926 88.2098 471.387 89.8225 466.777L89.8757 466.812C92.0201 460.022 94.2707 453.266 96.6455 446.547V446.529C96.8227 446.086 96.9821 445.642 97.1239 445.199C97.1239 445.181 97.1239 445.164 97.1416 445.146C97.3543 444.49 97.6024 443.852 97.8328 443.196C111.638 407.7 125.78 372.345 138.876 336.583C149.634 308.498 158.211 279.634 167.869 251.141C179.761 215.716 193.531 180.947 207.301 146.213C218.022 120.202 229.382 93.4828 243.683 69.0682C255.557 48.7138 268.99 25.8772 286.003 8.14685C287.12 7.01211 288.254 5.89506 289.388 4.77805L284.426 3.21777L293.18 5.96606L293.234 5.98381L293.322 6.01919L293.429 6.05469L293.553 6.10782L293.677 6.16107L293.801 6.2142L293.925 6.26744L294.031 6.30294L294.137 6.35607L294.244 6.39157L294.35 6.4447L294.456 6.4802L294.545 6.51569L294.634 6.55108L294.722 6.58658L294.811 6.62207L294.9 6.65746L294.988 6.69295L295.077 6.72845L295.165 6.76384L295.254 6.79933L295.325 6.83483L295.413 6.87032L295.484 6.90571L295.555 6.94121L295.626 6.9767L295.697 7.01209L295.768 7.04758L295.856 7.08308L295.927 7.11846L296.016 7.15396L296.105 7.18946L296.193 7.22484L296.282 7.26034L296.37 7.29583L296.459 7.33122L296.548 7.36672L296.636 7.40221L296.707 7.4376L296.778 7.47309L296.849 7.50859L296.92 7.54398L296.991 7.57947L297.062 7.61497L297.132 7.63271L297.203 7.6681L297.274 7.7036L297.345 7.72134L297.398 7.73909L297.469 7.75684L297.522 7.77448L297.575 7.80997L297.629 7.82772L297.682 7.84547L297.735 7.86322L297.788 7.88086L297.841 7.8986L297.895 7.91635L297.948 7.9341L298.001 7.95185L298.054 7.96959L298.107 7.98723L298.143 8.00498L298.196 8.02273L298.231 8.04048L298.267 8.05822L298.32 8.07597L298.355 8.09361L298.408 8.11136L298.462 8.12911L298.515 8.1646L298.568 8.18235L298.621 8.21774L298.674 8.25323L298.727 8.28873L298.798 8.32411L298.851 8.35961L298.922 8.3951L298.993 8.43049L299.064 8.46599L299.135 8.50148L299.206 8.53687L299.277 8.57236L299.348 8.60786L299.419 8.64335L299.489 8.67874L299.56 8.71424L299.631 8.74973L299.702 8.78512L299.773 8.82061L299.844 8.87375L299.915 8.90924L299.986 8.94474L300.057 8.98013L300.127 9.01562L300.198 9.05112L300.269 9.08661L300.34 9.122L300.411 9.15749L300.482 9.19299L300.553 9.22838L300.624 9.26387L300.694 9.29937L300.765 9.33475L300.836 9.37025L300.907 9.40575L300.978 9.44113L301.049 9.47663L301.12 9.51212L301.191 9.54751L301.262 9.583L301.333 9.6185L301.403 9.65389L301.474 9.68938L301.563 9.72488L301.634 9.76026L301.722 9.79576L301.793 9.83126L301.882 9.86664L301.971 9.90214L302.059 9.93763L302.148 9.97313L302.236 10.0085L302.325 10.044L302.414 10.0971L302.502 10.1326L302.591 10.1859L302.679 10.239L302.768 10.2923L302.857 10.3454L302.963 10.3986L303.069 10.4518L303.176 10.505L303.3 10.5759L303.406 10.6468L303.53 10.7178L303.654 10.7887L303.778 10.8596L303.902 10.9305L304.026 11.0014L304.15 11.0724L304.274 11.1433L304.398 11.2142L304.522 11.2852L304.629 11.356L304.735 11.4269L304.841 11.4979L304.948 11.5688L305.054 11.6397L305.16 11.7107L305.267 11.7815L305.355 11.8525L305.462 11.9234L305.568 11.9943L305.674 12.0653L305.781 12.1362L305.905 12.2071L306.011 12.278L306.135 12.3489L306.259 12.4198L306.383 12.4908L306.507 12.5617L306.631 12.6327L306.738 12.7036L306.844 12.7744L306.95 12.8454L307.039 12.9163L307.145 12.9872L307.234 13.0582L307.322 13.1291L307.411 13.2L307.5 13.2709L307.588 13.3418L307.695 13.4127L307.801 13.4837L307.907 13.5546L308.014 13.6256L308.102 13.6965L308.209 13.7673L308.297 13.8383L308.386 13.9092L308.474 13.9801L308.563 14.0511L308.652 14.122L308.74 14.1928L308.811 14.2638L308.9 14.317L308.971 14.3702L309.042 14.4411L309.112 14.4943L309.183 14.5475L309.254 14.6185L309.343 14.6893L309.414 14.7602L309.502 14.8312L309.591 14.9021L309.679 14.973L309.768 15.044L309.857 15.1149L309.945 15.1857L310.034 15.2567L310.122 15.3276L310.211 15.3986L310.3 15.4695L310.388 15.5404L310.477 15.6114L310.566 15.6822L310.654 15.7531L310.743 15.8241L310.831 15.9127L310.92 15.9836L311.009 16.0723L311.097 16.161L311.186 16.2319L311.274 16.3205L311.363 16.4091L311.452 16.4979L311.54 16.5865L311.629 16.6751L311.717 16.7638L311.806 16.8524L311.895 16.9411L311.983 17.0298L312.072 17.1184L312.161 17.207L312.249 17.2956L312.355 17.3844L312.462 17.473L312.568 17.5616L312.674 17.6503L312.781 17.7389L312.887 17.8276L312.976 17.9163L313.082 18.0049L313.171 18.0935L313.259 18.1645L313.348 18.2532L313.436 18.324L313.525 18.395L313.596 18.4659L313.685 18.5368L313.755 18.6078L313.826 18.6787L313.897 18.7495L313.968 18.8205L314.039 18.8914L314.128 18.9623L314.198 19.0333L314.287 19.1042L314.376 19.1751L314.464 19.246L314.553 19.3169L314.642 19.3879L314.73 19.4588L314.819 19.5297L314.907 19.6007L314.996 19.6716L315.085 19.7424L315.173 19.8134L315.262 19.8843L315.35 19.9552L315.421 20.0262L315.492 20.0971L315.563 20.1681L315.634 20.2389L315.705 20.3098L315.776 20.3808L315.864 20.4517L315.935 20.5226L316.024 20.5936L316.112 20.6645L316.201 20.7353L316.29 20.8063L316.378 20.8772L316.485 20.9658L316.591 21.0546L316.68 21.1255L316.786 21.2141L316.892 21.285L316.981 21.3737L317.069 21.4446L317.158 21.5155L317.247 21.5865L317.335 21.6573L317.424 21.7282L317.512 21.7992L317.601 21.8701L317.69 21.9411L317.778 22.012L317.867 22.1006L317.956 22.1715L318.044 22.2425L318.133 22.3311L318.221 22.4197L318.31 22.5084L318.399 22.5971L318.487 22.668L318.576 22.7566L318.664 22.8452L318.753 22.934L318.842 23.0049L318.93 23.0758L319.019 23.1467L319.107 23.2176L319.196 23.2885L319.285 23.3595L319.373 23.4304L319.462 23.5013L319.551 23.5723L319.621 23.6431L319.71 23.7141L319.781 23.785L319.852 23.8559L319.923 23.9269L319.994 23.9978L320.064 24.0686L320.135 24.1396L320.206 24.2105L320.277 24.2814L320.348 24.3524L320.419 24.4233L320.49 24.4942L320.578 24.5651L320.649 24.636L320.738 24.707L320.827 24.7779L320.915 24.8488L321.004 24.9198L321.092 24.9907L321.181 25.0615L321.27 25.1325L321.358 25.2034L321.447 25.2743L321.535 25.3453L321.624 25.4162L321.713 25.4872L321.801 25.558L321.89 25.6289L321.978 25.6999L322.067 25.7708L322.156 25.8417L322.244 25.9127L322.333 25.9835L322.421 26.0544L322.51 26.1254L322.599 26.1963L322.687 26.2672L322.776 26.3382L322.865 26.4091L322.953 26.48L323.042 26.5509L323.13 26.6218L323.201 26.6928L323.29 26.7637L323.361 26.8346L323.432 26.9056L323.52 26.9764L323.609 27.0473L323.68 27.1183L323.768 27.1892L323.857 27.2602L323.945 27.3311L324.034 27.4197L324.123 27.4906L324.211 27.5793L324.3 27.6679L324.389 27.7388L324.477 27.8275L324.566 27.8985L324.654 27.9693L324.743 28.0402L324.832 28.1112L324.92 28.1821L325.009 28.2531L325.097 28.3417L325.186 28.4126L325.275 28.4835L325.363 28.5722L325.452 28.6431L325.541 28.7317L325.629 28.8204L325.718 28.9091L325.806 28.9977L325.895 29.0686L325.984 29.1572L326.072 29.2282L326.161 29.2991L326.249 29.37L326.32 29.441L326.409 29.5119L326.48 29.5829L326.568 29.6537L326.639 29.7246L326.71 29.7956L326.799 29.8665L326.87 29.9374L326.958 30.0084L327.029 30.0792L327.118 30.1501L327.206 30.2211L327.295 30.292L327.366 30.363L327.454 30.4339L327.543 30.5048L327.632 30.5757L327.72 30.6644L327.809 30.753L327.898 30.8416L327.986 30.9303L328.075 31.019L328.163 31.1076L328.27 31.214L328.376 31.3204L328.482 31.4268L328.589 31.5331L328.695 31.6395L328.801 31.7636L328.908 31.87L329.014 31.9764L329.12 32.0828L329.227 32.1892L329.333 32.2955L329.422 32.4019L329.51 32.5083L329.599 32.6147L329.687 32.721L329.776 32.8274L329.865 32.9338L329.953 33.0402L330.042 33.1643L330.131 33.2707L330.219 33.3948L330.308 33.5189L330.414 33.6431L330.503 33.7672L330.591 33.8913L330.698 34.0154L330.786 34.1395L330.875 34.2458L330.963 34.37L331.052 34.4763L331.141 34.5827L331.229 34.6891L331.318 34.7956L331.406 34.9019L331.495 35.0083L331.584 35.1147L331.672 35.2211L331.761 35.3275L331.849 35.4338L331.938 35.5402L332.027 35.6466L332.115 35.753L332.222 35.8593L332.31 35.9657L332.399 36.0721L332.487 36.1785L332.576 36.2671L332.665 36.3557L332.753 36.4445L332.842 36.5331L332.93 36.6217L333.001 36.7104L333.09 36.799L333.161 36.8877L333.249 36.9764L333.338 37.065L333.427 37.1714L333.515 37.2778L333.604 37.3841L333.71 37.4905L333.799 37.5969L333.905 37.7033L333.994 37.8096L334.1 37.916L334.189 38.0224L334.277 38.1288L334.366 38.2351L334.455 38.3416L334.543 38.4303L334.632 38.5366L334.72 38.6253L334.809 38.7317L334.898 38.838L334.986 38.9267L335.075 39.033L335.163 39.1394L335.252 39.2282L335.341 39.3345L335.429 39.4409L335.518 39.5473L335.607 39.6537L335.695 39.7423L335.784 39.8487L335.872 39.9373L335.961 40.0259L336.05 40.1147L336.138 40.2033L336.227 40.2919L336.315 40.3806L336.404 40.4692L336.493 40.5579L336.581 40.6466L336.67 40.7352L336.758 40.8238L336.847 40.9124L336.936 41.0012L337.024 41.0898L337.113 41.1784L337.202 41.2671L337.29 41.3735L337.379 41.4621L337.467 41.5685L337.556 41.6748L337.645 41.7812L337.733 41.8877L337.822 41.9941L337.91 42.1005L337.999 42.2245L338.088 42.3486L338.194 42.4727L338.3 42.5968L338.407 42.721L338.513 42.8451L338.619 42.9692L338.726 43.0933L338.832 43.2175L338.938 43.3415L339.045 43.4656L339.133 43.5897L339.239 43.7139L339.328 43.838L339.434 43.9621L339.523 44.0862L339.612 44.2104L339.7 44.3344L339.789 44.4585L339.895 44.5826L339.984 44.7068L340.09 44.8309L340.197 44.955L340.303 45.0969L340.409 45.2386L340.533 45.3805L340.657 45.5401L340.781 45.6997L340.905 45.8593L341.029 46.0188L341.153 46.1784L341.277 46.3379L341.402 46.4975L341.526 46.6571L341.65 46.7989L341.774 46.9408L341.88 47.0827L341.986 47.2068L342.093 47.3308L342.181 47.4549L342.27 47.5791L342.359 47.7032L342.447 47.8273L342.553 47.9514L342.642 48.0756L342.748 48.2173L342.855 48.3592L342.961 48.5011L343.067 48.6429L343.174 48.7847L343.28 48.9266L343.386 49.0685L343.493 49.2102L343.581 49.3343L343.67 49.4585L343.759 49.5826L343.847 49.7067L343.936 49.8308L344.024 49.955L344.113 50.0791L344.202 50.2031L344.308 50.3272L344.397 50.4691L344.485 50.5932L344.591 50.7351L344.68 50.8769L344.769 51.0187L344.857 51.1429L344.946 51.267L345.035 51.4089L345.123 51.5329L345.212 51.657L345.3 51.7811L345.389 51.9053L345.478 52.0294L345.566 52.1535L345.655 52.2599L345.743 52.3663L345.832 52.4726L345.921 52.579L346.009 52.6854L346.098 52.7918L346.186 52.8982L346.275 53.0045L346.364 53.1109L346.452 53.2173L346.541 53.3237L346.63 53.43L346.718 53.5364L346.807 53.6605L346.895 53.7847L347.002 53.9088L347.108 54.0329L347.214 54.157L347.321 54.2989L347.427 54.4407L347.533 54.5826L347.64 54.7244L347.746 54.8662L347.852 55.0081L347.959 55.1322L348.065 55.2563L348.154 55.3804L348.242 55.5046L348.331 55.6287L348.419 55.7527L348.508 55.8768L348.597 56.001L348.703 56.1251L348.809 56.267L348.916 56.4087L349.022 56.5683L349.128 56.728L349.235 56.8875L349.341 57.0471L349.447 57.2066L349.554 57.3662L349.66 57.5257L349.766 57.6854L349.873 57.845L349.979 58.0045L350.085 58.1641L350.174 58.3059L350.262 58.4478L350.351 58.5719L350.44 58.696L350.528 58.8201L350.617 58.9443L350.706 59.0683L350.794 59.1924L350.883 59.3165L350.989 59.4406L351.095 59.5648L351.202 59.6889L351.308 59.813L351.414 59.9371L351.521 60.0613L351.627 60.1853L351.733 60.3094L351.84 60.4335L351.946 60.5577L352.052 60.6818L352.159 60.8059L352.265 60.93L352.371 61.0542L352.478 61.1782L352.584 61.3023L352.69 61.4087L352.797 61.5328L352.903 61.6392L352.992 61.7456L353.08 61.8519L353.169 61.9583L353.257 62.0647L353.346 62.1534L353.435 62.2598L353.523 62.3484L353.612 62.4371L353.683 62.5257L353.754 62.6143L353.825 62.7031L353.895 62.7917L353.966 62.8803L354.037 62.969L354.108 63.0576L354.179 63.1463L354.25 63.235L354.321 63.3236L354.392 63.43L354.463 63.5186L354.551 63.625L354.64 63.7314L354.728 63.8555L354.817 63.9796L354.906 64.1037L354.994 64.2279L355.083 64.352L355.171 64.4761L355.26 64.6002L355.349 64.7242L355.437 64.8484L355.526 64.9548L355.597 65.0611L355.668 65.1675L355.738 65.2562L355.809 65.3626L355.88 65.4513L355.951 65.5399L356.022 65.6463L356.093 65.7526L356.164 65.859L356.235 65.9654L356.323 66.0718L356.412 66.1959L356.5 66.3023L356.589 66.4264L357.263 66.515Z" fill="white"/>
<path id="Outline" d="M281.626 2.40137L284.312 3.24512L284.336 3.21777L289.334 4.7959C288.2 5.91291 287.066 7.0303 285.949 8.16504C268.936 25.8953 255.503 48.7316 243.629 69.0859C229.327 93.5005 217.968 120.22 207.246 146.23C193.476 180.964 179.707 215.734 167.815 251.159C158.157 279.652 149.597 308.498 138.822 336.601C125.726 372.363 111.566 407.736 97.7783 443.214C97.5776 443.786 97.3775 444.344 97.1768 444.912C96.9855 445.59 96.7357 446.266 96.4639 446.927C94.153 453.527 91.9445 460.161 89.8213 466.83L89.8115 466.823C89.809 466.831 89.8072 466.84 89.8047 466.848L89.7686 466.822C88.1526 471.427 86.3114 475.955 84.6104 480.535C83.5495 483.659 82.4611 486.756 81.1973 489.753C81.1475 489.913 81.0999 490.074 81.0498 490.234C78.1611 498.248 75.4316 506.263 72.791 514.206C71.0189 519.029 69.6549 522.965 68.1309 527.646C67.9909 528.276 67.7734 528.965 67.4834 529.634C59.0708 556.406 52.2854 583.671 47.3965 611.261C42.3989 631.42 40.7865 653.193 49.6475 672.555C51.8981 677.608 54.5205 682.484 56.3281 687.129C57.9585 694.452 56.2222 702.359 53.6348 709.292C52.0221 713.494 49.718 717.341 47.3965 721.171C47.1838 721.544 46.9642 721.945 46.7373 722.356C48.602 723.947 50.5408 725.453 52.5 726.916C65.5432 736.348 80.5358 742.554 96.3789 744.256C99.8637 744.545 103.371 744.727 106.872 744.678C109.586 744.638 112.295 744.457 114.988 744.079C121.333 743.086 127.358 740.799 133.543 739.221C133.751 739.194 133.96 739.18 134.167 739.178H134.268C134.298 739.178 134.329 739.179 134.359 739.18C134.411 739.181 134.462 739.181 134.514 739.184C135.017 739.203 135.512 739.289 135.99 739.432C136.114 738.127 136.308 736.858 136.272 735.8C136.574 728.637 139.374 720.746 141.837 714.576C142.758 712.059 143.574 709.488 144.619 707.023C145.541 704.896 147.791 703.636 149.599 702.324C156.563 697.041 164.981 694.346 172.354 689.789C175.402 687.732 178.007 685.268 180.311 682.537C180.346 682.519 180.364 682.502 180.399 682.467H180.417C180.488 682.414 180.577 682.36 180.647 682.289C180.736 682.218 180.807 682.165 180.878 682.076C181.658 681.278 182.261 680.357 182.863 679.435C183.04 679.169 183.217 678.903 183.395 678.619C183.465 678.531 183.519 678.424 183.59 678.317C183.873 677.874 184.157 677.413 184.44 676.952C184.795 676.385 185.131 675.817 185.485 675.25C186.318 673.956 187.169 672.662 187.967 671.35C188.162 671.048 188.357 670.729 188.534 670.428C190.218 667.662 191.865 664.878 193.407 662.041C194.914 659.293 196.332 656.509 197.82 653.743C198.246 652.945 198.671 652.13 199.078 651.332C199.291 650.924 199.504 650.516 199.717 650.108C199.929 649.718 200.124 649.311 200.337 648.921C200.78 648.088 201.223 647.254 201.666 646.421C202.056 645.694 202.428 644.949 202.8 644.223C203.101 643.655 203.384 643.069 203.686 642.484C204.022 641.846 204.377 641.225 204.714 640.587C204.838 640.339 204.962 640.073 205.086 639.825C205.192 639.506 205.316 639.205 205.44 638.886C206.415 636.811 207.425 634.754 208.436 632.68C208.4 632.768 208.365 632.839 208.329 632.928C208.79 631.988 209.286 631.066 209.782 630.145C209.853 630.003 209.924 629.861 209.995 629.719L210.037 629.749C210.46 628.951 210.883 628.152 211.287 627.343C212.262 625.393 213.023 623.318 213.874 621.314C213.874 621.332 213.857 621.332 213.856 621.35C214.654 619.63 215.487 617.945 216.284 616.243C217.099 614.506 217.808 612.733 218.553 610.978C218.5 611.102 218.447 611.226 218.394 611.35C219.209 609.382 220.077 607.449 220.91 605.499C221.53 604.063 222.098 602.609 222.7 601.173C223.019 600.499 223.338 599.843 223.675 599.187C226.599 593.371 228.903 587.236 231.366 581.208C232.554 578.283 233.74 575.357 234.945 572.449C235.091 572.091 235.234 571.731 235.377 571.372L235.371 571.367C235.378 571.35 235.384 571.333 235.391 571.315L236.187 569.293C236.317 568.946 236.448 568.6 236.588 568.253C237.008 567.162 237.427 566.072 237.848 564.982C238.09 564.349 238.333 563.717 238.579 563.088C239.199 561.528 239.819 559.967 240.439 558.425C240.953 557.148 241.486 555.854 242.035 554.577C242.129 554.343 242.222 554.109 242.328 553.875C242.342 553.841 242.357 553.807 242.371 553.773V553.762C242.377 553.756 242.38 553.748 242.384 553.742C242.386 553.737 242.388 553.732 242.391 553.727C242.408 553.709 242.409 553.674 242.427 553.656C242.462 553.568 242.515 553.478 242.551 553.372C242.604 553.248 242.657 553.106 242.71 552.964C243.561 550.943 244.451 548.942 245.321 546.931L246.024 545.287C246.055 545.217 246.084 545.146 246.114 545.076C246.115 545.071 246.12 545.066 246.121 545.061C246.236 544.793 246.35 544.525 246.465 544.258C246.465 544.24 246.483 544.223 246.483 544.205C246.483 544.203 246.485 544.202 246.485 544.2V544.197C246.489 544.182 246.503 544.164 246.519 544.134V544.116C246.523 544.107 246.527 544.098 246.531 544.091C246.533 544.082 246.538 544.073 246.538 544.063C246.538 544.062 246.541 544.057 246.545 544.048C246.548 544.04 246.55 544.032 246.555 544.024C246.558 544.018 246.56 544.011 246.563 544.004C246.572 543.977 246.577 543.953 246.591 543.939C246.626 543.851 246.662 543.78 246.697 543.691V543.707C247.393 542.059 248.036 540.4 248.685 538.739C248.86 538.285 249.039 537.832 249.214 537.379C250.419 534.329 251.659 531.297 252.882 528.283C254.105 525.251 255.24 522.202 256.392 519.152C257.526 516.138 258.783 513.195 259.847 510.146C259.994 509.72 260.141 509.295 260.288 508.869V508.868C260.289 508.867 260.289 508.865 260.29 508.863C260.302 508.83 260.314 508.796 260.325 508.763C260.467 508.479 260.592 508.195 260.733 507.911C261.269 506.817 261.809 505.721 262.324 504.616C262.378 504.497 262.433 504.379 262.485 504.259C262.68 503.833 262.858 503.407 263.053 502.981C263.815 501.191 264.506 499.364 265.339 497.627C265.354 497.598 265.37 497.569 265.385 497.54C265.388 497.534 265.391 497.528 265.394 497.521C265.543 497.234 265.696 496.949 265.851 496.666C266.515 494.408 267.352 492.24 268.507 490.293C279.609 466.206 290.876 442.207 303.085 418.692C306.306 412.486 309.592 406.313 312.959 400.182C314.316 397.932 315.693 395.692 317.089 393.46C327.852 376.22 339.737 359.592 352.424 343.905L352.423 343.917C352.972 343.238 353.522 342.56 354.074 341.885C345.426 366.335 334.544 389.987 323.628 413.497C302.444 457.169 281.906 501.153 260.951 544.946C258.423 550.948 255.969 556.997 253.767 563.124C250.847 571.028 247.835 578.903 244.717 586.735C242.472 592.943 240.17 599.131 237.783 605.286C233.809 613.973 228.571 627.682 222.315 640.567L222.434 640.676C215.044 655.693 206.768 670.286 197.907 684.47C187.008 701.916 172.635 706.437 154.506 713.388C152.273 719.522 149.279 725.338 146.957 731.438C145.522 735.604 144.37 739.859 143.111 744.079C142.757 745.35 141.663 746.322 140.406 746.611C139.835 749.469 137.687 750.916 135.08 751.853C136.234 754.871 137.604 757.8 138.947 760.728C144.406 772.695 150.201 784.628 153.249 797.482C155.358 815.354 153.373 833.67 151.813 851.471C150.662 863.35 149.882 875.265 150.591 887.18C152.168 900.211 152.824 913.332 154.543 926.328C154.862 929.502 156.208 932.782 154.826 935.867C152.7 940.619 147.666 943.314 142.58 943.314C141.73 943.297 140.861 943.207 139.993 943.048C114.616 935.885 114.102 898.492 107.456 877.481C107.403 877.298 107.346 877.114 107.289 876.93C100.098 891.158 101.739 926.496 103.822 939.272C105.789 949.574 110.946 959.165 111.513 969.732C111.903 980.654 105.116 988.597 95.9893 988.598C93.1715 988.669 90.0872 987.889 86.915 986.169C77.6809 981.638 72.7326 972.648 69.5811 963.032C69.5525 963.02 69.5236 963.008 69.4951 962.995C60.8469 959.343 49.3092 959.183 44.542 949.608C41.6888 943.793 38.7291 937.605 32.3848 934.91C18.4557 929.768 13.5997 919.218 9.73633 905.814C7.55661 900.034 5.5192 894.148 4.47363 888.031C1.30145 868.883 1.93892 849.22 5.02246 830.089C7.71618 813.086 14.6279 797.199 21.2559 781.454C25.3318 771.366 29.5494 761.348 34.4229 751.632C37.0184 745.333 40.8298 739.192 47.2979 736.35C45.1344 734.159 40.8746 729.917 39.0977 726.179C37.9464 725.183 37.4544 723.546 37.9512 722.04C41.017 712.058 45.6247 702.732 44.9336 692.253C29.1081 676.118 23.065 651.97 25.1738 629.843C27.2827 615.641 30.5254 601.597 32.8115 587.396C37.047 569.364 41.7969 551.439 47.2197 533.727C47.7337 532.858 48.0522 531.847 48.123 530.801C48.1407 530.748 48.1591 530.695 48.1768 530.642C48.4071 530.003 48.6552 529.365 48.9033 528.727C49.2932 527.663 49.6118 526.581 49.9131 525.481C50.0548 524.95 50.1971 524.4 50.3389 523.868C50.651 522.892 50.9662 521.92 51.2852 520.949C51.2667 520.668 51.2715 520.381 51.2959 520.092C52.0579 517.468 52.8203 514.861 53.5469 512.22C53.9899 510.695 54.4504 509.152 54.9111 507.609C55.5668 505.606 56.258 503.62 56.8428 501.599C56.7719 501.865 56.6832 502.148 56.6123 502.414C56.8249 501.723 57.0374 501.014 57.25 500.322C57.4803 499.737 57.7109 499.17 57.959 498.585C59.5717 494.722 60.913 490.763 62.3154 486.829L62.7773 485.544C62.8282 485.411 62.8766 485.278 62.9209 485.146C62.9153 485.161 62.9089 485.176 62.9033 485.191C63.0746 484.74 63.2467 484.29 63.418 483.833C63.398 483.903 63.3725 483.967 63.3477 484.032C63.9154 482.572 64.495 481.119 65.0791 479.669L66.8799 475.207C66.8733 475.216 66.8643 475.225 66.8555 475.233C66.9263 475.056 66.9975 474.879 67.0684 474.702C67.0509 474.72 67.0505 474.755 67.0332 474.772C67.0595 474.694 67.0937 474.614 67.125 474.535C67.1233 474.537 67.1228 474.54 67.1211 474.542C68.3261 471.563 69.4963 468.567 70.5596 465.535C71.6937 462.379 72.81 459.206 73.9619 456.05C74.5645 454.436 75.1321 452.805 75.6992 451.191C75.9473 450.5 76.1777 449.791 76.4258 449.1C77.046 447.77 77.4181 446.263 77.8789 444.915C78.2333 443.887 78.6055 442.876 78.96 441.865C79.9454 439.451 80.9398 437.042 81.9443 434.635C85.508 425.161 89.3178 415.774 93.4023 406.493C110.415 364.756 126.543 322.629 140.33 279.722C154.1 236.283 169.819 193.517 186.637 151.159C192.006 137.418 197.624 123.766 202.905 110.858C208.115 97.6671 213.964 82.5608 221.159 70.9297C231.544 53.2703 240.423 34.3692 254.051 18.8906C260.023 12.2596 266.438 6.08965 273.314 0.416016L281.626 2.40137ZM47.5537 736.609C49.0095 746.654 42.2803 755.278 38.2334 763.954C32.8992 775.035 28.0082 786.33 23.1348 797.606C14.4865 816.95 10.5166 837.996 10.5166 859.148C10.5875 872.109 11.2249 885.336 15.4072 897.712C16.6611 900.786 17.6558 904.161 18.7607 907.501C19.0066 901.307 20.0813 895.099 20.8838 890.727C21.9648 897.375 22.8511 904.379 24.2334 911.081C25.1195 915.088 26.0763 919.077 27.6357 922.854C27.6527 922.908 27.6676 922.962 27.6826 923.017C28.6662 923.823 29.7545 924.543 30.9678 925.158C34.3314 926.545 37.62 928.222 40.5488 930.335C39.7876 922.565 42.4002 914.661 45.3047 907.623C45.4465 915.034 44.5074 922.534 46.0137 929.856C46.5847 932.724 47.468 935.395 47.959 938.12C48.3197 938.708 48.6593 939.315 48.9727 939.945C50.7626 942.995 51.8973 946.701 54.9277 948.775C58.5012 951.237 62.9273 951.873 66.9287 953.319C66.5627 951.74 66.2221 950.178 65.8975 948.651C61.5911 929.148 63.558 908.918 67.6162 889.663C71.6035 916.17 67.6873 955.265 86.543 975.867C93.7026 981.931 102.67 982.977 103.698 971.417C103.911 965.797 101.979 960.371 100.508 955.017C94.1634 937.641 94.5713 918.829 95.7764 900.62C96.9106 889.326 97.4068 875.797 106.977 868.103C108.43 867.057 110.557 866.365 112.134 867.588C113.676 868.794 113.871 871.223 112.364 872.5C111.762 873.014 110.893 873.137 110.113 872.942C109.489 873.534 108.91 874.243 108.371 875.055C109.681 876.798 110.896 878.616 111.922 880.514C118.78 892.021 122.041 904.982 126.383 917.499C129.325 924.431 133.099 932.197 140.4 935.3C143.041 936.24 146.638 935.832 148.003 933.084C145.575 917.641 144.831 902.056 143.183 886.56C142.048 863.971 147.135 841.666 147.082 819.078C147.135 812.624 147.33 806.117 146.656 799.681C143.426 783.37 134.892 768.89 129.249 753.394C128.253 753.638 127.302 753.898 126.453 754.221C119.701 756.685 112.523 757.412 105.346 757.412C102.333 757.412 99.3025 757.27 96.3076 757.093C78.6922 755.373 61.041 748.777 47.7852 736.845C47.7122 736.77 47.6346 736.692 47.5537 736.609ZM237.409 548.105C237.409 548.124 237.391 548.124 237.391 548.124C237.391 548.122 237.392 548.106 237.409 548.105ZM237.782 547.201C237.782 547.219 237.764 547.238 237.764 547.256C237.746 547.238 237.763 547.237 237.764 547.22C237.764 547.202 237.764 547.201 237.782 547.201ZM237.782 547.148C237.782 547.167 237.782 547.185 237.764 547.203C237.764 547.185 237.782 547.167 237.782 547.148ZM63.2754 484.241C63.2223 484.365 63.1869 484.489 63.1338 484.613C63.1869 484.489 63.2399 484.365 63.2754 484.241Z" fill="black"/>
</g>
</svg>
