<svg width="909" height="989" viewBox="0 0 909 989" fill="none" xmlns="http://www.w3.org/2000/svg">
<g id="Right Arm / Texting">
<g id="Clothing 1">
<path d="M569.446 385.714L570.97 387.54L546.585 407.168L506.232 455.642L441.902 509.507L333.994 559.79L268.423 565.216L226.369 536.776L182.844 457.078L167.816 323.941L178.006 211.336L217.721 99.9189L266.297 16.1609L283.31 2.65039L283.363 2.66803L283.717 2.75677L283.788 2.77441L283.859 2.8099L284.142 2.88089L284.213 2.89853L284.568 2.98727L284.639 3.00491L284.993 3.09365L285.064 3.11129L285.277 3.16453L285.348 3.20003L285.418 3.21767L285.56 3.25316L285.613 3.27091L285.684 3.28866L285.791 3.32415L285.844 3.34179L286.11 3.43053L286.145 3.44817L286.304 3.50141L286.34 3.51916L286.393 3.53691L286.446 3.55455L286.499 3.57229L286.535 3.59004L286.641 3.62554L286.677 3.64328L286.73 3.66092L286.765 3.67867H286.783C283.522 7.08289 280.403 10.629 277.408 14.2637C258.304 36.4798 244.357 62.366 231.987 88.7842C219.121 116.248 207.815 144.422 198.05 173.127C182.118 215.999 175.614 261.69 175.1 307.275C173.239 361.76 178.751 416.848 197.376 468.337C205.28 491.848 216.48 514.915 233.352 533.319C247.618 546.918 265.942 557.414 285.684 559.861C300.872 560.819 315.67 556.9 330.396 553.212C338.07 550.18 346.204 548.354 354.002 545.57C374.736 537.84 394.195 527.149 413.21 515.925C441.016 500.039 466.536 481.599 490.407 460.518C504.23 448.337 514.136 432.628 526.205 418.852C535.916 407.682 547.329 397.983 560.266 390.749C560.479 390.661 560.691 390.554 560.904 390.448C552.486 381.512 549.97 362.452 547.861 352.647C544.848 334.704 544.068 311.371 548.198 292.24C540.737 295.112 533.453 298.516 525.797 300.927C517.663 303.215 509.156 304.279 500.703 304.296C488.776 304.225 476.832 302.31 464.94 304.154C437.507 308.746 411.74 319.615 385.866 329.402C375.197 333.338 364.475 337.026 353.789 340.98C333.445 348.392 312.178 353.09 292.135 361.37C280.563 366.335 269.788 372.966 259.757 380.537C257.595 382.026 255.309 385.04 252.722 385.04C251.924 385.04 251.109 384.756 250.276 384.065C247.618 381.654 249.479 378.037 251.853 376.175C254.866 373.125 258.127 370.342 261.459 367.682C280.35 352.15 303.831 345.395 326.87 338.338C330.131 337.346 333.356 336.335 336.581 335.307C336.581 335.271 336.564 335.218 336.564 335.182L343.085 333.108V333.179L343.723 337.452L343.847 338.214L460.811 298.02L512.293 300.413L557.466 282.275L556.509 289.261L552.398 319.562L562.73 376.033L563.049 377.806L567.621 383.249L569.446 385.714Z" fill="white"/>
<path d="M560.727 390.466C560.514 390.59 560.319 390.678 560.089 390.767C547.152 398.001 535.721 407.699 526.028 418.87C513.959 432.646 504.07 448.355 490.229 460.536C466.358 481.617 440.839 500.057 413.033 515.943C394 527.149 374.559 537.858 353.825 545.588C346.027 548.372 337.91 550.216 330.219 553.23C315.492 556.918 300.695 560.836 285.507 559.879C265.765 557.414 247.441 546.936 233.174 533.336C216.303 514.932 205.103 491.865 197.199 468.355C178.591 416.866 173.062 361.76 174.923 307.293C175.455 261.708 181.941 216.017 197.873 173.145C207.637 144.44 218.944 116.266 231.81 88.8019C244.18 62.4015 258.145 36.4976 277.231 14.2815C280.226 10.6468 283.345 7.10064 286.606 3.69642H286.641L286.712 3.73191L286.748 3.74966L286.783 3.76741L286.818 3.78505L286.854 3.8028L286.925 3.83829L286.96 3.85604L286.996 3.87379L287.031 3.89143L287.066 3.90917L287.137 3.94467L287.173 3.96242L287.208 3.98016L287.262 3.9978L287.297 4.01555L287.51 4.08654L287.563 4.10418L287.616 4.13968L287.722 4.17517L287.775 4.21067L287.829 4.22831L288.094 4.31704L288.148 4.33468L288.183 4.35243L288.343 4.40567L288.396 4.44106L288.449 4.45881L288.502 4.4943L288.644 4.56519L288.856 4.67156L289.122 4.77794L289.299 4.84893L289.565 4.95531L289.636 4.9907L289.725 5.02619L289.796 5.06169L289.884 5.09718L289.955 5.13257L290.221 5.23895L290.398 5.30994L290.664 5.41632L290.753 5.4517L290.841 5.4872L290.912 5.52269L291.001 5.55808L291.072 5.59358L291.16 5.62907L291.231 5.66446L291.373 5.73545L291.444 5.77084L291.656 5.87721L291.869 5.9837L292.082 6.09008L292.294 6.19645L292.365 6.23184L292.507 6.30283L292.578 6.33822L292.72 6.40921L292.791 6.4446L292.932 6.51559L293.003 6.55097L293.145 6.62196L293.234 6.65735L293.375 6.72834L293.446 6.76373L293.872 6.97659L294.084 7.08297L294.226 7.15385L294.315 7.18935L294.386 7.22473L294.651 7.33111L294.829 7.4021L295.095 7.50848L295.165 7.54387L295.254 7.57936L295.325 7.61486L295.413 7.65024L295.484 7.68574L295.662 7.75673L295.75 7.79212L295.927 7.86311L296.016 7.8985L296.105 7.93399L296.743 8.25312L296.867 8.30637L296.991 8.37725L297.115 8.43038L298.727 9.35239L299.011 9.49427L299.135 9.56515L299.277 9.65378L299.419 9.72477L299.667 9.86653L299.791 9.95527L300.039 10.097L300.163 10.1858L300.305 10.2744L300.429 10.363L300.854 10.629L301.014 10.7354L301.173 10.824L301.811 11.2496L301.988 11.3559L304.221 12.8453L304.381 12.9693L304.558 13.0758L304.912 13.324L305.107 13.4481L305.285 13.5722L305.479 13.6963L305.657 13.8205L305.852 13.9446L306.383 14.3169L307.5 15.1856L307.659 15.3275L307.819 15.4516L307.978 15.5935L308.687 16.1609L308.864 16.3204L309.839 17.1183L310.477 17.6502L310.69 17.8098L312.178 19.0509L312.391 19.2459L312.621 19.4409L312.869 19.636L313.366 20.0615L313.632 20.2743L314.482 20.9657L314.748 21.1962L315.032 21.4267L315.829 22.1182L315.9 22.1714L316.751 34.7955L357.316 244.403C356.873 242.932 356.412 241.46 355.916 240.006C354.622 263.818 355.242 287.967 355.987 311.885C356.111 317.434 356.306 322.984 356.447 328.533C353.541 329.597 350.617 330.626 347.693 331.636V331.672L346.222 332.133C346.116 332.168 346.027 332.204 345.921 332.239L342.926 333.197L336.404 335.271C336.404 335.307 336.422 335.36 336.422 335.395C333.196 336.423 329.971 337.434 326.71 338.427C303.672 345.484 280.19 352.239 261.299 367.771C257.967 370.43 254.707 373.214 251.694 376.264C249.319 378.125 247.458 381.742 250.117 384.153C250.967 384.845 251.782 385.129 252.562 385.129C255.15 385.129 257.436 382.115 259.598 380.625C269.646 373.054 280.403 366.423 291.975 361.459C312.001 353.179 333.267 348.48 353.63 341.069C364.298 337.133 375.038 333.445 385.706 329.491C411.58 319.704 437.348 308.835 464.781 304.243C476.672 302.399 488.617 304.314 500.544 304.385C508.997 304.367 517.503 303.303 525.638 301.016C533.293 298.605 540.577 295.218 548.038 292.328C543.891 311.459 544.689 334.792 547.701 352.735C549.793 362.469 552.309 381.529 560.727 390.466Z" fill="white"/>
</g>
<path id="Skin" d="M776.455 236.425C775.958 240.254 773.406 243.339 771.351 246.46C770.642 247.187 770.092 248.109 769.773 249.084C768.196 247.027 766.583 245.006 765.024 242.985C761.816 239.031 758.626 234.935 754.409 231.992C754.143 231.797 753.877 231.62 753.611 231.425C753.452 230.946 753.257 230.467 753.062 230.006C751.803 227.134 749.447 224.988 747.214 222.861C742.783 217.843 736.137 215.804 729.492 217.01C723.413 218.056 717.211 219.191 711.575 221.744C711.309 221.886 711.061 222.045 710.831 222.223C710.352 222.187 709.856 222.152 709.378 222.134C706.081 221.815 701.367 221.46 700.02 225.308C699.63 226.921 701.101 228.623 702.448 229.315C714.446 232.329 727.17 232.949 739.327 235.52C743.722 236.318 748.348 239.031 751.219 242.666C755.667 247.754 760.487 254.439 764.581 260.201C765.946 262.719 768.267 265.183 768.054 268.197C766.442 277.364 765.166 286.832 760.647 295.112C759.477 294.97 758.112 295.023 756.748 295.254C756.464 291.761 755.649 288.321 754.409 285.147C750.829 275.006 739.629 272.062 730.679 268.268C725.327 266.141 719.904 264.155 714.464 262.222C710.317 261.141 706.365 258.428 702.023 258.499C697.929 258.853 697.628 262.878 700.233 265.307C701.846 266.779 704.025 267.364 705.957 268.321C716.909 272.914 727.861 277.506 738.494 282.789C739.15 283.144 739.788 283.516 740.426 283.906C745.778 287.133 745.211 298.658 743.421 303.889C742.11 308.162 736.456 307.984 733.727 311.069C733.391 311.388 733.036 311.743 732.664 312.168C730.909 308.782 726.798 306.247 723.006 303.782C719.266 301.388 715.314 299.314 711.415 297.222C708.58 295.484 705.177 294.562 701.863 295.147C701.598 295.201 700.977 295.254 700.836 295.555C701.208 296.247 701.35 297.044 701.722 297.718C702.856 300.13 704.823 301.938 707.056 303.321C712.957 307.027 718.805 310.892 723.98 315.555C721.287 319.881 718.132 323.87 714.747 327.647C713.081 329.952 710.582 330.98 707.836 331.388C697.167 333.374 684.266 328.977 675.777 337.523C670.248 342.239 663.992 345.945 657.718 349.579C650.86 353.445 643.86 357.469 636.045 358.888C623.976 360.909 611.642 357.647 599.591 360.111C589.046 362.984 579.282 368.143 568.879 371.459C561.631 354.526 559.22 335.714 559.61 317.381C560.053 308.392 559.982 299.261 561.312 290.343C561.985 290.325 562.676 290.165 563.279 289.846C567.656 287.718 571.945 285.396 576.092 282.825C597.269 269.811 614.052 250.946 631.827 233.712C642.176 223.854 650.417 211.921 661.44 202.79C665.179 199.882 668.865 196.762 673.207 194.812C680.066 192.329 687.509 191.886 694.686 190.893C706.967 190.095 719.125 187.79 731.423 187.258C736.386 186.585 742.074 187.932 747.267 187.312C748.614 188.624 749.819 190.06 751.041 191.496C757.35 199.457 762.632 208.145 767.913 216.797C771.475 223.003 774.948 229.403 776.455 236.425Z" fill="#B7B5B5"/>
<path id="Phone" d="M897.636 100.539C897.689 102.401 897.016 104.156 896.537 105.929C893.418 114.794 888.722 122.95 884.15 131.124C878.727 140.787 873.286 150.432 868.076 160.219C849.468 192.169 833.749 225.697 814.875 257.488C809.966 266.194 805.057 274.899 799.776 283.374C795.345 290.466 791.287 300.644 781.416 300.289C778.031 300.431 774.629 300.608 771.208 300.785C775.78 293.268 776.932 280.289 778.173 273.835C778.74 270.449 779.201 266.743 778.332 263.357C777.393 260.857 776.188 258.499 774.788 256.229C777.819 255.91 780.264 252.612 781.965 250.094C783.383 248.197 784.783 246.212 785.705 244.031C786.998 240.573 788.363 237.009 787.477 233.268C785.386 225.077 781.398 217.524 776.791 210.485C769.56 199.935 762.525 188.286 752.051 180.698C750.297 177.506 745.831 175.556 742.145 175.609C745.015 170.556 747.709 165.414 750.491 160.29C760.398 141.283 773.353 124.351 785.244 106.337C794.194 102.685 804.118 102.773 813.617 101.763C841.528 99.369 869.671 99.0853 897.636 100.539Z" fill="white"/>
<g id="Outline">
<path d="M282.05 576.439C260.855 573.549 241.042 562.698 225.004 548.78C214.389 539.436 206.75 527.308 199.662 515.216C192.289 503.248 186.849 490.287 182.064 477.096C169.216 443.727 162.216 408.355 159.203 372.771C157.076 344.367 158.228 315.803 159.398 287.364C161.099 259.633 164.466 231.815 171.838 204.989C177.793 184.209 185.325 163.925 192.839 143.659C213.254 92.8089 235.389 39.7953 274.217 0.274414H274.235L274.412 0.309909L275.05 0.451674L275.334 0.522664L275.458 0.558052L275.6 0.593547L275.724 0.629042L276.007 0.699924L276.149 0.717672L276.291 0.753167L276.61 0.82405L276.769 0.841797L277.088 0.912679L277.248 0.930427L277.815 1.0723L278.311 1.21417L278.435 1.24956L278.86 1.39143L279.481 1.56869L279.623 1.60419L279.747 1.63968L279.888 1.67507L280.012 1.71057L280.154 1.74606L280.526 1.85244L280.633 1.88783L280.757 1.92332L280.969 1.99431L281.058 2.0297L281.164 2.06519L281.253 2.10069L281.342 2.13608L281.43 2.17157L281.536 2.20707L281.625 2.24245L282.476 2.5262L282.564 2.56159L282.742 2.63258L282.83 2.65032L282.901 2.68571L283.185 2.7567L283.256 2.77434L283.681 2.88083L283.752 2.89847L283.823 2.93396L284.035 2.9872L284.106 3.00484L284.461 3.09358L284.531 3.11122L284.886 3.19996L284.957 3.2176L285.24 3.28859L285.311 3.32408L285.382 3.34172L285.524 3.37722L285.577 3.39497L285.648 3.41271L285.701 3.43046L285.754 3.4481L286.02 3.53684L286.073 3.55448L286.109 3.57223L286.268 3.62547L286.304 3.64322L286.357 3.66086L286.463 3.69635L286.499 3.7141L286.605 3.7496L286.64 3.76734L286.694 3.78498L286.729 3.80273H286.747C283.486 7.20695 280.367 10.7531 277.372 14.3878C258.268 36.6039 244.321 62.4901 231.951 88.9082C219.085 116.373 207.778 144.546 198.014 173.251C182.082 216.123 175.578 261.814 175.064 307.399C173.203 361.884 178.714 416.972 197.34 468.461C205.244 491.972 216.444 515.039 233.315 533.443C247.582 547.042 265.906 557.538 285.648 559.985C305.833 561.244 325.327 553.904 344.892 549.95C363.411 546.74 382.179 543.336 399.706 537.024C391.518 543.443 382.994 549.524 373.832 554.471C361.356 560.694 347.993 565.056 334.684 569.152C320.17 572.574 305.337 577.006 290.344 577.006C287.491 576.917 284.762 576.776 282.05 576.439Z" fill="black"/>
<path d="M316.679 567.184C312.302 566.634 307.729 566.173 303.458 565.517C310.051 562.84 316.608 559.808 322.952 556.616C332.611 551.297 343.51 549.276 353.806 545.588C374.541 537.858 393.999 527.148 413.032 515.943C440.838 500.057 466.357 481.617 490.229 460.536C504.069 448.355 513.958 432.646 526.027 418.869C535.738 407.699 547.151 397.983 560.088 390.767C563.916 389.136 567.531 384.1 571.98 386.175C578.537 390.678 570.455 396.21 566.698 399.277C560 404.242 553.07 408.958 546.939 414.65C534.445 426.05 525.566 440.625 515.181 453.816C506.71 464.259 496.609 473.195 486.401 481.883C467.013 498.691 446.048 513.532 424.073 526.776C396.835 543.443 348.738 570.57 316.679 567.184Z" fill="black"/>
<path d="M250.098 384.083C247.44 381.671 249.301 378.054 251.675 376.193C254.688 373.143 257.949 370.359 261.28 367.7C283.929 349.083 313.152 343.072 340.302 334.048C342.269 333.409 344.236 332.735 346.203 332.062L347.674 331.601V331.565C382.905 319.367 416.825 303.481 452.907 293.818C463.947 290.821 475.449 290.041 486.826 290.927C497.424 291.619 508.234 293.108 518.69 290.449C527.161 287.949 534.817 283.463 542.863 279.97C549.101 277.63 559.503 270.963 562.392 280.804C563.757 288.995 553.496 289.74 548.02 292.24C540.559 295.112 533.275 298.516 525.619 300.927C517.485 303.215 508.978 304.278 500.525 304.296C488.598 304.225 476.654 302.31 464.762 304.154C437.329 308.746 411.562 319.615 385.688 329.402C375.019 333.338 364.297 337.026 353.611 340.98C333.267 348.391 312 353.09 291.957 361.37C280.385 366.334 269.61 372.966 259.579 380.537C257.417 382.026 255.131 385.04 252.544 385.04C251.764 385.04 250.949 384.774 250.098 384.083Z" fill="black"/>
<path d="M569.126 395.146C553.726 392.7 550.376 365.164 547.683 352.665C544.103 331.371 543.66 302.523 550.855 282.08C552.45 278.109 554.187 273.587 558.812 272.523C562.551 271.832 567.195 274.013 568.01 277.967C568.736 281.141 565.795 284.332 562.587 283.871C559.946 294.828 560.194 306.211 559.627 317.417C559.184 337.878 562.232 358.905 571.59 377.274C584.633 377.841 580.45 395.749 569.126 395.146Z" fill="black"/>
<path d="M564.802 382.451C560.035 379.402 562.357 372.771 567.567 371.902C578.466 368.604 588.603 363.143 599.59 360.147C611.641 357.7 623.993 360.962 636.044 358.923C643.877 357.505 650.877 353.498 657.735 349.633C664.009 345.998 670.265 342.292 675.794 337.576C684.283 329.03 697.184 333.445 707.853 331.441C710.6 331.034 713.098 330.005 714.764 327.682C718.149 323.906 721.321 319.899 724.015 315.591C718.84 310.91 712.992 307.062 707.091 303.357C704.858 301.974 702.908 300.165 701.756 297.754C701.384 297.062 701.242 296.264 700.87 295.591C701.012 295.289 701.632 295.236 701.898 295.183C705.212 294.598 708.615 295.502 711.45 297.257C715.367 299.35 719.319 301.406 723.04 303.818C729.615 308.108 737.182 312.63 731.671 321.317C728.375 327.7 723.962 333.551 718.521 338.285C713.86 341.228 708.065 341.867 702.66 342.115C696.918 342.594 691.052 342.168 685.47 343.569C683.184 344.97 681.341 347.009 679.214 348.622C669.822 355.413 659.72 361.37 649.318 366.512C642.406 369.739 634.945 371.742 627.289 371.884C618.907 371.547 610.453 370.43 602.071 371.636C597.18 372.593 592.59 374.597 587.929 376.299C583.038 378.125 578.2 380.076 573.273 381.813C570.544 382.877 567.549 384.225 564.802 382.451Z" fill="black"/>
<path d="M557.394 287.86C556.296 284.811 559.025 282.683 561.382 281.371C567.283 277.47 572.919 273.215 578.466 268.818C597.233 253.286 614.494 235.751 630.302 217.258C642.264 202.737 654.758 185.627 673.738 180.432C696.138 175.911 719.336 174.368 742.144 175.627C747.532 175.539 754.567 179.723 752.423 185.875C746.079 189.138 738.104 186.39 731.423 187.294C719.124 187.826 706.967 190.131 694.685 190.928C687.508 191.921 680.065 192.365 673.224 194.847C668.882 196.797 665.196 199.936 661.457 202.843C650.434 211.975 642.176 223.889 631.844 233.747C614.069 250.963 597.304 269.828 576.109 282.86C571.962 285.431 567.673 287.772 563.296 289.881C561.187 290.945 558.28 290.254 557.394 287.86Z" fill="black"/>
<path d="M731.618 319.899C728.445 317.523 731.565 313.108 733.744 311.122C736.474 308.02 742.127 308.215 743.438 303.924C745.246 298.693 745.813 287.169 740.443 283.942C739.823 283.534 739.167 283.162 738.511 282.825C727.878 277.559 716.926 272.949 705.974 268.375C704.06 267.399 701.863 266.832 700.25 265.36C697.645 262.931 697.946 258.907 702.04 258.552C706.382 258.481 710.334 261.194 714.481 262.275C719.921 264.19 725.326 266.194 730.696 268.321C739.628 272.116 750.846 275.041 754.426 285.201C757.97 294.243 758.13 305.608 751.98 313.534C747.337 319.03 738.565 324.243 731.618 319.899Z" fill="black"/>
<path d="M750.669 302.381C748.897 296.637 756.269 294.58 760.664 295.112C765.183 286.832 766.459 277.364 768.072 268.197C768.284 265.183 765.945 262.719 764.58 260.201C760.504 254.439 755.684 247.736 751.236 242.648C748.365 239.031 743.739 236.3 739.344 235.502C727.17 232.932 714.463 232.311 702.465 229.297C701.136 228.605 699.648 226.903 700.037 225.29C701.384 221.46 706.098 221.797 709.394 222.116C716.519 222.542 723.537 223.676 730.59 224.687C739.238 225.981 747.319 226.85 754.39 231.974C758.608 234.935 761.798 239.013 765.006 242.967C769.932 249.35 775.444 255.697 778.297 263.339C779.183 266.726 778.705 270.431 778.138 273.818C776.419 282.754 774.877 304.119 764.226 306.335C759.565 306.832 752.973 307.612 750.669 302.381Z" fill="black"/>
<path d="M771.651 255.502C768.479 253.481 768.958 248.925 771.35 246.478C773.406 243.357 775.958 240.272 776.454 236.442C774.948 229.421 771.474 223.02 767.912 216.85C762.613 208.198 757.35 199.51 751.023 191.549C749.322 189.563 747.656 187.524 745.6 185.911C744.572 185.184 743.651 184.439 743.367 183.11C742.446 179.635 746.699 177.028 749.552 179.032C761.408 186.532 768.993 199.173 776.791 210.538C781.398 217.577 785.386 225.148 787.477 233.322C788.363 237.045 786.998 240.627 785.705 244.084C784.783 246.265 783.383 248.251 781.965 250.148C779.697 253.446 776.153 258.144 771.651 255.502Z" fill="black"/>
<path d="M745.742 235.378C743.031 233.552 740.904 230.981 738.529 228.747C733.514 224.279 726.195 227.683 720.24 227.772C716.731 228.02 712.177 231.566 709.838 227.276C708.827 225.325 709.589 222.754 711.574 221.744C717.21 219.173 723.412 218.056 729.491 217.01C736.137 215.822 742.782 217.843 747.213 222.878C749.446 225.006 751.785 227.151 753.061 230.024C754.142 232.471 754.727 235.307 753.823 237.896C750.917 238.268 748.134 236.921 745.742 235.378Z" fill="black"/>
<path d="M336.864 337.931C336.687 337.026 336.527 336.104 336.386 335.182L347.249 331.725C347.284 332.009 347.32 332.31 347.373 332.594C347.515 334.154 347.763 335.839 347.391 337.363C346.788 339.987 344.378 341.353 341.986 341.353C339.806 341.37 337.662 340.253 336.864 337.931Z" fill="black"/>
<path d="M745.246 312.133C740.301 306.761 745.777 300.112 752.263 301.247C761.993 301.442 771.74 300.697 781.38 300.289C791.251 300.662 795.31 290.467 799.74 283.374C805.021 274.899 809.93 266.194 814.839 257.488C833.731 225.68 849.432 192.17 868.04 160.22C873.25 150.433 878.691 140.787 884.114 131.124C888.686 122.951 893.382 114.795 896.501 105.929C896.98 104.156 897.653 102.401 897.618 100.539C869.653 99.0678 841.511 99.3515 813.599 101.763C804.1 102.773 794.193 102.685 785.226 106.337C773.353 124.351 760.398 141.284 750.474 160.308C747.302 166.124 744.253 171.993 740.922 177.702C739.646 179.617 738.937 182.064 736.934 183.34C734.843 184.705 731.6 183.145 731.44 180.61C731.139 178.624 732.433 176.975 733.213 175.237C742.286 156.443 751.448 137.773 763.251 120.575C766.069 116.213 768.851 111.834 771.633 107.454C774.433 103.642 776.241 98.4473 780.937 96.6211C790.808 92.4012 801.672 91.8161 812.234 91.0182C838.09 88.7133 864.017 88.9615 889.944 89.4048C912.345 88.146 910.502 101.958 903.466 118.163C896.998 133.181 889.041 147.489 881.473 161.957C868.306 185.237 855.263 208.57 842.804 232.24C834.971 245.981 826.943 259.598 819.305 273.463C814.946 281.513 810.125 289.296 805.27 297.044C802.93 301.229 799.74 304.917 795.824 307.718C790.596 311.902 783.808 312.665 777.322 312.807C772.59 313.126 767.876 313.64 763.127 313.853C758.891 314.048 754.674 314.03 750.438 314.101C748.524 314.119 746.646 313.534 745.246 312.133Z" fill="black"/>
<path d="M359.867 336.814C356.943 336.441 356.269 333.356 356.464 330.874C356.323 324.509 356.092 318.161 355.95 311.814C355.224 287.896 354.586 263.729 355.88 239.935C363.766 263.038 364.333 287.541 363.748 311.707C363.748 318.587 363.73 325.466 363.766 332.345C364.528 334.686 362.224 337.168 359.867 336.814Z" fill="black"/>
</g>
</g>
</svg>
