<svg width="1120" height="1580" viewBox="0 0 1120 1580" fill="none" xmlns="http://www.w3.org/2000/svg">
<g id="Legs / Sitting 1">
<g id="Skin">
<path d="M933.65 960.333C917.754 958.808 900.9 968.719 888.991 978.914C883.604 983.347 878.589 988.258 873.839 993.364C866.963 1000.21 861.097 1009.43 851.332 1012.23C845.856 1013.06 840.788 1009.91 836.34 1007.09C826.575 1000.81 821.241 990.208 815.57 980.457C808.747 968.489 799.053 954.5 784.698 951.946C798.61 932.62 805.858 915.493 808.18 886.858C809.013 878.17 809.119 869.412 808.516 860.706C808.463 860.068 808.428 859.358 808.375 858.667C837.828 874.873 871.925 882.514 905.472 882.904C910.807 882.709 916.442 882.514 922.149 882.089C915.769 894.943 917.346 914.713 920.128 928.365C922.344 939.978 927.377 950.492 933.65 960.333Z" fill="#B7B5B5"/>
<path d="M430.156 995.084C430.067 995.598 430.014 996.112 429.943 996.609C429.11 1002.16 428.525 1007.74 428.171 1013.35C426.54 1038.9 426.93 1058.47 431.821 1078.98C427.816 1071.7 422.801 1065.01 415.358 1061.09C406.745 1056.68 396.537 1056.04 387.056 1057.03C376.565 1058.42 367.349 1064.14 359.02 1070.35C345.463 1079.68 342.503 1096.61 335.893 1110.58C333.696 1114.78 330.63 1118.7 326.323 1120.88C324.161 1121.93 320.014 1123.31 319.199 1120.08C323.736 1102.58 328.468 1084.92 330.772 1066.96C333.004 1047.9 334.298 1028.59 332.597 1009.45C332.207 1004.62 331.675 999.818 331.108 995.031C345.622 1001.15 361.147 1004.94 376.99 1004.87C398.185 1005.51 415.198 1001.93 430.156 995.084Z" fill="#B7B5B5"/>
</g>
<g id="Outline">
<path d="M296.303 435.002C294.85 434.452 293.396 433.867 291.979 433.211C288.558 431.651 285.262 429.789 282.249 427.573C277.11 423.974 273.389 418.903 269.171 414.364C259.371 403.938 249.748 396.19 238.902 387.821C216.254 369.665 191.213 353.62 172.676 330.96C154.085 306.971 139.181 279.17 135.743 248.638C132.482 224.543 134.928 200.04 138.614 176.139C141.893 155.997 146.66 135.058 152.845 115.909C156.85 103.569 160.288 91.1399 163.425 78.5691C165.799 69.6684 168.848 60.963 172.587 52.5411C173.225 50.2361 175.848 48.3566 177.815 49.5445C178.276 49.8282 178.701 50.2715 179.055 50.9098C179.622 52.1864 179.374 53.4808 178.967 54.7574C178.878 55.041 178.772 55.3247 178.665 55.6084C178.63 55.697 178.595 55.8035 178.559 55.8921C178.506 56.0517 178.453 56.1936 178.382 56.3531C178.311 56.5659 178.24 56.7786 178.169 56.9914C178.01 57.4701 177.85 57.9487 177.708 58.4097C177.389 59.3671 177.088 60.3246 176.787 61.282C176.627 61.7607 176.486 62.2395 176.344 62.7005C172.906 73.3387 170.779 84.2959 168.298 95.1824C167.961 96.583 167.625 97.9662 167.27 99.3492C166.561 102.115 165.817 104.881 165.073 107.629C164.701 109.012 164.311 110.377 163.939 111.76C163.549 113.126 163.177 114.508 162.787 115.891C161.635 120.005 160.483 124.154 159.402 128.303C154.351 147.877 150.771 167.824 148.379 187.877C148.078 190.572 147.794 193.267 147.546 195.962C147.298 198.621 147.103 201.281 146.908 203.94C146.908 204.029 146.908 204.117 146.89 204.206C146.11 216.334 146.093 228.497 147.369 240.536C147.635 243.036 147.954 245.553 148.343 248.053C148.592 249.72 148.875 251.387 149.194 253.035C149.673 255.518 150.204 258 150.807 260.482C157.133 285.89 172.853 312.574 191.602 331.492C192.223 332.13 192.861 332.751 193.481 333.354C194.119 333.974 194.739 334.577 195.377 335.162C197.823 337.396 200.322 339.559 202.856 341.687C204.114 342.751 205.39 343.815 206.684 344.843C207.977 345.889 209.253 346.918 210.565 347.946C214.464 351.013 218.416 354.01 222.403 356.971C224.406 358.442 226.408 359.914 228.411 361.368C238.441 368.673 248.56 375.871 258.29 383.566C258.857 384.009 259.442 384.453 260.009 384.914C261.143 385.818 262.277 386.74 263.394 387.662C265.077 389.063 266.707 390.499 268.32 391.97C269.401 392.945 270.464 393.938 271.51 394.949C272.556 395.96 273.601 396.97 274.629 397.999C275.657 399.009 276.685 400.055 277.695 401.101C278.705 402.147 279.698 403.211 280.708 404.275C281.7 405.339 282.675 406.403 283.65 407.484C283.845 407.679 284.022 407.874 284.217 408.069C284.27 408.123 284.305 408.176 284.358 408.229C284.571 408.442 284.766 408.672 284.979 408.903C285.191 409.133 285.386 409.364 285.581 409.594C286.272 410.41 286.946 411.243 287.584 412.094C287.726 412.289 287.867 412.484 288.009 412.679C288.381 413.211 288.753 413.725 289.108 414.275C289.285 414.541 289.462 414.807 289.64 415.091C289.764 415.286 289.888 415.481 290.012 415.676V415.693C293.645 421.473 295.913 428.122 296.303 435.002Z" fill="black"/>
<path d="M308.371 472.164C308.744 493.317 306.954 514.522 303.569 535.373C294.336 589.273 283.012 642.819 275.728 697.056C275.303 700.141 274.877 703.208 274.452 706.293C274.168 708.35 273.885 710.389 273.584 712.446C273.442 713.474 273.3 714.502 273.158 715.531C272.715 718.598 272.29 721.683 271.865 724.751C271.723 725.779 271.581 726.807 271.439 727.836C271.156 729.892 270.872 731.931 270.606 733.988C270.057 738.084 269.525 742.197 269.029 746.293C268.781 748.35 268.533 750.406 268.302 752.463C267.824 756.577 267.381 760.69 266.973 764.803C266.761 766.86 266.583 768.917 266.406 770.973C266.318 772.002 266.229 773.03 266.14 774.076C265.626 780.246 265.219 786.452 264.971 792.658C264.918 793.686 264.882 794.714 264.847 795.76C264.776 797.817 264.723 799.874 264.669 801.913C264.634 803.739 264.599 805.548 264.563 807.356C264.563 807.533 264.563 807.711 264.563 807.888C264.439 815.654 264.457 823.367 264.545 831.097C264.687 842.71 265.006 854.324 265.343 865.973C265.697 879.253 266.158 892.55 266.495 905.848C266.495 906.717 266.495 907.603 266.513 908.472C266.513 909.305 266.513 910.139 266.53 910.972C266.548 912.922 266.583 914.873 266.637 916.823C266.654 917.55 266.672 918.277 266.708 919.004C266.725 919.837 266.761 920.671 266.796 921.504C266.832 922.479 266.885 923.472 266.92 924.465C266.956 925.227 267.009 925.972 267.044 926.734C267.044 926.805 267.062 926.858 267.062 926.929C267.115 927.692 267.151 928.472 267.221 929.234C267.345 931.096 267.505 932.975 267.682 934.837C267.753 935.688 267.842 936.557 267.948 937.426C268.037 938.294 268.143 939.163 268.267 940.032C268.586 942.638 268.976 945.245 269.419 947.816C269.578 948.72 269.738 949.624 269.933 950.528C270.606 954.039 271.439 957.514 272.414 960.972C267.487 950.05 262.472 939.181 259.973 927.443C256.216 907.603 253.133 887.603 250.563 867.568C244.892 826.079 246.132 783.952 251.733 742.534C256.89 701.488 263.199 660.602 270.27 619.84C280.637 558.671 298.873 497.253 292.156 434.683C292.103 434.204 292.067 433.725 292.014 433.264C291.412 427.218 290.774 421.42 290.083 415.676C290.083 415.64 290.083 415.622 290.065 415.587C289.781 413.247 289.48 410.924 289.179 408.601C288.878 406.279 288.558 403.956 288.222 401.633V401.616C288.009 400.055 287.779 398.477 287.548 396.917C286.255 388.726 285.244 379.86 288.009 371.935C288.293 371.687 288.505 371.687 288.895 371.74C288.913 371.74 288.931 371.775 288.895 371.775C288.86 371.793 288.824 371.811 288.807 371.828C288.736 371.864 288.7 371.9 288.665 371.935C288.47 372.13 288.505 372.378 288.612 372.662C288.7 372.892 288.807 373.123 288.86 373.353C291.979 379.754 295.523 386.066 296.852 393.176C299.599 403.867 301.921 414.647 303.799 425.498C304.225 427.998 304.632 430.516 305.022 433.034C306.05 439.523 306.83 446.048 307.397 452.59C307.627 455.392 307.822 458.193 307.982 460.994C308.035 461.934 308.088 462.874 308.123 463.813C308.23 466.544 308.318 469.363 308.371 472.164Z" fill="black"/>
<path d="M537.391 333.762C538.294 340.818 538.578 347.964 538.418 355.109C538.383 356.988 538.294 358.85 538.206 360.729C538.17 361.35 538.135 361.988 538.099 362.609C538.011 363.85 537.922 365.109 537.816 366.35C537.656 368.212 537.479 370.091 537.267 371.953C537.213 372.378 537.178 372.804 537.125 373.247C536.965 374.683 536.788 376.119 536.593 377.555C536.504 378.176 536.434 378.797 536.345 379.417C536.274 379.985 536.185 380.552 536.097 381.119C536.097 381.172 536.079 381.225 536.079 381.279C535.92 382.431 535.725 383.566 535.547 384.718C534.785 389.754 533.97 394.807 533.137 399.825C520.094 478.671 500.122 556.33 492.147 636.01C487.096 680.088 482.187 724.219 479.015 768.473C476.853 803.828 477.402 839.271 477.881 874.678C478.129 899.713 478.519 925.103 482.825 949.766C483.02 950.936 483.233 952.089 483.463 953.241C484.367 957.993 485.43 962.727 486.671 967.408C485.023 963.206 483.499 958.95 482.081 954.677C481.673 953.454 481.283 952.23 480.893 951.007C480.557 949.961 480.238 948.915 479.919 947.869C479.848 947.638 479.777 947.39 479.706 947.16C479.387 946.113 479.086 945.085 478.802 944.039C478.785 943.986 478.767 943.933 478.749 943.879C478.076 941.557 477.455 939.234 476.853 936.876C476.587 935.83 476.321 934.766 476.055 933.72C475.967 933.348 475.86 932.958 475.772 932.585C475.595 931.823 475.417 931.078 475.24 930.333C474.903 928.915 474.585 927.479 474.283 926.043C474.071 925.068 473.876 924.075 473.663 923.082C473.574 922.656 473.486 922.249 473.415 921.823C473.184 920.653 472.954 919.5 472.741 918.33C472.6 917.568 472.458 916.788 472.316 916.025C472.227 915.6 472.157 915.174 472.086 914.748C471.944 913.968 471.82 913.188 471.678 912.408C471.572 911.805 471.483 911.185 471.377 910.582C471.306 910.192 471.253 909.802 471.2 909.412C470.987 908.047 470.792 906.699 470.597 905.352C470.473 904.554 470.384 903.773 470.26 902.993C470.048 901.415 469.853 899.837 469.658 898.277C469.569 897.586 469.498 896.876 469.41 896.185C469.374 895.954 469.356 895.706 469.321 895.476C469.25 894.82 469.179 894.181 469.108 893.525C468.896 891.841 468.683 890.157 468.47 888.472C468.063 885.103 467.673 881.735 467.283 878.366C466.911 874.997 466.539 871.628 466.184 868.26C465.298 859.838 464.536 851.38 463.863 842.923C463.189 834.395 462.658 825.867 462.25 817.32C462.179 815.707 462.091 814.094 462.037 812.462C461.435 796.168 461.842 779.909 462.817 763.651C462.853 762.942 462.906 762.232 462.941 761.523C463.083 759.378 463.225 757.215 463.384 755.069C463.579 752.498 463.756 749.945 463.987 747.374C464.323 743.19 464.696 739.023 465.086 734.857C465.989 725.211 467.017 715.566 468.045 705.956C468.896 697.694 469.729 689.432 470.579 681.169C471.146 675.655 471.714 670.159 472.298 664.645C472.582 661.897 472.883 659.13 473.167 656.382C473.752 650.868 474.336 645.372 474.939 639.858C475.843 631.595 476.764 623.351 477.721 615.106C479.316 601.365 480.982 587.624 482.772 573.883C486.759 546.401 492.572 519.256 498.403 492.111C498.934 489.664 499.466 487.2 499.98 484.753C500.263 483.406 500.565 482.058 500.848 480.71C502.284 473.973 503.719 467.253 505.101 460.516C506.2 455.126 507.299 449.718 508.327 444.328C510.276 434.452 512.102 425.41 513.767 417.059C513.803 416.846 513.856 416.651 513.891 416.438C514.423 413.814 514.937 411.261 515.416 408.761C515.54 408.14 515.664 407.52 515.77 406.899C515.965 405.942 516.142 405.002 516.319 404.062C516.55 402.821 516.798 401.615 517.011 400.41C517.188 399.488 517.365 398.583 517.524 397.697C517.985 395.215 518.428 392.803 518.836 390.445C518.995 389.488 519.155 388.566 519.314 387.626C519.474 386.704 519.633 385.782 519.775 384.878C519.846 384.417 519.935 383.956 519.988 383.513C520.13 382.608 520.271 381.722 520.395 380.835C520.537 379.949 520.661 379.062 520.785 378.194C520.909 377.325 521.033 376.456 521.14 375.605C521.211 375.18 521.264 374.736 521.317 374.311C521.423 373.46 521.53 372.609 521.636 371.775C521.742 370.942 521.831 370.109 521.919 369.275C523.266 356.971 523.479 345.907 522.132 334.737C522.026 333.85 521.902 332.981 521.778 332.095C521.423 329.684 520.998 327.272 520.502 324.825C520.324 323.957 520.13 323.088 519.935 322.219C519.775 321.545 519.616 320.889 519.456 320.233C519.243 319.365 519.031 318.496 518.783 317.609C517.099 311.262 514.902 304.684 512.084 297.645C511.641 296.563 511.198 295.464 510.737 294.365C510.436 293.638 510.134 292.929 509.815 292.184C509.408 291.226 508.983 290.269 508.557 289.312C507.458 286.847 506.307 284.312 505.066 281.705C504.304 280.092 503.506 278.478 502.691 276.812C502.39 276.191 502.071 275.571 501.752 274.932C501.22 273.886 500.689 272.84 500.139 271.759C499.927 271.333 499.696 270.89 499.466 270.447C498.58 268.727 497.658 266.971 496.719 265.181C496.01 263.851 495.284 262.486 494.539 261.103C493.795 259.72 493.033 258.319 492.253 256.901C489.914 252.645 487.415 248.213 484.757 243.585C479.795 235.021 474.797 226.493 469.746 217.983C468.524 215.926 467.301 213.869 466.078 211.812L466.007 211.635L465.936 211.422L465.865 211.192L465.653 210.447L465.298 209.117L465.245 208.869L465.174 208.621L465.121 208.373L465.068 208.142L464.962 207.717L464.82 206.937L464.749 206.582L464.731 206.405L464.678 205.926V205.766L464.66 205.607V205.128L464.678 204.969V204.809L464.696 204.649L464.749 204.224L464.784 204.1L464.802 203.976L464.837 203.869L464.873 203.763L464.979 203.497L465.015 203.408L465.121 203.231L465.263 203.054L465.475 202.788L465.546 202.699L465.635 202.61L465.706 202.539L465.794 202.468L466.06 202.256L466.149 202.185L466.255 202.114L466.503 202.007L466.645 201.972L466.805 201.937L466.964 201.919H467.301L467.478 201.937L467.673 201.972L468.063 202.078L468.276 202.149L468.488 202.238L468.719 202.327L468.949 202.433L469.64 202.805L470.331 203.231L470.969 203.656L472.033 204.454L472.245 204.632L472.458 204.827L473.149 205.412L473.574 205.837L473.787 206.032L474.584 206.83L474.762 207.025L474.779 207.061C476.481 209.649 478.2 212.256 479.901 214.862C480.645 215.997 481.372 217.114 482.116 218.249C489.489 229.525 496.825 240.89 503.701 252.486C504.02 253 504.322 253.532 504.641 254.064C505.172 254.986 505.722 255.908 506.253 256.847C506.767 257.716 507.263 258.585 507.76 259.454L507.777 259.471C508.309 260.411 508.858 261.351 509.372 262.291C510.648 264.542 511.907 266.812 513.129 269.099C513.626 270.021 514.104 270.925 514.6 271.847C515.859 274.223 517.081 276.617 518.269 279.028C518.694 279.879 519.102 280.73 519.527 281.581C520.112 282.787 520.697 283.993 521.264 285.198C521.778 286.297 522.292 287.379 522.788 288.496C523.302 289.595 523.798 290.712 524.276 291.812C524.719 292.84 525.18 293.868 525.623 294.914C525.712 295.109 525.801 295.322 525.871 295.517C526.279 296.51 526.704 297.503 527.112 298.496C528.034 300.748 528.92 302.999 529.77 305.269C530.196 306.404 530.621 307.556 531.028 308.691C532.003 311.262 532.889 313.868 533.651 316.492C533.775 316.936 533.899 317.379 534.023 317.804C534.998 321.315 535.778 324.843 536.398 328.407C536.894 330.18 537.178 331.953 537.391 333.762Z" fill="black"/>
<path d="M492.253 943.897C492.271 943.88 492.289 943.897 492.289 943.933C489.294 947.124 486.369 950.227 483.481 953.241C483.02 953.72 482.559 954.198 482.081 954.677C467.797 969.464 454.275 981.858 438.84 990.634C436.022 992.248 433.133 993.719 430.174 995.085C430.156 995.085 430.138 995.102 430.138 995.102C429.465 995.404 428.809 995.705 428.136 995.989C427.639 996.202 427.143 996.414 426.647 996.609C426.08 996.858 425.495 997.088 424.91 997.319C424.875 997.336 424.839 997.354 424.804 997.354C424.237 997.567 423.67 997.797 423.085 998.01C422.482 998.223 421.88 998.453 421.277 998.666C420.675 998.879 420.054 999.092 419.434 999.287C418.814 999.5 418.194 999.695 417.573 999.89H417.556C416.935 1000.08 416.315 1000.26 415.677 1000.46C415.057 1000.63 414.437 1000.81 413.799 1000.99C413.037 1001.2 412.239 1001.4 411.459 1001.59C411.034 1001.7 410.609 1001.8 410.166 1001.89C406.462 1002.76 402.598 1003.45 398.576 1003.95C396.998 1004.14 395.386 1004.32 393.755 1004.46C393.206 1004.52 392.656 1004.55 392.107 1004.59C391.558 1004.64 390.991 1004.68 390.424 1004.69C389.484 1004.77 388.527 1004.8 387.57 1004.84C387.304 1004.85 387.039 1004.87 386.773 1004.87C386.348 1004.89 385.922 1004.91 385.479 1004.91C385.355 1004.93 385.231 1004.93 385.125 1004.93C384.664 1004.94 384.203 1004.94 383.725 1004.94C383.53 1004.96 383.335 1004.96 383.14 1004.94C381.882 1004.96 380.623 1004.96 379.33 1004.94C379.294 1004.94 379.241 1004.94 379.206 1004.94C378.479 1004.92 377.752 1004.91 377.008 1004.89C375.874 1004.89 374.722 1004.89 373.588 1004.84C373.57 1004.84 373.552 1004.84 373.517 1004.84C372.56 1004.8 371.603 1004.77 370.646 1004.71C370.274 1004.69 369.884 1004.66 369.512 1004.64C368.236 1004.55 366.942 1004.45 365.684 1004.3C365.259 1004.25 364.851 1004.22 364.426 1004.16C362.831 1003.97 361.236 1003.75 359.641 1003.47C359.269 1003.4 358.914 1003.35 358.542 1003.28C355.972 1002.83 353.42 1002.28 350.886 1001.66C350.39 1001.54 349.894 1001.41 349.397 1001.29C348.901 1001.17 348.423 1001.04 347.927 1000.9C347.519 1000.79 347.094 1000.67 346.668 1000.55C344.63 999.96 342.592 999.34 340.59 998.648C339.633 998.329 338.693 997.992 337.754 997.656C335.521 996.84 333.306 995.971 331.109 995.049C330.471 994.801 329.868 994.517 329.248 994.251C327.192 993.329 325.101 992.425 322.992 991.503C302.807 982.638 280.672 972.532 270.872 951.982C270.766 951.769 270.677 951.574 270.571 951.344C270.429 950.706 270.429 950.103 270.553 949.553C270.571 949.465 270.589 949.358 270.624 949.27C270.624 949.252 270.624 949.252 270.624 949.234C270.659 949.128 270.695 949.021 270.748 948.915C270.783 948.808 270.837 948.702 270.908 948.596V948.578C270.961 948.49 271.014 948.383 271.085 948.294C271.085 948.294 271.102 948.277 271.102 948.259C271.173 948.17 271.227 948.081 271.315 947.993C271.404 947.904 271.475 947.816 271.563 947.727C271.652 947.638 271.723 947.568 271.829 947.497C271.9 947.426 271.971 947.372 272.059 947.319C272.095 947.284 272.148 947.248 272.201 947.231C272.272 947.177 272.361 947.142 272.432 947.089C272.538 947.036 272.644 946.982 272.751 946.929C272.857 946.894 272.963 946.841 273.07 946.823C273.211 946.77 273.353 946.734 273.495 946.716C273.619 946.699 273.725 946.681 273.849 946.663C273.973 946.645 274.098 946.646 274.239 946.646C274.505 946.646 274.771 946.663 275.037 946.716C276.171 946.929 277.022 947.692 277.766 948.578C277.908 948.755 278.049 948.933 278.191 949.11C278.475 949.464 278.741 949.837 279.006 950.174C295.169 969.996 320.936 977.957 343.992 986.929C354.413 990.51 365.347 991.875 376.299 991.875C377.185 991.875 378.089 991.876 378.975 991.84C378.975 991.84 378.993 991.84 379.011 991.84C379.684 991.822 380.357 991.805 381.031 991.787C381.651 991.769 382.272 991.734 382.892 991.698C383.423 991.68 383.973 991.645 384.504 991.61C385.16 991.574 385.816 991.539 386.472 991.485C386.631 991.485 386.791 991.468 386.95 991.45C386.968 991.45 387.003 991.45 387.021 991.45C387.056 991.45 387.074 991.45 387.092 991.45C387.765 991.397 388.421 991.344 389.077 991.273C389.431 991.237 389.768 991.202 390.105 991.184C390.441 991.149 390.778 991.113 391.097 991.078C391.345 991.06 391.593 991.024 391.841 991.007C392.302 990.953 392.745 990.918 393.206 990.847C395.226 990.634 397.229 990.351 399.249 990.049C399.94 989.943 400.649 989.836 401.34 989.73C405.505 989.039 409.634 988.17 413.71 987.106C414.153 987 414.614 986.876 415.057 986.752C415.5 986.627 415.943 986.503 416.386 986.379C417.272 986.131 418.158 985.865 419.044 985.581C420.816 985.032 422.553 984.429 424.29 983.79C424.325 983.773 424.343 983.773 424.379 983.755C425.211 983.436 426.062 983.117 426.877 982.78C426.895 982.78 426.913 982.762 426.913 982.762C427.763 982.425 428.596 982.07 429.447 981.698C430.829 981.042 432.212 980.386 433.576 979.695C434.941 979.021 436.305 978.33 437.652 977.603C437.705 977.567 437.776 977.532 437.829 977.514C439.123 976.84 440.399 976.149 441.693 975.422C442.366 975.067 443.022 974.695 443.695 974.305C444.369 973.932 445.024 973.56 445.68 973.17C447.665 972.035 449.632 970.865 451.599 969.677C452.255 969.287 452.911 968.879 453.566 968.489C454.807 967.745 456.03 966.964 457.252 966.202C457.961 965.759 458.688 965.298 459.397 964.837C460.691 964.021 461.984 963.206 463.26 962.372C464.536 961.539 465.83 960.706 467.124 959.872C468.045 959.269 468.967 958.684 469.87 958.082C473.539 955.688 477.207 953.294 480.876 950.936C481.531 950.528 482.169 950.103 482.825 949.695C485.962 947.763 489.099 945.812 492.253 943.897Z" fill="black"/>
<path d="M1061.27 321.599C1061.3 322.84 1061.12 324.063 1060.7 325.286C1060.54 325.677 1060.31 326.208 1059.88 326.208C1059.85 326.208 1059.83 326.208 1059.81 326.208C1056.68 326.155 1053.89 325.216 1051.39 323.726C1051.22 323.62 1051.04 323.514 1050.86 323.407C1050.53 323.194 1050.21 322.982 1049.89 322.751C1049.36 322.379 1048.82 321.953 1048.31 321.545C1048.06 321.333 1047.81 321.12 1047.57 320.907C1046.22 319.737 1044.96 318.425 1043.77 317.077C1038.33 311.67 1032.79 306.404 1027.2 301.155C1006.86 281.883 984.424 263.904 961.562 247.894C943.114 235.057 924.098 223.089 904.817 211.546C901.804 209.738 898.774 207.93 895.744 206.157C893.192 204.649 890.64 203.142 888.07 201.653C885.713 200.27 883.338 198.887 880.964 197.522C879.599 196.724 878.217 195.926 876.852 195.146C875.665 194.454 874.477 193.763 873.29 193.089C868.399 190.27 863.49 187.486 858.545 184.738C855.249 182.912 851.953 181.104 848.639 179.331C845.325 177.54 841.993 175.785 838.662 174.047C828.117 168.568 817.448 163.32 806.638 158.391C803.749 157.061 800.861 155.767 797.955 154.49C796.236 153.728 794.499 152.983 792.762 152.239C788.526 150.43 784.273 148.657 780.02 146.919C777.893 146.051 775.767 145.2 773.622 144.349C771.496 143.498 769.352 142.664 767.225 141.849C766.144 141.423 765.081 141.015 764 140.607C760.792 139.366 757.584 138.161 754.341 136.973C751.116 135.785 747.89 134.597 744.665 133.444C742.521 132.664 740.359 131.902 738.197 131.139C736.035 130.377 733.872 129.632 731.71 128.888C717.621 124.03 703.444 119.437 689.196 114.969C687.742 114.508 686.289 114.065 684.836 113.604C684.464 113.48 684.074 113.374 683.702 113.25C682.408 112.842 681.097 112.434 679.785 112.044C678.208 111.565 676.649 111.087 675.071 110.608C673.937 110.253 672.821 109.916 671.687 109.597C670.783 109.331 669.879 109.065 668.975 108.782C667.859 108.445 666.742 108.125 665.626 107.806C663.854 107.292 662.081 106.778 660.309 106.264C658.927 105.856 657.545 105.466 656.145 105.076C654.567 104.633 652.99 104.189 651.395 103.746C649.818 103.303 648.223 102.86 646.646 102.452C645.228 102.062 643.81 101.689 642.392 101.317C635.64 99.5087 628.871 97.8065 622.083 96.2108C620.931 95.9271 619.779 95.661 618.627 95.3951C618.627 95.3951 618.627 95.3951 618.61 95.3951C616.82 94.9873 615.012 94.5796 613.222 94.1718C612.992 93.8704 612.744 93.5689 612.531 93.2675C612.017 92.5406 611.539 91.7781 611.06 91.0335C611.06 91.0335 611.06 91.0335 611.06 91.0157C611.043 90.998 611.043 90.9802 611.025 90.9447C610.901 90.6079 610.759 90.2533 610.635 89.9342C610.192 88.7285 609.66 87.5583 609.111 86.3881C608.898 85.9272 608.703 85.4661 608.491 85.0051C608.916 85.0938 609.359 85.1647 609.784 85.2534C610.511 85.3952 611.237 85.537 611.964 85.6789C614.675 86.2108 617.369 86.7605 620.081 87.3279C657.988 95.3243 695.097 106.849 731.834 119.065C763.716 129.792 795.278 141.583 825.689 156.015C869.621 177.221 910.949 202.646 952.063 228.674C980.667 247.22 1008.53 267.007 1033.62 290.127C1041.36 297.131 1048.58 303.496 1055.77 310.553C1058.73 313.319 1061.18 317.414 1061.27 321.599Z" fill="black"/>
<path d="M1072.93 350.712C1071.15 372.502 1066.99 394.222 1064.12 415.941C1055.17 482.04 1044.75 548.015 1031.51 613.386C1016.48 678.634 1004.89 744.697 995.11 810.938C992.186 836.132 986.976 861.717 975.315 884.341C974.783 877.444 974.517 870.547 974.499 863.65C974.499 863.384 974.499 863.1 974.499 862.834C974.499 847.444 975.758 832.072 978.38 816.895C980.418 803.473 982.208 790.016 984.229 776.594C984.601 774.147 984.973 771.718 985.363 769.271C985.576 767.871 985.806 766.488 986.036 765.087C986.409 762.835 986.798 760.566 987.188 758.314C989.386 745.637 991.654 732.96 993.993 720.3C994.844 715.744 995.695 711.187 996.563 706.63C997.573 701.275 998.601 695.921 999.647 690.584C1001.06 683.315 1002.5 676.063 1003.97 668.811C1006.65 655.584 1009.41 642.393 1012.3 629.202C1014.44 619.308 1016.66 609.433 1018.93 599.575C1029.63 547.04 1037.93 494.061 1046.79 441.207C1049.75 421.775 1052.6 402.307 1056.21 382.981C1057.81 372.68 1060.24 361.58 1061.85 351.527C1061.03 346.297 1059.07 341.031 1056.96 336.049C1056.75 335.552 1056.53 335.056 1056.32 334.559C1056.11 334.063 1055.9 333.584 1055.68 333.088C1055.36 332.361 1055.05 331.634 1054.73 330.925C1054.62 330.694 1054.51 330.446 1054.41 330.215C1054 329.276 1053.59 328.354 1053.2 327.449C1053.04 327.113 1052.88 326.776 1052.72 326.439C1052.56 326.102 1052.4 325.765 1052.25 325.428C1051.96 324.843 1051.68 324.276 1051.39 323.691C1049.41 319.666 1047.32 315.872 1044.84 312.201C1042.69 308.779 1047.6 304.524 1050.67 307.326C1054.12 310.588 1057.86 315.748 1061.28 321.599C1066.94 331.297 1071.76 342.839 1072.93 350.712Z" fill="black"/>
<path d="M973.596 863.721C973.631 863.845 973.596 863.862 973.525 864.004C973.489 864.04 973.471 864.093 973.436 864.129C971.752 866.416 969.112 868.012 966.861 869.696C955.856 877.143 941.856 880.174 927.926 881.557C925.995 881.752 924.081 881.912 922.167 882.054C921.458 882.107 920.749 882.16 920.04 882.196C918.552 882.284 917.063 882.373 915.592 882.444C914.582 882.497 913.589 882.533 912.615 882.586C911.941 882.621 911.303 882.639 910.648 882.674C909.992 882.71 909.354 882.728 908.698 882.745C907.724 882.781 906.767 882.816 905.827 882.852C905.721 882.852 905.615 882.852 905.508 882.869C905.491 882.869 905.473 882.869 905.455 882.869C905.331 882.869 905.189 882.869 905.065 882.869C904.303 882.869 903.524 882.834 902.762 882.834C902.531 882.834 902.301 882.816 902.07 882.816C901.255 882.781 900.422 882.763 899.589 882.728C899.359 882.728 899.128 882.71 898.898 882.692C898.047 882.657 897.197 882.621 896.329 882.568C895.407 882.515 894.468 882.479 893.546 882.408C893.103 882.373 892.66 882.355 892.217 882.32C891.473 882.267 890.746 882.213 890.002 882.16C889.098 882.089 888.194 882.018 887.308 881.93C886.883 881.894 886.457 881.859 886.05 881.806C885.199 881.717 884.331 881.628 883.48 881.54C882.665 881.451 881.867 881.363 881.07 881.256C880.698 881.221 880.308 881.167 879.918 881.114C879.103 881.008 878.27 880.901 877.455 880.795C877.384 880.777 877.295 880.777 877.207 880.76C876.356 880.636 875.523 880.529 874.672 880.387C874.265 880.334 873.857 880.263 873.432 880.21C872.617 880.086 871.784 879.962 870.969 879.82C870.933 879.82 870.898 879.802 870.862 879.802C869.994 879.66 869.125 879.518 868.257 879.359C867.282 879.182 866.308 879.004 865.351 878.827C864.784 878.721 864.216 878.614 863.649 878.49C862.178 878.206 860.725 877.887 859.254 877.568C858.687 877.444 858.102 877.32 857.535 877.178C856.171 876.859 854.806 876.54 853.459 876.185C852.857 876.026 852.236 875.866 851.634 875.707C850.712 875.476 849.809 875.228 848.887 874.962C848.107 874.749 847.328 874.518 846.548 874.288C845.343 873.933 844.138 873.579 842.933 873.206C842.029 872.923 841.143 872.639 840.239 872.355C839.246 872.036 838.254 871.699 837.262 871.362C837.226 871.362 837.208 871.345 837.191 871.327C836.216 870.99 835.241 870.653 834.267 870.299H834.249C833.345 869.98 832.441 869.643 831.555 869.288C830.315 868.827 829.092 868.331 827.887 867.852C827.532 867.71 827.196 867.568 826.841 867.426C826.487 867.285 826.15 867.143 825.813 866.983C824.644 866.504 823.492 866.008 822.34 865.494C821.596 865.175 820.851 864.838 820.125 864.501C818.884 863.933 817.661 863.348 816.421 862.763C815.641 862.391 814.861 862.001 814.081 861.611C813.071 861.097 812.061 860.565 811.051 860.033C810.2 859.59 809.367 859.146 808.535 858.685C808.499 858.668 808.481 858.65 808.446 858.632C805.664 857.107 802.917 855.494 800.223 853.809C796.058 851.203 792 848.419 788.066 845.441C787.02 844.643 785.992 843.863 784.964 843.029C782.767 841.327 780.587 839.607 778.443 837.834C773.392 833.703 768.501 829.359 763.964 824.661C765.488 825.672 767.065 827.037 768.625 828.1C771.638 830.228 774.704 832.285 777.805 834.253C781.987 836.913 786.223 839.413 790.565 841.788C791.681 842.391 792.798 842.994 793.914 843.597C795.031 844.2 796.165 844.767 797.299 845.334C797.866 845.618 798.433 845.902 799 846.185C800.701 847.037 802.421 847.852 804.14 848.65C804.707 848.916 805.291 849.182 805.876 849.448C806.408 849.696 806.94 849.927 807.471 850.175C807.578 850.228 807.684 850.263 807.808 850.317C808.322 850.547 808.836 850.778 809.35 850.99C812.681 852.444 816.066 853.827 819.469 855.121C820.178 855.387 820.887 855.654 821.596 855.919C822.234 856.15 822.854 856.38 823.492 856.611C824.006 856.806 824.502 856.983 824.998 857.143C828.95 858.543 832.955 859.838 836.978 861.044C837.687 861.256 838.396 861.451 839.105 861.664C839.814 861.877 840.522 862.072 841.231 862.267C845.024 863.313 848.834 864.27 852.662 865.139C853.867 865.405 855.09 865.671 856.295 865.937C858.031 866.309 859.768 866.646 861.523 866.983C862.285 867.125 863.029 867.267 863.791 867.391C864.553 867.533 865.315 867.657 866.077 867.781C866.804 867.905 867.53 868.029 868.257 868.136C869.055 868.26 869.852 868.384 870.667 868.508C871.411 868.614 872.156 868.721 872.918 868.827C874.92 869.111 876.923 869.359 878.926 869.589C879.475 869.66 880.024 869.714 880.574 869.784C883.179 870.068 885.784 870.316 888.407 870.511C888.779 870.547 889.169 870.583 889.559 870.6C890.126 870.636 890.711 870.689 891.278 870.724C891.88 870.76 892.465 870.795 893.068 870.831C894.042 870.902 895.017 870.937 895.992 870.99C896.718 871.026 897.445 871.061 898.189 871.079C898.721 871.096 899.27 871.114 899.802 871.132C900.44 871.15 901.06 871.168 901.698 871.185C902.247 871.203 902.797 871.221 903.346 871.221C903.559 871.221 903.789 871.221 904.02 871.238C904.516 871.238 904.994 871.256 905.508 871.256C906.146 871.256 906.767 871.274 907.405 871.274C913.572 871.274 919.757 871.061 925.924 870.582C928.564 870.387 931.205 870.139 933.828 869.855C935.582 869.66 937.337 869.448 939.074 869.217C942.565 868.756 946.056 868.206 949.529 867.568C950.504 867.373 951.496 867.214 952.507 867.054C952.755 867.019 953.003 866.983 953.251 866.948C959.985 866.043 966.932 866.026 973.365 863.827C973.401 863.809 973.454 863.792 973.489 863.792C973.454 863.809 973.383 863.81 973.418 863.756C973.418 863.721 973.525 863.614 973.596 863.721Z" fill="black"/>
<path d="M862.799 372.733C862.834 372.804 862.834 372.857 862.817 372.981C862.551 374.807 862.108 376.598 861.594 378.371C861.487 378.743 861.381 379.133 861.257 379.506C861.098 380.055 860.938 380.605 860.761 381.155C860.53 381.882 860.3 382.626 860.087 383.353C859.945 383.85 859.804 384.328 859.644 384.825C858.918 387.449 858.067 390.02 857.145 392.555C856.454 394.452 855.71 396.349 854.93 398.211C854.398 399.452 853.867 400.693 853.318 401.917C852.768 403.158 852.201 404.381 851.634 405.605C851.067 406.828 850.482 408.051 849.88 409.257C849.596 409.86 849.295 410.481 848.993 411.083C848.391 412.289 847.788 413.495 847.186 414.7C846.565 415.906 845.963 417.112 845.343 418.317C842.578 423.743 839.814 429.168 837.297 434.718C836.73 435.959 836.198 437.182 835.667 438.424C834.869 440.285 834.107 442.182 833.398 444.079C827.568 458.618 822.818 473.494 819.044 488.618C818.406 491.136 817.803 493.671 817.236 496.207C816.368 500.001 815.57 503.831 814.826 507.643C814.081 511.472 813.39 515.302 812.77 519.167C811.725 525.586 810.838 532.022 810.094 538.493C809.793 541.082 809.527 543.671 809.279 546.259C809.031 548.848 808.8 551.454 808.606 554.043C808.517 555.337 808.411 556.631 808.322 557.944C808.145 560.55 807.985 563.138 807.843 565.745C807.719 567.872 807.578 569.983 807.471 572.092C807.223 576.33 807.01 580.55 806.798 584.787C806.692 586.915 806.603 589.025 806.514 591.135C806.319 595.372 806.16 599.61 806 603.847C805.929 605.975 805.841 608.085 805.788 610.213C805.575 616.578 805.38 622.925 805.221 629.29C805.008 637.765 804.813 646.241 804.618 654.716C804.565 656.843 804.529 658.953 804.476 661.081C804.388 665.265 804.299 669.467 804.193 673.652C804.193 673.74 804.193 673.847 804.193 673.935C804.104 678.084 803.998 682.215 803.909 686.364C803.838 688.581 803.785 690.815 803.732 693.049C803.626 697.233 803.519 701.417 803.377 705.584C802.739 726.772 801.853 747.942 800.347 769.094C799.231 782.551 798.114 796.009 796.856 809.448C796.732 810.796 796.608 812.161 796.501 813.526C796.466 813.952 796.431 814.377 796.413 814.785C796.307 816.15 796.2 817.515 796.094 818.881C796.058 819.324 796.023 819.767 795.988 820.21C795.988 820.246 795.97 820.281 795.97 820.317C795.934 820.725 795.899 821.15 795.846 821.576C795.651 823.437 795.438 825.299 795.155 827.143C795.084 827.569 795.013 828.012 794.942 828.437C794.871 828.881 794.782 829.324 794.694 829.767C794.658 829.98 794.605 830.21 794.57 830.441C794.286 831.771 793.967 833.083 793.595 834.359C793.506 834.643 793.418 834.927 793.329 835.228C792.709 837.196 791.929 839.111 790.954 840.92C790.848 841.115 790.742 841.327 790.636 841.522C790.6 841.593 790.547 841.682 790.511 841.753C789.785 843.029 788.952 844.253 788.013 845.405C786.843 846.859 785.478 848.224 783.901 849.465C783.901 849.465 783.883 849.465 783.866 849.448C781.083 845.848 779.364 841.912 778.39 837.817C778.106 836.629 777.894 835.441 777.734 834.217C776.919 828.03 777.539 821.54 778.585 815.246C780.197 801.523 781.527 787.764 782.696 773.988C785.177 748.385 786.116 722.215 787.818 697.02C790.387 642.943 790.494 588.582 797.6 534.841C802.598 501.012 812.416 467.874 825.991 436.509C830.899 425.746 836.393 415.25 842.312 405.002C843.446 403.034 844.599 401.066 845.768 399.115C846.406 398.034 847.062 396.97 847.7 395.889C847.735 395.835 847.753 395.8 847.788 395.747C848.462 394.647 849.118 393.548 849.809 392.449C850.34 391.598 850.872 390.729 851.404 389.878C851.793 389.275 852.166 388.655 852.556 388.052C855.834 382.857 859.201 377.733 862.639 372.644C862.639 372.644 862.622 372.626 862.622 372.609C862.586 372.609 862.586 372.609 862.551 372.626C862.515 372.644 862.444 372.662 862.48 372.609C862.551 372.573 862.604 372.502 862.692 372.538C862.71 372.555 862.728 372.573 862.746 372.591C862.781 372.68 862.781 372.715 862.799 372.733Z" fill="black"/>
<path d="M741.599 408.867C683.064 406.562 624.706 399.825 566.065 399.949C558.852 399.86 551.639 399.878 544.444 399.895C538.986 399.86 533.456 400.392 528.122 398.991C517.081 395.871 520.342 379.257 531.897 380.694C540.315 382.059 548.945 382.059 557.452 382.289C589.776 382.077 621.569 388.814 653.61 392.201C698.145 397.981 742.982 400.747 787.871 400.392C799.833 400.374 811.973 400.303 823.811 399.718C830.722 399.7 837.669 398.14 844.528 398.743C845.786 399.062 847.009 399.736 847.948 400.64C847.771 401.208 847.505 401.722 847.168 402.236C845.467 404.718 842.49 405.091 839.76 405.552C833.451 406.598 827.036 407.254 820.656 407.679C794.339 409.168 767.952 409.186 741.599 408.867Z" fill="black"/>
<path d="M610.564 57.3282C610.582 58.1792 610.387 59.0658 609.961 59.8637C609.908 59.9701 609.837 60.0763 609.784 60.1827C608.491 62.1331 606.382 63.0373 604.042 63.516C603.67 63.587 603.28 63.6578 602.908 63.711C602.837 63.7288 602.784 63.7288 602.731 63.7465C602.536 63.782 602.341 63.7998 602.128 63.8175C601.987 63.8353 601.845 63.853 601.703 63.8708C601.544 63.8885 601.366 63.9061 601.189 63.9238C601.012 63.9415 600.852 63.9593 600.693 63.977C600.445 63.9948 600.214 64.0125 599.966 64.0303C599.736 64.048 599.506 64.0658 599.275 64.0835C599.062 64.1013 598.832 64.1188 598.619 64.1365C598.3 64.172 597.981 64.1898 597.68 64.2075C597.467 64.2253 597.273 64.243 597.06 64.2608C596.794 64.2962 596.528 64.3138 596.262 64.3493C596.262 64.3493 596.245 64.3493 596.227 64.3493C595.944 64.3848 595.66 64.4203 595.376 64.4735C588.784 65.0764 582.191 65.6259 575.599 66.1578C569.006 66.6897 562.414 67.2039 555.804 67.6826C535.991 69.1188 516.178 70.3424 496.347 71.4239C489.737 71.7785 483.126 72.1331 476.516 72.4699C469.906 72.8068 463.296 73.1258 456.685 73.445C450.075 73.7641 443.465 74.0656 436.855 74.367C434.391 74.5088 431.928 74.6506 429.465 74.7747C425.389 75.0052 421.295 75.2358 417.219 75.4662C415.252 75.5726 413.267 75.6791 411.3 75.8032C410.591 75.8387 409.882 75.8741 409.173 75.9273C407.436 76.0159 405.7 76.1223 403.963 76.211C403.112 76.2465 402.262 76.2996 401.393 76.3528C394.819 76.7074 388.226 77.0444 381.651 77.3635C358.577 78.4628 335.504 79.2605 312.501 79.2073C308.549 79.2073 304.597 79.172 300.627 79.1188C298.642 79.0833 296.675 79.0478 294.69 78.9946C291.713 78.9236 288.753 78.8351 285.776 78.711C283.791 78.6401 281.824 78.5514 279.839 78.445C275.887 78.25 271.918 78.0017 267.966 77.6825C265.999 77.523 264.014 77.3635 262.047 77.1685C259.087 76.8848 256.128 76.5834 253.186 76.2287C252.211 76.1046 251.219 75.9806 250.244 75.8565C248.277 75.6083 246.327 75.3421 244.36 75.0407C239.469 74.3138 234.595 73.4806 229.74 72.5054C228.765 72.3104 227.808 72.1152 226.833 71.9024C223.927 71.2819 221.038 70.6083 218.167 69.8814C218.079 69.8636 217.99 69.8459 217.902 69.8281C217.884 69.8281 217.866 69.8281 217.866 69.8281C217.689 69.7927 217.494 69.7394 217.281 69.7039C217.175 69.6684 217.051 69.6508 216.927 69.6154C216.803 69.5799 216.679 69.5621 216.537 69.5266C215.669 69.3139 214.605 69.048 213.383 68.7289C213.134 68.6579 212.869 68.6048 212.603 68.5161C212.408 68.4629 212.213 68.4096 212.018 68.3564C211.681 68.2677 211.327 68.1615 210.972 68.0728C210.618 67.9842 210.246 67.8777 209.891 67.7713C209.129 67.5586 208.35 67.3281 207.534 67.0976C207.517 67.0976 207.499 67.0798 207.463 67.0798C207.003 66.9557 206.524 66.7962 206.046 66.6543C205.709 66.5657 205.372 66.4592 205.035 66.3528C204.646 66.2287 204.256 66.1047 203.866 65.9806C202.377 65.5196 200.853 65.0232 199.311 64.4913C195.714 63.2679 192.081 61.9204 188.82 60.4842C188.359 60.2714 187.899 60.0765 187.455 59.8637C187.225 59.7573 186.995 59.6508 186.764 59.5445C186.321 59.3317 185.914 59.1367 185.488 58.9239C185.045 58.6934 184.602 58.4807 184.195 58.2502C183.823 58.0551 183.468 57.8424 183.114 57.6474C182.547 57.3283 182.033 57.009 181.536 56.6722C181.377 56.5658 181.2 56.4595 181.058 56.3531C180.739 56.1404 180.455 55.9276 180.172 55.6971C180.03 55.5907 179.888 55.4843 179.764 55.3779C179.64 55.2715 179.498 55.165 179.374 55.0586C179.25 54.9523 179.144 54.846 179.02 54.7396C177.283 53.0907 176.645 51.424 177.638 49.8638C177.709 49.7397 177.779 49.6332 177.868 49.5268C178.825 48.3211 180.633 47.7715 182.068 48.4808C193.676 54.8814 206.489 58.6047 219.372 61.477C268.639 73.2854 319.483 71.2998 369.671 69.2076C427.905 65.9452 486.157 62.8778 544.32 58.5162C564.966 57.1509 585.594 54.4914 606.009 51.8851C607.09 52.0624 608.012 52.5411 608.756 53.2326C609.43 53.8531 609.961 54.6509 610.28 55.5196C610.44 56.1047 610.564 56.7076 610.564 57.3282Z" fill="black"/>
<path d="M611.344 87.3634C605.283 80.1295 603.936 70.8209 604.025 61.6897C604.131 59.2075 603.121 56.2999 604.521 54.0836C606.01 51.9914 609.217 52.541 610.068 54.9169C610.67 57.08 610.741 59.4204 611.096 61.6545C612.017 70.1296 614.232 79.0656 611.344 87.3634Z" fill="black"/>
<path d="M619.992 87.2569C620.754 88.4271 621.445 89.6151 621.321 91.1045C621.215 93.1257 620.063 94.5796 618.539 95.3243C618.539 95.3243 618.539 95.3243 618.521 95.3243C618.432 95.3597 618.362 95.4128 618.273 95.4483C618.255 95.4483 618.255 95.466 618.238 95.466C618.149 95.5015 618.06 95.5371 617.989 95.5548C617.901 95.5902 617.795 95.6256 617.706 95.6433C617.617 95.6788 617.511 95.6966 617.422 95.7143C617.174 95.7852 616.908 95.8029 616.66 95.8383C616.518 95.856 616.377 95.8561 616.235 95.8561C615.668 95.8561 615.101 95.7676 614.551 95.5725C614.268 95.4839 614.02 95.3596 613.754 95.2178C613.506 95.076 613.24 94.8986 613.01 94.7213C612.939 94.6504 612.85 94.5972 612.779 94.5263C612.708 94.4554 612.62 94.3845 612.549 94.3135C612.389 94.154 612.265 93.9944 612.124 93.8348C611.982 93.6752 611.84 93.5336 611.698 93.374C611.432 93.0548 611.167 92.7356 610.936 92.3987C610.458 91.725 610.068 90.9981 609.696 90.2712C608.88 88.5868 608.278 86.7959 607.587 85.0584C607.091 83.8527 606.612 82.6469 606.169 81.4236C605.903 80.6966 605.655 79.9519 605.425 79.2073C605.194 78.4626 604.982 77.7181 604.787 76.9557C604.592 76.1933 604.432 75.4308 604.308 74.6684C604.22 74.1542 604.149 73.6401 604.096 73.1259C604.06 72.7535 604.025 72.3812 603.971 72.0089C603.794 70.6082 603.511 69.1897 603.28 67.7713C603.245 67.5585 603.209 67.328 603.174 67.0975C603.103 66.6543 603.05 66.1933 603.014 65.7323C602.944 65.0585 602.908 64.4025 602.926 63.7465C602.944 62.5763 603.121 61.4062 603.546 60.2892C603.67 60.0232 603.794 59.7749 603.954 59.5444C605.212 57.7004 607.534 57.4523 609.27 59.1366C609.518 59.3671 609.749 59.6332 609.961 59.8991C610.44 60.502 610.812 61.1933 611.149 61.9202C612.141 64.101 612.655 66.7252 613.258 68.4451C614.906 74.2961 616.394 78.8704 618.503 84.3136C618.769 85.3774 619.389 86.3172 619.992 87.2569Z" fill="black"/>
<path d="M976.768 861.788C976.041 862.355 975.315 863.136 974.499 863.668C974.163 863.88 973.808 864.04 973.436 864.146C973.312 864.182 973.17 864.217 973.028 864.217C973.099 864.093 973.188 863.969 973.276 863.863C973.294 863.845 973.312 863.809 973.33 863.792C973.418 863.685 973.525 863.579 973.631 863.49C973.702 863.419 973.791 863.349 973.861 863.295C973.95 863.224 974.056 863.136 974.163 863.065C974.163 863.065 974.18 863.047 974.198 863.047C974.287 862.976 974.393 862.923 974.499 862.852C975.244 862.373 976.112 862.036 976.768 861.788Z" fill="black"/>
<path d="M273.708 954.642C272.733 953.95 271.723 953.011 270.89 951.947C270.518 951.486 270.199 950.989 269.897 950.493C269.259 949.394 268.852 948.223 268.816 947.106C269.029 947.319 269.224 947.55 269.401 947.78C269.525 947.94 269.649 948.099 269.773 948.277C269.862 948.401 269.933 948.507 270.022 948.631C270.11 948.773 270.216 948.915 270.305 949.075C270.394 949.216 270.5 949.358 270.589 949.518C271.617 951.291 272.467 953.188 273.708 954.642Z" fill="black"/>
<path d="M316.612 1130.3C316.187 1097.44 320.351 1064.85 323.063 1032.19C323.896 1018.95 323.559 1005.69 323.01 992.443C322.992 989.251 322.354 985.333 325.314 983.188C328.22 981.149 330.24 986.166 330.311 988.471C331.144 995.457 332.012 1002.44 332.58 1009.46C334.281 1028.61 333.005 1047.92 330.754 1066.98C328.043 1088.43 321.822 1109.45 316.612 1130.3Z" fill="black"/>
<path d="M444.209 1114.39C427.958 1077.96 425.655 1052.78 428.189 1013.35C428.543 1007.74 429.128 1002.16 429.961 996.609C430.457 992.549 431.308 988.383 434.09 985.227C434.746 984.482 435.366 983.542 436.305 983.17C436.447 983.17 436.5 983.205 436.607 983.276C436.642 983.312 436.536 983.33 436.518 983.365C437.067 985.741 438.343 987.904 438.822 990.333C439.761 997.656 439.424 1005.17 439.974 1012.55C440.364 1022.16 440.895 1031.77 441.551 1041.38C443.625 1065.69 446.921 1090.12 444.209 1114.39Z" fill="black"/>
<path d="M320.936 1129.8C316.187 1129.14 312.359 1124.8 312.713 1119.94C312.589 1117.73 314.645 1115.38 316.949 1116.32C318.455 1116.87 318.987 1118.49 319.164 1119.94C319.891 1123.35 324.126 1121.93 326.324 1120.88C330.63 1118.7 333.696 1114.78 335.893 1110.58C342.504 1096.61 345.463 1079.68 359.003 1070.35C367.332 1064.14 376.565 1058.42 387.039 1057.03C396.52 1056.04 406.745 1056.68 415.34 1061.09C426.842 1067.16 432.566 1079.84 437.688 1091.15C442.402 1101.96 444.759 1113.84 444.652 1125.56C436.713 1115.56 427.905 1105.92 422.146 1094.41C420.391 1090.74 418.849 1086.98 417.059 1083.33C411.814 1070.97 400.738 1068.19 388.315 1068.45C377.504 1069.76 367.616 1076.18 360.137 1083.61C351.418 1094.06 349.752 1108.47 341.724 1119.37C337.116 1125.81 329.124 1131.01 320.936 1129.8Z" fill="black"/>
<path d="M395.651 1321.93C363.238 1318.41 333.962 1294.92 314.751 1269.92C294.974 1243.33 295.86 1207.58 301.761 1176.39C306.245 1153.59 309.789 1130.6 312.04 1107.46C312.607 1116.18 312.642 1125.3 312.784 1134.14C313.706 1162.16 307.627 1189.85 309.045 1217.85C309.452 1229.25 311.242 1240.7 316.187 1251.08C322.868 1264.73 333.182 1276.23 344.418 1286.31C361.537 1301.84 383.317 1314.11 407.029 1313.47C418.087 1313.4 427.923 1306.55 435.809 1299.8C456.934 1281.18 466.007 1251.61 465.972 1224.07C464.696 1185.08 442.685 1150.58 439.265 1112C446.637 1126.01 451.883 1142.69 457.27 1158.08C465.794 1181.96 474.443 1206.71 473.486 1232.41C471.43 1259.43 462.374 1288.02 441.321 1306.18C428.047 1318.15 413.781 1324.55 395.651 1321.93Z" fill="black"/>
<path d="M393.826 1337.63C364.426 1335.7 335.557 1323.5 318.863 1298.31C299.599 1271.11 292.387 1247.78 299.156 1214.71C305.66 1236.25 310.41 1258.65 321.255 1278.54C336.62 1307.67 357.922 1322.1 390.317 1326.45C403.644 1328.02 417.804 1328.38 430.369 1323.06C442.402 1317.55 453.212 1307.97 458.511 1295.68C462.392 1286.16 464.199 1275.97 465.777 1265.88C466.574 1260.06 467.106 1254.2 467.638 1248.34C467.726 1247.26 467.974 1246.25 468.736 1245.45C470.668 1243.24 474 1245.33 473.911 1248.01C473.947 1249.25 473.947 1250.49 473.947 1251.75C473.876 1263.72 472.724 1275.74 470.03 1287.4C466.663 1306.7 453.035 1322.9 435.685 1331.48C422.713 1337.6 407.986 1338.56 393.826 1337.63Z" fill="black"/>
<path d="M348.37 1151.48C357.886 1141.11 372.684 1136.82 386.418 1136.32C401.517 1135.76 416.067 1140.9 429.376 1147.62C431.396 1148.63 433.665 1149.64 435.384 1150.92C434.356 1150.51 433.328 1150.15 432.283 1149.82C413.551 1144.29 393.72 1140.93 374.297 1144.53C365.436 1146.01 356.185 1146.93 348.387 1151.52C348.37 1151.52 348.37 1151.5 348.37 1151.48Z" fill="black"/>
<path d="M435.224 1176.82C424.379 1172.85 413.444 1168.11 401.801 1167.3C385.568 1166.45 370.026 1171.73 354.537 1175.7C354.555 1175.76 354.891 1175.74 354.82 1175.85C354.484 1175.85 353.952 1176.25 353.81 1175.79C360.491 1166.63 373.481 1164.14 384.168 1162.6C404.406 1159.55 418.53 1166.57 435.224 1176.82Z" fill="black"/>
<path d="M346.172 1200.79C346.101 1199.96 347.023 1199.34 347.554 1198.82C354.874 1193.2 363.894 1190.05 372.773 1187.87C393.72 1182.99 415.589 1184.8 435.898 1191.52C439.017 1192.48 442.083 1193.49 445.007 1194.94C443.873 1194.75 442.526 1194.27 441.321 1194.05C418.778 1189.87 395.705 1189 373.145 1193.52C367.155 1194.48 361.2 1195.4 355.334 1196.91C352.304 1197.92 348.192 1198.35 346.172 1200.79Z" fill="black"/>
<path d="M771.762 968.56C776.759 955.316 782.997 942.532 787.41 929.057C793.701 908.1 797.636 886.132 799 864.306C799.479 859.944 797.547 851.185 804.547 852.143C808.322 853.136 808.269 857.515 808.517 860.689C809.119 869.394 809.013 878.153 808.18 886.841C805.22 923.312 794.268 941.096 771.762 968.56Z" fill="black"/>
<path d="M946.623 978.205C934.838 963.33 923.744 947.319 920.129 928.33C917.258 914.305 915.681 893.809 922.699 880.99C924.329 879.483 927.342 879.784 928.157 882.072C929.061 886.433 928.511 891.114 929.078 895.564C930.124 907.054 932.428 918.348 934.359 928.809C937.248 945.546 943.185 961.734 946.623 978.205Z" fill="black"/>
<path d="M731.994 1042.58C731.728 1016.27 738.658 990.014 752.321 967.479C757.212 959.571 770.893 938.259 781.491 947.762C782.997 949.748 783.476 953.17 781.527 955.103C779.878 956.752 776.759 956.184 776.051 953.862C769.759 958.17 766.41 965.528 762.812 972.018C758.134 981.681 753.792 991.503 749.29 1001.24C743.088 1014.78 737.311 1028.77 731.994 1042.58Z" fill="black"/>
<path d="M843.712 1027.6C832.37 1025.51 822.162 1018.51 814.631 1009.94C806.408 1000.4 802.456 988.312 797.175 977.124C794.499 971.911 791.468 966.805 787.038 962.904C783.901 960.333 780.02 958.844 777.043 956.042C775.82 954.855 774.154 953.702 773.587 952.106C776.387 952.231 779.187 951.468 782.005 951.557C797.866 952.709 808.339 967.691 815.588 980.404C821.259 990.156 826.593 1000.76 836.358 1007.03C840.806 1009.85 845.857 1013.01 851.35 1012.18C861.115 1009.38 866.981 1000.16 873.857 993.312C878.624 988.205 883.622 983.294 889.009 978.861C904.941 965.227 929.716 952.089 949.246 966.184C954.598 970.138 958.78 975.315 961.562 981.379C958.16 980.723 954.775 979.801 951.408 979.181C936.486 976.237 920.607 977.549 908.273 986.858C898.101 993.56 889.47 1002.18 880.769 1010.63C870.968 1020.3 858.368 1030.49 843.712 1027.6Z" fill="black"/>
<path d="M1062.61 1168.98C1037.61 1168.24 1013.06 1163.03 988.748 1157.49C964.38 1152.16 940.367 1144.2 918.463 1132.14C887.326 1114.41 859.361 1091.75 829.907 1071.47C815.783 1060.46 799.922 1052.14 783.068 1046.15C768.554 1041.47 753.473 1038.44 739.703 1031.72C751.771 1034.22 764.425 1035.07 776.759 1036.59C791.504 1038.68 806.071 1043.38 819.043 1050.72C831.732 1058.97 843.73 1068.26 856.011 1077.11C923.673 1125.37 945.241 1137.03 1027.7 1150.92C1047.58 1153.97 1068 1157.62 1088.01 1153.61C1092.67 1152.48 1097.49 1151.55 1101.83 1149.46C1104.12 1146.27 1104.24 1141.64 1104.13 1137.8C1103.66 1124 1094.92 1112.9 1085.05 1104.06C1068.51 1089.53 1047.69 1081.48 1029.33 1069.69C1016.93 1061.34 1005.64 1051.24 994.649 1041.24C979.408 1026.52 969.289 1007.78 959.011 989.517C956.14 983.826 951.107 978.968 949.494 972.745C949.388 972.443 949.299 972.106 948.998 972C949.334 971.113 950.593 971.025 951.426 970.971C954.19 970.847 956.583 972.514 958.319 974.535C970.813 987.922 979.479 1004.22 990.945 1018.4C998.282 1027.46 1006.98 1035.28 1016.45 1042.12C1041.12 1062.26 1073.16 1070.26 1096.6 1091.96C1107.86 1101.91 1116.33 1115.37 1118.61 1130.35C1120.24 1139.32 1120.23 1149.48 1115.1 1157.35C1111.22 1162.6 1104.58 1163.95 1098.55 1165.26C1086.77 1167.88 1074.73 1169.71 1062.61 1168.98Z" fill="black"/>
<path d="M772.488 1043.05C760.881 1040.12 745.533 1038.06 740.164 1025.78C739.721 1024.48 739.437 1023.13 739.242 1021.77C739.331 1021.72 739.49 1021.89 739.597 1021.93C743.23 1023.91 747.253 1024.98 751.116 1026.43C756.344 1028.36 761.2 1031.18 766.481 1033.01C771.443 1034.68 776.458 1037.02 780.623 1040.1C781.385 1040.67 782.306 1041.18 782.944 1041.8C779.63 1043.03 775.997 1043.38 772.488 1043.05Z" fill="black"/>
<path d="M1029.35 1188.97C987.738 1188.43 945.826 1177.83 910.86 1154.75C885.536 1139 862.303 1119.91 835.578 1106.5C822.145 1099.76 808.676 1093.06 795.102 1086.61C781.296 1079.89 767.048 1073.97 754.004 1065.81C749.645 1063.05 745.604 1059.96 741.812 1056.47C737.771 1052.69 722.708 1036.08 731.533 1033.31C733.66 1032.78 736.034 1034.27 736.265 1036.52C736.495 1037.03 736.814 1037.5 737.098 1037.99C740.518 1042.99 745.144 1047.03 750.088 1050.47C762.919 1058.97 777.22 1064.75 790.937 1071.59C810.076 1081.18 827.975 1090.03 846.424 1100.21C876.569 1117.25 903.134 1139.98 933.881 1156.01C986.019 1182.09 1041.79 1182.71 1098.2 1174.87C1103.78 1174.5 1109.4 1174.73 1114.96 1175.12C1113.93 1176.2 1112.59 1177.16 1111.31 1178.03C1100.89 1185.77 1087.94 1187.16 1075.37 1188.06C1060.08 1189.16 1044.7 1189.8 1029.35 1188.97Z" fill="black"/>
<path d="M1107.32 1177.62C1105.91 1175.88 1106.69 1173.47 1107.71 1171.73C1111.08 1164.37 1112.77 1156.29 1114.61 1148.45C1114.84 1147.6 1114.93 1146.57 1115.19 1145.81C1116.27 1148.66 1117.23 1151.54 1117.82 1154.53C1118.97 1161.01 1118.45 1167.97 1115.35 1173.84C1114.06 1176.7 1110.37 1180.6 1107.32 1177.62Z" fill="black"/>
<path d="M787.8 1045.35C772.719 1043.86 757.212 1041.33 744.452 1032.58C740.465 1029.78 735.857 1027.23 733.252 1022.97C731.693 1020.14 735.432 1017.11 737.895 1019.2C741.192 1021.84 744.949 1023.79 748.635 1025.81C760.491 1032.67 774.048 1033.67 786.311 1039.14C791.273 1041.29 795.775 1044.3 800.17 1047.42C796.129 1046.75 791.894 1045.81 787.729 1045.35C787.747 1045.33 787.8 1045.35 787.8 1045.35Z" fill="black"/>
<path d="M920.501 1039.64C919.385 1039.55 918.995 1038.15 918.853 1037.25C918.073 1032 920.448 1026.93 923.815 1023.05C936.273 1008.28 957.167 1002.73 975.899 1003.67C980.365 1004.11 985.239 1004.5 989.368 1006.04C986.869 1005.85 984.317 1006.08 981.96 1006.25C969.023 1006.93 956.547 1010.95 944.957 1016.63C937.231 1020.3 930.798 1025.9 925.516 1032.57C923.815 1034.5 921.724 1036.25 920.466 1038.49C920.324 1038.79 920.235 1039.16 920.43 1039.45C920.448 1039.52 920.59 1039.61 920.501 1039.64Z" fill="black"/>
<path d="M941.111 1055.53C938.063 1055.1 941.041 1049.18 941.75 1047.51C952.188 1027.87 983.041 1018.35 1004.09 1018.24C1005.69 1018.28 1007.41 1018.36 1008.76 1019C1007.62 1018.86 1006.47 1018.93 1005.39 1019.18C986.054 1024.3 966.985 1032.41 951.266 1044.92C949.512 1046.61 938.683 1053.54 941.111 1055.53Z" fill="black"/>
<path d="M959.507 1066.59C958.762 1053.24 973.223 1044.92 983.484 1039.39C995.34 1033.58 1008.65 1030.6 1021.87 1031.7C1024.67 1031.89 1027.74 1032.12 1030.32 1032.92C1027.52 1033.12 1024.79 1033.72 1022.05 1034.29C1003.44 1038.05 985.186 1045.37 970.211 1057.16C967.907 1059.41 959.702 1064.22 960.836 1067.32C960.978 1067.46 961.385 1067.46 961.421 1067.62C960.606 1067.74 959.737 1067.65 959.507 1066.59Z" fill="black"/>
<path d="M311.154 1124.27C311.118 1124.16 311.03 1124.04 310.994 1123.91C310.285 1123.54 310.941 1122.21 311.136 1121.64C311.597 1120.6 312.004 1119.29 312.802 1118.43C313.369 1117.81 314.096 1117.33 314.804 1116.94C315.761 1116.75 315.815 1117.92 315.106 1118.31C313.706 1119.64 312.767 1121.34 312.129 1123.1C311.987 1123.54 311.756 1124.3 311.154 1124.27Z" fill="black"/>
</g>
<g id="Shoes">
<path d="M1104.15 1137.78C1104.26 1141.63 1104.13 1146.25 1101.85 1149.44C1097.51 1151.54 1092.69 1152.46 1088.03 1153.59C1068.02 1157.6 1047.58 1153.93 1027.7 1150.88C945.223 1137 923.673 1125.33 856.011 1077.07C843.73 1068.22 831.732 1058.95 819.043 1050.69C807.648 1044.23 795.03 1039.82 782.129 1037.42C776.103 1035.21 769.883 1033.77 763.733 1031.95C763.716 1031.95 763.716 1031.95 763.698 1031.95C759.462 1030.21 755.422 1028.01 751.116 1026.41C749.875 1025.94 748.599 1025.51 747.341 1025.08C745.055 1023.84 742.751 1022.57 740.589 1021.13C743.389 1014.43 746.277 1007.76 749.272 1001.2C753.774 991.468 758.116 981.645 762.794 971.982C766.25 965.776 769.458 958.773 775.235 954.411C775.767 954.925 776.334 955.404 776.848 955.883C775.093 960.085 773.356 964.287 771.744 968.542C774.668 964.979 777.397 961.574 779.931 958.276C782.288 959.837 784.822 961.096 787.02 962.904C791.45 966.805 794.499 971.911 797.174 977.106C802.473 988.294 806.425 1000.4 814.63 1009.92C822.162 1018.51 832.37 1025.49 843.712 1027.58C858.368 1030.47 870.951 1020.28 880.733 1010.63C889.452 1002.19 898.065 993.577 908.237 986.858C920.572 977.549 936.45 976.237 951.372 979.181C951.78 979.251 952.187 979.34 952.595 979.429C954.686 982.798 957.274 985.989 959.028 989.482C961.686 994.216 964.344 998.967 967.074 1003.68C950.894 1004.64 934.359 1010.55 923.832 1023.01C920.465 1026.89 918.073 1031.98 918.87 1037.21C919.012 1038.12 919.402 1039.52 920.518 1039.61C920.607 1039.57 920.465 1039.48 920.465 1039.43C920.27 1039.14 920.341 1038.77 920.501 1038.47C921.759 1036.24 923.85 1034.48 925.552 1032.55C930.833 1025.88 937.266 1020.26 944.992 1016.61C952.825 1012.76 961.066 1009.69 969.572 1007.89C972.461 1012.73 975.456 1017.5 978.682 1022.11C963.299 1026.59 948.412 1035 941.767 1047.48C941.058 1049.16 938.081 1055.07 941.129 1055.49C938.719 1053.51 949.547 1046.57 951.283 1044.89C960.641 1037.46 971.15 1031.57 982.208 1026.96C984.689 1030.26 987.312 1033.44 990.112 1036.48C987.879 1037.35 985.664 1038.31 983.502 1039.37C973.241 1044.91 958.78 1053.22 959.524 1066.57C959.755 1067.64 960.623 1067.73 961.438 1067.58C961.403 1067.42 960.977 1067.42 960.853 1067.28C959.719 1064.18 967.924 1059.39 970.228 1057.12C978.008 1050.99 986.692 1046.06 995.836 1042.23C1006.45 1051.89 1017.4 1061.59 1029.37 1069.64C1047.73 1081.43 1068.53 1089.48 1085.08 1104C1094.94 1112.88 1103.67 1124 1104.15 1137.78Z" fill="white"/>
<path d="M1111.6 1160.72C1110.55 1164.48 1109.33 1168.19 1107.71 1171.73C1107.2 1172.6 1106.76 1173.65 1106.62 1174.69C1103.82 1174.64 1101.02 1174.66 1098.22 1174.85C1041.81 1182.69 986.036 1182.07 933.898 1155.99C903.151 1139.96 876.586 1117.23 846.441 1100.19C827.993 1090.01 810.076 1081.17 790.954 1071.57C777.237 1064.75 762.936 1058.95 750.105 1050.46C745.161 1047.02 740.536 1042.97 737.115 1037.97C736.832 1037.5 736.513 1037.02 736.282 1036.5C736.194 1035.65 735.804 1034.91 735.219 1034.34C736.07 1032.19 736.92 1030.03 737.806 1027.89C739.933 1029.59 742.29 1031.04 744.452 1032.57C744.452 1032.57 744.47 1032.58 744.488 1032.58C742.875 1032.3 741.28 1032.02 739.703 1031.68C743.052 1033.31 746.49 1034.73 749.964 1036.01C752.002 1037.14 754.217 1038.06 756.503 1038.86C762.511 1041.2 768.837 1042.71 775.253 1043.75C777.875 1044.52 780.481 1045.3 783.068 1046.13C799.939 1052.14 815.782 1060.44 829.924 1071.45C859.378 1091.73 887.343 1114.39 918.481 1132.12C940.385 1144.18 964.398 1152.14 988.765 1157.48C1013.08 1163.03 1037.62 1168.24 1062.63 1168.97C1074.75 1169.69 1086.78 1167.87 1098.59 1165.26C1103.04 1164.3 1107.82 1163.31 1111.6 1160.72Z" fill="white"/>
<path d="M401.801 1167.28C413.444 1168.1 424.361 1172.85 435.206 1176.82C418.53 1166.59 404.406 1159.55 384.15 1162.58C373.464 1164.13 360.473 1166.59 353.792 1175.77C353.934 1176.25 354.466 1175.83 354.802 1175.83C354.891 1175.74 354.537 1175.74 354.519 1175.69C370.026 1171.71 385.568 1166.43 401.801 1167.28ZM432.282 1149.8C433.328 1150.14 434.356 1150.49 435.384 1150.9C433.665 1149.62 431.396 1148.61 429.376 1147.6C416.067 1140.9 401.517 1135.74 386.418 1136.31C372.684 1136.8 357.886 1141.09 348.369 1151.47C348.352 1151.48 348.369 1151.5 348.387 1151.5C356.185 1146.91 365.436 1145.99 374.296 1144.52C393.72 1140.92 413.55 1144.27 432.282 1149.8ZM441.338 1194.07C442.543 1194.28 443.89 1194.76 445.024 1194.96C442.1 1193.5 439.034 1192.49 435.915 1191.54C415.588 1184.8 393.737 1183.01 372.79 1187.88C363.894 1190.05 354.891 1193.2 347.572 1198.84C347.04 1199.34 346.119 1199.98 346.19 1200.81C348.21 1198.36 352.304 1197.94 355.352 1196.94C361.218 1195.44 367.172 1194.51 373.162 1193.56C395.722 1189.04 418.796 1189.89 441.338 1194.07ZM465.972 1224.09C466.007 1251.62 456.933 1281.2 435.809 1299.82C427.923 1306.57 418.087 1313.4 407.029 1313.49C383.335 1314.12 361.537 1301.85 344.417 1286.32C333.182 1276.27 322.868 1264.74 316.187 1251.09C311.242 1240.7 309.47 1229.27 309.045 1217.87C307.609 1189.87 313.688 1162.17 312.784 1134.16C312.713 1130.14 312.678 1126.06 312.589 1121.98C312.642 1121.86 312.695 1121.73 312.766 1121.59C313.068 1124.16 314.521 1126.48 316.594 1128.01C316.594 1128.77 316.612 1129.53 316.612 1130.28C316.771 1129.64 316.931 1129 317.09 1128.35C318.242 1129.09 319.536 1129.59 320.936 1129.78C329.124 1130.99 337.098 1125.79 341.759 1119.36C349.787 1108.45 351.453 1094.04 360.172 1083.61C367.651 1076.18 377.54 1069.76 388.35 1068.45C400.773 1068.17 411.849 1070.97 417.095 1083.33C418.885 1086.98 420.444 1090.74 422.181 1094.41C426.877 1103.79 433.594 1111.93 440.222 1120.05C445.662 1155.46 464.766 1187.83 465.972 1224.09Z" fill="white"/>
<path d="M464.837 1271.85C463.437 1279.96 461.665 1288.04 458.546 1295.67C453.247 1307.95 442.437 1317.53 430.404 1323.04C417.821 1328.38 403.679 1328.02 390.335 1326.43C357.939 1322.08 336.638 1307.65 321.273 1278.52C320.971 1277.97 320.67 1277.4 320.369 1276.84C339.438 1299.11 366.251 1318.72 395.651 1321.91C413.763 1324.53 428.029 1318.13 441.32 1306.16C452.06 1296.93 459.68 1284.94 464.837 1271.85Z" fill="white"/>
</g>
<path id="Clothing 3" d="M436.287 152.043C436.27 152.043 436.27 152.043 436.287 152.043C436.163 152.149 436.057 152.256 435.968 152.397C436.057 152.273 436.163 152.149 436.287 152.043ZM437.368 160.358C436.961 159.135 436.606 157.894 436.27 156.635C436.234 156.387 436.163 156.121 436.075 155.873C436.146 156.139 436.217 156.405 436.252 156.635C436.589 157.894 436.961 159.117 437.368 160.358ZM439.158 165.199C438.839 164.401 438.52 163.603 438.219 162.787C438.503 163.603 438.822 164.401 439.158 165.199ZM1056.92 336.048C1059.05 341.013 1061 346.279 1061.81 351.527C1060.2 361.58 1057.77 372.679 1056.18 382.98C1052.56 402.306 1049.71 421.774 1046.75 441.207C1037.89 494.078 1029.6 547.057 1018.89 599.574C1016.62 609.432 1014.41 619.308 1012.26 629.201C1009.39 642.375 1006.63 655.584 1003.94 668.811C1002.46 676.062 1001.03 683.314 999.611 690.584C998.565 695.938 997.538 701.275 996.527 706.629C995.659 711.186 994.808 715.743 993.958 720.3C991.619 732.959 989.35 745.636 987.153 758.313C986.763 760.565 986.373 762.835 986.018 765.086C985.806 766.487 985.575 767.87 985.345 769.271C984.955 771.718 984.583 774.147 984.211 776.593C982.19 790.015 980.401 803.473 978.362 816.894C975.74 832.072 974.464 847.444 974.482 862.834C974.375 862.905 974.286 862.958 974.18 863.029C974.162 863.029 974.162 863.046 974.145 863.046C974.038 863.117 973.932 863.188 973.844 863.277C973.755 863.348 973.684 863.401 973.613 863.472C973.507 863.561 973.4 863.667 973.312 863.773C973.294 863.791 973.276 863.826 973.259 863.844C966.843 866.025 959.896 866.06 953.144 866.965C952.896 867 952.648 867.036 952.4 867.071C951.408 867.213 950.415 867.39 949.423 867.585C947.686 867.904 945.949 868.188 944.195 868.472C942.458 868.755 940.704 869.004 938.949 869.234C937.212 869.465 935.458 869.678 933.704 869.873C933.048 869.943 932.392 870.014 931.737 870.085C929.769 870.28 927.785 870.458 925.8 870.6C919.65 871.061 913.465 871.291 907.28 871.291C906.642 871.291 906.004 871.291 905.384 871.273C904.888 871.273 904.392 871.273 903.895 871.256C903.683 871.256 903.452 871.256 903.222 871.238C902.673 871.238 902.123 871.22 901.574 871.202C900.936 871.185 900.316 871.167 899.678 871.149C899.146 871.131 898.597 871.114 898.065 871.096C897.338 871.06 896.594 871.043 895.868 871.007C894.893 870.954 893.918 870.919 892.943 870.848C892.341 870.812 891.738 870.777 891.154 870.741C890.586 870.706 890.002 870.67 889.435 870.617C889.045 870.582 888.672 870.564 888.283 870.529C885.66 870.334 883.055 870.085 880.449 869.802C879.9 869.731 879.351 869.677 878.801 869.607C876.799 869.376 874.796 869.128 872.794 868.844C872.049 868.738 871.287 868.631 870.543 868.525C869.746 868.401 868.948 868.277 868.133 868.153C867.406 868.029 866.68 867.922 865.953 867.798C865.191 867.674 864.429 867.55 863.667 867.408C862.905 867.284 862.161 867.142 861.398 867C859.644 866.681 857.907 866.327 856.171 865.954C854.966 865.706 853.743 865.44 852.538 865.156C848.71 864.287 844.882 863.33 841.107 862.284C840.398 862.089 839.689 861.894 838.98 861.681C838.271 861.486 837.563 861.273 836.854 861.061C832.831 859.873 828.826 858.578 824.874 857.16C824.36 856.983 823.864 856.805 823.367 856.628C822.73 856.398 822.109 856.167 821.471 855.937C820.762 855.688 820.054 855.405 819.345 855.139C815.942 853.844 812.575 852.461 809.226 851.007C808.712 850.795 808.198 850.564 807.684 850.334C807.577 850.281 807.471 850.245 807.347 850.192C806.815 849.944 806.284 849.713 805.752 849.465C805.185 849.199 804.6 848.933 804.015 848.667C802.296 847.869 800.577 847.054 798.876 846.203C798.309 845.919 797.742 845.635 797.175 845.352C796.04 844.784 794.924 844.217 793.79 843.614C792.673 843.029 791.557 842.426 790.44 841.806C790.476 841.735 790.529 841.646 790.564 841.575C790.688 841.38 790.777 841.185 790.883 840.972C791.858 839.164 792.62 837.249 793.258 835.281C793.347 834.997 793.435 834.713 793.524 834.412C793.896 833.118 794.215 831.823 794.499 830.494C794.552 830.281 794.587 830.05 794.623 829.82C794.711 829.377 794.8 828.933 794.871 828.49C794.942 828.065 795.013 827.621 795.084 827.196C795.367 825.352 795.58 823.49 795.775 821.628C795.81 821.203 795.846 820.795 795.899 820.369C795.899 820.334 795.899 820.299 795.916 820.263C795.952 819.82 795.987 819.377 796.023 818.933C796.147 817.568 796.235 816.203 796.342 814.838C796.377 814.412 796.413 813.987 796.43 813.579C796.537 812.196 796.661 810.831 796.785 809.501C798.043 796.061 799.159 782.604 800.276 769.146C801.8 747.994 802.686 726.824 803.306 705.637C803.43 701.452 803.555 697.286 803.661 693.101C803.714 690.867 803.767 688.651 803.838 686.417C803.927 682.268 804.033 678.137 804.122 673.988C804.122 673.899 804.122 673.793 804.122 673.704C804.21 669.52 804.317 665.318 804.405 661.134C804.458 659.006 804.494 656.896 804.547 654.768C804.742 646.293 804.919 637.818 805.149 629.343C805.327 622.978 805.504 616.63 805.717 610.265C805.788 608.138 805.858 606.028 805.929 603.9C806.089 599.662 806.248 595.425 806.443 591.187C806.532 589.06 806.638 586.95 806.727 584.84C806.939 580.602 807.152 576.365 807.4 572.145C807.524 570.017 807.648 567.908 807.772 565.798C807.896 563.191 808.056 560.603 808.251 557.996C808.339 556.702 808.446 555.408 808.534 554.096C808.747 551.507 808.96 548.901 809.208 546.312C809.456 543.723 809.722 541.135 810.023 538.546C810.767 532.075 811.653 525.638 812.699 519.22C813.337 515.373 814.01 511.525 814.755 507.695C815.499 503.866 816.314 500.054 817.165 496.259C817.732 493.724 818.335 491.188 818.973 488.671C822.747 473.547 827.497 458.653 833.327 444.132C834.036 442.235 834.798 440.355 835.596 438.476C836.127 437.235 836.677 435.994 837.226 434.771C839.742 429.239 842.507 423.795 845.272 418.37C845.874 417.164 846.495 415.959 847.115 414.753C847.717 413.547 848.32 412.342 848.922 411.136C849.224 410.533 849.525 409.913 849.809 409.31C850.411 408.104 850.996 406.881 851.563 405.657C852.13 404.434 852.697 403.211 853.246 401.969C853.796 400.728 854.328 399.505 854.859 398.264C855.054 397.785 855.249 397.324 855.444 396.863C855.816 395.923 856.188 394.984 856.543 394.044C856.72 393.565 856.897 393.086 857.074 392.625C857.996 390.09 858.846 387.501 859.573 384.895C859.715 384.399 859.857 383.92 860.016 383.424C860.229 382.697 860.477 381.952 860.69 381.225C860.867 380.675 861.026 380.126 861.186 379.576C861.31 379.204 861.416 378.814 861.523 378.441C862.037 376.668 862.48 374.86 862.745 373.051C862.763 372.927 862.745 372.856 862.728 372.803C862.71 372.785 862.692 372.768 862.692 372.75C862.674 372.732 862.657 372.714 862.639 372.697C862.551 372.661 862.497 372.732 862.426 372.768C862.391 372.839 862.479 372.803 862.497 372.785C862.533 372.785 862.533 372.768 862.568 372.768C862.568 372.785 862.568 372.785 862.586 372.803C859.166 377.892 855.781 383.016 852.502 388.211C852.112 388.814 851.74 389.416 851.35 390.037C850.819 390.888 850.287 391.739 849.755 392.608C849.082 393.707 848.408 394.789 847.735 395.906C847.7 395.959 847.664 395.994 847.646 396.048C846.991 397.129 846.353 398.193 845.715 399.274C845.626 399.221 845.52 399.186 845.413 399.15C845.254 399.079 845.094 399.026 844.953 398.991C844.793 398.938 844.634 398.902 844.474 398.849C841.213 398.565 837.935 398.778 834.639 399.062C832.831 399.221 831.006 399.416 829.198 399.558C828.099 399.647 827.018 399.718 825.937 399.771C825.211 399.806 824.484 399.824 823.757 399.824C823.686 399.824 823.633 399.824 823.562 399.824C820.709 399.966 817.838 400.072 814.967 400.161C805.947 400.445 796.838 400.48 787.8 400.48C771.974 400.604 756.131 400.356 740.323 399.7C737.682 399.594 735.042 399.469 732.419 399.345C721.875 398.831 711.348 398.14 700.803 397.289C698.18 397.076 695.54 396.845 692.917 396.615C690.294 396.384 687.654 396.136 685.031 395.87C679.785 395.356 674.522 394.806 669.276 394.204C665.342 393.76 661.408 393.282 657.474 392.785C656.162 392.626 654.851 392.448 653.539 392.271C652.547 392.165 651.572 392.058 650.58 391.952C648.489 391.721 646.38 391.473 644.289 391.207C642.569 390.994 640.85 390.782 639.131 390.551C638.848 390.516 638.582 390.48 638.299 390.445C636.633 390.232 634.967 390.001 633.301 389.771C632.982 389.735 632.681 389.682 632.379 389.647C627.931 389.044 623.483 388.406 619.035 387.785C617.334 387.555 615.615 387.306 613.913 387.076C612.744 386.916 611.574 386.757 610.422 386.597C609.625 386.491 608.845 386.384 608.047 386.278C606.47 386.065 604.893 385.853 603.333 385.658C600.356 385.285 597.397 384.931 594.437 384.576C592.47 384.363 590.52 384.15 588.553 383.955C587.561 383.867 586.586 383.76 585.594 383.672C584.017 383.512 582.422 383.388 580.844 383.264C580.1 383.193 579.356 383.14 578.594 383.087C571.54 382.572 564.487 382.289 557.398 382.324C555.803 382.289 554.208 382.253 552.596 382.218C552.401 382.218 552.224 382.218 552.046 382.2C551.196 382.182 550.327 382.165 549.459 382.129C548.892 382.129 548.343 382.094 547.775 382.076C547.013 382.041 546.234 382.023 545.472 381.987C544.887 381.952 544.302 381.934 543.717 381.899C543.363 381.881 543.026 381.863 542.672 381.828C541.785 381.775 540.899 381.721 539.996 381.651C539.606 381.615 539.198 381.58 538.79 381.562C538.737 381.562 538.684 381.562 538.631 381.562C537.745 381.473 536.876 381.384 536.008 381.296C536.008 381.243 536.026 381.189 536.026 381.136C536.114 380.569 536.185 380.002 536.274 379.434C536.363 378.814 536.451 378.193 536.522 377.572C536.717 376.136 536.894 374.7 537.054 373.264C537.107 372.839 537.16 372.413 537.196 371.97C537.408 370.108 537.585 368.229 537.745 366.367C537.851 365.108 537.94 363.867 538.028 362.626C538.064 362.005 538.099 361.367 538.135 360.746C538.241 358.867 538.312 357.005 538.347 355.126C538.507 347.98 538.223 340.835 537.319 333.779C537.089 331.988 536.823 330.197 536.522 328.424C536.451 327.981 536.363 327.538 536.274 327.094C535.689 323.992 534.98 320.906 534.147 317.839C534.023 317.396 533.899 316.953 533.775 316.527C533.58 315.871 533.385 315.215 533.173 314.559C532.552 312.609 531.879 310.658 531.152 308.726C530.745 307.591 530.319 306.438 529.894 305.304C529.043 303.034 528.157 300.783 527.236 298.531C526.828 297.538 526.421 296.545 525.995 295.552C525.907 295.357 525.836 295.162 525.747 294.949C525.304 293.903 524.861 292.875 524.4 291.846C523.922 290.747 523.426 289.63 522.912 288.531C522.415 287.432 521.902 286.332 521.388 285.233C520.82 284.027 520.253 282.822 519.651 281.616C519.243 280.765 518.818 279.914 518.393 279.063C517.188 276.652 515.965 274.258 514.724 271.882C514.246 270.96 513.75 270.038 513.253 269.134C512.031 266.847 510.772 264.577 509.496 262.325C508.982 261.386 508.451 260.446 507.901 259.506C507.901 259.506 507.901 259.489 507.884 259.489C507.387 258.62 506.891 257.751 506.377 256.882C505.846 255.96 505.296 255.02 504.765 254.099C504.446 253.567 504.144 253.052 503.825 252.52C496.949 240.925 489.63 229.56 482.24 218.283C481.514 217.149 480.769 216.032 480.025 214.897C478.324 212.308 476.622 209.702 474.903 207.095C474.903 207.095 474.886 207.078 474.886 207.06L474.708 206.865L473.911 206.067L473.698 205.872L473.273 205.447L472.582 204.861L472.369 204.666L472.156 204.489L471.093 203.691L470.455 203.266L469.764 202.84L469.073 202.468L468.842 202.362L468.612 202.273L468.399 202.184L468.187 202.113L467.797 202.007L467.602 201.972L467.425 201.954H467.088L466.928 201.972L466.769 202.007L466.627 202.042L466.379 202.149L466.273 202.22L466.095 202.362L466.007 202.432L465.83 202.574L465.759 202.645L465.67 202.734L465.599 202.823L465.245 203.266L465.139 203.443L465.103 203.532L465.032 203.709L464.997 203.798L464.961 203.904L464.926 204.01L464.908 204.135L464.873 204.259L464.82 204.684L464.802 204.844V205.003L464.784 205.163V205.642L464.802 205.801V205.961L464.855 206.439L464.873 206.617L464.944 206.971L465.085 207.751L465.192 208.177L465.245 208.407L465.298 208.656L465.369 208.904L465.422 209.152L465.777 210.482L465.989 211.227L466.06 211.457L466.131 211.67L466.202 211.847L466.22 211.883C467.442 213.922 468.665 215.978 469.888 218.017C474.939 226.528 479.954 235.056 484.898 243.62C487.557 248.248 490.055 252.68 492.395 256.936C493.174 258.354 493.936 259.755 494.681 261.138C495.425 262.521 496.152 263.886 496.861 265.215C497.8 267.006 498.721 268.761 499.608 270.481C499.838 270.925 500.068 271.368 500.281 271.793C500.83 272.857 501.362 273.921 501.894 274.967C502.213 275.605 502.532 276.226 502.833 276.847C503.648 278.496 504.446 280.145 505.208 281.74C506.448 284.329 507.618 286.864 508.699 289.346C509.124 290.322 509.549 291.279 509.957 292.219C510.276 292.946 510.577 293.673 510.879 294.399C511.339 295.499 511.782 296.598 512.225 297.68C515.043 304.719 517.241 311.297 518.924 317.644C519.155 318.531 519.385 319.399 519.598 320.268C519.757 320.942 519.917 321.598 520.076 322.254C520.271 323.123 520.448 323.991 520.643 324.86C521.14 327.307 521.565 329.718 521.919 332.13C522.043 333.016 522.167 333.885 522.274 334.771C523.638 345.942 523.408 357.005 522.061 369.31C521.972 370.126 521.866 370.977 521.778 371.81C521.689 372.643 521.565 373.495 521.459 374.346C521.405 374.771 521.352 375.197 521.281 375.64C521.157 376.491 521.051 377.36 520.927 378.228C520.803 379.097 520.679 379.984 520.537 380.87C520.413 381.757 520.253 382.643 520.129 383.548C520.059 383.991 519.988 384.452 519.917 384.913C519.757 385.817 519.615 386.739 519.456 387.661C519.296 388.583 519.137 389.523 518.977 390.48C518.57 392.838 518.127 395.267 517.666 397.732C517.489 398.618 517.329 399.54 517.152 400.445C516.922 401.65 516.691 402.874 516.461 404.097C516.266 405.037 516.089 405.977 515.912 406.934C515.788 407.555 515.663 408.175 515.557 408.796C515.061 411.296 514.547 413.849 514.033 416.473C513.998 416.686 513.944 416.881 513.909 417.093C512.225 425.444 510.4 434.469 508.451 444.363C507.405 449.77 506.324 455.16 505.225 460.55C503.843 467.288 502.408 474.026 500.972 480.745C500.689 482.093 500.405 483.44 500.104 484.788C499.572 487.234 499.058 489.699 498.527 492.146C492.696 519.291 486.883 546.436 482.896 573.918C481.106 587.641 479.44 601.382 477.845 615.141C476.888 623.386 475.967 631.63 475.063 639.893C474.46 645.407 473.875 650.903 473.291 656.417C473.007 659.165 472.706 661.931 472.422 664.68C471.855 670.194 471.27 675.69 470.703 681.204C469.853 689.466 469.002 697.729 468.169 705.991C467.123 715.619 466.113 725.246 465.209 734.892C464.82 739.076 464.447 743.242 464.111 747.409C463.898 749.98 463.703 752.533 463.508 755.104C463.349 757.25 463.207 759.413 463.065 761.558C463.03 762.267 462.977 762.976 462.941 763.686C462.782 766.381 462.622 769.058 462.498 771.753C462.498 771.877 462.48 772.001 462.48 772.143C461.842 785.583 461.647 799.04 462.161 812.497C462.232 814.111 462.303 815.724 462.374 817.355C462.782 825.901 463.313 834.43 463.987 842.958C464.642 851.415 465.422 859.855 466.308 868.295C466.663 871.663 467.017 875.032 467.407 878.401C467.779 881.769 468.187 885.138 468.594 888.507C468.789 890.192 469.002 891.876 469.215 893.56C469.285 894.216 469.356 894.854 469.427 895.51C469.463 895.741 469.48 895.989 469.516 896.22C469.587 896.911 469.675 897.621 469.764 898.312C469.959 899.89 470.154 901.468 470.367 903.028C470.473 903.826 470.579 904.606 470.703 905.386C470.898 906.752 471.093 908.099 471.306 909.447C471.359 909.837 471.43 910.227 471.483 910.617C471.572 911.22 471.678 911.84 471.784 912.443C471.908 913.223 472.05 914.003 472.192 914.783C472.263 915.209 472.334 915.635 472.422 916.06C472.546 916.823 472.706 917.603 472.848 918.365C473.06 919.535 473.291 920.688 473.521 921.858C473.61 922.283 473.68 922.709 473.769 923.117C473.964 924.11 474.177 925.102 474.389 926.078C474.708 927.514 475.027 928.95 475.346 930.368C475.524 931.131 475.701 931.875 475.878 932.62C475.967 932.992 476.055 933.383 476.162 933.755C476.41 934.801 476.675 935.865 476.959 936.911C477.562 939.251 478.2 941.592 478.855 943.914C478.873 943.968 478.891 944.021 478.908 944.074C479.192 945.12 479.511 946.148 479.812 947.194C479.883 947.425 479.954 947.673 480.025 947.904C480.344 948.95 480.663 949.996 481 951.042C477.331 953.4 473.663 955.794 469.994 958.187C469.073 958.79 468.151 959.375 467.247 959.978C465.971 960.811 464.678 961.645 463.384 962.478C462.09 963.311 460.814 964.127 459.521 964.943C458.812 965.404 458.085 965.847 457.376 966.308C456.154 967.07 454.913 967.85 453.69 968.595C453.035 969.003 452.397 969.393 451.723 969.783C449.756 970.971 447.789 972.141 445.804 973.276C445.131 973.666 444.475 974.038 443.819 974.41C443.146 974.783 442.49 975.173 441.817 975.527C440.541 976.237 439.247 976.928 437.953 977.62C437.9 977.655 437.829 977.673 437.776 977.708C436.429 978.417 435.065 979.127 433.7 979.801C433.009 980.137 432.335 980.474 431.644 980.811C430.953 981.148 430.262 981.485 429.571 981.804C428.738 982.176 427.887 982.531 427.037 982.868C427.019 982.868 427.001 982.868 427.001 982.886C426.168 983.222 425.335 983.559 424.502 983.861C424.467 983.861 424.449 983.878 424.414 983.896C423.12 984.375 421.791 984.836 420.48 985.261C420.036 985.403 419.593 985.545 419.15 985.687C418.264 985.971 417.378 986.237 416.492 986.485C416.049 986.609 415.606 986.733 415.163 986.857C414.72 986.981 414.277 987.105 413.816 987.212C409.74 988.293 405.611 989.144 401.446 989.836C400.755 989.942 400.046 990.049 399.355 990.155C397.353 990.456 395.332 990.722 393.312 990.953C392.851 991.006 392.408 991.059 391.947 991.112C391.699 991.148 391.451 991.166 391.203 991.183C390.866 991.219 390.547 991.254 390.211 991.29C389.856 991.325 389.52 991.361 389.183 991.378C388.509 991.449 387.854 991.503 387.198 991.556C387.163 991.556 387.145 991.556 387.127 991.556C386.95 991.556 386.773 991.573 386.595 991.591C385.94 991.644 385.284 991.68 384.628 991.715C384.097 991.751 383.547 991.786 383.016 991.804C382.395 991.839 381.775 991.875 381.155 991.893C380.481 991.91 379.808 991.928 379.135 991.946C379.117 991.946 379.099 991.946 379.099 991.946C378.213 991.964 377.309 991.981 376.423 991.981C365.471 991.981 354.537 990.616 344.116 987.034C321.078 978.063 295.31 970.102 279.13 950.279C278.864 949.943 278.599 949.57 278.315 949.216C278.173 949.038 278.032 948.861 277.89 948.684C277.163 947.815 276.312 947.035 275.161 946.822C274.877 946.769 274.629 946.751 274.363 946.751C274.239 946.751 274.115 946.751 273.973 946.769C273.849 946.769 273.743 946.804 273.619 946.822C273.477 946.858 273.335 946.893 273.193 946.928C273.087 946.964 272.981 946.999 272.875 947.035C272.768 947.07 272.662 947.124 272.556 947.194C272.485 947.23 272.396 947.283 272.325 947.336C272.272 947.354 272.236 947.389 272.183 947.425C272.112 947.478 272.024 947.531 271.953 947.602C271.864 947.673 271.758 947.762 271.687 947.833C271.599 947.921 271.51 948.01 271.439 948.099C271.368 948.187 271.297 948.276 271.226 948.365C271.226 948.382 271.226 948.382 271.209 948.4C271.138 948.489 271.085 948.595 271.031 948.684V948.701C270.961 948.808 270.925 948.914 270.872 949.021C270.819 949.127 270.783 949.233 270.748 949.34C270.748 949.34 270.748 949.357 270.748 949.375C270.712 949.464 270.695 949.553 270.677 949.641C270.588 949.482 270.5 949.34 270.393 949.198C270.305 949.038 270.216 948.897 270.11 948.755C270.039 948.631 269.95 948.524 269.862 948.4C269.738 948.223 269.614 948.063 269.49 947.904C269.029 945.315 268.657 942.726 268.32 940.12C268.214 939.251 268.107 938.383 268.001 937.514C267.912 936.663 267.824 935.794 267.735 934.925C267.558 933.063 267.398 931.202 267.274 929.322C267.221 928.56 267.168 927.78 267.115 927.017C267.115 926.946 267.115 926.893 267.097 926.822C267.062 926.06 267.009 925.315 266.973 924.553C266.92 923.578 266.884 922.585 266.849 921.592C266.814 920.759 266.778 919.925 266.76 919.092C266.725 918.365 266.707 917.638 266.69 916.911C266.636 914.961 266.601 913.01 266.583 911.06C266.566 910.227 266.566 909.393 266.566 908.56C266.566 907.691 266.548 906.805 266.548 905.936C266.193 892.638 265.75 879.341 265.396 866.06C265.059 854.412 264.722 842.798 264.598 831.185C264.51 823.454 264.492 815.724 264.616 807.976C264.616 807.799 264.616 807.621 264.616 807.444C264.652 805.636 264.687 803.827 264.723 802.001C264.776 799.944 264.829 797.905 264.9 795.848C264.935 794.802 264.971 793.774 265.024 792.746C265.29 786.54 265.697 780.334 266.193 774.164C266.282 773.136 266.371 772.108 266.459 771.062C266.636 769.005 266.831 766.948 267.026 764.891C267.434 760.778 267.877 756.664 268.355 752.551C268.586 750.494 268.834 748.438 269.082 746.381C269.578 742.285 270.11 738.172 270.659 734.076C270.943 732.019 271.209 729.98 271.492 727.924C271.634 726.895 271.776 725.867 271.918 724.838C272.343 721.771 272.768 718.686 273.211 715.619C273.353 714.59 273.495 713.562 273.637 712.534C273.92 710.477 274.221 708.438 274.505 706.381C274.93 703.314 275.356 700.229 275.781 697.144C283.065 642.907 294.389 589.361 303.622 535.461C307.007 514.61 308.814 493.405 308.424 472.252C308.371 469.451 308.283 466.632 308.159 463.831C308.123 462.891 308.07 461.951 308.017 461.011C307.946 459.611 307.857 458.21 307.751 456.809C307.662 455.409 307.538 454.008 307.432 452.607C307.361 451.792 307.29 450.976 307.219 450.161C306.688 444.451 305.961 438.742 305.075 433.068C304.685 430.551 304.278 428.033 303.852 425.533C301.974 414.682 299.634 403.902 296.905 393.211C295.576 386.119 292.032 379.807 288.913 373.388C288.86 373.175 288.735 372.927 288.665 372.697C288.647 372.626 288.629 372.555 288.594 372.502C288.558 372.36 288.558 372.236 288.594 372.129C288.611 372.076 288.647 372.023 288.7 371.97C288.718 371.952 288.735 371.934 288.771 371.917C288.789 371.881 288.824 371.881 288.86 371.863C288.895 371.846 288.93 371.828 288.948 371.81C288.966 371.81 288.948 371.775 288.948 371.775C288.576 371.721 288.363 371.721 288.062 371.97C285.28 379.877 286.29 388.76 287.601 396.952C287.832 398.53 288.044 400.09 288.275 401.65C288.275 401.65 288.275 401.65 288.275 401.668C288.611 404.008 288.913 406.313 289.232 408.636C289.533 410.959 289.834 413.281 290.118 415.622C290.118 415.657 290.136 415.675 290.136 415.71C290.011 415.515 289.887 415.32 289.763 415.125C289.604 414.859 289.409 414.576 289.232 414.31C288.877 413.778 288.505 413.228 288.133 412.714C287.991 412.519 287.849 412.324 287.708 412.129C287.07 411.278 286.396 410.445 285.705 409.629C285.51 409.399 285.298 409.168 285.103 408.938C284.908 408.707 284.695 408.494 284.482 408.264C284.429 408.211 284.394 408.157 284.34 408.104C284.163 407.909 283.968 407.714 283.791 407.519C282.816 406.437 281.824 405.374 280.832 404.31C279.839 403.246 278.829 402.182 277.819 401.136C276.809 400.09 275.799 399.062 274.753 398.033C273.725 397.005 272.68 395.994 271.634 394.984C270.588 393.991 269.507 392.998 268.444 392.005C266.831 390.533 265.183 389.097 263.517 387.697C262.401 386.757 261.284 385.835 260.133 384.948C259.565 384.505 258.981 384.044 258.413 383.601C248.684 375.906 238.565 368.707 228.534 361.402C226.532 359.949 224.529 358.477 222.527 357.005C218.539 354.044 214.587 351.066 210.689 347.981C209.395 346.952 208.101 345.924 206.807 344.878C205.532 343.832 204.256 342.786 202.98 341.722C200.445 339.594 197.947 337.413 195.501 335.179C194.863 334.576 194.225 333.974 193.605 333.371C192.967 332.75 192.347 332.13 191.726 331.509C172.994 312.591 157.257 285.907 150.931 260.499C150.328 258.035 149.796 255.552 149.318 253.052C148.999 251.404 148.715 249.737 148.467 248.07C148.095 245.57 147.758 243.07 147.493 240.553C146.217 228.514 146.234 216.333 147.014 204.223C147.014 204.134 147.032 204.046 147.032 203.957C147.209 201.298 147.422 198.638 147.67 195.979C147.918 193.284 148.201 190.589 148.503 187.894C150.913 167.823 154.493 147.894 159.526 128.32C160.607 124.171 161.741 120.04 162.911 115.909C163.3 114.526 163.69 113.16 164.062 111.777C164.435 110.394 164.825 109.029 165.197 107.646C165.959 104.898 166.685 102.132 167.394 99.366C167.749 97.983 168.085 96.6001 168.422 95.1994C170.903 84.313 173.03 73.3558 176.468 62.7176C176.61 62.2566 176.751 61.7778 176.911 61.299C177.212 60.3416 177.513 59.3842 177.832 58.4267C177.992 57.948 178.151 57.4694 178.293 57.0085C178.364 56.7957 178.435 56.6005 178.506 56.37C178.577 56.2104 178.63 56.0688 178.683 55.9092C178.718 55.8205 178.754 55.7141 178.789 55.6254C178.896 55.3417 179.002 55.0581 179.091 54.7744C179.215 54.8808 179.321 54.9871 179.445 55.0934C179.569 55.1998 179.693 55.3063 179.835 55.4127C179.959 55.5191 180.101 55.6253 180.242 55.7317C180.526 55.9622 180.827 56.175 181.129 56.3877C181.288 56.4941 181.448 56.6006 181.607 56.707C182.103 57.0261 182.617 57.3631 183.184 57.6822C183.539 57.8772 183.893 58.0899 184.265 58.285C184.691 58.5155 185.116 58.7282 185.559 58.9587C185.967 59.1715 186.392 59.3665 186.835 59.5793C187.065 59.6856 187.296 59.7921 187.526 59.8985C187.969 60.1113 188.43 60.3063 188.891 60.519C192.152 61.9552 195.785 63.3027 199.382 64.5261C200.924 65.058 202.448 65.5367 203.937 66.0154C204.326 66.1395 204.734 66.2635 205.106 66.3876C205.461 66.494 205.797 66.6005 206.116 66.6891C206.595 66.831 207.073 66.9728 207.534 67.1146C207.552 67.1146 207.57 67.1324 207.605 67.1324C208.42 67.3806 209.2 67.5934 209.962 67.8062C210.334 67.9125 210.689 68.019 211.043 68.1076C211.397 68.1963 211.752 68.3025 212.089 68.3912C212.284 68.4444 212.478 68.4977 212.673 68.5509C212.939 68.6218 213.205 68.6927 213.453 68.7637C213.754 68.8523 214.056 68.9232 214.339 68.9942C215.048 69.1715 215.704 69.3486 216.271 69.4727C216.395 69.5082 216.501 69.526 216.608 69.5614C216.732 69.5969 216.873 69.6324 216.998 69.6502C217.122 69.6856 217.246 69.721 217.352 69.7387C217.565 69.7919 217.76 69.8275 217.937 69.8629C217.955 69.8629 217.972 69.8629 217.972 69.8629C218.061 69.8807 218.167 69.8982 218.238 69.916C219.674 70.2706 221.109 70.6253 222.562 70.9622C224.015 71.2991 225.469 71.6181 226.904 71.9372C227.879 72.15 228.836 72.3452 229.81 72.5402C233.443 73.2672 237.094 73.9409 240.763 74.526C241.985 74.721 243.208 74.8983 244.431 75.0933C246.398 75.377 248.348 75.6606 250.315 75.9088C251.289 76.0329 252.282 76.1572 253.256 76.2813C256.198 76.6359 259.158 76.9372 262.117 77.2208C264.084 77.4159 266.069 77.5755 268.036 77.7351C271.988 78.0542 275.94 78.3026 279.91 78.4976C281.895 78.604 283.862 78.6924 285.847 78.7634C288.824 78.8875 291.801 78.9762 294.761 79.0471C296.746 79.1003 298.713 79.1359 300.698 79.1713C304.65 79.2245 308.619 79.2599 312.571 79.2599C335.574 79.3308 358.648 78.5331 381.722 77.4161C388.297 77.0969 394.889 76.7422 401.464 76.4053C402.315 76.3521 403.165 76.3167 404.034 76.2636C405.77 76.1749 407.507 76.0685 409.244 75.9798C409.953 75.9443 410.662 75.909 411.371 75.8558C413.355 75.7494 415.323 75.6429 417.29 75.5188C421.366 75.2883 425.459 75.0578 429.535 74.8273C431.999 74.7032 434.462 74.5614 436.925 74.4195C443.536 74.1181 450.146 73.8167 456.756 73.4975C463.366 73.1784 469.977 72.8594 476.587 72.5225C483.197 72.1856 489.807 71.8486 496.418 71.4762C516.248 70.3947 536.079 69.1713 555.874 67.7352C562.467 67.2564 569.077 66.76 575.67 66.2104C582.262 65.6607 588.872 65.1112 595.447 64.5261C595.731 64.4729 596.014 64.4373 596.298 64.4019C596.298 64.4019 596.316 64.4019 596.333 64.4019C596.581 64.3664 596.865 64.3311 597.131 64.3133C597.326 64.2956 597.538 64.2778 597.751 64.2601C598.07 64.2246 598.371 64.2068 598.69 64.1891C598.903 64.1714 599.133 64.1536 599.346 64.1359C599.559 64.1181 599.789 64.1006 600.037 64.0828C600.285 64.0651 600.516 64.0473 600.764 64.0296C600.923 64.0119 601.1 63.9941 601.26 63.9763C601.419 63.9586 601.597 63.9408 601.774 63.9231C601.916 63.9231 602.057 63.8878 602.199 63.8701C602.394 63.8523 602.589 63.8168 602.802 63.7991C602.855 63.7991 602.926 63.7813 602.979 63.7813C602.979 64.1359 602.979 64.4728 602.997 64.8274C602.997 65.1465 603.032 65.448 603.068 65.7671C603.103 66.2104 603.156 66.6714 603.227 67.1324C603.262 67.3452 603.298 67.5757 603.333 67.8062C603.564 69.2246 603.847 70.6608 604.024 72.0437C604.078 72.4161 604.113 72.7884 604.131 73.1607C604.184 73.6749 604.255 74.1891 604.343 74.7033C604.467 75.4657 604.627 76.2279 604.822 76.9903C605.017 77.7527 605.23 78.4974 605.46 79.2421C605.69 79.9868 605.938 80.7315 606.204 81.4584C606.647 82.6818 607.126 83.8876 607.622 85.0932C608.313 86.8308 608.916 88.6214 609.731 90.3058C610.085 91.0505 610.493 91.7598 610.971 92.4336C611.202 92.7705 611.468 93.1072 611.734 93.4086C611.875 93.5682 612.017 93.7278 612.159 93.8696C612.283 94.0469 612.425 94.2065 612.584 94.3484C612.655 94.4193 612.744 94.508 612.815 94.5611C612.885 94.6143 612.974 94.703 613.045 94.7562C613.293 94.9512 613.541 95.1108 613.789 95.2527C614.055 95.3945 614.321 95.5185 614.587 95.6072C615.136 95.8022 615.703 95.8909 616.27 95.8909C616.412 95.8909 616.554 95.8909 616.696 95.8732C616.944 95.8554 617.21 95.8201 617.458 95.7492C617.546 95.7314 617.653 95.7136 617.741 95.6782C617.83 95.6604 617.936 95.6251 618.025 95.5896C618.113 95.5542 618.202 95.5186 618.273 95.5009C618.291 95.5009 618.291 95.5009 618.308 95.4832C618.397 95.4477 618.468 95.4123 618.556 95.3591C618.556 95.3591 618.556 95.3591 618.574 95.3591C619.726 95.6251 620.878 95.891 622.03 96.1747C628.817 97.7704 635.587 99.4902 642.339 101.281C643.757 101.653 645.175 102.043 646.592 102.416C648.17 102.841 649.765 103.267 651.342 103.71C652.919 104.153 654.514 104.597 656.091 105.04C657.491 105.43 658.873 105.838 660.256 106.228C662.028 106.742 663.8 107.256 665.572 107.77C666.689 108.09 667.805 108.426 668.922 108.745C669.826 109.011 670.729 109.277 671.633 109.561C672.767 109.898 673.884 110.235 675.018 110.572C676.595 111.05 678.155 111.529 679.732 112.008C681.044 112.398 682.337 112.806 683.649 113.213C684.021 113.32 684.411 113.444 684.783 113.568C686.236 114.029 687.707 114.472 689.16 114.933C703.409 119.384 717.586 123.994 731.657 128.834C733.819 129.579 735.981 130.341 738.143 131.086C740.305 131.848 742.45 132.61 744.612 133.391C747.837 134.543 751.062 135.731 754.288 136.919C757.513 138.125 760.721 139.33 763.946 140.554C765.027 140.962 766.091 141.369 767.172 141.795C769.316 142.61 771.443 143.461 773.569 144.295C775.696 145.146 777.84 145.997 779.967 146.866C784.22 148.603 788.473 150.376 792.709 152.185C794.445 152.929 796.182 153.674 797.901 154.436C800.808 155.713 803.696 157.007 806.585 158.337C817.395 163.266 828.064 168.497 838.608 173.993C841.94 175.731 845.272 177.486 848.586 179.277C851.9 181.067 855.196 182.876 858.492 184.684C863.436 187.433 868.346 190.216 873.237 193.035C874.424 193.727 875.612 194.401 876.799 195.092C878.181 195.89 879.546 196.67 880.91 197.468C883.285 198.833 885.642 200.216 888.017 201.599C890.586 203.088 893.138 204.596 895.69 206.103C898.721 207.893 901.751 209.684 904.764 211.493C924.045 223.035 943.061 235.003 961.509 247.84C984.388 263.85 1006.81 281.811 1027.15 301.102C1032.73 306.332 1038.3 311.616 1043.72 317.023C1044.91 318.371 1046.18 319.683 1047.51 320.853C1047.76 321.066 1048.01 321.279 1048.26 321.491C1048.77 321.899 1049.3 322.307 1049.83 322.697C1050.15 322.928 1050.49 323.14 1050.81 323.353C1050.99 323.46 1051.16 323.566 1051.34 323.69C1051.62 324.257 1051.91 324.842 1052.19 325.428C1052.35 325.764 1052.51 326.101 1052.67 326.438C1052.83 326.775 1052.99 327.112 1053.15 327.449C1053.54 328.353 1053.95 329.275 1054.35 330.215C1054.46 330.445 1054.57 330.694 1054.67 330.924C1054.99 331.633 1055.31 332.36 1055.63 333.087C1055.84 333.566 1056.06 334.062 1056.27 334.559C1056.5 335.055 1056.71 335.552 1056.92 336.048Z" fill="white"/>
</g>
</svg>
