<svg width="1090" height="1580" viewBox="0 0 1090 1580" fill="none" xmlns="http://www.w3.org/2000/svg">
<g id="Legs / Sitting 2">
<g id="Outline">
<path d="M1072.08 305.765C1064.61 296.102 1058.52 285.233 1050.65 275.765C1039.02 261.474 1025.06 249.347 1011.41 237.042C972.798 202.45 926.491 177.521 878.695 158.106C842.206 142.557 803.75 131.617 765.311 122.344C732.154 114.366 698.092 109.614 664.19 107.008C651.643 105.962 639.025 104.986 626.443 105.802C624.104 106.352 620.985 104.721 621.8 101.972C622.863 98.1426 631.689 99.029 634.967 98.4793C649.783 97.7878 664.598 98.9403 679.396 99.8091C739.331 103.586 797.884 119.029 854.753 137.663C892.713 151.263 930.159 167.043 964.38 188.549C994.472 206.51 1021.05 229.737 1045.72 254.347C1059.56 266.971 1070.64 282.059 1080.69 297.804C1083.98 304.399 1079.47 311.421 1072.08 305.765Z" fill="black"/>
<path d="M926.739 909.056C922.716 908.205 920.926 903.826 922.167 900.12C923.088 895.652 924.329 891.273 925.499 886.894C928.653 874.394 932.605 862.124 936.433 849.802C948.271 805.458 964.859 762.675 979.922 719.395C998.318 670.867 1013.04 621.151 1028.04 571.489C1042.41 526.188 1054.92 480.302 1064.12 433.653C1069.38 405.941 1075.37 378.228 1078.23 350.144C1077.78 336.988 1077.91 323.619 1074.98 310.729C1074.47 307.697 1072.25 304.807 1073.4 301.793C1074.59 299.222 1078.19 298.726 1080.35 300.321C1086.73 306.492 1087.87 316.314 1088.65 324.754C1089.21 332.591 1089.48 340.427 1089.67 348.282C1089.89 355.959 1088.13 363.495 1087.12 371.065C1083.17 397.005 1078.12 422.802 1072.78 448.494C1062.83 498.068 1048.35 546.383 1032.84 594.414C1021.11 632.198 1010.01 670.194 995.783 707.126C980.614 748.739 964.77 790.246 952.684 832.869C947.704 852.639 941.324 872.053 936.628 891.911C934.377 898.223 936.132 910.173 926.739 909.056Z" fill="black"/>
<path d="M862.427 909.5C825.176 903.702 790.423 887.035 759.268 866.273C755.617 863.56 753.384 862.337 750.921 859.234C746.048 851.699 755.228 842.763 762.653 847.869C764.354 849.216 765.772 850.883 767.58 852.142C811.672 887.248 863.49 904.624 919.757 898.986C923.089 898.844 926.261 897.478 929.522 897.283C931.666 897.496 933.544 899.535 933.225 901.751C932.8 904.854 929.717 906.361 927.129 907.461C917.046 911.485 905.898 911.964 895.141 912.071C884.189 912.035 873.273 911.237 862.427 909.5Z" fill="black"/>
<path d="M751.984 853.596C748.599 850.972 751.116 846.202 751.4 842.692C753.633 831.823 756.415 821.078 758.453 810.174C760.969 790.458 763.22 770.707 767.562 751.274C772.737 725.565 777.025 699.697 780.109 673.651C785.78 626.772 790.139 579.645 800.347 533.457C808.233 488.032 818.37 442.253 840.044 401.207C848.71 382.945 860.867 366.03 877.331 354.062C877.862 353.672 878.465 353.158 879.032 353.051C878.82 353.388 878.731 353.831 878.607 354.186C873.308 372.679 865.776 390.498 856.419 407.306C845.91 426.65 838.183 447.66 832.158 468.742C824.396 493.936 820.727 520.071 815.358 545.815C810.626 566.418 807.755 587.34 805.185 608.315C799.337 658.101 794.818 708.119 784.149 757.178C780.516 773.153 778.142 789.394 775.253 805.511C773.002 817.834 767.792 829.359 763.096 840.901C760.562 845.44 757.992 857.177 751.984 853.596Z" fill="black"/>
<path d="M772.205 715.69C761.625 692.339 758.825 666.754 756.202 641.541C753.491 615.566 750.726 589.609 747.891 563.652C742.751 518.564 732.721 474.185 723.647 429.77C716.789 388.618 703.887 348.778 688.664 310.002C679.201 284.24 660.114 264.151 640.443 245.694C606.488 213.106 567.536 185.34 525.003 165.11C502.107 154.933 479.405 144.17 455.587 136.28C425.637 126.759 396.29 119.543 365.312 115.554C341.281 112.256 317.091 113.444 293.166 114.029C285.936 113.922 279.662 114.632 272.733 113.533C270.181 113.107 267.718 112.238 265.166 111.901C265.113 111.919 265.024 111.919 264.989 111.972C264.953 111.99 264.935 112.114 264.882 112.061C264.847 111.263 266.105 110.962 266.654 110.625C275.055 106.157 284.802 107.043 293.981 106.334C319.731 104.508 345.623 103.036 371.32 106.405C408.11 110.962 444.546 119.419 479.458 131.883C509.833 143.709 540.031 156.404 568.333 172.681C596.139 189.01 622.225 208.336 645.831 230.304C660.859 244.95 676.578 259.205 688.345 276.704C693.272 283.974 696.125 292.431 699.9 300.321C716.736 342.431 730.062 385.976 737.594 430.728C745.268 469.167 753.367 507.553 759.126 546.347C762.6 572.287 765.151 598.368 768.572 624.325C772.028 654.591 778.018 685.424 772.205 715.69Z" fill="black"/>
<path d="M492.253 428.937C467.992 425.568 443.625 419.717 419.966 415.533C406.48 413.122 392.781 412.962 379.17 411.898C351.329 409.168 323.524 405.763 296.25 399.451C243.723 388.725 183.592 359.682 155.805 311.935C142.301 287.272 135.354 259.205 133.386 231.262C130.941 210.429 131.809 189.471 135.442 168.833C140.422 131.741 150.045 94.5433 165.339 60.4479C167.838 55.0933 170.461 49.7387 173.526 44.6856C174.926 42.1147 176.716 39.6148 179.481 38.3914C180.491 37.895 181.661 37.4693 182.813 37.5402C182.866 37.8239 182.742 38.1608 182.76 38.4977C182.901 42.9303 180.846 46.7246 178.878 50.5367C173.402 62.5756 169.202 75.0931 165.25 87.4511C154.635 121.458 149.46 156.936 146.111 192.326C145.349 205.482 146.784 218.567 148.202 231.634C151.197 261.492 160.324 291.456 179.126 315.179C199.826 341.261 230.112 358.016 260.47 370.321C279.786 377.856 300.255 381.81 320.511 385.923C348.937 390.693 377.593 393.813 406.373 395.214C419.027 396.278 431.432 399.044 443.891 401.384C453.886 403.299 464.217 404.469 473.557 408.795C485.324 413.955 496.099 421.384 505.297 430.338C501.008 430.001 496.577 429.469 492.253 428.937Z" fill="black"/>
<path d="M615.704 889.837C604.309 887.177 600.197 875.386 597.858 865.191C594.242 852.638 590.45 840.156 586.445 827.727C578.045 801.025 570.247 774.093 564.222 746.753C558.391 723.508 552.242 700.37 546.128 677.197C540.102 656.275 533.9 635.974 529.948 614.644C518.535 550.567 513.679 485.745 496.259 422.997C494.557 415.799 482.843 382.962 494.717 384.789C498.048 385.87 498.58 389.824 500.104 392.537C504.623 401.721 509.408 410.799 512.882 420.462C520.608 442.128 524.755 464.859 528.601 487.465C535.938 528.936 539.553 570.177 547.173 611.382C551.125 632.711 557.47 653.456 563.407 674.059C570.956 701.7 578.24 729.111 584.744 756.983C591.513 785.192 599.914 812.089 608.828 839.554C611.787 849.146 614.64 858.773 618.326 868.117C621.605 874.535 623.927 882.425 621.197 889.429C620.896 890.103 620.79 890.156 620.081 890.262C619.744 890.315 619.407 890.333 619.053 890.333C617.919 890.333 616.767 890.103 615.704 889.837Z" fill="black"/>
<path d="M745.658 956.627C742.078 953.754 742.805 948.134 744.718 944.482C748.954 936.326 752.888 927.975 756.184 919.393C762.671 902.443 764.656 883.72 772.453 867.319C776.653 862.461 780.286 866.38 779.861 871.592C778.159 891.308 775.643 911.291 768.2 929.766C765.134 937.39 761.076 944.535 756.752 951.485C754.625 955.031 749.84 958.577 745.658 956.627Z" fill="black"/>
<path d="M908.876 1007.02C886.298 989.41 884.774 937.833 888.602 911.326C889.045 909.234 889.417 906.822 891.544 905.776C893.546 904.766 895.921 906.166 896.435 908.259C896.754 909.411 896.541 910.581 896.559 911.716C896.612 930.918 898.101 948.932 902.301 967.159C904.268 975.084 907.653 983.914 908.344 991.786C908.893 996.821 909.017 1002.02 908.876 1007.02Z" fill="black"/>
<path d="M664.332 902.177C648.702 901.166 631.582 901.415 617.759 893.135C615.473 891.415 612.886 889.128 612.726 886.078C612.762 883.808 614.711 881.574 617.157 882C619.602 882.656 622.03 883.472 624.547 883.879C669.773 888.862 716.647 885.812 759.676 870.316C768.448 863.951 779.435 875.333 772.825 883.986C770.167 887.585 765.63 888.808 761.465 889.748C755.139 891.237 748.848 892.762 742.521 894.305C717.001 900.901 690.614 902.532 664.332 902.177Z" fill="black"/>
<path d="M745.977 398.636C739.295 397.998 721.166 398.902 722.407 388.902C723.434 383.973 728.999 383.725 733.093 383.423C736.637 383.086 740.199 382.803 743.744 382.466C765.205 380.321 786.772 380.533 808.269 379.097C819.699 378.388 831.148 377.696 842.56 376.775C847.15 376.757 852.166 375.037 856.206 378.051C860.052 380.604 861.328 385.87 859.272 389.948C857.163 394.345 852.308 395.657 847.806 395.551C843.535 396.296 839.229 396.136 834.922 396.207C805.274 397.2 775.643 399.115 745.977 398.636Z" fill="black"/>
<path d="M644.431 102.008C631.813 86.4229 624.192 53.533 632.929 35.3239C636.934 43.1607 639.841 51.8664 640.833 60.6429C641.577 67.4868 642.375 74.3484 644.147 81.015C645.955 88.1958 648.95 94.9511 653.097 101.068C654.107 103.196 652.654 105.908 650.173 105.873C647.745 105.855 645.901 103.71 644.431 102.008Z" fill="black"/>
<path d="M468.843 74.0116C434.728 73.1783 400.578 73.1783 366.535 70.4656C332.881 68.3911 299.085 66.9196 265.822 61.0154C244.626 57.1679 223.573 52.6287 202.377 48.8522C197.734 48.0189 193.038 47.221 188.484 45.9621C185.099 44.8451 181.164 44.1006 178.79 41.246C177.655 39.739 178.028 37.3099 179.445 36.1219C181.749 34.1716 184.673 35.6964 187.243 36.1574C189.582 36.6893 191.975 37.1326 194.349 37.505C210.778 39.6326 227.135 42.2566 243.403 45.4126C294.655 55.7671 346.793 58.0543 398.877 60.2706C446.301 60.8025 494.132 63.657 541.166 58.1606C570.779 54.4018 598 40.448 627.134 34.8984C634.914 35.2353 636.988 42.7884 630.236 47.2919C628.906 48.2139 627.329 48.5864 625.805 49.0119C615.615 51.831 605.549 55.1112 595.554 58.5686C582.688 63.0544 569.645 67.1677 556.265 69.8273C527.378 74.579 497.907 74.6322 468.843 74.0116Z" fill="black"/>
<path d="M670.411 1049.55C668.089 1046.22 668.001 1041.7 668.391 1037.76C668.834 1030.79 672.697 1024.94 676.33 1019.21C689.781 996.467 701.583 972.389 719.819 952.921C725.969 945.953 738.48 935.829 746.845 944.854C749.556 948.436 748.21 953.223 745.87 956.609C744.134 959.783 740.04 962.602 737.842 958.258C724.888 972.921 713.847 989.251 704.348 1006.34C699.599 1014.59 694.902 1022.88 690.171 1031.13C685.971 1039.34 679.396 1046.8 670.411 1049.55Z" fill="black"/>
<path d="M964.416 1072.73C954.474 1062.96 943.398 1055.1 934.891 1044.07C928.352 1036.06 923.514 1026.86 917.063 1018.81C914.316 1015.7 910.045 1014.62 906.111 1013.9C903.098 1014.11 900.458 1015.99 897.941 1017.51C888.761 1023.49 883.321 1033.06 876.959 1041.64C865.528 1058.47 843.039 1066.84 823.704 1059.64C797.263 1049.04 784.823 1017.81 770.929 994.96C765.861 986.52 761.306 977.62 754.82 970.137C750.194 965.067 743.779 961.964 739.384 956.68C737.612 954.464 738.02 951.272 740.323 949.677C743.513 947.726 747.022 950.297 750.194 951.077C760.26 954.074 768.359 961.13 774.066 969.783C781.349 980.332 787.995 991.325 795.137 1001.96C807.117 1020.67 821.702 1055.92 849.578 1042.64C858.563 1037.74 863.561 1028.82 869.143 1020.74C876.25 1010.62 885.483 1001.31 897.073 996.52C908.698 991.999 923.602 997.673 931.506 1006.8C939.641 1016.41 943.522 1028.65 948.182 1040.15C952.223 1051.91 957.752 1062.53 964.416 1072.73Z" fill="black"/>
<path d="M1040.78 1259.6C1035.57 1257.3 1035.98 1251.04 1039.54 1247.44C1043.24 1241.82 1047.89 1236.84 1051.22 1230.99C1054.99 1223.08 1056.87 1214.34 1057.69 1205.65C1058.16 1189.75 1046.89 1165.6 1037.2 1153.06C1022.35 1134.34 1005.11 1117.53 986.976 1102.05C971.558 1088.08 957.451 1072.6 946.003 1055.17C943.823 1051.54 942.157 1046.95 943.167 1042.74C943.274 1042.62 943.469 1042.74 943.469 1042.88C951.001 1047.94 955.715 1055.69 961.616 1062.39C967.287 1068.91 973.082 1075.3 979.462 1081.15C990.591 1091.77 1003.01 1100.81 1014.82 1110.63C1025.77 1121.29 1037.06 1131.7 1046.31 1143.91C1058.04 1158.36 1069.1 1182.32 1070.62 1200.9C1070.39 1210.77 1067.22 1220.35 1064.81 1229.83C1062.28 1239.12 1055.58 1246.23 1050.79 1254.37C1049.07 1258.18 1045.09 1261.46 1040.78 1259.6Z" fill="black"/>
<path d="M1042.92 1257.86C1025.49 1255.38 1008.33 1251.13 991.725 1245.19C968.439 1236.29 946.127 1224.55 925.109 1211.16C912.438 1203.01 900.919 1193.26 888.496 1184.73C876.976 1176.23 864.713 1168.89 852.733 1161.08C841.391 1153.89 830.439 1146.04 818.548 1139.8C792.124 1127.14 763.45 1119.92 737.24 1106.77C711.614 1094.16 680.087 1072.92 668.851 1045.79C667.841 1043.31 668.904 1039.53 672.148 1039.87C674.327 1040.08 675.674 1042.34 676.791 1043.97C679.094 1047.34 681.664 1050.49 684.34 1053.58C706.333 1078.75 736.23 1095.56 767.473 1106.39C793.17 1115.76 819.575 1123.36 842.33 1138.89C863.49 1152.44 884.845 1165.69 904.764 1181.02C912.615 1186.8 920.129 1193.03 928.175 1198.47C942.193 1207.94 958.107 1216.78 972.745 1224.53C987.844 1232.4 1005.14 1238.15 1021.39 1241.38C1029.6 1243.4 1038.21 1243.26 1046.38 1245.21C1053.4 1248.06 1050.7 1258.93 1042.92 1257.86Z" fill="black"/>
<path d="M1031.51 1278.27C1020.03 1278.25 1009 1275.12 998.034 1272.08C986.178 1268.72 974.854 1264.89 964.132 1259.89C951.496 1252.92 939.623 1244.57 927.306 1237.05C915.185 1229.71 903.027 1222.44 890.977 1214.96C881.46 1209.35 872.245 1203.26 863.153 1196.98C855.48 1191.8 847.452 1187.23 839.424 1182.6C827.302 1175.63 815.375 1167.87 802.881 1161.64C782.714 1150.77 760.402 1145.28 739.242 1136.84C722.07 1128.75 704.685 1119.8 690.879 1106.55C677.145 1093.68 665.254 1078.2 658.041 1060.74C657.58 1058.97 658.909 1056.95 660.823 1056.98C662.206 1057.05 663.074 1057.73 663.659 1058.82C666.104 1063.49 669.206 1067.78 672.059 1072.19C681.274 1085.49 692.262 1097.78 705.34 1107.37C720.758 1117.44 737.647 1126.09 755.032 1132.07C764.212 1135.37 773.623 1137.9 782.82 1141.13C796.36 1145.84 809.314 1152.09 821.968 1158.82C841.019 1169.69 861.239 1181.06 878.802 1193.81C901.22 1209.02 924.754 1222.44 947.81 1236.61C963.813 1247.24 981.464 1255.38 999.966 1259.85C1009.96 1262.28 1019.94 1264.96 1030.23 1265.61C1032.84 1265.6 1035.57 1266 1037.59 1267.78C1043.3 1272.28 1037.55 1278.88 1031.51 1278.27Z" fill="black"/>
<path d="M1029.92 1274.92C1026.5 1271.78 1030.25 1267.33 1031.6 1264.04C1032.59 1261.96 1033.66 1259.94 1034.77 1257.94C1038.58 1249.9 1046.31 1245.12 1052.64 1239.64C1051.57 1247.19 1050.85 1255.01 1046.52 1261.55C1043.42 1265.54 1035.89 1279.44 1029.92 1274.92Z" fill="black"/>
<path d="M660.185 1065.35C657.846 1061.06 659.689 1055.79 660.947 1051.41C665.449 1037.81 676.046 1027.64 683.578 1015.78C681.398 1026.68 680.565 1038.12 676.737 1048.72C675.072 1053.4 671.917 1057.28 669.826 1061.77C668.195 1066.11 664.013 1070.08 660.185 1065.35Z" fill="black"/>
<path d="M703.568 954.446C694.867 941.68 693.804 925.971 691.872 911.113C691.198 905.404 688.717 899.092 692.386 893.897C692.74 893.347 693.077 892.851 693.768 892.798C693.821 892.904 693.68 893.117 693.857 893.206C695.806 894.358 697.809 895.564 699.138 897.443C703.444 904.464 705.252 912.726 706.865 920.723C709.576 931.964 707.503 943.808 703.568 954.446Z" fill="black"/>
<path d="M697.596 985.988C695.221 983.967 694.885 980.474 694.087 977.62C692.687 971.857 692.581 965.935 692.368 960.049C692.35 951.999 691.783 936.609 701.637 934.269C705.748 933.56 709.452 935.811 712.394 938.436C716.824 941.964 721.166 945.687 726.164 948.382C734.28 954.233 727.404 967.088 718.029 963.577C713.085 961.095 708.637 957.496 704.667 953.63C703.852 962.602 701.849 971.591 702.399 980.616C702.452 981.343 702.629 981.999 702.842 982.708C703.444 985.563 699.847 987.744 697.596 985.988Z" fill="black"/>
<path d="M1073.42 1147.95C1069.93 1147.51 1068.44 1143.82 1069.26 1140.7C1069.15 1136 1069.98 1131.48 1070.98 1126.93C1070.92 1127.19 1070.89 1127.35 1070.84 1127.58C1072.45 1119.48 1072.57 1111.18 1072.7 1102.99C1072.94 1095.61 1073.09 1088.08 1070.37 1081.06C1062.26 1058.04 1040.19 1045.05 1018.57 1036.79C1001.51 1030.72 984.636 1025.07 969.041 1015.79C949.831 1007.05 932.41 995.172 915.645 982.46C909.106 978.027 903.4 972.726 897.906 967.176C895.691 964.676 890.197 960.758 894.326 957.655C896.63 956.361 898.827 958.417 900.582 959.729C906.536 964.038 912.013 968.949 918.02 973.187C935.37 984.853 952.294 997.371 971.327 1005.92C978.877 1009.8 986.143 1014.23 994.153 1017.12C1004.59 1021.34 1015.44 1024.18 1025.86 1028.43C1051.91 1039.64 1079.93 1059.13 1083.63 1089.43C1084.27 1097.37 1083.61 1105.4 1083.06 1113.33C1082.64 1120.15 1081.95 1127.44 1079.86 1133.86C1078.54 1138.89 1081.38 1148.36 1073.42 1147.95Z" fill="black"/>
<path d="M1048.2 1153.97C1042.91 1153.47 1041.26 1146.54 1046.4 1144.28C1054.8 1143.36 1063.5 1142.87 1071.58 1139.92C1073.74 1139.11 1076.31 1140.26 1076.95 1142.53C1077.8 1145.45 1075.09 1147.65 1073.07 1149.28C1065.87 1154.32 1056.64 1154.3 1048.2 1153.97Z" fill="black"/>
<path d="M1036.51 1136.27C1034.15 1136.09 1031.67 1136.27 1029.42 1135.49C1026.76 1134.39 1025.57 1130.93 1027.45 1128.61C1029.93 1125.51 1033.96 1127.62 1037.23 1127.64C1045.14 1128.19 1053.13 1127.25 1060.75 1125.05C1064.85 1123.82 1068.8 1122.23 1072.8 1120.76C1074.77 1119.82 1077.59 1120.47 1078.12 1122.81C1078.77 1125.65 1075.94 1127.07 1073.88 1128.22C1062.84 1135.22 1049.25 1135.97 1036.51 1136.27Z" fill="black"/>
<path d="M904.853 1085.37C904.622 1085.24 904.587 1084.94 904.587 1084.71C904.977 1080.92 907.334 1077.62 909.46 1074.59C921.795 1058.93 950.947 1047.28 970.388 1053.4C973.277 1054.43 976.502 1055.67 978.753 1057.6C975.634 1056.06 972.143 1055.56 968.74 1054.96C960.872 1054.09 953.287 1056.41 945.95 1058.95C934.094 1062.99 923.673 1070.01 913.607 1077.32C910.701 1079.57 907.405 1081.55 905.119 1084.46C904.977 1084.71 904.817 1084.96 904.835 1085.19C904.835 1085.24 904.853 1085.28 904.888 1085.33C904.888 1085.37 904.87 1085.38 904.853 1085.37Z" fill="black"/>
<path d="M931.241 1107.76C928.458 1105.42 936.858 1095.15 939.021 1093.27C950.54 1081.91 967.092 1077.65 982.918 1078.7C985.097 1078.77 987.561 1078.74 989.545 1079.34C986.196 1079.55 982.953 1080.54 979.674 1081.24C966.72 1083.58 954.439 1088.4 943.681 1095.99C940.81 1098.04 930.266 1104.46 931.241 1107.76Z" fill="black"/>
<path d="M957.221 1127.3C962.041 1106.18 992.664 1096.61 1012 1097.07C1013.59 1097.16 1015.37 1097.42 1016.75 1097.94C1014.14 1097.9 1011.34 1098.5 1008.92 1099.14C994.915 1103.01 965.036 1115.35 957.221 1127.3Z" fill="black"/>
<path d="M779.045 729.235C776.812 728.047 775.997 725.53 775.094 723.331C774.402 721.275 773.25 719.413 772.666 717.303C771.478 713.278 768.43 707.799 770.043 703.792C772.152 709.147 773.658 715.034 776.174 720.335C777.256 723.207 779.276 726.115 779.045 729.235Z" fill="black"/>
</g>
<path id="Clothing 3" d="M1074.96 310.712C1077.89 323.602 1077.78 336.97 1078.21 350.126C1075.35 378.211 1069.36 405.923 1064.1 433.636C1054.92 480.284 1042.39 526.188 1028.02 571.471C1013.04 621.116 998.299 670.85 979.904 719.378C964.84 762.675 948.253 805.441 936.414 849.784C932.604 862.107 928.652 874.376 925.48 886.876C924.434 890.777 923.353 894.66 922.485 898.596C921.581 898.773 920.66 898.915 919.738 898.951C863.471 904.589 811.653 887.213 767.561 852.107C765.753 850.866 764.353 849.181 762.634 847.834C761.943 847.355 761.234 847.001 760.508 846.752C761.447 844.536 762.28 842.32 763.095 840.848C767.791 829.306 773.001 817.799 775.252 805.459C778.123 789.342 780.498 773.101 784.148 757.126C794.817 708.066 799.336 658.049 805.184 608.262C807.754 587.305 810.625 566.383 815.356 545.762C820.726 520.018 824.395 493.884 832.157 468.689C838.182 447.607 845.909 426.597 856.418 407.253C865.775 390.463 873.289 372.644 878.606 354.151C878.73 353.796 878.818 353.353 879.031 353.016C878.464 353.123 877.861 353.654 877.33 354.027C868.504 360.445 860.902 368.282 854.433 377.005C850.765 375.463 846.494 376.722 842.559 376.739C831.147 377.679 819.716 378.353 808.268 379.062C786.789 380.516 765.204 380.285 743.742 382.431C740.198 382.768 736.636 383.051 733.092 383.388C731.391 383.512 729.423 383.636 727.651 384.08C720.314 355.587 710.851 327.626 699.934 300.286C696.159 292.396 693.306 283.921 688.38 276.669C676.612 259.169 660.875 244.914 645.865 230.269C622.277 208.284 596.173 188.958 568.367 172.646C540.066 156.369 509.868 143.674 479.492 131.848C444.563 119.384 408.144 110.944 371.354 106.37C345.657 103.001 319.748 104.472 294.016 106.299C284.836 107.026 275.089 106.121 266.689 110.59C266.122 110.926 264.881 111.228 264.917 112.026C264.952 112.079 264.988 111.955 265.023 111.937C265.058 111.884 265.147 111.866 265.2 111.866C267.752 112.203 270.216 113.072 272.767 113.497C279.697 114.597 285.97 113.869 293.201 113.994C317.125 113.409 341.333 112.221 365.346 115.519C396.306 119.508 425.671 126.724 455.621 136.245C479.422 144.135 502.141 154.915 525.038 165.075C567.57 185.305 606.523 213.071 640.478 245.659C660.149 264.116 679.217 284.205 688.699 309.967C703.922 348.743 716.823 388.583 723.682 429.735C732.737 474.15 742.768 518.529 747.925 563.617C750.76 589.574 753.525 615.549 756.254 641.506C758.842 666.275 761.588 691.381 771.708 714.413C772.08 715.424 772.434 716.381 772.7 717.268C772.913 718.03 773.196 718.775 773.515 719.502C771.708 730.104 769.741 740.69 767.614 751.257C763.272 770.689 761.021 790.441 758.505 810.157C756.467 821.043 753.685 831.806 751.452 842.674C751.239 845.281 749.803 848.579 750.459 851.185C749.272 853.561 749.201 856.469 750.973 859.199C753.436 862.302 755.669 863.525 759.32 866.238C760.561 867.054 761.801 867.887 763.059 868.685C761.943 868.968 760.826 869.483 759.728 870.28C716.699 885.777 669.825 888.826 624.599 883.844C623.872 883.72 623.146 883.578 622.419 883.401C622.596 878.135 620.735 872.727 618.361 868.1C614.675 858.756 611.821 849.128 608.862 839.536C599.965 812.072 591.548 785.193 584.778 756.966C578.274 729.076 570.973 701.683 563.441 674.041C557.504 653.421 551.16 632.694 547.208 611.365C539.587 570.159 535.972 528.901 528.635 487.447C524.79 464.841 520.643 442.093 512.916 420.445C509.442 410.782 504.658 401.704 500.138 392.519C498.614 389.807 498.083 385.835 494.751 384.771C483.232 382.98 493.918 413.849 496.116 422.253C489.186 416.845 481.619 412.271 473.609 408.743C464.27 404.434 453.938 403.246 443.943 401.331C431.484 398.991 419.079 396.207 406.425 395.161C377.645 393.76 348.989 390.64 320.563 385.87C300.307 381.757 279.838 377.803 260.522 370.268C230.146 357.963 199.878 341.208 179.179 315.126C160.376 291.403 151.267 261.457 148.254 231.581C146.836 218.514 145.401 205.429 146.163 192.273C149.512 156.883 154.705 121.405 165.302 87.3981C169.254 75.0401 173.454 62.5403 178.93 50.4837C180.082 48.2319 181.27 45.9802 182.032 43.6221C184.07 44.6504 186.409 45.2001 188.553 45.9094C193.108 47.1682 197.786 47.9661 202.447 48.7994C223.643 52.576 244.696 57.1149 265.891 60.9624C299.155 66.8666 332.951 68.3381 366.605 70.4126C400.63 73.143 434.798 73.1253 468.913 73.9586C497.976 74.5792 527.448 74.526 556.334 69.7743C569.714 67.1147 582.758 63.0014 595.624 58.5156C605.619 55.0582 615.685 51.778 625.875 48.9589C627.168 48.6043 628.462 48.2852 629.632 47.6469C627.682 64.2247 633.194 85.1998 641.789 98.2493C639.521 98.2847 637.27 98.3379 634.984 98.4443C631.705 99.0117 622.898 98.1074 621.816 101.937C621.019 104.685 624.12 106.317 626.46 105.767C639.06 104.951 651.66 105.926 664.207 106.972C698.127 109.579 732.17 114.331 765.328 122.309C803.766 131.582 842.223 142.522 878.712 158.071C926.525 177.486 972.833 202.415 1011.43 237.007C1025.08 249.311 1039.04 261.439 1050.67 275.73C1058.54 285.18 1064.63 296.049 1072.09 305.712C1072.66 306.155 1073.23 306.51 1073.76 306.793C1074.2 308.123 1074.73 309.417 1074.96 310.712Z" fill="white"/>
<g id="Shoes">
<path d="M1037.22 1153.06C1046.91 1165.6 1058.16 1189.75 1057.68 1205.65C1056.87 1214.34 1054.99 1223.08 1051.22 1230.99C1048.52 1235.7 1044.96 1239.87 1041.75 1244.27C1035.02 1243.2 1028.09 1242.99 1021.41 1241.34C1005.16 1238.11 987.86 1232.37 972.761 1224.5C958.123 1216.75 942.209 1207.9 928.191 1198.43C920.145 1193.01 912.631 1186.78 904.78 1180.99C884.843 1165.65 863.488 1152.41 842.346 1138.88C819.591 1123.36 793.186 1115.74 767.489 1106.38C736.228 1095.54 706.331 1078.74 684.356 1053.56C682.159 1051.04 680.032 1048.45 678.083 1045.74C683.24 1042.09 687.263 1036.79 690.133 1031.17C694.865 1022.9 699.544 1014.61 704.311 1006.38C713.81 989.286 724.85 972.957 737.805 958.294C739.063 960.776 740.942 960.918 742.643 959.996C746.595 963.488 751.238 966.219 754.818 970.138C761.304 977.62 765.859 986.52 770.927 994.96C784.821 1017.81 797.262 1049.06 823.703 1059.64C843.037 1066.86 865.526 1058.47 876.957 1041.66C883.319 1033.08 888.76 1023.49 897.939 1017.53C900.456 1016.01 903.096 1014.11 906.109 1013.91C910.026 1014.64 914.314 1015.72 917.061 1018.82C923.512 1026.89 928.35 1036.09 934.889 1044.11C937.601 1047.62 940.578 1050.83 943.697 1053.86C930.052 1057.44 916.795 1065.33 909.459 1074.64C907.332 1077.67 904.975 1080.97 904.585 1084.76C904.585 1084.99 904.621 1085.3 904.851 1085.42C904.869 1085.44 904.886 1085.42 904.886 1085.38C904.851 1085.33 904.833 1085.3 904.833 1085.24C904.816 1084.99 904.975 1084.76 905.117 1084.52C907.403 1081.61 910.699 1079.62 913.606 1077.37C923.672 1070.08 934.074 1063.04 945.948 1059C946.657 1058.75 947.366 1058.51 948.092 1058.27C953.249 1065.85 958.938 1073.04 964.999 1079.91C955.323 1081.89 946.196 1086.22 939.019 1093.29C936.874 1095.19 928.474 1105.44 931.239 1107.78C930.264 1104.48 940.809 1098.06 943.68 1095.99C951.335 1090.6 959.735 1086.59 968.614 1083.9C974.196 1089.96 980.08 1095.76 986.176 1101.31C972.548 1105.95 960.161 1114.52 957.237 1127.32C962.447 1119.36 977.457 1111.22 991.032 1105.54C1007.67 1120.03 1023.48 1135.72 1037.22 1153.06Z" fill="white"/>
<path d="M1035.41 1256.68C1035.18 1257.09 1034.96 1257.49 1034.77 1257.94C1033.67 1259.96 1032.59 1261.98 1031.6 1264.05C1031.4 1264.55 1031.15 1265.06 1030.87 1265.6C1030.66 1265.6 1030.46 1265.6 1030.25 1265.6C1019.95 1264.94 1009.96 1262.28 999.982 1259.83C981.48 1255.37 963.847 1247.21 947.826 1236.59C924.753 1222.42 901.218 1209 878.818 1193.79C861.238 1181.06 841.035 1169.69 821.984 1158.81C809.348 1152.07 796.376 1145.83 782.836 1141.11C773.639 1137.88 764.228 1135.35 755.048 1132.05C737.663 1126.08 720.774 1117.44 705.357 1107.35C692.278 1097.76 681.29 1085.47 672.075 1072.18C670.622 1069.92 669.115 1067.71 667.645 1065.46C668.548 1064.43 669.31 1063.12 669.807 1061.79C670.905 1059.46 672.27 1057.28 673.581 1055.07C687.369 1077.76 714.59 1095.63 737.22 1106.77C763.431 1119.91 792.087 1127.12 818.528 1139.78C830.419 1146.02 841.389 1153.88 852.713 1161.06C864.676 1168.89 876.957 1176.22 888.476 1184.71C900.881 1193.22 912.418 1202.97 925.089 1211.15C946.108 1224.53 968.419 1236.27 991.706 1245.19C1005.94 1250.26 1020.56 1254.12 1035.41 1256.68Z" fill="white"/>
<path d="M1070.37 1081.09C1073.1 1088.1 1072.94 1095.63 1072.69 1103.01C1072.61 1109.04 1072.52 1115.1 1071.83 1121.13C1068.16 1122.49 1064.51 1123.93 1060.75 1125.05C1053.13 1127.25 1045.15 1128.19 1037.23 1127.64C1035.41 1127.62 1033.35 1126.96 1031.46 1126.93C1026.05 1121.39 1020.42 1116.06 1014.85 1110.65C1010.92 1107.37 1006.91 1104.2 1002.92 1101C1005.12 1100.26 1007.14 1099.64 1008.91 1099.16C1011.34 1098.5 1014.14 1097.92 1016.75 1097.96C1015.36 1097.44 1013.59 1097.18 1012 1097.09C1008.1 1097 1003.74 1097.3 999.22 1098.04C992.503 1092.65 985.84 1087.19 979.602 1081.24C979.637 1081.24 979.655 1081.24 979.69 1081.22C982.969 1080.53 986.212 1079.53 989.561 1079.32C987.577 1078.72 985.113 1078.77 982.933 1078.68C980.895 1078.56 978.84 1078.51 976.784 1078.56C971.467 1073.43 966.523 1067.97 961.685 1062.41C959.824 1060.3 958.087 1058.1 956.333 1055.88C960.391 1054.96 964.538 1054.52 968.756 1054.99C972.141 1055.6 975.65 1056.08 978.769 1057.62C976.518 1055.69 973.293 1054.45 970.404 1053.42C965.212 1051.79 959.328 1051.41 953.249 1052.07C953.054 1051.84 952.842 1051.59 952.647 1051.36C950.999 1047.73 949.51 1043.98 948.181 1040.14C943.52 1028.63 939.639 1016.4 931.505 1006.79C926.082 1000.53 917.363 995.882 908.661 995.049C908.59 993.949 908.484 992.868 908.36 991.786C907.828 985.829 905.773 979.322 903.947 973.081C907.616 976.467 911.461 979.676 915.661 982.513C932.426 995.226 949.847 1007.11 969.057 1015.85C984.652 1025.12 1001.52 1030.78 1018.59 1036.84C1040.19 1045.08 1062.26 1058.08 1070.37 1081.09Z" fill="white"/>
<path d="M1070.28 1130.26C1069.61 1133.7 1069.17 1137.16 1069.26 1140.7C1061.9 1142.94 1054.14 1143.43 1046.61 1144.27C1046.52 1144.16 1046.43 1144.05 1046.34 1143.93C1044.32 1141.27 1042.21 1138.68 1040.02 1136.16C1050.35 1135.83 1061.02 1134.85 1070.28 1130.26Z" fill="white"/>
<path d="M704.648 953.666C707.235 956.184 710.035 958.613 713.048 960.669C709.22 965.386 705.675 970.297 702.326 975.332C702.574 968.098 703.992 960.882 704.648 953.666Z" fill="white"/>
</g>
<g id="Skin">
<path d="M899.304 995.758C898.542 995.971 897.78 996.202 897.036 996.503C885.446 1001.29 876.213 1010.6 869.106 1020.72C863.542 1028.81 858.544 1037.73 849.542 1042.62C821.665 1055.9 807.08 1020.65 795.1 1001.95C787.958 991.29 781.313 980.297 774.029 969.766C769.386 962.709 763.148 956.716 755.545 953.117C755.988 952.585 756.396 952.035 756.715 951.486C761.039 944.535 765.115 937.372 768.163 929.766C774.72 913.49 777.449 896.043 779.168 878.649C804.989 893.507 832.901 904.89 862.39 909.482C871.038 910.865 879.739 911.663 888.476 911.929C885.41 934.181 886.048 973.241 899.304 995.758Z" fill="#B7B5B5"/>
<path d="M761.464 889.731C762.616 889.465 763.803 889.199 764.973 888.844C762.226 899.092 759.958 909.553 756.183 919.394C753.011 927.621 749.289 935.599 745.266 943.436C739.046 938.649 731.089 942.709 725.046 947.798C720.509 945.174 716.486 941.734 712.392 938.472C711.063 937.266 709.575 936.167 707.944 935.369C708.316 930.475 708.033 925.546 706.863 920.723C705.534 914.075 704.045 907.231 701.104 901.078C715.051 899.944 728.909 897.816 742.502 894.288C748.828 892.745 755.137 891.22 761.464 889.731Z" fill="#B7B5B5"/>
</g>
</g>
</svg>
