<svg width="768" height="1581" viewBox="0 0 768 1581" fill="none" xmlns="http://www.w3.org/2000/svg">
<g id="Legs / Standing">
<path id="Clothing 3" d="M647.824 16.1172C647.257 21.7554 646.85 27.447 646.389 33.0852C644.369 56.3297 642.756 79.6274 643.571 102.96C647.346 204.803 644.546 306.54 634.746 408.135C628.791 475.989 621.401 543.701 610.467 610.952C604.619 649.09 596.892 686.891 587.889 724.39C579.861 758.805 573.729 793.627 568.023 828.521C563.167 859.424 558.382 890.364 552.463 921.108C542.025 968.625 533.483 1016.64 530.949 1065.29C529.141 1087.83 530.098 1110.41 531.215 1132.97C531.339 1136.27 531.463 1139.55 531.498 1142.84C531.339 1145.41 531.551 1148.09 532.668 1150.31C532.119 1150.5 531.587 1150.72 531.091 1150.96C510.516 1160.96 488.133 1167.29 465.166 1167.67C440.656 1167.61 415.066 1168.02 391.886 1159.01C386.445 1156.83 381.412 1153.8 376.415 1150.8C377.549 1148.23 378.399 1145.57 378.878 1142.81C379.959 1136.09 379.303 1129.26 379.693 1122.49C380.065 1112.56 380.668 1102.63 380.987 1092.68C381.66 1071.2 382.121 1049.69 381.855 1028.2C381.82 1001.87 383.61 975.611 385.329 949.353C388.554 902.545 395.164 856.038 404.876 810.099C411.982 775.347 421.393 740.968 424.99 705.596C430.289 654.905 433.762 603.399 425.185 552.867C423.2 538.754 419.55 524.924 414.765 511.502C414.162 509.694 413.524 507.885 412.868 506.095C413.187 504.765 413.506 503.417 413.843 502.07C423.679 459.393 433.674 416.769 443.385 374.057C450.58 339.235 456.092 304.944 462.348 269.732C465.786 252.409 466.176 234.342 471.297 217.445C471.35 217.392 471.404 217.356 471.457 217.303C471.492 217.303 471.528 217.286 471.563 217.286C471.652 217.303 471.687 217.356 471.758 217.392C471.776 217.41 471.811 217.374 471.793 217.356C471.599 217.161 471.386 217.091 471.173 217.339C469.366 219.803 468.391 222.764 467.203 225.565C459.406 245.849 454.851 267.143 450.775 288.437C446.451 309.785 442.499 331.203 437.962 352.515C425.433 406.45 411.096 459.943 398.496 513.861C377.992 608.7 351.569 701.944 320.112 793.787C313.803 813.858 307.034 833.786 300.175 853.68C284.261 905.488 271.182 958.235 260.053 1011.28C253.904 1043.16 251.228 1075.61 245.752 1107.6C239.673 1144.9 234.675 1182.36 230.121 1219.88C229.129 1226.81 227.941 1233.75 226.63 1240.63C226.08 1243.16 226.329 1246.16 227.463 1248.6C212.169 1253.41 196.414 1257.19 180.571 1259.15C171.621 1260.09 161.236 1260.82 152.056 1260.43C140.324 1259.74 128.805 1257.4 117.41 1254.67C91.2173 1248.62 66.3358 1237.75 43.5633 1223.55C40.9759 1222.04 38.6189 1220.08 36.1201 1218.37C37.6088 1199.99 38.3353 1181.5 38.3176 1162.99C38.4062 1129.14 41.0114 1095.29 45.1228 1061.69C50.7938 1015.33 58.2547 969.175 69.4549 923.803C80.6551 873.467 95.4883 824.017 108.053 774.018C117.96 736.482 122.124 697.777 123.081 659.019C128.841 494.871 140.626 330.635 166.765 168.367C172.011 140.283 177.558 111.418 183.371 83.3506C187.075 66.6487 190.46 49.8758 192.551 32.8725C192.692 32.9434 192.852 33.0143 192.994 33.0675C196.343 34.7873 199.781 36.3831 203.219 37.9611C265.405 64.8757 333.581 76.2584 401.083 77.2868C433.621 76.8258 466.122 72.4465 498.11 66.4891C530.187 60.1062 560.792 48.4218 591.54 37.6241C603.254 33.883 614.968 30.2662 626.664 26.5073C631.378 24.9825 636.022 23.2094 640.594 21.259C643.394 20.1952 646.265 18.7413 647.824 16.1172Z" fill="white"/>
<g id="Outline">
<path d="M395.997 1201.34C396.724 1193.8 396.671 1187.31 396.246 1180.18C396.051 1177.56 395.732 1174.79 396.228 1172.24L396.281 1172.26L396.423 1172.33L396.494 1172.36L396.848 1172.54L396.937 1172.58L397.38 1172.75L397.468 1172.79L398 1173L398.089 1173.04L398.195 1173.07L398.283 1173.11L398.39 1173.14L398.496 1173.2L398.603 1173.23L399.134 1173.41L399.241 1173.46L399.772 1173.64L399.878 1173.68L400.516 1173.89L400.623 1173.92L401.154 1174.1L401.261 1174.14L401.686 1174.28L401.775 1174.31L401.881 1174.35L402.094 1174.42L402.182 1174.46L402.289 1174.49L402.377 1174.53L402.466 1174.56L402.998 1174.78L403.086 1174.81L403.529 1174.99C403.742 1175.91 403.901 1176.85 404.025 1177.79C404.858 1182.35 405.585 1186.9 405.993 1191.53C406.755 1199.92 406.347 1208.36 405.532 1216.73C404.965 1221.58 402.395 1225.34 399.028 1228.37C391.744 1221.26 395.59 1210.47 395.997 1201.34Z" fill="black"/>
<path d="M504.402 1189.79C504.331 1186.8 504.544 1183.78 504.827 1180.8C505.004 1180.73 505.164 1180.64 505.323 1180.56C505.288 1180.57 505.252 1180.59 505.235 1180.61C505.447 1180.5 505.66 1180.38 505.89 1180.29C506.511 1180.08 507.095 1179.81 507.716 1179.6C508.088 1179.47 508.46 1179.37 508.832 1179.28C509.275 1179.17 509.701 1179.01 510.126 1178.89C510.463 1178.78 510.799 1178.69 511.136 1178.57C511.402 1178.48 511.65 1178.37 511.916 1178.29C512.164 1178.22 512.43 1178.13 512.678 1178.04C512.855 1177.97 513.032 1177.91 513.21 1177.86C513.989 1182.26 514.255 1186.76 515.478 1191.09C518.987 1199.69 522.496 1208.71 522.248 1218.11C511.934 1212.45 505.412 1201.35 504.402 1189.79Z" fill="black"/>
<path d="M389.104 1343.12C378.47 1338.89 379.144 1321.99 377.815 1312.4C376.22 1290.16 376.61 1267.72 379.126 1245.55C380.26 1236.02 383.114 1212.03 396.423 1213.57C399.861 1214.38 402.962 1218.36 401.863 1221.89C400.446 1224.72 397.273 1223.6 395.927 1221.41C393.233 1225.52 392.967 1230.71 392.418 1235.48C391.709 1245.93 391.602 1256.41 391.478 1266.88C391.425 1272.93 391.408 1278.98 391.514 1285.02C391.443 1286.48 391.354 1287.95 391.301 1289.4C391.301 1289.31 391.301 1289.21 391.301 1289.1C391.266 1289.97 391.266 1290.84 391.248 1291.71C391.248 1291.62 391.248 1291.51 391.248 1291.42C391.248 1291.8 391.248 1292.15 391.248 1292.52C391.248 1292.43 391.248 1292.33 391.248 1292.22C391.248 1293.89 391.248 1295.54 391.195 1297.19V1297.17C391.142 1298.27 391.124 1299.38 391.177 1300.48C391.23 1301.48 391.337 1302.45 391.443 1303.44C391.443 1303.39 391.425 1303.34 391.425 1303.28C391.514 1304.38 391.567 1305.5 391.567 1306.62C391.567 1307.58 391.567 1308.53 391.62 1309.49C391.62 1309.49 391.62 1309.49 391.62 1309.51C391.62 1309.46 391.62 1309.42 391.602 1309.37C391.602 1309.42 391.602 1309.46 391.62 1309.51C391.585 1309.9 391.567 1310.29 391.549 1310.68C391.407 1313.5 391.248 1316.3 391.124 1319.12C391.124 1319.03 391.124 1318.92 391.124 1318.83C391.106 1319.14 391.106 1319.44 391.088 1319.76C391.088 1319.67 391.088 1319.56 391.106 1319.47C391.106 1319.74 391.089 1319.99 391.071 1320.25C391.071 1320.34 391.071 1320.45 391.071 1320.54C391.071 1320.52 391.071 1320.52 391.071 1320.52C391.071 1320.77 391.053 1321.02 391.053 1321.26V1321.28C391.053 1321.32 391.053 1321.33 391.053 1321.35C391.053 1321.33 391.053 1321.32 391.053 1321.3C391.053 1321.6 391.053 1321.9 391.053 1322.19C391.053 1322.15 391.053 1322.1 391.053 1322.06C391.053 1323.34 391.088 1324.61 391.088 1325.89C391.088 1326.99 391.071 1328.09 391.088 1329.19C391.142 1331.46 391.407 1333.71 391.461 1335.98C391.531 1338.11 391.655 1340.22 391.85 1342.34C391.886 1342.66 391.904 1342.98 391.939 1343.3C391.656 1343.34 391.372 1343.36 391.071 1343.36C390.468 1343.36 389.812 1343.28 389.104 1343.12Z" fill="black"/>
<path d="M462.011 1283.52C446.469 1281.09 433.709 1271.87 425.593 1258.53C418.433 1249.01 413.719 1237.52 404.982 1229.28C400.818 1225.31 393.959 1225.98 390.734 1220.84C397.947 1210.4 412.851 1219.28 419.585 1226.09C434.72 1241.53 441.064 1266.62 466.034 1268.5C487.743 1269.07 496.073 1236.57 507.078 1222.03C512.022 1215.02 516.789 1207.63 523.205 1201.87C530.028 1196.57 543.531 1190.66 549.911 1199.21C553.491 1204.69 548.157 1212.01 541.883 1210.96C531.676 1209.97 524.179 1225.2 518.668 1232.26C505.536 1253.85 493.29 1288.3 462.011 1283.52Z" fill="black"/>
<path d="M756.672 1377.96C751.674 1375.02 753.234 1368.62 751.976 1363.8C750.204 1355.82 747.332 1346.39 745.17 1339.01C741.094 1323.44 728.725 1311.49 715.026 1303.82C697.995 1295.77 679.848 1290.34 662.321 1283.68C647.399 1277.63 631.839 1273.32 616.882 1267.4C599.072 1259.08 582.768 1247.24 568.537 1233.75C560.81 1225.98 554.342 1216.9 545.286 1210.59C543.726 1209.53 542.114 1208.52 540.483 1207.59C539.119 1206.81 537.276 1206.02 536.726 1204.42C535.486 1195.43 549.77 1203.13 553.172 1205.27C561.714 1210.57 568.183 1218.43 575.484 1225.2C590.459 1238 607.011 1249.74 625.513 1256.81C641.622 1262.01 659.255 1267.06 674.655 1272.97C692.927 1280.13 712.633 1284.85 729.097 1295.86C741.537 1304.99 753.057 1316.51 758.072 1331.44C760.323 1338.05 762.627 1344.67 764.594 1351.39C764.647 1352.58 764.7 1353.75 764.753 1354.93C764.753 1354.95 764.753 1354.99 764.753 1355C764.753 1355.02 764.753 1355.06 764.753 1355.08C764.789 1356.51 764.842 1357.95 764.842 1359.37C764.859 1360.98 764.859 1362.59 764.877 1364.21C764.806 1368.57 764.647 1372.91 764.381 1377.27C764.363 1377.56 764.345 1377.84 764.328 1378.12C763.176 1378.75 761.882 1379.1 760.571 1379.1C759.242 1379.08 757.895 1378.74 756.672 1377.96Z" fill="black"/>
<path d="M386.906 1336.94C384.815 1334.19 387.615 1330.06 390.982 1331.05C391.053 1331.07 391.124 1331.1 391.195 1331.12C391.301 1332.73 391.443 1334.35 391.478 1335.98C391.531 1337.75 391.638 1339.51 391.78 1341.28C389.99 1340.06 388.359 1338.64 386.906 1336.94Z" fill="black"/>
<path d="M398.709 1336.14C398.727 1336.1 398.744 1336.05 398.744 1336.02C398.797 1336.05 398.85 1336.09 398.903 1336.1C398.832 1336.14 398.744 1336.19 398.691 1336.24C398.691 1336.21 398.691 1336.17 398.709 1336.14Z" fill="black"/>
<path d="M691.438 1393.27C660.708 1391.07 630.209 1389.21 600.011 1383.18C584.15 1379.54 569.051 1373.2 553.775 1367.73C539.261 1362.88 524.817 1357.54 510.09 1353.44C509.701 1353.37 509.311 1353.3 508.921 1353.23C508.921 1353.18 508.921 1353.14 508.903 1353.09C508.939 1352.86 508.956 1352.61 508.974 1352.38C509.328 1350.04 509.683 1347.68 510.268 1345.39C510.427 1344.79 510.622 1344.21 510.87 1343.64C510.977 1343.43 511.083 1343.21 511.189 1343C511.278 1342.95 511.384 1342.88 511.473 1342.81C511.827 1342.54 512.058 1342.17 512.164 1341.78C512.926 1341.97 513.706 1341.72 514.273 1341.17C519.607 1342.38 524.87 1343.96 530.01 1345.98C545.676 1350.94 561.307 1355.98 576.724 1361.64C584.664 1364.47 592.656 1367.17 600.915 1368.89C622.021 1372.63 643.571 1375.16 664.802 1378.48C687.893 1381.88 711.924 1382.82 734.484 1375.98C740.368 1373.48 747.669 1373.02 752.206 1368.2C751.834 1363.04 758.143 1359.26 762.538 1362.11C763.53 1362.86 764.31 1363.64 764.877 1364.47C764.806 1367.63 764.718 1370.77 764.558 1373.92C762.272 1377.86 757.948 1381.33 754.244 1382.88C737.196 1390.3 718.712 1393.46 700.193 1393.46C697.268 1393.5 694.344 1393.43 691.438 1393.27Z" fill="black"/>
<path d="M758.285 1402.22C758.302 1402.17 758.32 1402.11 758.338 1402.08C758.32 1402.13 758.284 1402.2 758.267 1402.26C758.284 1402.24 758.285 1402.24 758.285 1402.22Z" fill="black"/>
<path d="M513.706 1378.05C498.855 1373.98 483.543 1371.32 468.214 1370.23C446.345 1370.11 424.423 1369.4 402.891 1365.08C396.334 1363.6 385.683 1360.93 380.349 1355.47C380.19 1354.84 380.048 1354.22 379.888 1353.6C379.87 1353.52 379.853 1353.41 379.817 1353.32C379.64 1351.83 379.498 1350.36 379.374 1348.87C379.197 1346.92 379.108 1344.97 379.002 1343.02C378.984 1342.77 378.984 1342.52 378.967 1342.27C380.278 1339.17 382.511 1336.51 385.666 1335.18C388.714 1336.65 390.823 1339.49 391.904 1342.66C391.957 1343.14 391.992 1343.64 392.099 1344.1C392.187 1344.47 392.311 1344.9 392.542 1345.2C392.542 1345.2 392.542 1345.22 392.542 1345.23C392.542 1345.23 392.559 1345.23 392.577 1345.25C393.02 1345.78 393.64 1346.25 394.367 1346.25C394.509 1346.25 394.633 1346.23 394.775 1346.21C420.631 1357.13 449.907 1354.14 477.323 1356.62C497.862 1358.8 517.994 1363.76 537.205 1371.37C575.254 1386.14 614.366 1399.58 655.144 1404.05C679.547 1408.55 704.127 1405.66 728.211 1401.39C731.401 1400.86 734.484 1400.23 737.461 1399.54C741.857 1398.34 746.836 1397.75 750.31 1394.54C757.204 1388.25 757.735 1376.46 758.125 1367.65C758.781 1363.75 762.166 1363.55 764.877 1365.06C764.806 1369.14 764.647 1373.2 764.399 1377.26C764.363 1377.79 764.328 1378.34 764.292 1378.89C764.097 1380.89 763.885 1382.89 763.601 1384.88C763.53 1385.39 763.477 1385.89 763.406 1386.4C761.829 1391.63 760.181 1396.85 758.391 1402.01C758.356 1402.08 758.338 1402.15 758.32 1402.22C758.302 1402.24 758.302 1402.27 758.285 1402.29C758.285 1402.27 758.285 1402.27 758.302 1402.26C757.983 1403.18 757.682 1404.12 757.328 1405.04C754.102 1407.34 750.434 1409.1 746.641 1410.2C723.391 1416.99 699.041 1419.67 674.903 1420.2C618.583 1418.39 565.861 1397.2 513.706 1378.05Z" fill="black"/>
<path d="M379.25 1347.13C379.162 1345.77 379.091 1344.4 379.02 1343.04C378.914 1340.73 378.736 1338.44 378.577 1336.16C378.488 1334.97 378.417 1333.78 378.276 1332.61C378.152 1331.55 377.992 1330.48 377.886 1329.4C377.939 1329.1 377.974 1328.82 378.027 1328.52C379.321 1320.66 380.916 1312.61 380.916 1304.77C385.152 1315.91 390.22 1327.27 388.802 1339.51C388.572 1341.44 388.271 1343.43 387.633 1345.27C386.747 1347.81 384.886 1349.08 382.99 1349.08C381.643 1349.08 380.278 1348.43 379.25 1347.13Z" fill="black"/>
<path d="M542.132 1274.92C537.843 1267.95 546.314 1253.07 550.603 1247.08C562.14 1230.4 577.752 1224.23 597.424 1223.02C588.226 1227.97 578.833 1232.45 571.302 1239.74C563.291 1247.27 556.912 1256.35 551.365 1265.8C548.919 1268.96 547.909 1280.25 542.132 1274.92Z" fill="black"/>
<path d="M574.456 1287.61C567.775 1276.6 585.018 1256.12 594.588 1251.07C600.773 1247.49 607.295 1244.12 614.313 1242.61C611.424 1244.74 608.766 1247.56 606.107 1250.09C599.497 1256.41 593.117 1262.98 587.836 1270.47C585.16 1274.37 582.626 1278.36 580.517 1282.58C579.489 1284.92 577.044 1286.39 576.104 1288.75C576.104 1288.8 576.14 1288.85 576.193 1288.87C576.175 1288.87 576.211 1288.87 576.211 1288.87C576.228 1288.87 576.228 1288.91 576.211 1288.91C575.519 1289.42 574.633 1287.86 574.456 1287.61Z" fill="black"/>
<path d="M600.525 1300.89C591.629 1296.53 598.824 1282.84 602.014 1276.53C610.237 1260.57 625.389 1254.53 642.703 1255.31C643.5 1255.4 644.475 1255.41 645.149 1255.64C644.989 1255.71 644.812 1255.79 644.67 1255.86C640.31 1257.86 636.234 1260.52 632.141 1263C617.91 1271.26 608.89 1285.96 601.039 1299.83C601.039 1300.22 601.411 1300.43 601.641 1300.71C601.376 1300.86 600.879 1300.89 600.525 1300.89Z" fill="black"/>
<path d="M165.826 1379.51C145.57 1361.9 154.272 1340.13 139.828 1320.87C136.958 1317.79 133.697 1314.47 129.461 1313.46C122.55 1312.03 115.39 1311.35 108.372 1312.29C90.9871 1315.04 76.083 1335.55 65.3613 1348.48C59.9207 1355.16 49.961 1366.72 40.7457 1359.37C39.8064 1358.6 39.5938 1357.19 40.2318 1356.19C41.1002 1354.58 43.404 1354.01 44.5027 1355.68C51.7332 1356.6 59.8144 1340.04 64.2626 1334.88C72.9995 1323.41 82.4452 1311.67 94.9391 1304.15C106.334 1298.21 119.75 1298.18 132.243 1299.69C163.717 1306.8 169.193 1352.84 165.826 1379.51Z" fill="black"/>
<path d="M94.8504 1554.75C69.5082 1551.19 48.9154 1534.24 30.1303 1518.05C4.96531 1494.17 5.60332 1453.82 12.7629 1422.27C18.8238 1401.79 26.391 1381.32 37.6621 1363.09C39.9482 1360.41 41.8798 1353.46 46.1685 1354.61C47.5508 1354.99 48.6673 1356.51 48.5078 1357.97C46.6825 1366.48 42.0039 1374.15 39.0798 1382.33C34.3303 1395.27 29.5278 1408.28 25.9834 1421.62C20.6669 1444.6 19.8517 1470.73 29.2797 1492.75C34.7912 1505.25 47.9053 1513.81 58.0954 1521.28C66.1765 1527.52 74.5943 1532.96 84.2704 1536.31C100.007 1542.96 117.836 1539.83 131.517 1530.09C147.272 1520.22 162.158 1507.13 168.768 1489.28C177.629 1465.84 172.614 1440.25 167.793 1416.48C165.33 1405.64 162.282 1394.74 162.778 1383.51C162.885 1378.32 163.505 1373 164.834 1368.05C172.738 1378.57 178.391 1390.59 180.447 1403.64C187.075 1432.96 194.394 1464.81 183.335 1493.96C177.027 1511.72 163.895 1525.87 148.902 1536.85C133.289 1548.78 114.982 1557.61 94.8504 1554.75Z" fill="black"/>
<path d="M95.7543 1580.14C84.6428 1579.91 74.2578 1575.37 64.1032 1571.26C46.151 1563.69 27.7202 1554.86 14.9605 1539.65C-4.79932 1515.69 -1.6094 1482.86 5.42617 1454.79C7.41101 1446.63 10.4946 1438.83 13.1883 1430.89C14.8187 1425.36 16.8213 1419.9 20.4011 1415.3C20.9151 1414.56 21.9075 1413.34 22.7049 1413.21C21.4112 1418.57 22.5632 1424.28 21.0568 1429.67C14.4643 1460.93 1.06658 1501.6 23.1302 1529.17C35.6064 1543.69 54.0726 1550.89 71.3691 1558.02C78.5287 1560.6 86.6453 1564.01 94.1062 1564.72C106.884 1565.59 119.59 1561.58 131.269 1556.72C143.656 1550.53 153.758 1540.39 162.725 1530.02C169.353 1518.85 171.267 1505.62 176.708 1493.87C180.376 1484.93 184.186 1475.89 188.67 1467.41C189.184 1478.32 189.024 1489.28 187.589 1500.11C185.48 1519.59 179.384 1537.5 164.178 1550.62C158.082 1556.67 151.649 1562.47 144.383 1567.08C129.798 1575.41 112.537 1579.82 95.7543 1580.14Z" fill="black"/>
<path d="M54.108 1328.92C55.4726 1321.8 56.8195 1313.34 57.5461 1306.49C59.3182 1289.37 59.3005 1272.11 60.3638 1254.95C60.4524 1254.24 60.4524 1253.5 60.4524 1252.77L60.5233 1252.82L60.7005 1252.97L60.8778 1253.11L60.9841 1253.18L61.0727 1253.25L61.2853 1253.39L61.3917 1253.46L61.498 1253.55L61.6221 1253.64L61.7461 1253.73L61.8702 1253.82L62.0119 1253.91L62.2955 1254.12L62.4549 1254.22L63.412 1254.97L63.5892 1255.11L63.7487 1255.25L63.9259 1255.4L64.2803 1255.68L65.8399 1256.96L66.017 1257.12L66.1943 1257.26L66.3538 1257.4L66.5133 1257.54L66.6727 1257.66L66.8323 1257.79L66.9741 1257.91L67.1158 1258.04L67.3994 1258.29L67.5235 1258.41L67.8955 1258.73L68.0196 1258.83L68.0906 1258.91C71.1387 1286.85 70.5893 1336.46 52.832 1352.1C52.9383 1344.37 52.6017 1336.55 54.108 1328.92Z" fill="black"/>
<path d="M164.976 1361.92C158.596 1343.37 158.241 1323.52 161.981 1304.38C163.257 1296.74 164.816 1289.1 167.262 1281.72L167.315 1281.71L167.439 1281.67L167.581 1281.64L167.74 1281.6L167.918 1281.57L168.112 1281.53L168.325 1281.48L168.555 1281.42L168.804 1281.35L169.069 1281.28L169.353 1281.21L169.654 1281.14L169.973 1281.05L170.31 1280.98L170.664 1280.89L171.409 1280.71L172.189 1280.54L174.634 1280.01L176.672 1279.65L176.885 1279.61C176.725 1281.03 176.477 1282.43 176.53 1283.68C175.928 1290.52 175.378 1297.38 174.74 1304.24C173.252 1315.66 172.915 1327.17 171.178 1338.55C169.814 1346.51 167.457 1354.22 164.976 1361.88C164.993 1361.92 164.976 1361.92 164.976 1361.92Z" fill="black"/>
<path d="M69.9159 1379.88C69.4728 1379.56 69.3133 1379.28 69.331 1378.67C69.7741 1374.67 73.1944 1371.62 76.5616 1369.83C89.144 1363.27 103.8 1362.43 117.57 1364.99C125.421 1366.28 133.413 1368.53 139.775 1373.51C137.33 1372.82 134.423 1372.33 131.995 1372.06C116.01 1371.26 99.5468 1370.52 83.9162 1374.26C79.468 1375.7 75.4982 1377.36 71.1032 1378.71C70.5715 1378.94 69.845 1379.24 69.9159 1379.88Z" fill="black"/>
<path d="M148.282 1404.26C145.021 1402.38 140.927 1402.5 137.294 1401.81C127.831 1400.31 118.438 1399.38 108.886 1399.21C98.9265 1398.9 88.9137 1398.55 79.0249 1400.04C74.4704 1400.7 69.845 1399.77 65.5563 1401.16C65.574 1401.23 65.8575 1401.46 65.7689 1401.46C65.4145 1401.44 65.0247 1401.12 65.3083 1400.75C69.9868 1395.04 77.2527 1391.97 84.3768 1390.66C101.071 1387.15 118.97 1388.55 134.636 1395.45C139.35 1397.79 145.305 1399.84 148.282 1404.26Z" fill="black"/>
<path d="M136.727 1428.19C129.036 1419.99 74.8248 1417.45 65.0778 1422.49C65.0778 1422.49 65.0956 1422.49 65.0956 1422.5C65.1133 1422.52 65.131 1422.54 65.0956 1422.56C64.9006 1422.54 65.0601 1422.31 65.0956 1422.24C65.3437 1421.76 65.9284 1421.37 66.3537 1421.09C72.7513 1416.87 80.035 1413.94 87.4428 1412.06C102.524 1407.96 129.78 1412.73 136.727 1428.19Z" fill="black"/>
<path d="M754.102 1405.89C751.763 1405.82 750.026 1403.3 750.788 1401.1C751.426 1399.54 751.798 1397.89 752.241 1396.26C753.907 1390.64 754.847 1385.06 755.467 1379.26C756.158 1372.42 756.247 1365.52 755.697 1358.66C755.042 1351.64 754.634 1344.33 757.54 1337.82C763.849 1346.3 765.09 1357.27 764.753 1367.54C764.31 1379.08 764.381 1391.21 759.082 1401.76C758.125 1403.75 756.566 1406.01 754.102 1405.89Z" fill="black"/>
<path d="M753.393 1400.43C751.515 1398.82 750.895 1396.25 751.214 1393.85C751.444 1389.63 751.728 1385.41 752.419 1381.25C753.783 1373.8 754.634 1366.01 755.945 1358.67C758.196 1365.52 761.404 1397.89 753.393 1400.43Z" fill="black"/>
<path d="M751.444 1405.25C746.96 1402.86 748.52 1398.64 750.381 1395.06C751.993 1391.12 752.791 1386.9 754.173 1382.89C757.948 1368.28 756.158 1352.86 751.94 1338.85C751.922 1338.85 751.922 1338.85 751.905 1338.85C751.887 1338.85 751.852 1338.85 751.869 1338.82C751.94 1338.55 752.472 1338.57 752.649 1338.59C756.566 1339.42 759.171 1343.27 760.358 1346.87C763.052 1355.93 765.32 1365.39 764.806 1374.92C764.47 1383.48 763.052 1391.94 759.755 1399.9C758.763 1403.66 755.555 1407.24 751.444 1405.25Z" fill="black"/>
<path d="M746.163 1407.29C743.008 1404.49 744.214 1400.25 746.447 1397.29C746.996 1394.53 748.804 1391.95 749.707 1389.38C752.897 1382.13 753.039 1374.31 754.191 1366.65C756.052 1356.58 752.011 1346.55 752.241 1336.55C763.388 1341.37 764.399 1355.48 766.685 1365.93C768.546 1374.9 767.252 1384.6 764.452 1393.21C762.928 1397.4 761.776 1402.17 757.824 1404.74C755.414 1408.16 749.654 1410.39 746.163 1407.29Z" fill="black"/>
<path d="M554.625 1367.2C544.684 1366.69 535.451 1362.06 525.757 1360.2C507.716 1355.15 489.48 1350.36 470.748 1348.6C452.938 1346.39 435.712 1343.67 417.955 1341.67C413.258 1341.05 408.509 1340.71 403.848 1339.95C397.238 1338.66 391.142 1335.68 384.992 1332.98C374.891 1328.07 381.182 1314.17 391.602 1319.08C405.603 1326.87 422.031 1326.88 437.52 1329.08C443.421 1329.74 451.024 1330.75 456.411 1331.67C467.097 1333.36 477.925 1333.82 488.594 1335.66C502.452 1338.55 516.612 1341.26 530.063 1345.61C539.97 1348.59 550.851 1350.55 559.446 1356.48C564.124 1360.8 560.81 1367.49 554.625 1367.2Z" fill="black"/>
<path d="M34.3659 1236.83C16.0416 1175.77 25.2569 1110.84 32.7887 1048.71C42.2344 971.16 62.0297 895.47 82.02 820.081C97.2784 767.191 109.01 713.22 109.843 658.008C114.77 515.722 125.261 373.596 145.358 232.586C153.084 169.36 168.68 107.552 182.963 45.5846C184.31 38.8471 185.267 32.8366 186.384 26.2587C186.951 22.2694 187.855 17.6772 191.842 15.8688C191.966 15.8333 192.303 15.7977 192.321 15.975C192.622 17.6771 193.614 19.2374 193.703 21.0814C193.933 23.7232 193.242 26.3649 193.012 28.989C190.956 47.2867 187.358 65.3539 183.371 83.297C177.576 111.364 172.029 140.229 166.766 168.314C140.626 330.582 128.823 494.818 123.081 658.965C122.124 697.706 117.96 736.429 108.053 773.964C95.4885 823.963 80.6553 873.413 69.4551 923.75C58.2549 969.121 50.7941 1015.27 45.1231 1061.64C40.9939 1095.22 38.4065 1129.07 38.3179 1162.93C38.3179 1187.7 37.0065 1212.4 34.3659 1236.83Z" fill="black"/>
<path d="M155.051 1278.59C133.838 1277.88 113.033 1272.19 93.0782 1265.24C71.2627 1256.94 50.3155 1244.95 33.0722 1229.17C30.9278 1226.65 28.0569 1224.37 26.9581 1221.18C26.0543 1218.23 28.8544 1215.17 31.8671 1215.98C36.1203 1217.79 39.5406 1221.23 43.5457 1223.55C66.3183 1237.77 91.182 1248.64 117.393 1254.67C128.788 1257.4 140.325 1259.74 152.039 1260.43C161.236 1260.8 171.604 1260.08 180.553 1259.14C204.318 1256.19 227.87 1249.21 249.987 1240.68C223.723 1263.04 190.087 1279.3 155.051 1278.59Z" fill="black"/>
<path d="M232.974 1253.21C227.481 1252.17 225.531 1245.52 226.612 1240.63C227.941 1233.75 229.111 1226.83 230.103 1219.88C234.658 1182.36 239.656 1144.9 245.734 1107.6C251.21 1075.59 253.868 1043.16 260.036 1011.28C271.147 958.235 284.244 905.505 300.158 853.679C307.016 833.786 313.786 813.857 320.095 793.786C351.551 701.961 377.974 608.717 398.479 513.878C411.079 459.96 425.416 406.45 437.945 352.532C442.482 331.22 446.434 309.802 450.758 288.455C454.834 267.16 459.388 245.866 467.186 225.583C468.373 222.781 469.348 219.82 471.156 217.356C471.368 217.108 471.581 217.179 471.776 217.374C471.794 217.391 471.776 217.427 471.741 217.409C471.67 217.374 471.616 217.321 471.546 217.303C471.51 217.321 471.475 217.321 471.439 217.321C471.386 217.374 471.333 217.427 471.28 217.462C466.158 234.359 465.768 252.426 462.33 269.749C456.074 304.961 450.581 339.252 443.368 374.074C433.656 416.769 423.661 459.393 413.826 502.087C408.615 523.399 403.937 544.835 399.187 566.235C389.653 609.072 377.744 651.306 366.101 693.592C350.222 749.478 331.579 804.549 313.733 859.832C298.138 913.626 284.439 968.093 273.77 1023.07C268.259 1054.81 265.37 1086.9 260.16 1118.69C256.863 1140.47 253.408 1162.22 250.803 1184.1C248.959 1199.07 247.418 1214.07 245.238 1228.99C244.547 1233.46 243.696 1237.91 242.881 1242.36C242.438 1247.59 238.734 1253.41 232.974 1253.21Z" fill="black"/>
<path d="M372.038 1158.75C364.523 1152.22 363.23 1141.37 363.815 1131.99C364.081 1118.54 364.648 1104.17 365.037 1090.8C366.881 1052.03 365.658 1013.18 368.458 974.458C372.339 902.987 384.478 832.208 401.367 762.723C409.36 729.089 414.074 694.78 416.785 660.348C420.436 623.38 420.755 586.005 415.261 549.197C412.727 529.09 407.552 508.878 407.658 488.683C409.076 496.52 412.248 503.984 414.765 511.52C419.568 524.942 423.201 538.754 425.185 552.885C433.763 603.398 430.289 654.922 424.99 705.613C421.375 740.985 411.983 775.365 404.876 810.116C395.165 856.055 388.554 902.562 385.329 949.37C383.592 975.629 381.802 1001.89 381.855 1028.22C382.121 1049.71 381.661 1071.21 380.987 1092.7C380.668 1102.65 380.065 1112.58 379.676 1122.51C379.268 1129.28 379.924 1136.12 378.86 1142.83C377.904 1148.57 375.192 1153.92 372.038 1158.75Z" fill="black"/>
<path d="M536.035 1153.78C531.995 1151.58 531.233 1147.08 531.498 1142.86C531.445 1139.56 531.339 1136.28 531.215 1132.99C530.098 1110.43 529.141 1087.86 530.949 1065.31C533.483 1016.64 542.025 968.643 552.463 921.126C558.382 890.381 563.167 859.46 568.023 828.538C573.73 793.662 579.861 758.84 587.889 724.408C596.892 686.908 604.619 649.107 610.467 610.969C621.401 543.718 628.791 476.006 634.746 408.152C644.546 306.557 647.346 204.821 643.571 102.978C642.774 79.627 644.369 56.347 646.389 33.1026C647.275 22.0389 648.055 10.8155 649.933 0C649.862 11.5602 650.341 23.1027 650.819 34.6451C651.564 83.368 653.797 132.002 655.941 180.672C656.473 217.569 656.118 254.483 655.587 291.398C653.035 365.014 646.106 438.4 639.371 511.715C634.196 559.179 627.923 606.572 619.097 653.522C608.11 710.188 593.507 766.109 584.823 823.237C578.904 859.531 573.588 895.949 566.233 931.994C560.651 958.607 555.175 985.274 551.755 1012.26C547.253 1049.48 544.949 1086.39 547.023 1123.43C547.306 1131.37 547.767 1139.31 547.625 1147.28C547.218 1152.56 540.838 1156.71 536.035 1153.78Z" fill="black"/>
<path d="M464.935 1181.9C439.646 1181 413.134 1181.02 389.777 1170.13C382.139 1166.48 375.121 1161.51 368.83 1155.86C367.731 1154.86 366.473 1153.92 366.012 1152.44C364.931 1149.31 368.245 1146.51 371.187 1147.74C377.992 1151.64 384.531 1156.09 391.868 1159.05C415.048 1168.04 440.639 1167.65 465.148 1167.68C488.098 1167.31 510.498 1160.98 531.073 1150.98C536.514 1148.5 544.152 1147.56 548.848 1151.92C549.078 1158.45 543.159 1163.84 537.489 1166.11C514.645 1176.16 489.976 1182.65 464.864 1181.9H464.935Z" fill="black"/>
<path d="M401.066 77.2863C333.563 76.2757 265.388 64.8752 203.202 37.9606C199.781 36.3826 196.343 34.7869 192.976 33.067C190.353 31.8968 185.976 29.7338 187.447 26.2941C189.396 24.131 192.498 25.0707 194.731 26.2231C202.564 29.7869 211.283 33.3506 219.01 36.2761C272.423 55.1412 328.814 65.212 385.4 66.6836C417.955 67.6765 450.403 62.8362 482.303 56.7902C482.285 56.7902 482.249 56.8079 482.232 56.8079C482.125 56.8257 482.019 56.8435 481.895 56.8789C516.329 50.7974 549.167 38.3683 581.74 25.9216C598.133 20.0884 615.004 15.6027 631.29 9.41483C633.417 8.59923 635.508 7.71272 637.581 6.75528C643.252 3.97162 651.723 8.03179 648.356 15.1062C646.974 18.3863 643.749 20.0706 640.594 21.2408C636.022 23.1911 631.379 24.9821 626.665 26.4891C614.968 30.248 603.236 33.8825 591.54 37.6059C560.775 48.4036 530.169 60.088 498.111 66.4709C466.105 72.446 433.603 76.8253 401.066 77.2863Z" fill="black"/>
<path d="M63.9258 1267.63C61.3916 1266.99 61.0549 1264.08 60.9486 1261.9C59.8144 1255.77 59.3182 1249.51 58.2903 1243.37C57.546 1240.87 59.3713 1238.23 61.9055 1237.9C64.4752 1237.54 66.8855 1239.62 66.8677 1242.22C66.8677 1243.25 66.8854 1244.28 66.9563 1245.25C66.8854 1249.6 71.4576 1269.01 63.9258 1267.63Z" fill="black"/>
<path d="M168.875 1294.03C166.305 1293.25 165.809 1290.24 166.074 1287.91C166.535 1281.62 167.138 1275.22 169.654 1269.38C169.601 1262.2 179.348 1262.19 179.33 1268.73C178.072 1274.67 176.991 1280.27 174.989 1286C173.996 1289.1 173.252 1294.67 168.875 1294.03Z" fill="black"/>
<path d="M507.255 1188.43C505.678 1187.54 505.217 1185.72 505.146 1184.03C504.88 1180.04 504.561 1175.82 505.589 1171.94C506.263 1169.01 505.412 1165.77 508.301 1164.07C511.721 1161.83 516.258 1165.79 514.769 1169.49C513.387 1173.75 513.192 1178.07 512.554 1182.35C512.749 1185.63 511.437 1190.31 507.255 1188.43Z" fill="black"/>
</g>
<g id="Skin">
<path d="M514.255 1211.92C511.756 1215.24 509.435 1218.67 507.078 1222.03C496.073 1236.56 487.743 1269.06 466.034 1268.5C441.064 1266.6 434.702 1241.53 419.585 1226.07C416.289 1222.74 411.043 1218.91 405.691 1217.1C405.709 1217.04 405.709 1216.97 405.727 1216.92C406.524 1208.55 406.949 1200.09 406.187 1191.72C405.78 1187.1 405.071 1182.54 404.22 1177.98C404.096 1177.08 403.955 1176.19 403.742 1175.32C423.413 1181.05 444.591 1181.18 464.953 1181.9H464.882C478.422 1182.31 491.837 1180.61 504.916 1177.36C504.898 1178.48 504.916 1179.62 504.987 1180.75C504.933 1180.79 504.898 1180.8 504.845 1180.82C504.561 1183.82 504.366 1186.81 504.437 1189.81C505.111 1197.98 508.62 1205.96 514.255 1211.92Z" fill="#B7B5B5"/>
<path d="M167.156 1278.16C166.783 1280.31 166.535 1282.5 166.34 1284.68C164.409 1291.12 163.097 1297.75 161.981 1304.37C160.616 1311.32 159.801 1318.37 159.624 1325.41C154.325 1312.79 145.641 1302.7 132.261 1299.67C119.785 1298.16 106.352 1298.2 94.9568 1304.14C82.463 1311.64 73.0172 1323.39 64.2804 1334.86C63.5892 1335.66 62.8272 1336.72 61.9766 1337.96C70.4122 1316.83 70.483 1282.75 68.2678 1260.68C68.3032 1258.48 68.1083 1256.02 67.8602 1253.67C76.0123 1258.11 84.4833 1261.95 93.0783 1265.22C113.033 1272.17 133.838 1277.86 155.052 1278.57C159.11 1278.67 163.133 1278.51 167.156 1278.16Z" fill="#B7B5B5"/>
</g>
<g id="Shoes">
<path d="M752.401 1366.23C752.224 1366.87 752.153 1367.52 752.207 1368.21C747.688 1373.04 740.368 1373.48 734.485 1376C711.925 1382.84 687.894 1381.9 664.802 1378.5C643.572 1375.16 622.022 1372.65 600.915 1368.91C592.657 1367.2 584.647 1364.49 576.725 1361.65C569.955 1359.19 563.168 1356.81 556.327 1354.53C548.317 1350.06 538.818 1348.21 530.081 1345.59C526.838 1344.54 523.542 1343.59 520.228 1342.72C520.104 1342.68 519.997 1342.65 519.873 1342.63C518.243 1342.17 516.595 1341.76 514.947 1341.37C514.858 1341.35 514.787 1341.33 514.699 1341.3C506.05 1339.19 497.26 1337.47 488.594 1335.66C477.944 1333.82 467.116 1333.36 456.412 1331.67C451.024 1330.75 443.421 1329.74 437.52 1329.08C422.031 1326.88 405.603 1326.87 391.603 1319.08C391.443 1319.01 391.284 1318.94 391.142 1318.87C391.266 1316.14 391.426 1313.41 391.55 1310.68C391.567 1310.29 391.585 1309.9 391.621 1309.51C391.621 1309.51 391.621 1309.51 391.621 1309.49C391.567 1308.53 391.567 1307.59 391.567 1306.62C391.567 1305.5 391.496 1304.4 391.426 1303.29C391.426 1303.34 391.443 1303.39 391.443 1303.44C391.355 1302.47 391.231 1301.48 391.178 1300.48C391.124 1299.38 391.142 1298.27 391.195 1297.17C391.248 1295.61 391.248 1294.07 391.248 1292.52C391.248 1292.43 391.248 1292.33 391.248 1292.22C391.248 1291.96 391.248 1291.69 391.248 1291.42C391.248 1290.75 391.266 1290.08 391.284 1289.4C391.337 1287.95 391.426 1286.48 391.497 1285.02C391.39 1278.98 391.408 1272.93 391.461 1266.88C391.585 1256.42 391.691 1245.95 392.4 1235.48C392.843 1231.74 393.091 1227.75 394.491 1224.21C395.165 1224.56 395.874 1224.88 396.6 1225.17C397.256 1226.37 398.089 1227.51 399.188 1228.59C399.808 1228.02 400.411 1227.43 400.978 1226.81C402.431 1227.42 403.795 1228.18 404.965 1229.28C413.72 1237.52 418.416 1249.01 425.593 1258.53C433.692 1271.87 446.47 1281.09 462.012 1283.52C493.308 1288.3 505.536 1253.87 518.668 1232.26C524.162 1225.2 531.676 1209.97 541.884 1210.96C543.124 1211.18 544.329 1211.05 545.428 1210.68C553.633 1216.44 559.712 1224.46 566.553 1231.67C560.58 1235.34 555.264 1240.36 550.621 1247.08C546.332 1253.07 537.861 1267.95 542.15 1274.92C547.927 1280.24 548.919 1268.96 551.383 1265.79C556.93 1256.34 563.31 1247.26 571.32 1239.72C571.94 1239.14 572.56 1238.55 573.198 1238C579.1 1243.27 585.32 1248.25 591.824 1252.81C582.095 1259.74 568.378 1277.59 574.457 1287.59C574.634 1287.84 575.52 1289.4 576.193 1288.92C576.193 1288.91 576.193 1288.89 576.193 1288.89H576.176C576.14 1288.87 576.105 1288.82 576.105 1288.76C577.044 1286.42 579.49 1284.93 580.517 1282.59C582.626 1278.36 585.161 1274.38 587.837 1270.48C591.115 1265.84 594.837 1261.53 598.753 1257.42C602.847 1260.01 607.029 1262.42 611.318 1264.63C607.667 1267.74 604.531 1271.65 602.032 1276.51C598.842 1282.81 591.647 1296.51 600.543 1300.87C600.897 1300.87 601.394 1300.84 601.66 1300.68C601.429 1300.39 601.057 1300.18 601.057 1299.79C607.083 1289.15 613.781 1278.04 623.014 1269.7C636.075 1274.51 649.455 1278.43 662.357 1283.68C679.884 1290.34 698.031 1295.77 715.061 1303.82C728.76 1311.49 741.13 1323.44 745.206 1339.01C747.351 1346.37 750.239 1355.82 752.011 1363.8C752.189 1364.58 752.313 1365.39 752.401 1366.23Z" fill="white"/>
<path d="M751.533 1384.05C751.055 1385.86 750.47 1387.63 749.708 1389.38C748.839 1391.87 747.138 1394.33 746.535 1396.97C743.682 1398.23 740.439 1398.75 737.462 1399.56C734.485 1400.23 731.401 1400.85 728.211 1401.4C704.127 1405.68 679.529 1408.55 655.144 1404.05C614.366 1399.58 575.272 1386.14 537.205 1371.37C518.013 1363.75 497.863 1358.8 477.323 1356.62C449.908 1354.14 420.649 1357.13 394.775 1346.21C394.651 1346.23 394.509 1346.25 394.367 1346.25C393.641 1346.25 393.021 1345.8 392.578 1345.25C392.578 1345.25 392.56 1345.25 392.542 1345.23C392.542 1345.23 392.542 1345.22 392.542 1345.2C392.312 1344.88 392.188 1344.47 392.099 1344.1C392.028 1343.83 391.993 1343.57 391.957 1343.28C391.94 1343.2 391.94 1343.11 391.922 1343.02C391.904 1342.89 391.904 1342.79 391.886 1342.66V1342.65C391.886 1342.54 391.869 1342.43 391.851 1342.33C391.815 1341.97 391.78 1341.62 391.762 1341.26C391.709 1340.73 391.674 1340.18 391.638 1339.65C391.62 1339.3 391.603 1338.96 391.567 1338.6C391.514 1337.72 391.479 1336.83 391.443 1335.94C391.443 1335.89 391.443 1335.86 391.443 1335.8C395.448 1337.52 399.524 1339.06 403.813 1339.92C408.492 1340.68 413.241 1341.02 417.92 1341.64C435.677 1343.66 452.903 1346.35 470.713 1348.57C489.445 1350.32 507.663 1355.09 525.722 1360.16C534.263 1361.81 542.433 1365.57 551.046 1366.81C551.932 1367.11 552.836 1367.42 553.722 1367.72C568.998 1373.18 584.097 1379.53 599.958 1383.16C630.156 1389.17 660.656 1391.05 691.385 1393.25C694.292 1393.41 697.216 1393.48 700.14 1393.48C717.737 1393.5 735.229 1390.66 751.533 1384.05Z" fill="white"/>
<path d="M136.745 1428.18C129.781 1412.72 102.542 1407.95 87.4609 1412.03C80.0532 1413.9 72.7518 1416.81 66.3719 1421.05C65.9643 1421.33 65.3617 1421.72 65.1136 1422.2C65.0782 1422.27 64.9187 1422.5 65.1136 1422.52C65.1313 1422.52 65.1313 1422.49 65.1136 1422.49C65.1136 1422.49 65.1137 1422.49 65.096 1422.47C74.843 1417.45 129.036 1419.97 136.745 1428.18ZM131.996 1372.04C134.441 1372.31 137.348 1372.81 139.776 1373.5C133.414 1368.53 125.421 1366.28 117.57 1364.97C103.8 1362.42 89.1445 1363.25 76.562 1369.81C73.2125 1371.62 69.7745 1374.67 69.3314 1378.66C69.3137 1379.26 69.4555 1379.54 69.9163 1379.86C69.8454 1379.24 70.5719 1378.92 71.1036 1378.67C75.4986 1377.31 79.4861 1375.64 83.9165 1374.22C99.5472 1370.5 116.029 1371.24 131.996 1372.04ZM137.295 1401.79C140.928 1402.5 145.021 1402.36 148.282 1404.24C145.305 1399.84 139.35 1397.77 134.636 1395.41C118.953 1388.53 101.071 1387.11 84.3772 1390.62C77.2531 1391.94 69.9872 1395 65.3086 1400.71C65.0251 1401.07 65.3972 1401.4 65.7693 1401.42C65.8579 1401.42 65.5744 1401.21 65.5567 1401.12C69.8276 1399.74 74.4531 1400.64 79.0253 1400C88.8964 1398.51 98.9091 1398.87 108.887 1399.17C118.439 1399.37 127.831 1400.29 137.295 1401.79ZM167.794 1416.47C172.614 1440.25 177.63 1465.84 168.769 1489.28C162.158 1507.13 147.272 1520.2 131.517 1530.09C117.836 1539.82 100.008 1542.96 84.2709 1536.31C74.5948 1532.96 66.177 1527.52 58.0958 1521.28C47.9235 1513.81 34.8094 1505.25 29.2979 1492.75C19.8699 1470.75 20.6851 1444.6 26.0016 1421.62C29.546 1408.27 34.3308 1395.27 39.098 1382.33C41.5968 1375.36 45.3538 1368.78 47.5336 1361.72C54.5514 1361.4 61.2503 1353.55 65.3795 1348.48C76.1012 1335.54 91.0053 1315.04 108.39 1312.29C115.408 1311.35 122.568 1312.03 129.479 1313.46C133.715 1314.47 136.958 1317.77 139.829 1320.87C153.616 1339.24 146.333 1359.9 163.204 1377.04C162.956 1379.21 162.832 1381.39 162.779 1383.53C162.282 1394.74 165.331 1405.64 167.794 1416.47Z" fill="white"/>
<path d="M167.351 1520.32C166.057 1523.65 164.586 1526.92 162.743 1530.02C153.776 1540.39 143.657 1550.53 131.287 1556.72C119.608 1561.6 106.902 1565.59 94.1243 1564.72C86.6811 1564.01 78.5469 1560.59 71.405 1558C54.1262 1550.89 35.6423 1543.67 23.1661 1529.15C12.6925 1516.08 10.2115 1500.07 11.1862 1483.51C14.252 1496.56 20.1711 1508.6 30.1308 1518.05C48.9337 1534.22 69.5087 1551.17 94.8509 1554.75C114.983 1557.63 133.29 1548.78 148.902 1536.85C155.566 1531.97 161.857 1526.47 167.351 1520.32Z" fill="white"/>
</g>
</g>
</svg>
