<svg width="1035" height="1596" viewBox="0 0 1035 1596" fill="none" xmlns="http://www.w3.org/2000/svg">
<g id="Legs / Walking 2">
<path id="Clothing 3" d="M887.536 1260.7C886.933 1261.21 886.685 1262.17 886.083 1262.75C885.108 1263.94 883.92 1264.93 882.662 1265.86C879.224 1267.75 873.925 1271.05 867.422 1274.44C806.512 1311.07 770.607 1330.73 698.993 1303.11C686.145 1297.35 674.466 1289.3 662.912 1281.32C660.501 1279.28 657.684 1277.68 654.671 1276.81C640.954 1197.45 631.048 1116.74 632.324 1035.97C634.309 965.416 646.235 895.612 651.198 825.294C657.755 701.199 609.622 617.636 564.29 508.08C554.791 483.949 544.441 459.801 533.471 436.237C546.408 383.082 560.426 330.174 576.854 278.153C576.872 278.153 576.89 278.153 576.925 278.153C576.996 278.313 576.996 278.508 577.032 278.668C577.032 278.703 577.067 278.703 577.085 278.668C577.067 278.455 577.191 278.1 576.996 277.976C576.624 277.923 576.589 278.012 576.252 278.455C573.239 282.533 571.095 287.161 568.667 291.611C557.981 311.877 550.608 333.614 543.856 355.458C529.236 403.507 515.643 451.875 503.663 500.651C492.729 545.243 482.982 590.154 466.518 633.168C455.602 662.05 441.3 689.639 425.439 716.092C412.662 735.702 398.077 754.071 383.049 771.996C362.97 795.684 339.931 817.208 320.455 841.517C288.91 879.264 261.814 920.346 234.309 961.055C225.165 974.671 215.595 987.969 205.866 1001.2C198.033 1011.18 192.716 1022.9 189.792 1035.22C167.161 1030.42 144.088 1025.93 122.52 1017.35C97.3906 1006.99 56.0633 973.377 50.8353 945.86C50.0733 941.64 49.6302 937.349 49.8252 933.058C50.0201 932.349 50.0379 931.622 49.9139 930.931C69.7091 906.002 84.7904 877.474 100.137 849.62C119.543 815.4 142.422 783.237 168.172 753.486C181.746 737.245 197.324 722.599 208.985 704.869C214.124 696.997 218.714 688.805 223.499 680.72C228.054 673.061 232.945 665.49 236.259 657.192C245.545 631.2 245.421 603.097 246.52 575.828C250.755 470.811 247.813 365.6 263.515 261.203C274.237 180.424 292.632 101.17 302.698 20.3193C311.364 26.915 322.103 30.6028 332.205 34.4149C384.661 53.5991 440.84 57.7124 496.132 61.1521C524.309 61.879 552.682 61.9147 580.789 59.3438C634.769 52.7126 687.527 37.6419 739.346 21.8974C744.751 59.2906 753.328 96.2227 762.845 132.765C784.873 215.796 800.468 297.497 814.664 382.142C820.884 421.84 828.345 461.343 835.008 500.97C838.588 524.516 840.998 548.115 843.727 571.785C847.024 599.888 848.938 628.168 850.462 656.412C851.685 697.706 849.274 739.195 844.064 780.17C836.444 823.432 830.808 867.296 831.109 911.321C832.527 964.76 838.127 1017.97 841.92 1071.27C845.11 1112.13 848.087 1153.36 859.518 1192.93C866.305 1216.51 876.761 1238.76 887.536 1260.7Z" fill="white"/>
<g id="Outline">
<path d="M41.7782 940.664C55.1582 903.023 68.5204 865.044 89.9107 831.073C109.05 798.733 130.299 769.159 154.613 740.72C162.925 730.791 171.626 721.216 180.15 711.465C190.411 699.674 198.35 686.234 206.095 672.724C209.834 666.323 213.751 660.029 217.012 653.362C223.374 638.682 224.774 622.458 226.156 606.678C228.548 576.909 228.602 547.158 229.824 517.353C232.164 456.432 232.235 395.404 237.427 334.624C240.848 294.323 246.448 254.253 252.916 214.342C261.688 166.718 271.542 119.272 282.441 72.0915C287.793 48.9003 296.352 26.6133 304.557 4.34406C295.059 90.7439 274.926 175.122 263.478 261.221C247.777 365.617 250.719 470.829 246.483 575.845C245.402 603.115 245.526 631.199 236.222 657.21C232.89 665.508 227.999 673.078 223.462 680.738C218.678 688.823 214.088 697.014 208.948 704.887C197.287 722.635 181.71 737.28 168.135 753.503C142.385 783.255 119.506 815.418 100.101 849.637C82.7333 881.197 65.7027 913.59 41.7782 940.664Z" fill="black"/>
<path d="M188.214 1043.36C190.5 1028.13 196.313 1013.39 205.847 1001.23C215.558 988.022 225.146 974.707 234.29 961.09C261.812 920.399 288.891 879.317 320.436 841.552C339.912 817.244 362.933 795.719 383.03 772.031C398.058 754.106 412.643 735.737 425.42 716.128C441.299 689.674 455.6 662.086 466.517 633.203C482.981 590.189 492.728 545.278 503.662 500.686C515.642 451.91 529.235 403.542 543.855 355.493C550.607 333.649 557.979 311.912 568.666 291.646C571.094 287.213 573.238 282.568 576.251 278.49C576.587 278.047 576.623 277.958 576.995 278.011C577.19 278.136 577.066 278.508 577.084 278.703C577.084 278.738 577.048 278.738 577.031 278.703C576.995 278.543 576.995 278.348 576.924 278.189C576.906 278.189 576.889 278.189 576.853 278.189C551.352 358.968 531.609 441.91 512.807 524.622C502.386 573.044 491.452 621.785 471.763 667.44C458.773 695.507 445.003 723.539 425.934 748.06C412.111 766.304 398.022 783.237 383.065 800.028C368.338 815.967 352.495 832.119 338.956 848.147C307.145 885.612 279.587 926.321 252.331 967.136C243.134 980.93 233.918 994.724 224.171 1008.13C214.938 1022.29 202.746 1034.72 188.214 1043.36Z" fill="black"/>
<path d="M140.365 1041.89C130.246 1038.85 120.073 1035.59 110.681 1030.7C101.324 1026.02 93.0476 1019.58 84.9132 1013.07C67.2623 997.845 49.186 980.15 42.2391 957.278C40.3074 951.515 37.6845 926.604 47.2012 927.899C49.505 928.501 50.3734 930.966 49.8063 933.111C49.6114 937.402 50.0721 941.693 50.8164 945.912C56.0443 973.43 97.3539 1007.05 122.501 1017.4C145.132 1026.41 169.429 1030.91 193.123 1035.98C194.292 1036.25 195.551 1036.34 196.649 1036.46C192.414 1039.51 187.15 1040.79 182.206 1042.22C168.542 1045.93 153.922 1046.21 140.365 1041.89Z" fill="black"/>
<path d="M889.679 1265.04C878.142 1241.71 866.747 1218.07 859.481 1193C848.068 1153.43 845.073 1112.21 841.883 1071.34C838.091 1018.04 832.508 964.813 831.073 911.392C830.771 867.367 836.425 823.502 844.027 780.24C849.255 739.266 851.648 697.777 850.425 656.483C848.883 628.238 846.987 599.958 843.673 571.856C840.944 548.186 838.534 524.587 834.954 501.041C828.29 461.414 820.83 421.928 814.609 382.213C800.396 297.568 784.819 215.867 762.791 132.836C751.413 89.1481 741.383 44.9286 736.509 0C742.198 22.6948 753.947 56.3824 761.284 83.1197C772.945 123.261 784.057 163.545 794.619 204.005C810.498 269.412 822.513 335.724 833.944 402.035C839.845 439.198 847.43 476.095 852.481 513.399C855.104 533.629 857.248 553.984 859.623 574.214C863.114 606.696 865.843 639.355 866.339 672.05C866.251 691.571 865.205 711.074 864.159 730.56C862.99 755.808 860.757 780.967 856.468 805.896C852.569 831.516 849.61 857.279 847.962 883.147C844.577 942.047 852.906 1000.82 856.823 1059.53C859.764 1093.43 861.501 1127.52 867.722 1161.02C873.056 1196.05 881.97 1230.61 889.679 1265.04Z" fill="black"/>
<path d="M658.48 1298.21C644.746 1264.12 634.254 1228.55 626.74 1192.56C614.583 1127.7 612.155 1061.07 616.462 995.309C619.581 958.2 622.983 921.125 626.971 884.122C631.135 850.417 634.626 816.446 632.712 782.439C629.54 694.639 593.157 613.629 561.825 533.009C552.114 508.222 544.387 482.655 538.362 456.751C536.536 449.446 534.746 442.549 533.027 435.279C544.174 459.162 554.683 483.648 564.324 508.133C609.674 617.689 657.789 701.252 651.232 825.329C646.27 895.629 634.343 965.451 632.358 1036C630.94 1124.03 642.849 1211.97 658.48 1298.21Z" fill="black"/>
<path d="M763.677 1334.63C728.552 1333.18 691.62 1325.34 664.878 1301.07C657.895 1294.44 646.27 1287.33 649.123 1276.16C649.123 1276.14 649.123 1276.14 649.123 1276.12C654.138 1275.89 659.065 1278.04 662.91 1281.32C674.447 1289.3 686.126 1297.35 698.992 1303.11C770.606 1330.75 806.51 1311.07 867.42 1274.44C886.578 1264.42 895.35 1255.32 876.423 1280.32C849.326 1312.91 806.067 1333.85 763.677 1334.63Z" fill="black"/>
<path d="M496.095 61.1873C440.803 57.7477 384.607 53.6343 332.168 34.4501C321.216 30.3189 309.555 26.3473 300.552 18.6523C298.922 16.9502 297.575 14.5744 296.937 12.2872C296.866 12.0567 296.423 11.0638 296.778 10.9219C296.795 10.9042 296.813 10.9397 296.813 10.9574C302.75 11.1702 307.73 12.5886 312.975 15.3368C323.75 19.6984 334.915 22.9076 346.168 25.7445C391.217 37.3755 437.967 39.9109 484.239 42.535C517.645 44.3258 549.278 44.184 582.205 40.833C628.247 34.6983 673.278 22.8012 717.387 8.47514C723.501 6.9858 729.084 4.55681 735.18 4.11355C744.661 4.68093 747.922 16.3828 739.947 21.7551C687.934 37.5706 634.963 52.73 580.77 59.3966C552.645 61.9675 524.29 61.9143 496.095 61.1873Z" fill="black"/>
<path d="M882.2 1269.65C883.458 1267.08 885.709 1265.08 886.985 1262.58C887.269 1262.06 887.623 1261.55 888.172 1261.33C888.172 1261.33 888.172 1261.32 888.172 1261.3C888.616 1261.53 888.438 1262.29 888.261 1262.7C886.861 1265.41 885.107 1268.53 882.2 1269.65Z" fill="black"/>
<path d="M878.213 1271.85C881.155 1269.28 883.919 1266.25 886.33 1263.21C887.056 1262.45 887.109 1261.02 888.226 1260.68C889.378 1261.16 888.226 1262.95 887.765 1263.68C885.798 1267.45 882.041 1270.36 878.213 1271.85Z" fill="black"/>
<path d="M873.977 1273.32C879.241 1269.74 884.096 1265.54 888.119 1260.7C886.861 1267.01 879.241 1270.63 873.977 1273.32Z" fill="black"/>
<path d="M878.248 1269.14C880.836 1267.01 883.937 1265.36 886.099 1262.75C886.826 1262.03 887.038 1260.77 887.995 1260.41C888.899 1260.4 888.421 1261.67 887.96 1262.26C885.886 1265.79 882.289 1268.75 878.248 1269.14Z" fill="black"/>
<path d="M708.526 1383.94C704.698 1368.46 702.058 1352.66 699.098 1337.08C696.617 1327.91 694.703 1318.59 695.217 1309.05C695.27 1308.73 695.324 1308.21 695.749 1308.41C695.784 1308.46 695.643 1308.5 695.607 1308.52C695.607 1308.52 695.607 1308.52 695.625 1308.52C695.625 1308.52 695.607 1308.52 695.607 1308.53C697.45 1311.05 700.162 1312.86 702.253 1315.2C707.144 1319.99 709.731 1326.35 712.213 1332.59C719.39 1349.14 716.094 1368.18 708.526 1383.94Z" fill="black"/>
<path d="M845.587 1374.61C836.106 1357.91 829.478 1339.03 828.361 1319.77C828.397 1313.52 828.095 1306.87 830.027 1300.89C833.536 1294.47 838.711 1299.77 838.924 1305.04C843.159 1328.13 844.346 1351.62 845.587 1374.61Z" fill="black"/>
<path d="M692.47 1476.6C688.767 1461.97 686.853 1446.9 686.941 1431.79C687.703 1414.42 687.349 1396.55 692.648 1379.83C694.101 1375.57 697.964 1365.96 703.688 1370.06C705.177 1371.48 705 1373.8 703.724 1375.31C700.428 1381.51 700.339 1388.85 699.63 1395.71C698.744 1411.03 699.719 1426.42 698.372 1441.72C697.114 1453.41 694.827 1465.18 692.47 1476.6Z" fill="black"/>
<path d="M748.135 1446.09C731.724 1438.74 718.557 1424.84 712.886 1407.7C709.856 1399.86 708.207 1391.39 703.582 1384.28C702.501 1382.56 700.676 1381.4 699.772 1379.61C697.663 1374.4 703.6 1372.26 707.392 1375.08C726.425 1388.18 723.572 1416.01 746.557 1429.67C750.492 1431.99 754.568 1434.61 759.14 1435.32C761.55 1435.46 763.021 1433.28 764.279 1431.56C774.558 1410.31 777.482 1391.79 798.11 1376.55C791.908 1388.75 787.707 1401.81 784.535 1415.11C780.867 1433.14 770.464 1457.06 748.135 1446.09Z" fill="black"/>
<path d="M866.959 1400.78C860.704 1396.44 854.324 1390.06 849.645 1384.58C840.766 1374.76 834.458 1367.13 820.014 1371.1C807.503 1373.55 799.351 1384.51 787.335 1387.66C787.353 1387.66 787.353 1387.7 787.335 1387.7C787.14 1387.86 787.123 1387.68 787.087 1387.52C788.558 1382.43 791.978 1377.91 796.09 1374.58C805.022 1366.16 816.47 1360.39 828.804 1359.47C854.164 1357.01 863.078 1379.97 866.959 1400.78C866.977 1400.78 866.977 1400.78 866.959 1400.78Z" fill="black"/>
<path d="M996.931 1556.12C1025.68 1533.26 1030.12 1509.84 995.478 1490.23C977.561 1480.22 957.713 1474.17 939.778 1464.24C922.411 1453.12 904.264 1442.73 889.466 1428.21C880.375 1418.89 871.231 1409.12 864.354 1398.07C861.395 1393.25 858.612 1388.35 855.352 1383.74C852.534 1380.8 853.828 1374.77 858.737 1375.98C861.696 1376.64 862.458 1379.81 863.84 1382.1C867.349 1388.48 871.514 1394.67 875.944 1400.32C889.856 1417.22 905.965 1432.27 925.318 1442.73C938.467 1451.26 951.883 1459.33 966.68 1464.72C988.974 1473.34 1013.82 1481.42 1027.29 1502.54C1037.82 1518.64 1030.96 1536.24 1016.3 1546.85C1010.33 1550.78 1003.31 1553.21 996.931 1556.12Z" fill="black"/>
<path d="M896.059 1573.58C857.975 1571.03 821.095 1556.37 790.525 1533.69C771.439 1518.81 752.902 1503.39 735.428 1486.88C722.562 1475.57 710.866 1462.98 700.906 1449.05C712.585 1456.05 724.246 1463.74 734.967 1472.34C744.378 1480.2 753.806 1489.74 762.684 1497.57C782.249 1514.51 802.381 1531.08 825.083 1543.44C846.739 1554.79 870.929 1562.36 895.208 1564.75C934.497 1568.23 973.716 1561.46 1009.34 1545.06C1011.09 1544.19 1012.79 1543.28 1014.46 1542.25C1013.31 1543.85 1011.66 1545.41 1010.08 1546.78C997.977 1557.87 982.329 1563.62 966.662 1567.31C943.535 1573.3 919.753 1575.16 896.059 1573.58Z" fill="black"/>
<path d="M920.993 1593.85C884.256 1592.09 847.873 1583.14 814.131 1568.65C799.174 1561.86 786.148 1551.72 773.14 1541.85C754.142 1526.65 735.215 1511.39 716.324 1496.05C709.04 1490.16 701.544 1484.49 694.012 1478.92C691.761 1476.85 688.129 1475.54 687.402 1472.34C687.154 1470.45 688.749 1468.96 690.557 1468.9C692.789 1469.03 694.367 1471.01 696.227 1472.08C707.888 1480.06 718.929 1488.9 730.076 1497.61C757.616 1518.12 783.011 1541.99 813.209 1558.64C825.632 1564.91 837.789 1569.24 850.85 1573C892.337 1585.55 938.183 1590.43 979.954 1576.54C996.914 1570.52 1014.14 1562.68 1025.11 1547.89C1024.88 1542.08 1022.18 1536.67 1021.62 1530.89C1021.09 1526.14 1021.26 1521.33 1021.26 1516.56C1023.34 1521.35 1025.11 1526.56 1027.4 1531.35C1029.42 1535.21 1031.77 1538.96 1033.14 1543.12C1034.32 1546.83 1035.56 1551.95 1031.95 1554.68C1030.14 1556.03 1029.08 1558.1 1027.63 1559.79C1023.02 1565.16 1017.05 1569.24 1011.06 1572.93C983.675 1588.41 952.131 1594.79 920.993 1593.85Z" fill="black"/>
<path d="M826.766 1451.33C825.827 1449.72 826.554 1447.24 826.891 1445.5C827.582 1442.31 828.928 1439.22 830.382 1436.32C841.458 1414.79 867.119 1400.55 890.973 1399.65C894.517 1399.54 898.309 1399.45 901.712 1400C897.937 1400.55 894.286 1401.58 890.618 1402.61C875.324 1406.79 861.218 1415.59 848.83 1425.07C841.157 1431.69 828.131 1441.01 826.766 1451.24C826.784 1451.26 826.784 1451.26 826.802 1451.28C826.82 1451.3 826.802 1451.33 826.766 1451.33Z" fill="black"/>
<path d="M852.924 1466.63C855.245 1450.69 867.208 1437.86 880.463 1429.63C891.238 1423.39 903.75 1417.49 916.474 1420.29C914.649 1420.5 912.54 1420.75 910.661 1421.26C903.466 1423.48 897.157 1427.79 890.919 1431.88C881.261 1438.19 872.489 1445.73 864.833 1454.35C861.111 1459.01 855.05 1463.12 853.455 1468.96C853.544 1469.06 854.182 1468.97 853.81 1469.1C852.622 1469.52 852.817 1467.34 852.924 1466.63Z" fill="black"/>
<path d="M876.37 1475.07C881.775 1452.75 905.416 1434.63 928.525 1436.56C930.67 1436.63 933.009 1436.56 935.047 1436.74C921.33 1440.43 907.968 1445.85 897.158 1455.27C892.887 1459.08 888.563 1462.82 884.54 1466.9C881.811 1470.32 877.469 1473.46 876.636 1477.79C876.653 1477.79 876.671 1477.79 876.689 1477.79C876.866 1477.79 876.707 1477.88 876.618 1477.86C875.838 1477.88 876.334 1475.27 876.37 1475.07Z" fill="black"/>
<path d="M18.3854 1034.12C19.0766 1024.95 21.4336 1015.65 26.5729 1007.92C29.1248 1004.21 32.0312 1000.75 34.6363 997.082C39.4212 991.213 47.6442 975.611 56.1861 976.923C60.4216 977.685 62.0165 983.572 59.2519 986.639C57.7456 988.182 55.0165 987.951 53.9886 986.001C47.7505 993.394 43.6036 1001.96 38.1276 1009.87C32.3502 1018.55 25.7045 1026.85 18.3854 1034.12Z" fill="black"/>
<path d="M66.8723 1079.49C40.644 1070.02 51.1886 1025.24 55.8494 1004.6C56.6646 1000.33 57.0723 995.983 56.771 991.621C56.6824 990.026 56.9127 988.536 57.4975 987.012C57.8165 986.178 58.3659 985.434 58.7203 984.653C59.89 984.653 61.0242 985.097 62.0166 985.753C70.08 992.402 66.1812 1012.28 65.047 1021.66C63.3457 1033.43 62.4419 1045.5 64.3559 1057.31C65.3483 1062.03 68.4319 1069.01 74.351 1067.24C82.6094 1064.58 89.2551 1058.39 97.4071 1055.33C108.979 1050.93 121.828 1050.17 133.932 1052.6C123.228 1055.95 112.541 1060.1 102.653 1065.57C91.7361 1072.12 80.6599 1083.09 66.8723 1079.49Z" fill="black"/>
<path d="M168.259 1089.72C164.803 1080.65 161.861 1070.33 153.178 1064.85C148.481 1061.94 143.218 1059.97 138.043 1058.22C131.61 1055.96 124.894 1053.85 118.018 1054.14C116.547 1054.23 115.2 1054.62 114.119 1055.56C115.324 1053.31 118.124 1052.15 120.499 1051.27C132.922 1046.27 147.577 1048.75 158.813 1055.61C170.687 1063.75 171.342 1076.9 168.259 1089.72Z" fill="black"/>
<path d="M183.003 1253.05C192.077 1240.55 187.168 1227.86 182.011 1214.99C174.993 1195.04 162.127 1177.2 159.044 1155.98C157.466 1146.62 156.669 1137.01 157.307 1127.52C158.335 1116.69 161.082 1106.12 163.297 1095.5C164.945 1089.51 165.211 1082.88 168.046 1077.33C169.677 1075.24 173.097 1076.25 173.646 1078.71C173.93 1081.85 173.292 1085.04 173.15 1088.18C172.175 1104.08 168.046 1119.69 168.259 1135.64C168.631 1149.28 171.378 1162.86 176.677 1175.45C186.601 1198.92 211.642 1233.39 183.003 1253.05Z" fill="black"/>
<path d="M156.651 1062.76C155.092 1054.87 156.598 1046.14 162.304 1040.2C164.697 1036.94 170.368 1035.38 172.229 1039.99C173.664 1043.98 169.234 1048.2 167.479 1051.07C164.342 1055.36 160.763 1059.44 156.651 1062.76Z" fill="black"/>
<path d="M115.767 1260.22C96.8931 1258.76 78.2143 1248.69 63.966 1236.57C46.315 1220.24 38.6415 1196.81 33.0414 1174.07C28.9299 1156.03 27.8844 1137.47 28.416 1119.03C28.6818 1109.85 29.0894 1100.65 28.1324 1091.48C26.821 1080.96 24.2868 1070.66 20.9551 1060.61C18.35 1052.77 16.6842 1044.48 17.4462 1036.18C17.907 1030.5 19.307 1024.58 23.8792 1020.77C24.1805 1020.49 24.4995 1020.26 24.8362 1020.03C24.9071 1019.99 24.8716 1020.2 24.8893 1020.22C27.264 1029.1 24.2336 1038.38 26.9982 1047.26C30.9147 1060.54 36.7453 1073.27 38.7301 1087.08C41.3175 1102.83 39.2617 1118.61 39.7579 1134.19C40.3073 1152.26 42.6821 1170.43 48.6543 1187.54C51.9506 1197.61 55.1937 1207.9 61.3963 1216.62C72.8623 1233.59 92.1082 1243.16 110.982 1249.62C132.585 1254.74 154.932 1252.79 176.801 1250.68C173.044 1251.67 168.879 1252.54 164.98 1253.52C148.871 1257.84 132.479 1261.03 115.767 1260.22Z" fill="black"/>
<path d="M114.828 1282.26C90.9208 1279.15 65.047 1271.23 51.1885 1250.18C65.047 1258.02 80.0043 1262.9 94.9792 1267.95C94.8729 1267.91 94.7488 1267.88 94.6425 1267.86C94.6248 1267.86 94.6247 1267.86 94.607 1267.84C103.84 1270.22 113.197 1272.49 122.785 1272.66C132.177 1272.79 142.491 1271.48 151.459 1269.4C170.882 1264.99 184.226 1260.27 189.968 1239.4C192.006 1232.59 199.042 1236.21 196.454 1242.54C192.183 1259.79 183.446 1269.44 166.363 1274.6C149.881 1280.06 132.266 1283.75 114.828 1282.26Z" fill="black"/>
<path d="M68.3255 1264.3C56.505 1260.18 48.5834 1249.88 41.2997 1240.25C29.1071 1224.88 24.1096 1205.38 20.9728 1186.34C17.4462 1166.57 19.8741 1146.41 17.7652 1126.51C15.9398 1111.57 15.4436 1095.56 9.06371 1081.97C4.1016 1068.41 -3.04022 1053.98 1.39024 1039.32C3.97763 1026.36 11.5094 1020.43 22.4083 1014.19C23.2767 1013.71 24.1804 1013.18 25.0311 1012.83C24.9956 1017.05 24.2159 1021.14 22.3551 1024.95C21.0614 1027.97 18.3145 1029.9 16.6132 1032.63C12.0942 1040.7 10.8891 1050.11 13.5651 1059C15.8512 1067.84 19.0766 1076.44 22.0538 1085.06C25.0311 1094.14 25.4919 1103.78 26.3249 1113.23C27.2109 1122.51 27.9198 1131.8 28.0438 1141.11C27.6717 1166.32 28.2387 1192.19 37.4186 1216.02C43.0896 1230.06 53.0139 1241.73 62.6191 1253.21C65.4192 1256.78 67.8116 1260.7 70.9129 1264.01C71.3028 1264.35 71.6926 1264.81 72.2066 1264.77C72.242 1264.77 72.3306 1264.72 72.3129 1264.77C71.2141 1265.63 69.5128 1264.62 68.3255 1264.3Z" fill="black"/>
<path d="M178.006 1133.5C169.039 1128.14 160.603 1121.83 151.317 1117.1C135.704 1111.96 118.088 1113.2 102.936 1119.03C99.959 1120.24 97.0171 1121.99 94.5893 1123.91C95.7943 1122.01 97.3007 1120.36 98.9489 1118.84C113.782 1105.27 137.317 1102.74 155.003 1112.03C163.58 1117.99 170.917 1126.03 178.006 1133.5Z" fill="black"/>
<path d="M176.624 1150.54C162.818 1144.99 148.659 1138.09 133.4 1140.54C127.924 1141.14 122.005 1141.94 116.6 1142.63C111.46 1143.78 105.169 1143.82 101.182 1147.61C101.182 1147.63 101.182 1147.67 101.164 1147.68C101.164 1147.68 101.164 1147.68 101.164 1147.7C101.43 1145.8 104.407 1144.17 106.002 1143.04C115.182 1137.58 125.709 1134.55 136.324 1133.68C151.831 1131.66 165.246 1141.5 176.624 1150.54Z" fill="black"/>
<path d="M175.968 1175.22C167.958 1172.4 159.947 1169.6 151.795 1167.28C143.891 1165.17 136.324 1165.29 128.314 1165.41C122.395 1165.95 109.458 1165.17 105.63 1169.83C105.63 1169.86 105.63 1169.92 105.63 1169.94C105.63 1169.95 105.648 1169.99 105.648 1170.01C105.665 1170.04 105.63 1170.04 105.612 1170.02C105.311 1169.03 106.534 1168.14 107.136 1167.52C110.61 1164.56 115.164 1163.18 119.418 1161.81C140.134 1155.02 159.965 1161.39 175.968 1175.22Z" fill="black"/>
</g>
<g id="Skin">
<path d="M158.848 1045.02C157.377 1047.84 156.526 1050.95 156.207 1054.12C145.397 1048.41 132.035 1046.62 120.569 1051.21C112.665 1051.16 104.761 1052.49 97.3885 1055.29C89.2365 1058.36 82.5908 1064.55 74.3324 1067.22C68.4133 1069 65.3474 1062.01 64.3373 1057.29C62.4233 1045.49 63.3272 1033.43 65.0285 1021.64C65.7905 1015.38 67.7577 1004.48 66.6235 995.93C72.4362 1002.01 78.692 1007.67 84.9124 1013.04C93.0467 1019.56 101.34 1025.98 110.68 1030.66C120.072 1035.56 130.245 1038.82 140.364 1041.85C146.372 1043.8 152.592 1044.83 158.848 1045.02Z" fill="#B7B5B5"/>
<path d="M838.214 1359.81C835.361 1359.28 832.242 1359.14 828.821 1359.47C816.487 1360.39 805.056 1366.16 796.107 1374.58C792.35 1377.63 789.142 1381.69 787.512 1386.26C775.993 1399.45 772.466 1414.63 764.278 1431.58C763.02 1433.32 761.549 1435.5 759.139 1435.34C754.567 1434.63 750.491 1432.01 746.557 1429.68C725.166 1416.99 726.141 1392.01 711.06 1378.05C716.731 1363.59 718.503 1347.11 712.176 1332.58C711.29 1330.32 710.369 1328.05 709.359 1325.86C726.832 1331.42 745.493 1333.87 763.658 1334.63C785.793 1334.22 808.158 1328.32 828.343 1318.14C828.343 1318.69 828.343 1319.22 828.343 1319.77C829.158 1333.51 832.773 1347.1 838.214 1359.81Z" fill="#B7B5B5"/>
</g>
<g id="Shoes">
<path d="M1023.67 1540.16C1024.36 1542.7 1024.97 1545.25 1025.07 1547.88C1014.1 1562.66 996.878 1570.5 979.918 1576.53C938.166 1590.41 892.301 1585.55 850.832 1572.98C837.771 1569.22 825.614 1564.9 813.191 1558.62C782.993 1541.97 757.616 1518.09 730.058 1497.59C718.911 1488.89 707.87 1480.04 696.21 1472.06C695.359 1471.56 694.561 1470.89 693.746 1470.29C695.625 1460.87 697.326 1451.28 698.336 1441.71C699.665 1426.42 698.708 1411.01 699.594 1395.7C700.073 1391.09 700.268 1386.26 701.349 1381.71C702.129 1382.52 702.979 1383.32 703.582 1384.28C708.207 1391.39 709.855 1399.86 712.886 1407.7C718.557 1424.84 731.724 1438.73 748.134 1446.09C770.464 1457.04 780.867 1433.14 784.535 1415.13C786.998 1404.83 790.064 1394.65 794.229 1384.92C802.842 1380.41 810.037 1373.04 820.014 1371.09C834.457 1367.11 840.766 1374.72 849.645 1384.56C853.916 1389.56 859.605 1395.32 865.311 1399.6C866.339 1401.17 867.402 1402.72 868.501 1404.24C852.445 1410.18 837.966 1421.53 830.364 1436.32C828.91 1439.22 827.581 1442.31 826.872 1445.5C826.553 1447.24 825.809 1449.72 826.748 1451.33C826.784 1451.33 826.802 1451.32 826.766 1451.3C826.748 1451.3 826.766 1451.3 826.731 1451.26C828.095 1441.03 841.139 1431.71 848.794 1425.09C856.167 1419.44 864.159 1414.03 872.648 1409.68C877.202 1415.36 882.2 1420.73 887.233 1425.94C884.911 1427.11 882.643 1428.37 880.445 1429.65C867.19 1437.88 855.227 1450.71 852.906 1466.65C852.799 1467.36 852.605 1469.54 853.792 1469.12C854.164 1468.99 853.526 1469.08 853.437 1468.98C855.015 1463.14 861.093 1459.03 864.815 1454.37C872.471 1445.75 881.243 1438.2 890.901 1431.88C891.38 1431.56 891.858 1431.26 892.319 1430.94C896.306 1434.61 900.489 1438.02 904.813 1441.23C891.061 1447.84 879.861 1460.57 876.334 1475.06C876.299 1475.25 875.802 1477.86 876.582 1477.86C876.671 1477.88 876.812 1477.79 876.653 1477.79C876.635 1477.79 876.635 1477.79 876.618 1477.79C877.45 1473.46 881.792 1470.32 884.522 1466.9C888.544 1462.82 892.869 1459.08 897.14 1455.27C901.446 1451.51 906.16 1448.39 911.14 1445.77C920.461 1452.24 930.244 1458.12 939.778 1464.22C957.713 1474.15 977.561 1480.2 995.478 1490.22C1024.72 1506.76 1026.12 1526.03 1008.56 1545.39C973.148 1561.53 934.196 1568.18 895.19 1564.74C870.911 1562.33 846.739 1554.77 825.065 1543.42C802.363 1531.07 782.214 1514.51 762.666 1497.57C753.788 1489.74 744.377 1480.2 734.967 1472.34C724.245 1463.74 712.584 1456.05 700.906 1449.05C710.865 1462.98 722.579 1475.57 735.428 1486.88C752.901 1503.39 771.439 1518.82 790.525 1533.69C821.095 1556.37 857.957 1571.03 896.059 1573.58C919.753 1575.16 943.535 1573.3 966.662 1567.31C977.313 1564.81 987.964 1561.33 997.48 1555.89C1003.72 1553.09 1010.51 1550.66 1016.3 1546.83C1019.07 1544.84 1021.55 1542.59 1023.67 1540.16Z" fill="white"/>
<path d="M182.985 1253.06C183.499 1252.7 183.978 1252.36 184.456 1251.99C177.385 1262.56 166.167 1266.07 151.458 1269.4C142.491 1271.48 132.177 1272.79 122.784 1272.66C113.285 1272.51 103.981 1270.25 94.8193 1267.9C84.9837 1264.56 75.1304 1261.32 65.6138 1257.26C64.6391 1255.89 63.6467 1254.53 62.6188 1253.21C53.0136 1241.73 43.0717 1230.06 37.4007 1216.02C28.2031 1192.19 27.6536 1166.3 28.0258 1141.11C27.9017 1131.8 27.1752 1122.49 26.3068 1113.23C25.4916 1103.78 25.0131 1094.14 22.0358 1085.06C19.0585 1076.44 15.8332 1067.84 13.5471 1059C10.8711 1050.13 12.0584 1040.7 16.5952 1032.65C17.1091 1031.83 17.694 1031.09 18.3142 1030.38C17.8535 1032.28 17.5876 1034.26 17.4282 1036.21C16.6661 1044.51 18.3319 1052.81 20.937 1060.65C24.251 1070.7 26.7852 1081 28.1144 1091.51C29.0713 1100.66 28.6638 1109.88 28.398 1119.07C27.8663 1137.51 28.9119 1156.07 33.0233 1174.1C38.6057 1196.83 46.297 1220.27 63.9479 1236.6C78.1963 1248.71 96.875 1258.78 115.749 1260.25C132.46 1261.07 148.853 1257.88 164.962 1253.59C168.843 1252.61 173.008 1251.74 176.765 1250.75C154.914 1252.86 132.549 1254.79 110.946 1249.69C92.0725 1243.23 72.8088 1233.66 61.3605 1216.69C55.1579 1207.97 51.9325 1197.68 48.6185 1187.61C42.664 1170.49 40.2716 1152.31 39.7222 1134.26C39.226 1118.68 41.2817 1102.88 38.6943 1087.15C36.7095 1073.34 30.879 1060.61 26.9625 1047.33C24.8182 1040.4 26.1828 1033.23 25.7574 1026.21C30.2056 1021.07 34.3347 1015.59 38.0917 1009.95C43.5501 1002.05 47.7147 993.483 53.9528 986.09C54.6262 987.331 55.9553 987.863 57.249 987.703C56.8237 989.015 56.6643 990.327 56.7351 991.693C57.0364 996.054 56.6465 1000.38 55.8136 1004.67C51.1705 1025.31 40.6083 1070.1 66.8543 1079.56C80.6419 1083.16 91.718 1072.19 102.599 1065.63C110.326 1061.36 118.513 1057.9 126.843 1054.99C130.653 1055.77 134.392 1056.99 138.043 1058.27C143.218 1060.04 148.481 1062.01 153.177 1064.9C159.858 1069.12 163.137 1076.2 165.866 1083.38C164.856 1087.4 164.36 1091.62 163.279 1095.57C161.914 1102.12 160.355 1108.62 159.114 1115.18C157.767 1114.1 156.403 1113.07 155.003 1112.1C137.316 1102.83 113.764 1105.34 98.9485 1118.91C97.3004 1120.43 95.8117 1122.08 94.5889 1123.98C97.0168 1122.06 99.9409 1120.31 102.936 1119.1C118.088 1113.27 135.704 1112.03 151.316 1117.17C153.62 1118.34 155.889 1119.63 158.122 1120.96C157.785 1123.16 157.501 1125.38 157.289 1127.6C157.076 1130.93 157.023 1134.24 157.129 1137.58C150.679 1134.51 143.749 1132.77 136.377 1133.73C125.744 1134.58 115.235 1137.63 106.055 1143.09C104.478 1144.19 101.554 1145.82 101.235 1147.67C101.235 1147.67 101.235 1147.67 101.217 1147.67C101.217 1147.67 101.217 1147.72 101.199 1147.74C101.199 1147.74 101.199 1147.74 101.199 1147.75C101.199 1147.72 101.199 1147.68 101.217 1147.67C105.204 1143.89 111.478 1143.85 116.617 1142.7C122.005 1142.01 127.924 1141.21 133.417 1140.61C141.711 1139.28 149.668 1140.7 157.431 1143.18C157.767 1147.49 158.317 1151.8 159.025 1156.05C159.468 1159.17 160.142 1162.21 160.975 1165.2C148.268 1158.87 134.073 1157.1 119.435 1161.9C115.164 1163.27 110.609 1164.65 107.154 1167.61C106.533 1168.22 105.311 1169.12 105.63 1170.11C105.647 1170.13 105.683 1170.11 105.665 1170.1C105.665 1170.06 105.647 1170.04 105.647 1170.02C105.647 1170.01 105.647 1169.95 105.647 1169.92C109.475 1165.27 122.395 1166.05 128.314 1165.5C136.324 1165.38 143.873 1165.25 151.795 1167.36C155.463 1168.41 159.096 1169.55 162.712 1170.75C167.94 1185.93 176.676 1199.9 182.011 1215.09C187.15 1227.86 192.077 1240.56 182.985 1253.06Z" fill="white"/>
</g>
</g>
</svg>
