<svg width="938" height="1580" viewBox="0 0 938 1580" fill="none" xmlns="http://www.w3.org/2000/svg">
<g id="Legs / Walking 1">
<g id="Outline">
<path d="M598.147 1308.32C586.221 1286.82 578.655 1263.18 569.741 1240.36C545.677 1176.32 524.838 1110.99 508.961 1044.47C498.984 1004.62 493.332 963.913 486.208 923.504C481.122 896.956 475.895 870.426 472.776 843.58C469.427 815.42 465.032 787.277 456.97 760.011C444.619 717.481 424.63 677.738 405.227 638.012C389.314 603.035 369.786 569.951 350.684 536.639C319.195 476.27 292.101 413.642 266.832 350.504C248.261 305.574 233.34 258.944 224.285 211.193C217.977 176.864 216.878 141.625 220.192 106.911C222.212 87.4246 227.563 68.4992 232.756 49.679C234.474 43.0376 236.034 36.3613 237.593 29.6849C240.588 19.2058 241.58 5.18695 252.336 0C251.255 2.45329 251.433 4.8191 251.202 7.37753C249.767 18.2946 247.233 29.0889 245.798 40.0411C242.005 62.6814 236.14 84.7787 234.563 107.699C232.915 135.176 233.801 162.898 237.54 190.182C245.142 241.281 261.391 290.82 281.025 338.571C303.867 396.136 328.976 452.807 356.088 508.531C367.996 531.837 381.623 554.232 394.399 577.083C407.264 600.039 418.623 623.783 430.301 647.352C454.028 694.683 475.275 743.994 483.904 796.424C488.689 822.85 491.187 849.573 495.635 876.033C500.225 902.599 505.771 928.989 510.06 955.607C521.489 1028.36 540.627 1099.69 563.911 1169.55C578.406 1211.08 592.689 1251.75 610.976 1291.67C612.731 1295.63 616.08 1299 616.168 1303.48C616.221 1308.13 612.5 1312.51 607.804 1312.96C603.924 1313.31 600.291 1311.74 598.147 1308.32Z" fill="black"/>
<path d="M793.424 1257.29C790.163 1253.84 790.287 1248.6 788.887 1244.29C787.275 1237.63 785.716 1230.94 784.05 1224.28C777.44 1201.78 774.835 1178.45 768.669 1155.85C746.572 1072.93 723.712 990.164 705.372 906.314C695.041 864.503 688.396 821.956 684.941 779.058C683.275 758.591 681.432 738.141 680.298 717.639C679.837 708.702 678.951 699.817 677.569 690.985C669.169 643.217 649.376 598.479 635.164 552.305C619.393 500.47 598.289 450.546 577.928 400.394C570.663 380.189 562.724 360.212 555.211 340.096C547.839 319.173 541.637 297.899 536.037 276.468C532.83 264.692 530.42 251.987 533.822 240.019C534.053 239.353 534.797 237.25 535.825 238.109C535.842 238.126 535.825 238.144 535.807 238.144C535.665 238.109 535.577 238.039 535.453 238.074C534.23 241.368 536.356 245.136 537.047 248.448C538.306 252.058 539.511 255.685 540.786 259.295C545.394 274.26 549.824 288.489 554.963 303.156C561.909 323.834 570.22 344.038 579.062 363.98C587.462 383.396 594.709 403.285 603.303 422.649C625.897 471.995 643.581 523.286 660.841 574.63C670.02 599.32 678.703 624.169 686.305 649.385C691.922 668.1 696.654 687.183 698.479 706.669C700.534 737.931 702.466 769.228 705.762 800.402C711.769 859.824 726.973 917.774 740.564 975.829C754.227 1034.53 770.919 1092.43 786.566 1150.63C790.535 1164.47 793.956 1178.44 796.029 1192.68C799.768 1210.47 805.048 1227.89 809.124 1245.6C809.762 1248.18 810.595 1250.86 809.656 1253.49C807.706 1260.25 798.439 1262.67 793.424 1257.29Z" fill="black"/>
<path d="M670.463 1320.25C656.871 1319.9 643.262 1319.04 629.955 1316.15C621.856 1314.65 613.829 1312.89 606.05 1310.18C602.683 1309.04 598.944 1307.92 597.154 1304.57C592.813 1297.37 599.883 1288.4 608.035 1290.66C628.537 1298.42 650.599 1301.33 672.465 1301.84C706.63 1301.84 758.214 1283.1 784.404 1261.41C789.171 1257.33 793.512 1252.79 797.287 1247.83C799.254 1246.01 802.691 1246.74 803.4 1249.46C804.18 1255.59 798.952 1261.39 795.639 1266.14C783.057 1282.46 764.044 1291.74 745.933 1300.78C722.135 1311.12 696.901 1321.06 670.463 1320.25Z" fill="black"/>
<path d="M723.535 101.443C726.902 134.265 724.581 167.332 721.426 200.083C714.214 278.08 691.284 354.097 656.446 424.348C649.163 440.365 641.756 456.311 633.693 471.96C631.762 475.359 630.628 479.32 628.289 482.474C627.934 482.964 627.527 483.437 627.102 483.876C622.299 488.502 613.563 486.662 611.437 480.231C609.541 475.342 612.837 470.996 614.857 466.755C616.186 464.092 617.55 461.428 618.933 458.782C619.181 458.309 619.429 457.836 619.677 457.345C620.244 456.259 620.793 455.19 621.36 454.103C624.373 448.303 627.35 442.468 630.026 436.51C641.756 410.925 655.011 384.973 665.306 358.968C684.604 310.814 698.39 261.187 705.514 210.106C711.432 168.576 715.596 126.8 712.212 84.9189C711.999 82.3079 711.787 79.6967 711.556 77.0682C711.485 76.227 711.397 75.386 711.326 74.5274C711.113 72.3019 710.883 70.059 710.635 67.8335C710.546 66.8872 710.422 65.941 710.316 64.9947C710.21 64.0484 710.103 63.102 709.979 62.1557C709.731 60.0003 709.448 57.8626 709.129 55.7247C708.969 52.7282 707.392 49.6791 708.154 46.7352C708.774 45.1756 710.653 44.2993 712.177 45.2981C712.921 45.7888 713.488 46.262 713.825 47.1206C715.118 50.8006 716.022 54.6033 716.837 58.4234C717.174 59.983 717.475 61.5424 717.794 63.102C720.186 75.8241 722.117 88.6162 723.535 101.443Z" fill="black"/>
<path d="M196.518 1012.86C191.875 1005.25 199.14 999.977 203.712 994.755C207.398 990.356 211.03 985.888 214.486 981.314C225.756 965.701 237.806 950.701 250.724 936.384C282.301 901.407 313.879 866.43 346.856 832.715C359.969 818.346 372.94 803.854 387.01 790.396C395.835 781.81 405.138 773.644 413.165 764.339C424.471 748.585 435.989 732.902 446.337 716.5C448.109 713.188 453.319 711.576 455.357 715.711C459.202 722.107 433.118 763.76 427.873 771.383C420.927 781.424 411.712 789.695 403.153 798.352C393.779 807.832 384.671 817.505 375.846 827.493C358.711 847.715 339.768 866.308 321.658 885.654C303.406 905.701 285.225 925.818 267.097 945.987C251.858 962.196 239.011 980.263 225.65 997.944C221.379 1003.55 216.949 1009.09 212.005 1014.12C207.876 1018.71 199.743 1018.25 196.518 1012.86Z" fill="black"/>
<path d="M78.997 900.566C73.8935 893.241 79.6349 885.811 83.9763 879.766C88.6013 872.949 93.0845 866.027 97.4259 859.351C108.129 842.879 117.999 825.881 129.73 810.075C146.954 785.787 166.322 764.234 185.62 742.049C195.277 730.764 205.218 719.514 214.823 708.211C231.48 688.234 246.985 667.311 263.872 647.527C269.047 641.499 274.699 635.927 280.139 630.161C282.443 627.217 283.542 623.625 285.314 620.383C288.964 613.094 293.43 606.242 297.009 598.935C306.737 575.961 313.276 551.814 321.888 528.42C325.663 518.221 328.799 507.812 331.936 497.404C333.442 493.478 334.08 489.045 336.454 485.54C339.343 482.877 343.472 485.4 342.798 489.518C342.426 494.477 341.77 499.419 341.079 504.325C338.598 524.074 332.379 542.982 326.744 562.013C323.04 574.121 319.567 586.318 315.42 598.286C311.345 609.904 304.239 620.12 299.313 631.353C295.379 641.044 286.501 648.368 280.175 656.184C263.766 676.143 248.048 696.646 231.639 716.587C205.006 748.427 176.263 778.48 151.242 811.582C136.747 830.577 124.29 850.957 111.531 871.091C106.587 879.082 101.608 887.056 96.4868 894.941C93.5984 900.847 84.4016 906.296 78.997 900.566Z" fill="black"/>
<path d="M179.701 1016.48C151.366 1011.37 127.143 993.493 108.448 972.482C92.1808 954.381 76.4453 930.549 74.4961 905.893C74.5492 900.531 74.2125 893.697 79.564 890.63C84.3308 887.669 91.0467 889.631 93.2972 894.818C95.1578 899.112 93.0845 903.843 94.0237 908.346C98.8081 936.419 119.346 959.568 140.025 977.792C158.685 992.81 181.987 1002.38 206.122 1002.94C209.542 1003.64 211.19 1007.53 209.613 1010.51C203.907 1018.87 188.632 1017.83 179.701 1016.48Z" fill="black"/>
<path d="M454.187 78.7331C410.507 74.913 366.348 70.1641 324.387 57.0215C298.94 49.0834 275.621 35.7305 254.799 19.3285C252.549 17.4885 250.281 15.5784 248.385 13.3705C247.251 12.0562 245.922 10.7245 245.939 8.86703C245.939 7.11469 247.197 5.20456 249.04 4.85409C251.574 4.1882 253.293 6.04575 255.207 7.32496C271.51 17.1731 288.627 26.2678 305.922 33.7678C334.735 45.5436 365.232 50.6955 395.711 55.0238C460.602 64.2587 526.557 66.6244 591.962 62.5414C612.89 61.2622 633.782 59.1242 654.373 55.1814C665.289 53.0786 676.116 50.5027 686.943 47.9618C694.952 46.3496 703.033 42.8099 711.29 43.8613C719.353 45.6838 720.93 57.6523 713.435 61.3497C685.188 68.0087 656.535 74.1243 627.58 77.4888C570.007 82.851 511.867 83.0614 454.187 78.7331Z" fill="black"/>
<path d="M655.011 1374.82C647.161 1369.13 647.143 1358.3 647.604 1349.54C647.675 1340.56 646.948 1333.73 646.434 1325.25C646.293 1321.13 645.212 1317.01 645.655 1312.89C646.169 1309.51 650.262 1308.3 652.707 1310.56C654.568 1312.28 655.862 1314.7 656.996 1316.92C662.152 1327.23 664.243 1338.74 664.669 1350.15C665.572 1359.07 663.836 1370.39 655.011 1374.82Z" fill="black"/>
<path d="M806.253 1374.05C794.788 1370.83 787.293 1363.73 781.48 1353.71C770.175 1334.87 759.879 1314.1 758.745 1291.88C758.302 1288.66 758.639 1283.66 762.874 1283.4C767.977 1283.17 769.608 1293.86 771.522 1297.61C773.471 1302.9 775.633 1308.07 778.096 1313.14C784.05 1324.88 788.781 1335.31 795.834 1346.08C801.841 1354.13 808.061 1363.62 806.253 1374.05Z" fill="black"/>
<path d="M634.668 1468.12C631.071 1446.28 624.213 1373.26 646.434 1361.94C649.429 1360.52 653.877 1361.21 655.312 1364.39C656.251 1366.16 655.879 1368.55 653.806 1369.41C652.282 1372.18 651.821 1375.44 651.024 1378.47C646.736 1404.42 646.789 1431.16 649.606 1457.27C649.961 1460.18 650.528 1463.05 650.935 1465.96C651.874 1476.55 636.671 1478.72 634.668 1468.12Z" fill="black"/>
<path d="M688.821 1421.15C681.361 1418.8 675.655 1413.16 671.065 1407.1C663.269 1397.53 661.39 1384.42 652.955 1375.4C650.492 1373.38 646.204 1373 646.753 1368.83C647.267 1364.8 652.406 1364.11 655.667 1364.48C669.967 1366.85 675.726 1381.81 682.92 1392.43C690.894 1403.09 697.38 1410.17 702.696 1392.96C705.921 1383.79 707.835 1373.89 713.683 1365.9C723.96 1353.57 741.22 1349.13 756.672 1347.41C766.772 1346.87 777.493 1346.57 786.796 1351.04C795.727 1355.55 806.36 1358.91 811.711 1367.92C812.969 1370.05 814.068 1372.54 814.015 1375.05C813.997 1375.28 813.731 1375.38 813.554 1375.49C800.707 1382.69 788.391 1371.09 776.572 1367.13C765.372 1364.43 753.394 1365.95 742.496 1369.3C737.977 1371.04 733.281 1372.98 729.666 1376.24C723.659 1384.06 722.826 1394.41 719.034 1403.28C715.242 1415.63 702.094 1425.8 688.821 1421.15Z" fill="black"/>
<path d="M925.05 1507.68C921.807 1507.21 919.946 1504.41 918.972 1501.59C917.395 1495.73 920.23 1489.67 920.407 1483.73C920.531 1475.04 920.301 1465.47 915.605 1457.85C906.479 1446.07 890.105 1440.52 877.524 1433.79C868.965 1429.85 861.221 1424.54 853.761 1418.86C837.175 1407.54 821.812 1394.66 807.317 1380.83C802.089 1376.01 796.649 1371.12 792.821 1365.08C790.943 1362.1 793.707 1358.37 797.074 1358.79C809.443 1361.7 820.075 1369.55 829.626 1377.52C839.532 1385.53 849.438 1393.54 859.999 1400.69C869.213 1406.84 878.889 1414.16 888.759 1418.82C902.793 1425.92 918.032 1432.33 928.328 1444.57C934.247 1452.12 936.178 1461.53 936.94 1470.83C938.375 1481.15 940.821 1508.35 925.05 1507.68Z" fill="black"/>
<path d="M790.961 1542.87C772.053 1542.19 752.951 1540.3 734.805 1534.83C718.839 1529.97 709.518 1519.02 700.41 1505.91C694.12 1498.06 684.834 1493.05 675.07 1490.76C663.658 1487.23 633.995 1484.31 637.574 1467.71C639.169 1461.44 647.94 1460.28 652.069 1463.54C653.062 1464.24 654.107 1464.87 655.17 1465.47C660.38 1467.96 666.068 1469.4 671.562 1471.13C682.885 1474.57 694.881 1478.09 704.716 1484.76C713.275 1490.83 718.857 1499.73 725.094 1507.91C728.054 1511.64 731.81 1514.64 736.028 1516.9C756.052 1526.08 779.442 1528.64 801.203 1528.61C816.495 1528.29 831.77 1527.75 846.903 1525.35C870.135 1521.93 895.457 1519.97 915.02 1505.91C917.873 1503.6 920.513 1501.06 922.87 1498.26C924.961 1494.86 929.675 1494.3 931.057 1498.62C931.269 1503.95 927.052 1508.63 923.685 1512.42C914.187 1522.07 901.251 1527.22 888.351 1530.85C856.579 1538.81 823.796 1543.59 790.961 1542.87Z" fill="black"/>
<path d="M643.138 1503.55C642.146 1502.06 641.49 1500.78 641.207 1499.08C639.417 1490.93 637.273 1482.82 636.741 1474.46C636.493 1470.03 635.66 1465.26 636.989 1460.95C637.911 1458.95 639.966 1457.65 642.182 1458.44C644.45 1459.25 645.052 1461.53 645.726 1463.54C648.844 1473.53 652.548 1483.34 655.241 1493.46C655.95 1496.5 656.358 1497.99 655.897 1500.78C654.834 1506.4 646.452 1508.23 643.138 1503.55Z" fill="black"/>
<path d="M922.675 1536.42C918.688 1535.51 916.367 1531.41 916.845 1527.52C917.146 1525.45 917.767 1523.4 917.749 1521.28C919.113 1513.05 919.805 1504.65 922.02 1496.56C923.65 1491.83 924.164 1486.55 926.29 1482.06C928.381 1478.96 931.872 1479.84 932.971 1483.24C933.892 1487.6 933.892 1492.33 934.477 1496.71C935.611 1504.6 934.601 1512.5 934.122 1520.39C933.29 1527.19 932.244 1538.16 922.675 1536.42Z" fill="black"/>
<path d="M786.371 1570.52C774.711 1569.52 763.14 1567.75 751.834 1565.41C736.843 1561.62 722.472 1554.02 711.698 1542.96C701.385 1533.51 694.864 1521.16 681.627 1516.22C671.384 1513.8 660.628 1513.4 650.776 1509.31C647.09 1507.75 643.386 1505.58 641.065 1502.29C638.194 1497.99 640.87 1491.42 646.417 1491.46C649.695 1491.3 652.087 1493.58 654.019 1495.87C655.915 1497.29 658.236 1497.99 660.469 1498.75C667.61 1501.18 675.247 1501.18 682.46 1503.16C686.695 1504.49 690.593 1506.86 694.226 1509.35C701.544 1513.85 707.091 1520.35 712.814 1526.59C720.735 1535.25 731.031 1543.38 741.787 1547.6C758.603 1555.28 777.369 1557.12 795.621 1558.55C822.06 1559.33 848.374 1556.45 873.555 1548.5C888.599 1544.41 903.36 1539.12 917.199 1531.95C920.69 1530.6 924.323 1525.52 928.115 1528.47C930.631 1530.83 928.399 1534.14 926.45 1536.09C918.422 1544.57 906.762 1549.27 896.183 1553.25C881.103 1558.34 865.917 1563.36 850.483 1567.26C829.467 1571.42 807.706 1571.42 786.371 1570.52Z" fill="black"/>
<path d="M741.982 1427.57C750.612 1411.27 767.588 1399.3 785.521 1394.94C798.385 1392.49 811.552 1395.24 824.239 1397.51C824.009 1397.64 823.637 1397.5 823.335 1397.53C809.62 1397.41 795.302 1396.64 782.278 1401.54C774.197 1404.59 766.967 1409.36 760.039 1414.23C754.103 1418.91 746.89 1422.68 742.106 1428.53C742.106 1428.57 742.124 1428.58 742.124 1428.62C742.141 1428.64 742.159 1428.64 742.177 1428.65C742.212 1428.65 742.23 1428.67 742.248 1428.67C742.318 1428.71 742.567 1428.65 742.513 1428.74C741.751 1429 741.769 1428.27 741.982 1427.57Z" fill="black"/>
<path d="M762.52 1449.72C762.272 1449.42 762.591 1448.54 762.679 1448.23C765.444 1440.88 771.149 1435.03 776.749 1429.67C789.968 1417.81 807.334 1409.94 825.373 1411.01C828.599 1411.06 832.107 1411.09 835.19 1411.59C834.889 1411.62 834.606 1411.64 834.304 1411.67C817.541 1413.64 801.256 1418.75 787.204 1428.16C781.02 1431.9 774.977 1435.89 769.625 1440.73C767.003 1443.43 763.636 1446.11 762.555 1449.7C762.591 1449.72 762.537 1449.75 762.52 1449.72Z" fill="black"/>
<path d="M776.058 1462.37C784.812 1448.89 798.031 1438.26 812.65 1431.51C823.318 1426.55 835.155 1425.08 846.85 1425.04C850.004 1425.03 853.354 1424.89 856.384 1425.2C853.903 1425.66 851.422 1426.25 849.065 1426.81C839.851 1429.09 830.477 1431.28 821.705 1434.93C812.526 1438.54 804.286 1444.07 795.798 1448.98C788.834 1453.59 780.807 1457.34 775.828 1463.95C775.845 1464 775.863 1464.07 775.881 1464.12C776.005 1464.26 776.483 1464.09 776.483 1464.19C775.225 1464.72 775.544 1463.23 776.058 1462.37Z" fill="black"/>
<path d="M71.8734 970.537C75.9845 961.057 82.2929 953.382 88.5127 945.566C89.6468 944.112 90.7632 942.57 92.5352 941.834C94.1301 941.168 95.9907 940.958 97.3728 942.149C102.228 946.688 94.6616 959.042 91.1175 963.02C86.2445 968.33 78.802 970.169 71.8734 970.537Z" fill="black"/>
<path d="M21.8846 1027.14C15.3459 1023.02 17.3659 1016.52 21.5656 1011.52C27.6436 1000.56 35.9722 990.987 44.5665 981.875C51.7255 975.041 58.2465 967.313 66.6991 962.003C81.6195 953.89 84.4902 973.026 73.7694 971.011C63.2082 982.366 54.5961 995.386 44.3892 1007.07C40.5971 1011.84 36.9823 1016.8 34.1647 1022.2C32.4813 1027.05 26.5096 1029.8 21.8846 1027.14Z" fill="black"/>
<path d="M195.259 1074.63C188.313 1069.28 186.399 1060.49 184.822 1052.42C183.989 1048.85 183.05 1045.31 182.022 1041.81C180.516 1037.14 179.506 1031.73 175.36 1028.58C164.745 1022.39 151.42 1020.34 139.512 1021.22C130.173 1021.86 126.062 1030.77 120.427 1036.83C115.465 1041.98 109.405 1048.27 101.555 1047.31C95.335 1046.34 89.2215 1043.22 85.3585 1038.23C76.144 1025.81 77.7743 1009.7 77.7743 995.123C77.4376 988.359 76.2503 983.312 75.3997 976.951C75.063 975.286 74.8504 973.429 73.6632 972.115C71.5722 970.923 69.9242 968.067 71.7316 965.964C73.3619 964.176 75.701 964.177 77.8451 965.018C87.3963 969.381 89.7177 983.592 91.3834 992.897C93.4212 1005.32 88.2646 1029.24 103.221 1034.45C117.432 1022.65 116.989 1008.91 139.636 1006.67C152.695 1005.72 166.216 1007.76 178.532 1012.1C188.012 1015.33 194.622 1023.27 197.386 1032.64C200.257 1040.7 202.826 1048.94 204.545 1057.33C205.732 1064.06 204.013 1070.79 200.487 1076.61C200.398 1076.75 200.345 1076.94 200.239 1077.05C198.378 1076.69 196.748 1075.78 195.259 1074.63Z" fill="black"/>
<path d="M177.468 1222.1C133.504 1208.37 104.39 1168.68 87.0242 1128.27C83.0372 1119.08 80.1133 1109.43 75.2048 1100.67C69.5875 1091.83 62.4463 1084.09 55.5532 1076.22C43.7692 1062.38 30.3372 1049.57 21.4948 1033.57C16.7458 1025.56 18.3406 1015.52 23.6213 1008.16C27.9273 1013.91 31.9143 1020.02 35.8128 1026.09C51.8673 1051.65 78.9439 1068.86 93.6517 1095.37C97.9223 1104.49 100.952 1114.12 104.993 1123.32C114.686 1144.35 126.594 1164.93 143.481 1181.08C152.27 1189.16 162.158 1196.03 172.56 1201.9C186.08 1209.89 202.932 1208.45 216.896 1202.36C229.903 1196.48 235.006 1186.15 232.862 1172.32C231.745 1164.29 227.404 1157.29 223.86 1150.12C217.303 1136.5 210.233 1123.13 203.996 1109.36C197.581 1094.5 191.769 1079.08 190.28 1062.87C189.926 1059.26 189.589 1055.65 189.589 1052C189.571 1048.74 193.753 1046.78 196.234 1048.99C198.343 1051.09 199.672 1053.88 200.965 1056.51C206.122 1067.81 209.808 1079.71 214.84 1091.06C219.891 1102.07 225.561 1112.78 231.054 1123.57C238.674 1140.25 249.891 1156.43 250.44 1175.25C253.329 1211.82 208.497 1230.03 177.468 1222.1Z" fill="black"/>
<path d="M195.738 1241.29C192.371 1239.05 192.282 1233.6 195.543 1231.22C197.669 1229.76 200.345 1228.01 202.348 1226.57C206.583 1223.61 210.587 1220.37 214.752 1217.3C221.539 1212.33 227.882 1206.77 233.854 1200.87C236.583 1198.31 240.162 1196.85 242.767 1194.42C243.441 1194.22 242.218 1199.53 242.094 1199.92C241.066 1203.91 238.444 1207.16 235.768 1210.19C231.763 1214.88 227.581 1219.42 223.559 1224.08C218.296 1229.76 212.005 1234.37 206.086 1239.35C203.393 1242.05 199.211 1243.8 195.738 1241.29Z" fill="black"/>
<path d="M5.97177 1044.57C-0.212594 1040.89 1.50628 1034.34 5.65282 1029.8C8.98422 1025.35 12.3156 1020.83 16.3558 1016.99C17.9329 1015.64 19.3506 1014.03 21.0872 1012.89C25.4109 1010.19 30.3548 1013.12 29.4688 1018.22C29.2207 1019.97 28.2816 1021.69 27.5374 1023.28C24.7021 1029.29 21.2643 1035.01 17.4899 1040.49C15.5584 1044.78 10.1892 1046.99 5.97177 1044.57Z" fill="black"/>
<path d="M188.792 1243.11C152.518 1241.22 119.807 1219.46 95.6185 1193.84C83.9763 1179.1 77.5616 1161.16 69.4812 1144.42C64.6967 1134.07 62.3222 1122.73 56.4036 1112.9C48.5536 1099.7 37.9214 1088.65 26.0666 1078.94C17.2774 1070.65 6.96417 1063.45 1.89618 1052.14C-1.73647 1046.33 -0.318884 1036.11 7.61978 1035.08C11.8549 1034.78 15.7534 1037.76 17.6318 1041.33C19.0317 1044.84 20.591 1048.24 23.0364 1051.18C33.3141 1064.2 48.1106 1072.93 57.8567 1086.42C65.5119 1096.43 72.2987 1107.15 77.5439 1118.58C80.769 1125.83 83.0194 1133.45 86.2977 1140.69C98.4006 1166.31 104.018 1187.18 128.49 1204.62C143.339 1215.59 160.032 1224.29 178.053 1228.89C186.222 1231.27 194.799 1231.65 203.039 1233.53C205.75 1234.49 206.884 1238.3 204.456 1240.26C199.955 1243.26 194.019 1242.99 188.792 1243.11Z" fill="black"/>
<path d="M139.954 1082.34C139.246 1082.02 139.582 1081.29 139.901 1080.69C143.339 1074.84 148.886 1070.3 154.946 1067.27C174.367 1058.38 198.803 1060.26 216.081 1072.96C218.384 1074.71 220.564 1077.1 222.141 1079.39C219.837 1077.62 217.551 1076.19 214.982 1074.94C197.421 1067.46 177.008 1068.11 159.128 1073.94C152.695 1076.33 144.899 1077.4 139.795 1082.07C139.813 1082.16 140.043 1082.3 139.954 1082.34Z" fill="black"/>
<path d="M154.113 1109.66C153.9 1109.38 154.148 1108.83 154.237 1108.6C158.295 1101.81 166.269 1098.46 173.357 1095.53C190.369 1089.66 210.836 1088.14 226.093 1098.97C224.551 1098.62 222.69 1098.16 221.131 1097.93C208.62 1095.53 195.897 1096.97 183.422 1098.97C174.208 1100.63 159.801 1101.49 154.148 1109.59C154.148 1109.6 154.166 1109.69 154.113 1109.66Z" fill="black"/>
<path d="M166.269 1127.43C164.586 1125.39 175.023 1119.47 176.777 1118.58C196.482 1107.57 218.26 1110.08 237.717 1120.14C237.735 1120.15 237.735 1120.19 237.717 1120.17C220.227 1118.12 202.542 1117.56 185.212 1121.19C181.491 1121.99 166.872 1123.9 166.269 1127.43Z" fill="black"/>
</g>
<g id="Shoes">
<path d="M822.901 1397.8C823.22 1397.76 823.574 1397.92 823.805 1397.78C811.119 1395.5 797.954 1392.75 785.091 1395.21C767.161 1399.57 750.187 1411.56 741.558 1427.84C741.328 1428.54 741.31 1429.27 742.09 1428.99C742.143 1428.9 741.877 1428.96 741.824 1428.92C741.806 1428.92 741.771 1428.9 741.753 1428.9C741.735 1428.89 741.717 1428.87 741.7 1428.87C741.7 1428.83 741.682 1428.8 741.664 1428.78C746.448 1422.95 753.659 1419.18 759.595 1414.48C766.523 1409.61 773.752 1404.84 781.831 1401.79C794.871 1396.91 809.187 1397.68 822.901 1397.8ZM833.869 1411.94C834.152 1411.91 834.453 1411.89 834.755 1411.85C831.672 1411.36 828.181 1411.34 824.939 1411.27C806.902 1410.21 789.538 1418.07 776.321 1429.94C770.722 1435.3 765.017 1441.17 762.253 1448.5C762.164 1448.81 761.845 1449.69 762.093 1449.99C762.111 1450.02 762.164 1449.99 762.129 1449.95C763.209 1446.36 766.576 1443.68 769.198 1440.98C774.549 1436.14 780.608 1432.15 786.774 1428.41C800.825 1419.02 817.108 1413.92 833.869 1411.94ZM855.945 1425.47C852.915 1425.15 849.567 1425.29 846.413 1425.31C834.719 1425.35 822.883 1426.82 812.217 1431.78C797.6 1438.54 784.382 1449.16 775.63 1462.64C775.116 1463.5 774.815 1464.99 776.055 1464.46C776.055 1464.36 775.594 1464.53 775.453 1464.39C775.435 1464.34 775.417 1464.27 775.399 1464.21C780.396 1457.61 788.404 1453.86 795.367 1449.25C803.854 1444.33 812.093 1438.81 821.271 1435.2C830.041 1431.57 839.414 1429.36 848.628 1427.08C850.984 1426.52 853.465 1425.92 855.945 1425.47ZM915.176 1458.13C919.854 1465.76 920.102 1475.32 919.978 1484.02C919.783 1489.96 916.948 1496 918.525 1501.87C918.596 1502.08 918.684 1502.31 918.755 1502.52C917.426 1503.82 916.027 1505.05 914.592 1506.22C895.031 1520.27 869.712 1522.24 846.484 1525.65C831.353 1528.05 816.08 1528.58 800.789 1528.91C779.032 1528.95 755.644 1526.37 735.605 1517.21C731.388 1514.95 727.632 1511.95 724.673 1508.22C718.436 1500.03 712.873 1491.13 704.297 1485.07C694.464 1478.39 682.486 1474.89 671.147 1471.43C665.654 1469.72 659.967 1468.28 654.758 1465.77C653.695 1465.18 652.667 1464.55 651.657 1463.85C651.161 1463.44 650.576 1463.13 649.974 1462.85C649.69 1461.1 649.389 1459.33 649.177 1457.56C646.359 1431.45 646.306 1404.7 650.594 1378.75C650.913 1377.51 651.179 1376.23 651.498 1374.96C651.87 1375.18 652.224 1375.42 652.543 1375.68C660.959 1384.71 662.855 1397.83 670.633 1407.38C675.222 1413.45 680.909 1419.09 688.386 1421.44C701.657 1426.08 714.804 1415.92 718.631 1403.56C722.423 1394.68 723.255 1384.34 729.262 1376.52C732.876 1373.25 737.571 1371.32 742.072 1369.59C752.968 1366.24 764.946 1364.7 776.143 1367.39C785.002 1370.37 794.109 1377.61 803.535 1378.05C804.652 1379.08 805.768 1380.12 806.884 1381.13C821.378 1394.96 836.739 1407.86 853.323 1419.16C860.782 1424.82 868.525 1430.13 877.083 1434.09C889.68 1440.8 906.051 1446.36 915.176 1458.13Z" fill="white"/>
<path d="M917.94 1517.4C917.745 1518.8 917.533 1520.19 917.302 1521.57C917.338 1523.69 916.7 1525.74 916.399 1527.81C916.204 1529.3 916.434 1530.81 917.019 1532.17C916.93 1532.21 916.842 1532.24 916.753 1532.28C902.933 1539.45 888.174 1544.74 873.131 1548.82C847.954 1556.78 821.643 1559.65 795.208 1558.88C776.958 1557.42 758.177 1555.6 741.363 1547.93C730.608 1543.7 720.314 1535.55 712.394 1526.9C706.671 1520.66 701.126 1514.16 693.808 1509.65C690.176 1507.17 686.278 1504.8 682.043 1503.47C674.832 1501.47 667.196 1501.49 660.055 1499.05C658.549 1498.54 657.008 1498.05 655.573 1497.37C655.431 1496.32 655.165 1495.21 654.829 1493.76C654.067 1490.89 653.216 1488.03 652.313 1485.19C660.268 1487.94 669.393 1489.45 674.655 1491.08C684.418 1493.36 693.72 1498.37 699.992 1506.24C709.081 1519.35 718.418 1530.3 734.382 1535.15C752.508 1540.64 771.625 1542.51 790.513 1543.21C823.326 1543.93 856.122 1539.15 887.891 1531.21C898.557 1528.16 909.205 1524.13 917.94 1517.4Z" fill="white"/>
<path d="M232.521 1172.61C234.665 1186.44 229.545 1196.78 216.557 1202.65C202.578 1208.75 185.746 1210.19 172.227 1202.2C161.827 1196.31 151.94 1189.46 143.152 1181.36C126.249 1165.22 114.36 1144.63 104.668 1123.6C100.611 1114.38 97.5989 1104.76 93.3289 1095.65C78.623 1069.14 51.5323 1051.91 35.4975 1026.36C34.8243 1025.33 34.1687 1024.29 33.4954 1023.26C33.6194 1022.99 33.7257 1022.73 33.8143 1022.45C36.6315 1017.05 40.246 1012.1 44.0376 1007.33C54.0483 995.903 62.4819 983.18 72.7584 972C72.9533 972.14 73.1304 972.28 73.3253 972.385C74.5124 973.7 74.725 975.54 75.0617 977.222C75.9121 983.601 77.0816 988.63 77.4359 995.395C77.4359 1009.96 75.8058 1026.08 85.0191 1038.5C88.8817 1043.5 94.9767 1046.62 101.213 1047.58C109.062 1048.54 115.104 1042.25 120.083 1037.1C125.717 1031.04 129.828 1022.14 139.165 1021.49C151.072 1020.61 164.396 1022.66 175.009 1028.85C179.155 1031.98 180.165 1037.4 181.671 1042.08C182.698 1045.6 183.637 1049.14 184.47 1052.72C185.108 1055.91 185.781 1059.22 186.809 1062.39C175.859 1061.27 164.573 1063 154.615 1067.56C148.556 1070.59 143.01 1075.13 139.573 1080.98C139.254 1081.58 138.917 1082.31 139.626 1082.63C139.697 1082.58 139.484 1082.44 139.467 1082.35C144.569 1077.65 152.383 1076.58 158.797 1074.22C168.807 1070.96 179.598 1069.31 190.246 1069.8C190.494 1070.17 190.742 1070.54 191.008 1070.89C192.213 1077.81 194.126 1084.61 196.43 1091.27C188.439 1091.51 180.395 1093.25 173.007 1095.81C165.919 1098.72 157.946 1102.08 153.889 1108.88C153.8 1109.11 153.552 1109.65 153.765 1109.93C153.818 1109.97 153.8 1109.88 153.765 1109.84C159.435 1101.77 173.822 1100.89 183.035 1099.22C188.191 1098.4 193.382 1097.68 198.609 1097.28C200.204 1101.45 201.922 1105.57 203.676 1109.63C203.978 1110.3 204.279 1110.98 204.598 1111.65C195.048 1111.56 185.515 1113.75 176.426 1118.83C174.672 1119.75 164.236 1125.65 165.919 1127.68C166.522 1124.14 181.157 1122.23 184.86 1121.44C192.514 1119.85 200.239 1119.06 207.982 1118.87C213.049 1129.42 218.435 1139.83 223.52 1150.38C227.082 1157.56 231.405 1164.59 232.521 1172.61Z" fill="white"/>
<path d="M207.911 1222.49C205.962 1223.98 203.995 1225.45 201.975 1226.85C199.973 1228.29 197.298 1230.04 195.172 1231.5C194.853 1231.72 194.569 1231.99 194.321 1232.27C188.74 1231.43 183.124 1230.72 177.684 1229.13C159.665 1224.54 142.975 1215.85 128.127 1204.86C103.676 1187.42 98.0419 1166.55 85.9405 1140.93C82.6627 1133.69 80.4125 1126.07 77.1878 1118.82C71.9433 1107.39 65.1574 1096.67 57.5032 1086.66C47.7583 1073.15 32.9638 1064.44 22.6874 1051.42C20.2246 1048.49 18.6654 1045.08 17.2834 1041.57C17.1948 1041.4 17.0886 1041.22 17 1041.06C17.0532 1040.96 17.1062 1040.85 17.1594 1040.75C18.63 1038.63 20.0475 1036.45 21.394 1034.25C30.2353 1050.05 43.5238 1062.76 55.1999 1076.48C62.0922 1084.33 69.2502 1092.09 74.8491 1100.92C79.7569 1109.69 82.6804 1119.36 86.6846 1128.52C104.031 1168.93 133.141 1208.63 177.117 1222.37C186.685 1224.82 197.546 1224.78 207.911 1222.49Z" fill="white"/>
</g>
<g id="Skin">
<path d="M151.356 1006.96C147.568 1006.75 143.761 1006.77 140.008 1007.05C117.364 1009.29 117.807 1023 103.626 1034.77C88.6654 1029.58 93.8351 1005.7 91.7991 993.297C90.4359 985.775 88.6654 975.07 83 968.948C86.2045 967.793 89.1611 966.026 91.5158 963.455C92.7374 962.073 94.4547 959.711 95.9596 957C100.032 962.668 104.422 968.003 108.848 972.919C120.834 986.405 135.139 998.615 151.356 1006.96Z" fill="#B7B5B5"/>
<path d="M778 1347.96C770.989 1346.53 763.589 1346.79 756.489 1347.17C741.034 1348.91 723.807 1353.33 713.539 1365.63C707.679 1373.61 705.784 1383.49 702.562 1392.64C697.251 1409.82 690.771 1402.77 682.804 1392.11C676.891 1383.38 671.934 1371.68 662.373 1366.54C664.693 1361.48 665.1 1355.27 664.569 1349.94C664.179 1339.57 662.426 1329.1 658.23 1319.57C662.267 1319.82 666.321 1319.96 670.358 1320.06C696.773 1320.87 721.984 1310.95 745.761 1300.63C750.063 1298.49 754.4 1296.34 758.685 1294.07C760.207 1313.26 768.422 1331.31 778 1347.96Z" fill="#B7B5B5"/>
</g>
<g id="Clothing 3">
<path d="M789.288 1244.44C790.352 1247.72 790.529 1251.52 792 1254.68C789.731 1257.1 787.321 1259.39 784.804 1261.57C758.609 1283.26 707.015 1302 672.844 1302C652.037 1301.51 631.034 1298.84 611.379 1291.89C611.379 1291.87 611.361 1291.85 611.361 1291.83C593.07 1251.91 578.785 1211.21 564.287 1169.67C540.998 1099.77 521.857 1028.45 510.425 955.681C506.118 929.058 500.571 902.662 495.98 876.091C491.532 849.625 489.033 822.878 484.247 796.465C475.616 744.006 454.365 694.685 430.634 647.362C418.971 623.788 407.611 600.038 394.726 577.078C381.947 554.222 368.317 531.84 356.407 508.512C329.308 452.775 304.176 396.093 281.33 338.516C261.692 290.772 245.457 241.205 237.836 190.096C234.097 162.806 233.21 135.079 234.859 107.596C236.436 84.6705 242.303 62.5863 246.095 39.9237C247.194 31.5633 248.914 23.3079 250.314 15C251.82 16.5073 253.469 17.8745 255.099 19.2241C275.924 35.612 299.248 48.9852 324.7 56.9074C366.669 70.0528 410.836 74.8027 454.525 78.6236C512.215 82.9353 570.366 82.7423 627.968 77.3966C655.723 74.154 683.23 68.4227 710.312 62.0779C711.251 69.6321 711.96 77.2215 712.545 84.8107C715.93 126.701 711.783 168.468 705.846 210.024C698.721 261.116 684.932 310.736 665.631 358.918C655.351 384.928 642.094 410.886 630.343 436.475C626.958 444.029 623.076 451.373 619.248 458.735C614.286 446.588 609.11 434.512 603.634 422.559C595.055 403.209 587.789 383.315 579.388 363.878C570.544 343.914 562.231 323.723 555.284 303.041C550.126 288.371 545.695 274.139 541.105 259.171C539.829 255.578 538.623 251.932 537.365 248.321C536.674 245.009 534.529 241.24 535.77 237.945C535.894 237.91 535.983 237.98 536.124 238.015C536.142 238.015 536.16 237.998 536.142 237.98C535.114 237.122 534.352 239.225 534.139 239.891C530.719 251.879 533.147 264.569 536.355 276.347C541.955 297.783 548.176 319.078 555.532 339.988C563.047 360.109 570.987 380.09 578.253 400.299C598.6 450.462 619.709 500.396 635.483 552.242C649.697 598.408 669.495 643.173 677.896 690.951C679.278 699.803 680.146 708.689 680.625 717.61C681.759 738.117 683.602 758.589 685.268 779.043C688.725 821.949 695.371 864.505 705.704 906.325C724.048 990.192 746.911 1072.97 769.012 1155.91C775.18 1178.52 777.786 1201.85 784.397 1224.35C786.116 1231.09 787.675 1237.76 789.288 1244.44Z" fill="white"/>
<path d="M443.785 721.046C434.196 735.821 423.757 750.088 413.495 764.39C405.448 773.715 396.143 781.882 387.317 790.453C373.245 803.914 360.271 818.426 347.155 832.781C314.172 866.503 282.588 901.487 251.005 936.471C238.084 950.774 226.032 965.794 214.76 981.411C211.304 986.003 207.688 990.455 204.002 994.854C201.875 997.291 199.163 999.744 197.338 1002.43C176.477 1000.01 156.609 991.033 140.268 977.906C119.567 959.677 99.0428 936.524 94.2575 908.446C93.5662 905.15 94.5056 901.75 94.3283 898.473C95.3386 897.404 96.1893 896.229 96.7742 895.037C101.896 887.15 106.877 879.193 111.822 871.183C124.582 851.027 137.042 830.66 151.54 811.661C176.583 778.552 205.313 748.493 231.97 716.646C248.382 696.683 264.103 676.176 280.515 656.23C286.842 648.413 295.722 641.069 299.656 631.394C304.583 620.159 311.691 609.941 315.767 598.321C319.914 586.35 323.388 574.151 327.092 562.039C331.736 546.353 336.769 530.753 339.782 514.698C343.451 522.06 347.191 529.369 351.001 536.66C370.125 569.979 389.639 603.07 405.555 638.054C418.918 665.397 432.565 692.774 443.785 721.046Z" fill="white"/>
</g>
</g>
</svg>
