<svg width="283" height="245" viewBox="0 0 283 245" fill="none" xmlns="http://www.w3.org/2000/svg">
<path fill-rule="evenodd" clip-rule="evenodd" d="M212.041 152.834C212.041 152.834 167.651 159.357 147.781 150.138C127.971 140.949 108.701 132.057 90.7308 119.884C72.3208 107.413 56.7008 92.6033 45.5508 73.6462C35.1808 56.0075 26.5608 37.291 17.8808 18.7189C17.3736 17.6336 12.3908 6.84431 10.6308 3.22611C7.92081 -2.38401 0.000808387 -0.623038 0.000808387 8.08566C0.000808387 16.7944 -0.389192 82.7459 14.8308 108.689C28.5608 132.121 51.8308 148.493 74.9508 162.783C100.531 178.584 134.511 195.664 165.031 200.177C192.651 204.257 224.171 192.797 244.171 173.907C265.081 154.151 271.001 127.312 281.791 101.609C284.201 95.8646 275.657 92.3999 273.151 98.0498C268.431 108.689 212.041 152.834 212.041 152.834Z" fill="black"/>
</svg>
