<svg width="296" height="247" viewBox="0 0 296 247" fill="none" xmlns="http://www.w3.org/2000/svg">
<path fill-rule="evenodd" clip-rule="evenodd" d="M249.132 128.724C245.642 127.582 242.214 126.253 238.77 124.972C221.161 116.127 199.89 114.523 181.423 121.972C172.359 125.628 163.907 132.197 154.812 136.502C152.652 137.308 150.474 138.04 148.272 138.654C146.922 138.184 145.572 137.684 144.232 137.184C134.585 133.548 125.511 129.063 116.701 124.129C115.761 122.806 114.786 121.52 113.738 120.285C120.113 119.38 126.355 117.876 132.002 116.324C149.342 111.574 165.682 103.834 182.962 98.8739C199.052 94.2439 216.512 91.7139 232.672 97.4639C240.342 100.194 247.092 104.974 254.552 108.194C258.412 109.854 263.042 111.484 267.552 111.724C264.642 118.694 260.962 125.204 255.932 130.624C253.632 130.134 251.352 129.444 249.132 128.724ZM286.653 74.1321C285.109 75.4151 278.737 79.5551 276.67 82.0231C276.136 81.8201 275.605 81.6121 275.077 81.3981C274.168 80.2821 272.829 79.7921 271.464 79.8221C261.935 75.3901 253.452 69.1271 245.882 61.2741C240.502 55.7041 234.992 49.8741 227.802 46.6441C219.332 42.8241 211.002 44.5841 202.102 45.1641C192.632 45.7941 183.282 43.1041 173.822 44.3941C166.902 45.3441 160.422 48.2741 154.822 52.4041C143.392 60.8341 135.512 72.6741 125.852 82.8841C114.892 94.4641 101.412 101.864 86.4216 105.644C86.2416 105.524 86.0516 105.404 85.8616 105.294C74.8116 95.2941 64.8316 84.0041 56.0016 71.9741C47.3816 60.2241 24.6516 7.33407 19.1616 2.69407C16.8816 0.764072 14.3816 -0.0659284 11.9916 0.00407165C7.66161 0.104072 3.66161 3.11407 1.87161 7.85407C-1.16839 15.9141 0.351612 26.3341 0.591612 34.7641C0.891612 45.0841 1.57161 55.3941 2.65161 65.6641C3.72161 75.8141 5.14161 85.9341 6.91161 95.9841C7.80161 101.064 8.79161 106.134 9.88161 111.184C10.2216 112.774 10.6516 114.194 11.1716 115.514C11.7016 118.004 12.2716 120.484 12.8816 122.944C16.8616 139.054 23.1416 155.184 35.1316 167.074C47.6116 179.464 64.5716 187.694 80.3216 195.054C95.3216 202.064 111.042 208.294 127.172 213.174C141.182 219.524 156.182 224.544 171.242 227.184C187.822 230.094 205.252 230.274 221.262 224.514C229.132 221.684 236.572 217.734 243.322 212.814C252.892 207.844 261.502 201.014 268.552 191.974C281.179 175.773 287.206 156.112 289.843 135.839C290.518 130.65 293.056 110.762 293.255 107.666C293.9 97.6667 294.544 87.6677 295.189 77.6681C295.493 72.9491 289.701 71.6021 286.653 74.1321Z" fill="black"/>
</svg>
