<svg width="308" height="260" viewBox="0 0 308 260" fill="none" xmlns="http://www.w3.org/2000/svg">
<path fill-rule="evenodd" clip-rule="evenodd" d="M4.40912 13.7554C11.4769 13.7554 14.3717 30.2101 14.3717 30.2101C32.3475 61.2059 49.6508 92.1145 80.5237 113.44C114.795 127.173 148.505 150.563 187.555 153.128C205.159 151.279 210.323 135.166 232.064 140.836C245.935 144.206 261.51 150.853 274.334 141.252C285.175 134.166 292.801 123.432 302.151 114.754C302.627 113.188 305.732 129.712 304.794 135.298L304.069 138.469C298.28 164.041 292.425 194.134 266.52 208.191C258.627 212.349 247.555 216.362 238.796 214.018C192.519 221.397 142.322 215.998 101.778 192.913C87.5043 189.205 76.8871 177.822 65.6473 169.224C38.1561 145.145 6.65114 114.642 3.71523 78.0614C0.779329 41.4806 2.08678 13.7554 4.40912 13.7554ZM144.235 85.986C159.986 60.6923 191.28 64.8 215.631 76.3238C229.082 67.1908 246.83 68.872 261.424 75.3063L261.422 75.3145C274.866 82.6694 285.048 94.7458 294.407 106.296C296.685 109.365 297.59 113.488 294.388 115.001C279.301 127.435 247.956 120.138 233.732 110.893C223.469 110.066 225.719 95.4952 213.873 105.693C205.969 113.123 196.039 117.73 185.253 120.461C161.136 128.74 138.932 127.365 117.929 114.459C115.227 114.197 104.159 107.937 108.092 105.709C112.369 106.864 136.067 93.2624 144.235 85.986Z" fill="white"/>
<path fill-rule="evenodd" clip-rule="evenodd" d="M0.725863 40.9484C0.88668 39.618 2.95196 39.5521 2.99823 40.9484C3.95542 70.2143 13.4855 102.299 29.6035 127.357C68.3383 190.605 147.4 222.288 223.494 211.402C279.103 210.648 285.044 179.138 298.866 135.139C306.04 129.249 309.565 131.359 307.337 138.264C290.202 191.357 284.335 221.809 216.541 221.231C107.685 236.768 -10.3661 147.764 0.725863 40.9484ZM154.516 64.5477C172.277 56.6192 193.41 57.7379 208.244 68.7016L209.29 68.9398C211.888 69.5206 214.381 69.9626 217.301 69.6654C256.556 49.0005 282.762 85.0401 302.888 112.024C304.406 112.076 305.643 113.267 305.232 114.662L305.877 115.352C303.341 122.151 298.76 128.715 292.497 132.839C271.959 160.184 256.623 151.636 229.866 140.377C202.352 136.258 201.239 168.69 162.855 153.833L161.407 153.361C148.78 149.191 134.284 142.865 125.104 133.724C124.804 133.424 125.097 132.847 125.556 132.997C146.856 139.418 174.243 160.385 195.923 146.259C201.403 142.581 206.326 138.117 212.453 135.347C247.43 123.644 259.722 169.863 290.329 121.878C265.406 126.221 237.316 121.903 218.687 104.934C190.839 138.474 136.638 133.1 102.176 112.268C97.463 112.947 90.4888 108.284 94.8293 103.847C99.577 100.073 107.088 101.552 112.925 99.5057C131.556 92.8778 135.955 71.7521 154.516 64.5477ZM216.776 78.573C197.093 64.5711 167.654 62.2134 148.816 78.731C137.052 90.5466 129.42 107.502 110.455 110.627C143.025 129.375 189.823 129.69 214.902 99.8609C215.689 97.2822 219.771 98.3944 220.264 100.635C238.221 113.165 261.189 119.823 283.556 115.981C287.161 115.389 290.721 114.548 294.193 113.466L290.892 108.929C273.339 84.9128 250.758 56.9462 217.279 76.6986C216.522 77.0818 216.203 76.1017 216.108 75.5987L215.697 75.8993C215.993 76.5199 218.461 78.5637 216.776 78.573ZM297.379 120.276C297.543 120.423 297.678 120.584 297.793 120.751C298.345 120.465 298.916 120.173 299.503 119.894L299.344 119.777C298.713 119.957 298.055 120.122 297.379 120.276ZM3.26174 4.63221L3.25426 3.67236C3.25515 -5.9872 5.85098 6.19115 7.01663 8.58698C12.0283 17.6094 16.2182 26.538 21.5273 35.3337C42.8152 73.6325 46.1119 90.2326 89.0072 112.05C92.1937 114.778 88.8464 119.676 84.8877 118.669C78.9663 117.164 73.3819 113.391 68.2237 110.349C39.0141 95.2838 28.1184 64.5524 15.0132 37.8047C11.1647 27.1985 2.28695 15.8834 3.26174 4.63221Z" fill="black"/>
</svg>
