<svg width="280" height="230" viewBox="0 0 280 230" fill="none" xmlns="http://www.w3.org/2000/svg">
<path fill-rule="evenodd" clip-rule="evenodd" d="M207.913 31.3284C196.792 26.3194 176.822 30.6904 169.572 32.4284C152.717 36.4704 135.761 45.2054 130.521 58.8904C124.616 74.3134 136.398 79.1684 138.131 78.3754C149.799 79.1974 163.694 71.8624 175.921 69.9694C185.847 68.4194 196.318 67.0664 205.618 61.7924C212.408 65.5274 227.744 67.5464 240.121 70.8124C250.662 73.5924 255.229 79.6214 265.001 78.3394C276.713 76.8034 271.919 52.1704 258.866 42.1914C244.58 31.2704 220.418 26.8414 207.913 31.3284ZM229.933 136.654C220.204 139.026 219.55 117.701 218.46 110.167C217.609 104.281 212.806 89.1018 200.63 89.7567C188.454 90.4116 183.878 103.129 184.495 111.039C184.896 116.168 189.622 142.15 174.535 145.437C164.916 145.403 153.788 144.754 143.674 142.889C131.77 140.193 116.291 130.754 112.202 149.343C110.731 156.033 163.168 175.91 186.437 177.708C210.036 182.49 237.646 175.137 254.447 157.084C258.269 152.977 269.035 135.93 269.802 131.754C271.414 122.979 267.682 117.332 256.824 120.425C249.154 124.521 236.19 135.128 229.933 136.654Z" fill="black"/>
</svg>
