<svg width="285" height="230" viewBox="0 0 285 230" fill="none" xmlns="http://www.w3.org/2000/svg">
<path fill-rule="evenodd" clip-rule="evenodd" d="M258.634 38.6644C252.04 37.4254 245.223 37.7734 238.673 36.3314C232.283 34.9234 227.208 30.7364 221.034 28.7874C215.601 27.0714 209.233 28.2334 205.002 31.5594C201.071 29.7424 196.604 29.3494 192.132 29.9494C185.35 30.8594 179.022 33.7294 172.981 36.8334C172.281 37.1934 171.58 37.5364 170.88 37.8834C159.718 37.6044 148.275 37.6264 137.322 40.0184C127.623 42.1374 118.454 47.0694 112.67 55.3074C106.197 64.5284 105.028 76.2704 104.03 87.1664C103.395 94.0824 113.001 95.4854 116.256 90.4774C119.631 85.2854 123.144 80.0814 127.641 75.7794C132.749 70.8924 138.962 68.9684 145.925 68.5224C161.293 67.5384 176.763 68.3634 192.146 67.6824C201.063 67.2874 210.991 63.8584 214.585 56.1064C218.421 62.1174 227.113 65.6914 234.262 66.2334C241.817 66.8074 249.488 65.4344 256.968 67.0084C264.114 68.5124 272.608 73.8344 271.019 82.3464C270.085 87.3464 276.406 90.2944 279.315 85.8444C291.194 67.6614 279.489 42.5854 258.634 38.6644Z" fill="black"/>
</svg>
