<svg width="312" height="230" viewBox="0 0 312 230" fill="none" xmlns="http://www.w3.org/2000/svg">
<path fill-rule="evenodd" clip-rule="evenodd" d="M305.269 13.0046C301.955 8.55564 295.998 2.71664 289.972 3.03064C289.201 3.07064 288.912 3.90564 289.375 4.47064C291.346 6.87764 294.039 8.58964 296.014 11.0466C298.351 13.9546 300.038 17.4616 301.135 21.0086C302.729 26.1616 303.169 31.9936 301.748 37.2336C299.244 46.4696 291.327 53.2396 282.689 56.6966C274.139 60.1186 263.851 61.2876 255.765 56.2736C243.83 48.8716 233.707 38.2016 218.706 37.9906C215.197 37.9416 212.724 39.5486 211.251 41.8426C209.771 39.6306 207.329 38.0656 203.908 38.0266C187.091 37.8376 174.539 49.4146 160.424 56.6316C150.885 61.5096 138.542 59.9956 128.701 56.7726C119.418 53.7336 109.341 47.6306 105.839 37.9936C103.906 32.6716 104.339 26.4576 106.324 21.2116C107.629 17.7616 109.644 14.4286 112.137 11.7176C114.722 8.90564 118.12 7.13764 120.768 4.47164C121.309 3.92664 120.882 3.07964 120.171 3.03064C108.925 2.26764 98.7699 15.6956 96.6469 25.4376C94.5559 35.0316 97.6739 44.6006 103.985 51.9216C116.818 66.8056 140.58 71.7146 159.074 67.3406C174.043 63.8016 188.26 55.6496 203.908 56.8196C207.338 57.0766 209.8 55.6466 211.286 53.4786C212.774 55.7096 215.252 57.1686 218.706 56.8346C233.29 55.4216 246.307 65.7496 260.463 68.2716C271.734 70.2786 283.909 67.5716 293.567 61.4996C303.662 55.1526 310.768 44.9716 311.236 32.8336C311.505 25.8506 309.456 18.6256 305.269 13.0046Z" fill="black"/>
</svg>
