<svg width="297" height="230" viewBox="0 0 297 230" fill="none" xmlns="http://www.w3.org/2000/svg">
<path fill-rule="evenodd" clip-rule="evenodd" d="M294.392 32.7223C293.059 28.7403 286.2 29.0873 286.622 33.7743C287.105 39.1293 285.272 45.1013 280.142 47.7013C274.77 50.4233 268.726 47.9763 265.449 43.3063C262.6 39.2473 260.635 34.8323 257.05 31.2923C253.717 28.0003 249.663 25.4613 245.228 23.9543C241.774 22.7813 238.191 22.4693 234.716 22.8543C226.056 20.8973 216.022 25.3483 210.625 32.1003C210.277 32.5353 209.954 32.9823 209.642 33.4333C209.107 32.7053 208.547 31.9843 207.954 31.2733C206.425 29.4413 204.527 29.0483 202.813 29.5473C193.052 22.2883 179.373 21.3263 168.287 27.8773C159.405 33.1263 152.058 40.8623 141.136 41.4643C132.485 41.9413 123.062 37.0053 122.452 27.4983C122.132 22.5343 115.368 18.3963 111.573 22.9923C103.595 32.6563 101.999 45.4933 106.413 57.1783C111.071 69.5073 120.561 78.1923 132.577 83.3013C145.553 88.8183 160.759 90.7343 174.796 90.2973C188.79 89.8613 201.514 84.4803 209.949 73.0333C210.956 71.6673 211.841 70.2793 212.617 68.8753C220.807 79.3033 233.645 83.6863 246.721 84.0013C260.401 84.3293 276.573 81.9283 286.245 71.3043C295.566 61.0643 298.783 45.8363 294.392 32.7223Z" fill="black"/>
</svg>
