<svg width="372" height="249" viewBox="0 0 372 249" fill="none" xmlns="http://www.w3.org/2000/svg">
<path fill-rule="evenodd" clip-rule="evenodd" d="M350.983 2.0011C348.863 -1.1889 342.853 0.751105 344.403 4.7711C361.226 42.9431 353.443 72.6331 306.162 67.4401C277.658 65.5891 249.976 40.3841 221.349 52.9261C213.968 58.8551 209.109 59.5901 201.31 53.1741C170.364 39.6331 135.324 63.7711 104.233 67.0311C55.5884 71.8141 29.1314 55.5401 53.7044 5.6411C55.2434 2.2511 50.7734 -2.21889 48.0334 1.2611C14.1024 40.7441 12.3984 93.7571 67.0154 114.211C107.1 127.559 183.759 138.604 211.273 98.3611C228.835 127.421 266.37 129.16 296.544 123.96C369.4 117.235 391.724 60.6271 350.983 2.0011Z" fill="black"/>
</svg>
