<svg width="286" height="230" viewBox="0 0 286 230" fill="none" xmlns="http://www.w3.org/2000/svg">
<path fill-rule="evenodd" clip-rule="evenodd" d="M258.53 37.2408C249.479 33.0088 239.751 30.4898 229.757 29.5968C225.435 29.2098 216.945 27.9888 212.348 30.8078C210.198 32.1278 208.381 33.9718 206.94 36.2238C206.378 35.4468 205.638 34.7848 205.17 33.9448C202.653 29.4228 187.205 29.3288 182.541 29.7128C171.481 30.6228 160.716 33.2198 150.578 37.5858C132.377 45.4258 117.087 61.7148 121.895 82.3948C122.575 85.3238 125.856 86.4628 128.559 85.9568C146.778 82.5418 164.997 79.1258 183.217 75.7108C187.446 74.9188 191.676 74.1258 195.905 73.3328C199.73 72.6158 204.418 72.3888 208.048 70.7388C209.508 71.3628 211.134 71.7588 212.87 72.1028C234.791 76.4568 256.74 80.6808 278.675 84.9698C281.305 85.4848 284.755 84.1508 285.227 81.2368C288.375 61.7928 275.992 45.4048 258.53 37.2408Z" fill="black"/>
</svg>
