<svg width="293" height="230" viewBox="0 0 293 230" fill="none" xmlns="http://www.w3.org/2000/svg">
<path fill-rule="evenodd" clip-rule="evenodd" d="M245.365 32.8226C231.339 30.4572 216.767 33.9531 203.243 37.6782C181.76 23.5728 153.923 37.8103 138.537 55.4329C133.271 59.7696 122.213 65.5298 128.039 73.8036C125.831 79.6522 125.24 82.4044 129.811 75.567C155.679 78.5451 183.434 72.9192 209.035 67.6129C217.752 70.5441 225.45 77.3976 235.033 75.0502C244.093 76.9767 253.901 78.7753 262.08 72.9629C268.308 72.7103 282.164 83.894 281.942 70.8883C280.015 58.4217 255.297 37.6782 245.365 32.8226Z" fill="white"/>
<path fill-rule="evenodd" clip-rule="evenodd" d="M255.885 72.8451C240.657 74.5301 225.214 72.0541 212.463 63.2121C211.132 62.2891 209.82 62.2991 208.75 62.8401C207.449 62.6961 206.118 63.2151 205.346 64.7011C202.144 70.8681 191.531 69.4941 185.697 69.6201C166.614 69.9881 146.865 68.9351 128.5 74.7041C146.064 40.3701 170.355 25.5481 207.942 39.0271C204.548 41.7601 221.484 35.3621 222.97 35.2401C248.976 28.7241 270.431 50.5361 280.912 72.1501C272.983 70.2631 264.098 71.9361 255.885 72.8451ZM292.208 78.6883C280.741 52.8593 258.131 24.4593 226.594 28.9233C220.119 29.8763 213.308 34.2993 206.789 33.5013C187.914 26.5303 172.334 22.9883 153.431 34.2603C145.411 34.8593 100.279 90.7363 121.726 86.1743C148.052 71.0563 193.826 85.2963 210.174 71.7743C242.269 92.8433 268.365 69.9563 286.453 83.1263C289.598 86.0113 294.009 82.4183 292.208 78.6883Z" fill="black"/>
</svg>
