<svg width="286" height="230" viewBox="0 0 286 230" fill="none" xmlns="http://www.w3.org/2000/svg">
<path fill-rule="evenodd" clip-rule="evenodd" d="M229.945 34C241.659 34.831 252.739 42.099 262.816 47.717C272.514 53.511 279.692 62.0954 285.426 71.6664L285.798 72.292C286.134 72.7907 285.534 73.3518 285.042 73.1614L284.965 73.125C275.448 68.35 265.406 64.48 256.062 59.271C246.938 53.63 235.734 51.702 226.541 46.571C221.287 42.676 222.864 34.301 229.945 34ZM199.476 39.6833C199.903 42.3553 198.824 46.5963 195.316 47.8353C189.153 50.0094 183.54 51.1815 177.35 52.8776L169.325 55.1251C153.91 59.4671 138.264 64.1282 124.617 70.9683L124.189 70.7803C114.276 64.5783 169.04 38.7043 187.949 34.5823C191.423 33.8243 198.831 35.6513 199.476 39.6833Z" fill="black"/>
</svg>
