<svg width="289" height="293" viewBox="0 0 289 293" fill="none" xmlns="http://www.w3.org/2000/svg">
<path fill-rule="evenodd" clip-rule="evenodd" d="M196.547 185.914C198.026 183.981 201.626 192.395 202.36 193.423L202.396 193.47C205.6 197.347 208.216 203.284 208.586 208.262C208.597 208.411 208.597 208.555 208.597 208.699C213.733 207.994 218.87 207.276 224.005 206.488C225.991 204.995 228.77 205.458 231.459 206.817C237.456 209.844 234.537 219.461 228.076 219.307C210.606 218.891 192.763 221.134 175.439 223.153C166.527 224.192 157.634 225.294 148.77 226.703C140.489 228.018 132.022 229.876 123.641 230.238C123.184 230.257 122.993 229.576 123.405 229.364C130.794 225.569 139.234 223.271 147.212 221.048C155.845 218.643 164.542 216.385 173.3 214.479C181.159 212.768 189.059 211.488 196.977 210.335C196.916 210.18 196.857 210.022 196.807 209.856C195.802 206.486 195.828 202.621 195.614 199.071L195.49 197.186C195.295 193.939 195.1 187.806 196.547 185.914ZM170.814 144.367C178.365 148.957 189.871 159.66 181.748 171.04C172.186 181.073 158.418 169.569 151.634 164.366C145.343 160.334 138.275 170.705 144.112 175.413C193.135 211.708 213.03 145.567 174.633 138.97C170.406 138.243 168.836 142.947 170.814 144.367ZM49.4013 103.967C61.9663 102.05 74.8373 101.83 87.5333 102.464C94.1343 102.793 100.727 103.283 107.305 103.935C110.739 104.276 114.17 104.658 117.594 105.087C120.05 105.395 123.842 106.801 126.176 106.161C133.308 104.208 140.079 110.957 138.112 118.098C136.161 125.184 127.8 127.053 122.422 122.797C119.872 121.898 117.307 121.046 114.727 120.25C114.53 121.063 114.241 121.867 113.833 122.644C113.375 123.514 112.934 124.39 112.516 125.279C112.606 125.137 111.915 126.794 111.896 126.842L111.344 128.285C110.381 130.773 109.302 133.133 106.687 134.422C103.092 136.194 97.4523 135.217 95.9993 130.989C93.7296 126.542 95.2317 120.33 96.5325 115.724L96.6333 115.37C80.9523 111.641 65.0113 108.845 49.4013 105.052C48.8913 104.928 48.8393 104.053 49.4013 103.967ZM235.893 87.2405C236.709 85.6075 238.559 85.6005 239.66 87.1345C242.108 90.54 236.627 95.4174 234.34 97.6838L234.111 97.9125C228.97 103.129 222.7 107.333 216.484 111.134C215.18 111.931 213.856 112.691 212.527 113.44C212.773 113.935 212.997 114.44 213.18 114.955C214.121 117.613 214.139 120.788 213.291 123.474C211.525 129.075 206.826 133.55 200.732 133.544C197.518 133.541 193.713 130.502 194.148 126.96C194.303 125.699 194.43 124.357 194.623 123.016C190.337 124.442 185.074 122.771 182.348 119.238C178.557 114.327 179.6 106.278 185.404 103.228C189.672 100.986 194.383 100.42 199.006 99.2345C203.594 98.0605 208.15 96.7115 212.641 95.2045C217.07 93.7185 221.478 92.1265 225.879 90.5535C228.056 89.7745 230.21 89.0565 232.426 88.3965C233.416 88.1025 234.841 87.3295 235.893 87.2405Z" fill="black"/>
</svg>
