<svg width="289" height="293" viewBox="0 0 289 293" fill="none" xmlns="http://www.w3.org/2000/svg">
<path fill-rule="evenodd" clip-rule="evenodd" d="M94.3302 189.091C94.5402 188.897 94.8722 188.829 95.1252 188.988C99.4522 191.724 99.9642 200.925 100.013 206.239C101.803 206.705 103.571 207.235 105.243 207.605C108.794 208.39 112.364 209.076 115.927 209.798L118.597 210.349C127.523 212.23 136.616 213.622 145.712 214.319C154.54 214.995 163.624 215.242 172.427 214.105C176.207 213.616 179.965 212.8 183.618 211.711C187.936 210.423 191.375 208.288 195.391 206.418C205.445 201.735 213.871 215.458 204.195 221.48C195.889 226.647 184.557 228.51 174.969 229.31C165.169 230.127 155.407 229.23 145.725 227.68C135.258 226.003 125.006 223.428 115.079 219.694C110.882 218.115 106.82 216.202 102.854 214.109L101.774 213.534C101.115 213.18 100.428 212.821 99.7372 212.457C98.9942 219.084 96.8532 225.485 94.2662 231.638L94.2052 231.53C92.7902 236.384 87.6782 239.387 82.5922 237.243C76.6225 234.728 76.169 228.126 79.6425 223.44L79.8082 223.222C83.8922 217.968 86.4512 211.45 88.6752 205.237C89.8162 202.052 90.8722 198.79 91.7882 195.532C92.4512 193.175 92.4752 190.804 94.3302 189.091ZM248.162 136.318C244.623 147.012 236.906 155.247 226.156 158.867C215.502 162.456 203.653 161.148 192.762 159.208C190.38 158.783 187.965 158.315 185.555 157.768C187.527 158.99 189.27 160.71 190.937 162.528C193.403 165.217 195.639 168.05 196.317 171.416C196.99 174.755 195.93 177.295 193.996 179.213C191.021 182.162 186.222 183.751 182.158 184.629C173.056 186.596 163.939 186.29 154.882 184.273C152.57 183.759 151.001 182.519 150.121 180.901C149.052 178.937 148.964 176.494 149.578 174.268C150.191 172.044 151.516 169.994 153.439 168.859C155.022 167.925 157.002 167.669 159.249 168.416C163.759 169.917 168.237 170.911 173.001 171.026C175.017 171.073 177.047 171.013 179.061 170.828C180.199 170.724 181.335 170.579 182.465 170.398C181.799 169.512 181.153 168.609 180.522 167.698C179.775 166.621 179.049 165.529 178.355 164.419C176.349 161.206 174.678 157.904 173.21 154.418C172.739 153.301 172.303 152.179 171.884 151.054C171.823 150.892 171.763 150.729 171.703 150.567C171.574 150.458 171.445 150.349 171.318 150.239C168.447 147.755 166.04 144.695 164.337 140.905C159.727 130.639 160.478 117.897 163.275 107.237C165.517 98.6929 170.465 90.7901 177.002 85.4212C178.143 83.5432 178.897 82.404 179.82 81.4446C183.577 77.5358 188.82 74.8996 193.936 73.296C205.362 69.7129 217.807 72.2836 227.493 79.1058C236.436 85.4048 243.437 94.8518 247.221 105.359C250.804 115.309 251.503 126.223 248.162 136.318ZM92.5218 71.3312C106.111 71.2152 119.937 75.2272 130.964 83.2562C141.514 90.9392 149.796 102.282 149.786 115.793C149.776 128.948 142.744 141.882 134.945 152.067C126.191 163.501 114.751 169.014 100.367 169.141C92.8901 169.208 85.3585 168.546 77.9353 167.637L73.9527 167.134C68.4683 166.427 62.927 165.59 57.7288 163.705C32.9848 154.73 32.2188 122.342 41.3828 101.639C48.4588 85.6552 66.3678 70.0672 84.2258 71.9382C86.9168 71.5612 89.6798 71.3562 92.5218 71.3312ZM115.473 86.5621C98.4561 78.9241 77.7801 81.2111 61.2731 89.3621C54.7341 96.4961 49.9551 105.487 48.0211 113.741C45.9561 122.552 46.2581 132.043 49.3631 140.583C53.1541 151.008 62.4891 153.59 72.5591 155.192L76.4687 155.806L78.1089 156.055C88.0036 157.531 98.8212 158.678 108.33 156.831C118.927 154.77 125.658 146.209 130.955 137.432L131.202 137.02C136.703 127.823 141.308 116.638 136.694 106.1C132.771 97.1431 124.202 90.4801 115.473 86.5621ZM215.913 89.2236C210.073 85.9876 203.412 85.3996 197.106 87.5656C194.393 88.4974 192.049 90.0076 189.776 91.7006L188.869 92.3866C186.074 94.5323 183.463 95.6191 181.366 98.5171L181.095 98.9056C180.037 100.486 178.186 101.118 176.5 100.908C174.535 106.325 173.724 112.183 173.708 117.95L173.71 118.714L173.72 119.493C173.846 126.31 175.035 134.649 180.398 139.218C185.291 143.384 192.698 144.384 199.311 144.964L204.408 145.389L205.763 145.492C212.733 145.976 220.371 145.811 226.213 141.685C231.301 138.091 233.701 131.991 234.323 125.968C235.794 111.739 228.592 96.2486 215.913 89.2236ZM88.7954 90.538C98.1664 85.754 109.423 86.953 117.361 92.949C116.656 93.087 115.962 93.263 115.27 93.61C113.469 94.513 112.351 96.321 111.925 98.245C111.445 100.42 112.572 102.479 114.719 103.165C116.587 103.761 118.802 104.034 120.537 102.899C121.446 102.305 122.081 101.522 122.498 100.536L122.557 100.391L122.631 100.285L122.659 100.235C122.665 100.216 122.632 100.252 122.58 100.333C122.633 100.21 122.682 100.087 122.731 99.962C122.804 99.813 122.874 99.663 122.931 99.508C123.032 99.421 123.124 99.324 123.217 99.227C124.659 101.446 125.791 103.952 126.51 106.74C131.124 124.635 112.204 143.206 95.3014 145.064C88.9134 145.766 83.0884 144.245 78.2544 141.247C78.2984 141.188 78.3474 141.135 78.3874 141.073C80.3294 141.422 82.6474 140.553 83.3524 138.387C85.1514 132.862 83.3064 126.399 77.2864 124.594C73.4124 123.432 69.4484 124.716 66.6794 127.364C64.5854 122.239 63.8364 116.469 64.8274 110.69C66.2254 102.537 71.1434 95.19 78.7974 91.798C82.5244 90.145 85.7364 89.798 88.7954 90.538ZM187.482 101.579L187.767 101.13C190.663 96.6733 196.198 91.2069 201.935 92.7099C202.741 92.9209 203.531 93.2609 204.243 93.7019C207.395 93.2739 210.695 93.9899 213.405 95.6569L213.331 95.8439C213.319 95.8751 213.309 95.9069 213.301 95.9399C213.054 97.0239 213.198 98.0259 213.704 99.0219C214.253 100.101 215.036 101.124 216.096 101.743C216.823 102.167 217.678 102.39 218.516 102.373C219.745 102.351 220.827 101.81 221.715 100.984C222.198 100.536 222.535 99.8789 222.721 99.2029C223.159 99.6229 223.584 100.091 223.989 100.622C230.64 109.368 229.721 123.422 221.918 131.218C221.603 131.532 221.268 131.816 220.937 132.106C217.769 136.467 212.886 139.427 207.021 140.026C201.591 140.581 196.161 138.975 191.997 135.683C192.332 135.505 192.645 135.274 192.915 134.968C193.626 134.163 194.211 133.369 194.643 132.386C194.751 132.139 194.856 131.889 194.955 131.638L195.1 131.259C195.125 131.189 195.347 130.55 195.288 130.662L195.274 130.688L195.353 130.504C196.098 128.644 195.797 126.517 194.028 125.35L193.833 125.229C193.255 124.892 192.539 124.733 191.814 124.731C190.008 122.52 187.32 122.013 184.797 122.659L184.708 121.945C184.695 121.826 184.683 121.707 184.675 121.587C182.72 115.106 183.663 107.741 187.482 101.579ZM100.685 36.3289L101.334 36.2279C106.242 35.5186 109.579 36.3353 112.771 40.5299C114.292 42.5289 113.823 45.5479 112.771 47.5909C109.373 54.1919 100.025 52.8269 93.7286 54.1379C87.5816 55.4169 81.4496 57.1579 75.6976 59.6919C69.8286 62.2779 64.3196 65.3369 58.9476 68.8299C54.0886 71.9909 49.6816 76.7419 44.1306 78.5809C43.8806 78.6639 43.5796 78.4399 43.5953 78.1749C43.9906 71.8619 49.2636 66.0669 53.3476 61.5709C58.0716 56.3719 63.8166 51.7559 69.7996 48.0859C75.9736 44.2999 82.6476 41.1829 89.5576 39.0089C93.1966 37.8639 96.9196 36.9539 100.685 36.3289ZM175.462 44.9008C181.642 35.8638 197.005 37.5968 206.07 40.0118C217.436 43.0378 229.752 49.1588 237.722 58.0188C244.861 65.9558 234.18 76.2678 226.152 69.5888L224.009 67.8122L222.638 66.6861C216.475 61.6525 210.372 57.097 202.862 53.7408C194.056 49.8078 185.133 47.8918 175.826 45.7958C175.46 45.7138 175.245 45.2178 175.462 44.9008Z" fill="black"/>
</svg>
