<svg width="289" height="293" viewBox="0 0 289 293" fill="none" xmlns="http://www.w3.org/2000/svg">
<path fill-rule="evenodd" clip-rule="evenodd" d="M114.028 206.571C123.016 204.816 131.845 206.891 140.709 208.947C148.084 210.667 155.459 212.386 162.958 211.907C167.514 211.907 172.744 211.216 176.963 210.011C183.646 207.972 190.418 204.959 197.509 206.873C205.681 208.645 211.638 215.985 210.078 224.475C208.057 232.966 200.859 239.276 193.715 243.725C182.511 250.904 169.428 253.794 156.292 253.794C151.204 253.794 146.098 253.351 141.081 252.554C132.314 250.578 119.385 249.238 111.732 243.53C109.956 242.464 108.413 240.984 106.921 239.555C94.9442 229.837 97.4781 210.1 114.028 206.571ZM155.457 232.395C144.599 232.285 134.047 235.005 125.586 242.786C125.083 243.264 124.491 243.859 123.847 244.355C134.012 247.786 144.809 249.464 155.477 249.735C165.28 249.806 175.509 248.068 184.284 243.619C179.693 240.375 174.977 237.043 169.729 235.057C165.146 233.54 160.32 232.636 155.457 232.395ZM159.836 146.267C157.744 141.996 163.611 141.215 166.359 142.686C183.839 152.418 176.358 180.85 157.425 180.85C156.539 180.868 155.635 180.798 154.695 180.674C147.143 179.681 140.353 174.824 135.549 169.205C145.175 170.924 159.215 176.153 165.97 166.35C168.646 162.486 168.877 156.832 166.094 152.968C164.144 150.575 161.024 149.228 159.836 146.267ZM84.3174 123.063C87.1894 115.867 94.848 111.116 101.886 117.409C110.944 125.031 106.866 144.902 94.6875 144.902C92.844 144.92 90.8055 144.459 88.5898 143.431C81.8178 138.894 81.5873 129.711 84.3174 123.063ZM194.229 136.766C185.241 131.555 189.017 108.032 201.107 110.213C214.456 113.9 212.896 138.539 200.451 138.539C198.608 138.539 196.534 138.007 194.229 136.766ZM42 98.5838C50.279 74.8308 75.0095 48.0112 102.346 56.9451C108.975 59.7282 108.39 69.601 101.193 71.1258C78.6436 70.4167 58.5755 84.8815 42 98.5838ZM181.181 54.1092C188.892 49.5183 198.731 50.2271 206.283 54.8182C216.051 61.3059 228.124 70.6297 231.155 82.3465C221.547 76.426 197.047 63.9646 186.304 67.0311C179.035 68.6973 174.728 57.8849 181.181 54.1092Z" fill="black"/>
</svg>
