<svg width="289" height="293" viewBox="0 0 289 293" fill="none" xmlns="http://www.w3.org/2000/svg">
<path fill-rule="evenodd" clip-rule="evenodd" d="M181.736 212.81C182.43 212.622 183.041 213.554 182.466 214.064C180.112 216.153 178.617 220.045 176.899 222.698C175.265 225.222 173.69 227.72 172.253 230.362C170.642 233.323 169.086 236.273 167.832 239.406L167.584 240.038C167.959 240.932 168.253 241.814 168.469 242.392L168.532 242.556C170.674 248.026 166.178 254.105 161.107 255.634C152.433 258.249 144.991 251.126 144.784 242.655C144.621 235.991 149.138 230.053 153.728 225.648C157.743 221.795 162.239 218.515 167.268 216.112C169.487 215.053 171.792 214.167 174.201 213.653C176.665 213.128 179.323 213.462 181.736 212.81ZM165.387 236.96C166.023 237.26 166.566 237.993 167.023 238.849C166.795 238.123 166.324 237.401 165.387 236.96ZM170.814 144.367C178.365 148.957 189.871 159.66 181.748 171.04C172.186 181.073 158.418 169.569 151.634 164.366C145.343 160.334 138.275 170.704 144.112 175.413C193.135 211.708 213.03 145.567 174.633 138.97C170.406 138.243 168.836 142.947 170.814 144.367ZM108.741 100.292L110.075 100.181C115.862 99.6705 121.722 98.8932 127.429 100.202C135.096 101.962 134.534 113.116 127.429 115.167C121.167 116.974 114.228 116.192 107.764 116.254C106.747 116.264 105.732 116.29 104.716 116.307C104.516 118.724 103.723 120.808 102.509 122.89C101.639 124.384 100.529 125.803 99.4371 127.13C96.8411 130.284 90.7181 130.213 88.0981 127.13C86.1601 124.848 84.6171 122.223 84.5921 119.134C84.5861 118.343 84.6821 117.503 84.8711 116.677L81.343 116.739C72.7079 116.871 64.0069 116.812 55.5281 115.44C52.5121 116.064 50.0441 110.622 54.2071 108.993C65.5241 104.567 78.1671 103.264 90.1761 101.935C96.3471 101.251 102.552 100.78 108.741 100.292ZM205.153 95.7187L205.46 95.688C212.949 94.921 221.204 93.593 228.708 94.357C239.912 95.496 239.893 110.642 228.708 111.775C224.602 112.191 220.276 111.989 215.962 111.591C218.167 116.269 215.551 121.856 210.238 122.57C205.301 123.233 200.184 118.435 201.804 113.289L201.879 113.062C202.195 112.169 202.479 111.171 202.816 110.186L201.03 110.035C195.689 109.563 188.276 108.599 186.31 104.382C185.717 103.111 185.854 101.931 186.767 100.845C190.511 96.3887 199.74 96.2421 205.153 95.7187ZM125.517 61.0406C130.937 59.0716 136.57 63.6796 137.273 68.8726C138.082 74.8569 133.766 78.7969 128.295 79.5116L128.021 79.5446C115.945 80.8746 103.96 83.3066 91.8679 84.6816C86.376 85.3053 80.8429 85.7157 75.3143 85.8633L71.3633 85.9521C66.5216 86.0745 61.3287 86.1849 56.8589 84.5176L56.8759 84.4876C55.6889 84.1436 55.1429 82.4316 56.4639 81.4956C61.2229 78.1306 67.6379 76.8586 73.1779 75.2596C78.7479 73.6506 84.3589 72.1676 89.9849 70.7746C101.799 67.8526 114.071 65.1986 125.517 61.0406ZM175.503 62.4395C176.939 54.8685 187.664 54.0565 191.603 59.5655C194.149 60.4395 197.882 61.3515 200.195 62.0375C204.225 63.2325 208.258 64.4205 212.3 65.5715C220.67 67.9555 228.838 70.9775 237.067 73.7945C237.915 74.0855 237.682 75.1615 236.867 75.2685C225.382 76.7633 214.089 77.4589 202.534 76.9796L200.164 76.8729C189.983 76.4762 172.698 77.233 175.503 62.4395Z" fill="black"/>
</svg>
