<svg width="289" height="293" viewBox="0 0 289 293" fill="none" xmlns="http://www.w3.org/2000/svg">
<path fill-rule="evenodd" clip-rule="evenodd" d="M171.042 240.159C163.675 242.292 155.768 242.483 148.259 240.279C141.448 238.281 134.455 233.882 129.443 228.062C124.99 222.891 122.106 216.608 122.219 209.901C122.232 209.135 122.506 208.495 122.927 207.999C123.381 207.465 124.014 207.098 124.693 206.939C125.391 206.775 126.129 206.833 126.757 207.118C127.326 207.377 127.813 207.815 128.118 208.457C128.888 209.469 129.656 210.466 130.426 211.435C136.62 219.083 142.618 224.799 151.932 226.849C156.986 227.962 162.033 227.468 166.664 225.771C171.621 223.954 176.102 220.759 179.613 216.671C181.2 214.824 183.074 214.069 184.906 214.057C186.982 214.042 189.034 215.007 190.58 216.549C192.099 218.064 193.117 220.124 193.209 222.278C193.29 224.169 192.673 226.144 191.032 227.906C185.627 233.711 178.622 237.963 171.042 240.159ZM170.814 144.367C178.365 148.957 189.871 159.66 181.748 171.04C172.186 181.073 158.418 169.569 151.634 164.366C145.343 160.334 138.275 170.704 144.112 175.413C193.135 211.708 213.03 145.567 174.633 138.97C170.406 138.243 168.836 142.947 170.814 144.367ZM100.175 124.17C97.7475 122.618 94.8924 122.085 91.7283 123.524C89.2556 124.649 84.9188 128.397 81.9007 133.325C79.8359 136.696 78.3717 140.651 78.6765 144.771C78.7473 145.727 78.3938 146.433 77.8362 146.954C77.3958 147.366 76.7597 147.669 76.0126 147.764C75.3782 147.844 74.6682 147.771 74.0909 147.591C72.9927 147.248 72.4115 146.536 72.1925 145.955C70.0793 140.342 70.9897 134.08 73.3581 128.43C76.5543 120.804 82.3588 114.417 86.1618 112.358C92.6694 108.833 100.347 108.671 106.863 112.262C112.411 115.318 115.88 120.253 119.33 125.283C120.063 126.352 120.791 127.414 121.543 128.456C123.051 130.546 123.201 132.618 122.617 134.395C121.97 136.364 120.321 138.025 118.259 138.895C116.353 139.698 114.14 139.811 112.183 138.986C110.529 138.288 109.011 136.928 108.051 134.621C106.434 130.736 103.739 126.449 100.175 124.17ZM223.441 132.814C221.779 133.68 220.479 133.942 218.635 133.389C217.615 133.083 216.607 132.496 215.818 131.707C215.036 130.925 214.472 129.952 214.253 128.874C213.713 126.211 212.257 123.719 210.181 122.095C208.407 120.706 206.167 119.97 203.683 120.385C201.003 120.833 198.449 122.552 196.69 124.579C196.102 125.257 195.642 126.027 195.178 126.792C194.312 128.223 193.469 129.553 192.274 130.603C191.821 131.003 191.138 131.28 190.477 131.28C190.209 131.28 189.936 131.236 189.676 131.155C187.008 128.478 186.495 126.446 186.581 124.431C186.671 122.319 187.504 120.179 188.85 118.183C192.008 113.502 198.003 109.663 202.049 108.793C207.589 107.603 213.092 109.032 217.503 112.126C222.042 115.31 225.406 120.254 226.455 125.825C226.707 127.167 226.6 128.615 226.089 129.871C225.589 131.098 224.719 132.149 223.441 132.814ZM112.394 74.2525C109.069 77.492 105.134 77.9938 101.153 78.4401C98.9405 78.6904 97.1746 78.8922 95.4369 79.2843C90.6605 80.3625 85.9393 81.9863 81.6319 84.3249C77.1292 86.7697 72.2224 89.7181 68.6922 93.4952C67.8528 94.394 67.0615 95.3371 66.2691 96.2823C65.5465 97.1442 64.8505 97.9739 64.1169 98.774C63.2745 99.6929 62.4745 100.656 61.6787 101.617C61.1867 102.427 61.0895 102.627 60.9904 102.834C60.8413 103.146 60.6679 103.495 60.4698 103.869C60.1985 104.382 59.8807 104.943 59.5478 105.452C58.9941 106.382 58.697 106.639 58.4402 106.753C58.0142 106.943 57.6102 107.036 57.2182 106.986C56.8506 106.938 56.5044 106.762 56.1624 106.473C54.4554 105.031 53.9519 102.664 54.0035 100.151C54.0818 96.3383 55.4881 92.1169 56.7845 89.5219C59.7989 83.4922 63.9794 77.2239 69.0062 72.7237C74.7422 67.5867 81.0177 63.6978 88.2256 61.018C92.705 59.3521 97.8913 57.823 102.771 58.0161C106.284 58.1552 109.637 59.1993 112.407 61.8069C114.107 63.4076 114.923 65.6845 114.923 67.9597C114.923 70.2802 114.076 72.6145 112.394 74.2525ZM230.203 103.917C229.992 104.264 229.699 104.503 229.373 104.646C229.032 104.797 228.651 104.84 228.285 104.778C227.921 104.717 227.575 104.552 227.3 104.3C227.037 104.058 226.837 103.737 226.747 103.344C224.54 93.6489 220.253 86.4353 211.104 81.7835C206.604 79.4951 201.429 78.0412 196.53 76.882C195.106 76.5451 193.602 76.3268 192.087 76.1056C187.339 75.4124 182.557 74.6184 179.462 70.7807C177.597 68.4689 176.814 65.5125 177.256 62.8087C177.673 60.2629 179.161 57.9286 181.865 56.5297C188.597 53.0488 196.964 56.4645 203.763 59.3742C204.267 59.5901 204.762 59.8019 205.246 60.0064C211.895 62.8128 217.959 66.5172 222.944 71.815C226.899 76.0179 230.563 82.2311 232.039 88.6227C233.267 93.9404 232.978 99.3689 230.203 103.917Z" fill="black"/>
</svg>
