<svg width="289" height="293" viewBox="0 0 289 293" fill="none" xmlns="http://www.w3.org/2000/svg">
<path fill-rule="evenodd" clip-rule="evenodd" d="M166.943 221.352C168.477 218.685 172.009 216.214 175.241 216.593C189.72 218.291 189.695 235.845 184.104 246.093C179.147 255.18 168.888 260.514 158.62 259.735C147.833 258.916 138.642 252.574 134.597 242.483C131.922 235.808 130.686 223.485 137.802 219C137.934 218.916 138.152 218.937 138.257 219.058C141.669 223.027 141.803 228.986 144.79 233.405C147.568 237.515 151.884 240.909 156.94 241.433C160.716 241.825 164.536 240.463 166.013 237.073C166.812 235.239 166.721 234.244 166.421 232.982L166.148 231.885C165.202 228.044 164.778 225.119 166.943 221.352ZM170.814 144.367C178.365 148.957 189.871 159.66 181.748 171.04C172.185 181.073 158.418 169.569 151.634 164.366C145.343 160.334 138.275 170.705 144.112 175.413C193.135 211.708 213.03 145.568 174.633 138.971C170.406 138.244 168.835 142.947 170.814 144.367ZM91.0714 112.893C95.7064 105.939 106.286 106.963 108.839 115.215C110.222 119.685 108.312 123.703 108.411 128.167C108.494 131.938 108.247 136.14 107.091 139.792C104.455 148.12 96.9654 154.002 88.1044 153.758C79.2724 153.515 71.4934 147.925 67.7944 140.052C64.0824 132.149 64.8684 123.97 67.5784 115.934C67.7084 115.548 68.2144 115.361 68.5194 115.686C71.7227 119.09 74.0677 122.684 76.4942 126.496L78.9808 130.403C80.8812 133.345 83.643 137.103 87.1914 136.867L87.7238 136.815C88.7099 136.73 88.5588 136.926 89.3194 135.582C89.6714 134.96 89.6074 133.804 89.7774 133.07L89.8364 132.822L89.8042 132.688C89.7292 132.333 89.6547 131.663 89.5942 130.501L89.5814 130.244C89.3244 124.807 87.7874 117.82 91.0714 112.893ZM208.563 117.522C207.732 108.628 220.236 106.653 224.393 113.234C226.561 116.666 227.192 120.977 227.672 125.062L227.896 127C228.388 131.195 228.583 135.559 226.762 139.472C223.894 145.635 217.657 148.893 210.929 148.377C204.504 147.883 198.642 144.158 195.552 138.503C192.797 133.457 190.058 123.605 193.404 118.342C193.606 118.023 194.01 117.982 194.287 118.228C197.449 121.035 197.964 126.155 199.844 129.812C201.783 133.584 204.724 137.26 209.181 137.833C213.445 138.381 215.074 136.052 213.986 131.987C212.583 126.739 209.091 123.169 208.563 117.522ZM94.4484 60.016L96.4933 59.2328C103.499 56.5862 113.118 53.527 118.814 59.224C122.328 62.737 122.997 67.912 120.489 72.199C117.45 77.392 111.999 77.52 106.735 78.285C100.748 79.155 94.6594 80.809 89.0854 83.167C82.8064 85.824 76.9794 89.136 71.2704 92.835C65.8444 96.35 60.4374 102.095 53.9424 103.178C53.6774 103.222 53.3764 103.108 53.3074 102.817C51.8324 96.467 55.9314 90.218 59.5894 85.264C64.0154 79.266 69.3784 74.343 75.3724 69.929C81.1574 65.668 87.7674 62.589 94.4484 60.016ZM221.716 82.5926L222.34 82.4832C226.589 81.7759 230.439 81.9388 233.641 85.3036C236.085 87.8706 237.027 91.1976 235.862 94.5916C234.787 97.7226 232.383 100.904 228.894 101.56C217.115 103.776 204.068 103.41 192.23 101.732C186.814 100.963 181.349 100.024 176.073 98.5416L173.646 97.838C169.242 96.58 164.2 95.2657 161.001 92.0266C159.851 90.8626 160.514 89.1966 161.89 88.6576C167.472 86.4716 175.123 87.6346 181.075 87.4636C187.999 87.2656 194.934 86.7466 201.825 86.0316C208.559 85.3316 215.075 83.8106 221.716 82.5926Z" fill="black"/>
</svg>
