<svg width="289" height="293" viewBox="0 0 289 293" fill="none" xmlns="http://www.w3.org/2000/svg">
<path fill-rule="evenodd" clip-rule="evenodd" d="M158.06 220.667C168.198 220.496 179.975 219.017 188.688 223.953C192.537 226.471 192.502 231.179 191.184 234.621C188.119 242.189 169.552 241.364 161.053 242.36C154.442 242.687 147.761 243.327 141.097 243.327C138.139 243.341 135.128 243.199 132.152 242.844C127.377 242.46 123.582 239.6 122.441 236.044C120.089 233.185 120.588 229.501 123.974 227.267C128.678 224.195 134.896 223.071 140.829 222.231C146.513 221.364 152.251 220.766 158.06 220.667ZM166.225 144.156C166.508 142.578 169.132 143.234 170.16 143.589C172.571 144.369 174.255 146.389 175.229 148.658C181.736 162.431 173.156 179.271 157.343 179.608C157.148 179.608 156.934 179.626 156.739 179.626C152.485 179.626 148.177 177.729 146.387 173.652C147.273 173.954 148.319 174.591 149.294 174.857C156.403 176.683 163.848 167.413 166.685 161.847C169.521 155.944 164.204 150.059 166.225 144.156ZM86.1484 124.533C87.2298 115.706 97.4237 110.883 104.267 117.14C115.24 124.585 109.106 146.69 98.1152 146.69C95.6156 146.673 92.8669 145.538 90.0127 142.826C85.0493 138.2 85.3507 130.772 86.1484 124.533ZM193.26 115.581C196.238 109.625 204.818 107.516 209.693 112.408C214.923 117.513 215.987 126.802 212.087 132.988C210.084 136.498 206.095 138.82 202.124 138.82C200.387 138.838 198.631 138.377 197.054 137.367C190.884 132.404 189.572 122.423 193.26 115.581ZM55 114.322C65.3177 96.4012 91.7676 80.9796 111.321 86.8114C113.98 87.875 115.718 90.9954 115.7 93.9911C115.186 103.031 104.407 102.907 98.2383 104.892C83.8433 107.87 68.9163 109.731 55 114.322ZM180.992 85.0741C191.806 81.0503 204.127 83.4789 214.746 87.2723C224.904 90.658 233.679 97.43 241.019 105.442C224.053 101.932 206.786 100.709 189.626 99.8758C186.595 99.8404 183.545 99.9826 180.797 98.4227C176.099 95.6929 176.277 87.6975 180.992 85.0741Z" fill="black"/>
</svg>
