<svg width="289" height="293" viewBox="0 0 289 293" fill="none" xmlns="http://www.w3.org/2000/svg">
<path fill-rule="evenodd" clip-rule="evenodd" d="M190.581 219.823C187.281 224.137 181.306 227.442 174.615 229.022C168.238 230.528 161.191 230.467 155.109 228.149L154.587 227.941C150.04 226.053 145.675 222.239 144.018 218.26C143.359 216.678 143.136 215.07 143.587 213.569C143.992 212.219 144.944 210.977 146.528 209.909C147.025 209.574 147.692 209.55 148.328 209.662C149.116 209.801 149.894 210.17 150.363 210.668C152.965 213.435 156.739 216.132 161.208 216.087C164.655 216.051 167.47 214.69 170.201 213.152L172.119 212.053C173.97 210.997 175.847 210.004 177.971 209.551C181.773 208.739 186.384 210.222 189.194 212.67C190.42 213.737 191.31 214.992 191.552 216.343C191.755 217.477 191.47 218.662 190.581 219.823ZM170.814 144.367C178.365 148.957 189.871 159.66 181.748 171.04C172.186 181.073 158.418 169.569 151.634 164.366C145.343 160.334 138.275 170.704 144.112 175.413C193.135 211.708 213.03 145.567 174.633 138.97C170.406 138.243 168.836 142.947 170.814 144.367ZM85.6232 73.8211L87.7926 73.2262L90.0047 72.6292L91.5005 72.2337C101.775 69.5444 113.108 67.1776 123.297 68.3331C127.013 68.7551 130.029 70.8461 130.555 74.7391C130.998 78.0241 128.875 82.2621 125.262 82.8461C113.295 84.7821 101.044 84.1541 89.0222 86.1501C83.0352 87.1431 77.0942 88.3761 71.1302 89.4871C66.5952 90.3331 61.9092 90.6301 57.3352 91.3141L58.3862 91.4601C58.7542 91.5101 58.6622 92.1291 58.2992 92.1041C56.7915 91.9536 55.2816 91.9302 53.7694 92.0359L53.1212 92.0891C52.1342 92.2281 51.5522 91.0501 52.4322 90.4521C58.0052 86.6711 62.7342 82.5731 68.9742 79.7861C74.3712 77.3761 79.9262 75.3891 85.6232 73.8211ZM179.163 68.0223C187.063 60.0363 203.863 63.1053 213.261 66.7583C218.625 68.8443 223.725 71.4813 227.973 75.4263L228.387 75.8144L229.025 76.4278C231.892 79.2352 235.09 83.0982 234.635 87.1453C234.566 87.7623 234.23 88.4673 233.533 88.5913C229.769 89.2583 226.072 87.2723 222.596 86.0773L220.294 85.2873C216.837 84.1098 213.358 82.9847 209.794 82.1723C205.362 81.1643 200.841 80.5813 196.291 80.6393C191.692 80.6993 186.752 81.9973 182.371 80.1713C177.485 78.1363 174.952 72.2803 179.163 68.0223ZM101.116 132.43C99.1005 134.488 96.4385 135.65 93.0316 134.959C90.3694 134.419 85.3005 131.742 81.2512 127.62C78.481 124.8 76.1647 121.275 75.535 117.193C75.3888 116.245 74.8856 115.637 74.225 115.254C73.7033 114.952 73.0154 114.8 72.2661 114.876C71.6299 114.94 70.9544 115.171 70.4324 115.476C69.4395 116.057 69.0334 116.882 68.9509 117.498C68.1543 123.442 70.4501 129.339 74.0288 134.312C78.8584 141.022 85.9509 145.94 90.1196 147.091C97.2534 149.062 104.77 147.493 110.312 142.528C114.744 138.558 117.016 133.386 119.124 128.067L119.53 127.036C120.004 125.829 120.475 124.631 120.973 123.446C121.972 121.071 121.652 119.018 120.683 117.418C119.61 115.645 117.63 114.398 115.425 114.014C113.387 113.66 111.205 114.048 109.484 115.292C108.029 116.344 106.856 118.01 106.44 120.474C105.762 124.481 104.19 129.078 101.418 132.111L101.116 132.43ZM223.441 109.24C221.779 108.374 220.478 108.113 218.634 108.666C217.615 108.972 216.607 109.559 215.818 110.348C215.036 111.13 214.472 112.102 214.253 113.181C213.713 115.843 212.257 118.335 210.181 119.96C208.407 121.349 206.167 122.085 203.683 121.669C201.003 121.222 198.449 119.503 196.69 117.476C196.2 116.911 195.799 116.282 195.41 115.645L195.178 115.263C194.312 113.832 193.469 112.502 192.274 111.451C191.821 111.052 191.138 110.775 190.477 110.775C190.208 110.775 189.936 110.818 189.676 110.899C187.008 113.577 186.495 115.608 186.581 117.623C186.671 119.736 187.504 121.875 188.85 123.871C192.008 128.553 198.003 132.392 202.049 133.261C207.589 134.452 213.091 133.023 217.503 129.928C222.042 126.744 225.406 121.801 226.454 116.23C226.707 114.888 226.599 113.44 226.088 112.184C225.589 110.957 224.719 109.906 223.441 109.24Z" fill="black"/>
</svg>
