<svg width="289" height="293" viewBox="0 0 289 293" fill="none" xmlns="http://www.w3.org/2000/svg">
<path fill-rule="evenodd" clip-rule="evenodd" d="M177.534 205.337C180.965 199.283 191.203 200.267 192.768 207.328C195.943 221.642 178.874 234.86 165.91 235.19C153.027 235.517 138.572 224.552 140.437 210.702C140.898 207.276 145.474 207.692 147.034 209.84L147.639 210.664C151.877 216.356 157.467 222.248 165.331 220.86C168.59 220.286 171.55 218.25 173.52 215.629C175.896 212.466 175.635 208.689 177.534 205.337ZM95.6148 100.616C97.3608 100.135 99.1228 100.321 100.67 100.979C104.124 101.612 107.009 104.492 108.023 107.78C108.103 108.065 108.192 108.346 108.291 108.624L108.445 109.039L108.031 107.985C108.222 109.023 109.067 110.114 109.371 111.156C109.745 112.437 109.836 113.892 109.71 115.302C110.808 115.313 111.906 115.35 113.002 115.445L114.061 115.54C119.984 116.091 126.486 117.1 129.998 122.218C131.97 125.094 130.119 130.272 126.496 130.826C120.919 131.679 116.115 128.593 110.557 127.975C105.303 127.39 99.8048 127.725 94.6188 128.674C83.9119 130.632 74.0732 134.972 63.6393 137.695L62.2188 138.055L62.2208 138.048C60.4328 138.48 58.4028 135.994 60.1718 134.54C68.5308 127.673 79.2328 122.108 89.7758 118.719C88.2398 116.276 87.7648 113.058 88.8148 110.435C88.9774 109.892 89.1792 109.363 89.392 108.836L89.8358 107.752C89.8788 107.241 89.9768 106.736 90.1188 106.241L90.1418 106.09L90.1548 106.099C90.9398 103.548 92.9898 101.34 95.6148 100.616ZM202.26 101.011C204.546 98.7237 207.759 99.0617 210.145 100.862L210.461 101.11C212.71 102.109 214.571 104.292 215.793 106.315C217.062 108.416 217.905 110.556 217.938 112.869C223.472 112.887 228.773 114.547 232.836 119.015C234.148 120.457 235.044 122.681 234.322 124.636L233.892 125.799C232.528 129.491 226.394 131.617 224.309 127.275L224.213 127.063C221.998 121.907 213.495 122.448 208.976 122.975C205.826 123.344 202.715 124.127 199.673 125.004C198.602 125.313 197.539 125.648 196.478 125.991L195.417 126.335C194.851 126.518 191.903 128.119 193.737 127.74C194.23 127.638 194.601 128.356 194.098 128.597C191.912 129.642 189.58 127.561 189.726 125.213C189.979 121.137 196.451 118.902 199.566 117.497L199.752 117.412C200.946 116.86 202.197 116.331 203.488 115.84C202.762 114.76 202.162 113.56 201.663 112.272C201.191 111.056 200.876 109.874 200.703 108.581C200.533 107.949 200.533 107.317 200.703 106.684L200.729 106.503C200.641 106.085 200.599 105.653 200.605 105.218L200.587 105.049H200.605C200.666 103.526 201.271 102 202.26 101.011ZM165.732 144.416C174.515 147.13 189.005 154.523 184.428 165.934C178.037 176.414 161.088 168.712 152.875 165.326C145.496 162.882 141.654 173.223 148.789 176.34C207.748 199.665 207.531 138.106 167.87 139.01C163.503 139.109 163.366 143.514 165.732 144.416ZM87.7267 64.1487L89.2249 63.7115C97.0099 61.4565 104.957 57.5625 111.869 63.6385C114.583 66.0245 115.142 70.9825 113.2 73.9585C108.776 80.7395 102.215 79.7035 95.0699 80.2815C89.6299 80.7215 84.2709 82.3195 79.1929 84.3165C75.0429 85.9495 71.1939 88.2485 67.5599 90.8125C63.9899 93.3335 61.5509 97.2745 57.8889 99.5435C56.5469 100.376 54.9969 99.5195 54.5149 98.1705C52.8069 93.3855 55.6929 87.4245 58.1349 83.3475C61.1159 78.3735 65.6439 74.3055 70.5129 71.2275C75.8446 67.8564 81.7404 65.91 87.7267 64.1487ZM201.165 59C214.324 58.996 226.986 66.315 234.346 77.044C236.847 80.689 235.014 86.089 231.424 88.188C227.396 90.5439 223.09 88.8475 220.436 85.4716L220.279 85.267C216.058 79.646 210.617 75.219 204.167 72.337C201.02 70.93 197.54 69.789 194.136 69.21L193.036 69.0215C191.494 68.7631 189.705 68.5164 188.311 68.758C187.564 68.856 186.878 69.103 186.246 69.479C186.55 70.143 185.765 70.943 185.04 70.545C181.77 68.749 182.171 65.545 184.872 63.055C188.693 59.532 196.23 59.001 201.165 59Z" fill="black"/>
</svg>
