<svg width="289" height="293" viewBox="0 0 289 293" fill="none" xmlns="http://www.w3.org/2000/svg">
<path fill-rule="evenodd" clip-rule="evenodd" d="M203.138 187.83C203.38 187.072 204.433 187.074 204.675 187.83C206.873 194.681 208.164 201.39 211.446 207.832C212.257 208.667 212.838 209.718 213.149 210.853C214.682 213.4 216.39 215.818 218.301 218.107C220.705 220.987 222.454 223.692 221.18 227.623C220.552 229.56 218.93 230.799 216.886 230.892C211.274 231.146 208.077 225.794 206.092 220.214C192.204 224.826 176.912 227.437 162.356 226.29C150.524 225.356 137.635 222.392 127.041 216.35C127.104 218.632 127.191 220.916 127.271 223.201C127.419 227.427 128.556 232.052 128.116 236.202C127.68 240.32 125.342 243.506 121.105 244.144C117.458 244.692 112.944 242.257 112.233 238.351C111.409 233.817 112.935 230.65 114.19 226.37C115.299 222.588 116.169 218.724 117.125 214.901C118.089 211.041 118.878 207.148 119.593 203.237C120.117 200.374 119.739 197.148 120.753 194.451C120.833 194.24 121.039 194.089 121.272 194.156C126.668 195.706 126.974 204.392 126.952 209.053L126.95 209.283C126.942 210.233 126.951 211.183 126.961 212.132L129.023 212.583C140.339 215.032 151.332 216.892 163.23 216.217C177.188 215.426 189.462 210.323 202.708 206.826C201.608 200.535 201.27 193.672 203.138 187.83ZM156.461 63.8608C162.655 61.7398 169.351 60.7378 175.865 61.0588C189.827 61.7488 203.128 68.1168 212.282 78.7278C220.925 88.7448 225.622 101.308 225.561 114.562C225.495 128.177 221.919 143.509 215.185 155.427C201.036 180.468 167.988 180.642 144.238 170.658C118.893 160.004 108.581 133.135 114.686 107.158C119.276 87.6218 134.933 64.1808 156.461 63.8608ZM197.753 83.2008C190.275 77.1978 180.858 74.5008 171.343 75.1828C166.616 75.5218 161.813 76.7628 157.522 78.7798C155.241 79.8518 153.202 81.3488 150.956 82.4648C148.953 83.4586 146.786 84.0383 144.719 84.8748L143.95 85.2018C140.557 86.7178 137.14 84.5488 136.97 81.3878C129.589 91.7438 126.088 105.787 126.144 118.245C126.187 127.419 128.372 136.949 133.638 144.587C139.491 153.076 149.202 157.554 158.942 159.932C168.27 162.209 178.441 162.999 187.791 160.412C197.496 157.728 203.765 150.363 207.333 141.182C215.073 121.267 215.712 97.6178 197.753 83.2008ZM164.426 107.895C168.661 102.114 176.258 101.807 180.44 107.895C183.072 111.727 182.685 115.419 182.476 119.829L182.436 120.821C182.312 124.311 182.329 127.986 181.021 131.211C179.342 135.352 176.079 138.005 171.457 137.456C168.736 137.131 166.457 135.507 165.135 133.267L165.089 133.293C163.236 129.592 162.757 125.837 162.444 121.797L162.228 118.834C161.966 114.939 161.952 111.273 164.426 107.895Z" fill="black"/>
</svg>
