<svg width="289" height="293" viewBox="0 0 289 293" fill="none" xmlns="http://www.w3.org/2000/svg">
<path fill-rule="evenodd" clip-rule="evenodd" d="M178.872 230.917C172.085 233.585 164.066 234.216 157.061 231.942C150.362 229.768 144.28 224.929 140.6 218.844C137.322 213.424 135.953 206.992 137.89 200.58C137.983 200.273 138.283 200.077 138.573 200C140.158 201.443 141.138 202.876 142.116 204.302C143.765 206.707 145.419 209.086 147.688 211.142C150.989 214.133 155.438 216.561 159.853 217.362C164.175 218.148 168.599 217.454 172.47 215.385C174.824 214.127 176.727 212.446 178.611 210.757C180.663 208.918 182.683 207.051 185.509 206.013C187.774 205.181 190.153 205.883 191.981 207.275C193.945 208.772 195.358 211.114 195.279 213.563C195.158 217.357 193.497 220.522 191.088 223.133C187.83 226.663 183.223 229.206 178.872 230.917ZM170.814 136.367C178.365 140.957 189.871 151.66 181.748 163.04C172.186 173.073 158.418 161.569 151.634 156.366C145.343 152.334 138.275 162.705 144.112 167.413C193.135 203.708 213.03 137.567 174.633 130.97C170.406 130.243 168.836 134.947 170.814 136.367ZM91.3878 72.7684C101.68 72.2764 110.75 76.8984 120.558 78.9984C129.622 80.9404 138.552 79.7744 147.367 77.3044C161.673 73.2954 167.587 95.1954 153.476 99.4634C143.2 102.571 132.38 102.787 121.835 101.185C112.468 99.7614 104.616 95.2014 95.6848 92.5464C88.0203 90.269 79.0039 91.2155 70.9097 92.2877L67.7678 92.7104C63.0978 93.3394 58.4028 93.9704 53.7788 94.8834C49.7668 95.6764 45.7618 97.1274 41.6668 97.2954C41.2018 97.3154 40.8078 96.7114 41.1008 96.3084C45.8577 89.7778 55.0258 84.6249 62.3185 81.188L62.8128 80.9564C71.8148 76.7594 81.3648 73.2464 91.3878 72.7684ZM87.6175 120.924L87.6162 120.699C87.6302 114.322 91.3442 99.7622 100.524 99.7622C106.259 99.7622 109.741 109.671 110.344 119.886L110.365 120.302C110.631 126.653 108.888 140.534 100.524 140.534C92.0718 140.534 87.7044 127.387 87.6175 120.924ZM222.772 120.924L222.774 120.699C222.76 114.322 219.046 99.7623 209.866 99.7623C204.274 99.7623 200.824 109.182 200.097 119.12L200.046 119.886C199.684 126.022 201.314 140.534 209.866 140.534C218.318 140.534 222.685 127.387 222.772 120.924ZM222.632 65.0016L223.288 65.0161C234.016 65.3881 245.051 71.7431 247.915 82.4181C248.063 82.9721 247.38 83.3451 246.975 82.9651C238.154 74.7064 226.291 82.5978 217.458 86.7342L214.213 88.233C202.826 93.5308 189.875 99.7592 177.231 95.8111C171.226 93.9361 167.412 87.7661 169.125 81.5341C170.649 75.9891 177.342 71.3291 183.139 73.3305L183.402 73.4261C188.112 75.2277 193.904 73.4023 198.768 71.6026L202.764 70.1021C209.189 67.6639 215.645 64.936 222.632 65.0016Z" fill="black"/>
</svg>
