<svg width="289" height="293" viewBox="0 0 289 293" fill="none" xmlns="http://www.w3.org/2000/svg">
<path fill-rule="evenodd" clip-rule="evenodd" d="M126.15 196.292C131.744 187.09 143.668 209.632 144.935 213.508C146.057 216.942 146.798 220.459 147.174 224.017C151.511 224.989 156.015 224.991 160.458 224.139C167.063 222.872 171.1 219.321 176.841 216.272C180.805 214.166 185.802 216.636 187.864 220.13C190.289 224.243 188.744 228.511 185.554 231.577C179.505 237.391 167.604 238.726 159.708 237.182C155.184 236.298 151.038 234.602 147.376 232.136C147.352 232.596 147.336 233.056 147.299 233.516L147.229 234.313C146.623 240.761 144.85 248.869 139.842 253.064C131.628 259.947 121.49 246.711 129.472 239.836L129.719 239.63C134.68 235.621 135.763 224.866 135.496 218.942C135.32 215.076 134.616 211.16 133.395 207.478L133.144 206.744C132.777 205.704 128.77 195.837 127.322 197.093L127.253 197.164C126.656 197.877 125.691 197.047 126.15 196.292ZM170.814 144.367C178.365 148.957 189.871 159.66 181.748 171.039C172.186 181.073 158.418 169.569 151.634 164.366C145.343 160.334 138.275 170.704 144.112 175.413C193.135 211.708 213.03 145.567 174.633 138.97C170.406 138.243 168.836 142.947 170.814 144.367ZM90.1784 101.94C97.5584 100.631 105.118 102.466 111.225 106.784L111.688 107.117C117.572 111.42 124.155 118.975 120.778 126.392C119.423 129.37 115.365 129.837 112.79 128.487C108.503 126.239 107.726 120.708 103.901 117.647C100.764 115.138 96.5404 113.616 92.5004 113.983C83.0094 114.845 77.1714 124.206 74.2234 132.273C73.8464 133.305 72.3314 133.706 71.7394 132.598C64.7884 119.606 77.0924 104.262 90.1784 101.94ZM208.389 97.0371C222.526 95.8721 239.073 110.528 235.351 125.45C233.566 132.61 222.945 132.405 221.057 125.45C220.018 121.623 220.122 118.237 217.367 115.059C215.093 112.435 211.862 110.911 208.389 111.145C204.561 111.403 201.03 113.316 198.347 116.005C195.924 118.433 194.475 121.986 191.965 124.135C191.347 124.663 190.52 124.697 189.91 124.135C185.59 120.152 188.183 111.86 190.922 107.702C194.842 101.752 201.225 97.6281 208.389 97.0371ZM63.2575 75.4749C72.3265 67.4469 88.8055 59.6939 101.034 63.6449C108.065 65.9159 111.13 77.2449 103.281 80.8359C94.1925 84.9939 83.7135 83.3019 74.4625 87.6119C70.5775 89.4229 66.9235 91.6859 64.2185 95.0049C62.0875 97.6209 59.9195 101.063 56.8375 102.571C56.0275 102.968 54.9305 102.978 54.2815 102.242C47.5255 94.5999 57.3585 80.6959 63.2575 75.4749ZM192.801 63.2464C198.406 61.6734 204.624 61.7054 210.318 62.6934C216.01 63.6814 221.789 66.0404 226.436 69.4814L226.976 69.8843C232.049 73.7072 238.103 79.2693 237.778 86.0414C237.507 91.6964 231.558 95.5214 226.422 92.5574C222.235 90.1404 220.265 85.2984 216.72 82.0744C213.795 79.4134 210.359 77.3154 206.693 75.8454C202.621 74.2124 198.542 73.4474 194.172 73.3744C190.807 73.3184 187.422 74.4224 184.12 74.7754C184.392 75.3334 181.782 75.0734 180.286 74.5784C179.178 74.1064 179.172 72.7054 179.556 71.7964C181.461 67.2934 188.392 64.4824 192.801 63.2464Z" fill="black"/>
</svg>
