<svg width="289" height="293" viewBox="0 0 289 293" fill="none" xmlns="http://www.w3.org/2000/svg">
<path fill-rule="evenodd" clip-rule="evenodd" d="M89.2808 215.29C101.527 201.06 122.152 200.069 139.237 203.627C150.201 205.911 160.876 209.715 172.012 211.125C177.213 211.784 182.47 211.981 187.709 211.884C192.855 211.789 198.009 210.752 203.137 210.945C203.925 210.974 204.223 212.009 203.54 212.43C196.505 216.751 187.028 218.137 178.718 218.982C178.744 219.597 178.781 220.197 178.866 220.706C179.093 222.063 179.3 223.411 179.467 224.777C179.844 227.858 180.266 230.929 180.687 234.004C181.517 240.056 181.778 246.299 183.237 252.245L183.492 253.234C183.83 254.484 183.907 255.611 183.794 256.627L184.132 256.474L185.199 255.957L185.899 255.626C188.453 254.442 190.89 253.58 193.893 253.868C196.179 254.086 198.098 255.645 198.112 258.086C198.169 269.041 183.405 272.564 174.96 274.661L172.483 275.271C161.734 277.893 150.758 280.191 139.703 280.741C121.961 281.622 102.024 276.728 90.4178 262.337C79.5888 248.91 77.6038 228.858 89.2808 215.29ZM169.852 261.318C167.99 244.824 147.722 243.917 141.891 254.377C139.304 239.798 101.028 253.117 104.021 256.015C115.365 267.001 132.58 267.99 147.379 265.958C154.916 264.923 162.459 263.238 169.852 261.318ZM147.358 218.088L142.262 217.355L140.255 217.078C127.622 215.386 113.416 214.513 103.03 222.612C99.2376 225.568 97.1036 229.424 96.3066 233.566C106.134 232.109 115.998 230.998 125.891 230.073L128.59 229.825C134.78 229.267 140.967 228.679 147.151 228.062L151.546 227.617L155.939 227.161C157.485 226.999 167.904 226.466 169.863 226.824C170.072 225.064 170.345 221.255 170.787 219.542C163.385 219.793 156.015 219.243 148.656 218.265L147.358 218.088ZM170.814 144.367C178.365 148.957 189.871 159.66 181.748 171.04C172.186 181.073 158.418 169.569 151.634 164.366C145.343 160.334 138.275 170.704 144.112 175.413C193.135 211.708 213.03 145.567 174.633 138.97C170.406 138.243 168.836 142.947 170.814 144.367ZM184.328 163.704L184.691 163.507L184.814 163.432C185.026 163.295 184.891 163.31 184.408 163.477L184.046 163.607V163.863C184.139 163.806 184.238 163.763 184.328 163.704ZM87.6175 122.924L87.6162 122.699C87.6302 116.322 91.3442 101.762 100.524 101.762C106.259 101.762 109.741 111.671 110.344 121.886L110.365 122.302C110.631 128.653 108.888 142.534 100.524 142.534C92.0718 142.534 87.7044 129.387 87.6175 122.924ZM222.773 120.924L222.774 120.699C222.76 114.322 219.046 99.7623 209.866 99.7623C204.274 99.7623 200.825 109.182 200.097 119.12L200.046 119.886C199.684 126.022 201.314 140.534 209.866 140.534C218.318 140.534 222.686 127.387 222.773 120.924ZM92.8552 58.2849C100.347 57.1459 110.268 59.3099 113.761 66.9279C115.317 70.3219 113.474 74.0749 109.551 74.2629C100.07 74.7169 91.5672 72.6069 83.2452 78.7719C79.6638 81.4255 76.6527 85.0996 74.1259 88.7645L73.1699 90.1592L72.378 91.3083C70.6623 93.8308 69.0376 96.5714 69.2912 99.6149C69.3662 100.516 68.4452 101.371 67.5702 101.335C62.1162 101.111 61.5292 94.2729 62.2462 90.1659C63.5802 82.5439 67.2692 75.3889 72.3822 69.6259C77.7522 63.5739 84.8412 59.5039 92.8552 58.2849ZM196.044 67.5354C201.21 64.2144 207.818 62.9384 213.87 63.4274C225.803 64.3884 245.822 74.5324 243.187 89.1074C242.374 93.6024 236.122 95.9744 232.438 93.4804C228.477 90.7994 227.513 86.6324 224.565 83.1284C222.213 80.3294 219.232 78.3044 216.04 76.5794C212.894 74.8779 209.254 73.8469 205.684 73.471L205.089 73.4144C202.94 73.2314 192.088 73.2804 193.681 77.3314C193.993 78.1244 192.813 78.7524 192.271 78.1524C188.944 74.4724 192.712 69.6774 196.044 67.5354Z" fill="black"/>
</svg>
