<svg width="289" height="293" viewBox="0 0 289 293" fill="none" xmlns="http://www.w3.org/2000/svg">
<path fill-rule="evenodd" clip-rule="evenodd" d="M182.244 225.965L182.936 225.805C188.46 224.503 193.776 222.731 198.922 226.154C203.825 229.415 204.506 235.447 200.686 239.847C196.76 244.371 191.544 244.118 186.039 244.18L185.695 244.184C181.124 244.247 176.477 244.179 171.924 243.774C167.68 243.396 163.408 242.792 159.212 241.999L156.73 241.513C154.195 241 151.698 240.333 150.392 237.879C148.114 233.602 165.046 230.246 167.103 229.659C172.095 228.234 177.181 227.112 182.244 225.965ZM191.634 174.395C188.934 177.194 185.369 179.106 181.367 180.296C171.309 183.286 158.475 181.693 150.26 178.646C148.556 178.014 146.963 176.725 146.048 175.114C145.212 173.642 144.929 171.911 145.565 170.145C145.746 169.644 145.967 169.151 146.188 168.667C146.791 167.347 148.019 166.321 149.461 165.734C150.96 165.125 152.663 165.001 154.03 165.43C154.213 165.488 154.401 165.547 154.594 165.608C159.799 167.249 168.336 169.966 175.409 169.439C179.653 169.123 183.386 167.624 185.317 163.74C186.335 161.692 186.053 159.667 185.15 157.813C183.79 155.017 181.064 152.584 178.768 150.908C175.531 148.544 172.079 147.6 168.508 146.604C167.162 146.229 165.8 145.848 164.424 145.393C163.971 145.243 163.573 144.949 163.276 144.567C162.982 144.189 162.789 143.729 162.729 143.266C162.666 142.787 162.743 142.31 162.965 141.898C163.171 141.516 163.501 141.181 163.993 140.961C170.979 137.831 180.014 139.899 186.834 144.823C190.243 147.284 193.086 150.445 194.838 153.978C196.464 157.256 197.155 160.853 196.518 164.521C195.804 168.628 194.066 171.871 191.634 174.395ZM77.1356 104.555C79.0986 103.69 80.7116 107.739 81.1156 108.843L81.9511 111.133C83.314 114.826 84.8786 118.581 87.7446 121.322C90.1436 123.617 93.9876 125.562 96.7706 122.877C99.4106 120.33 98.1236 117.461 98.5126 114.336C99.2146 108.684 106.922 103.035 111.556 108.933C122.024 122.259 105.828 140.791 90.9096 137.54C83.3227 135.886 77.2154 129.803 74.7063 122.569L74.5776 122.187C73.0756 117.604 71.5566 107.016 77.1356 104.555ZM212.22 113.836L212.147 113.667C207.161 102.326 224.947 97.4516 226.455 107.635L226.551 108.322C228.018 119.626 224.927 134.828 211.081 135.955C195.539 137.221 189.067 119.88 190.455 107.155C190.704 104.877 193.468 104.562 194.322 106.632L194.504 107.083C197.013 113.478 199.396 125.777 208.238 125.765C214.146 125.756 213.864 117.781 212.22 113.836ZM223.496 81.0053C232.43 80.6883 232.418 94.6703 223.496 94.8803C193.694 95.5813 163.869 96.5133 134.058 96.6733L128.64 96.7064C100.638 96.8941 72.5397 97.2767 44.62 94.9263C42.237 94.7263 42.68 91.3803 44.671 91.5153C73.942 87.3493 103.57 86.1313 133.064 84.5483C163.181 82.9313 193.356 82.0753 223.496 81.0053Z" fill="black"/>
</svg>
