<svg width="289" height="293" viewBox="0 0 289 293" fill="none" xmlns="http://www.w3.org/2000/svg">
<path fill-rule="evenodd" clip-rule="evenodd" d="M199.723 205.925L200.548 205.882C206.179 205.562 211.647 204.739 216.677 207.894C223.363 212.087 223.393 221.623 216.677 225.808C211.393 229.103 205.651 228.021 199.723 227.867C194.841 227.74 189.958 227.652 185.075 227.6C175.316 227.498 165.563 227.474 155.803 227.523C146.998 227.567 138.185 227.464 129.382 227.252L125.61 227.154C116.581 226.906 107.127 227.218 98.2328 225.46L97.8508 225.394L97.8618 225.375C96.3208 224.857 95.5058 222.4 97.3478 221.546C106.173 217.455 116.262 215.74 125.739 213.794C135.335 211.826 145.096 210.404 154.828 209.29C164.547 208.18 174.337 207.396 184.1 206.773C189.304 206.439 194.513 206.164 199.723 205.925ZM170.19 80.2041L170.833 79.773C177.901 75.106 188.058 70.6121 196.203 74.1551C196.663 74.3551 197.052 74.6161 197.39 74.9161C199.389 74.9551 201.401 75.1211 203.419 75.4251C219.362 77.8281 234.094 88.2911 241.297 102.696C249.484 119.069 245.595 136.323 231.108 147.459C223.99 152.93 215.625 156.869 206.62 157.757C203.676 158.047 200.556 158.104 197.73 157.212C199.068 160.06 200.086 163.037 200.61 166.177C202.403 176.927 198.139 185.791 188.126 190.433C179.327 194.514 167.149 196.078 158.447 190.927C151.091 186.575 153.5 172.167 163.179 173.458C169.713 174.329 175.603 176.51 182.06 173.724C187.323 171.455 184.13 163.796 182.544 159.767C179.89 153.034 175.986 146.695 172.819 140.157L172.235 138.929C170.244 134.666 167.771 130.162 165.878 125.568C164.836 130.964 162.967 136.259 160.765 141.161C155.539 152.793 145.423 159.91 133.37 163.243C120.978 166.668 106.435 167.463 93.6585 167.042C80.6645 166.615 66.9845 163.21 57.4775 153.792C40.0615 136.539 45.0635 106.353 63.3905 91.9321C75.2455 82.6031 91.9495 76.2101 107.29 77.8661C114.974 76.1371 123.568 77.1191 131.256 78.8611C141.658 81.2181 151.589 86.2631 158.389 94.2981C158.893 93.0341 159.475 91.8231 160.141 90.6671C159.841 90.5291 159.655 90.0851 159.951 89.8191C160.493 89.3321 161.05 88.8651 161.607 88.3971C163.822 85.2911 166.683 82.5861 170.19 80.2041ZM44.1715 161.066C43.5455 160.178 44.7695 159.026 45.6475 159.591C52.8415 164.23 60.3725 168.447 68.6215 170.905C76.6795 173.306 85.0565 173.058 93.1505 175.11C96.1925 175.881 95.7095 179.836 93.1505 180.805C84.2425 184.181 74.1915 181.348 65.7285 177.765C57.1425 174.131 49.5845 168.726 44.1715 161.066ZM92.4535 86.9601L92.6685 86.7011L92.1455 86.8751C82.0635 90.2691 73.7615 95.8651 67.0135 104.034C55.5135 117.955 55.3765 140.09 72.5725 149.498C81.8435 154.569 92.7875 154.808 103.082 154.271L105.163 154.16C114.2 153.661 123.422 152.922 132.143 150.478C141.654 147.812 148.262 142.064 151.901 132.801L152.203 132.02C155.833 122.486 157.723 111.883 150.984 103.253C139.568 88.6361 113.189 85.7161 96.8845 92.7031C92.9795 94.3761 89.8455 90.2931 92.4535 86.9601ZM197.086 83.0381C196.815 83.3021 196.525 83.5431 196.203 83.7381C192.93 85.7011 189.249 85.7211 185.621 86.6211C182.279 87.4501 179.008 88.4621 175.932 90.0271C171.1 92.4821 166.117 95.4191 161.549 98.6221C162.528 100.186 163.404 101.837 164.155 103.585C166.229 108.416 166.928 113.503 166.71 118.611C169.893 121.365 172.554 124.79 175.371 127.885L177.856 130.618C180.754 133.815 183.632 137.048 186.329 140.403C187.932 142.397 189.559 144.439 191.122 146.541C191.327 145.914 191.616 145.3 192.021 144.717C193.544 142.521 195.895 141.412 198.582 142.047C200.934 142.605 202.506 143.669 204.963 143.685C207.972 143.705 210.872 143.057 213.72 142.128C219.318 140.302 224.804 137.021 228.898 132.771C238.138 123.176 233.263 109.655 226.055 100.515C218.754 91.2561 208.269 85.2441 197.086 83.0381ZM114.794 106.084C117.76 105.228 122.173 106.578 123.478 109.618L124.414 111.831C124.385 111.765 124.362 111.714 124.335 111.654C124.666 112.438 124.983 113.195 125.237 113.999L126.114 114.679C126.863 115.51 127.556 116.387 128.192 117.312C129.696 119.882 130.132 123.173 129.362 126.053C128.091 130.812 123.721 133.867 118.873 133.896C104.682 133.98 101.204 110.008 114.794 106.084ZM200.404 101.777C206.961 101.484 211.328 107.275 211.851 113.224C212.149 116.61 211.464 120.312 210.493 123.55C209.045 128.381 204.441 131.408 199.477 130.742C195.526 130.211 192.036 127.207 191.051 123.346C189.753 120.162 189.02 116.659 188.957 113.224C188.837 106.81 194.297 102.05 200.404 101.777ZM113.875 48.2474C120.525 47.1754 126.878 50.4074 127.845 57.5544C128.819 64.7634 123.51 69.5274 116.851 70.2354C104.297 71.5694 91.479 71.8864 78.865 72.4374C73.6038 72.6663 68.3361 72.7636 63.0699 72.81L60.437 72.8294C55.539 72.8584 49.152 73.8254 44.726 71.4144C44.438 71.2584 44.449 70.9034 44.632 70.6794C47.7421 66.8498 54.1728 65.2179 58.7696 63.5312L59.159 63.3864C64.978 61.1914 70.862 59.1364 76.824 57.3574L79.8535 56.4586C90.9923 53.178 102.454 50.0917 113.875 48.2474ZM156.088 44.7411C160.198 43.1961 164.254 44.1591 167.049 46.7721C176.396 49.3745 186.016 51.3686 195.424 53.647L197.984 54.2761C209.778 57.2191 222.738 59.4871 233.706 64.8821C234.87 65.4551 234.138 66.9411 233.114 67.0661C220.896 68.5501 207.733 66.1911 195.586 64.7711C183.141 63.3161 170.633 60.9161 158.151 59.9761C149.192 59.3011 147.89 47.8241 156.088 44.7411Z" fill="black"/>
</svg>
