<svg width="289" height="293" viewBox="0 0 289 293" fill="none" xmlns="http://www.w3.org/2000/svg">
<path fill-rule="evenodd" clip-rule="evenodd" d="M151.882 205.733C161.204 202.393 171.098 203.649 180.502 207.118L181.345 207.434C189.984 210.728 200.54 216.447 204.074 225.38C204.774 227.151 205.102 228.963 205.146 230.766C206.301 230.88 207.446 231.03 208.581 231.229C210.917 231.64 210.807 235.352 208.581 235.84C207.171 236.149 205.735 236.375 204.286 236.544C202.946 240.71 200.173 244.491 196.671 247.143C188.473 253.35 177.175 254.519 167.265 255.468C156.306 256.518 145.293 256.262 134.375 254.934L130.532 254.443C121.591 253.281 111.622 251.788 104.021 247.004C96.8658 242.503 91.9718 233.812 95.0008 225.371C98.1018 216.727 108.732 213.059 116.622 210.284C127.959 206.296 140.023 204.732 151.882 205.733ZM136.065 234.701C136.176 237.227 136.271 239.755 136.371 242.283C136.401 243.058 136.178 243.758 135.798 244.364C141.22 245.001 146.69 245.301 152.145 245.297C151.147 242.282 151.094 238.82 151.037 235.601C146.042 235.357 141.053 235.067 136.065 234.701ZM156.141 235.837L156.576 237.47C157.25 240.029 157.862 242.662 157.772 245.187C160.315 245.091 162.85 244.939 165.371 244.72L168.587 244.447C169.318 244.384 170.058 244.319 170.804 244.248C170.969 241.63 171.277 238.977 171.551 236.359C166.413 236.22 161.276 236.054 156.141 235.837ZM176.521 236.473C176.755 238.786 176.973 241.151 177.065 243.494C181.193 242.851 185.242 241.85 188.701 240.081C190.441 239.191 191.836 238.115 192.876 236.923C189.382 236.841 185.898 236.664 182.518 236.609C181.852 236.598 181.186 236.584 180.519 236.569L176.521 236.473ZM104.816 231.152C105.086 235.979 112.717 239.424 116.646 240.558C120.395 241.641 124.211 242.519 128.066 243.217C127.993 242.894 127.957 242.576 127.983 242.283C128.228 239.559 128.469 236.836 128.726 234.116L126.658 233.952C119.386 233.392 111.825 232.944 104.816 231.152ZM152.438 212.76C153.049 218.808 153.896 224.822 155.026 230.794L157.095 230.838C162.062 230.917 167.031 230.949 171.999 230.955C172.011 230.711 172.024 230.468 172.034 230.227C172.219 225.175 172.148 220.122 171.964 215.072C165.652 213.679 159.047 213.225 152.438 212.76ZM174.556 215.706C175.109 220.777 175.57 225.857 175.99 230.943L180.343 230.936C181.068 230.934 181.793 230.931 182.519 230.924C186.596 230.886 190.785 230.619 194.969 230.507C194.657 228.323 193.371 226.102 191.001 224.081C185.985 219.804 180.421 217.28 174.556 215.706ZM148.558 211.599C143.762 212.113 139.002 212.955 134.311 214.134C135.536 217.685 135.302 221.749 135.561 225.458C135.676 227.091 135.77 228.725 135.856 230.358C140.874 230.481 145.892 230.599 150.91 230.706C150.75 224.693 150.853 218.681 151.192 212.672L150.645 212.633C149.833 212.575 149.108 212.17 148.558 211.599ZM131.132 214.987C128.939 215.614 126.763 216.31 124.608 217.09L122.257 217.94C116.591 220.004 109.093 222.994 105.934 227.611C105.403 228.387 105.084 229.138 104.927 229.863C112.87 229.13 121.106 229.869 129.121 230.171C129.23 229.123 129.343 228.076 129.462 227.029L129.646 225.458C130.056 222.067 130.052 218.3 131.132 214.987ZM170.814 142.367C178.366 146.957 189.872 157.66 181.748 169.039C172.186 179.073 158.418 167.569 151.634 162.366C145.343 158.334 138.275 168.704 144.112 173.413C193.136 209.708 213.031 143.567 174.634 136.97C170.406 136.243 168.836 140.947 170.814 142.367ZM78.2565 86.7126C88.9875 68.0626 115.537 67.8476 130.726 82.0896C145.228 95.6886 147.022 118.89 135.439 134.794C123.094 151.744 99.1125 156.433 79.6655 150.392C61.4355 144.729 51.6365 124.95 57.8855 106.828C61.2655 97.0256 69.0455 90.2486 78.2565 86.7126ZM68.2577 55.4749C77.3267 47.4469 93.8057 39.6939 106.035 43.6449C113.066 45.9159 116.131 57.2449 108.282 60.8359C99.1927 64.9939 88.7137 63.3019 79.4627 67.6119C75.5777 69.4229 71.9237 71.6859 69.2187 75.0049C67.0877 77.6209 64.9197 81.0629 61.8377 82.5709C61.0277 82.9679 59.9307 82.9779 59.2817 82.2419C52.5257 74.5999 62.3587 60.6959 68.2577 55.4749ZM197.801 43.2464C203.406 41.6734 209.624 41.7054 215.318 42.6934C221.01 43.6814 226.789 46.0404 231.436 49.4814L231.976 49.8843C237.049 53.7072 243.103 59.2693 242.778 66.0414C242.507 71.6964 236.558 75.5214 231.422 72.5574C227.235 70.1404 225.265 65.2984 221.72 62.0744C218.795 59.4134 215.359 57.3154 211.693 55.8454C207.621 54.2124 203.542 53.4474 199.172 53.3744C195.807 53.3184 192.422 54.4224 189.12 54.7754C189.392 55.3334 186.782 55.0734 185.286 54.5784C184.178 54.1064 184.172 52.7054 184.556 51.7964C186.461 47.2934 193.392 44.4824 197.801 43.2464ZM203.903 74.8904C213.292 73.0264 223.731 75.0674 231.589 80.5714C245.679 90.4404 252 110.85 245.452 126.813C238.954 142.656 221.193 152.735 204.257 149.708C186.968 146.618 173.594 129.208 175.459 111.668C176.252 104.201 179.509 97.4714 184.328 92.3844C184.365 92.2094 184.406 92.0324 184.475 91.8504C187.863 82.8334 194.283 76.8014 203.903 74.8904ZM117.988 89.2296C107.223 82.7496 91.3961 86.3676 82.1491 94.1906C80.3131 95.7446 78.2411 95.2896 77.1141 93.9336C70.8381 98.9996 66.4071 106.087 65.6951 114.717C64.4201 130.196 75.4431 140.376 90.2951 141.547C105.473 142.744 121.181 138.508 128.33 123.965C134.503 111.41 129.972 96.4426 117.988 89.2296ZM219.898 89.8996C211.469 86.5946 199.38 88.5476 192.02 94.2036C186.417 101.428 183.69 111.34 185.844 119.458C188.956 131.182 200.206 140.315 212.565 139.016C224.003 137.814 234.337 128.658 235.565 117.033C236.746 105.852 230.61 94.0996 219.898 89.8996ZM212.747 107.444C214.668 106.074 216.96 107.617 217.663 109.444L218.065 110.272C218.278 110.715 218.496 111.173 218.504 111.19L218.58 111.411C218.682 111.602 218.804 111.78 218.92 111.961C219.01 112.023 219.757 112.958 219.857 113.08C221.062 114.568 221.702 115.929 221.664 117.887C221.591 121.758 217.979 124.484 214.234 123.547C210.206 122.539 208.491 118.373 208.858 114.548C209.149 111.52 210.252 109.223 212.747 107.444ZM103.388 108.183C105.165 106.567 107.907 106.431 109.661 108.183C110.624 109.145 111.014 110.217 111.705 111.336L112.033 111.85C112.752 112.954 113.504 114.014 113.697 115.369C114.155 118.558 113.166 121.526 110.024 122.853C106.899 124.171 104.005 122.823 102.102 120.257C99.8501 117.217 100.534 110.777 103.388 108.183Z" fill="black"/>
</svg>
