<svg width="289" height="293" viewBox="0 0 289 293" fill="none" xmlns="http://www.w3.org/2000/svg">
<path d="M142.765 257.816C118.832 239.984 152.125 207.297 173.292 219.191C183.308 223.729 188.289 238.778 180.348 247.553C177.848 250.212 174.267 252.835 170.562 252.445C174.072 245.426 176.589 233.443 168.523 228.816C159.961 222.577 140.034 235.624 144.626 246.419C145.796 250.088 149.979 250.478 151.858 253.474C153.543 255.743 152.125 258.436 149.714 259.252C149.111 259.5 148.473 259.606 147.853 259.606C146.08 259.606 144.271 258.738 142.765 257.816ZM165.936 149.936C162.301 146.444 165.492 140.364 170.42 142.703C183.662 152.754 180.047 175.921 162.798 175.922C161.77 175.922 160.723 175.851 159.606 175.674C156.274 175.266 153.136 174.167 150.016 172.979C155.174 171.898 161.45 171.862 165.669 168.122C170.278 163.017 170.279 155.2 165.936 149.936ZM80.1855 126.838C81.5861 117.408 94.4038 112.693 101.052 119.925C108.533 128.309 105.891 147.329 93.6592 147.329C92.5246 147.347 91.3012 147.17 89.9717 146.815C82.1183 144.334 78.8914 134.354 80.1855 126.838ZM196.729 139.281C185.01 136.835 185.507 110.69 198.555 111.576C200.008 112.25 201.462 112.196 202.951 112.834C207.844 115.121 209.705 121.148 209.74 126.2C209.811 132.404 204.901 139.441 198.413 139.441H198.307C197.793 139.441 197.26 139.388 196.729 139.281ZM78.3955 63.3076C85.7879 61.2869 94.1026 59.3018 101.513 62.1025C104.508 63.1664 105.962 67.0839 103.959 69.6895C101.406 72.8622 96.5836 71.7276 93.0381 73.0039C85.0961 74.6879 76.888 78.4816 69.9033 81.7432C59.905 86.7419 50.4915 93.3708 42 100.443C48.4352 83.8696 60.4551 67.9873 78.3955 63.3076ZM185.56 59C205.379 59.0002 223.213 72.3834 232.36 89.2939C218.533 82.8417 204.794 75.751 189.602 73.7656C184.744 73.1807 179.868 72.6669 174.976 72.5605C171.962 72.6846 168.647 71.4969 167.689 68.3594C165.739 58.6987 179.178 59.1418 185.56 59Z" fill="black"/>
</svg>
