<svg width="289" height="293" viewBox="0 0 289 293" fill="none" xmlns="http://www.w3.org/2000/svg">
<path fill-rule="evenodd" clip-rule="evenodd" d="M167.937 192.833C176.435 192.544 184.994 191.885 193.446 193.124C207.488 195.18 221.709 205.158 221.664 220.674C221.589 246.704 192.255 256.555 171.348 259.951L169.027 260.325C143.854 264.356 113.847 268.001 91.2613 253.729C80.6183 247.003 73.8703 235.637 76.9863 222.874C79.9543 210.711 90.2203 201.975 101.743 198.2C115.186 193.794 129.096 196.057 142.775 197.87C143.772 198.003 144.766 198.128 145.76 198.256C148.942 197.24 152.07 195.87 155.26 194.93C159.462 193.691 163.548 192.98 167.937 192.833ZM164.845 226.193L151.656 227.921C146.72 228.568 141.782 229.192 136.845 229.795C137.477 236.521 137.585 243.321 137.362 250.193C146.257 250 155.201 248.849 163.932 247.38C164.509 240.331 164.851 233.274 164.845 226.193ZM125.845 231.193C113.862 232.498 101.868 233.664 89.8447 234.656C92.5541 239.891 99.4996 243.21 104.819 245.087C110.903 247.234 117.18 248.525 123.55 249.193C124.656 243.263 125.373 237.244 125.845 231.193ZM212.842 221.193C203.783 222.679 194.447 223.325 185.407 224.463L174.845 225.793C175.929 232.219 176.748 238.695 177.266 245.193L178.911 244.871C186.321 243.386 193.765 241.399 200.312 237.635L200.866 237.308C206.101 234.146 213.009 227.861 212.842 221.193ZM126.845 211.193C120.92 211.725 114.659 211.829 108.95 213.085C100.609 214.921 90.5722 219.52 88.9942 228.912C88.736 230.449 88.8236 231.873 89.1704 233.193C101.521 230.852 113.89 228.702 126.29 226.701C126.588 221.528 126.739 216.346 126.845 211.193ZM158.919 208.193L150.803 208.9C144.822 209.422 138.833 209.59 132.845 210.035C134.287 214.715 135.327 219.435 136.039 224.193C140.961 223.433 145.885 222.689 150.817 221.967L164.845 219.915L164.826 216.372C164.809 213.994 164.777 211.586 164.69 209.184L164.106 209.136C162.352 208.942 160.629 208.6 158.919 208.193ZM208.845 213.772C203.237 208.737 192.736 209.085 186.029 209.29C181.002 209.444 175.903 209.969 170.845 209.962C171.792 213 172.691 216.058 173.429 219.193L184.237 217.616C192.364 216.432 200.614 214.8 208.845 213.772ZM170.815 144.367C178.366 148.957 189.872 159.66 181.749 171.04C172.187 181.073 158.419 169.569 151.635 164.366C145.344 160.334 138.276 170.704 144.113 175.413C193.136 211.708 213.031 145.567 174.634 138.97C170.407 138.243 168.837 142.947 170.815 144.367ZM244.786 118.774C242.203 135.656 215.664 159.196 212.063 159.196C208.462 159.196 177.626 129.244 177.626 115.921C177.626 102.597 190.947 84.7127 212.063 107.231C224.072 92.1947 247.37 101.892 244.786 118.774ZM126.884 103.768C133.128 112.885 130.751 124.227 124.395 132.539C118.771 139.897 99.8499 156.361 96.8869 156.785C93.2346 157.308 76.5172 138.402 72.6502 135.229C68.7832 132.056 58.0623 121.858 60.6082 112.411C63.0572 103.323 76.1618 87.9554 95.2965 103.768C101.38 88.6863 121.244 95.5333 126.884 103.768ZM64.7096 74.4154C74.5106 63.4324 95.2676 51.8434 106.708 66.6854C109.629 70.4774 106.51 76.6744 102.245 77.6544C96.9626 78.8694 91.6266 78.1304 86.4406 79.6374C81.6886 81.0184 77.1366 83.7854 73.0636 86.5434C68.4186 89.6874 64.1406 93.1974 60.2096 97.1964C57.8716 99.5754 54.9256 105.211 51.3196 105.316C47.7346 105.421 52.5466 94.2104 52.9446 93.2404C55.7716 86.3354 59.7426 79.9814 64.7096 74.4154ZM183.328 47.556C188.971 44.9258 194.477 46.0961 200.159 47.6504L202.606 48.33C208.66 50.013 215.123 52.081 220.317 55.71L220.724 55.9989C227.258 60.6861 237.247 70.744 232.479 79.482C232.16 80.065 231.484 80.123 230.94 79.885C224.796 77.194 220.241 71.82 213.706 69.572L212.5 69.1615C206.171 67.0296 198.341 64.7882 191.529 64.992C186.739 66.5489 180.27 65.2594 179.023 59.4287L178.967 59.143L178.859 58.539C178.141 54.555 179.209 49.476 183.328 47.556Z" fill="black"/>
</svg>
