<svg width="289" height="293" viewBox="0 0 289 293" fill="none" xmlns="http://www.w3.org/2000/svg">
<path fill-rule="evenodd" clip-rule="evenodd" d="M96.2851 218.87C96.3897 207.852 105.938 205.952 115.008 207.421C130.363 209.905 145.775 211.653 161.338 211.968L164.02 212.015C164.452 211.385 165.174 210.907 166.154 210.802C174.781 209.87 183.594 210.021 192.268 209.765C199.835 209.543 207.611 208.786 215.177 209.38L215.779 209.433C225.026 210.328 234.784 215.048 233.668 225.9C232.641 235.949 223.035 244.845 215.364 250.429C213.813 251.548 212.227 252.597 210.595 253.553C210.083 254.206 209.336 254.661 208.473 254.754C200.919 258.834 192.584 261.248 183.956 262.052C165.664 263.754 144.399 261.912 126.83 253.985C121.118 251.408 115.79 248.19 111.08 244.238C103.817 238.141 96.2037 228.896 96.2851 218.87ZM168.357 240.717C161.024 240.496 153.703 241.522 146.719 243.784C141.986 245.311 137.672 248.248 133.137 250.289C148.421 256.118 166.177 257.389 181.857 256.328C188.736 255.862 195.405 254.276 201.619 251.548C200.651 250.849 199.671 250.138 198.645 249.519C195.545 247.642 192.303 246.045 188.922 244.774C182.336 242.303 175.387 240.939 168.357 240.717ZM170.815 144.367C168.837 142.947 170.407 138.243 174.634 138.97C213.031 145.567 193.136 211.708 144.113 175.413C138.276 170.704 145.344 160.334 151.635 164.366L153.868 166.088C161.131 171.654 173.143 180.07 181.749 171.04C189.872 159.66 178.366 148.957 170.815 144.367ZM196.809 94.3094C204.971 87.3453 215.208 92.4777 221.217 99.5312L222.277 100.792C223.479 102.231 224.81 103.907 225.61 105.699C232.269 100.029 241.299 96.0394 249.94 98.6294C258.32 101.15 263.099 109.15 261.66 117.739C260.027 127.507 252.637 134.071 244.696 139.148L242.444 140.578C232.902 146.661 223.973 152.789 216.12 161.15C214.839 162.509 212.07 162.329 211.23 160.52L210.553 159.065L209.87 157.609C204.299 145.73 198.33 133.929 193.429 121.77C189.799 112.759 188.62 101.289 196.809 94.3094ZM103.766 100.618L105.009 99.1799C110.989 92.2199 121.119 87.5599 129.11 94.3099C137.619 101.5 135.949 113.39 132.159 122.56C127.595 133.62 122.265 144.436 117.143 155.285L116.049 157.61C115.589 158.58 115.139 159.55 114.69 160.52C113.849 162.33 111.07 162.51 109.799 161.15C102.19 153.05 93.5809 147.057 84.3858 141.166L81.6101 139.4C73.5391 134.28 65.9091 127.67 64.2491 117.74C62.8291 109.17 67.5791 101.12 75.9691 98.6289C84.6291 96.0599 93.6391 100.02 100.309 105.7C101.104 103.862 102.473 102.132 103.766 100.618ZM114.708 50.6856C117.629 54.4776 114.51 60.6746 110.245 61.6546C104.963 62.8696 99.6266 62.1306 94.4406 63.6376C89.6886 65.0186 85.1366 67.7856 81.0636 70.5436C76.4186 73.6876 72.1406 77.1976 68.2096 81.1966C65.8716 83.5756 62.9256 89.2116 59.3196 89.3166C55.7346 89.4216 60.5466 78.2106 60.9446 77.2406C63.7716 70.3356 67.7426 63.9816 72.7096 58.4156C82.5106 47.4326 103.268 35.8436 114.708 50.6856ZM224.159 47.6504L226.606 48.33C232.66 50.013 239.123 52.081 244.317 55.71L244.724 55.9989L245.353 56.4588C251.874 61.32 261.097 71.0199 256.479 79.482C256.16 80.065 255.484 80.123 254.94 79.885C248.796 77.194 244.241 71.82 237.706 69.572L236.5 69.1615C230.171 67.0296 222.341 64.7882 215.529 64.992C210.739 66.5489 204.27 65.2594 203.023 59.4287L202.967 59.143L202.859 58.539C202.141 54.555 203.209 49.476 207.328 47.556C212.971 44.9258 218.477 46.0961 224.159 47.6504Z" fill="black"/>
</svg>
