<svg width="289" height="293" viewBox="0 0 289 293" fill="none" xmlns="http://www.w3.org/2000/svg">
<path fill-rule="evenodd" clip-rule="evenodd" d="M101.162 210.672C108.415 209.272 117.438 212.322 124.671 213.658L125.21 213.755C133.981 215.287 142.733 217.139 151.601 218.043C160.067 218.908 168.713 219.063 177.18 218.09C181.246 217.622 185.277 216.826 189.227 215.758C190.917 215.301 192.593 214.791 194.249 214.225L194.436 214.154C195.653 213.651 198.943 211.759 198.904 212.813C199.829 211.746 201.103 210.989 202.502 210.621C204.476 210.102 207.01 210.589 208.662 211.985C210.811 210.283 214.035 211.504 215.476 213.542C217.947 217.037 217.143 221.134 216.824 225.189L216.797 225.546C216.526 229.368 216.111 233.164 215.599 236.958L215.373 238.583C214.576 244.194 214.357 253.448 207.558 255.287C202.181 256.743 197.26 251.21 193.794 246.819L191.896 244.387C189.649 241.536 187.609 238.601 185.965 235.36C185.216 233.885 184.492 232.374 183.865 230.843C183.786 230.65 183.728 230.477 183.668 230.303C173.696 231.645 163.488 231.453 153.49 230.135C147.16 229.3 140.924 228.094 134.782 226.474L132.011 231.483C128.768 237.324 125.479 243.147 122.022 248.856L121.754 249.291C118.518 254.44 113.099 259.597 106.692 255.74C100.959 252.288 100.715 244.436 100.111 238.577C99.7078 234.663 99.381 230.723 99.2239 226.787L99.1672 225.101C99.0642 221.285 98.4432 216.862 99.9102 213.293C100.123 212.773 100.87 212.373 101.32 212.92C104.385 216.646 105.312 222.421 106.636 226.994C108.11 232.082 110.245 237.639 111.011 242.917L111.225 242.545C111.98 241.112 112.749 239.686 113.523 238.262L115.843 233.991C117.924 230.135 120.043 226.303 122.181 222.48C119.74 221.563 117.321 220.578 114.912 219.576L109.445 217.29C106.322 215.971 103.138 214.482 100.79 212.082C100.374 211.657 100.519 210.795 101.162 210.672ZM204.88 224.76C199.493 226.95 193.921 228.53 188.248 229.578C188.614 229.953 188.979 230.328 189.319 230.722C190.654 232.267 192.07 233.751 193.495 235.218L194.35 236.097C196.532 238.336 199.81 242.023 203.155 244.166L203.336 243.199C203.366 243.032 203.389 242.887 203.401 242.775L203.757 239.594C203.815 239.064 203.871 238.533 203.924 238.002C204.212 235.133 204.441 232.258 204.681 229.385C204.807 227.871 204.837 226.316 204.88 224.76ZM141.13 39.8927C153.96 34.4127 169.187 37.0001 180.238 45.2777C191.546 53.7487 196.49 67.5208 197.145 81.2607C206.087 73.6247 218.967 79.4048 226.499 86.5597C235.191 94.8167 239.587 107.278 237.561 119.104C235.542 130.89 227.012 141.288 215.473 144.793C209.952 146.47 203.799 146.508 198.245 144.948C196.359 144.417 194.048 143.595 191.913 142.45C192.035 142.94 192.16 143.431 192.275 143.92C195.046 155.649 196.618 168.833 192.46 180.432C185.777 199.071 162.04 209.505 147.22 192.961C141.401 186.466 136.878 176.294 137.229 167.439C137.414 162.786 140.05 157.403 145.493 157.718C149.712 157.961 151.713 161.493 150.633 165.23L150.568 165.446C148.28 172.591 152.186 182.915 157.845 187.788C166.523 195.261 178.432 188.758 183.176 179.995C188.706 169.782 188.034 156.688 186.266 145.577C184.53 134.667 180.658 124.688 176.549 114.593C176.113 114.672 175.672 114.745 175.22 114.806C167.048 115.915 150.421 116.333 141.392 110.413C142.362 119.55 140.459 128.956 135.268 136.693C129.484 145.315 120.77 149.878 110.628 151.276C100.778 152.636 89.3595 152.911 79.6345 150.577C58.9255 145.607 51.6235 120.04 57.8865 101.584C61.5915 90.6667 71.9295 80.8477 83.4205 78.3677C89.3405 74.4737 97.2895 73.3208 104.122 73.8517C114.326 74.6467 124.376 79.0557 131.21 86.7987C133.821 89.7567 135.968 93.1058 137.623 96.6898C138.179 96.2518 138.826 95.9227 139.559 95.7507C140.701 95.4827 141.702 95.4227 142.82 95.8167C143.377 96.0137 144.179 96.7098 144.662 97.1618L145.766 98.4577C147.119 100.034 148.405 101.357 150.813 102.337C157.527 105.07 166.633 105.663 173.767 105.104C191.967 103.68 189.674 79.5728 185.191 67.1877C179.882 52.5157 164.662 43.3887 149.178 45.9947C142.525 47.1137 136.178 50.6547 131.308 55.2817C125.872 60.4478 123.544 66.6877 120.283 73.2267C120.09 73.6138 119.424 73.5297 119.34 73.1027C116.661 59.3147 129.368 44.9167 141.13 39.8927ZM44.194 151.055C43.641 150.406 44.367 149.265 45.159 149.803C50.96 153.744 57.411 156.588 64.424 157.357C67.718 157.717 71.038 157.742 74.319 157.237C77.114 156.805 79.633 155.953 82.423 156.723C83.908 157.133 84.178 158.856 83.271 159.936C79.056 164.953 68.679 163.613 63.021 162.268C55.704 160.53 49.071 156.785 44.194 151.055ZM239.405 141.895C242.253 140.13 245.643 143.625 243.959 146.448C239.635 153.691 227.102 154.281 219.831 152.547C219.262 152.413 219.392 151.52 219.968 151.536C224.147 151.639 227.924 150.836 231.524 148.656C234.6 146.793 236.435 143.735 239.405 141.895ZM100.442 83.9956L99.8715 84.0005C93.2235 84.1075 87.1355 86.6425 80.7295 87.9825C80.1985 88.0945 79.6655 88.0375 79.1845 87.8615C71.3825 93.0665 66.0045 101.251 65.2745 112.02C64.7685 119.479 66.5895 127.606 71.0185 133.727C76.0597 140.693 84.1804 141.768 92.1778 141.976L92.9905 141.995C108.109 142.29 124.741 141.397 130.13 124.495C134.118 111.986 129.859 96.7995 118.75 89.3065C113.354 85.6676 106.91 83.9895 100.442 83.9956ZM222.242 92.9667L221.798 92.449C215.869 85.6458 206.467 79.4495 197.198 82.8757L197.225 84.0215C197.228 84.2126 197.23 84.4037 197.23 84.5947C197.202 97.7327 192.111 109.994 179.598 113.849C182.955 118.638 185.652 123.952 187.812 129.467C188.574 128.969 189.501 128.653 190.577 128.544C194.982 128.098 197.506 132.235 201.326 133.778C204.902 135.224 208.958 135.597 212.733 134.85C220.991 133.217 226.785 126.096 228.815 118.194C231.11 109.261 228.078 99.8957 222.242 92.9667ZM96.5344 104.024C99.2882 99.3721 106.082 100.045 108.805 104.146L108.935 104.351L108.964 104.313C113.5 110.191 111.308 119.475 104.722 122.78C99.4394 125.429 92.7204 124.734 89.2084 119.577C88.4214 118.421 87.9164 117.061 87.7314 115.684C87.6054 114.747 87.6774 113.811 87.8874 112.88L87.8343 113.098C87.9384 112.628 88.1034 111.891 88.1464 111.716C88.6104 109.82 89.7234 107.786 91.1164 106.413C92.5514 104.999 94.5444 104.139 96.5344 104.024ZM209.702 99.1918C212.141 99.1918 214.305 100.212 216.067 101.829C218.573 104.13 218.922 107.442 218.381 110.585C218.215 111.544 217.987 112.471 217.748 113.415L217.543 114.269C217.507 114.41 217.468 114.551 217.424 114.69C217.274 115.275 217.035 115.812 216.751 116.326C215.708 120.209 211.485 122.137 207.762 121.29C206.01 120.891 204.263 119.437 203.371 117.913C203.077 117.411 202.871 116.911 202.725 116.409L202 114.69C201.864 114.278 201.779 113.836 201.67 113.415C201.427 112.472 201.193 111.543 201.024 110.585C200.449 107.337 200.907 104.259 203.338 101.829C204.97 100.196 207.395 99.1918 209.702 99.1918ZM155.979 65.5085C160.212 64.9405 164.523 66.9125 166.712 70.6515C168.614 73.9015 168.606 78.2745 166.712 81.5245L166.552 81.7995C163.063 87.7855 154.926 88.5535 150.031 83.9285L149.794 83.7045C146.646 80.7315 145.937 75.8005 147.567 71.9385C149.057 68.4065 152.181 66.0195 155.979 65.5085Z" fill="black"/>
</svg>
