<svg width="289" height="293" viewBox="0 0 289 293" fill="none" xmlns="http://www.w3.org/2000/svg">
<path fill-rule="evenodd" clip-rule="evenodd" d="M176.03 239.644C169.638 239.697 162.452 237.298 157.648 235.42L156.395 234.924C152.236 233.258 147.965 231.346 144.779 228.137C143.761 227.094 142.676 225.914 142.125 224.673C141.803 223.946 141.669 223.194 141.98 222.446C143.132 222.333 144.224 222.186 145.258 221.997C145.75 221.907 146.222 221.813 146.583 221.811C147.916 221.802 149.235 221.972 150.552 222.138C150.743 222.163 150.933 222.187 151.124 222.21C152.15 222.337 153.171 222.474 154.189 222.611C157.153 223.009 160.101 223.404 163.107 223.548C165.278 223.652 167.554 223.53 169.85 223.405C175.806 223.081 181.963 222.639 186.551 226.81C187.753 227.902 188.255 229.278 188.255 230.68C188.255 232.384 187.538 234.118 186.445 235.478C183.968 238.558 180.156 239.611 176.03 239.644ZM210.882 185.924C208.102 190.096 203.469 192.778 197.121 192.487C184.504 191.91 169.447 187.15 158.88 180.267C156.128 178.475 154.344 175.61 154.024 172.54L153.455 167.08L150.378 171.627C150.058 172.101 149.734 172.573 149.411 173.046C148.52 174.348 147.63 175.65 146.79 176.984C143.566 182.106 140.611 187.279 137.928 192.704C136.028 196.546 134.639 200.843 133.246 205.178C130.895 212.498 128.623 219.696 123.599 224.841C122.839 225.619 121.671 225.897 120.602 225.76C119.66 225.638 118.737 225.176 118.284 224.256C112.281 212.049 120.356 197.337 126.906 187.11L127.598 186.042C133.672 176.8 143.591 164.569 154.951 162.907L156.252 164.981L158.142 163.72C161.235 161.657 165.317 161.753 168.891 163.367L172.465 164.98C179.118 167.966 185.681 170.72 192.879 172.229C193.404 172.339 193.928 172.442 194.451 172.537C194.945 172.627 195.442 172.711 195.942 172.79C195.834 172.299 195.719 171.81 195.604 171.323C195.482 170.808 195.359 170.291 195.227 169.776C195.091 169.245 194.946 168.716 194.801 168.189C194.225 166.089 193.573 164.009 192.801 161.971C189.894 154.312 185.254 147.149 180.738 140.316L180.207 139.513C179.56 138.534 178.851 137.512 178.117 136.456C174.596 131.385 170.692 125.883 170.415 120.359C175.089 120.654 179 123.557 182.442 126.085C187.167 129.552 191.545 133.517 195.517 137.824C203.221 146.181 210.136 156.864 213.168 167.907C214.904 174.231 214.14 181.036 210.882 185.924ZM87.6173 122.924L87.616 122.699C87.63 116.322 91.344 101.762 100.524 101.762C106.259 101.762 109.741 111.671 110.344 121.886L110.365 122.302C110.631 128.653 108.888 142.534 100.524 142.534C92.0716 142.534 87.7042 129.386 87.6173 122.924ZM222.773 120.924L222.774 120.699C222.76 114.322 219.046 99.7621 209.866 99.7621C204.274 99.7621 200.824 109.182 200.097 119.12L200.046 119.886C199.684 126.022 201.314 140.534 209.866 140.534C218.318 140.534 222.686 127.386 222.773 120.924ZM118.534 79.768C117.318 79.9106 116.107 80.0975 114.897 80.2897C111.367 80.852 107.856 81.5271 104.369 82.3138C97.7468 83.8089 91.1773 85.6967 84.7333 87.8299C78.7033 89.8269 72.7672 92.0837 66.8325 94.3403C66.5158 94.4607 66.1991 94.5811 65.8823 94.7015C63.7869 95.4983 61.6985 96.3909 59.6036 97.2866C56.4154 98.6498 53.2127 100.022 49.9443 101.056C58.5551 89.1503 71.8238 80.3285 84.5909 74.0156C91.8753 70.4139 99.6033 67.5095 107.377 65.1296L111.706 63.8287C118.081 61.948 125.051 60.2108 131.039 63.9608C133.407 65.444 134.919 67.7495 135.395 70.242C135.861 72.6863 135.329 75.307 133.641 77.4942C132.17 79.3996 130.338 80.4847 128.388 80.8566C126.235 81.2671 123.953 80.8163 121.877 79.7072C120.213 79.5832 119.722 79.628 119.23 79.6828L118.534 79.768ZM214.432 80.9794C210.166 80.0518 205.941 79.6795 201.564 79.813C199.584 79.8725 197.669 80.1782 195.759 80.486C192.793 80.9639 189.838 81.4575 186.642 80.8776C184.975 80.5748 183.555 79.5997 182.458 78.3267C181.176 76.8384 180.328 74.9363 180.056 73.1278C179.775 71.2595 180.054 69.6257 180.745 68.183C181.562 66.4786 182.938 65.0421 184.6 63.7838C189.631 59.9752 198.263 60.8912 204.201 61.6612C210.068 62.424 215.903 64.2434 221.09 67.133C226.207 69.9853 230.655 73.8275 234.126 78.5239C237.052 82.4824 238.43 87.0384 239.854 91.6773C233.159 86.061 222.913 82.8205 214.432 80.9794Z" fill="black"/>
</svg>
