<svg width="289" height="293" viewBox="0 0 289 293" fill="none" xmlns="http://www.w3.org/2000/svg">
<path fill-rule="evenodd" clip-rule="evenodd" d="M182.685 224.726C191.513 222.777 193.215 235.557 184.156 236.071C165.347 238.056 146.839 242.542 128.012 244.314C125.335 244.172 123.296 241.353 124.183 238.783C124.963 236.071 128.1 235.486 130.44 234.76C147.317 228.821 165.152 227.527 182.685 224.726ZM164.105 143.576C169.583 142.105 172.899 148.468 175.079 152.492C181.443 165.361 170.789 182.644 156.837 182.644C155.507 182.662 154.16 182.503 152.777 182.166C149.71 181.475 146.909 179.773 144.232 178.178C147.937 177.859 152.281 178.178 155.826 176.6C162.244 173.073 166.445 162.863 164.814 155.79C164.034 153.627 162.545 151.854 161.517 149.798C160.471 147.493 161.517 144.25 164.105 143.576ZM84.6494 121.684C88.709 115.445 97.4848 115.267 101.935 121.135C105.959 125.123 107.66 131.204 106.951 136.734C106.331 143.647 99.9488 149.036 93.5137 149.036C90.9077 149.054 88.3198 148.167 86.0684 146.146C79.7041 140.049 79.5971 128.615 84.6494 121.684ZM190.254 120.09C191.885 115.392 196.848 111.882 201.865 113.158C211.491 115.338 215.019 128.863 209.045 136.202C206.794 139.393 203.39 141.821 199.508 141.821C198.834 141.803 198.125 141.733 197.416 141.573C188.109 139.517 185.964 127.499 190.254 120.09ZM102.804 79.1063C104.825 78.0253 107.502 78.1493 109.292 79.6737C117.021 87.5263 104.629 100.165 97.9814 104.579C90.3053 110.34 80.9802 113.956 71.4072 113.956C69.8472 113.956 68.2868 113.85 66.709 113.655C60.1853 112.928 53.5379 111.12 47.8828 107.752C46.5532 106.883 45.2587 105.944 44 104.969C45.1699 104.845 46.5349 104.881 47.7402 104.774C63.3761 103.533 84.4367 99.066 95.7471 87.6151C98.5126 85.0802 99.6127 81.1448 102.804 79.1063ZM173.307 86.161C167.546 69.7469 189.723 68.6127 198.002 70.8817C212.858 74.3561 225.994 88.9621 230.852 106.493C221.155 97.6832 210.854 88.998 198.711 86.658C195.112 85.9844 190.29 86.4273 186.939 87.2782C182.525 88.7849 176.498 92.1347 173.307 86.161Z" fill="black"/>
</svg>
