<svg width="289" height="293" viewBox="0 0 289 293" fill="none" xmlns="http://www.w3.org/2000/svg">
<path fill-rule="evenodd" clip-rule="evenodd" d="M156.465 188.481C177.02 187.667 215.078 191.435 230.601 203.591C246.566 215.627 226.539 254.385 224.298 254.301C201.356 253.44 178.614 256.729 155.936 259.781L151.37 260.396C136.067 262.504 114.734 266.208 107.463 248.552C98.4371 218.005 125.779 188.34 156.465 188.481ZM192.686 201.427C180.508 199.596 168.154 199.316 155.756 200.553C144.723 201.655 134.344 204.665 127.437 213.039C129.097 213.318 130.567 214.543 131.575 216.174C146.367 216.623 161.649 215.973 176.616 216.758C184.981 216.941 193.566 217.832 201.918 217.442C209.116 217.106 207.138 211.084 208.147 205.999C203.381 203.86 197.671 202.187 192.686 201.427ZM58.0328 85.613C72.8018 61.233 117.406 76.436 139.755 81.45C156.908 77.716 158.634 106.248 140.784 103.278C150.496 117.351 146.757 135.758 133.626 146.475C99.3968 175.003 36.5568 128.398 79.9388 95.14C80.4338 90.961 85.9588 89.773 89.2218 88.185L88.0546 87.9112C78.5173 85.7037 68.8612 84.2388 59.3898 87.395C58.4278 87.452 57.8528 86.455 58.0328 85.613ZM178.814 136.367C186.366 140.957 197.872 151.66 189.748 163.039C180.186 173.073 166.418 161.569 159.634 156.366C153.343 152.334 146.275 162.704 152.112 167.413C201.136 203.708 221.031 137.567 182.634 130.97C178.406 130.243 176.836 134.947 178.814 136.367ZM256.463 59.0034C257.008 58.9434 257.239 59.7014 256.895 60.0444C247.583 69.2394 235.95 75.9794 225.531 83.8244C242.336 85.1364 257.665 97.9654 262.876 113.873C267.509 139.169 230.961 150.8 211.451 143.16C195.355 137.604 183.684 121.982 192.462 105.394C183.28 105.483 173.99 93.4674 180.759 86.5554C186.758 80.4284 193.735 84.1384 196.447 82.6894L199.352 81.1404C217.465 71.5168 236.244 62.2637 256.463 59.0034ZM131.75 110.364C120.109 92.067 74.4368 91.743 75.6628 119.956C77.5078 157.248 151.347 148.789 131.75 110.364ZM225.991 94.7382C217.404 92.9012 209.878 102.755 205.063 100.215C177.836 131.296 233.24 149.151 251.384 125.398C261.313 112.569 238.157 95.0202 225.991 94.7382ZM110.91 111.948C122.181 107.84 122.088 124.548 113.746 127.85C104.206 131.601 101.042 111.721 110.91 111.948ZM212.13 113.745C211.537 103.496 226.979 98.8249 230.862 108.96C236.34 122.707 212.939 129.589 212.13 113.745Z" fill="black"/>
</svg>
