<svg width="289" height="293" viewBox="0 0 289 293" fill="none" xmlns="http://www.w3.org/2000/svg">
<path fill-rule="evenodd" clip-rule="evenodd" d="M168.364 195.517C180.754 195.457 199.313 195.098 211.693 195.828C215.263 196.038 217.023 201.137 217.273 203.557C219.643 226.047 201.683 243.988 181.853 250.938C163.453 257.388 139.154 258.607 122.744 246.557C115.614 241.327 110.213 234.077 106.693 226.007C104.793 221.657 103.404 217.147 102.634 212.467C102.044 208.897 100.923 204.087 102.233 200.578C104.033 195.788 109.044 196.127 113.334 196.047C119.254 195.927 125.174 195.776 131.084 195.707C143.514 195.566 155.944 195.566 168.364 195.517ZM202.733 202.067C197.16 202.668 135.664 203.107 126.164 203.317C124.734 203.348 123.234 203.317 121.714 203.277C120.661 206.535 123.394 213.243 126.334 214.408C129.275 215.572 154.134 216.714 168.813 216.044C178.823 215.594 204.79 209.526 204.79 206.923C204.79 204.319 203.683 201.968 202.733 202.067ZM78.3436 144.375C80.2566 143.363 82.0458 144.674 82.2938 146.642C82.7927 150.593 80.7065 154.723 80.6014 158.791C80.4885 163.142 80.9613 167.489 80.8153 171.84C80.5603 179.439 78.2911 187.069 73.9013 193.327C68.6613 200.795 54.8401 208.952 48.244 198.141C43.5011 190.367 47.2286 179.029 50.6806 171.528C53.3876 165.648 57.3252 160.211 61.7352 155.489C64.6703 152.345 70.8391 145.263 75.5809 145.975C75.7627 146.002 75.8443 146.22 75.8095 146.378C75.7775 146.517 75.7245 146.641 75.6815 146.773C76.3675 145.796 77.2306 144.963 78.3436 144.375ZM74.7333 148.458C73.8924 149.461 72.7491 150.264 71.7811 151.245C69.7222 153.33 67.6759 155.425 65.83 157.705C62.4651 161.862 59.6872 166.508 57.4843 171.375C54.8573 177.177 50.5311 187.125 53.6161 193.576C55.27 197.032 59.5254 196.413 62.3954 194.73C67.7574 191.587 70.9207 184.88 72.4227 179.112C74.0977 172.678 73.1193 166.149 73.1503 159.6C73.1653 156.255 73.2263 151.84 74.7333 148.458ZM230.998 134.183C231.09 131.71 233.571 130.396 235.724 131.471C239.412 133.314 240.969 137.058 243.006 140.491C245.368 144.472 247.731 148.454 250.093 152.435C254.261 159.46 259.951 166.957 262.051 174.946C265.155 186.754 254.909 195.42 243.552 192.884C231.701 190.238 227.301 176.456 227.551 165.691C227.682 160.056 228.997 154.332 230.107 148.829C230.76 145.592 230.985 142.074 231.823 138.828C231.267 137.292 230.94 135.738 230.998 134.183ZM170.814 144.367C168.836 142.947 170.406 138.243 174.634 138.97C213.03 145.568 193.135 211.708 144.111 175.412C138.275 170.704 145.343 160.333 151.634 164.366C158.418 169.568 172.186 181.073 181.748 171.039C189.871 159.66 178.366 148.957 170.814 144.367ZM236.751 147.525C236.277 150.687 235.568 153.729 235.239 155.975C233.942 164.816 233.023 176.298 240.331 182.986C243.424 185.817 248.798 186.866 252.392 184.195C257.649 180.289 252.13 172.777 249.677 168.765C246.053 162.839 242.484 156.884 238.939 150.911C238.297 149.829 237.538 148.695 236.751 147.525ZM96.122 101.597C108.677 99.5673 122.26 107.836 126.642 119.755C127.748 122.762 125.911 126.486 123.278 128.024C120.24 129.798 116.993 128.938 114.405 126.879C110.927 124.113 109.273 119.671 105.453 117.157C102.221 115.029 97.8896 114.917 94.1737 115.532C85.4358 116.978 78.5677 122.617 70.5868 125.911C69.4678 126.373 68.8124 124.937 69.1884 124.092C74.0224 113.228 84.116 103.538 96.122 101.597ZM217.841 101.106C227.876 100.245 239.833 104.592 243.007 114.917C243.083 115.165 242.821 115.458 242.562 115.362C236.49 113.111 229.775 111.743 223.284 112.888C219.104 113.626 210.853 116.585 210.537 121.379C210.048 128.773 201.47 130.593 197.291 124.967C193.227 119.495 196.725 112.011 201.215 108.056C205.923 103.91 211.631 101.639 217.841 101.106ZM104.465 56.5013C110.273 55.4969 117.494 54.5323 121.602 59.2015C123.781 61.6776 124.531 66.2788 121.602 68.6488C116.45 72.8187 110.755 71.2031 104.581 71.556C99.493 71.848 94.6029 72.6902 89.702 74.0912C78.9501 77.1642 70.1887 82.774 61.0057 88.934C59.8009 89.7418 58.571 88.2015 59.1454 87.0746C64.4464 76.6916 74.7197 68.1623 85.0097 62.9633C90.5016 60.1883 96.5118 57.8864 102.588 56.8304L104.465 56.5013ZM198.31 52.5912C199.803 51.9839 201.503 51.8407 203.192 52.1791L204.63 52.473C220.267 55.7417 240.583 62.271 247.988 77.6303C248.27 79.802 247.972 80.2675 247.729 80.5717L247.649 80.6732C247.45 80.9329 247.29 81.2907 246.349 81.5863C246.087 81.5241 245.823 81.4579 245.557 81.3881C242.162 80.4986 239.477 79.2738 236.877 78.0023L234.058 76.6127C230.787 75.0091 227.488 73.4643 223.991 72.3236C216.529 69.8897 208.854 68.1747 201.059 67.2592C199.37 67.0609 197.743 66.4911 196.46 65.514C195.242 64.5865 194.311 63.302 193.887 61.5951C193.337 59.3862 193.495 57.7138 194.68 55.7211C195.571 54.2246 196.846 53.1869 198.31 52.5912Z" fill="black"/>
</svg>
