<svg width="289" height="293" viewBox="0 0 289 293" fill="none" xmlns="http://www.w3.org/2000/svg">
<path fill-rule="evenodd" clip-rule="evenodd" d="M170.814 144.367C178.365 148.957 189.871 159.66 181.748 171.04C172.186 181.073 158.418 169.569 151.634 164.366C145.343 160.334 138.275 170.704 144.112 175.413C193.135 211.708 213.03 145.567 174.633 138.97C170.406 138.243 168.836 142.947 170.814 144.367ZM102.588 56.8307L104.465 56.5021L105.427 56.339C111.052 55.4091 117.718 54.7872 121.603 59.2017C123.782 61.6777 124.532 66.2797 121.603 68.6497C116.451 72.8197 110.755 71.2037 104.581 71.5567C99.4928 71.8487 94.6028 72.6907 89.7018 74.0917C78.9498 77.1647 70.1888 82.7747 61.0058 88.9347C59.8008 89.7427 58.5708 88.2017 59.1458 87.0747C64.4468 76.6917 74.7198 68.1627 85.0098 62.9637C90.5018 60.1887 96.5118 57.8867 102.588 56.8307ZM152.325 200.271C168.757 201.464 204.367 193.62 219.153 205.386C274.88 274.973 53.95 292.864 77.81 215.877C93.007 190.984 127.962 200.989 152.325 200.271ZM149.508 242.28C145.444 241.949 140.512 245.168 139.319 247.655C138.126 250.143 138.587 255.4 138.623 256.311C145.728 257.027 152.895 257.136 160.02 256.669C158.169 250.546 158.109 243.207 149.508 242.28ZM182.314 252.552C181.172 244.952 175.736 243.152 171.336 244.293C166.835 245.459 164.193 250.64 164.479 255.253C164.498 255.571 164.314 255.841 164.193 256.097C170.311 255.374 176.372 254.184 182.314 252.552ZM131.92 243.656C129.358 239.758 123.236 237.877 119.315 238.564C112.912 239.912 112.154 248.048 112.154 249.706C118.057 251.956 124.324 253.45 130.316 254.64C131.519 254.878 132.725 255.091 133.933 255.292L134.012 254.304C134.158 252.187 134.266 247.224 131.92 243.656ZM204.349 243.013C197.784 232.856 183.672 240.128 184.838 251.224C186.092 250.829 187.34 250.416 188.582 249.983C193.74 248.185 199.398 246.048 204.349 243.013ZM152.664 208.017C143.832 207.222 136.587 207.49 130.827 208.558L130.653 210.482C130.015 217.153 129.193 223.712 132.696 226.396C135.541 228.576 144.984 228.368 151.316 226.79C152.88 226.396 154.913 212.56 152.664 208.017ZM166.322 207.222C164.906 213.797 164.24 221.78 167.083 224.151C170.084 226.654 179.745 226.315 182.272 224.647C184.483 223.188 184.427 216.474 183.606 208.936C178.713 207.783 170.193 207.222 166.322 207.222ZM126.921 208.624L124.029 208.65L122.392 208.672C118.253 208.746 113.787 208.984 109.566 209.905C101.18 228.028 131.805 231.156 127.075 209.294L126.921 208.624ZM187.501 209.061L187.448 210.088C187.197 215.179 187.363 221.882 190.184 223.692C194.333 226.355 202.126 225.841 206.348 213.523C204.951 209.848 190.134 209.33 187.501 209.061ZM106.224 101C107.997 101 109.693 101.602 111.237 102.716C112.758 103.812 114.134 105.412 115.28 107.407C117.449 111.183 118.805 116.396 118.805 122.16C118.805 127.925 117.449 133.138 115.28 136.914C114.134 138.909 112.758 140.509 111.237 141.605C109.693 142.719 107.997 143.32 106.224 143.32C104.451 143.32 102.755 142.719 101.21 141.605C99.69 140.509 98.3138 138.909 97.1676 136.914C94.9987 133.138 93.6427 127.925 93.6427 122.16C93.6427 116.396 94.9987 111.183 97.1676 107.407C98.3138 105.412 99.69 103.812 101.21 102.716C102.755 101.602 104.451 101 106.224 101ZM218.464 101C220.237 101 221.933 101.602 223.478 102.716C224.998 103.812 226.374 105.412 227.52 107.407C229.689 111.183 231.045 116.396 231.045 122.16C231.045 127.925 229.689 133.138 227.52 136.914C226.374 138.909 224.998 140.509 223.478 141.605C221.933 142.719 220.237 143.32 218.464 143.32C216.691 143.32 214.995 142.719 213.45 141.605C211.93 140.509 210.554 138.909 209.408 136.914C207.239 133.138 205.883 127.925 205.883 122.16C205.883 116.396 207.239 111.183 209.408 107.407C210.554 105.412 211.93 103.812 213.45 102.716C214.995 101.602 216.691 101 218.464 101ZM203.192 52.1796L204.628 52.4737L205.582 52.6758C221.081 56.0097 240.732 62.5819 247.987 77.6311C248.269 79.8029 247.971 80.2684 247.729 80.5725L247.648 80.6737C247.448 80.9334 247.289 81.2914 246.347 81.587C246.086 81.5248 245.822 81.4589 245.556 81.389C242.161 80.4995 239.476 79.274 236.876 78.0025L234.057 76.6137C230.786 75.01 227.487 73.4648 223.99 72.324C216.528 69.8901 208.853 68.1755 201.058 67.26C199.369 67.0617 197.742 66.4916 196.459 65.5144C195.241 64.5869 194.31 63.3027 193.886 61.5957C193.336 59.3867 193.494 57.7142 194.679 55.7213C195.57 54.2247 196.846 53.1873 198.31 52.5916C199.803 51.9844 201.502 51.8412 203.192 52.1796Z" fill="black"/>
</svg>
