<svg width="289" height="293" viewBox="0 0 289 293" fill="none" xmlns="http://www.w3.org/2000/svg">
<path fill-rule="evenodd" clip-rule="evenodd" d="M146.587 240.927C139.864 238.184 133.866 233.61 129.481 227.766C127.957 225.735 127.561 223.59 127.881 221.628C128.241 219.422 129.546 217.422 131.326 216.081C133.112 214.736 135.345 214.072 137.504 214.41C139.381 214.704 141.248 215.732 142.727 217.862L143.035 218.288C145.642 221.815 149.04 224.709 152.91 226.574C156.641 228.372 160.814 229.211 165.132 228.723C173.356 227.794 179.024 223.347 185.049 217.307C185.796 216.544 186.543 215.758 187.294 214.959C187.768 214.235 188.426 213.769 189.157 213.525C189.968 213.253 190.886 213.269 191.726 213.562C192.537 213.845 193.262 214.381 193.747 215.095C194.209 215.773 194.471 216.611 194.386 217.574C193.835 223.833 190.562 229.42 185.914 233.806C180.752 238.677 173.909 242.047 167.466 243.229C160.368 244.531 153.136 243.598 146.587 240.927ZM170.814 144.367C178.365 148.957 189.871 159.66 181.748 171.04C172.186 181.073 158.418 169.569 151.634 164.366C145.343 160.334 138.275 170.704 144.112 175.413C193.135 211.708 213.03 145.567 174.633 138.97C170.406 138.243 168.836 142.947 170.814 144.367ZM82.9632 102.147C83.7976 91.7903 99.5702 89.4386 101.139 99.6866C102.544 108.867 100.89 117.3 96.7552 125.565C92.8042 133.461 82.8737 129.777 82.1227 122.587C81.116 112.949 82.4442 108.589 82.9632 102.147ZM203.026 97.5617C205.225 94.6817 208.4 92.7157 212.204 93.8267C224.089 97.2997 220.586 114.173 216.412 122.386C214.145 126.846 206.813 127.977 203.5 124.05C198.1 117.646 195.514 104.857 202.38 98.5487C202.565 98.2227 202.772 97.8937 203.026 97.5617ZM96.5878 56.8307L98.4652 56.5021C104.273 55.4977 111.494 54.5325 115.603 59.2017C117.782 61.6777 118.532 66.2797 115.603 68.6497C110.451 72.8197 104.755 71.2037 98.5808 71.5567C93.4928 71.8487 88.6028 72.6907 83.7018 74.0917C72.9498 77.1647 64.1888 82.7747 55.0058 88.9347C53.8008 89.7427 52.5708 88.2017 53.1458 87.0747C58.4468 76.6917 68.7198 68.1627 79.0098 62.9637C84.5018 60.1887 90.5118 57.8867 96.5878 56.8307ZM192.193 52.1796L193.629 52.4737C209.267 55.7423 229.583 62.2716 236.988 77.6311C237.27 79.8029 236.972 80.2684 236.73 80.5725L236.649 80.6737C236.449 80.9334 236.29 81.2914 235.348 81.587C235.087 81.5248 234.823 81.4589 234.557 81.389C231.162 80.4995 228.477 79.274 225.877 78.0025L223.058 76.6137C219.787 75.01 216.488 73.4648 212.991 72.324C205.529 69.8901 197.854 68.1755 190.059 67.26C188.37 67.0617 186.743 66.4916 185.46 65.5144C184.242 64.5869 183.311 63.3027 182.887 61.5957C182.337 59.3867 182.495 57.7142 183.68 55.7213C184.571 54.2247 185.847 53.1873 187.311 52.5916C188.804 51.9844 190.503 51.8412 192.193 52.1796Z" fill="black"/>
</svg>
