<svg width="289" height="293" viewBox="0 0 289 293" fill="none" xmlns="http://www.w3.org/2000/svg">
<path fill-rule="evenodd" clip-rule="evenodd" d="M93.3465 186.477C110.489 184.396 127.105 189.644 143.863 192.29C152.711 193.685 161.57 194.728 170.523 195.115C172.324 195.194 174.127 195.24 175.929 195.277C176.096 193.69 176.984 192.234 178.908 191.361C182.852 189.573 186.008 188.767 190.338 188.94C194.301 189.096 198.278 189.504 202.181 190.218C209.268 191.517 216.386 194.466 221.57 199.588C233.567 211.441 231.741 230.48 222.471 243.391C203.319 270.068 168.364 271.306 138.426 270.958L135.663 270.922C108.404 270.533 69.4041 274.597 57.0198 243.583C52.4656 232.178 53.0982 218.959 58.6742 208.021C65.3249 194.974 79.3247 188.178 93.3465 186.477ZM178.495 230.895L178.251 230.905C165.683 231.389 153.117 231.73 140.542 231.952C140.918 235.181 141.302 238.412 141.741 241.634C142.086 244.17 142.455 246.703 142.839 249.233C143.002 250.304 143.598 251.967 143.43 253.028L143.369 253.447C144.014 253.739 144.6 254.21 145.036 254.892C145.188 255.128 145.298 255.367 145.407 255.604C155.17 255.68 165.677 255.491 175.629 253.716L175.649 253.5C175.83 252.229 176.359 251.373 177.061 250.786C177.761 246.732 177.697 242.411 177.967 238.389C178.136 235.89 178.318 233.393 178.495 230.895ZM130.938 232.124C121.879 232.278 112.816 232.396 103.759 232.286L99.6479 232.222C100.516 236.88 101.461 241.523 102.246 246.212C103.066 251.099 98.7639 254.206 95.0409 254.08C95.459 254.149 95.8761 254.22 96.2942 254.278C107.926 255.923 120.004 255.487 131.809 255.474C131.174 251.767 131.431 247.585 131.336 244.491L131.318 244.012C131.137 240.047 131.01 236.085 130.938 232.124ZM69.4061 231.269C69.7204 233.691 70.3321 236.061 71.2471 238.268C75.1138 247.593 83.9787 251.944 93.3585 253.776C91.731 253.214 90.4388 251.864 90.1125 249.552C89.2992 243.801 89.0069 237.955 88.9849 232.117C82.448 232.056 75.8672 231.916 69.4061 231.269ZM212.585 229.278C207.931 230.376 202.523 229.873 197.956 230.08C193.679 230.274 189.399 230.444 185.121 230.617C185.323 233.537 185.519 236.457 185.733 239.375C186.008 243.148 186.034 247.134 186.757 250.891C195.366 247.952 203.08 243.24 208.868 235.706C210.31 233.828 211.601 231.625 212.585 229.278ZM91.38 201.775C83.6327 203.61 76.3005 207.485 72.36 214.574C70.0211 218.781 68.9923 223.767 69.1898 228.68C75.7377 227.918 82.3984 227.629 89.0271 227.39C89.0491 226.196 89.0772 225.004 89.1131 223.814L89.2152 220.764C89.3959 214.948 89.4867 207.644 91.38 201.775ZM131.479 202.485L128.069 202.102C118.596 201.022 109.128 199.889 99.6549 200.539C98.2839 200.633 96.8919 200.783 95.4969 200.987C97.1713 207.029 97.0306 214.126 97.7301 220.107C98.0005 222.42 98.3418 224.713 98.7199 226.998L100.363 226.921C110.529 226.37 120.704 226.032 130.877 225.628C130.876 223.718 130.886 221.807 130.917 219.895L130.955 217.983C131.07 213.099 130.755 207.598 131.479 202.485ZM179.048 201.709C169.127 203.311 158.873 203.651 149.127 203.663C145.234 203.668 141.344 203.429 137.455 203.085C137.709 205.155 137.84 207.249 138.031 209.291C138.415 213.417 138.854 217.536 139.331 221.652L139.756 225.253C152.26 224.686 164.763 224.074 177.264 223.439L179.029 223.344L179.523 216.423C179.86 211.808 180.23 207.194 180.753 202.6L180.361 202.459C179.9 202.269 179.463 202.008 179.048 201.709ZM183.358 203.427C183.904 209.953 184.207 216.505 184.609 223.041L192.85 222.601C194.224 222.526 195.597 222.45 196.97 222.371C202.311 222.063 209.173 220.446 214.453 221.954C214.856 217.155 213.484 212.479 209.152 209.254C201.547 203.591 191.864 205.607 183.358 203.427ZM155.2 145.094C167.472 138.066 198.263 130.883 200.213 152.968C201.11 163.131 193.555 171.551 184.732 175.309L184.4 175.448C176.125 178.85 161.458 182.692 154.297 175.315C148.337 169.175 156.242 158.166 163.648 163.196C167.454 165.78 175.465 163.876 179.712 162.646L179.978 162.569C184.561 161.222 190.671 156.911 188.776 151.268C187.099 146.276 179.963 145.364 175.494 145.202C168.823 144.963 162.331 146.512 155.721 147.016C154.674 147.096 154.351 145.58 155.2 145.094ZM206.036 109.581C222.692 108.801 233.053 126.987 229.223 141.888C228.561 144.459 225.685 146.983 222.909 146.694L222.21 146.63C221.854 146.595 221.497 146.55 221.169 146.46C218.533 145.73 216.17 142.988 216.362 140.146L216.413 139.318C216.802 132.279 216.039 124.169 207.673 122.464C200.578 121.018 196.617 127.847 196.533 134.133C196.517 135.249 195.263 136.028 194.276 135.428C189.147 132.307 188.259 126.098 190.218 120.751C192.701 113.976 198.915 109.914 206.036 109.581ZM82.4325 113.482C94.5535 109.438 107.63 115.899 113.499 126.615C115.558 127.211 117.614 128.798 117.328 131.228C116.915 134.724 116.293 136.928 113.869 139.579C110.078 143.726 102.977 141.605 101.401 136.5L101.334 136.27C99.5445 129.671 92.2805 125.317 85.6635 127.627C77.9335 130.325 78.1575 138.489 72.7355 143.245C72.0985 143.804 71.3345 143.893 70.5705 143.524C64.8115 140.741 65.8465 132.365 67.8995 127.571C70.5925 121.28 75.8265 115.685 82.4325 113.482ZM65.9252 76.6741C75.7472 66.6521 101.359 56.9541 108.078 75.4611C109.358 78.9861 106.633 83.7391 102.963 84.4701C96.9532 85.6661 91.6212 83.0571 85.6512 83.5251C80.8182 83.9061 75.7772 85.5211 71.9132 88.5151C61.2112 96.8071 58.8572 110.832 51.4002 121.386C51.0372 121.9 50.3322 121.684 50.2652 121.078C48.5672 105.713 55.1672 87.6501 65.9252 76.6741ZM194.02 66.8082C200.538 64.5062 207.919 64.7032 214.471 66.7452C221.071 68.8032 227.13 72.7112 231.798 77.8172C233.916 80.1352 235.876 82.6932 237.448 85.4162C238.283 86.8592 239.161 89.8402 240.11 91.6152C245.245 94.5796 247.439 101.335 242.843 106.14L242.635 106.351L242.02 106.961C239.549 109.407 235.823 110.467 232.45 109.49C224.902 107.306 223.985 101.361 221.372 95.0512C219.646 90.8832 216.689 87.1952 213.104 84.4862C204.631 78.0862 190.738 76.0472 180.537 79.0632C179.994 79.2242 179.356 78.5322 179.743 78.0302C181.676 75.5262 182.79 73.4712 185.378 71.4512C188.005 69.4012 190.872 67.9202 194.02 66.8082Z" fill="black"/>
</svg>
