<svg width="289" height="293" viewBox="0 0 289 293" fill="none" xmlns="http://www.w3.org/2000/svg">
<path fill-rule="evenodd" clip-rule="evenodd" d="M182.162 217.944C175.819 214.892 168.563 215.103 161.911 217.122C154.037 219.514 147.065 224.482 140.86 229.771C138.439 231.835 136.138 234.166 133.829 236.509C130.895 239.486 127.95 242.492 124.682 244.929C125.76 235.746 132.203 226.421 137.737 219.676C144.526 211.403 153.98 204.697 164.2 201.454C175.084 197.999 186.314 199.898 195.128 205.507C203.861 211.065 210.223 220.27 211.505 231.527C211.774 233.892 210.669 236.056 209.029 237.696C207.116 239.609 204.43 240.869 201.925 240.869C199.369 240.869 197.102 239.839 195.42 238.198C193.657 236.476 192.531 234.087 192.37 231.492C192.262 228.726 191.621 226.304 189.297 223.386C187.736 221.427 184.801 219.214 182.162 217.944ZM198.289 121.302C195.657 122.259 192.599 124.57 191.71 127.1C191.515 127.657 191.405 128.226 191.396 128.803C190.539 127.062 190.213 125.011 190.324 122.982C190.679 116.536 196.827 111.858 202.064 109.124C203.925 108.152 205.837 107.507 207.743 107.167L214.488 105.964L208.155 103.349C202.314 100.938 196.837 97.6207 191.95 93.5602C187.281 89.6839 182.965 84.6709 180.432 79.1394C179.288 76.6413 178.39 74.1975 177.761 71.5575L177.592 70.8159C177.283 69.3937 176.944 68.6683 176.564 67.8635C176.342 67.3912 176.099 66.8827 175.839 66.0559C175.693 65.5916 175.611 65.2029 175.747 64.9001C175.879 64.6071 176.199 64.4814 176.512 64.3631C178.579 63.5808 181.91 64.1138 183.324 64.6791C186.743 66.0458 189.748 69.0252 192.64 71.8156C194.051 73.1773 195.433 74.5077 196.806 75.6457C205.565 82.9076 216.498 87.0393 227.182 88.047L227.824 88.1038C230.65 88.3357 233.27 89.4485 235.126 91.3051C236.786 92.9649 237.811 95.2228 237.811 97.927C237.811 100.561 236.626 103.097 234.784 104.938C233.026 106.696 230.648 107.836 228.066 107.744C226.252 107.68 224.452 107.517 222.664 107.278L216.014 106.387L221.091 110.773C222.099 111.644 223.046 112.643 223.899 113.803C228.525 120.102 230.511 129.706 230.339 137.415C230.306 138.887 229.9 140.404 229.15 141.712C228.495 142.854 227.574 143.84 226.386 144.455C224.965 145.192 223.762 145.586 222.143 145.617C220.383 145.652 218.892 145.095 217.667 144.162C216.135 142.996 215.01 141.275 214.237 139.399C213.21 136.903 213.149 134.267 213.047 131.633C212.977 129.812 212.901 127.988 212.598 126.191C212.165 123.896 211.127 120.971 209.818 120.048C207.885 118.684 202.743 119.734 199.549 120.85L198.289 121.302ZM170.814 144.367C178.365 148.957 189.871 159.66 181.748 171.04C172.186 181.073 158.418 169.569 151.634 164.366C145.343 160.334 138.275 170.704 144.112 175.413C193.135 211.708 213.03 145.567 174.633 138.97C170.406 138.243 168.836 142.947 170.814 144.367ZM117.252 129.796C115.188 127.468 113.179 125.298 110.074 124.062C106.401 122.598 101.951 122.44 98.1305 123.537C93.7989 124.781 90.3694 127.652 87.8286 131.32C85.5963 134.543 84.0589 138.378 83.1823 142.16C81.5459 140.363 80.7807 138.285 80.4113 136.171C79.8031 132.691 80.2341 129.104 81.4203 125.694C84.0612 118.1 90.4233 111.349 97.8418 108.444C106.312 105.126 116.793 106.234 124.574 110.905C128.543 113.289 133.119 117.426 135.423 121.473C136.998 124.238 137.088 127.102 136.088 129.561C134.986 132.269 132.609 134.467 129.575 135.571C128.137 136.094 126.657 136.052 125.253 135.681C123.426 135.198 121.719 134.167 120.327 132.965C119.167 131.965 118.2 130.866 117.252 129.796ZM129.909 81.9062C128.17 84.2323 125.61 85.4209 122.942 85.5457C122.669 85.5585 122.395 85.5601 122.123 85.5503C121.951 85.7481 121.759 85.9668 121.533 86.2238C121.012 86.817 120.671 87.2064 120.316 87.5844C119.033 88.95 117.685 90.2535 116.28 91.4937C113.152 94.2576 109.783 96.6821 106.138 98.7165C99.7548 102.283 92.7539 105.064 85.555 106.392C78.4114 107.709 71.3596 108.114 64.1661 107.082L62.4213 106.831C58.2658 106.222 52.8186 105.428 49.4062 102.854C50.7501 102.426 52.1114 102.405 53.4395 102.347C54.3135 102.308 55.1819 102.269 56.0287 102.191C60.0547 101.825 63.9671 101.157 67.8651 100.078C75.4423 97.9813 82.3089 95.0855 88.9987 90.9352C95.5578 86.8675 101.581 81.3311 106.379 75.2665L106.954 74.5311C107.199 74.2145 107.44 73.8992 107.68 73.5862C109.643 71.0212 111.446 68.5768 114.495 66.9491C116.911 65.6602 119.356 65.3118 121.707 65.6827C124.435 66.1131 127.025 67.4864 129.32 69.4081C131.017 70.8289 131.802 72.8749 131.927 74.9733C132.074 77.4419 131.323 80.0132 129.909 81.9062Z" fill="black"/>
</svg>
