<svg width="289" height="293" viewBox="0 0 289 293" fill="none" xmlns="http://www.w3.org/2000/svg">
<path d="M129.332 228.914C142.787 218.863 160.197 213.475 176.79 217.782C184.714 219.626 193.242 222.94 197.939 229.96C202.46 236.465 198.347 245.382 191.167 246.145H191.149C190.547 246.269 189.944 246.339 189.412 246.393C187.622 246.499 186.168 246.995 184.537 247.208C178.527 249.317 171.862 249.353 165.675 250.842C153.496 253.217 141.334 256.337 128.854 256.337C128.623 256.372 128.411 256.372 128.198 256.354C105.241 256.461 118.359 236.395 129.332 228.914ZM164.842 238.38C153.478 238.38 142.273 245.063 132.452 252.597C143.656 252.118 154.595 249.264 165.604 247.314C171.205 246.57 176.843 244.78 182.498 244.638C176.701 240.189 170.745 238.38 164.842 238.38ZM164.664 143.634C169.628 140.213 173.563 147.232 175.531 150.937C182.48 164.213 174.609 180.468 160.693 180.469C158.548 180.486 156.243 180.096 153.832 179.245C151.492 178.607 149.383 177.065 147.787 175.363C154.329 174.956 161.686 172.669 165.249 166.767C175.07 152.284 159.009 150.37 164.664 143.634ZM84.1973 123.976C87.406 117.204 96.9787 113.269 103.201 118.48C113.146 126.723 108.006 147.178 95.1182 147.179C93.8242 147.161 92.441 146.949 90.9697 146.506C82.5667 143.244 80.5099 131.421 84.1973 123.976ZM195.314 116.176C197.761 113.428 201.874 112.347 205.295 113.801C212.28 116.655 214.106 126.085 212.563 132.785C211.34 138.191 205.757 142.375 200.456 142.375C197.797 142.375 195.208 141.312 193.275 138.83C188.524 132.307 188.347 121.281 195.314 116.176ZM96.252 59.0801C105.151 57.8038 108.945 69.6623 100.542 73.0303C83.5056 82.2124 65.7422 90.5435 50 101.835C52.4112 77.2136 72.5677 61.5085 96.252 59.0801ZM185.475 53C203.982 53.2127 220.187 69.5034 224.813 86.6445C215.045 82.3194 205.543 77.9405 195.952 73.3672C190.864 70.4247 185.404 68.1199 179.784 66.7373C175.778 64.8582 174.91 58.8145 178.029 55.7656C180.157 53.7095 182.638 53.2305 185.475 53Z" fill="black"/>
</svg>
