<svg width="289" height="293" viewBox="0 0 289 293" fill="none" xmlns="http://www.w3.org/2000/svg">
<path fill-rule="evenodd" clip-rule="evenodd" d="M155.883 250.932C163.442 249.88 171.57 245.599 178.79 249.078C182.165 250.704 183.767 256.265 181.485 259.356C178 264.077 174.402 264.858 168.745 265.312C164.504 265.652 160.24 265.677 156.01 265.188L154.934 265.056C147.387 264.082 139.542 261.975 133.694 256.903C132.498 255.865 133.111 253.623 134.646 253.299C141.59 251.838 148.854 251.911 155.883 250.932ZM146.986 233.526C146.983 233.465 147.076 233.465 147.079 233.526C147.262 237.846 148.476 241.851 150.72 245.547C150.751 245.6 150.67 245.647 150.639 245.595C148.394 241.896 147.169 237.85 146.986 233.526ZM170.814 144.367C178.365 148.957 189.871 159.66 181.748 171.04C172.186 181.073 158.418 169.569 151.634 164.366C145.343 160.334 138.275 170.704 144.112 175.413C193.135 211.708 213.03 145.567 174.633 138.97C170.406 138.243 168.836 142.947 170.814 144.367ZM209.464 93.0004C211.237 93.0004 212.933 93.6023 214.478 94.716C215.998 95.812 217.374 97.4118 218.52 99.407C220.689 103.183 222.045 108.396 222.045 114.16C222.045 119.925 220.689 125.138 218.52 128.914C217.374 130.909 215.998 132.509 214.478 133.605C212.933 134.719 211.237 135.32 209.464 135.32C207.691 135.32 205.995 134.719 204.45 133.605C202.93 132.509 201.554 130.909 200.408 128.914C198.239 125.138 196.883 119.925 196.883 114.16C196.883 108.396 198.239 103.183 200.408 99.407C201.554 97.4118 202.93 95.812 204.45 94.716C205.995 93.6023 207.691 93.0004 209.464 93.0004ZM127.347 98.88L128.014 98.7534C131.909 98.045 133.877 98.2835 137.269 100.938C139.818 102.933 139.088 106.862 137.269 108.96C134.1 112.616 131.005 111.968 126.665 112.108L126.36 112.119C122.743 112.266 119.123 112.369 115.503 112.424C114.513 112.44 113.522 112.436 112.532 112.442C112.637 121.603 107.355 128.578 100.399 133.881C95.9027 137.31 90.2157 133.354 88.6117 129.086C87.2847 125.554 86.9997 121.211 87.6877 117.344C87.9426 115.919 88.4738 114.371 89.2862 113.052L89.5147 112.698L89.4777 112.192C89.4687 112.067 89.4777 111.946 89.4737 111.821C83.0162 111.429 76.596 110.781 70.178 109.967L68.0387 109.69C62.5607 108.965 54.5157 108.732 50.0827 105.169C49.9427 105.055 49.9927 104.806 50.1407 104.727C52.5777 103.414 55.0502 103.489 57.7756 103.368L58.1667 103.349C61.1307 103.196 64.088 103.068 67.0503 102.967L70.0147 102.874C77.5967 102.657 85.1857 102.289 92.7607 101.886C94.0777 101.816 95.3947 101.733 96.7137 101.652C98.0927 101.074 99.5587 100.728 101.007 100.664C102.207 100.61 103.361 100.776 104.446 101.121C107.212 100.907 109.978 100.674 112.74 100.424L115.503 100.168C119.401 99.797 123.499 99.635 127.347 98.88ZM175.216 30.2198C183.549 26.1248 193.681 26.0248 202.263 29.4138L202.831 29.6441C211.499 33.241 221.943 41.5492 219.682 51.8978C217.613 61.3698 202.756 59.7648 202.003 50.8118C197.206 44.1658 186.449 42.7078 179.687 46.9338C175.586 49.4978 172.771 53.8148 170.847 58.1688C169.207 61.8768 168.898 66.4558 166.379 69.6858C166.297 69.7908 166.133 69.8098 166.014 69.7818C158.502 68.0438 158.328 56.1068 159.609 50.3168C161.47 41.8988 167.443 34.0418 175.216 30.2198Z" fill="black"/>
</svg>
