<svg width="289" height="293" viewBox="0 0 289 293" fill="none" xmlns="http://www.w3.org/2000/svg">
<path fill-rule="evenodd" clip-rule="evenodd" d="M176.139 216.867C180.504 215.713 185.147 214.406 189.955 215.21L189.954 215.211C197.598 216.282 202.521 221.081 204.066 226.948C205.606 232.79 203.763 239.56 198.196 244.551C195.997 246.817 193.299 248.782 190.077 249.621L190.076 249.62C187.795 250.236 185.209 250.414 182.819 249.498L181.56 249.016L182.388 247.95C182.632 247.636 182.935 247.353 183.186 247.125C183.448 246.886 183.659 246.699 183.839 246.508C185.852 243.853 188.632 241.81 190.932 239.805C193.301 237.739 195.268 235.643 196.127 232.725C196.85 229.567 195.568 227.019 193.342 225.348C191.072 223.643 187.857 222.897 184.954 223.488L184.953 223.487C181.704 224.185 178.616 225.19 175.27 226.042C171.983 226.88 168.585 227.527 165.038 227.389L165.005 227.387L164.971 227.384C161.678 227.031 158.415 226.214 155.274 225.556C152.099 224.89 148.997 224.373 145.846 224.533C140.375 224.904 134.752 225.99 130.99 229.75C128.436 232.712 127.791 235.792 128.446 238.625C129.071 241.328 130.908 243.924 133.66 246.024L134.224 246.437L134.24 246.448L134.257 246.461C139.332 250.378 145.838 251.704 152.139 253.211L151.941 255.183C148.504 255.306 145.003 255.47 141.498 255.217L141.484 255.216C134.258 254.594 126.938 251.105 122.697 245.864C120.567 243.23 119.197 240.128 119.052 236.72C118.907 233.306 119.995 229.678 122.621 226.003L122.637 225.981L122.654 225.959C127.414 220.022 134.379 217.171 141.702 216.246C149.012 215.323 156.765 216.304 163.28 218.115C167.529 219.065 171.701 218.041 176.139 216.867ZM190.296 248.519L190.382 248.495C190.443 248.476 190.504 248.455 190.564 248.435C190.475 248.464 190.386 248.492 190.296 248.519ZM134.653 247.987C134.897 248.154 135.144 248.314 135.393 248.471C134.97 248.203 134.553 247.924 134.146 247.627L134.653 247.987ZM196.044 245.214C196.116 245.152 196.189 245.09 196.261 245.027C196.316 244.977 196.371 244.925 196.426 244.875C196.3 244.99 196.172 245.103 196.044 245.214ZM197.502 243.831C197.184 244.16 196.855 244.48 196.518 244.79C196.573 244.739 196.63 244.69 196.685 244.639C196.964 244.377 197.236 244.106 197.502 243.831ZM198.777 242.587C198.82 242.542 198.863 242.498 198.905 242.452C198.944 242.41 198.98 242.367 199.019 242.324C198.939 242.412 198.859 242.5 198.777 242.587ZM199.219 242.101C199.256 242.059 199.295 242.018 199.331 241.976C199.367 241.934 199.401 241.892 199.437 241.85C199.365 241.934 199.292 242.017 199.219 242.101ZM201.42 239.018L201.451 238.967C201.511 238.86 201.569 238.752 201.627 238.645C201.56 238.77 201.49 238.894 201.42 239.018ZM203.457 232.992C203.402 233.415 203.33 233.838 203.24 234.26C203.325 233.863 203.396 233.465 203.449 233.068C203.453 233.043 203.454 233.017 203.457 232.992ZM163.887 219.253C164.119 219.292 164.351 219.324 164.583 219.353C164.21 219.306 163.837 219.249 163.463 219.175L163.887 219.253ZM167.063 144.105C170.13 141.464 174.703 144.104 176.636 146.976C180.164 151.159 181.635 157.098 181.015 162.469C180.376 173.53 168.907 181.401 158.341 178.21C156.692 177.838 154.955 177.111 153.572 176.295C156.604 176.313 159.564 175.622 162.454 174.771C169.492 172.821 173.197 164.578 172.523 157.718C172.133 154.404 169.918 151.975 167.985 149.458C167.205 147.916 166.124 145.789 167.063 144.105ZM88.0508 119.944C92.5182 114.661 102.038 113.758 106.506 119.554C110.335 124.943 110.583 132.583 108.58 138.698C105.885 145.257 97.6419 149.972 91.1182 145.824C85.7468 142.634 83.1936 135.809 84.8066 129.8C84.9485 126.202 85.4625 122.656 88.0508 119.944ZM191.935 122.071C192.289 115.033 198.672 109.238 205.728 111.932C219.572 116.541 215.832 141.871 200.764 140.843C191.882 139.974 189.843 129.285 191.935 122.071ZM101.808 63.2385C107.534 63.6819 114.784 68.4499 112.355 74.9729C111.115 78.3054 107.746 79.6882 104.413 79.635C100.939 79.9895 97.4817 80.6272 94.0781 81.3362C76.368 84.5801 60.0936 92.5217 46 103.406C51.7438 79.493 78.141 63.3449 101.808 63.2385ZM184.933 61.8196C193.779 60.3483 203.388 60.6143 211.561 64.6204C219.91 69.2292 228.969 76.5683 230.458 86.4417C222.622 82.081 213.404 81.6734 204.682 80.6985C196.917 79.3336 189.152 78.0395 181.264 77.7913C175.945 77.3304 172.914 70.6655 176.264 66.429C178.409 63.6638 181.618 62.4755 184.933 61.8196Z" fill="black"/>
</svg>
