<svg width="289" height="293" viewBox="0 0 289 293" fill="none" xmlns="http://www.w3.org/2000/svg">
<path fill-rule="evenodd" clip-rule="evenodd" d="M189.059 229.111C195.379 227.638 200.343 232.99 199.101 239.153C197.786 245.677 190.771 247.913 184.889 247.708C178.22 247.477 171.556 246.1 164.854 245.823C157.969 245.539 151.058 245.487 144.169 245.673C137.797 245.845 131.257 246.968 124.935 245.96C122.473 245.567 122.706 242.317 124.308 241.162C129.064 237.732 135.228 236.334 140.834 234.895C146.55 233.427 152.393 232.303 158.255 231.617C164.198 230.922 170.19 230.575 176.172 230.507C178.895 230.476 182.234 231.081 184.889 230.591C186.242 230.34 187.62 229.447 189.059 229.111ZM170.814 144.367C178.365 148.957 189.871 159.66 181.748 171.04C172.186 181.073 158.418 169.569 151.634 164.366C145.343 160.334 138.275 170.704 144.112 175.413C193.135 211.708 213.03 145.567 174.633 138.97C170.406 138.243 168.836 142.947 170.814 144.367ZM116.06 110.092C126.161 108.412 127.928 122.812 117.917 123.818C115.816 124.029 113.727 124.213 111.642 124.396C111.845 125.048 111.98 125.719 112.054 126.409C112.149 126.995 112.22 127.617 112.283 128.328C112.6 131.871 110.088 135.555 107.153 137.273C104.103 139.058 99.7248 139.296 96.6958 137.273C95.1338 136.229 93.5738 135.052 92.7128 133.326C91.5578 131.553 90.9278 129.501 90.8638 127.395C86.2588 128.591 81.5698 130.208 76.9188 131.065C77.0898 131.233 77.2578 131.412 77.4208 131.609C77.5448 131.76 77.3748 132.043 77.1938 131.904L74.8608 131.387C74.1428 131.481 73.4248 131.558 72.7088 131.603L72.7258 131.54C71.5288 131.519 70.5488 130.104 71.6198 128.972C75.729 124.628 82.1408 121.742 87.9865 119.329L93.6187 117.02C100.821 114.093 108.423 111.362 116.06 110.092ZM197.32 114.547C203.936 113.792 210.487 114.092 217.114 114.496C228.267 115.175 223.589 131.439 214.637 127.684C214.729 128.279 214.753 128.875 214.684 129.43C214.334 132.289 213.402 134.705 210.778 136.241C208.341 137.667 205.252 137.663 202.815 136.241C200.205 134.719 199.028 132.574 198.362 129.787C197.846 127.626 198.053 125.818 198.351 123.678C198.45 122.969 198.759 122.308 199.187 121.714C198.563 121.558 197.938 121.407 197.312 121.266C191.746 120 186.255 120.254 180.705 119.452C180.113 119.366 180.019 118.41 180.537 118.167C185.524 115.824 191.864 115.169 197.32 114.547ZM115.04 64.3154C118.858 62.8584 123.654 65.2814 125.603 68.6144C127.815 72.3964 126.87 76.7624 124.14 79.9494C119.952 84.8383 111.976 87.85 106.099 90.6397L105.627 90.8654C99.5906 93.7774 93.3896 96.4515 87.1046 98.7814C80.9236 101.074 74.4936 102.87 68.0856 104.412C64.7066 105.225 61.2556 105.897 57.8026 106.321C55.0766 106.655 52.9746 105.907 50.3666 105.907C49.9856 105.908 49.8666 105.403 50.1776 105.209C52.6146 103.677 54.4236 101.66 57.0816 100.241C59.8496 98.7645 62.6276 97.3124 65.4156 95.8744C71.0526 92.9684 76.4806 89.7344 81.9186 86.4794C87.6506 83.0484 93.2526 79.4354 98.7006 75.5674C104.032 71.7824 108.945 66.6404 115.04 64.3154ZM183.076 61.2035C187.844 60.2785 192.566 62.5345 193.977 67.3935C195.33 72.0485 193.915 73.0465 197.524 76.3775C200.401 79.0322 203.503 81.4016 206.634 83.7347L211.241 87.16C219.586 93.3375 228.001 99.1783 237.596 103.347C238.407 103.699 237.938 104.904 237.169 104.92C221.915 105.214 207.288 103.149 193.519 96.3195C187.087 93.1295 180.625 89.0945 176.898 82.7265C172.581 75.3525 172.707 63.2135 183.076 61.2035Z" fill="black"/>
</svg>
