<svg width="289" height="293" viewBox="0 0 289 293" fill="none" xmlns="http://www.w3.org/2000/svg">
<path fill-rule="evenodd" clip-rule="evenodd" d="M190.321 203.417C190.62 203.744 189.961 204.184 189.632 203.946C185.823 201.185 179.823 202.752 176.146 204.002C176.146 204.002 174.802 247.317 176.289 248.343C177.776 249.37 198.733 248.76 198.733 251.33C198.733 259.731 186.13 262.885 179.289 262.385C168.518 261.6 157.417 260.064 146.661 261.308C135.905 262.552 113.055 269.416 101.359 259.93C87.4088 248.616 89.295 230.022 100.902 217.883C108.219 210.232 118.985 205.641 129.601 202.24C145.136 197.263 181.748 194.05 190.321 203.417ZM161.668 235.217C156.035 237.41 128.031 246.659 121.377 248.343C129.154 247.785 155.707 247.168 161.668 244.284C162.337 241.583 162.764 234.79 161.668 235.217ZM165.944 205.191C150.701 207.666 117.784 218.83 113.055 224.773C120.241 223.643 160.332 218.83 164.855 218.83C165.512 215.332 165.076 209.2 165.944 205.191ZM170.814 137.367C178.365 141.957 189.871 152.66 181.748 164.04C172.186 174.073 158.418 162.569 151.634 157.366C145.343 153.334 138.275 163.704 144.112 168.413C193.135 204.708 213.03 138.567 174.633 131.97C170.406 131.243 168.836 135.947 170.814 137.367ZM187.557 70.3906C191.99 70.3539 194.579 73.2309 197.903 75.7929C201.326 78.4319 205.453 80.5369 209.454 82.1489C213.626 83.8279 218.086 85.1609 222.478 86.1119C227.031 87.0959 231.22 86.6349 235.74 87.4679C247.722 89.6769 244.886 109.656 232.871 108.668C222.057 107.779 210.448 101.135 202.247 94.2459C198.328 90.9546 195.02 87.1823 191.801 83.24L191.198 82.4989C188.34 78.9729 185.671 75.3639 187.105 70.7349C187.167 70.5349 187.345 70.3929 187.557 70.3906ZM87.6162 128.699C87.6302 122.322 91.3442 107.762 100.524 107.762C106.259 107.762 109.741 117.671 110.344 127.886L110.365 128.302C110.631 134.653 108.888 148.534 100.524 148.534C92.0718 148.534 87.7044 135.387 87.6175 128.924L87.6162 128.699ZM222.774 128.699C222.76 122.322 219.046 107.762 209.866 107.762C204.274 107.762 200.825 117.182 200.097 127.12L200.046 127.886C199.684 134.022 201.314 148.534 209.866 148.534C218.318 148.534 222.686 135.387 222.773 128.924L222.774 128.699ZM117.658 71.3419C123.383 68.8709 129.944 69.5729 133.391 75.4669C136.654 81.0449 134.433 87.7679 129.265 91.1999C124.19 94.5711 117.377 96.4042 111.541 98.3322L110.897 98.5469C105.241 100.45 99.5812 102.006 93.7392 103.222C88.2801 104.358 82.7797 105.2 77.2477 105.871L75.5872 106.067C71.2722 106.565 65.2532 108.242 61.3692 105.786C61.0242 105.569 60.8912 105.12 61.0992 104.76C63.3602 100.845 69.3622 99.2849 73.2132 97.3019C78.1582 94.7539 83.0322 92.0409 87.8622 89.2819C92.7452 86.4919 97.6152 83.6559 102.446 80.7759C107.464 77.7849 112.322 73.6439 117.658 71.3419Z" fill="black"/>
</svg>
