<svg width="289" height="293" viewBox="0 0 289 293" fill="none" xmlns="http://www.w3.org/2000/svg">
<path fill-rule="evenodd" clip-rule="evenodd" d="M195.648 205.743C187.262 201.289 177.421 202.043 169 206.021C158.706 210.884 150.747 218.869 143.697 227.65C140.99 231.021 138.458 234.536 135.928 238.048C134.887 239.494 133.846 240.938 132.794 242.372C132.589 242.641 132.364 242.93 132.125 243.236C130.44 245.402 128.14 248.397 127.259 251.115C126.906 252.206 126.774 253.259 126.933 254.219C127.009 254.683 127.152 255.128 127.37 255.549C126.026 255.896 125.129 255.565 124.509 254.898C123.527 253.841 123.182 252.254 123.168 250.432C123.118 243.906 127.421 234.392 129.178 230.472C129.359 230.068 129.514 229.722 129.636 229.442C135.991 214.903 146.157 200.74 160.288 192.903C173.98 185.31 190.186 183.875 204.351 191.053C220 198.984 224.27 214.687 226.043 230.826C226.315 233.298 225.196 235.579 223.476 237.299C221.534 239.241 218.806 240.498 216.256 240.498C213.609 240.498 211.184 239.377 209.412 237.604C207.624 235.817 206.495 233.364 206.475 230.706L206.458 229.158C206.376 223.769 205.998 218.709 204.042 214.419C202.47 210.969 199.895 207.999 195.648 205.743ZM174.816 133.367C182.367 137.957 193.873 148.66 185.75 160.04C176.188 170.073 162.42 158.569 155.636 153.366C149.345 149.334 142.277 159.704 148.114 164.413C197.137 200.708 217.032 134.567 178.635 127.97C174.408 127.243 172.838 131.947 174.816 133.367ZM111.251 134.874C109.216 135.87 106.961 136.274 104.749 135.813C102.768 135.399 100.832 134.289 99.1174 132.333C96.7635 129.644 95.0546 125.826 96.1966 122.183L96.5235 121.246C96.9101 120.156 97.431 119.135 98.0649 118.208C98.4718 116.224 98.5537 114.924 98.6306 113.69C98.6503 113.374 98.6696 113.063 98.6916 112.753C98.8134 111.025 99.0672 109.215 99.6473 107.551C99.7565 107.237 99.878 106.927 100.009 106.621C99.6847 106.507 99.36 106.393 99.0354 106.278C96.7925 105.488 94.5565 104.685 92.3327 103.844C86.008 101.453 79.754 98.7576 73.7001 95.7416C70.709 94.251 67.7934 92.574 64.9147 90.8773C63.54 89.963 60.5244 87.8345 59.1721 86.6884L58.1459 85.8186L57.6087 87.052C57.0314 87.6336 56.5656 87.6788 56.174 87.5482C55.753 87.4078 55.4411 87.076 55.245 86.6774C55.009 86.1975 54.9353 85.6134 55.0599 85.0496C55.172 84.5417 55.4492 84.0513 55.9172 83.6651C57.7009 82.1943 60.2168 82.8328 62.3072 83.2427C62.6056 83.3012 62.8977 83.3585 63.1813 83.4103C66.432 84.0043 69.675 84.7117 72.9048 85.4419L76.7926 86.3275C78.2762 86.666 79.7593 87.0059 81.2422 87.3457C98.089 91.2066 114.907 95.0581 132.123 96.7505L133.937 96.9206C137.006 97.1946 139.737 98.4977 141.536 100.573C143.193 102.484 144.039 105.048 143.637 108.022C143.244 110.931 141.607 113.354 139.354 114.854C137.113 116.347 134.261 116.927 131.415 116.163C126.071 114.73 120.739 113.222 115.432 111.622L116.673 114.571C117.741 117.14 118.726 119.803 118.842 122.52C118.95 125.073 118.201 127.545 116.905 129.66C115.525 131.91 113.524 133.761 111.251 134.874ZM231.353 73.4297C230.035 75.2286 228.52 76.7651 227.011 78.3048C223.751 81.6304 220.492 84.9558 217.001 88.0493C215.735 89.1714 214.456 90.2769 213.176 91.3828C212.702 91.7932 212.227 92.2037 211.752 92.615L211.005 93.2626L211.644 94.0169C211.816 94.2193 211.978 94.4284 212.113 94.6498C214.031 97.7894 215.096 101.197 216.174 104.615C216.913 106.956 217.655 109.303 218.651 111.583L218.973 112.297C220.27 115.088 220.619 118 219.93 120.629C219.28 123.104 217.706 125.314 215.18 126.923C214.545 127.328 213.461 127.798 212.727 127.961C209.832 128.603 206.901 128.156 204.505 126.796C202.214 125.495 200.419 123.358 199.622 120.555C198.447 116.415 197.691 112.208 197.731 108.107C197.738 107.413 197.768 106.716 197.818 106.017C197.361 106.481 196.836 106.89 196.24 107.227C194.384 108.275 192.288 108.378 190.316 107.843C188.086 107.238 186.008 105.821 184.569 103.968C183.303 102.337 182.528 100.361 182.628 98.2961C182.715 96.4933 183.476 94.6368 185.103 92.888L186.638 91.3246C187.78 90.1659 189.352 89.2745 191.027 88.824C192.564 88.4106 194.194 88.3662 195.657 88.865C197.628 88.3256 198.907 87.6896 200.094 87.0981C200.939 86.6769 201.736 86.2791 202.447 85.9695C205.91 84.4634 209.36 82.9282 212.798 81.3658C215.78 80.0097 218.808 78.758 221.836 77.506C225.027 76.1871 228.217 74.8677 231.353 73.4297Z" fill="black"/>
</svg>
