<svg width="289" height="293" viewBox="0 0 289 293" fill="none" xmlns="http://www.w3.org/2000/svg">
<path fill-rule="evenodd" clip-rule="evenodd" d="M176.643 221.019C183.414 219.601 190.435 225.609 186.766 232.451C184.319 237.007 178.859 236.884 174.356 236.547C162.833 235.572 151.434 239.028 140.142 240.145C138.014 240.091 135.904 239.401 134.043 238.55C134.078 235.466 136.454 232.54 138.918 230.803C150.405 224.492 163.755 222.454 176.643 221.019ZM162.319 144.53C162.142 141.003 166.167 139.354 169.074 140.666C175.864 144.336 179.285 153.003 178.222 160.484C176.91 171.367 167.177 179.823 156.877 179.823C153.686 179.823 150.442 179.007 147.375 177.217C145.248 176.012 143.422 174.115 141.844 172.378C149.502 173.335 158.295 170.588 163.082 164.384C164.873 160.112 166.769 154.883 165.103 150.486C164.003 148.501 162.213 146.976 162.319 144.53ZM96.1943 112.995C107.185 112.694 112.22 127.318 108.284 136.11C106.281 140.79 101.832 145.559 96.5488 145.559C95.8043 145.559 95.0417 145.452 94.2617 145.257C78.3067 142.332 80.0088 114.307 96.1943 112.995ZM199.92 110.142C203.696 108.883 208.217 110.071 210.309 113.616C215.538 121.93 214.03 138.805 201.745 138.911C198.873 138.911 196.02 137.794 194.158 135.401C188.804 127.815 190.613 113.758 199.92 110.142ZM96.1064 64.3907C99.5632 64.5148 103.446 64.7807 106.3 66.9786C110.448 69.9923 109.756 77.0466 104.846 78.8546C83.8383 82.5594 66.7665 96.3505 47.1064 103.281C47.0887 103.317 47.0705 103.352 47.0527 103.405C47.0177 103.405 47.0177 103.405 47 103.405C47.2305 95.5882 52.5665 88.3029 57.0693 82.0988C66.0573 70.3286 81.676 64.8162 96.1064 64.3907ZM177.902 72.8634C174.782 63.6635 184.568 59.4447 192.244 61.5187C204.442 63.3857 216.966 68.3788 224.254 78.7804L225.103 80.0148C227.567 83.7228 229.093 87.9314 230.323 92.2023C226.76 91.4223 223.232 90.1106 219.74 88.923C209.104 86.1046 199.335 81.0534 188.858 77.9513C184.551 77.8804 179.675 77.6494 177.902 72.8634Z" fill="black"/>
</svg>
