<svg width="401" height="382" viewBox="0 0 401 382" fill="none" xmlns="http://www.w3.org/2000/svg">
<path d="M73.7908 281.528C74.7655 290.361 75.6694 299.372 73.7377 308.133C73.6668 308.489 73.5782 308.827 73.4718 309.2C67.4641 304.543 61.5805 299.709 55.8032 294.857C55.5728 294.644 55.3247 294.449 55.0943 294.218C56.1931 287.269 55.2716 279.786 54.0133 273.104C51.8158 263.951 46.2157 248.969 37.4966 244.543C24.666 239.833 16.6911 246.054 13.4658 258.655C9.14164 274.081 16.0531 308.418 33.8281 312.577C40.1548 313.803 46.7296 310.515 50.6993 305.628C50.7702 305.539 50.8233 305.45 50.8765 305.379C56.9196 310.835 62.8211 315.847 68.6693 320.45C65.1249 326.421 60.1273 331.647 54.5272 332.002C40.4206 332.766 30.5319 321.108 23.4432 310.32C12.367 292.316 7.84797 269.869 12.3848 249.04C15.0253 239.567 20.3596 220.141 32.1977 219.946C46.9069 222.256 58.8868 233.809 65.0717 246.978C70.087 257.89 72.9579 269.549 73.7908 281.528Z" fill="white"/>
<path d="M32.2331 209.549C31.2229 209.656 30.1065 209.549 28.9723 209.46C28.547 206.67 27.7672 203.791 27.7672 201.782C25.552 185.147 25.4102 168.263 27.3596 151.557C33.1014 107.321 52.8967 69.1811 85.9834 40.8694C104.946 23.47 127.701 11.7757 151.483 4.13346H151.59L153.078 4.0802L157.562 3.97357L160.645 3.93799H163.853L167.096 4.00904L170.322 4.15125L171.934 4.24009L173.529 4.34672L176.631 4.59557L178.155 4.73778L179.696 4.89767L181.238 5.07546L184.322 5.4664L187.405 5.89293L188.965 6.12398L190.542 6.37282L192.119 6.63946L193.697 6.92377L195.256 7.20808L198.411 7.84798L199.988 8.20334L200.874 8.39892C176.524 12.8243 152.299 20.4843 130.696 33.636C113.399 44.3884 97.0595 57.5045 83.4137 73.3043C73.0287 85.6385 65.2843 100.176 58.9753 115.194C53.0917 130.461 49.317 146.581 47.0131 162.878C44.3017 179.815 44.7093 197.126 48.9271 213.53C49.122 214.01 49.317 214.579 49.4942 215.183C44.5321 211.771 37.8509 210.171 32.2331 209.549Z" fill="white"/>
<path d="M116.625 55.9406C113.063 59.1397 109.695 62.5698 106.523 66.2665C96.8471 78.2452 85.7178 91.0059 79.5152 105.491C75.6695 115.159 71.5581 124.756 68.315 134.655C64.7706 146.634 63.6896 159.164 61.9883 171.498C60.2515 185.627 58.5147 200.663 62.3604 214.525C61.3148 214.65 60.2515 215.094 59.3123 215.716C59.2237 215.343 59.1173 214.952 59.0464 214.543C57.6995 208.607 57.0439 202.298 56.3527 196.024C55.254 185.307 56.2109 174.448 57.5223 163.749C61.7224 136.202 70.7783 108.441 86.8343 85.8874C95.5712 74.584 105.637 64.5958 116.625 55.9406Z" fill="white"/>
<path d="M200.609 369.076C131.973 362.358 93.3745 345.776 43.0977 298.216C37.6039 292.689 31.9862 287.286 27.0241 281.279C24.4544 278.826 22.5936 274.241 26.581 272.073C28.814 271.007 31.2773 271.931 32.7659 273.761C40.3686 280.888 48.0067 287.962 55.7865 294.875C83.4858 318.175 113.719 340.728 149.429 349.455C169.72 354.431 189.196 356.262 209.523 357.186C216.612 359.674 214.804 368.791 207.609 369.378C205.27 369.484 202.949 369.324 200.609 369.076Z" fill="black"/>
<path d="M226.696 381.214C215.956 380.628 195.541 379.952 188.7 370.871C186.113 366.925 185.599 361.504 186.627 356.955C189.126 347.802 200.45 348.264 208.088 347.695C220.582 347.979 235.698 347.269 241.6 360.776C245.463 369.449 236.443 382.6 226.696 381.214Z" fill="black"/>
<path d="M33.8114 312.576C16.0364 308.418 9.14267 274.081 13.4491 258.655C16.6744 246.054 24.667 239.833 37.4799 244.543C46.2167 248.986 51.8168 263.951 53.9966 273.104C55.9637 283.696 57.1688 296.35 50.6649 305.61C46.7129 310.515 40.1558 313.803 33.8114 312.576Z" fill="black"/>
<path d="M49.3712 343.27C43.2395 342.452 36.9659 340.8 31.7911 337.298C24.6847 331.789 18.9251 324.591 14.1048 317.02C-0.976498 292.263 -5.07021 259.828 7.26418 233.115C9.99334 226.877 13.3073 220.355 18.9783 216.338C21.2821 212.997 24.2417 210.189 27.9101 208.411C51.8346 198.423 72.9589 225.544 80.4375 245.521C88.7491 266.794 92.1517 295.551 83.0072 316.966C77.1413 330.474 65.7639 345.456 49.3712 343.27ZM54.4929 331.984C64.0627 331.398 71.8425 316.558 73.7387 308.151C75.6704 299.372 74.7666 290.379 73.7919 281.528C72.9589 269.549 70.088 257.89 65.0373 246.996C58.8524 233.809 46.8724 222.274 32.1633 219.964C20.3251 220.159 14.9909 239.585 12.3503 249.057C7.81354 269.869 12.3503 292.334 23.4087 310.32C30.4975 321.107 40.3686 332.749 54.4929 331.984Z" fill="black"/>
<path d="M85.7896 320.77C85.6832 313.803 85.2224 306.818 85.7541 299.851C86.7465 293.204 87.2959 286.557 87.101 279.822C86.9946 257.446 79.5515 232.92 62.8575 217.458C46.9433 206.314 48.7332 219.519 41.2724 215.876C36.3457 212.055 42.2116 206.225 46.2167 204.537C49.8851 202.635 54.1915 202.937 57.9663 204.342C74.5362 209.762 88.1288 233.062 93.8175 248.808C100.109 270.189 104.167 304.561 85.7896 320.77Z" fill="black"/>
<path d="M63.9208 342.132C60.1106 341.066 56.6548 335.948 60.7486 333.051C62.6448 331.664 64.5588 332.784 66.3664 333.548C81.4122 328.128 86.4098 301.877 86.9769 287.57C87.0478 278.826 86.0022 270.047 84.6199 261.996C83.3617 253.963 83.5389 245.592 82.0148 237.683C89.7592 244.632 94.2428 254.371 95.9618 264.555C99.5594 282.914 99.2759 302.393 91.5846 319.721C86.9947 330.491 77.3716 345.083 63.9208 342.132Z" fill="black"/>
<path d="M83.344 270.011C75.9008 261.534 74.1464 251.279 70.5489 241.095C68.121 235.39 65.4981 229.685 61.8119 224.691C60.1638 222.043 57.2752 220.124 56.4068 217.067C55.4852 212.89 60.6778 210.526 63.7791 212.908C72.7464 218.364 77.4604 228.352 81.9617 237.452C86.8175 247.511 89.2631 259.881 83.344 270.011C83.3617 270.011 83.3617 270.011 83.344 270.011Z" fill="black"/>
<path d="M66.65 338.382C62.9284 338.045 62.1486 332.411 65.6398 331.078C71.7361 328.981 73.1362 338.809 66.65 338.382Z" fill="black"/>
<path d="M66.9335 340.835C65.0905 340.177 63.0348 338.862 62.0069 337.156C59.7563 333.37 64.2752 328.963 68.0145 331.256C70.4247 331.913 71.8956 329.194 73.1184 327.559C76.9995 321.96 79.1439 315.438 80.5085 308.827C83.0427 297.772 83.6097 286.433 83.0781 275.13C83.1667 265.852 83.3794 256.54 82.2452 247.28C90.6808 255.669 97.7163 265.941 97.167 278.489C96.9543 297.079 95.0936 317.02 84.0351 332.589C80.4731 338.205 73.9159 343.785 66.9335 340.835Z" fill="black"/>
<path d="M68.3513 342.399C65.0728 341.884 61.7057 340.373 60.4297 337.085C59.26 334.064 62.2904 330.776 65.374 331.504C66.7741 332.02 68.1741 332.322 69.6804 332.091C86.4453 322.92 85.7719 294.911 84.2301 278.222C81.5186 268.394 83.344 258.406 83.3972 248.435C87.1188 251.35 90.4682 255.473 92.8783 259.614C96.1923 264.733 97.362 270.758 97.7518 276.765C99.2227 286.735 99.1696 296.937 97.3088 306.854C94.8455 321.587 86.5339 344.087 68.3513 342.399Z" fill="black"/>
<path d="M56.4953 225.935C55.5383 225.9 54.7587 225.562 54.0498 225.011C51.6042 223.074 50.5408 218.435 49.4953 215.165C49.3003 214.561 49.1231 214.01 48.9281 213.512C44.7104 197.108 44.3027 179.815 47.0142 162.86C49.318 146.563 53.1105 130.443 58.9764 115.176C65.2854 100.159 73.0298 85.6207 83.4147 73.2865C97.0605 57.4867 113.4 44.3705 130.697 33.6181C152.317 20.4664 176.525 12.8064 200.875 8.38101L201.566 8.54091L203.126 8.91417L204.668 9.28743L206.085 9.64291L205.075 9.90943L203.622 10.3005L202.169 10.727L200.715 11.1713L199.298 11.6334L197.898 12.1132L196.533 12.5931L195.186 13.0907L193.857 13.6062L192.546 14.1393L191.27 14.6725L190.012 15.2056L188.753 15.7566L187.495 16.3253L186.219 16.9118L184.925 17.5161L183.632 18.1381L181.08 19.4178L179.804 20.0754L178.546 20.733L177.305 21.4083L176.1 22.0837L174.948 22.759L173.832 23.4343L172.733 24.1097L171.652 24.7851L170.588 25.4604L167.452 27.4865L167.221 27.6288C166.601 27.8598 165.981 28.1085 165.361 28.3396C147.993 35.0754 131.405 44.3172 116.537 56.0115C105.532 64.6668 95.4833 74.6549 86.7465 85.9583C70.6905 108.494 61.6169 136.273 57.4346 163.82C56.1232 174.519 55.1663 185.378 56.265 196.095C56.9562 202.369 57.6118 208.678 58.9586 214.614C59.0295 215.005 59.1359 215.396 59.2245 215.787C59.579 217.156 60.022 218.506 60.3055 219.875C60.6777 221.67 60.0929 223.891 58.746 225.118C58.1435 225.669 57.3814 226.024 56.4953 226.024C56.5662 225.953 56.5307 225.935 56.4953 225.935Z" fill="black"/>
<path d="M21.7961 216.64C8.66423 173.862 19.0138 117.238 41.8217 79.027C48.7332 68.0613 56.6904 57.8066 65.445 48.3871L65.817 48.0672L68.5463 45.7034L68.9184 45.3835L69.3083 45.0459L70.0881 44.4061L71.3109 43.393L72.1615 42.6821L73.4906 41.5624L74.4122 40.816L74.873 40.4249L75.3337 40.0518L75.7767 39.6785L76.2375 39.3052L76.6805 38.9321L78.4527 37.5103L78.8958 37.1726L80.2781 36.1596L80.7389 35.8397L81.1996 35.502L81.6604 35.1821L82.1211 34.8444L83.0781 34.1691L84.0705 33.4581L85.0984 32.7473L86.1618 32.0363L87.1896 31.3254L87.7036 30.9877L88.696 30.3123L89.1744 29.9746L90.1314 29.3349L91.0529 28.7306L92.01 28.1263L93.4454 27.1666L93.9416 26.829L94.4556 26.4913L95.4834 25.7803L98.1416 24.0031L98.6734 23.6654L99.1873 23.3277L99.6835 23.0078L100.64 22.368L102.076 21.4616L102.537 21.1595L104.929 19.6488L105.425 19.3467L105.922 19.0268L107.463 18.0671L108.456 17.4628L109.413 16.894L110.37 16.3609L113.595 14.4948L114.056 14.2459L116.448 13.0018L117.37 12.5397L117.813 12.3088L118.699 11.8822L119.55 11.4912L119.957 11.2957L120.383 11.1002L120.808 10.9225L121.233 10.727L121.676 10.5315L122.137 10.336L124.051 9.48291L124.547 9.26964L125.061 9.05638L129.846 7.13691L131.441 6.55039L132.54 6.15944L133.071 5.96397L133.621 5.76839L134.684 5.37744L135.056 5.23523L135.517 5.18197L136.864 5.02197L138.229 4.87976L141.082 4.63103L142.57 4.5066L144.077 4.39997L147.107 4.22218L150.084 4.08008L151.467 4.02671C127.684 11.6689 104.929 23.381 85.9668 40.7804C52.8978 69.0921 33.0849 107.232 27.343 151.468C25.3936 168.157 25.5354 185.058 27.7506 201.693C27.7506 201.871 27.7506 202.049 27.7683 202.227C27.7683 202.422 27.8037 202.6 27.8215 202.795C27.8392 202.92 27.857 203.062 27.8747 203.204C28.0873 205.017 28.6367 207.203 28.9557 209.353C29.4519 212.535 29.5051 215.609 27.538 217.244C27.2367 217.493 26.8822 217.724 26.4746 217.902C25.9606 218.133 25.4291 218.257 24.9152 218.257C23.7101 218.346 22.5227 217.724 21.7961 216.64Z" fill="black"/>
<path d="M56.4422 224.958C56.4245 224.958 56.4068 224.958 56.4068 224.958C55.6447 225.082 54.8472 225.082 54.0675 225.011C53.0928 224.922 52.1181 224.727 51.1788 224.531C46.9078 223.696 42.7078 220.461 38.7382 219.217C35.1584 217.813 31.3482 217.689 27.5734 217.333C26.8114 217.262 26.067 217.173 25.3227 217.084C22.6644 216.8 20.8569 213.654 22.3632 211.308C23.8518 209.087 26.4569 209.247 28.9912 209.46C30.1254 209.549 31.2418 209.656 32.2519 209.549C33.0139 209.638 33.8115 209.744 34.6267 209.869C34.9102 209.922 35.2115 209.958 35.5128 210.011C35.7786 210.047 36.0444 210.1 36.3103 210.153C38.2774 210.526 40.2977 211.024 42.2648 211.682C42.5129 211.77 42.761 211.841 43.0091 211.93C43.5584 212.126 44.0902 212.339 44.6218 212.552C44.9231 212.677 45.2244 212.801 45.5079 212.943C45.8446 213.103 46.1813 213.246 46.5181 213.423C46.5535 213.441 46.5889 213.459 46.6244 213.477C46.9079 213.619 47.1915 213.779 47.475 213.939C47.9003 214.17 48.308 214.419 48.7156 214.667C48.9814 214.827 49.2471 215.005 49.5129 215.183C51.5332 216.569 53.2523 218.24 54.5283 220.266C55.3966 221.652 56.0701 223.216 56.4422 224.958Z" fill="black"/>
<path d="M54.9535 223.803C52.7206 220.799 55.8397 218.151 58.2144 216.587C60.6068 214.365 64.6651 213.174 66.3487 216.836C67.3056 219.128 65.7993 221.528 63.6195 222.345C60.8549 223.945 57.6473 227.09 54.9535 223.803Z" fill="black"/>
<path d="M65.693 220.817C65.055 220.603 64.4879 220.195 64.0448 219.59C63.3891 217.92 62.8397 216.231 62.3613 214.507C58.5156 200.645 60.2524 185.609 61.9892 171.48C63.7082 159.146 64.7715 146.634 68.3159 134.637C71.5412 124.738 75.6527 115.141 79.5161 105.473C85.7187 91.0058 96.848 78.2273 106.524 66.2485C109.696 62.5518 113.063 59.1217 116.626 55.9227C130.661 43.3041 147.532 34.4356 165.449 28.2508C165.485 28.233 165.52 28.2152 165.538 28.2152C166.034 28.0374 166.53 27.8598 167.044 27.6998L166.459 28.0731L165.378 28.7661L164.279 29.4771L163.198 30.1702L162.117 30.8811L161.019 31.6098L159.884 32.3562L158.75 33.1204L157.598 33.9024L156.464 34.6666L155.348 35.4308L154.249 36.195L153.168 36.9594L152.105 37.7236L151.077 38.47L150.084 39.1986L149.127 39.9096L148.188 40.6205L147.231 41.3313L146.274 42.0601L145.299 42.8065L144.307 43.5707L143.315 44.3527L142.304 45.1525L141.294 45.97L140.249 46.7875L139.221 47.6229L138.211 48.4404L137.218 49.258L136.244 50.0755L135.287 50.893L134.33 51.6928L133.39 52.5104L132.487 53.3101L131.6 54.0921L129.828 55.6916L128.003 57.3445L122.438 62.4986L121.534 63.3516L120.631 64.2225L119.745 65.0933L118.876 65.9641L118.026 66.8351L117.21 67.6881L116.431 68.5234L115.686 69.341L114.96 70.1407L114.269 70.9405L113.595 71.7225L112.957 72.4867L111.717 74.0152L111.114 74.7794L109.874 76.3434L108.668 77.9074L108.119 78.636C100.251 87.8777 93.2682 97.8838 87.6858 108.601C83.6275 117.22 80.1008 126.107 76.9286 135.1C73.4729 145.23 72.0374 155.911 70.5842 166.468C68.9892 178.429 67.7311 189.466 68.3336 201.267C68.5817 206.847 70.0703 212.304 70.5488 217.778C70.3539 219.715 68.5994 220.941 66.8449 220.941C66.4728 221.012 66.0651 220.941 65.693 220.817Z" fill="black"/>
<path d="M167.275 27.5754L167.027 27.7355C166.513 27.9133 165.981 28.0911 165.467 28.2689C166.07 28.0199 166.672 27.7888 167.275 27.5754Z" fill="white"/>
<path d="M104.149 22.4213C106.329 18.9201 110.246 17.3206 113.772 15.5256C117.618 13.5884 121.517 11.8289 125.451 10.0516C148.259 -1.00293 175.834 -3.50885 199.723 5.39521C201.495 6.23052 203.25 7.40351 204.278 9.05636C201.779 10.1049 198.518 9.58957 196.108 8.75426C178.687 3.63575 159.654 2.90697 142.216 7.75889C131.76 10.567 121.694 15.1701 111.965 19.7732C109.608 20.9995 106.648 22.599 104.149 22.4213Z" fill="black"/>
<path d="M107.836 20.182C111.22 14.1571 118.77 12.0067 124.636 9.07417C138.087 2.67604 153.008 -0.114307 167.842 1.12977C169.454 1.32527 171.315 1.43195 172.786 1.73409C171.475 1.84072 170.163 1.98285 168.869 2.12503C158.786 3.86675 148.418 4.25775 138.601 7.24355C132.168 9.26962 125.752 11.5445 119.638 14.4236C115.686 16.3786 111.876 18.8669 107.836 20.182Z" fill="black"/>
<path d="M63.7081 53.7722C66.0474 44.5304 79.1616 37.4392 86.2681 31.7164C98.6556 22.5991 112.036 14.4237 127.241 11.1535C129.403 10.6914 131.778 10.0694 133.833 9.83838C133.461 9.98056 133.036 10.1583 132.682 10.3005C114.215 18.2093 96.405 27.5043 80.2958 39.6075C74.1464 43.6952 69.4855 49.489 63.7081 53.7722Z" fill="black"/>
<path d="M65.2499 52.1371C65.6752 47.6228 70.0349 44.8326 72.8704 41.7224C78.1515 36.3728 83.787 31.6275 89.8656 27.2555C108.084 13.0729 130.023 3.06694 152.991 0.347732C156.092 0.205552 159.14 0.934297 162.117 1.75184C159.69 2.28501 157.014 2.90698 154.515 3.56457C125.097 7.74112 97.929 22.0303 76.397 42.3799C72.6754 45.6501 69.7159 49.8799 65.3917 52.3503C65.4095 52.3681 65.3917 52.4037 65.3562 52.3859C65.2499 52.3859 65.2499 52.2082 65.2499 52.1371Z" fill="black"/>
<path d="M149.411 3.81347C149.039 3.68906 148.649 3.45799 148.365 3.22694C149.446 0.561056 153.735 1.00541 156.181 0.490005C162.968 -0.238671 170.163 -0.132061 176.685 1.57411C169.88 2.30278 163.057 2.85379 156.234 3.2981C153.948 3.31588 151.662 4.34665 149.411 3.81347Z" fill="black"/>
<path d="M153.239 3.0492C152.282 2.97811 151.396 2.58708 150.492 2.35604C151.608 -0.11435 155.33 0.0100447 157.776 0.0100447C163.943 0.0100447 170.181 0.152217 176.224 1.55625C168.674 1.28966 160.877 2.80038 153.239 3.0492Z" fill="black"/>
</svg>
