<svg width="401" height="395" viewBox="0 0 401 395" fill="none" xmlns="http://www.w3.org/2000/svg">
<path d="M200.609 382.669C131.973 375.951 93.3745 359.369 43.0977 311.81C37.6039 306.282 31.9862 300.88 27.0241 294.872C24.4544 292.42 22.5936 287.835 26.581 285.666C28.814 284.6 31.2773 285.524 32.7659 287.355C40.3686 294.481 48.0067 301.555 55.7865 308.469C83.4858 331.768 113.719 354.322 149.429 363.048C169.72 368.024 189.196 369.855 209.523 370.779C216.612 373.267 214.804 382.385 207.609 382.971C205.27 383.078 202.949 382.918 200.609 382.669Z" fill="black"/>
<path d="M226.696 394.808C215.956 394.221 195.541 393.546 188.7 384.464C186.113 380.518 185.599 375.098 186.627 370.548C189.126 361.395 200.45 361.857 208.088 361.288C220.582 361.573 235.698 360.862 241.6 374.369C245.463 383.042 236.443 396.194 226.696 394.808Z" fill="black"/>
<path d="M33.8114 326.17C16.0364 322.011 9.14267 287.674 13.4491 272.248C16.6744 259.647 24.667 253.427 37.4799 258.136C46.2167 262.58 51.8168 277.544 53.9966 286.697C55.9637 297.289 57.1688 309.944 50.6649 319.203C46.7129 324.108 40.1558 327.396 33.8114 326.17Z" fill="black"/>
<path d="M49.3712 356.863C43.2395 356.046 36.9659 354.393 31.7911 350.892C24.6847 345.382 18.9251 338.184 14.1048 330.613C-0.976498 305.856 -5.07021 273.421 7.26418 246.709C9.99334 240.471 13.3073 233.948 18.9783 229.931C21.2821 226.59 24.2417 223.782 27.9101 222.005C51.8346 212.017 72.9589 239.138 80.4375 259.114C88.7491 280.388 92.1517 309.144 83.0072 330.56C77.1413 344.067 65.7639 359.049 49.3712 356.863ZM54.4929 345.578C64.0627 344.991 71.8425 330.151 73.7387 321.745C75.6704 312.965 74.7666 303.972 73.7919 295.121C72.9589 283.143 70.088 271.484 65.0373 260.589C58.8524 247.402 46.8724 235.867 32.1633 233.557C20.3251 233.753 14.9909 253.178 12.3503 262.651C7.81354 283.462 12.3503 305.927 23.4087 323.913C30.4975 334.701 40.3686 346.342 54.4929 345.578Z" fill="black"/>
<path d="M85.7896 334.363C85.6832 327.396 85.2224 320.412 85.7541 313.445C86.7465 306.798 87.2959 300.151 87.101 293.415C86.9946 271.039 79.5515 246.513 62.8575 231.051C46.9433 219.908 48.7332 233.113 41.2724 229.469C36.3457 225.648 42.2116 219.819 46.2167 218.13C49.8851 216.229 54.1915 216.531 57.9663 217.935C74.5362 223.356 88.1288 246.655 93.8175 262.402C100.109 283.782 104.167 318.154 85.7896 334.363Z" fill="black"/>
<path d="M63.9208 355.726C60.1106 354.659 56.6548 349.541 60.7486 346.644C62.6448 345.258 64.5588 346.377 66.3664 347.142C81.4122 341.721 86.4098 315.471 86.9769 301.164C87.0478 292.42 86.0022 283.64 84.6199 275.589C83.3617 267.556 83.5389 259.185 82.0148 251.276C89.7592 258.225 94.2428 267.965 95.9618 278.148C99.5594 296.507 99.2759 315.986 91.5846 333.314C86.9947 344.085 77.3716 358.676 63.9208 355.726Z" fill="black"/>
<path d="M83.344 283.605C75.9008 275.127 74.1464 264.872 70.5489 254.689C68.121 248.984 65.4981 243.279 61.8119 238.285C60.1638 235.636 57.2752 233.717 56.4068 230.66C55.4852 226.484 60.6778 224.12 63.7791 226.501C72.7464 231.958 77.4604 241.946 81.9617 251.045C86.8175 261.105 89.2631 273.474 83.344 283.605C83.3617 283.605 83.3617 283.605 83.344 283.605Z" fill="black"/>
<path d="M66.65 351.976C62.9284 351.638 62.1486 346.004 65.6398 344.671C71.7361 342.574 73.1362 352.402 66.65 351.976Z" fill="black"/>
<path d="M66.9335 354.428C65.0905 353.771 63.0348 352.456 62.0069 350.749C59.7563 346.964 64.2752 342.556 68.0145 344.849C70.4247 345.507 71.8956 342.787 73.1184 341.152C76.9995 335.554 79.1439 329.031 80.5085 322.42C83.0427 311.365 83.6097 300.026 83.0781 288.723C83.1667 279.446 83.3794 270.133 82.2452 260.873C90.6808 269.262 97.7163 279.535 97.167 292.082C96.9543 310.672 95.0936 330.613 84.0351 346.182C80.4731 351.798 73.9159 357.379 66.9335 354.428Z" fill="black"/>
<path d="M68.3513 355.992C65.0728 355.477 61.7057 353.966 60.4297 350.678C59.26 347.657 62.2904 344.369 65.374 345.098C66.7741 345.613 68.1741 345.915 69.6804 345.684C86.4453 336.514 85.7719 308.504 84.2301 291.816C81.5186 281.987 83.344 271.999 83.3972 262.029C87.1188 264.943 90.4682 269.067 92.8783 273.208C96.1923 278.326 97.362 284.351 97.7518 290.358C99.2227 300.329 99.1696 310.53 97.3088 320.447C94.8455 335.181 86.5339 357.681 68.3513 355.992Z" fill="black"/>
<path d="M300.259 30.6829C300.046 30.6474 299.834 30.6118 299.621 30.5941C299.586 30.5941 299.568 30.5941 299.532 30.5941C299.284 30.5585 299.018 30.523 298.753 30.4874C297.654 30.3275 296.573 30.1853 295.474 30.0431C294.641 29.9365 293.791 29.8299 292.94 29.7232C292.018 29.5988 291.097 29.4922 290.175 29.4033C289.449 29.3145 288.722 29.2256 287.995 29.1545C287.269 29.0656 286.542 28.9945 285.816 28.9234C285.001 28.8346 284.168 28.7458 283.335 28.6747C282.643 28.6036 281.97 28.5502 281.279 28.4791C280.428 28.3903 279.56 28.3192 278.692 28.2481C277.38 28.1414 276.069 28.0348 274.757 27.946C274.031 27.8927 273.286 27.8393 272.56 27.8038C272.489 27.8038 272.436 27.7861 272.365 27.7861C271.443 27.715 270.504 27.6616 269.583 27.6261C268.767 27.5905 267.952 27.5372 267.119 27.5017C266.251 27.4661 265.4 27.4128 264.532 27.395C262.37 27.3062 260.225 27.2351 258.046 27.1996C257.284 27.1818 256.522 27.164 255.759 27.164C237.949 26.9507 220.121 28.2481 202.541 31.4294C201.176 31.6783 199.812 31.9449 198.447 32.2114C197.756 32.3536 197.083 32.4958 196.391 32.638C195.718 32.7801 195.062 32.9223 194.407 33.0645C194.353 33.0645 194.318 33.0823 194.265 33.1001C193.609 33.2423 192.953 33.4022 192.298 33.5444C191.642 33.7043 190.986 33.8465 190.331 34.0065C190.206 34.042 190.082 34.0776 189.958 34.0953C189.374 34.2375 188.789 34.3797 188.204 34.5396C187.513 34.7174 186.822 34.8951 186.13 35.0728C185.351 35.2861 184.571 35.4815 183.809 35.7126C183.029 35.9259 182.267 36.1569 181.487 36.388C180.708 36.6012 179.928 36.8323 179.166 37.0811C178.368 37.3299 177.571 37.5787 176.773 37.8275C176.029 38.0586 175.285 38.3074 174.54 38.5563C173.814 38.7873 173.087 39.0361 172.378 39.2849C171.563 39.5515 170.766 39.8358 169.95 40.1379C168.426 40.6711 166.902 41.2399 165.396 41.8442C148.029 48.58 131.441 57.8217 116.572 69.5161C105.567 78.1713 95.5188 88.1595 86.782 99.4628C70.726 121.998 61.6525 149.777 57.4701 177.325C56.1587 188.024 55.2017 198.883 56.3004 209.6C56.9916 215.873 57.6473 222.183 58.9942 228.119C59.0651 228.51 59.1713 228.901 59.2599 229.292C59.6144 230.66 60.0575 232.011 60.341 233.379C60.7132 235.174 60.1284 237.396 58.7815 238.622C58.1613 239.191 57.3637 239.546 56.4245 239.511C55.4852 239.475 54.6878 239.138 53.9966 238.587C51.551 236.649 50.4877 232.011 49.4421 228.741C49.2471 228.136 49.0699 227.585 48.875 227.088C44.6572 210.684 44.2497 193.391 46.9611 176.436C49.2649 160.138 53.0574 144.019 58.9233 128.752C65.2323 113.734 72.9767 99.1963 83.3617 86.8621C97.0075 71.0623 113.347 57.9461 130.643 47.1937C156.535 31.4294 186.166 23.574 215.301 19.6818C222.655 18.9176 230.063 18.6331 237.471 18.8108C238.569 18.8464 239.65 18.8819 240.749 18.9175C241.086 18.9352 241.423 18.9531 241.742 18.9531C242.362 18.9886 242.982 19.0241 243.602 19.0419C244.293 19.0774 244.985 19.1308 245.676 19.1663C246.367 19.2019 247.058 19.2552 247.749 19.3263C248.334 19.3619 248.901 19.4151 249.486 19.4684C249.84 19.504 250.195 19.5396 250.549 19.5574C251.17 19.6107 251.79 19.6817 252.41 19.7351C253.119 19.8061 253.828 19.895 254.537 19.9661C255.405 20.055 256.273 20.1616 257.124 20.286C257.673 20.3571 258.223 20.4282 258.772 20.4993C259.463 20.5881 260.154 20.6948 260.846 20.7837C261.625 20.9081 262.388 21.0146 263.15 21.139C263.805 21.2279 264.443 21.3524 265.099 21.4591C265.932 21.6012 266.765 21.7434 267.598 21.9034C268.165 22.01 268.75 22.1166 269.334 22.2233C270.096 22.3654 270.858 22.5076 271.603 22.6676C272.241 22.792 272.879 22.9341 273.535 23.0763C274.226 23.2185 274.935 23.3785 275.626 23.5384C276.317 23.6984 277.026 23.8582 277.717 24.0182C278.249 24.1426 278.798 24.2671 279.347 24.4093C279.755 24.4981 280.18 24.6047 280.588 24.7114C281.261 24.8713 281.935 25.0491 282.608 25.2268C283.122 25.3512 283.636 25.4934 284.15 25.6356C284.717 25.7955 285.284 25.9555 285.851 26.0977C290.104 27.2707 294.322 28.5858 298.469 30.0253C298.593 30.0609 298.717 30.1142 298.841 30.1498C299.196 30.2742 299.55 30.3986 299.922 30.523C300.082 30.6297 300.17 30.6474 300.259 30.6829Z" fill="black"/>
<path d="M262.033 4.87714C258.329 4.575 254.625 4.36168 250.922 4.27282C234.582 3.79296 218.189 5.16148 201.885 7.18755C196.781 7.80959 191.695 8.50277 186.627 9.23144C150.722 15.3452 114.18 28.6035 85.9845 54.4626C52.9156 82.7743 33.1025 120.914 27.3607 165.15C25.4113 181.839 25.5531 198.741 27.7683 215.376C27.7683 215.553 27.7684 215.731 27.7861 215.909C27.7861 216.104 27.8215 216.282 27.8392 216.478C27.8569 216.602 27.8747 216.744 27.8924 216.886C28.1051 218.699 28.6544 220.885 28.9734 223.036C29.4696 226.217 29.5228 229.292 27.5557 230.927C27.2544 231.175 26.8999 231.407 26.4923 231.584C24.7556 232.384 22.8062 231.744 21.7784 230.233C8.64649 187.455 18.996 130.831 41.804 92.6204C56.1055 69.9426 74.8729 50.2328 95.9974 34.8951C123.448 16.1805 155.543 5.97906 187.407 2.01578C207.202 -0.276887 227.458 -1.00565 247.076 1.92683C252.109 2.63773 257.106 3.63306 262.033 4.87714Z" fill="black"/>
<path d="M56.4422 238.551C56.4245 238.551 56.4068 238.551 56.4068 238.551C55.6447 238.675 54.8472 238.676 54.0675 238.604C53.0928 238.516 52.1181 238.32 51.1788 238.125C46.9078 237.289 42.7078 234.055 38.7382 232.811C35.1584 231.406 31.3482 231.282 27.5734 230.927C26.8114 230.856 26.067 230.767 25.3227 230.678C22.6644 230.393 20.8569 227.248 22.3632 224.902C23.8518 222.68 26.4569 222.84 28.9912 223.053C30.1254 223.142 31.2418 223.249 32.2519 223.142C33.0139 223.231 33.8115 223.338 34.6267 223.462C34.9102 223.515 35.2115 223.551 35.5128 223.604C35.7786 223.64 36.0444 223.693 36.3103 223.746C38.2774 224.12 40.2977 224.617 42.2648 225.275C42.5129 225.364 42.761 225.435 43.0091 225.524C43.5584 225.719 44.0902 225.933 44.6218 226.146C44.9231 226.27 45.2244 226.395 45.5079 226.537C45.8446 226.697 46.1813 226.839 46.5181 227.017C46.5535 227.034 46.5889 227.052 46.6244 227.07C46.9079 227.212 47.1915 227.372 47.475 227.532C47.9003 227.763 48.308 228.012 48.7156 228.261C48.9814 228.421 49.2471 228.598 49.5129 228.776C51.5332 230.162 53.2523 231.833 54.5283 233.859C55.3966 235.245 56.0701 236.809 56.4422 238.551Z" fill="black"/>
<path d="M54.9535 237.396C52.7206 234.392 55.8397 231.744 58.2144 230.18C60.6068 227.959 64.6651 226.768 66.3487 230.429C67.3056 232.722 65.7993 235.121 63.6195 235.939C60.8549 237.538 57.6473 240.684 54.9535 237.396Z" fill="black"/>
<path d="M272.808 29.4033C275.679 29.8831 278.532 30.4874 281.35 31.1805C274.562 32.0691 267.757 32.8156 260.934 33.5265C239.934 35.7125 218.88 37.4721 198.128 41.5597C171.935 47.1403 145.796 56.4176 125.416 74.3857C110.476 88.1416 97.0784 104.173 87.6858 122.265C83.6275 130.885 80.1008 139.771 76.9286 148.764C73.4729 158.894 72.0374 169.576 70.5842 180.133C68.9892 192.093 67.7311 203.13 68.3336 214.931C68.5817 220.512 70.0703 225.968 70.5488 231.442C70.3184 233.824 67.731 235.103 65.693 234.41C65.055 234.197 64.4879 233.788 64.0448 233.184C63.3891 231.513 62.8397 229.825 62.3612 228.101C58.5156 214.238 60.2524 199.203 61.9892 185.073C63.7082 172.739 64.7715 160.227 68.3159 148.231C71.5412 138.331 75.6527 128.734 79.5161 119.066C85.7187 104.599 96.848 91.8206 106.524 79.8419C109.696 76.1452 113.063 72.7151 116.626 69.516C130.661 56.8975 147.532 48.0289 165.449 41.8441C165.485 41.8263 165.52 41.8085 165.538 41.8085C166.388 41.5063 167.257 41.2042 168.125 40.9376C169.029 40.6355 169.933 40.3512 170.837 40.0668C171.74 39.7824 172.644 39.4981 173.548 39.2315C175.356 38.6984 177.181 38.1651 179.006 37.6852C179.928 37.4364 180.832 37.1876 181.753 36.9566C182.675 36.7256 183.596 36.4945 184.5 36.2634C185.351 36.0502 186.201 35.8547 187.07 35.6592C188.062 35.4282 189.055 35.1971 190.047 34.9839C190.969 34.7884 191.89 34.5928 192.794 34.3973C193.591 34.2374 194.371 34.0774 195.169 33.9175C195.293 33.8819 195.434 33.8642 195.576 33.8464C196.356 33.6864 197.136 33.5443 197.933 33.4021C199.138 33.1888 200.343 32.9578 201.531 32.7623C202.311 32.6379 203.108 32.4957 203.888 32.3712C203.959 32.3535 204.012 32.3358 204.083 32.3358C204.933 32.1936 205.784 32.0513 206.652 31.9269C207.574 31.7848 208.495 31.6426 209.417 31.5182C212.713 30.9139 216.009 30.3808 219.323 29.8832C220.989 29.6343 222.655 29.4033 224.321 29.19C225.154 29.0834 225.987 28.9768 226.82 28.8879C228.486 28.6924 230.151 28.5146 231.835 28.3546C232.668 28.2835 233.501 28.1947 234.334 28.1414C236.85 27.9281 239.367 27.7682 241.866 27.6616C245.463 27.5016 249.078 27.4483 252.676 27.5372C253.048 27.5372 253.438 27.5549 253.81 27.5726C256.256 27.6437 258.701 27.7682 261.147 27.9637C261.466 27.9815 261.767 28.017 262.068 28.0347C262.547 28.0703 263.008 28.1058 263.469 28.1592C265.241 28.3191 267.031 28.5324 268.803 28.7813C269.14 28.8168 269.476 28.87 269.813 28.9234C270.327 28.9945 270.823 29.0655 271.337 29.1544C271.762 29.2255 272.188 29.2788 272.613 29.3677C272.702 29.3854 272.755 29.4033 272.808 29.4033Z" fill="black"/>
<path d="M298.841 30.363C284.451 17.229 266.676 5.12594 246.757 3.84632C246.03 3.66859 245.304 3.22431 244.701 2.88663C245.25 2.22905 246.385 1.98022 247.235 1.87358C264.177 2.35344 279.33 11.8439 292.479 21.7966C295.208 24.107 297.92 26.3109 300.224 28.8701C300.932 30.2564 300.365 31.0383 298.841 30.363Z" fill="black"/>
<path d="M277.469 33.722C268.147 33.5265 258.808 34.184 249.663 32.1402C256.025 28.7278 268.005 29.2078 276.423 29.5277C284.097 30.0431 292.089 30.7006 299.32 33.0466C292.036 33.0821 284.77 33.8464 277.469 33.722Z" fill="black"/>
<path d="M298.327 33.1355C297.193 32.9933 298.522 31.2517 298.682 30.7718C298.841 29.9543 299.798 29.1901 300.543 29.8654C301.57 31.1095 299.692 33.1711 298.327 33.1355Z" fill="black"/>
<path d="M298.77 30.4874C298.735 30.5762 298.699 30.683 298.682 30.7718C298.575 31.1095 297.92 32.0336 297.884 32.6201C291.026 30.6296 283.583 30.0253 276.423 29.5455C275.289 29.5099 274.066 29.4566 272.808 29.421C251.914 25.8665 230.258 27.8037 209.435 31.5715C194.726 33.6686 179.751 36.9211 165.467 41.8796C177.571 37.1699 190.065 33.6865 202.594 31.4471C234.351 25.6888 266.889 26.0442 298.77 30.4874Z" fill="black"/>
<path d="M73.7908 295.121C74.7655 303.954 75.6694 312.965 73.7377 321.727C73.6668 322.082 73.5782 322.42 73.4718 322.793C67.4641 318.137 61.5805 313.302 55.8032 308.45C55.5728 308.237 55.3247 308.042 55.0943 307.811C56.1931 300.862 55.2716 293.379 54.0133 286.697C51.8158 277.544 46.2157 262.562 37.4966 258.136C24.666 253.427 16.6911 259.647 13.4658 272.248C9.14164 287.674 16.0531 322.011 33.8281 326.17C40.1548 327.396 46.7296 324.108 50.6993 319.221C50.7702 319.132 50.8233 319.043 50.8765 318.972C56.9196 324.428 62.8211 329.44 68.6693 334.043C65.1249 340.014 60.1273 345.24 54.5272 345.595C40.4206 346.359 30.5319 334.701 23.4432 323.913C12.367 305.909 7.84797 283.462 12.3848 262.633C15.0253 253.16 20.3596 233.734 32.1977 233.539C46.9069 235.849 58.8868 247.402 65.0717 260.571C70.087 271.483 72.9579 283.142 73.7908 295.121Z" fill="white"/>
<path d="M250.92 4.27269C269.014 6.81417 285.212 17.9754 298.539 30.0785C272.098 20.979 243.353 16.7846 215.37 19.6993C186.236 23.5915 156.605 31.447 130.713 47.2113C113.417 57.9637 97.0773 71.0799 83.4315 86.8797C73.0465 99.2139 65.3021 113.752 58.9932 128.77C53.1095 144.036 49.3348 160.156 47.0309 176.454C44.3195 193.391 44.7271 210.701 48.9449 227.105C49.1399 227.585 49.3347 228.154 49.5119 228.758C44.5498 225.346 37.8687 223.746 32.2509 223.124C31.2407 223.231 30.1243 223.124 28.9901 223.035C28.5648 220.245 27.7851 217.366 27.7851 215.358C25.5698 198.723 25.428 181.839 27.3774 165.132C33.1193 120.896 52.9146 82.7565 86.0012 54.4448C114.197 28.5857 150.739 15.3273 186.643 9.21352C207.927 6.19218 229.477 3.66843 250.92 4.27269Z" fill="white"/>
<path d="M116.625 69.5336C113.063 72.7327 109.695 76.1628 106.523 79.8595C96.8471 91.8382 85.7178 104.599 79.5152 119.084C75.6695 128.752 71.5581 138.349 68.315 148.248C64.7706 160.227 63.6896 172.757 61.9883 185.091C60.2515 199.22 58.5147 214.256 62.3604 228.118C61.3148 228.243 60.2515 228.687 59.3123 229.309C59.2237 228.936 59.1173 228.545 59.0464 228.136C57.6995 222.2 57.0439 215.891 56.3527 209.617C55.254 198.9 56.2109 188.041 57.5223 177.342C61.7224 149.795 70.7783 122.034 86.8343 99.4804C95.5712 88.177 105.637 78.1889 116.625 69.5336Z" fill="white"/>
</svg>
