<svg width="392" height="244" viewBox="0 0 392 244" fill="none" xmlns="http://www.w3.org/2000/svg">
<path fill-rule="evenodd" clip-rule="evenodd" d="M252.887 175.504C253.021 175.504 253.174 175.515 253.32 175.556C253.463 175.596 253.649 175.678 253.784 175.854C253.91 176.018 253.922 176.242 253.815 176.419C253.707 176.595 253.501 176.688 253.298 176.651C253.053 176.607 252.794 176.664 252.498 176.809C252.201 176.955 251.923 177.158 251.62 177.37C244.444 183.62 239.131 191.64 233.16 199.09L233.154 199.098L233.153 199.097C221.874 212.604 212.657 227.657 204.44 243.045C204.317 243.274 204.038 243.371 203.799 243.267C203.561 243.164 203.441 242.894 203.525 242.648C210.123 223.28 220.654 205.387 234.44 190.268L234.446 190.26C239.578 184.865 245.007 178.747 252.051 175.631C252.077 175.619 252.104 175.609 252.132 175.602C252.336 175.551 252.617 175.504 252.887 175.504ZM309.484 173.453C309.71 173.327 309.994 173.394 310.14 173.608C311.271 175.273 312.644 176.792 314.094 178.285C315.532 179.765 317.071 181.243 318.472 182.772L318.474 182.774C326.213 191.297 334.172 200.714 338.196 211.717C338.287 211.965 338.169 212.242 337.927 212.347C337.685 212.453 337.402 212.353 337.281 212.118C333.725 205.185 328.355 199.281 323.031 193.291C317.726 187.321 312.468 181.266 309.27 174.092C309.165 173.856 309.258 173.579 309.484 173.453ZM228.616 21.6237C250.338 13.679 274.183 16.2389 296.324 20.2272C296.33 20.2282 296.336 20.229 296.341 20.2301C299.084 20.8179 302.07 21.6047 304.582 22.5378C304.827 22.6291 304.962 22.8939 304.889 23.1452C304.815 23.396 304.561 23.5488 304.305 23.4948C301.822 22.9665 299.266 22.5253 296.728 22.1725C277.627 20.1018 258.266 19.6631 239.288 22.861C237.631 23.1763 235.947 23.4455 234.271 23.7194C232.588 23.9944 230.911 24.2749 229.257 24.6149C226.154 25.2528 223.15 26.0959 220.383 27.487C220.398 27.572 220.393 27.6611 220.364 27.7448C220.331 27.8417 220.276 27.9101 220.235 27.9508C220.105 28.0807 219.913 28.1289 219.737 28.0758C219.546 28.0179 219.328 27.9148 219.183 27.7174C219.017 27.4919 219.01 27.2341 219.076 27.0212C219.136 26.8289 219.256 26.6596 219.378 26.5212C219.505 26.377 219.663 26.2324 219.839 26.0905C220.532 25.5301 221.668 24.8722 222.868 24.2467C224.079 23.6159 225.39 22.9999 226.454 22.5241C227.504 22.0549 228.35 21.7056 228.616 21.6237ZM264.604 0.0104122C277.96 -0.149606 291.291 1.55729 304.449 3.57877H304.448C304.921 3.64081 306.076 3.91579 307.433 4.30436C308.815 4.70012 310.448 5.22625 311.863 5.79655C312.571 6.08151 313.232 6.38123 313.784 6.68522C314.326 6.98346 314.804 7.30804 315.107 7.65592C315.259 7.83189 315.394 8.04444 315.446 8.28971C315.502 8.55237 315.455 8.81615 315.306 9.04947C315.166 9.26766 314.951 9.43523 314.709 9.56901C314.464 9.70442 314.159 9.82191 313.8 9.92447C313.612 9.97805 313.408 9.91733 313.281 9.76822C313.155 9.61889 313.127 9.40845 313.21 9.23112C313.223 9.20374 313.237 9.17641 313.25 9.15006C305.533 8.88256 297.928 7.67144 290.356 6.46549C282.462 5.20838 274.601 3.96033 266.619 3.77506V3.77408C248.708 3.5266 230.646 4.82048 213.086 8.39225L213.085 8.39127C212.974 8.42229 212.846 8.44783 212.754 8.46451C212.62 8.48882 212.529 8.50559 212.474 8.52213C212.427 8.536 212.379 8.54358 212.33 8.54362C212.125 8.54344 211.884 8.41634 211.817 8.14713C211.788 8.03468 211.795 7.89356 211.871 7.76237C211.937 7.64949 212.049 7.55914 212.186 7.52408C216.379 6.24552 220.645 5.1796 224.945 4.3444L224.956 4.34244L227.41 3.92643C239.692 1.87546 252.134 0.31034 264.598 0.0104122H264.604Z" fill="black"/>
</svg>
