<svg width="405" height="254" viewBox="0 0 405 254" fill="none" xmlns="http://www.w3.org/2000/svg">
<path fill-rule="evenodd" clip-rule="evenodd" d="M344.335 39.2112C335.499 30.0412 326.63 20.7382 315.325 14.4012C315.823 11.6852 314.725 8.56423 311.498 7.26423C280.206 -4.43577 260.313 29.2382 237.651 44.2832C232.355 47.1292 227.044 50.4122 221.131 51.5242C208.558 55.1952 197.889 62.7962 190.308 72.7832C186.211 76.7182 178.989 83.2842 176.983 88.6342C175.755 90.8182 65.7033 38.4602 40.6571 32.6342C28.7963 28.6672 22.4102 39.8798 37.4434 45.6342C76.9472 60.7556 154.293 94.6037 171.562 104.357C168.244 114.596 167.253 128.167 170.484 138.293C167.768 154.054 173.041 168.493 183.463 179.809C185.671 183.022 189.047 185.338 191.244 188.126C199.225 208.988 218.377 219.079 240.789 229.05C276.452 244.917 307.539 248.096 327.083 241.146C377.816 221.778 407.261 164.867 397.775 113.013C388.852 76.4842 390.694 44.4412 344.335 39.2112Z" fill="white"/>
<path fill-rule="evenodd" clip-rule="evenodd" d="M234.276 38.9736C264.793 21.9396 269.946 -12.7784 314.205 4.87055C328.033 10.4566 332.89 18.7256 342.116 29.0546C346.893 33.3966 352.908 35.5556 358.843 37.8676C381.417 45.3616 394.654 66.6526 399.703 89.0176C412.912 135.441 399.082 189.825 365.323 223.607C365.799 224.463 365.706 225.696 364.676 226.265C362.779 227.311 360.894 228.383 359.016 229.47C347.208 239.671 323.252 253.084 305.493 253.084C265.896 253.084 227.645 237.02 204.27 216.403C174.351 192.273 155.483 141.926 165.19 105.691C109.558 79.4987 58.0236 59.6077 36.4826 50.9803C36.4826 50.9803 28.5093 42.6171 36.3375 44.8286C86.9139 59.1163 186.504 105.586 187.702 105.635C188.413 105.664 191.024 99.9566 191.539 97.5046C189.21 97.2498 51.8385 37.9911 34.7301 32.4933L33.825 32.2046C25.6882 29.6346 27.7211 27.6346 33.9741 27.9986C46.6529 28.7386 154.146 78.6346 175.064 83.6346C184.409 62.6346 210.955 51.7336 234.276 38.9736ZM300.911 9.20255C283.922 4.20256 271.432 16.5346 262.345 29.4596C240.909 56.0401 201.809 56.8802 185.663 88.4621L185.18 89.4286L191.572 91.3486L191.746 91.0598C192.25 90.276 193.75 88.2853 195.022 90.0976C201.632 97.2008 191.284 120.783 185.85 110.397L185.687 110.072L176.812 107.629C160.782 172.594 221.953 231.087 283.499 240.994C283.499 240.994 309.177 241.405 319.468 238.919C327.056 237.087 333.612 233.543 340.616 230.026C347.577 226.531 353.327 221.12 360.07 217.423C379.335 198.32 392.003 172.095 395.448 144.893C398.821 112.274 395.663 70.7426 367.356 50.0566C358.036 44.1466 346.547 42.5586 338.028 35.2506C327.861 24.0146 315.96 12.5886 300.911 9.20255ZM270.358 161.807C270.073 161.339 270.731 160.89 271.104 161.239C277.062 166.816 282.819 172.62 288.382 178.596C288.676 178.503 289.009 178.414 289.439 178.309C291.482 177.809 293.247 179.943 292.259 181.824L292.024 182.245C290.538 184.775 287.12 187.002 285.086 183.953C279.907 176.762 274.981 169.37 270.358 161.807ZM196.736 175.179L196.73 174.96C196.616 172.787 194.851 167.306 198.44 168.146C202.593 170.562 204.131 176.878 204.364 181.364C204.62 186.288 196.455 186.35 196.666 181.364C196.754 179.3 196.917 177.24 196.736 175.179ZM369.191 160.026C369.768 159.917 370.076 160.639 369.574 160.968C362.992 164.666 363.543 172.121 362.481 178.334C354.922 183.372 355.691 161.787 369.191 160.026ZM180.306 133.649C243.696 140.041 311.886 158.964 376.718 139.723C380.646 138.657 382.204 144.732 378.288 145.782C312.939 162.345 243.548 152.451 180.306 133.649ZM352.226 107.464C354.187 107.008 356.036 116.691 359.063 118.493C360.568 121.521 372.502 124.187 367.473 127.9C358.89 129.693 349.478 115.184 352.226 107.464ZM296.539 109.757C298.012 109.728 299.02 110.857 299.502 112.141C300.817 115.912 295.188 115.312 293.092 116.566C284.222 122.674 273.979 127.6 263.08 127.828C262.399 127.842 262.393 126.941 262.95 126.723L264.85 125.979C270.846 123.62 276.623 121.202 282.138 117.711C286.602 114.887 290.897 109.631 296.539 109.757ZM263.049 43.3799C261.55 32.5799 295.669 5.31086 306.126 17.0339C308.83 20.0519 305.283 24.5329 301.716 22.6279C287.14 18.8039 273.199 34.6929 263.049 43.3799Z" fill="black"/>
</svg>
