<svg width="2489" height="1632" viewBox="0 0 2489 1632" fill="none" xmlns="http://www.w3.org/2000/svg">
<path d="M2486.86 120.291C2485.05 122.825 2482.75 124.97 2480.21 126.742C2479.4 127.344 2478.57 127.876 2477.72 128.39C2472.26 131.616 2465.95 133.086 2459.66 133.618C2442.59 135.94 2425.56 138.456 2408.58 141.327C2354.42 150.755 2300.04 158.837 2245.56 166.085C2154.59 179.5 2063.96 195.131 1972.98 208.423C1897.66 218.843 1822.22 228.838 1747.77 244.487C1580.65 279.505 1412.12 306.602 1243.58 333.734C1167.38 347.752 1091.64 364.234 1015.24 377.312C940.666 388.956 865.844 399.004 791.289 410.913C772.521 413.607 753.718 415.84 734.969 418.64C725.222 420.093 715.51 421.706 705.763 423.159C704.912 423.283 704.044 423.407 703.193 423.531C700.11 423.975 697.009 424.417 693.943 424.949C693.092 425.109 692.295 425.25 691.479 425.162C691.125 425.126 690.788 425.038 690.434 424.896C689.991 424.736 689.601 424.506 689.264 424.222C687.12 422.415 687.173 418.427 689.849 417.01C691.036 416.336 692.365 415.929 693.712 415.61C694.067 415.521 694.439 415.45 694.793 415.379C695.006 415.326 695.236 415.291 695.449 415.237C695.591 415.202 695.733 415.184 695.892 415.149C696.016 415.131 696.14 415.096 696.264 415.078C696.814 414.972 697.363 414.865 697.912 414.759C698.267 414.688 698.621 414.617 698.976 414.564C701.917 413.997 704.859 413.465 707.819 412.916C710.566 412.402 713.33 411.906 716.095 411.392C716.13 411.392 716.166 411.374 716.201 411.374C718.417 410.966 720.632 410.577 722.847 410.187C725.346 409.744 727.844 409.301 730.361 408.858C732.877 408.415 735.359 407.972 737.875 407.529C850.196 389.417 963.137 374.743 1074.84 352.998C1131.32 342.365 1187.46 330.048 1243.96 319.574C1393.85 294.321 1544.13 271.034 1692.8 239.117C1803.63 213.952 1916.27 199.685 2028.56 182.991C2101.14 171.72 2173.52 159.014 2246.07 147.512C2282.44 142.213 2318.79 136.755 2354.99 130.499C2357.17 130.145 2359.35 129.772 2361.55 129.418C2363.21 129.134 2364.9 128.869 2366.55 128.567C2368.96 128.16 2371.37 127.752 2373.78 127.327C2378.31 126.547 2382.83 125.767 2387.37 124.987C2390.06 124.509 2392.76 124.048 2395.47 123.57C2398.18 123.091 2400.86 122.631 2403.57 122.17C2406.26 121.691 2408.95 121.23 2411.67 120.77C2414.36 120.291 2417.05 119.848 2419.75 119.387C2419.75 119.387 2419.75 119.387 2419.76 119.387C2419.78 119.387 2419.76 119.387 2419.78 119.387C2430.63 117.544 2441.49 115.772 2452.37 114.142C2454.85 113.769 2457.34 113.415 2459.82 113.061C2463.7 112.511 2467.47 112.334 2471.37 112.972C2473.87 113.397 2476.35 114.071 2478.71 115.028C2481.74 116.304 2484.54 118.023 2486.86 120.291Z" fill="black"/>
<path d="M2480.5 155.079C2478.57 156.036 2476.6 156.94 2474.61 157.791C2470.48 159.563 2466.23 161.105 2461.92 162.398C2459.34 163.196 2456.7 163.887 2454.06 164.525C2448.6 165.801 2443.05 166.74 2437.5 167.325C2421.84 168.991 2406.24 171.401 2390.74 174.272C2355.52 180.794 2319.87 184.586 2284.85 192.154C2265.92 196.336 2247.15 201.227 2228.1 204.896C2156.81 217.709 2084.82 226.233 2013.19 236.866C1885.13 255.651 1757.29 275.766 1629.85 298.432C1522.37 317.005 1414.83 335.329 1307.63 355.514C1234.85 368.93 1162.86 386.741 1089.33 395.832C977.403 410.966 866.784 434.359 754.658 448.041C740.161 450.026 725.771 452.542 711.399 455.253C707.411 455.945 703.388 456.423 699.419 457.221C697.753 457.912 695.75 457.628 694.581 456.104C694.51 455.98 694.457 455.856 694.404 455.732C693.447 453.588 693.783 452.064 694.864 450.947C695.928 449.848 697.717 449.139 699.649 448.625C700.535 448.395 701.439 448.2 702.325 448.023C702.538 447.988 702.768 447.934 702.999 447.899C703.229 447.864 703.442 447.81 703.654 447.775C704.948 447.544 706.153 447.332 707.057 447.101C732.753 440.952 758.858 436.787 784.98 432.924C849.93 424.116 914.19 411.02 978.803 400.156C1035.25 390.09 1092.22 383.338 1148.74 373.732C1203.16 363.968 1256.97 351.048 1311.34 340.947C1418.2 320.407 1525.18 300.505 1632.31 281.419C1777.45 254.907 1923.5 234.013 2069.42 212.25C2126.52 203.921 2183.85 196.496 2240.37 184.728C2258.18 180.705 2275.97 176.399 2293.97 173.244C2320.36 168.442 2347.12 166.262 2373.6 162.026C2401.05 157.56 2428.82 152.775 2456.64 153.236C2457.1 153.236 2457.58 153.254 2458.04 153.272C2459.21 153.307 2460.4 153.342 2461.59 153.378C2462.14 153.396 2462.67 153.413 2463.22 153.449C2463.79 153.484 2464.37 153.502 2464.94 153.537C2465.5 153.573 2466.09 153.608 2466.66 153.644C2467.06 153.662 2467.45 153.697 2467.86 153.732C2468.41 153.768 2468.96 153.803 2469.53 153.856C2470.29 153.91 2471.07 153.98 2471.83 154.051C2471.85 154.051 2471.88 154.051 2471.9 154.051C2474.81 154.353 2477.64 154.672 2480.5 155.079Z" fill="black"/>
<path d="M2485.05 116.091C2491.38 124.03 2486.75 141.912 2485.97 151.553C2486.22 157.808 2479.03 160.945 2474.61 157.773C2473.78 157.188 2473.04 156.355 2472.47 155.292C2472.24 154.884 2472.06 154.477 2471.94 154.087C2471.9 153.963 2471.87 153.839 2471.83 153.715V153.697C2471.81 153.626 2471.8 153.555 2471.8 153.484C2471.8 153.467 2471.8 153.449 2471.78 153.431C2471.76 153.343 2471.74 153.236 2471.73 153.148C2471.71 153.024 2471.69 152.917 2471.69 152.793C2471.69 152.793 2471.69 152.776 2471.69 152.758C2471.69 152.687 2471.67 152.634 2471.67 152.563C2471.51 149.692 2473.21 146.785 2473.83 144.003C2474.21 142.727 2474.6 141.451 2474.99 140.158C2475.07 139.839 2475.18 139.519 2475.27 139.201C2475.36 138.882 2475.46 138.562 2475.55 138.243C2475.75 137.588 2475.92 136.95 2476.08 136.294C2476.23 135.78 2476.35 135.284 2476.47 134.77C2476.6 134.274 2476.72 133.778 2476.83 133.281C2476.9 132.98 2476.97 132.679 2477.02 132.36C2477.09 132.041 2477.17 131.704 2477.22 131.385C2477.34 130.8 2477.43 130.215 2477.52 129.631C2477.54 129.542 2477.54 129.471 2477.56 129.382C2477.56 129.347 2477.57 129.312 2477.57 129.294C2477.61 129.046 2477.64 128.815 2477.68 128.567C2477.68 128.532 2477.68 128.479 2477.7 128.443C2477.7 128.443 2477.71 128.426 2477.7 128.408C2477.98 126.193 2478.09 123.977 2477.95 121.727C2475.54 119.104 2476.58 116.375 2478.71 115.099C2480.55 114 2483.16 114 2485.05 116.091Z" fill="black"/>
<path d="M703.566 427.661C704.859 434.289 705.267 441.927 702.361 448.041C702.024 448.75 701.634 449.441 701.209 450.097C700.269 451.55 699.1 452.879 697.664 454.049C696.619 453.109 695.697 452.064 694.9 450.947C693.89 449.512 693.092 447.952 692.454 446.304C690.806 441.944 690.398 437.018 690.895 432.499C691.214 430.656 691.249 427.944 691.479 425.197C691.479 425.073 691.497 424.967 691.515 424.843C691.834 421.387 692.49 417.913 694.474 416.106C694.882 415.734 695.36 415.415 695.892 415.202C696.034 415.131 696.193 415.078 696.353 415.043C696.512 414.989 696.654 414.954 696.814 414.918C696.831 414.918 696.849 414.919 696.867 414.901C696.991 414.883 697.097 414.865 697.221 414.848C697.239 414.848 697.257 414.848 697.274 414.848C697.363 414.83 697.452 414.83 697.558 414.83C697.682 414.812 697.806 414.812 697.93 414.812C697.93 414.812 697.948 414.812 697.966 414.812C702.555 415.255 702.981 419.544 703.211 423.549C703.282 425.038 703.335 426.473 703.566 427.661Z" fill="black"/>
<path d="M701.545 450.752C702.839 454.775 698.976 457.15 695.219 455.909C694.953 455.856 694.705 455.785 694.439 455.732C663.585 448.927 632.767 441.944 602.002 434.767C595.25 433.19 588.498 431.595 581.746 430C564.591 425.941 547.436 421.812 530.317 417.612C487.838 405.597 445.181 394.148 402.773 381.849C360.347 370.029 318.648 355.674 276.027 344.562C247.211 336.96 218.183 330.137 189.58 321.772C145.275 308.764 102.814 293.665 58.3495 281.898C57.7293 281.756 57.109 281.596 56.4888 281.455C55.8685 281.295 55.2482 281.153 54.628 280.994C54.0077 280.834 53.3874 280.675 52.7849 280.515C51.438 280.161 50.0912 279.789 48.762 279.416C47.9646 279.204 47.1848 278.973 46.3873 278.743C45.448 278.477 44.5265 278.211 43.605 277.928C38.3239 276.368 33.0605 274.685 27.7971 273.054C25.3161 272.275 22.835 271.495 20.354 270.75C15.1969 269.492 8.39174 267.95 6.42462 262.97C5.98157 261.872 5.78662 260.596 5.91067 259.143C6.56638 254.996 10.6956 252.763 14.6121 252.798C14.6475 252.798 14.6652 252.798 14.683 252.798C17.9615 252.94 20.8856 254.535 23.9692 255.527C32.4757 258.505 40.9822 261.553 49.5595 264.317C77.241 272.647 104.798 281.437 132.196 290.723C197.891 313.85 266.173 328.134 332.559 348.94C385.902 366.201 439.156 381.176 493.154 395.85C513.729 402.017 534.269 408.379 555.11 413.607C597.465 423.584 639.82 433.473 682.122 443.717C685.596 444.532 689.069 445.4 692.525 446.322C693.978 446.712 695.431 447.119 696.867 447.527C697.859 447.739 698.887 448.094 699.755 448.643C700.358 449.015 700.89 449.494 701.279 450.114C701.333 450.309 701.439 450.522 701.545 450.752Z" fill="black"/>
<path d="M691.196 424.736C670.887 419.792 650.382 415.751 630.286 409.921C609.764 404.906 588.994 401.024 568.384 396.381C525.337 386.014 482.681 374.034 439.812 362.958C404.421 353.175 369.35 342.4 333.853 333.008C284.037 321.453 235.072 306.655 185.45 294.285C164.397 289.288 143.308 284.538 122.343 279.186C106.092 275.394 90.1071 270.627 74.3524 265.133C61.1319 261.039 47.6633 257.831 34.2302 254.517C28.3111 253.082 22.3388 251.788 16.4197 250.352C14.2399 249.821 12.3791 249.006 10.6956 247.499C5.57395 242.874 7.32842 235.058 14.9134 233.977C18.2982 233.322 21.5945 234.81 24.8553 235.555C54.7697 243.494 84.4007 252.461 114.315 260.401C149.138 269.457 184.529 276.404 218.998 286.824C261.406 299.655 304.204 311.015 346.967 322.587C388.95 334.709 430.526 348.266 472.916 358.899C501.679 365.882 529.927 374.761 558.725 381.619C586.708 388.442 615.169 393.262 642.939 400.918C656.514 404.853 670.16 408.592 683.806 412.26C688.148 413.749 693.145 414.351 696.495 417.701C697.558 418.906 697.647 420.714 697.133 422.167C696.229 424.612 693.252 425.676 690.93 424.648L691.196 424.736Z" fill="black"/>
<path d="M4.08532 261.34C2.06504 257.619 2.64986 253.064 1.4625 249.041C0.735907 244.788 -1.26667 240.092 1.17895 236.033C5.2018 229.051 13.6019 232.932 14.4703 239.932C14.5058 246.188 16.6147 260.578 9.20693 263.041C7.34614 263.431 5.23724 262.988 4.08532 261.34Z" fill="black"/>
<path d="M2473.92 122.294C2474.24 126.192 2470.31 127.965 2467.03 126.37C2451.36 123.552 2435.59 121.39 2419.78 119.458C2419.78 119.458 2419.78 119.458 2419.76 119.458C2418.72 119.316 2417.66 119.192 2416.61 119.068C2416.47 119.051 2416.33 119.033 2416.17 119.015C2412.11 118.519 2408.03 118.058 2403.97 117.58C2403.39 117.509 2402.82 117.456 2402.24 117.385C2400.7 117.208 2399.17 117.03 2397.65 116.853C2391.32 116.127 2385.01 115.418 2378.69 114.691C2377.25 114.532 2375.81 114.354 2374.36 114.177C2365.27 113.114 2356.18 111.997 2347.11 110.739C2346.27 110.633 2345.42 110.509 2344.59 110.385C2337.39 109.374 2330.22 108.276 2323.04 107.071C2321.62 106.822 2320.22 106.592 2318.8 106.344C2246.55 95.0019 2174.78 79.1408 2102.3 69.89C2079.54 66.9659 2057.05 62.3935 2034.31 59.3808C1952.62 49.1907 1870.58 40.7197 1789.22 28.013C1787.98 27.8004 1786.72 27.5877 1785.48 27.3751C1784.58 27.2156 1783.68 27.0383 1782.75 26.8611C1782.06 26.737 1781.37 26.5953 1780.7 26.4535C1779.17 26.1522 1777.67 25.8331 1776.16 25.4964C1775.54 25.3547 1774.92 25.2129 1774.3 25.0711C1772.51 24.6635 1770.72 24.2382 1768.93 23.7775C1768.33 23.618 1767.71 23.4584 1767.11 23.2989C1766.5 23.1394 1765.88 22.9799 1765.28 22.8204C1763.37 22.3065 1761.47 21.775 1759.57 21.2079C1751 18.6559 1742.56 15.643 1734.37 12.1872C1733.43 11.7973 1732.51 11.3899 1731.59 11C1735.58 11 1739.58 11.0353 1743.57 11.124C1746.1 11.1771 1748.62 11.248 1751.16 11.3544C1756.83 11.5847 1762.46 11.9214 1768.12 12.4354C1780.4 13.3923 1792.89 15.4481 1804.94 17.557C1827.91 21.1546 1850.98 24.1141 1874 27.5168C1928.91 34.6941 1983.95 40.7375 2038.87 47.8085C2070.56 52.5757 2102.23 57.6087 2134.02 61.7379C2201.61 71.8394 2268.38 86.7967 2335.85 97.6071C2374.47 104.483 2413.86 106.911 2452.37 114.195C2457.88 115.24 2463.38 116.375 2468.85 117.651C2471.12 118.395 2473.69 119.635 2473.92 122.294Z" fill="black"/>
<path d="M9.61453 244.256C7.04487 242.413 7.98413 238.018 11.0677 237.327C22.7641 234.35 34.7618 232.719 46.7063 231.053C59.0407 229.281 72.8106 228.218 84.9677 227.509C112.206 225.488 139.338 221.891 166.293 217.549C244.907 203.531 323.468 188.432 402.915 179.766C438.784 176.204 474.741 171.791 510.717 169.877C546.781 167.591 582.614 162.753 618.607 159.439C692.046 151.606 765.238 141.717 838.11 129.79C910.415 119.441 983.482 115.134 1055.8 104.767C1109.34 97.873 1162.68 89.6852 1216.06 81.7635C1306 69.2873 1396.4 60.0719 1486.07 45.6817C1545.39 36.1827 1604.38 24.2735 1664.28 18.8329C1687.53 16.9189 1710.73 14.562 1733.95 12.2581C1740.93 11.567 1748.11 9.77719 1754.89 12.4C1757.75 13.4102 1760.58 14.9695 1762.53 17.3088C1759.57 22.8912 1753.26 26.3117 1747.19 27.375C1726.95 29.8029 1706.64 31.5397 1686.36 33.6486C1599 40.064 1513.29 58.8845 1426.51 70.0494C1353.8 79.7964 1280.85 87.8954 1208.16 97.8374C1118.63 111.838 1028.78 123.8 938.539 132.395C865.437 137.836 793.415 151.588 720.756 160.591C656.975 168.229 593.123 175.265 529.112 180.723C499.304 182.513 469.496 184.427 439.812 187.652C359.319 194.262 279.748 208.21 200.195 221.714C173.967 226.818 147.65 231.319 121.067 234.137C91.702 238.124 61.9471 237.699 32.6175 242.041C26.3794 242.874 20.1767 243.937 13.9741 244.912C12.4323 245.107 10.9437 245.319 9.61453 244.256Z" fill="black"/>
<path d="M725.682 1630.09C725.966 1630.06 725.753 1630.5 725.594 1630.61C723.042 1632.17 719.728 1632.19 716.857 1631.6C716.627 1631.51 716.379 1631.41 716.148 1631.32C714.943 1630.84 713.756 1630.36 712.551 1629.9C564.627 1571.19 419.662 1505.63 275.69 1437.85C209.96 1406.46 144.407 1374.77 79.6157 1341.55C68.0965 1335.7 53.8482 1331.46 48.8329 1318.26C48.7443 1317.98 48.5671 1317.69 48.5494 1317.44C48.7798 1317.39 49.0279 1317.34 49.2583 1317.28C52.6077 1316.59 55.9394 1316.56 59.2002 1317.04C59.4483 1317.07 59.6964 1317.11 59.9268 1317.16C60.0863 1317.2 60.2458 1317.21 60.423 1317.25C60.7775 1317.32 61.1319 1317.37 61.4863 1317.46C61.7344 1317.51 62.0003 1317.57 62.2484 1317.64C62.78 1317.76 63.2939 1317.9 63.8256 1318.05C64.1092 1318.14 64.3927 1318.22 64.6762 1318.31C64.9952 1318.4 65.332 1318.53 65.6509 1318.63C65.7218 1318.65 65.775 1318.67 65.8281 1318.7C65.9876 1318.76 66.1471 1318.81 66.3244 1318.88C66.5016 1318.95 66.6611 1319 66.8206 1319.07C67.1396 1319.2 67.4763 1319.32 67.7953 1319.45C68.1143 1319.57 68.4333 1319.71 68.77 1319.85C69.6029 1320.21 70.4181 1320.58 71.2333 1320.99C71.4991 1321.11 71.765 1321.25 72.0131 1321.4C72.7751 1321.79 73.5017 1322.19 74.246 1322.62C74.4941 1322.76 74.7423 1322.9 74.9904 1323.06C75.3093 1323.26 75.646 1323.45 75.965 1323.65C91.8083 1332.06 107.811 1340.16 123.654 1348.6C175.384 1376 228.461 1400.76 280.918 1426.7C387.125 1477.44 494.094 1526.74 602.498 1572.64C629.311 1583.54 655.681 1595.5 682.353 1606.72C690.292 1610.07 698.231 1613.45 706.082 1617.02C706.561 1617.26 707.039 1617.49 707.518 1617.72C707.925 1617.92 708.351 1618.11 708.776 1618.31C709.733 1618.73 710.725 1619.16 711.7 1619.57C712.356 1619.85 713.011 1620.13 713.667 1620.42C714.482 1620.77 715.298 1621.15 716.095 1621.55C716.503 1621.75 716.91 1621.96 717.3 1622.17C717.318 1622.17 717.336 1622.17 717.336 1622.19C720.579 1623.93 723.467 1626.11 725.31 1629.44C725.452 1629.63 725.576 1629.86 725.682 1630.09Z" fill="black"/>
<path d="M795.719 1600.78C799.458 1603.83 797.35 1610.16 792.706 1610.88C773.85 1616.64 754.817 1621.84 735.678 1626.67C732.222 1627.58 728.784 1628.54 725.31 1629.44C724.495 1629.65 723.68 1629.86 722.865 1630.08C720.738 1630.48 718.363 1631.39 716.13 1631.34C715.156 1631.32 714.181 1631.1 713.277 1630.59C712.994 1630.38 712.746 1630.15 712.533 1629.92C709.928 1627.06 712.019 1622.9 715.971 1622.58C716.414 1622.46 716.875 1622.33 717.336 1622.19C717.92 1622.01 718.505 1621.84 719.09 1621.68C719.604 1621.52 720.118 1621.38 720.632 1621.22C720.969 1621.11 721.305 1621 721.624 1620.91C722.191 1620.74 722.758 1620.56 723.308 1620.38C724.513 1619.99 725.736 1619.6 726.941 1619.21C727.791 1618.93 728.642 1618.65 729.51 1618.38C731.283 1617.8 733.055 1617.21 734.827 1616.61C736.528 1616.04 738.212 1615.49 739.931 1614.96C741.668 1614.41 743.404 1613.86 745.159 1613.35C754.551 1610.39 764.05 1607.76 773.461 1604.82C774.01 1604.65 774.559 1604.47 775.109 1604.29C775.321 1604.22 775.534 1604.15 775.747 1604.08C780.018 1602.68 784.235 1601.12 788.56 1599.91C788.896 1599.79 789.233 1599.7 789.587 1599.61C791.749 1599.03 794.018 1599.24 795.719 1600.78Z" fill="black"/>
<path d="M788.932 1585.68C789.109 1590.1 789.977 1595.04 789.623 1599.58C789.286 1603.69 787.939 1607.46 784.147 1610.17C783.066 1610.87 782.109 1610.58 781.01 1610C778.494 1608.53 776.845 1606.44 775.782 1604.04C774.152 1600.39 773.886 1596.01 773.921 1592.01C773.62 1583.82 773.283 1575.65 773.212 1567.45C772.929 1520.66 773.336 1473.86 772.947 1427.07C770.288 1332.01 769.331 1236.92 768.02 1141.84C766.088 1058.23 765.84 974.542 768.534 890.948C769.562 787.398 770.342 683.849 769.172 580.3C768.924 562.613 768.179 544.927 767.24 527.276C767.028 523.27 766.655 519.283 766.957 515.278C767.116 511.237 768.764 507.374 768.8 503.404C768.8 503.404 768.729 503.351 768.764 503.333C769.207 503.298 769.473 503.794 769.721 504.095C771.086 506.151 772.185 508.384 773.035 510.688C774.116 513.63 774.825 516.713 775.197 519.815C775.268 520.417 775.339 521.038 775.392 521.658C776.402 533.39 777.076 545.14 777.643 556.907C778.724 579.892 778.83 602.913 779.291 625.916C780.177 721.171 780.159 816.462 779.326 911.736C776.633 1054.11 781.967 1196.51 784.235 1338.87C784.696 1374.7 786.096 1410.52 787.142 1446.34C787.727 1481.69 786.592 1517.06 787.673 1552.42C787.904 1563.51 788.223 1574.61 788.932 1585.68Z" fill="black"/>
<path d="M666.616 1543.29C660.005 1537.52 659.456 1528.35 660.289 1520.22C660.573 1512.26 660.767 1504.3 661.033 1496.35C662.593 1446.46 664.525 1396.59 663.78 1346.67C664.152 1313.88 663.373 1281.13 661.831 1248.38C661.193 1215.06 660.714 1181.73 660.112 1148.39C661.707 992.494 661.937 836.559 657.56 680.695C655.557 639.597 652.296 598.589 650.967 557.456C650.489 543.651 649.745 529.828 650.188 516.022C650.276 514.037 650.063 511.574 651.552 510.014C652.686 508.809 654.636 508.295 656.124 509.128C658.056 510.014 658.659 512.212 658.517 514.179C658.552 516.908 658.641 519.62 658.747 522.349C659.332 538.299 660.324 554.213 661.281 570.145C670.922 703.857 671.188 837.924 673.013 971.919C673.492 1049.58 671.507 1127.29 675.388 1204.89C678.489 1281.65 679.659 1358.42 677.798 1435.21C677.461 1455.02 676.965 1474.81 676.469 1494.63C676.327 1505.4 676.008 1516.16 675.618 1526.92C675.353 1533.28 672.358 1540.16 666.616 1543.29Z" fill="black"/>
<path d="M667.076 1534.61C667.094 1534.59 667.094 1534.59 667.112 1534.57C661.051 1532.23 654.352 1531.74 648.132 1529.81C641.734 1528.05 635.62 1525.34 629.489 1522.86C596.296 1508.77 562.5 1493.25 530.211 1478.16C473.554 1450.31 415.249 1426.01 357.707 1400.03C282.088 1364.87 205.352 1331.27 129.822 1296.04C118.462 1290.4 106.73 1285.47 95.3527 1279.89C90.4083 1276.79 86.0842 1272.24 84.3829 1266.56C88.1931 1265.06 92.5704 1264.92 96.5933 1265.57C102.991 1266.53 108.361 1270.27 114.102 1272.98C125.001 1278.49 135.936 1283.91 146.941 1289.23C191.476 1309.66 235.036 1330.77 279.837 1350.32C315.21 1366.32 350.175 1383.19 385.583 1399.14C430.756 1419.54 476 1439.85 520.517 1461.65C553.338 1478.66 586.407 1492.73 619.759 1508.24C633.99 1515.29 649.851 1519.49 662.362 1529.63C664.082 1531.1 665.942 1532.46 667.183 1534.36C667.218 1534.48 667.254 1534.59 667.112 1534.63C667.059 1534.64 667.059 1534.61 667.076 1534.61Z" fill="black"/>
<path d="M59.6078 1319.41C59.6432 1321.18 58.8457 1322.81 57.2153 1323.63C55.6204 1324.43 53.8659 1324.11 52.4482 1323.04C51.1899 1321.7 50.1443 1319.71 49.2582 1317.27C43.9063 1302.22 45.2354 1269.45 44.7569 1257.6C42.1518 1167 41.8328 1075.54 40.2378 985.051C38.8378 896.193 38.1112 807.389 36.7112 718.62C35.5061 662.211 33.4149 605.801 33.0073 549.392C32.9542 518.397 33.0428 487.366 32.7061 456.388C32.2276 413.837 29.6756 371.092 29.3389 328.595C29.1617 318.174 28.7718 307.754 28.1161 297.369C27.8326 292.761 27.5313 288.153 27.3009 283.528C26.9819 280.072 26.7692 276.404 27.7262 273.072C28.1515 271.619 28.7895 270.254 29.7288 268.978C30.8807 267.348 32.8478 265.15 35.0808 265.221C37.3315 265.292 39.3517 267.49 40.5745 269.138C42.5948 271.761 43.2683 274.827 43.5164 277.963C43.6581 279.647 43.6936 281.348 43.7468 283.032C44.562 298.379 45.1113 313.726 45.448 329.091C46.086 372.404 47.8582 415.698 48.2658 459.011C48.5139 503.794 47.7696 548.577 48.5316 593.361C51.9342 713.143 51.0481 833.333 52.9267 953.01C54.6811 1045.8 55.4963 1137.41 57.2153 1230C57.6761 1250.51 57.1445 1272.16 56.8432 1292.31C56.9495 1298.92 57.1976 1305.5 58.0483 1312.06C58.2255 1313.74 58.7571 1315.39 59.147 1317.05C59.3774 1317.8 59.5369 1318.6 59.6078 1319.41Z" fill="black"/>
<path d="M96.4515 1266.72C97.0008 1268.41 96.292 1270.29 94.6793 1271.08C92.9425 1271.97 90.8337 1271.21 89.8944 1269.49C89.4691 1268.16 89.1324 1266.79 88.8488 1265.43C87.3425 1258.08 87.6438 1250.28 87.0767 1242.82C86.6513 1232.95 86.5095 1223.07 86.1374 1213.2C84.8259 1182.86 83.3905 1152.51 83.4436 1122.13C83.3728 1070.67 80.6613 1019.27 80.0765 967.825C77.9853 867.129 75.8587 766.433 75.8233 665.737C74.1929 565.963 71.3042 466.117 74.9017 366.36C75.079 357.163 75.1853 347.965 75.2739 338.767C75.3625 334.851 77.7726 330.438 81.7069 329.286C85.1981 328.577 87.7855 332.635 88.707 335.4C88.7425 335.489 88.7779 335.595 88.7956 335.684C89.4513 337.863 89.2387 340.114 89.0792 342.365C89.026 343.038 88.9906 343.712 88.9374 344.385C88.4944 350.854 88.0868 357.322 87.7324 363.791C80.7145 481.234 85.7652 598.925 85.2336 716.475C84.631 762.906 85.6766 809.285 86.2614 855.663C87.3602 922.741 87.9805 989.818 90.621 1056.86C91.578 1088.28 91.7375 1119.9 92.0387 1151.3C92.5881 1180.08 94.5198 1208.83 94.8033 1237.62C95.1578 1246.84 94.9983 1256.52 96.2566 1265.55C96.3274 1265.94 96.3806 1266.33 96.4515 1266.72Z" fill="black"/>
<path d="M647.033 520.187C608.08 505.708 568.437 493.143 528.704 480.968C491.046 468.758 453.44 456.317 415.568 444.745C371.352 430.337 326.729 417.24 282.353 403.346C233.547 387.68 184.299 371.624 135.014 357.978C117.31 352.732 99.4641 348.94 82.4866 341.833C78.9245 339.884 80.1651 333.841 85.0209 334.62C99.5705 338.785 114.28 342.4 129.024 345.892C175.012 356.649 219.849 370.543 264.951 384.082C321.944 401.769 378.246 416.903 434.956 434.732C466.979 444.355 498.861 454.368 530.689 464.629C562.429 474.482 594.382 483.751 625.891 494.348C634.947 497.662 644.198 500.498 653.2 503.883C656.886 505.726 659.988 509.376 660.36 513.577C660.466 519.832 651.853 521.516 647.033 520.187Z" fill="black"/>
<path d="M656.957 1479.14C643.329 1474.6 630.64 1467.14 617.331 1461.84C577.369 1445.56 536.644 1429.25 497.142 1412.2C497.16 1412.2 497.177 1412.22 497.195 1412.22C497.248 1412.24 497.301 1412.27 497.355 1412.29C454.929 1393.52 411.794 1377.17 368.924 1359.55C335.944 1345.94 303.123 1329.67 270.622 1315.51C238.616 1301.78 205.582 1290.06 175.384 1272.5C166.275 1266.99 155.678 1263.6 148.341 1255.58C147.136 1254.3 145.949 1252.97 145.027 1251.54C149.174 1250.35 153.587 1250.21 157.822 1251.08C173.559 1256.39 187.169 1266.79 202.215 1273.78C219.636 1282.39 237.251 1289.34 255.062 1296.71C297.754 1314.45 338.939 1335.41 381.436 1353.54C433.981 1375.32 486.473 1396.75 538.292 1419.5C574.888 1435.05 612.281 1448.85 647.972 1466.45C655.664 1469.87 663.284 1473.47 669.38 1479.32C665.606 1480.61 660.962 1479.95 656.957 1479.14Z" fill="black"/>
<path d="M152.116 1251.55C144.513 1239.72 147.207 1224.9 145.736 1211.56C144.566 1192.1 144.46 1172.6 144.655 1153.11C144.903 1114.26 142.67 1075.45 141.589 1036.62C137.672 824.987 133.526 613.333 131.824 401.68C131.824 392.872 131.7 384.065 131.612 375.257C131.328 368.895 131.31 360.831 137.814 357.606C139.338 357.056 140.88 358.244 141.961 359.183C145.08 362.072 146.303 366.307 146.268 370.454C146.374 379.014 146.232 387.573 146.25 396.133C146.055 530.341 146.622 664.55 148.465 798.74C149.989 857.01 151.885 915.28 152.311 973.567C152.24 1012.54 154.03 1051.47 155.128 1090.43C156.759 1127.04 155.412 1163.67 155.749 1200.3C155.89 1209.18 156.121 1218.06 156.227 1226.94C156.918 1235.5 155.82 1244.06 152.541 1251.96C152.523 1252.09 152.275 1251.77 152.116 1251.55Z" fill="black"/>
<path d="M2438.75 1132.13C2431.64 1123.18 2432.75 1111.71 2433.32 1101.02C2434.35 1075.45 2435.47 1049.88 2436.78 1024.31C2440.14 970.271 2442.57 916.113 2443.71 862.008C2443.92 793.016 2446.86 725.212 2448.62 656.451C2450.44 589.745 2450.62 523.271 2451.93 456.973C2452.09 415.787 2452.76 374.601 2451.98 333.433C2451.36 286.931 2450.87 240.269 2452.34 193.908C2452.67 184.498 2453.08 175.087 2453.93 165.713C2454.23 162.877 2454.46 159.988 2455.28 157.242C2455.79 155.523 2457.76 154.548 2459.46 154.902C2461.16 155.274 2462.55 156.976 2462.32 158.748C2461.75 163.09 2461.64 167.485 2461.48 171.844C2460.9 187.511 2460.84 202.362 2460.88 217.886C2460.19 289.819 2463.04 361.735 2462.26 433.686C2461.39 494.012 2461.34 553.309 2459.96 613.457C2458.88 686.614 2454.94 759.699 2454.85 832.855C2454.98 909.077 2449.93 985.175 2447.11 1061.33C2446.74 1073.41 2446.37 1085.52 2446.14 1097.09C2445.69 1109.07 2447.54 1122.63 2438.75 1132.13Z" fill="black"/>
<path d="M2392.72 1151.11C2399.1 1140.01 2413.26 1138.29 2423.93 1133.1C2430.19 1130.92 2436.26 1128.17 2442.52 1126.08C2445.32 1125.69 2447.78 1128.99 2446.4 1131.54C2445.16 1133.67 2442.79 1134.71 2440.8 1136.04C2434.44 1139.99 2427.54 1142.97 2420.67 1145.93C2411.83 1150.1 2402.61 1155.63 2392.72 1151.11Z" fill="black"/>
<path d="M2399.86 1148.38C2399.86 1148.34 2399.85 1148.31 2399.83 1148.29C2383.77 1145.28 2367.13 1144.92 2351.09 1141.31C2328.57 1136.52 2306.31 1130.44 2284.16 1124.19C2199.91 1101.29 2115.71 1078.22 2031.87 1053.9C1985.77 1039.9 1939.52 1026.4 1892.88 1014.33C1832.96 999.105 1772.76 983.315 1714.72 962.013C1707.19 959.301 1700.95 957.033 1693.67 954.446C1685.09 951.787 1676.1 948.332 1671.44 940.091C1681.51 936.103 1691.61 940.924 1701 944.521C1786.05 978.37 1875.72 997.492 1963.43 1022.82C2069.37 1055.16 2176.16 1084.63 2282.99 1113.89C2313.43 1123.18 2344.48 1130.23 2374.91 1139.55C2383.04 1142.21 2391.37 1144.46 2399.24 1147.79C2399.4 1147.88 2399.95 1148.08 2399.92 1148.39C2399.9 1148.41 2399.86 1148.41 2399.86 1148.38Z" fill="black"/>
<path d="M770.784 519.549C762.898 510.971 783.526 506.753 788.347 504.893C817.18 496.156 846.652 489.528 876.318 484.371C1010.99 462.874 1143.63 437.709 1277.88 414.989C1347.17 402.619 1415.93 387.662 1484.81 373.254C1587.8 353.565 1690.85 334.124 1793.9 314.754C1897.18 295.384 1999.78 272.399 2103.43 255.049C2173.2 243.866 2244.83 234.615 2314.43 224.177C2331.83 221.413 2349.16 218.258 2366.46 214.926C2374.56 213.154 2382.9 212.392 2391.11 213.952C2396.07 214.82 2401 216.45 2405.36 218.861C2399.12 224.195 2391.94 228.448 2384.16 231.106C2364.22 236.423 2343.4 238.124 2323.09 241.74C2250.61 252.355 2177.86 261.003 2105.52 272.664C2019.5 286.824 1934.12 304.493 1848.64 321.524C1693.56 350.765 1538.3 379.297 1383.94 412.189C1311.6 427.643 1238.57 439.197 1165.61 451.248C1110.53 460.924 1055.31 471.008 1000.1 479.763C933.577 490.662 866.482 498.46 800.663 513.364C792.281 515.331 783.704 516.678 775.552 519.513C774.169 520.63 772.22 520.736 770.784 519.549Z" fill="black"/>
<path d="M1675.38 938.584C1671.28 935.306 1670.18 929.9 1670.15 924.885C1669.81 918.505 1669.62 912.125 1669.58 905.728C1669.42 867.413 1670.04 829.098 1671.05 790.783C1672.44 739.372 1672.49 687.978 1672.93 636.567C1673.07 585.439 1674.12 534.329 1673.87 483.201C1673.68 441.484 1672.97 399.961 1672.56 358.563C1672.59 355.39 1672.54 352.059 1674.53 349.383C1676.17 347.15 1679.03 345.094 1681.86 346.618C1684.95 348.266 1686.54 351.935 1686.47 355.337C1686.22 367.069 1685.99 378.819 1685.99 390.568C1686.06 441.377 1686.21 492.186 1685.8 543.013C1684.75 594.052 1683.74 645.056 1683.56 696.112C1683.53 746.939 1681.49 797.73 1680.09 848.539C1679.56 874.165 1678.76 899.791 1678.55 925.417C1678.94 929.989 1678.02 934.863 1675.38 938.584Z" fill="black"/>
<path d="M2347.92 1065.28C2345.21 1054.91 2343.49 1044.24 2343.51 1033.5C2343.92 1020.92 2345.32 1008.36 2345.47 995.755C2346.18 933.498 2351.02 871.383 2353.52 809.196C2356.8 720.321 2354.14 631.357 2354.28 542.446C2355.04 442.937 2354.57 343.393 2357.86 243.919C2358.32 240.676 2357.15 236.955 2359.16 234.172C2361.16 231.567 2365.5 232.737 2366.26 235.874C2370.91 269.669 2369.2 304.068 2370.09 338.094C2370.92 480.844 2372.32 623.612 2371.05 766.362C2369.58 819.741 2365.54 873.031 2363.73 926.409C2362.81 952.071 2362.82 977.767 2361.83 1003.43C2360.89 1024.55 2360.31 1047.26 2347.92 1065.28Z" fill="black"/>
<path d="M2399.76 1115.17C2395.88 1078.71 2396.96 1042.01 2398.76 1005.45C2400.73 968.268 2400.31 931.052 2399.88 893.836C2399.49 836.931 2397.9 780.026 2398.98 723.121C2400.02 647.714 2403.64 572.36 2405.69 496.971C2408.09 426.916 2406.08 356.737 2409.45 286.718C2410.05 272.629 2412.27 258.505 2411.67 244.398C2415.78 260.897 2414.84 278.743 2415.14 295.792C2413.77 352.714 2413.14 409.637 2412.68 466.578C2410.97 560.699 2405.62 654.75 2405.48 748.888C2405.06 824.047 2407.82 899.206 2406.97 974.365C2405.91 1021.33 2403.05 1068.45 2399.76 1115.17Z" fill="black"/>
<path d="M2340.02 1048.34C2316.89 1047.41 2294.84 1039.55 2272.94 1032.72C2239.55 1022.36 2205.65 1013.76 2172.03 1004.14C2127.27 991.36 2080.6 980.036 2036.02 967.878C1946.61 942.979 1858.18 914.73 1769.75 886.606C1757.91 883.239 1746.74 877.461 1737.28 869.557C1736.85 869.185 1736.34 868.848 1736.04 868.441C1747.91 866.651 1760.16 867.714 1771.52 871.56C1856.97 900.712 1943.99 928.944 2030.77 953.205C2104.35 972.823 2178.64 991.165 2251.74 1012.27C2271.82 1017.84 2291.48 1024.75 2311.38 1030.86C2323.02 1034.14 2334.75 1037.17 2346.5 1039.86C2348.45 1040.7 2350.12 1042.91 2349.21 1045.11C2347.76 1048.9 2343.35 1048.28 2340.02 1048.34Z" fill="black"/>
<path d="M2331.81 1057.07C2305.69 1055.48 2279.8 1050.96 2254.49 1044.21C2202.74 1031.5 2150.89 1019.08 2099.35 1005.5C2040.36 989.535 1980.23 976.81 1922.17 958.043C1897.41 950.476 1873.15 941.455 1848.57 933.338C1817.49 923.485 1786.55 913.242 1755.66 902.804C1742.06 898.196 1728.12 893.216 1715.94 885.72C1727.57 887.846 1739.25 889.955 1750.59 893.376C1787.52 906.011 1824.61 918.133 1861.76 930.131C1886.37 938.602 1910.92 947.25 1935.83 954.8C1971.58 966.177 2007.91 975.233 2044.31 984.236C2082.77 993.841 2121.05 1004.24 2159.54 1013.71C2198.58 1023.21 2237.53 1032.99 2276.63 1042.28C2295.16 1046.58 2313.88 1051.37 2331.81 1057.07Z" fill="black"/>
<path d="M1746.55 873.58C1746.51 873.545 1746.51 873.527 1746.49 873.491C1746.49 873.474 1746.51 873.456 1746.53 873.474C1745.09 868.6 1742.93 863.868 1742.08 858.8C1741.09 853.094 1741.05 847.263 1740.66 841.486C1739.21 805.971 1738.38 770.421 1737.39 734.906C1734.55 661.838 1739.1 588.345 1740.58 515.42C1741.34 476.414 1740.63 436.185 1741.48 397.427C1742.24 377.1 1742.15 356.985 1743.22 336.747C1744.6 330.81 1751.86 327.39 1755.37 334.408C1756.74 337.048 1756.26 340.043 1756.03 342.861C1751.53 411.303 1753.37 479.639 1750.5 548.081C1748.69 600.857 1746.37 653.491 1746.87 705.93C1747.74 741.144 1749.03 776.357 1749.93 811.589C1750.22 822.789 1750.22 834.025 1750.34 845.225C1750.75 854.759 1750.29 864.808 1746.55 873.58Z" fill="black"/>
<path d="M1709.26 868.423C1706.27 853.164 1706.05 837.534 1705.77 822.062C1705.27 805.067 1704.85 788.072 1704.46 771.076C1702.7 718.425 1704.1 665.081 1704.95 612.678C1706.34 570.659 1707.63 528.498 1708.73 486.586C1709.93 453.783 1712.33 421.05 1714.56 388.318C1715.53 376.887 1716.17 365.173 1717.82 353.937C1718.55 362.922 1719.38 371.907 1719.84 380.91C1721.68 411.888 1717.43 442.015 1716.21 472.816C1713.28 543.225 1711.23 614.344 1710.02 684.664C1709.15 729.27 1710.94 773.876 1712.17 818.447C1712.98 835.177 1713.11 852.03 1709.3 868.423C1709.31 868.405 1709.3 868.476 1709.26 868.423Z" fill="black"/>
<path d="M707.535 1604.7C713.632 1516.98 711.257 1428.99 712.976 1341.12C714.589 1228.66 719.391 1115.96 719.498 1003.52C718.47 925.434 715.156 847.405 712.09 769.375C710.938 727.711 710.991 685.657 710.778 644.258C710.619 622.513 710.583 601.017 710.583 579.378C710.583 576.312 710.406 573.193 710.459 570.287C712.834 591.801 713.773 613.457 715.014 635.06C717.548 680.375 717.194 725.761 718.31 771.112C719.622 815.559 722.156 859.934 723.06 904.381C728.571 1038.91 722.156 1173.45 719.87 1307.96C717.229 1406.87 722.351 1506.66 707.535 1604.7Z" fill="black"/>
<path d="M1677.08 937.539C1677.03 937.734 1676.95 937.929 1676.9 938.141C1676.83 938.336 1676.78 938.531 1676.71 938.726C1676.44 939.471 1676.1 940.215 1675.7 940.941C1675.7 940.941 1675.71 940.941 1675.71 940.959C1675.73 941.03 1675.55 941.048 1675.5 941.012C1675.2 940.711 1674.93 940.392 1674.7 940.038C1675.43 939.276 1676.21 938.443 1677.08 937.539Z" fill="black"/>
<path d="M1673.91 915.918C1676 922.635 1679.05 930.503 1677.66 933.906C1677.65 934.119 1677.63 934.313 1677.61 934.526C1677.59 934.721 1677.57 934.934 1677.54 935.129C1677.49 935.536 1677.42 935.944 1677.34 936.352C1677.34 936.352 1677.34 936.352 1677.34 936.369C1677.31 936.564 1677.26 936.759 1677.22 936.954C1676.28 938.035 1675.41 939.045 1674.63 939.931C1673.07 937.539 1672.84 934.243 1672.93 931.46C1673.14 926.285 1673.5 921.093 1673.91 915.918Z" fill="black"/>
<path d="M2419.75 119.442C2398.16 123.092 2376.61 127.009 2354.99 130.553C2318.79 136.827 2282.44 142.268 2246.07 147.566C2173.52 159.086 2101.14 171.792 2028.56 183.046C1916.27 199.74 1803.61 214.006 1692.8 239.171C1544.13 271.088 1393.85 294.393 1243.96 319.629C1187.46 330.103 1131.32 342.419 1074.84 353.052C963.137 374.797 850.196 389.471 737.875 407.583C724.548 409.905 711.222 412.297 697.93 414.831C697.168 414.831 696.477 414.973 695.892 415.221C695.166 415.38 694.439 415.522 693.713 415.682C690.682 414.034 687.049 413.396 683.806 412.297C670.16 408.628 656.514 404.889 642.94 400.955C615.152 393.299 586.708 388.479 558.725 381.656C529.928 374.797 501.661 365.919 472.916 358.936C430.526 348.303 388.933 334.746 346.967 322.624C304.222 311.051 261.406 299.674 218.998 286.861C184.529 276.423 149.139 269.494 114.315 260.438C90.5503 254.146 66.9803 247.182 43.3039 240.624C69.1601 237.7 95.2643 237.612 121.067 234.103C147.65 231.285 173.985 226.801 200.195 221.68C279.748 208.176 359.319 194.229 439.812 187.618C469.514 184.393 499.304 182.479 529.112 180.689C593.123 175.231 656.975 168.213 720.756 160.557C793.416 151.554 865.437 137.802 938.539 132.361C1028.76 123.784 1118.63 111.804 1208.16 97.8033C1280.85 87.8613 1353.8 79.7623 1426.51 70.0152C1513.29 58.8681 1598.98 40.0298 1686.36 33.6145C1706.64 31.5056 1726.95 29.7865 1747.19 27.3409C1751.69 26.5434 1756.3 24.4877 1759.59 21.1914C1769.32 24.0624 1779.26 26.3484 1789.24 27.9966C1870.6 40.6855 1952.64 49.1567 2034.33 59.3645C2057.07 62.3773 2079.56 66.9494 2102.31 69.8735C2174.81 79.1244 2246.57 94.9856 2318.82 106.328C2352.24 112.247 2386.08 115.313 2419.75 119.442Z" fill="#949494"/>
<path d="M2477.72 128.391C2477.04 133.708 2475.34 138.9 2473.83 144.004C2473.09 147.265 2470.87 150.703 2471.94 154.07C2439.03 151.04 2406.12 156.764 2373.65 162.045C2347.18 166.281 2320.42 168.461 2294.03 173.263C2276.02 176.418 2258.23 180.724 2240.42 184.747C2183.91 196.515 2126.58 203.94 2069.48 212.269C1923.55 234.032 1777.51 254.926 1632.37 281.438C1525.24 300.525 1418.25 320.426 1311.39 340.966C1257.02 351.068 1203.21 364.005 1148.79 373.752C1092.28 383.375 1035.3 390.127 978.857 400.175C914.243 411.021 849.983 424.135 785.033 432.943C758.911 436.806 732.807 440.953 707.11 447.121C705.887 447.44 704.168 447.688 702.379 448.042C705.303 441.928 704.895 434.272 703.584 427.662C703.353 426.474 703.282 425.039 703.211 423.568C704.062 423.444 704.93 423.32 705.781 423.196C715.528 421.743 725.24 420.13 734.987 418.677C753.736 415.877 772.557 413.644 791.307 410.95C865.845 399.023 940.684 388.975 1015.26 377.349C1091.66 364.253 1167.4 347.789 1243.6 333.771C1412.14 306.639 1580.67 279.524 1747.79 244.523C1822.26 228.875 1897.68 218.88 1973 208.459C2063.98 195.185 2154.61 179.537 2245.58 166.122C2300.07 158.873 2354.44 150.792 2408.6 141.364C2425.58 138.493 2442.61 135.976 2459.67 133.655C2465.95 133.088 2472.27 131.617 2477.72 128.391Z" fill="#949494"/>
<path d="M691.48 425.216C691.249 427.963 691.214 430.675 690.895 432.518C690.416 437.037 690.806 441.981 692.454 446.323C688.999 445.384 685.543 444.533 682.052 443.718C639.75 433.492 597.394 423.586 555.039 413.608C534.198 408.38 513.659 402.018 493.084 395.851C439.085 381.177 385.831 366.202 332.489 348.941C266.103 328.118 197.838 313.852 132.126 290.724C104.728 281.438 77.188 272.648 49.4888 264.319C40.9115 261.554 32.4227 258.506 23.8985 255.529C20.815 254.536 17.8908 252.941 14.6123 252.799C14.7009 251.842 14.7364 250.868 14.7364 249.893C15.268 250.088 15.8174 250.247 16.3845 250.371C22.3213 251.789 28.2758 253.101 34.1949 254.536C47.6281 257.85 61.0966 261.058 74.3171 265.152C90.0718 270.663 106.057 275.413 122.308 279.205C143.273 284.557 164.362 289.307 185.415 294.304C235.019 306.674 283.984 321.454 333.818 333.027C369.297 342.419 404.386 353.212 439.777 362.977C482.646 374.053 525.302 386.015 568.348 396.4C588.959 401.043 609.729 404.925 630.251 409.94C649.692 415.593 669.54 419.563 689.211 424.295C689.548 424.578 689.938 424.809 690.381 424.968C690.771 425.092 691.125 425.181 691.48 425.216Z" fill="#949494"/>
<path d="M1671.5 943.494C1669.97 945.213 1669.12 946.134 1669 946.241C1669.12 946.081 1669.94 945.177 1671.5 943.494Z" fill="#B7B5B5"/>
<path d="M677.78 1435.21C679.641 1358.4 678.471 1281.63 675.37 1204.89C671.489 1127.29 673.474 1049.58 672.995 971.92C671.188 837.924 670.922 703.875 661.264 570.145C660.307 554.213 659.314 538.299 658.729 522.349C658.676 520.861 658.623 519.372 658.57 517.883C659.686 516.802 660.395 515.385 660.36 513.559C659.988 509.359 656.886 505.708 653.2 503.865C644.18 500.498 634.947 497.663 625.891 494.331C594.381 483.733 562.429 474.465 530.689 464.611C498.861 454.368 466.962 444.355 434.956 434.714C378.246 416.886 321.944 401.752 264.951 384.065C219.848 370.525 174.995 356.631 129.024 345.874C115.556 342.702 102.122 339.388 88.7955 335.666C88.7778 335.578 88.7424 335.471 88.707 335.383C87.7854 332.636 85.198 328.578 81.7068 329.269C77.7726 330.403 75.3624 334.816 75.2738 338.75C75.1852 347.948 75.0789 357.145 74.9017 366.343C71.3041 466.1 74.1928 565.927 75.8232 665.72C75.8586 766.434 78.003 867.13 80.0764 967.808C80.679 1019.25 83.3727 1070.67 83.4436 1122.11C83.3904 1152.49 84.8259 1182.85 86.1373 1213.19C86.5094 1223.06 86.6513 1232.93 87.0766 1242.8C87.6437 1250.26 87.3424 1258.06 88.8488 1265.41C87.307 1265.63 85.8006 1266 84.3651 1266.55C86.0664 1272.22 90.4082 1276.77 95.3349 1279.87C106.695 1285.46 118.444 1290.38 129.804 1296.02C205.334 1331.27 282.07 1364.85 357.689 1400.01C415.232 1425.97 473.536 1450.27 530.193 1478.15C562.482 1493.23 596.278 1508.75 629.471 1522.82C635.602 1525.3 641.734 1528.02 648.114 1529.77C652.208 1531.03 656.496 1531.68 660.679 1532.64C661.547 1536.66 663.337 1540.39 666.633 1543.28C672.375 1540.14 675.352 1533.26 675.618 1526.88C676.008 1516.12 676.327 1505.37 676.469 1494.59C676.965 1474.82 677.461 1455.02 677.78 1435.21ZM719.887 1307.98C722.173 1173.45 728.589 1038.91 723.077 904.399C722.174 859.952 719.639 815.576 718.328 771.13C717.229 725.779 717.583 680.376 715.032 635.079C713.791 613.458 712.852 591.819 710.477 570.305C710.424 573.211 710.619 576.33 710.601 579.396C710.583 601.035 710.619 622.531 710.796 644.276C711.009 685.675 710.956 727.747 712.107 769.393C715.173 847.423 718.47 925.435 719.515 1003.54C719.391 1116 714.606 1228.67 712.994 1341.14C711.275 1429 713.632 1516.99 707.553 1604.72C722.333 1506.66 717.211 1406.89 719.887 1307.98ZM1716.24 472.799C1717.47 441.998 1721.72 411.871 1719.88 380.893C1719.42 371.89 1718.58 362.905 1717.86 353.92C1716.21 365.156 1715.57 376.87 1714.6 388.301C1712.36 421.033 1709.97 453.783 1708.77 486.569C1707.67 528.499 1706.37 570.659 1704.99 612.66C1704.14 665.046 1702.74 718.389 1704.48 771.059C1704.87 788.054 1705.29 805.05 1705.79 822.045C1706.07 837.534 1706.28 853.165 1709.28 868.406C1709.31 868.459 1709.33 868.388 1709.33 868.388C1713.14 851.995 1713.04 835.142 1712.2 818.412C1710.96 773.824 1709.19 729.235 1710.06 684.629C1711.25 614.326 1713.32 543.226 1716.24 472.799ZM2331.81 1057.07C2313.88 1051.35 2295.16 1046.58 2276.66 1042.26C2237.58 1032.97 2198.61 1023.19 2159.57 1013.69C2121.06 1004.23 2082.8 993.824 2044.35 984.219C2007.94 975.216 1971.62 966.178 1935.87 954.782C1910.95 947.251 1886.39 938.585 1861.79 930.114C1824.65 918.116 1787.56 905.994 1750.62 893.358C1739.28 889.956 1727.62 887.829 1715.98 885.702C1728.14 893.199 1742.08 898.178 1755.69 902.786C1786.58 913.224 1817.54 923.468 1848.61 933.321C1873.19 941.438 1897.45 950.458 1922.21 958.026C1980.26 976.793 2040.38 989.518 2099.39 1005.48C2150.92 1019.08 2202.76 1031.5 2254.53 1044.19C2279.8 1050.98 2305.69 1055.48 2331.81 1057.07ZM2412.66 466.578C2413.14 409.655 2413.76 352.715 2415.14 295.792C2414.84 278.743 2415.78 260.897 2411.67 244.398C2412.27 258.487 2410.05 272.629 2409.45 286.718C2406.07 356.738 2408.09 426.917 2405.69 496.971C2403.64 572.361 2400.02 647.714 2398.98 723.121C2397.9 780.044 2399.51 836.932 2399.9 893.837C2400.31 931.053 2400.75 968.269 2398.78 1005.45C2396.99 1041.99 2395.91 1078.71 2399.77 1115.17C2403.07 1068.47 2405.94 1021.33 2406.97 974.365C2407.82 899.206 2405.04 824.048 2405.48 748.889C2405.61 654.732 2410.96 560.699 2412.66 466.578ZM2454.06 164.508C2454.02 164.915 2453.97 165.323 2453.93 165.731C2453.06 175.105 2452.67 184.516 2452.34 193.926C2450.85 240.287 2451.34 286.931 2451.98 333.451C2452.76 374.619 2452.11 415.805 2451.93 456.991C2450.62 523.289 2450.44 589.764 2448.62 656.469C2446.88 725.23 2443.92 793.034 2443.71 862.026C2442.57 916.149 2440.13 970.289 2436.78 1024.32C2435.47 1049.9 2434.37 1075.47 2433.32 1101.04C2432.83 1110.27 2431.92 1120.09 2436.28 1128.39C2432.17 1129.98 2428.08 1131.68 2423.91 1133.14C2414.89 1137.51 2403.41 1139.43 2396.19 1146.59C2389.23 1143.89 2381.96 1141.87 2374.88 1139.57C2344.45 1130.25 2313.4 1123.19 2282.95 1113.91C2176.11 1084.67 2069.33 1055.19 1963.39 1022.83C1875.69 997.51 1786.01 978.37 1700.97 944.539C1693.21 941.58 1684.98 937.769 1676.67 938.762C1676.74 938.567 1676.81 938.372 1676.87 938.177C1676.94 937.982 1676.99 937.787 1677.04 937.574C1674.69 940.055 1672.86 942.005 1671.57 943.423C1672.93 941.881 1674.83 939.737 1677.2 936.972C1677.26 936.777 1677.29 936.582 1677.33 936.387C1677.33 936.387 1677.33 936.387 1677.33 936.369C1677.42 935.962 1677.47 935.554 1677.52 935.146C1677.56 934.952 1677.57 934.739 1677.59 934.544C1677.61 934.331 1677.63 934.136 1677.65 933.924C1678.5 931.212 1678.76 928.27 1678.53 925.435C1678.74 899.809 1679.54 874.165 1680.07 848.557C1681.47 797.748 1683.51 746.957 1683.55 696.131C1683.72 645.074 1684.73 594.07 1685.78 543.031C1686.19 492.222 1686.05 441.395 1685.97 390.587C1685.99 378.837 1686.21 367.105 1686.45 355.355C1686.47 354.31 1686.35 353.229 1686.05 352.201C1705.03 348.603 1723.99 345.041 1742.97 341.461C1742.14 360.123 1742.17 378.713 1741.44 397.463C1740.59 436.203 1741.32 476.45 1740.54 515.456C1739.07 588.381 1734.53 661.874 1737.35 734.942C1738.34 770.474 1739.18 806.024 1740.63 841.522C1741 847.299 1741.05 853.112 1742.05 858.836C1742.56 861.866 1743.54 864.791 1744.56 867.697C1741.69 867.786 1738.84 868.051 1736 868.494C1736.3 868.902 1736.82 869.221 1737.24 869.611C1746.71 877.515 1757.87 883.292 1769.71 886.659C1858.14 914.766 1946.57 943.015 2035.98 967.932C2080.57 980.072 2127.21 991.414 2172 1004.19C2205.6 1013.81 2239.5 1022.41 2272.9 1032.78C2294.81 1039.6 2316.85 1047.49 2339.98 1048.39C2341.38 1048.37 2342.99 1048.48 2344.48 1048.3C2345.24 1054.04 2346.43 1059.73 2347.89 1065.33C2360.27 1047.31 2360.84 1024.61 2361.85 1003.46C2362.84 977.803 2362.82 952.106 2363.75 926.445C2365.55 873.084 2369.59 819.794 2371.06 766.398C2372.34 623.648 2370.94 480.88 2370.11 338.13C2369.22 304.104 2370.92 269.705 2366.28 235.91C2366.21 235.626 2366.12 235.378 2366 235.13C2372.11 234.049 2378.17 232.773 2384.14 231.178C2391.92 228.519 2399.12 224.266 2405.34 218.932C2400.98 216.522 2396.05 214.891 2391.09 214.023C2382.89 212.463 2374.54 213.208 2366.44 214.998C2349.14 218.329 2331.81 221.484 2314.41 224.248C2244.81 234.687 2173.2 243.938 2103.41 255.12C1999.76 272.47 1897.17 295.455 1793.88 314.825C1690.83 334.178 1587.78 353.636 1484.8 373.325C1415.91 387.716 1347.15 402.673 1277.86 415.061C1143.62 437.78 1010.97 462.928 876.3 484.442C846.616 489.599 817.163 496.227 788.329 504.964C785.6 506.01 777.82 507.817 773 510.741C772.149 508.438 771.05 506.205 769.686 504.149C769.438 503.848 769.154 503.351 768.729 503.387C768.693 503.405 768.764 503.458 768.764 503.458C768.729 507.41 767.063 511.291 766.921 515.331C766.602 519.354 766.992 523.324 767.205 527.329C768.144 544.98 768.888 562.667 769.136 580.353C770.306 683.903 769.526 787.452 768.498 891.001C765.805 974.596 766.053 1058.28 767.984 1141.89C769.296 1236.97 770.253 1332.08 772.911 1427.13C773.301 1473.91 772.893 1520.72 773.177 1567.5C773.248 1575.69 773.584 1583.88 773.886 1592.06C773.85 1596.07 774.134 1600.45 775.747 1604.1C774.984 1604.34 774.222 1604.59 773.46 1604.82C764.05 1607.77 754.551 1610.39 745.159 1613.35C735.819 1616.13 726.675 1619.51 717.335 1622.23C713.72 1620.29 709.644 1618.89 706.047 1617.03C698.196 1613.47 690.257 1610.09 682.317 1606.74C655.646 1595.52 629.276 1583.56 602.463 1572.66C494.058 1526.76 387.107 1477.46 280.882 1426.72C228.426 1400.77 175.349 1376.02 123.619 1348.62C107.776 1340.18 91.7728 1332.1 75.9295 1323.66C70.8079 1320.47 65.1015 1317.92 59.1824 1317.05C58.7925 1315.39 58.2609 1313.72 58.0836 1312.06C57.2507 1305.5 56.9849 1298.92 56.8786 1292.31C57.1798 1272.16 57.7115 1250.51 57.2507 1230C55.514 1137.41 54.7165 1045.8 52.962 953.01C51.0658 833.334 51.9696 713.144 48.567 593.361C47.805 548.578 48.5316 503.794 48.3012 459.011C47.8759 415.699 46.1214 372.404 45.4834 329.091C45.1467 313.727 44.5974 298.379 43.7822 283.032C43.729 281.349 43.6935 279.647 43.5518 277.964C48.443 279.417 53.3519 280.782 58.314 281.951C102.76 293.719 145.24 308.818 189.544 321.826C218.147 330.173 247.175 337.013 275.991 344.616C318.612 355.728 360.312 370.082 402.738 381.903C445.146 394.202 487.802 405.65 530.282 417.666C584.829 431.046 639.572 443.717 694.421 455.803C694.474 455.927 694.545 456.051 694.598 456.175C695.75 457.7 697.77 457.983 699.436 457.292C703.388 456.477 707.429 456.016 711.416 455.325C725.789 452.613 740.179 450.097 754.675 448.112C866.801 434.431 977.421 411.02 1089.35 395.903C1162.88 386.812 1234.87 369.019 1307.65 355.586C1414.85 335.4 1522.38 317.058 1629.87 298.503C1757.31 275.837 1885.15 255.723 2013.21 236.937C2084.84 226.304 2156.84 217.78 2228.12 204.967C2247.17 201.298 2265.92 196.407 2284.87 192.225C2319.87 184.658 2355.54 180.865 2390.75 174.343C2406.26 171.472 2421.84 169.062 2437.52 167.396C2443.07 166.723 2448.6 165.784 2454.06 164.508Z" fill="#B7B5B5"/>
<path d="M661.565 1479.88C661.388 1485.36 661.21 1490.85 661.033 1496.33C660.785 1504.3 660.59 1512.24 660.289 1520.2C660.041 1522.7 659.917 1525.3 660.041 1527.86C647.937 1518.96 633.104 1514.85 619.724 1508.22C586.371 1492.71 553.302 1478.66 520.482 1461.63C475.964 1439.83 430.72 1419.52 385.548 1399.12C350.139 1383.18 315.174 1366.3 279.801 1350.3C234.983 1330.75 191.44 1309.65 146.905 1289.21C135.9 1283.9 124.966 1278.47 114.067 1272.98C108.325 1270.27 102.955 1266.53 96.5577 1265.57C96.4691 1265.55 96.3628 1265.54 96.2565 1265.54C94.9982 1256.5 95.1577 1246.82 94.8033 1237.61C94.5197 1208.81 92.5881 1180.06 92.0387 1151.28C91.7374 1119.88 91.5602 1088.28 90.621 1056.84C87.9981 989.801 87.3601 922.723 86.2614 855.646C85.6765 809.268 84.6133 762.889 85.2335 716.458C85.7652 598.908 80.6967 481.199 87.7323 363.773C88.0867 357.305 88.4943 350.836 88.9374 344.368C103.948 349.897 119.525 353.388 135.014 357.978C135.493 358.102 135.971 358.244 136.467 358.386C131.328 362.019 131.363 369.356 131.629 375.239C131.718 384.047 131.86 392.855 131.842 401.663C133.543 613.334 137.69 824.969 141.607 1036.6C142.688 1075.43 144.921 1114.24 144.673 1153.09C144.478 1172.59 144.602 1192.08 145.754 1211.54C147.189 1224.51 144.672 1238.88 151.513 1250.54C149.316 1250.61 147.136 1250.95 145.027 1251.55C145.966 1252.97 147.136 1254.3 148.359 1255.59C155.695 1263.62 166.293 1266.99 175.402 1272.52C205.6 1290.08 238.634 1301.8 270.639 1315.53C303.159 1329.69 335.962 1345.96 368.942 1359.55C411.758 1377.15 454.84 1393.49 497.213 1412.22C536.697 1429.27 577.404 1445.56 617.349 1461.84C630.676 1467.12 643.365 1474.6 656.975 1479.14C658.428 1479.44 660.005 1479.72 661.565 1479.88Z" fill="#B7B5B5"/>
</svg>
