<svg width="735" height="988" viewBox="0 0 735 988" fill="none" xmlns="http://www.w3.org/2000/svg">
<g id="Body / Baby Carrier with Hair">
<g id="Clothing 2">
<path d="M617.935 549.64C632.679 600.845 644.836 656.022 631.297 708.769C625.13 728.964 613.38 755.046 597.537 774.762C597.306 774.85 597.076 774.957 596.863 775.116C595.818 775.737 595.268 776.73 595.02 777.811C592.894 780.294 590.696 782.652 588.445 784.868C584.192 786.357 579.797 787.563 575.739 789.549C499.074 828.52 366.267 824.619 285.721 797.9C270.392 793.201 255.204 787.474 240.158 782.332C261.283 795.63 284.144 806.623 308.529 812.35C345.798 821.197 384.184 824.938 422.481 825.204C466.271 825.24 510.966 822.527 552.488 807.545C560.87 804.194 569.66 801.144 577.458 796.517C583.661 794.105 589.385 790.754 594.666 786.677C594.666 788.148 594.701 789.62 594.772 791.074C594.932 804.088 596.828 816.836 599.663 829.407C598.866 829.566 598.104 829.814 597.377 830.204C591.458 834.513 586.531 840.151 580.524 844.442C573.258 849.903 565.62 854.761 557.751 859.353C530.85 874.388 501.201 884.92 470.542 888.661C419.096 895.222 366.639 887.012 317.319 871.995C288.326 862.722 262.063 847.013 235.657 832.243C231.67 830.293 227.523 828.502 223.34 827.013C228.799 809.194 232.042 790.595 232.839 772.013C233.194 772.528 233.548 773.042 233.903 773.538C235.09 775.365 236.455 777.155 238.351 778.29C239.751 779.159 241.488 779.992 243.189 779.868C243.384 779.85 243.703 779.779 243.721 779.531C243.721 779.531 243.721 779.531 243.721 779.513C243.721 779.496 243.685 779.478 243.667 779.478C244.341 771.145 237.89 764.833 234.647 757.634C224.9 738.858 218.928 717.174 217.262 695.933C215.614 673.929 220.381 652.121 223.27 630.419C226.796 609.391 232.839 588.895 236.118 567.813C238.457 551.909 239.414 535.739 238.298 519.693C237.5 503.435 235.958 487.158 231.847 471.378C226.973 453.807 220.93 436.574 215.153 419.269C213.292 400.723 206.522 382.762 198.743 365.883C192.168 351.84 185.806 337.692 178.575 323.968C170.937 310.511 163.388 296.983 155.537 283.65C147.385 270.21 137.709 257.799 128.476 245.104C112.047 222.675 86.5989 193.154 59.5731 184.626C56.1351 183.456 51.2793 182.126 47.3273 181.204C46.707 180.956 46.0514 180.761 45.3779 180.637C46.1931 177.339 47.8058 174.289 50.0919 171.736C65.882 154.821 85.6241 141.807 107.564 134.343C112.366 132.694 117.204 131.222 122.043 129.697C128.405 127.392 134.855 125.779 141.661 126.63C144.549 126.843 147.385 127.162 150.202 127.57C150.256 127.641 150.309 127.694 150.362 127.765C192.398 158.208 226.371 198.243 257.898 239.164C266.245 250.547 274.326 262.16 281.574 274.288C282.974 276.682 284.374 279.27 285.863 281.664C285.633 281.752 285.402 281.859 285.172 281.947C278.331 284.607 270.87 287.267 266.546 293.579C266.511 293.579 265.855 294.997 266.263 294.855C266.351 294.66 266.67 294.607 266.794 294.554C270.658 293.933 274.698 293.916 278.579 292.763C296.266 286.043 314.431 280.671 332.861 276.362C387.391 264.288 444.863 266.15 499.163 278.455C514.191 282.036 528.971 288.596 544.743 287.001C535.741 278.561 523.832 274.838 511.994 271.877C518.391 266.646 523.796 247.32 525.072 242.781C526.49 237.303 527.287 231.735 527.819 226.115C529.999 204.023 527.606 180.938 516.672 161.293C516.513 161.009 516.353 160.725 516.194 160.442C519.366 161.771 522.503 163.296 525.622 164.892C536.131 169.608 542.528 179.324 547.526 189.307C558.46 208.845 563.794 230.405 569.926 251.948C579.283 288.951 584.352 326.858 588.056 364.784C589.58 382.957 590.696 401.184 592.628 419.322C594.276 430.244 596.42 441.077 598.919 451.822C597.838 455.847 598.086 460.208 598.884 464.304C599.522 468.701 600.089 473.098 600.78 477.477C600.762 477.477 600.727 477.477 600.709 477.477C600.727 477.495 600.762 477.513 600.78 477.513C601.081 479.481 601.418 481.449 601.79 483.399C605.955 505.846 611.891 527.761 617.935 549.64Z" fill="#E2E2E2"/>
<path d="M148.2 685.472C145.985 689.16 143.982 693.007 142.21 696.961C134.714 712.493 129.096 728.84 124.222 745.365C123.248 743.556 121.653 742.12 120.323 740.524C115.893 735.542 111.463 730.56 107.014 725.578C97.799 714.62 89.1153 703.202 80.9633 691.394C80.7152 690.011 79.9 688.752 78.7127 688.096C75.9126 683.965 73.1835 679.798 70.543 675.578C69.0898 672.759 66.52 670.135 66.2365 666.89C65.7225 658.238 67.5302 649.603 70.1353 641.394C71.6594 636.767 73.2012 632.121 75.2569 627.724C76.0367 626.182 76.9582 624.533 78.5886 623.806C87.928 627.689 93.5635 636.767 99.8371 644.249C105.845 651.483 112.154 658.469 118.888 665.029C125.853 671.199 132.144 678.521 140.597 682.688C143.061 683.876 145.595 684.816 148.2 685.472Z" fill="#E2E2E2"/>
</g>
<g id="Clothing 1">
<path d="M307.572 131.718C307.094 132.073 306.633 132.41 306.172 132.782C295.769 141.576 286.465 152.534 281.787 165.477C277.285 179.377 274.911 195.157 278.26 209.537C278.349 209.82 278.437 210.086 278.526 210.352C278.012 210.955 277.675 211.7 277.604 212.533C277.374 216.239 277.693 219.98 278.296 223.686C278.562 231.983 277.037 240.246 276.701 248.543C263.551 230.015 249.09 212.462 234.399 195.122C215.791 173.651 196.173 152.658 173.772 135.123C175.119 134.75 176.466 134.307 177.813 134.077C193.16 130.318 207.586 123.084 220.771 114.502C227.257 110.229 233.69 105.903 239.538 100.779C240.424 100.141 241.31 99.3782 242.125 98.5449C242.586 99.0946 243.047 99.6443 243.525 100.176C244.305 101.878 245.581 103.332 247.229 104.166C249.888 106.825 252.759 109.289 255.913 111.399C271.615 121.63 289.425 127.64 307.572 131.718Z" fill="white"/>
<path d="M226.849 524.445C226.938 535.473 226.814 545.349 225.928 556.625C222.614 586.341 213.7 615.135 210.297 644.834C204.077 644.905 195.907 647.281 192.008 648.309C174.127 654.444 160.056 666.997 150.007 682.564C148.838 680.312 147.438 678.149 145.931 676.128C143.131 672.28 139.481 669.213 135.848 666.181C126.225 657.83 117.098 648.912 108.627 639.373C105.295 635.756 102.07 631.589 98.5786 627.689C99.3761 626.713 99.9078 625.454 100.085 623.93C99.2344 592.494 98.685 560.952 95.7432 529.587C93.8469 506.076 92.128 482.548 90.3735 459.02C88.7963 440.971 88.1937 422.726 85.0924 404.872C83.9582 399.021 80.8568 393.648 79.634 387.886C79.1732 389.021 78.7834 390.191 78.4467 391.379L30.5624 235.671L27.4787 225.725L24.8382 217.267L24.2002 215.21C33.132 211.771 38.289 202.64 44.8638 196.079C46.2993 194.466 47.8411 192.959 49.3297 191.381C55.4438 192.764 61.4338 194.732 67.087 197.498C94.6976 213.225 113.837 239.59 132.215 264.926C141.288 277.621 149.529 290.866 157.025 304.553C165.638 319.128 173.489 333.933 180.79 349.234C174.765 358.223 168.598 367.532 162.625 376.681C150.255 397.07 139.108 423.169 140.597 447.389C142.6 469.587 157.911 500.048 180.843 506.165C194.631 508.133 210.403 500.917 222.454 494.676C223.128 494.197 223.783 493.612 224.404 492.974C225.768 503.364 226.459 513.878 226.849 524.445Z" fill="white"/>
<path d="M122.539 751.198C121.458 754.992 120.412 758.804 119.366 762.599C111.161 791.659 105.153 821.268 100.032 851.02C96.9482 866.126 96.8065 881.339 97.1786 896.64C97.1255 896.693 97.0724 896.746 97.0192 896.799C96.5053 897.243 95.9204 897.739 95.3533 898.253C94.2546 899.14 92.9962 899.955 91.7203 900.7C89.5582 901.374 87.3253 902.899 85.5354 903.626C80.9454 905.771 76.2669 907.668 71.5175 909.388C71.5175 908.572 71.4997 907.739 71.5175 906.923C71.8187 902.775 72.1377 898.608 72.4921 894.459C77.7201 879.193 81.8138 863.342 83.6391 847.35C84.9505 834.406 82.7886 821.375 79.1733 808.963C74.1403 793.432 68.9123 777.811 68.3452 761.34C67.1401 741.641 74.4238 723.184 78.8188 704.248C90.4975 719.993 103.399 734.78 117.452 748.485C118.675 749.762 120.66 751.056 122.539 751.198Z" fill="white"/>
<path d="M599.468 838.679C598.866 840.754 598.742 843.076 598.281 845.115C596.225 857.243 595.676 869.512 595.392 881.782C595.304 883.697 595.25 885.629 595.268 887.544C592.273 889.885 590.023 893.342 587.471 896.126C573.027 908.625 554.685 915.93 536.414 921.303C503.965 932.419 470.152 938.554 436.303 943.696H436.286C436.25 943.696 436.215 943.714 436.197 943.714C397.67 948.962 358.912 953.395 319.977 952.278C268.23 951.178 216.836 944.21 165.355 939.494C166.843 937.313 168.172 935.008 169.413 932.774C174.942 923.218 180.17 913.43 185.876 903.927C198.459 883.378 210.368 862.296 219.034 839.743C220.239 836.552 221.356 833.325 222.401 830.062C226.548 834.584 231.138 838.715 235.994 842.42C245.865 849.247 256.569 854.832 267.095 860.558C308.582 883.98 356.219 893.076 403.075 898.235C450.392 902.544 499.127 896.126 542.351 875.825C562.979 866.286 582.987 854.513 599.468 838.679Z" fill="white"/>
</g>
<path id="Skin Adult" d="M417.093 28.9713L418.228 30.3365C413.159 31.9855 413.921 43.723 412.787 48.0846C410.093 64.4142 408.676 81.329 412.45 97.6231C412.628 98.9884 412.911 100.424 413.354 101.825C389.075 101.896 364.406 107.197 342.236 114.609C334.598 117.251 327.031 120.229 319.889 123.988C314.803 121.524 308.671 121.648 303.018 119.91C287.21 116.009 271.296 110.371 257.916 100.885C262.134 95.8146 264.314 87.1622 266.334 82.1622C272.714 60.5312 276.152 37.7478 274.273 15.2125C274.096 13.5636 273.813 11.9148 273.44 10.3013C272.997 8.58147 272.076 7.3403 270.942 6.59563L271.296 6.40062L271.739 6.17012L272.235 5.92187L272.785 5.67361L273.387 5.42547L274.043 5.15947L274.769 4.89348L275.532 4.62759L276.347 4.34384L277.18 4.0602L278.066 3.79421L278.987 3.51057L279.962 3.22693L280.972 2.96093L282 2.69493L283.046 2.44679L284.127 2.19854L285.261 1.96804L286.448 1.73754L287.689 1.52478L288.965 1.31203L290.276 1.11702L291.623 0.957398L293.005 0.797778L294.423 0.656013L295.841 0.531888L297.258 0.42551L298.676 0.33688L300.058 0.248142L301.459 0.17726L302.841 0.106378L304.223 0.0531347L305.588 0.0176394L306.952 0H308.317L309.717 0.0176394L311.152 0.0531347L312.623 0.106378L314.13 0.17726L315.671 0.26589L317.249 0.372267L318.879 0.478645L320.58 0.620518L322.299 0.762391L324.036 0.921903L325.773 1.09927L327.51 1.29428L329.264 1.50703L331.036 1.75528L332.791 2.00353L334.51 2.25168L336.211 2.51767L337.912 2.78367L339.614 3.06731L341.315 3.3687L342.999 3.68783L344.647 4.00696L346.295 4.34384L347.907 4.68072L349.52 5.0176L351.133 5.37223L352.746 5.72686L354.323 6.08149L355.882 6.43611L357.424 6.79063L358.966 7.14526L360.49 7.51764L361.996 7.87227L363.449 8.22678L364.885 8.58141L366.285 8.93604L367.667 9.29067L369.032 9.6453L370.361 9.99982L371.655 10.3544L372.913 10.7091L374.153 11.0637L375.394 11.4183L376.617 11.7906L377.822 12.163L379.009 12.5353L380.179 12.9076L381.331 13.28L382.483 13.6523L383.635 14.0246L384.769 14.4148L385.868 14.8048L386.949 15.1949L388.03 15.6027L389.093 16.0104L390.156 16.4359L391.202 16.8438L392.23 17.2693L393.24 17.6771L394.25 18.0848L395.26 18.5105L396.253 18.9182L397.227 19.326L398.167 19.7339L399.088 20.1416L400.01 20.5316L400.913 20.9218L401.817 21.3118L402.703 21.7019L403.572 22.0742L404.405 22.4465L405.202 22.8012L405.946 23.138L406.638 23.4572L407.293 23.7586L407.931 24.0601L408.551 24.3614L409.154 24.6628L409.757 24.9642L410.341 25.2657L410.909 25.5671L411.458 25.8685L411.99 26.1522L412.503 26.4359L412.982 26.7019L413.443 26.95L413.886 27.1982L414.311 27.4287L414.719 27.6415L415.091 27.8365L415.445 28.0316L415.782 28.2089L416.101 28.3685L416.385 28.528L416.65 28.6699L416.881 28.794L417.093 28.9713Z" fill="#B7B5B5"/>
<g id="Skin Baby">
<path d="M318.949 232.657C313.243 233.934 307.341 236.487 301.298 235.317C298.463 234.342 295.68 233.012 293.678 236.257C291.356 240.53 296.442 243.437 300.093 243.881C308.263 245.866 315.6 239.678 318.949 232.657ZM429.161 223.757C421.86 222.551 415.214 228.544 414.062 235.565C413.654 237.693 413.53 240.264 415.551 241.593C417.73 243.207 420.938 241.505 421.133 238.881C421.115 236.132 420.832 233.313 422.108 230.725C423.348 227.462 426.308 225.37 429.161 223.757ZM517.983 213.207C518.302 228.313 516.388 243.455 510.876 257.604C509.813 260.139 508.75 262.639 507.332 264.98C506.269 266.522 505.294 268.49 505.489 270.387C505.081 270.299 504.656 270.192 504.231 270.086C484.17 265.866 463.719 262.817 443.161 261.203C445.306 259.572 447.273 257.657 448.974 255.742C460.919 243.987 461.592 220.601 446.085 211.611C437.029 206.204 419.822 209.058 413.211 217.143C411.368 220.654 415.054 222.338 417.979 221.381C421.363 219.874 424.766 218.42 428.381 217.551C437.083 215.264 446.457 219.04 447.609 228.739C448.69 233.969 448.052 239.998 445.288 244.661C441.336 251.221 433.698 254.466 429.126 260.334C423.969 260.086 418.811 259.944 413.654 259.909C421.31 257.622 430.685 258.118 435.009 250.565C436.994 247.462 437.419 241.363 432.617 241.168C430.543 241.132 428.948 243.154 428.682 245.104C428.08 249.022 423.791 249.466 420.743 250.654C416.189 252.533 410.837 255.37 408.515 259.909C376.332 260.033 344.238 264.004 313.243 272.852C307.412 274.43 301.599 276.132 295.875 278.065C292.951 272.745 289.566 267.692 286.323 262.586C284.108 259.182 281.822 255.813 279.5 252.462C287.156 244.288 289.956 231.859 286.819 221.062C286.536 220.459 286.164 219.962 285.738 219.555C287.635 212.551 287.457 205.14 287.103 197.924C285.561 161.913 310.832 137.782 343.334 127.534C378.246 114.822 421.594 108.864 457.073 122.233C473.98 128.563 486.845 141.949 498.205 155.495C511.319 171.7 517.788 192.463 517.983 213.207Z" fill="#949494"/>
<path d="M717.336 935.31C723.698 940.469 729.599 949.104 721.518 955.7C714.163 961.302 704.469 962.189 695.715 964.263C688.112 965.593 680.598 968.412 672.801 968.058C655.628 966.302 647.706 958.377 641.468 942.757C640.937 941.427 639.927 940.7 638.846 940.505C636.152 919.494 628.921 899.051 622.719 878.821C614.07 849.584 604.749 820.098 603.225 789.442C602.906 786.127 602.977 782.794 602.87 779.496C618.465 763.999 629.417 742.386 636.559 722.936C641.628 710.241 643.56 696.748 644.818 683.202C646.058 685.667 647.866 687.848 649.886 689.834C656.213 697.227 662.309 704.958 666.616 713.752C672.783 726.854 673.828 741.624 675.813 755.79C678.153 769.975 679.18 783.414 680.368 797.953C681.147 816.002 680.297 834.123 679.588 852.172C679.889 864.69 676.77 877.846 680.261 889.938C680.332 895.044 681.236 900.133 683.256 904.814C686.907 913.218 693.943 919.707 701.581 924.547C707.075 927.774 712.799 930.718 717.336 935.31Z" fill="#949494"/>
<path d="M227.699 764.159C225.98 766.659 225.165 769.673 225.059 772.794C222.064 795.205 217.562 817.563 209.145 838.644C203.137 853.449 195.463 867.491 187.559 881.357C180.506 893.555 173.275 905.629 166.027 917.721C160.02 928.572 149.635 938.43 150.184 951.657C153.392 950.841 156.156 949.263 158.566 947.242C158.602 947.26 158.637 947.278 158.673 947.295C155.908 950.132 153.126 953.217 150.397 956.161C139.303 968.022 123.973 979.972 106.766 978.714C98.9148 977.916 91.5248 974.866 83.7626 973.554C75.2207 971.941 66.4662 971.905 57.8002 971.941C44.881 971.87 30.9516 971.816 19.6983 964.618C9.63228 957.171 3.7131 943.661 16.1715 935.274C21.4881 931.941 27.9743 931.604 33.8934 929.884C52.519 924.707 71.4814 919.618 88.7602 910.736C90.302 909.814 92.3932 908.927 94.0945 907.739C95.335 907.225 96.5578 906.551 97.4262 905.594C97.4793 907.296 97.5324 908.998 97.5856 910.7C103.965 888.307 107.652 864.867 111.958 841.906C117.647 807.545 126.26 773.786 136.272 740.453C146.923 707.298 160.569 667.6 196.97 655.827C201.046 654.763 205.21 653.681 209.41 653.291C208.276 663.149 207.018 673.007 206.787 682.936C206.752 693.575 208.365 704.195 210.155 714.656C213.079 729.301 217.421 743.574 223.818 757.12C224.97 759.531 226.299 761.872 227.699 764.159Z" fill="#949494"/>
<path d="M221.16 475.013C222.117 479.18 222.897 483.364 223.57 487.548C219.264 487.637 215.241 490.048 211.218 491.626C206.823 493.311 202.056 494.835 197.182 496.059C192.22 497.14 185.557 499.055 180.435 496.662C163.706 488.825 155.004 465.403 152.151 448.205C150.025 430.616 156.812 413.702 162.217 397.301C164.875 389.429 167.888 381.61 171.078 373.968C174.498 365.847 177.795 357.656 180.825 349.376C181.268 350.316 181.711 351.238 182.154 352.177C188.073 365.386 194.17 378.507 200.23 391.645C197.484 393.79 195.711 397.23 193.62 399.961C187.134 409.748 181.747 420.333 178.131 431.52C186.514 420.794 194.932 409.73 203.651 399.092C206.912 406.184 210.119 413.294 213.291 420.439C215.17 438.666 217.438 457.052 221.16 475.013Z" fill="#949494"/>
<path d="M655.486 422.85C656.638 432.815 654.724 442.868 652.669 452.602C650.542 460.456 647.901 469.694 639.608 472.974C629.79 476.91 619.387 477.743 608.949 477.726C607.584 470.119 607.017 461.786 604.182 454.8C603.65 429.978 600.389 405.12 597.731 380.351C598.865 381.007 599.982 381.663 601.027 382.283C608.86 387.195 616.321 392.709 623.534 398.489C628.266 402.389 633.157 407.496 639.501 408.79C639.501 408.808 639.501 408.808 639.519 408.808C639.767 403.702 635.585 399.34 631.775 396.326C625.324 390.883 618.643 385.688 611.873 380.652C607.23 377.301 602.551 373.968 597.802 370.776C597.447 370.493 597.075 370.209 596.668 369.979C596.579 369.039 596.49 368.117 596.402 367.195C595.179 356.362 593.938 345.511 592.556 334.66L599.149 339.979C600.885 343.454 602.498 347.124 604.837 350.262C610.455 358.028 618.058 364.074 624.42 371.184C633.405 381.379 641.699 392.266 648.823 403.826C652.226 409.712 654.512 416.166 655.486 422.85Z" fill="#949494"/>
<path d="M459.111 255.831C458.331 253.437 459.713 251.398 460.617 249.288C461.61 246.132 462.124 242.835 462.46 239.537C462.815 232.959 462.23 226.363 462.567 219.803C462.903 216.682 466.838 214.998 469.319 216.877C474.281 217.462 473.412 223.721 473.784 227.391C473.767 229.856 474.795 232.515 473.731 234.838C473.519 239.749 477.24 249.217 470.027 250.317C469.655 251.859 469.088 253.366 468.362 254.785C468.627 260.831 460.475 261.611 459.111 255.831Z" fill="#949494"/>
<path d="M488.157 265.423C486.615 264.714 484.967 264.199 483.496 263.313C482.964 262.994 482.486 262.639 482.043 262.231C476.425 264.536 472.455 258.508 474.476 253.455C476.088 249.519 476.974 245.37 477.949 241.221C479.686 235.405 478.871 222.196 486.332 221.008C489.965 220.494 492.959 223.81 492.463 227.391C491.116 234.909 488.547 242.178 487.909 249.838C487.643 253.295 487.909 254.749 491.382 255.919C490.585 253.455 491.896 250.919 492.392 248.526C493.509 243.65 495.387 239.04 497.904 234.732C501.59 226.983 501.608 217.888 500.101 209.572C497.975 208.455 497.177 205.813 496.025 203.828C492.57 197.143 490.142 189.998 487.04 183.154C485.233 178.704 480.2 171.133 486.987 168.562C484.825 165.477 481.901 163.048 479.101 160.566C476.443 159.945 474.972 157.534 473.324 155.601C472.491 154.307 472.686 152.463 473.607 151.275C475.592 148.669 478.871 149.981 480.873 151.825C483.886 153.988 486.845 156.275 489.592 158.775C498.17 166.47 501.2 178.119 503.841 188.917C506.924 197.64 509.512 206.718 510.114 215.991C512.843 217.25 513.464 220.494 513.074 223.207C514.066 229.058 513.375 235.299 510.699 240.636C509.104 248.189 506.853 255.778 501.218 261.292C502.582 265.494 498.506 268.579 494.554 268.224C492.109 268.206 490.195 266.54 488.157 265.423Z" fill="#949494"/>
<path d="M308.44 169.165L300.004 162.445L298.002 159.254C298.923 158.119 300.323 157.392 301.67 156.789C302.716 156.328 303.815 155.974 304.896 155.584C305.906 155.229 306.916 154.874 307.926 154.52C307.891 154.537 307.855 154.537 307.82 154.555C307.908 154.52 307.997 154.484 308.103 154.467C308.263 154.413 308.405 154.36 308.564 154.307C308.475 154.342 308.369 154.378 308.28 154.413C308.706 154.254 309.149 154.112 309.574 153.952C309.556 153.952 309.539 153.97 309.503 153.97C314.979 152.073 320.508 150.442 326.091 148.917C331.62 147.41 337.238 146.257 342.856 145.176C345.532 144.662 348.208 144.254 350.901 143.828C351.911 143.669 352.939 143.562 353.95 143.438C355.296 143.279 356.661 143.048 358.026 142.96C357.972 142.96 357.919 142.96 357.866 142.977C360.56 142.782 363.254 142.552 365.947 142.534C367.294 142.534 368.659 142.445 370.006 142.534C371.53 142.623 373.071 142.711 374.595 142.8C376.031 142.889 377.466 143.084 378.902 143.243C380.213 143.367 381.507 143.598 382.801 143.775C383.084 143.811 383.386 143.864 383.669 143.899C383.793 143.757 383.917 143.633 384.041 143.491C384.431 143.03 384.803 142.552 385.158 142.073C385.317 141.825 385.459 141.577 385.601 141.311C385.707 141.08 385.813 140.832 385.884 140.584C385.884 140.619 385.867 140.637 385.867 140.672C385.849 140.726 385.831 140.761 385.813 140.814C385.796 140.85 385.796 140.885 385.778 140.903C385.796 140.832 385.813 140.779 385.831 140.708C385.831 140.672 385.831 140.637 385.849 140.601C385.849 140.548 385.849 140.495 385.849 140.424C385.849 140.406 385.849 140.389 385.849 140.371C385.831 140.353 385.831 140.335 385.813 140.318C385.778 140.282 385.743 140.229 385.725 140.194C385.689 140.158 385.654 140.123 385.618 140.087C385.565 140.034 385.494 139.999 385.441 139.945C385.37 139.91 385.317 139.874 385.246 139.821C384.98 139.697 384.715 139.591 384.431 139.484C384.077 139.378 383.722 139.272 383.368 139.201C382.517 139.059 381.684 138.952 380.816 138.882C379.097 138.793 377.36 138.828 375.641 138.935C375.659 138.935 375.694 138.935 375.712 138.935C372.575 139.165 369.456 139.573 366.337 140.034C363.626 140.442 360.896 140.85 358.203 141.328C352.939 142.233 347.676 143.119 342.43 144.077C343.405 144.218 344.38 144.343 345.372 144.467C345.408 144.467 345.39 144.502 345.372 144.502C344.486 144.555 343.618 144.608 342.732 144.662C341.987 144.697 341.208 144.804 340.499 144.609C340.251 144.538 340.073 144.254 340.144 144.006C340.357 143.332 341.101 143.172 341.704 142.942C342.289 142.694 342.909 142.499 343.511 142.286C344.77 141.843 346.063 141.435 347.339 141.027C349.891 140.211 352.443 139.414 354.995 138.633C357.689 137.818 360.4 136.984 363.147 136.293C364.742 135.885 366.337 135.495 367.932 135.105C369.421 134.733 370.945 134.502 372.433 134.201C375.482 133.598 378.618 133.279 381.737 133.421C383.474 133.492 385.175 133.775 386.806 134.378C388.294 134.928 389.801 135.956 390.598 137.392C391.378 138.757 391.679 140.371 391.254 141.913C390.917 143.137 390.332 144.201 389.606 145.211C390.35 145.424 391.112 145.672 391.839 145.956C393.168 146.47 394.603 147.179 395.631 148.208C395.649 148.225 395.631 148.261 395.596 148.243C395.454 148.119 395.312 148.03 395.153 147.924C394.905 147.764 394.639 147.623 394.373 147.499C393.93 147.286 393.487 147.108 393.026 146.931C393.026 146.931 393.044 146.931 393.044 146.949C392.176 146.648 391.307 146.417 390.403 146.222C390.421 146.222 390.439 146.222 390.457 146.24C389.996 146.151 389.517 146.062 389.039 145.991C388.879 146.204 388.702 146.399 388.525 146.594C387.355 147.96 385.991 149.218 384.626 150.389C384.006 150.921 383.386 151.435 382.783 151.967C382.216 152.445 381.596 152.871 381.011 153.314C380.568 153.651 380.089 153.988 379.611 154.289C378.973 154.715 378.335 155.176 377.661 155.548C376.368 156.275 375.092 156.984 373.745 157.622C372.433 158.243 371.104 158.775 369.757 159.307C368.889 159.662 367.968 159.91 367.081 160.193C366.266 160.459 365.416 160.672 364.583 160.903C362.988 161.346 361.34 161.7 359.709 162.037C359.745 162.037 359.798 162.02 359.833 162.002C359.514 162.073 359.195 162.144 358.876 162.197C358.947 162.179 359.036 162.161 359.107 162.144C358.575 162.25 358.061 162.357 357.547 162.463C357.582 162.463 357.618 162.445 357.653 162.445C357.6 162.463 357.529 162.463 357.476 162.481C357.494 162.481 357.512 162.481 357.529 162.463C357.494 162.463 357.441 162.481 357.405 162.481C357.388 162.481 357.37 162.481 357.352 162.498C354.8 163.013 352.213 163.438 349.661 163.917C346.932 164.413 344.22 164.927 341.509 165.459C335.891 166.576 330.273 167.747 324.602 168.491C323.486 168.633 322.387 168.793 321.271 168.934C318.86 169.254 316.415 169.36 313.987 169.395C313.703 169.395 313.402 169.395 313.118 169.395C311.506 169.413 309.964 169.342 308.44 169.165ZM318.346 164.325C318.311 164.325 318.276 164.325 318.24 164.342C326.002 163.793 333.623 162.25 341.243 160.743C346.258 159.697 351.309 158.74 356.342 157.764C358.362 157.321 360.365 156.86 362.367 156.364C364.281 155.885 366.142 155.229 368.003 154.591C367.897 154.626 367.79 154.662 367.684 154.697C368.552 154.342 369.421 153.988 370.289 153.615C371.157 153.261 371.99 152.8 372.823 152.374C372.735 152.428 372.628 152.463 372.522 152.516C373.337 152.037 374.17 151.576 374.985 151.116C375.818 150.637 376.598 150.034 377.396 149.502C377.307 149.573 377.201 149.626 377.112 149.697C377.892 149.094 378.672 148.491 379.434 147.889C380.16 147.339 380.834 146.683 381.525 146.062C381.472 146.116 381.418 146.151 381.365 146.204C381.666 145.903 381.986 145.601 382.287 145.3C380.213 145.211 378.14 145.158 376.066 145.123C373.993 145.087 371.919 145.176 369.828 145.211C368.198 145.353 366.55 145.477 364.919 145.584C363.395 145.708 361.871 145.956 360.347 146.151C359.089 146.311 357.848 146.488 356.59 146.701C354.977 146.984 353.329 147.215 351.734 147.534C351.752 147.534 351.77 147.534 351.787 147.516C351.752 147.516 351.734 147.534 351.699 147.534H351.681C351.681 147.534 351.681 147.534 351.699 147.534C351.575 147.569 351.433 147.587 351.309 147.605H351.327C351.274 147.623 351.22 147.623 351.167 147.64C351.132 147.64 351.114 147.658 351.079 147.658H351.096C349.147 148.048 347.215 148.438 345.266 148.828C342.873 149.396 340.446 149.874 338.053 150.442C335.182 151.133 332.311 151.825 329.44 152.569C324.407 153.864 319.427 155.371 314.483 157.037C312.711 157.676 310.939 158.35 309.167 159.023C307.306 159.732 305.463 160.477 303.655 161.346C303.23 161.559 302.822 161.789 302.432 162.055C302.432 162.055 302.432 162.055 302.414 162.055C302.485 162.126 302.574 162.179 302.645 162.232C302.875 162.374 303.106 162.516 303.354 162.64C303.779 162.835 304.204 163.013 304.647 163.19C305.534 163.491 306.42 163.722 307.323 163.917C308.582 164.147 309.858 164.307 311.134 164.395C313.597 164.52 315.972 164.466 318.346 164.325Z" fill="#949494"/>
<path d="M359.655 162.037C359.585 162.055 359.514 162.073 359.461 162.073C359.514 162.055 359.585 162.037 359.655 162.037Z" fill="#949494"/>
<path d="M351.202 147.64C351.255 147.623 351.291 147.623 351.344 147.605C351.273 147.623 351.202 147.64 351.149 147.64C351.149 147.64 351.185 147.64 351.202 147.64Z" fill="#949494"/>
<path d="M466.146 263.49L457.179 206.026L424.695 204.484L384.856 210.299L322.617 180.441L300.004 162.427L297.966 159.201V159.183L297.984 159.147V159.112L298.019 159.041L298.037 159.006L298.055 158.97L298.073 158.935L298.09 158.899L298.126 158.828L298.144 158.793L298.161 158.757L298.179 158.722L298.197 158.686L298.232 158.615L298.25 158.58L298.268 158.545L298.285 158.509L298.303 158.474L298.338 158.403L298.356 158.367L298.374 158.332L298.392 158.296L298.409 158.261L298.427 158.225L298.463 158.154L298.48 158.119L298.498 158.084L298.516 158.048L298.533 158.013L298.569 157.942L298.604 157.906L298.622 157.871L298.657 157.835L298.693 157.8L298.728 157.764L298.764 157.711L298.799 157.676L298.835 157.623L298.87 157.587L299.047 157.321L299.083 157.268L299.26 157.002L299.295 156.949L299.331 156.896L299.366 156.86L299.437 156.754L299.473 156.718L299.579 156.559L299.632 156.506L299.668 156.452L299.721 156.399L299.774 156.328L299.933 156.115L299.987 156.044L300.199 155.761L300.252 155.69L300.306 155.619L300.359 155.566L300.412 155.495L300.465 155.442L300.518 155.388L300.571 155.335L300.625 155.282L300.678 155.229L300.731 155.176L300.784 155.123L300.837 155.069L300.89 155.016L300.944 154.963L300.997 154.91L301.05 154.857L301.103 154.803L301.139 154.768L301.174 154.715L301.209 154.679L301.245 154.644L301.28 154.608L301.316 154.573L301.351 154.537L301.387 154.502L301.422 154.467L301.458 154.431L301.493 154.396L301.528 154.36L301.564 154.325L301.599 154.307L301.635 154.271L301.652 154.254L301.706 154.201L301.723 154.183L301.741 154.165L301.759 154.147H301.776L301.794 154.13L399.105 123.669C399.814 123.545 400.505 123.421 401.214 123.297L452.784 160.708C451.349 164.289 449.222 167.622 446.546 170.442C452.093 169.786 457.64 169.041 463.187 168.261L507.403 200.335L507.421 200.494L510.026 244.607L503.079 262.48L491.471 267.231L466.146 263.49Z" fill="#949494"/>
</g>
<g id="Outline">
<path d="M215.595 425.758C204.821 401.06 193.142 376.769 182.137 352.177C174.463 335.83 166.152 320.05 156.972 304.553C149.493 290.866 141.235 277.621 132.161 264.926C113.784 239.59 94.644 213.225 67.0334 197.498C60.7953 194.448 54.1674 192.356 47.3799 190.973C45.909 190.743 44.4381 190.423 42.9495 190.565C40.2026 190.707 37.8633 188.225 37.8456 185.565C38.0228 180.353 43.2861 179.714 47.309 181.292C51.2609 182.197 56.1168 183.544 59.5548 184.714C86.5806 193.225 112.029 222.746 128.457 245.192C137.69 257.887 147.366 270.299 155.518 283.738C163.387 297.071 170.919 310.6 178.557 324.057C185.787 337.762 192.149 351.929 198.724 365.971C207.426 384.748 214.833 404.943 215.595 425.758Z" fill="black"/>
<path d="M39.1569 188.952C36.7999 187.569 37.0835 184.714 37.2607 182.356C37.6328 175.601 41 169.36 45.6608 164.555C57.1091 152.64 69.9042 141.913 84.7374 134.449C96.2034 128.243 107.528 124.502 119.561 120.761C124.222 119.449 128.705 117.073 133.614 116.931C140.03 116.789 146.835 116.488 152.683 119.609C157.361 121.914 161.26 125.814 163.919 130.194C156.475 128.58 149.209 127.233 141.66 126.683C134.855 125.832 128.404 127.445 122.042 129.75C117.204 131.275 112.366 132.747 107.563 134.396C85.6412 141.86 65.8991 154.892 50.0913 171.789C46.9191 175.317 45.0406 179.839 44.7925 184.573C45.2887 187.64 42.0633 190.707 39.1569 188.952Z" fill="black"/>
<path d="M291.214 286.256C288.592 286.079 286.979 284.199 285.987 281.93C284.445 279.483 283.027 276.806 281.574 274.359C274.326 262.231 266.244 250.618 257.897 239.235C226.37 198.314 192.415 158.278 150.361 127.835C143.999 120.974 151.212 118.492 156.972 122.977C186.585 142.498 211.307 168.456 234.416 195.14C252.758 216.806 270.746 238.792 286.27 262.586C289.584 267.781 293.022 272.94 295.982 278.348C298.126 281.699 295.255 286.664 291.214 286.256Z" fill="black"/>
<path d="M266.546 293.649C270.87 287.337 278.348 284.678 285.171 282.018C294.28 278.277 303.708 275.405 313.207 272.834C375.18 255.157 441.531 256.912 504.213 270.086C518.461 273.508 533.773 276.788 544.76 287.089C528.988 288.685 514.208 282.107 499.18 278.543C444.863 266.238 387.391 264.359 332.878 276.433C314.448 280.759 296.283 286.114 278.596 292.834C274.698 293.986 270.675 294.004 266.811 294.625C266.67 294.696 266.351 294.749 266.28 294.926C265.854 295.086 266.51 293.649 266.546 293.649Z" fill="black"/>
<path d="M276.771 254.997C276.133 244.288 278.774 233.685 278.313 223.029C278.437 218.118 284.622 216.487 286.802 221.044C290.275 233.029 286.43 247.054 276.771 254.997Z" fill="black"/>
<path d="M505.932 271.983C504.727 269.625 505.95 266.965 507.314 264.979C508.732 262.639 509.795 260.139 510.859 257.604C516.388 243.455 518.284 228.331 517.965 213.207C517.788 192.463 511.302 171.7 498.17 155.495C486.81 141.931 473.926 128.562 457.02 122.215C421.558 108.846 378.211 114.804 343.299 127.516C310.815 137.764 285.526 161.895 287.068 197.906C287.475 205.955 287.635 214.271 284.959 221.983C281.981 218.455 279.678 213.987 278.278 209.519C274.928 195.14 277.303 179.378 281.804 165.459C286.483 152.516 295.787 141.559 306.189 132.747C316.911 124.36 329.476 119.006 342.236 114.591C382.376 101.151 430.685 94.6799 470.063 113.58C489.327 124.449 506.003 142.055 516.689 161.363C527.624 181.009 530.016 204.094 527.836 226.186C527.305 231.788 526.489 237.391 525.089 242.852C523.424 248.809 514.704 279.944 505.932 271.983Z" fill="black"/>
<path d="M279.943 231.629C278.508 225.405 277.232 218.934 277.639 212.516C277.923 209.555 281.414 207.817 283.966 209.324C289.673 213.189 283.417 227.533 279.943 231.629Z" fill="black"/>
<path d="M300.111 243.88C296.46 243.437 291.374 240.529 293.678 236.256C295.68 233.012 298.48 234.341 301.298 235.317C307.323 236.487 313.225 233.934 318.949 232.657C315.617 239.678 308.28 245.866 300.111 243.88Z" fill="black"/>
<path d="M426.397 265.174C429.728 255.848 440.361 252.816 445.27 244.661C448.035 239.997 448.673 233.969 447.592 228.739C446.44 219.04 437.065 215.264 428.364 217.551C424.748 218.42 421.346 219.874 417.961 221.381C415.037 222.338 411.351 220.654 413.194 217.143C419.822 209.076 437.03 206.203 446.068 211.611C461.592 220.6 460.901 243.987 448.956 255.742C443.427 262.001 435.151 268.082 426.397 265.174Z" fill="black"/>
<path d="M415.533 241.593C413.513 240.263 413.637 237.675 414.044 235.565C415.196 228.544 421.824 222.551 429.143 223.756C426.29 225.37 423.331 227.444 422.09 230.707C420.814 233.295 421.098 236.114 421.115 238.863C420.92 241.522 417.731 243.207 415.533 241.593Z" fill="black"/>
<path d="M407.47 262.941C408.568 256.575 415.232 252.887 420.725 250.636C423.756 249.448 428.062 249.005 428.665 245.086C428.931 243.118 430.526 241.115 432.599 241.132C437.402 241.327 436.976 247.444 434.992 250.547C429.374 260.352 415.303 256.611 407.47 262.941Z" fill="black"/>
<path d="M592.645 419.411C590.713 401.272 589.615 383.063 588.073 364.872C584.369 326.947 579.3 289.039 569.943 252.036C563.794 230.512 558.46 208.952 547.543 189.395C542.545 179.431 536.148 169.697 525.639 164.981C521.403 162.8 517.079 160.761 512.737 159.13C509.778 158.403 506.074 156.488 507.793 152.853C509.388 150.247 512.737 150.991 515.13 151.931C521.049 153.74 526.684 156.435 532.16 159.342C542.173 164.165 548.854 173.296 553.427 183.172C553.551 183.385 553.675 183.58 553.799 183.792L563.705 204.785H563.741C567.196 213.81 569.979 223.101 572.708 232.373C585.68 276.256 591.369 321.858 596.455 367.212C599.716 402.052 605.422 437.123 604.129 472.087C599.308 454.747 595.321 437.176 592.645 419.411Z" fill="black"/>
<path d="M550.414 186.115C551.654 184.679 552.983 184.502 554.277 184.909L562.536 202.391C558.991 198.686 546.373 190.636 550.414 186.115Z" fill="black"/>
<path d="M22.463 215.796C22.4808 208.952 25.3339 202.498 30.3492 197.853C35.2404 192.427 40.5924 187.303 46.5824 183.119C50.304 181.239 54.0079 185.831 51.3673 189.076C49.3293 191.523 46.9723 193.704 44.8457 196.079C37.8456 203.048 32.4581 212.923 22.463 215.796Z" fill="black"/>
<path d="M568.348 799.283C598.954 785.134 621.797 739.922 631.296 708.769C644.818 656.022 632.661 600.845 617.934 549.64C611.891 527.76 605.954 505.846 601.825 483.506C600.602 477.176 599.84 470.775 598.901 464.392C597.837 459.002 597.749 453.151 600.372 448.187C607.567 457.052 607.141 470.687 609.782 481.786C613.45 500.048 618.111 518.08 623.445 535.916C635.266 579.462 648.451 624.018 645.935 669.585C644.464 687.582 643.312 705.95 636.542 722.901C624.987 754.425 603.384 791.605 568.348 799.283Z" fill="black"/>
<path d="M422.48 825.204C384.201 824.956 345.798 821.197 308.529 812.35C284.143 806.605 261.282 795.63 240.158 782.332C255.204 787.456 270.391 793.201 285.721 797.9C366.266 824.619 499.074 828.52 575.738 789.549C581.002 786.978 586.814 785.701 592.166 783.467C590.713 786.198 588.09 788.396 585.804 790.506C576.359 798.893 564.042 802.935 552.487 807.545C510.823 822.563 465.969 825.258 422.037 825.204H422.48Z" fill="black"/>
<path d="M238.368 778.308C236.472 777.173 235.107 775.4 233.92 773.556C230.234 768.272 226.654 762.9 223.801 757.12C217.403 743.592 213.061 729.301 210.137 714.656C208.347 704.195 206.752 693.575 206.77 682.936C207.036 671.873 208.578 660.88 209.783 649.905C212.671 618.398 222.436 588.026 225.945 556.626C226.831 545.331 226.955 535.473 226.867 524.445C226.229 507.761 224.882 491.272 221.178 475.013C216.783 453.825 214.408 432.035 212.299 410.634C218.909 430.864 226.193 450.9 231.864 471.414C235.976 487.211 237.535 503.488 238.315 519.729C239.414 535.775 238.474 551.945 236.135 567.849C232.874 588.93 226.813 609.427 223.287 630.455C220.416 652.157 215.631 673.965 217.279 695.968C218.945 717.209 224.917 738.893 234.664 757.67C237.907 764.85 244.358 771.18 243.685 779.496C243.72 779.496 243.755 779.513 243.738 779.531C243.738 779.779 243.419 779.85 243.206 779.868C241.505 780.01 239.75 779.194 238.368 778.308Z" fill="black"/>
<path d="M622.435 486.715C614.585 485.686 607.354 481.502 600.744 477.566C613.876 477.956 627.238 477.938 639.626 472.974C647.919 469.711 650.56 460.456 652.687 452.602C654.725 442.868 656.638 432.815 655.486 422.85C654.512 416.166 652.226 409.694 648.841 403.843C641.717 392.265 633.423 381.397 624.438 371.202C618.058 364.092 610.455 358.028 604.855 350.28C602.162 346.628 600.407 342.301 598.334 338.365C606.078 341.752 612.795 348.064 618.909 354.039C626.511 361.06 633.76 368.471 640.086 376.663C649.479 388.613 660.023 400.563 663.78 415.652C667.644 430.315 665.269 445.953 661.512 460.385C657.365 478.736 640.671 488.842 622.435 486.715Z" fill="black"/>
<path d="M639.519 408.79C633.175 407.496 628.284 402.389 623.552 398.489C616.339 392.709 608.878 387.212 601.045 382.283C598.086 380.528 594.647 378.507 591.706 376.999C589.526 376.219 588.356 373.631 589.189 371.485C590.873 367.496 595.073 368.542 597.802 370.794C602.569 373.985 607.23 377.319 611.873 380.67C618.643 385.705 625.324 390.882 631.775 396.343C635.585 399.34 639.767 403.701 639.519 408.808C639.519 408.808 639.519 408.808 639.519 408.79Z" fill="black"/>
<path d="M180.807 506.165C157.858 500.03 142.564 469.587 140.544 447.389C139.055 423.187 150.22 397.07 162.572 376.681C168.633 367.39 174.906 357.957 181.002 348.844C177.901 357.301 174.552 365.652 171.06 373.95C167.871 381.592 164.876 389.411 162.2 397.283C156.794 413.684 149.989 430.598 152.134 448.187C155.004 465.403 163.688 488.807 180.418 496.644C185.557 499.037 192.22 497.123 197.165 496.041C202.038 494.818 206.805 493.293 211.2 491.591C216.269 489.605 221.355 486.289 227.008 487.974C226.725 490.562 224.527 493.098 222.401 494.64C210.367 500.917 194.577 508.115 180.807 506.165Z" fill="black"/>
<path d="M178.131 431.538C181.747 420.35 187.134 409.765 193.62 399.978C196.19 396.627 198.299 392.159 202.322 390.404C205.494 389.322 208.294 393.17 206.345 395.865C196.668 407.46 187.365 419.712 178.131 431.538Z" fill="black"/>
<path d="M682.689 895.966C675.601 882.296 679.943 866.782 679.588 852.137C680.279 834.087 681.148 815.967 680.368 797.917C679.18 783.396 678.153 769.957 675.813 755.755C673.829 741.588 672.801 726.819 666.616 713.716C662.309 704.922 656.213 697.209 649.886 689.798C646.537 686.518 643.755 682.617 643.152 677.865C643.134 677.883 643.099 677.865 643.099 677.83C643.063 677.493 643.666 677.493 644.003 677.511C651.481 677.688 655.859 684.763 660.608 689.585C682.849 713.344 682.388 738.078 687.102 768.272C690.647 794.336 691.568 820.683 690.7 846.959C690.452 854.193 690.328 861.268 689.938 867.828C689.636 877.615 688.626 887.899 682.689 895.966Z" fill="black"/>
<path d="M639.342 944.99C632.962 936.48 627.362 927.1 625.235 916.551C622.754 905.505 618.838 894.884 615.435 884.104C606.149 853.732 595.161 823.183 594.754 791.091C594.559 787.315 594.665 783.52 594.825 779.726C594.789 777.935 595.215 776.074 596.845 775.098C599.096 773.591 602.374 775.187 602.764 777.847C602.977 781.694 602.817 785.577 603.189 789.424C604.696 820.08 614.035 849.548 622.683 878.803C629.365 900.487 637.162 922.402 639.342 944.99Z" fill="black"/>
<path d="M669.575 977.455C651.18 973.855 640.334 962.366 634.415 944.937C633.37 940.522 639.803 938.519 641.469 942.756C647.707 958.377 655.646 966.302 672.801 968.057C680.598 968.412 688.112 965.593 695.715 964.263C704.47 962.189 714.181 961.302 721.518 955.699C729.599 949.104 723.698 940.469 717.336 935.327C712.799 930.735 707.075 927.792 701.599 924.53C693.961 919.707 686.925 913.2 683.274 904.796C679.943 897.083 679.606 888.236 681.148 880.133C687.085 891.25 692.596 902.898 701.758 911.764C706.898 917.03 713.703 920.115 719.267 924.813C724.265 929.618 729.883 934.388 732.825 940.806C736.085 948.27 733.923 957.171 727.862 962.526C721.04 969.139 711.222 970.948 702.343 973.146C691.657 975.575 680.616 979.955 669.575 977.455Z" fill="black"/>
<path d="M97.5857 910.7C97.0009 890.647 95.9908 870.754 100.031 851.02C105.171 821.268 111.161 791.659 119.366 762.599C125.427 740.241 132.126 717.865 142.192 696.961C152.098 674.905 168.863 656.252 192.008 648.309C197.75 646.802 212.866 642.334 217.19 646.695C220.044 649.993 216.535 654.763 212.547 653.185C207.266 653.167 202.038 654.532 196.952 655.844C160.551 667.617 146.906 707.315 136.255 740.471C126.242 773.804 117.647 807.563 111.94 841.924C107.634 864.867 103.966 888.307 97.5857 910.7Z" fill="black"/>
<path d="M150.184 951.675C149.635 938.448 160.037 928.59 166.027 917.739C173.258 905.647 180.506 893.573 187.56 881.374C195.446 867.491 203.119 853.466 209.127 838.662C217.545 817.58 222.046 795.24 225.041 772.811C225.201 768.698 226.565 764.762 229.613 761.925C231.758 763.574 232.608 766.623 232.945 769.23C232.218 793.219 227.416 817.314 218.998 839.796C210.332 862.332 198.441 883.431 185.841 903.98C180.134 913.484 174.906 923.271 169.377 932.827C165 940.7 159.453 949.317 150.184 951.675Z" fill="black"/>
<path d="M102.14 987.224C91.3654 985.398 81.0335 981.214 70.0106 980.77C52.3951 979.866 33.6809 981.852 17.4832 973.448C9.41973 968.749 2.38409 960.841 0.452408 951.533C-1.97548 940.664 5.69814 929.902 15.5869 925.913C22.8529 923.2 31.6428 922.26 38.8025 919.955C54.5749 914.902 70.56 910.629 85.5526 903.626C88.9198 902.243 93.935 898.058 96.9123 902.03C97.9756 906.906 92.0565 908.767 88.7603 910.736C71.4815 919.601 52.5191 924.707 33.8935 929.884C27.9744 931.622 21.4882 931.941 16.1717 935.274C3.71321 943.661 9.6324 957.171 19.6984 964.618C30.9518 971.816 44.8811 971.87 57.8003 971.941C66.4663 971.905 75.2208 971.941 83.7627 973.554C91.5426 974.866 98.9149 977.916 106.783 978.714C123.991 979.972 139.321 968.022 150.414 956.161C153.427 952.916 156.493 949.529 159.524 946.444C158.088 950.576 156.546 954.636 154.739 958.625C146.285 978.714 123.371 990.292 102.14 987.224Z" fill="black"/>
<path d="M403.057 898.271C356.183 893.111 308.546 884.016 267.077 860.594C256.551 854.867 245.864 849.282 235.976 842.456C229.472 837.474 223.446 831.765 218.325 825.382C224.173 827.137 230.11 829.531 235.674 832.261C262.08 847.03 288.343 862.74 317.336 872.012C366.656 887.03 419.113 895.221 470.559 888.679C501.218 884.938 530.849 874.406 557.768 859.371C565.619 854.796 573.275 849.938 580.541 844.477C586.549 840.187 591.475 834.548 597.394 830.24C598.901 829.46 600.638 829.14 602.303 829.335C602.8 829.247 603.083 830.47 603.136 830.736C603.526 833.059 602.516 835.382 601.063 837.155C584.28 853.75 563.652 865.984 542.333 875.86C499.109 896.161 450.374 902.579 403.057 898.271Z" fill="black"/>
<path d="M117.47 748.485C97.1605 728.68 79.2614 706.624 63.9852 682.706C61.4687 678.397 57.7117 674.373 57.0206 669.266C56.4003 662.281 56.8079 655.224 58.2256 648.344C61.3092 637.954 64.9068 614.994 78.0386 614.107C91.6667 616.518 99.8542 629.834 108.609 639.355C117.08 648.894 126.207 657.813 135.829 666.164C139.462 669.195 143.113 672.263 145.913 676.11C148.235 679.195 150.273 682.653 151.637 686.199C147.809 685.578 144.106 684.372 140.614 682.67C132.161 678.504 125.87 671.181 118.905 665.011C112.171 658.451 105.844 651.465 99.8542 644.231C93.5807 636.749 87.9451 627.671 78.6057 623.788C76.9753 624.515 76.0538 626.182 75.274 627.706C73.2006 632.121 71.6588 636.766 70.1524 641.376C67.5473 649.603 65.7396 658.238 66.2536 666.873C66.5371 670.117 69.1068 672.741 70.56 675.56C81.5475 693.007 93.7579 709.762 107.032 725.56C111.462 730.542 115.91 735.524 120.341 740.507C122.06 742.617 124.293 744.425 124.948 747.173C125.214 748.308 125.214 749.496 124.86 750.595C122.503 752.191 119.206 750.294 117.47 748.485Z" fill="black"/>
<path d="M167.552 135.335C164.787 134.254 164.273 130.548 166.258 128.474C171.503 124.591 178.504 123.722 184.423 121.045C191.441 118.048 198.299 114.662 204.98 110.974C212.671 106.346 220.008 101.151 227.15 95.7436C232.502 91.9316 238.634 84.2012 245.811 87.9955C247.353 93.0664 243.454 97.9599 239.555 100.779C233.707 105.903 227.274 110.229 220.788 114.502C207.603 123.084 193.177 130.318 177.83 134.077C174.445 134.626 170.954 136.665 167.552 135.335Z" fill="black"/>
<path d="M313.898 133.048C293.589 128.97 273.422 122.8 255.948 111.382C250.348 107.605 245.598 102.765 241.345 97.5343C239.91 95.513 237.819 93.5982 237.765 90.9564C237.695 88.1727 240.725 85.9919 243.33 87.1089C244.659 87.5345 245.421 88.6337 246.236 89.6798C249.196 93.0662 252.351 96.2932 255.718 99.2719C269.523 109.733 286.323 115.779 303 119.892C310.124 122.055 317.974 121.311 323.575 126.47C324.407 127.286 325.099 128.226 325.471 129.307C323.326 133.03 317.868 133.899 313.898 133.048Z" fill="black"/>
<path d="M86.0843 623.664C85.8716 609.089 86.0843 594.515 86.74 579.941C86.8995 544.764 82.3273 509.817 80.4665 474.729C79.5627 458.151 78.9956 441.574 77.8968 425.013C77.2057 412.85 75.0259 399.216 79.6159 387.868C80.8387 393.613 83.9399 398.985 85.0741 404.854C88.1754 422.708 88.7781 440.953 90.3553 459.002C92.1098 482.53 93.811 506.059 95.725 529.569C98.6668 560.934 99.2162 592.476 100.067 623.912C99.1276 632.44 86.6337 632.334 86.0843 623.664Z" fill="black"/>
<path d="M66.3068 911.108C63.1346 897.544 63.8257 883.129 67.122 869.654C68.965 862.137 71.0208 854.637 71.6765 846.906C72.8816 833.75 70.3828 820.594 66.2713 808.13C59.0763 787.563 54.0078 765.577 56.9674 743.734C59.0586 728.025 65.6688 713.432 70.0461 698.291C71.5879 694.585 71.3929 688.521 76.2133 687.635C79.35 687.174 81.6008 690.365 80.9451 693.291C77.5425 716.127 66.8916 737.883 68.3448 761.34C68.9119 777.811 74.1399 793.432 79.1729 808.963C82.7881 821.392 84.9501 834.406 83.6387 847.367C81.1577 869.229 74.388 890.895 66.3068 911.108Z" fill="black"/>
<path d="M64.9068 915.984C62.727 914.973 62.2662 912.278 62.4789 910.274C62.6738 900.771 64.198 891.339 65.6689 881.959C67.1044 876.339 74.2285 877.722 73.5019 883.484C72.7576 891.285 72.0664 899.122 71.5171 906.923C71.4993 908.537 71.5348 910.133 71.5348 911.746C71.6943 915.115 67.9017 917.686 64.9068 915.984Z" fill="black"/>
<path d="M317.106 964.494C266.439 962.1 215.79 956.728 165.673 948.997C162.43 948.2 157.929 948.519 156.458 944.866C155.27 941.639 158.389 938.767 161.544 939.175C214.302 943.891 266.936 951.178 319.959 952.313C358.947 953.43 397.74 948.98 436.285 943.732C436.25 943.732 436.214 943.749 436.179 943.749C436.019 943.767 435.842 943.802 435.683 943.82C469.726 938.661 503.752 932.526 536.396 921.338C554.667 915.966 573.009 908.679 587.452 896.161C591.44 891.817 594.683 885.842 601.116 884.991C605.068 885.239 606.025 891.64 605.44 894.76C601.151 908.59 586.371 914.937 574.87 921.799C567.267 925.824 559.292 929.193 550.999 931.498C534.854 936.497 518.674 941.409 502.228 945.31C441.46 958.59 379.292 965.345 317.106 964.494Z" fill="black"/>
<path d="M93.492 904.246C94.3249 902.863 97.32 898.395 98.9859 900.612C99.7124 902.846 94.9807 903.927 93.492 904.246Z" fill="black"/>
<path d="M597.324 895.984C595.569 894.565 595.161 892.296 595.356 890.168C595.215 887.385 595.286 884.565 595.41 881.782C595.693 869.512 596.242 857.243 598.298 845.115C599.113 841.552 598.83 837.048 602.091 834.672C605.883 831.924 608.488 837.261 607.673 840.523C605.883 853.573 605.83 866.746 606.468 879.885C606.397 884.601 607.496 889.601 606.131 894.158C604.536 897.491 600.053 898.377 597.324 895.984Z" fill="black"/>
<path d="M93.9174 903.608C90.9225 902.384 97.3199 899.618 98.4719 899.211C97.5858 900.877 95.9732 903.289 93.9174 903.608Z" fill="black"/>
<path d="M88.5654 904.193C87.8565 903.537 88.2818 902.367 89.1679 902.136C91.2591 900.984 93.5275 899.725 95.3705 898.235C95.9376 897.721 96.5224 897.225 97.0364 896.764C97.7452 896.09 98.8618 894.654 99.9605 895.487C100.599 895.948 100.545 896.906 99.9783 897.402C99.5175 898.891 97.7453 899.707 96.7706 900.913C95.5301 902.065 94.3605 903.342 93.0136 904.37C92.6414 904.583 92.1629 904.565 91.8262 904.246C91.5603 904.405 91.2768 904.53 90.9755 904.53C90.7097 904.53 90.4793 904.441 90.2844 904.281C89.6818 904.583 89.0971 904.689 88.5654 904.193Z" fill="black"/>
<path d="M94.2364 904.92C94.4845 904.016 95.5123 903.608 96.044 902.863C96.487 902.349 98.3832 901.445 98.1529 902.757C99.3579 904.016 97.3909 905.186 96.3276 905.647C95.6719 906.516 94.0946 906.143 94.2364 904.92Z" fill="black"/>
<path d="M91.8262 908.572C93.6515 907.047 95.8137 904.14 98.2238 904.37C97.1251 906.799 94.0946 907.81 91.8262 908.572Z" fill="black"/>
<path d="M250.543 104.91C244.447 104.981 240.902 97.6053 243.649 92.4812C245.315 89.3607 246.963 86.2224 248.186 82.8891C254.211 65.017 259.475 46.8257 260.68 27.9252C261.495 22.0032 262.292 16.0635 262.966 10.1416C264.454 4.11329 271.898 4.34384 273.422 10.3012C273.794 11.9147 274.077 13.5635 274.255 15.2124C276.115 37.7654 272.695 60.5312 266.315 82.1621C263.356 89.4848 260.059 104.662 250.543 104.91Z" fill="black"/>
<path d="M421.86 109.981C415.551 109.538 413.158 102.978 412.467 97.6053C408.692 81.3111 410.11 64.4141 412.804 48.0845C414.062 43.2973 413.017 29.6627 419.893 30.1414C421.541 30.2833 423.118 31.4534 423.596 33.0846C425.067 40.7441 425.28 48.6341 425.493 56.4354C425.705 64.3254 425.776 72.2154 426.609 80.0699C427.229 85.0522 428.222 89.928 429.427 94.7861C430.012 97.0733 430.898 99.467 430.561 101.843C430.1 106.24 426.538 110.424 421.86 109.981Z" fill="black"/>
<path d="M492.8 264.483C496.681 257.515 500.491 250.831 502.919 243.295C505.595 234.714 507.119 225.76 510.841 217.533C515.75 234.927 504.816 252.71 492.8 264.483Z" fill="black"/>
<path d="M478.924 259.519C480.572 250.653 481.387 241.487 483.727 232.87C487.679 241.7 483.337 251.753 478.924 259.519Z" fill="black"/>
<path d="M462.797 257.231C464.25 250.423 465.438 243.402 464.835 236.398C464.428 232.267 464.055 228.473 465.136 224.466C465.331 223.81 465.402 222.87 465.721 222.409C474.476 231.771 469.071 247.958 462.797 257.231Z" fill="black"/>
<path d="M404.032 203.331C397.031 202.923 388.064 202.533 383.581 196.363C383.386 196.044 382.889 195.104 383.368 194.785C383.403 194.767 383.403 194.856 383.421 194.874C383.421 194.891 383.474 194.945 383.492 194.962C389.783 195.406 395.171 198.296 401.356 199.253C410.801 200.743 420.371 199.306 429.781 198.65C421.523 200.867 412.768 203.296 404.032 203.331Z" fill="black"/>
<path d="M375.304 183.722C371.051 183.58 346.542 180.814 351.912 173.722C354.091 172.019 356.502 174.076 358.522 174.998C360.578 175.849 363.165 176.789 365.203 177.41C376.19 181.097 387.798 181.292 399.282 181.009C391.573 182.746 383.332 184.129 375.304 183.722Z" fill="black"/>
<path d="M320.491 153.669C318.347 153.243 315.759 153.261 314.005 151.86C313.969 151.807 313.969 151.736 313.969 151.665C314.855 152.179 316.255 151.683 317.301 151.647C326.959 149.963 336.813 149.076 346.276 146.328C351.522 144.715 356.413 142.055 361.251 139.75C350.175 149.396 335.218 155.016 320.491 153.669Z" fill="black"/>
<path d="M501.803 201.363C500.243 194.803 498.808 188.278 496.433 182.055C491.435 171.168 484.666 161.47 477.4 152.037C477.382 152.02 477.418 151.984 477.435 152.002C493.261 166.257 501.75 179.697 501.803 201.363Z" fill="black"/>
<path d="M315.422 165.566C308.281 165.034 299.455 162.764 296.478 155.53C302.875 155.193 308.316 158.385 314.359 159.75C319.622 160.654 324.939 161.629 330.309 161.204C335.395 160.778 340.534 159.271 345.426 158.314C340.694 160.566 336.051 163.083 331 164.555C325.949 165.991 320.597 165.832 315.422 165.566Z" fill="black"/>
<path d="M465.987 267.994C464.871 265.813 466.926 263.916 467.812 262.054C471.18 255.848 473.607 249.217 476.159 242.657C475.521 249.997 474.99 257.905 471.747 264.731C471.091 265.937 470.63 267.373 469.531 268.242C468.486 269.057 466.696 269.323 465.987 267.994Z" fill="black"/>
<path d="M496.876 263.951C501.377 252.462 502.246 240.157 502.955 227.959C506.783 239.997 504.939 254.022 496.876 263.951Z" fill="black"/>
<path d="M484.772 270.955C482.752 268.862 484.754 266.079 485.747 264.128C488.246 259.324 490.266 254.093 492.641 249.341C493.084 253.419 492.074 275.245 484.772 270.955Z" fill="black"/>
<path d="M539.816 199.785C544.513 212.746 540.188 228.225 530.193 237.373C533.631 245.352 531.895 255.618 524.611 261.026C522.023 263.1 518.94 264.075 515.714 264.501C515.431 265.387 515.094 266.238 514.704 267.072C511.656 276.735 500.81 280.405 492.322 275.706C493.243 277.604 494.555 279.323 496.22 280.689C490.744 279.926 486.722 275.458 485.357 270.334C482.876 270.955 480.129 270.884 477.648 270.494C471.587 269.891 467.742 267.781 465.154 263.845C465.792 266.894 467.015 269.962 468.752 272.905C458.615 264.714 456.151 250.866 464.002 240.76C461.592 235.618 460.99 229.714 463.116 224.306C463.116 224.271 463.134 224.218 463.152 224.182C456.807 220.264 450.622 214.395 447.84 207.906C445.536 208.101 443.25 208.26 440.946 208.118C432.954 207.711 425.44 204.661 418.528 200.76C417.979 200.53 417.429 200.264 416.898 199.98C416.933 200.423 416.951 200.867 416.951 201.31C416.951 209.164 412.308 217.817 407.735 223.455C407.523 223.739 407.292 224.005 407.062 224.271C407.257 223.632 407.452 222.976 407.629 222.338C407.204 218.384 406.052 214.554 404.297 211.026C403.943 216.115 401.551 221.434 398.715 225.264C399.513 221.629 400.54 218.083 400.806 214.395C400.842 211.062 400.469 207.764 400.009 204.466C399.778 204.182 399.53 203.916 399.3 203.65C397.014 201.097 394.515 198.792 391.892 196.611C387.71 197.055 383.457 197.037 379.31 196.735C362.616 195.565 343.99 184.484 341.048 167.374C336.777 168.225 332.4 168.473 328.111 168.172C325.701 168.083 323.202 167.605 320.739 166.789C324.39 168.793 328.288 170.406 332.099 171.895C334.828 173.048 337.805 174.076 340.428 175.158C338.833 174.874 337.238 174.573 335.643 174.236H335.714C323.521 171.86 310.053 168.402 302.574 157.605C294.688 146.257 295.84 128.314 307.731 120.389C308.529 115.956 311.01 111.86 314.572 108.953C318.152 105.814 322.901 105.779 327.367 106.63C328.625 104.006 330.327 101.665 332.116 99.9811C344.167 88.5805 364.654 82.9778 380.391 89.3962C384.396 82.4459 390.953 76.2402 396.198 73.7403C406.761 69.2722 416.242 76.4707 423.029 84.5026C428.966 77.0026 439.794 72.18 452.341 79.0948C451.686 79.1126 450.764 78.8111 450.02 78.7402C440.946 76.8076 431.961 80.141 427.726 87.8714C440.202 79.2367 458.331 80.7083 469.053 91.9138C475.876 98.3677 481.653 107.286 482.841 116.63C485.18 116.399 487.554 116.541 489.681 116.985C498.134 118.882 502.99 129.236 501.927 137.942C504.886 137.605 507.775 136.541 510.026 134.644C511.692 132.942 512.383 130.584 513.411 128.491C514.102 126.506 513.216 131.24 513.127 131.807C512.649 135.513 510.487 138.296 507.545 140.194C508.484 140.477 509.406 140.796 510.292 141.133C519.95 145.672 524.611 156.86 526.153 166.878C526.649 171.629 526.348 177.143 525.018 182.338C528.758 183.934 532.249 186.204 535.067 188.42C542.191 194.661 545.416 203.987 548.589 212.48C544.831 205.831 541.766 200.831 538.505 197.001C538.983 197.87 539.426 198.81 539.816 199.785Z" fill="black"/>
<path d="M403.783 231.682C409.242 220.033 408.657 206.097 415.693 195.211C419.698 208.331 413.601 222.817 403.783 231.682Z" fill="black"/>
<path d="M460.795 258.331C458.951 249.82 459.005 240.973 456.116 232.657C450.126 214.058 437.65 208.562 419.361 214.253C416.49 215.512 413.353 215.175 410.341 215.281C409.791 214.253 410.589 212.604 411.138 211.7C414.576 206.576 421.559 206.097 427.088 204.838C434.495 203.491 442.311 204.803 448.921 208.402C457.374 213.739 461.805 223.579 464.605 232.835C467.033 241.451 464.02 250.441 460.795 258.331Z" fill="black"/>
<path d="M426.857 211.611C425.688 211.452 424.536 211.097 423.401 210.742C422.675 210.512 421.931 210.281 421.204 210.069C421.098 210.104 420.991 210.14 420.867 210.157C420.867 210.14 420.867 210.14 420.867 210.122C419.485 210.476 417.996 210.14 416.933 209.023C416.88 208.969 416.844 208.916 416.791 208.863C414.381 208.544 411.723 207.072 411.687 204.377C411.546 204.43 411.386 204.501 411.28 204.608C411.262 204.643 411.28 204.732 411.227 204.696C411.032 204.271 411.404 203.828 411.758 203.438C412.024 197.799 418.794 195.565 423.596 195.583C423.915 195.583 424.996 195.53 425.067 196.009C424.323 196.629 423.898 197.87 423.26 198.704C425.9 198.65 428.984 198.048 431.429 199.236C437.809 203.881 435.204 213.03 426.857 211.611Z" fill="black"/>
<path d="M415.444 204.271C413.867 203.438 412.857 201.611 413.619 199.838C416.986 194.572 425.635 197.622 430.845 197.498C427.903 198.491 424.607 199.253 421.629 200.37C423.384 200.849 425.05 201.274 426.68 201.647C424.039 204.625 419.113 205.884 415.444 204.271Z" fill="black"/>
<path d="M463.63 236.505C462.159 235.476 461.663 234.058 461.167 232.657C460.458 231.15 460.015 229.643 459.572 228.047C457.906 226.629 456.754 224.218 457.516 222.019C458.367 219.058 461.947 218.154 463.949 220.618C466.59 220.672 468.539 223.331 467.99 225.831C468.592 227.71 469.39 229.572 469.071 231.576C468.929 233.632 465.916 238.384 463.63 236.505Z" fill="black"/>
<path d="M465.402 258.863C456.506 256.611 449.081 246.806 450.994 237.515C452.093 231.717 454.149 224.306 460.529 222.533C461.769 229.164 459.377 235.529 459.82 242.125C460.848 247.409 463.506 253.49 468.433 256.079C470.116 256.522 471.924 256.629 473.501 256.877C470.914 257.887 468.273 259.554 465.402 258.863Z" fill="black"/>
<path d="M301.387 120.087C304.098 111.967 307.129 102.02 316.415 99.5202C324.283 97.499 333.499 101.098 336.175 109.148C336.529 110.017 337.096 111.009 337.256 111.86C334.828 110.619 332.63 109.024 330.309 107.623C315.139 98.7046 308.369 107.251 301.387 120.087Z" fill="black"/>
<path d="M347.056 106.595C342.785 101.896 344.327 94.2188 346.719 88.9351C351.309 79.6267 360.56 79.6977 366.266 87.9777C367.33 89.2011 368.659 90.5309 369.563 91.7365C368.358 90.85 367.135 89.9635 365.912 89.0947C355.793 80.3005 350.281 87.4103 349.36 98.3499C349.129 101.275 347.428 103.846 347.995 106.595C348.031 106.665 348.225 106.648 348.19 106.719C347.836 106.985 347.357 106.861 347.056 106.595Z" fill="black"/>
<path d="M368.287 205.016C351.114 198.526 346.56 174.289 354.623 159.502C354.517 168.012 356.147 176.647 357.937 184.98C361.269 196.204 370.98 206.735 383.013 199.324C385.725 197.675 388.525 195.743 391.148 194.165C384.945 200.583 378.122 207.728 368.287 205.016Z" fill="black"/>
<path d="M310.673 165.902C298.339 162.161 289.903 147.357 292.597 134.821C294.989 126.701 302.964 115.832 312.232 116.133C315.883 116.896 316.822 121.399 313.526 123.35C310.708 124.538 307.678 125.247 305.445 127.552C300.075 132.374 298.179 140.034 301.227 146.647C304.275 155.246 311.914 162.321 321.377 162.197C326.516 162.356 331.514 160.051 336.21 158.651C333.304 160.335 330.521 162.215 327.597 163.846C322.476 166.576 316.309 167.215 310.673 165.902Z" fill="black"/>
<path d="M298.144 160.105C295.734 158.598 292.987 157.481 290.949 155.459C284.781 148.03 285.738 136.381 291.214 128.811C293.749 125.548 300.217 118.882 304.559 121.754C307.022 123.367 305.711 126.984 303.301 127.871C293.518 131.594 288.875 143.811 292.349 153.367C293.625 156.062 296.301 157.959 298.144 160.105Z" fill="black"/>
</g>
</g>
</svg>
