<svg width="735" height="988" viewBox="0 0 735 988" fill="none" xmlns="http://www.w3.org/2000/svg">
<g id="Body / Baby Carrier">
<g id="Clothing 2">
<path d="M617.935 549.64C632.68 600.845 644.837 656.022 631.298 708.769C625.131 728.964 613.381 755.046 597.538 774.762C597.307 774.85 597.077 774.957 596.864 775.116C595.819 775.737 595.269 776.73 595.021 777.811C592.895 780.294 590.697 782.652 588.446 784.868C584.193 786.357 579.798 787.563 575.74 789.549C499.075 828.52 366.268 824.619 285.722 797.9C270.393 793.201 255.205 787.474 240.159 782.332C261.284 795.63 284.145 806.623 308.53 812.35C345.799 821.197 384.185 824.938 422.482 825.204C466.272 825.24 510.967 822.527 552.489 807.545C560.871 804.194 569.661 801.144 577.459 796.517C583.662 794.105 589.386 790.754 594.667 786.677C594.667 788.148 594.702 789.62 594.773 791.074C594.933 804.088 596.829 816.836 599.664 829.407C598.867 829.566 598.105 829.814 597.378 830.204C591.459 834.513 586.532 840.151 580.525 844.442C573.259 849.903 565.621 854.761 557.752 859.353C530.851 874.388 501.202 884.92 470.543 888.661C419.097 895.222 366.64 887.012 317.32 871.995C288.327 862.722 262.064 847.013 235.658 832.243C231.671 830.293 227.524 828.502 223.341 827.013C228.8 809.194 232.043 790.595 232.84 772.013C233.195 772.528 233.549 773.042 233.904 773.538C235.091 775.365 236.456 777.155 238.352 778.29C239.752 779.159 241.489 779.992 243.19 779.868C243.385 779.85 243.704 779.779 243.722 779.531C243.722 779.531 243.722 779.531 243.722 779.513C243.722 779.496 243.686 779.478 243.668 779.478C244.342 771.145 237.891 764.833 234.648 757.634C224.901 738.858 218.929 717.174 217.263 695.933C215.615 673.929 220.382 652.121 223.271 630.419C226.797 609.391 232.84 588.895 236.119 567.813C238.458 551.909 239.415 535.739 238.299 519.693C237.501 503.435 235.959 487.158 231.848 471.378C226.974 453.807 220.931 436.574 215.154 419.269C213.293 400.723 206.523 382.762 198.744 365.883C192.169 351.84 185.807 337.692 178.576 323.968C170.938 310.511 163.388 296.983 155.538 283.65C147.386 270.21 137.71 257.799 128.477 245.104C112.048 222.675 86.5999 193.154 59.5741 184.626C56.1361 183.456 51.2802 182.126 47.3283 181.204C46.708 180.956 46.0523 180.761 45.3789 180.637C46.1941 177.339 47.8067 174.289 50.0929 171.736C65.883 154.821 85.6251 141.807 107.565 134.343C112.367 132.694 117.205 131.222 122.044 129.697C128.406 127.392 134.856 125.779 141.661 126.63C144.55 126.843 147.386 127.162 150.203 127.57C150.257 127.641 150.31 127.694 150.363 127.765C192.399 158.208 226.372 198.243 257.899 239.164C266.246 250.547 274.327 262.16 281.575 274.288C282.975 276.682 284.375 279.27 285.864 281.664C285.634 281.752 285.403 281.859 285.173 281.947C278.332 284.607 270.871 287.267 266.547 293.579C266.512 293.579 265.856 294.997 266.264 294.855C266.352 294.66 266.671 294.607 266.795 294.554C270.659 293.933 274.699 293.916 278.58 292.763C296.267 286.043 314.432 280.671 332.862 276.362C387.392 264.288 444.864 266.15 499.164 278.455C514.192 282.036 528.972 288.596 544.744 287.001C535.742 278.561 523.833 274.838 511.995 271.877C518.392 266.646 523.797 247.32 525.073 242.781C526.491 237.303 527.288 231.735 527.82 226.115C530 204.023 527.607 180.938 516.673 161.293C516.514 161.009 516.354 160.725 516.195 160.442C519.367 161.771 522.504 163.296 525.623 164.892C536.132 169.608 542.529 179.324 547.527 189.307C558.461 208.845 563.795 230.405 569.927 251.948C579.284 288.951 584.353 326.858 588.057 364.784C589.581 382.957 590.697 401.184 592.629 419.322C594.277 430.244 596.421 441.077 598.92 451.822C597.839 455.847 598.087 460.208 598.885 464.304C599.523 468.701 600.09 473.098 600.781 477.477C600.763 477.477 600.728 477.477 600.71 477.477C600.728 477.495 600.763 477.513 600.781 477.513C601.082 479.481 601.419 481.449 601.791 483.399C605.956 505.846 611.892 527.761 617.935 549.64Z" fill="#E2E2E2"/>
<path d="M148.201 685.472C145.986 689.16 143.983 693.007 142.211 696.961C134.715 712.493 129.097 728.84 124.223 745.365C123.249 743.556 121.654 742.12 120.324 740.524C115.894 735.542 111.464 730.56 107.015 725.578C97.8 714.62 89.1163 703.202 80.9643 691.394C80.7162 690.011 79.901 688.752 78.7137 688.096C75.9136 683.965 73.1845 679.798 70.5439 675.578C69.0907 672.759 66.521 670.135 66.2374 666.89C65.7235 658.238 67.5311 649.603 70.1363 641.394C71.6603 636.767 73.2022 632.121 75.2579 627.724C76.0376 626.182 76.9592 624.533 78.5896 623.806C87.929 627.689 93.5645 636.767 99.838 644.249C105.846 651.483 112.155 658.469 118.889 665.029C125.854 671.199 132.145 678.521 140.598 682.688C143.062 683.876 145.596 684.816 148.201 685.472Z" fill="#E2E2E2"/>
</g>
<g id="Clothing 1">
<path d="M307.571 131.718C307.093 132.073 306.632 132.41 306.171 132.782C295.768 141.576 286.464 152.534 281.786 165.477C277.284 179.377 274.91 195.157 278.259 209.537C278.348 209.82 278.436 210.086 278.525 210.352C278.011 210.955 277.674 211.7 277.604 212.533C277.373 216.239 277.692 219.98 278.295 223.686C278.561 231.983 277.036 240.246 276.7 248.543C263.55 230.015 249.089 212.462 234.398 195.122C215.79 173.651 196.172 152.658 173.771 135.123C175.118 134.75 176.465 134.307 177.812 134.077C193.159 130.318 207.585 123.084 220.77 114.502C227.256 110.229 233.689 105.903 239.537 100.779C240.423 100.141 241.309 99.3782 242.124 98.5449C242.585 99.0946 243.046 99.6443 243.525 100.176C244.304 101.878 245.58 103.332 247.228 104.166C249.887 106.825 252.758 109.289 255.912 111.399C271.614 121.63 289.424 127.64 307.571 131.718Z" fill="white"/>
<path d="M226.848 524.445C226.937 535.473 226.813 545.349 225.927 556.625C222.613 586.341 213.699 615.135 210.296 644.834C204.076 644.905 195.906 647.281 192.007 648.309C174.126 654.444 160.055 666.997 150.006 682.564C148.837 680.312 147.437 678.149 145.93 676.128C143.13 672.28 139.48 669.213 135.847 666.181C126.224 657.83 117.097 648.912 108.626 639.373C105.294 635.756 102.069 631.589 98.5777 627.689C99.3751 626.713 99.9069 625.454 100.084 623.93C99.2334 592.494 98.684 560.952 95.7422 529.587C93.846 506.076 92.127 482.548 90.3726 459.02C88.7953 440.971 88.1927 422.726 85.0914 404.872C83.9572 399.021 80.8558 393.648 79.633 387.886C79.1723 389.021 78.7824 390.191 78.4457 391.379L30.5614 235.671L27.4777 225.725L24.8372 217.267L24.1992 215.21C33.131 211.771 38.288 202.64 44.8628 196.079C46.2983 194.466 47.8401 192.959 49.3288 191.381C55.4428 192.764 61.4328 194.732 67.0861 197.498C94.6966 213.225 113.836 239.59 132.214 264.926C141.287 277.621 149.528 290.866 157.024 304.553C165.637 319.128 173.488 333.933 180.789 349.234C174.764 358.223 168.597 367.532 162.624 376.681C150.255 397.07 139.107 423.169 140.596 447.389C142.599 469.587 157.91 500.048 180.842 506.165C194.63 508.133 210.402 500.917 222.453 494.676C223.127 494.197 223.782 493.612 224.403 492.974C225.767 503.364 226.458 513.878 226.848 524.445Z" fill="white"/>
<path d="M122.538 751.198C121.457 754.992 120.411 758.804 119.365 762.599C111.16 791.659 105.152 821.268 100.031 851.02C96.9472 866.126 96.8055 881.339 97.1777 896.64C97.1245 896.693 97.0714 896.746 97.0182 896.799C96.5043 897.243 95.9195 897.739 95.3524 898.253C94.2536 899.14 92.9953 899.955 91.7193 900.7C89.5572 901.374 87.3243 902.899 85.5344 903.626C80.9445 905.771 76.2659 907.668 71.5165 909.388C71.5165 908.572 71.4988 907.739 71.5165 906.923C71.8178 902.775 72.1367 898.608 72.4912 894.459C77.7191 879.193 81.8128 863.342 83.6382 847.35C84.9496 834.406 82.7876 821.375 79.1723 808.963C74.1393 793.432 68.9113 777.811 68.3442 761.34C67.1391 741.641 74.4229 723.184 78.8179 704.248C90.4966 719.993 103.398 734.78 117.451 748.485C118.674 749.762 120.659 751.056 122.538 751.198Z" fill="white"/>
<path d="M599.467 838.679C598.865 840.754 598.741 843.076 598.28 845.115C596.224 857.243 595.675 869.512 595.391 881.782C595.303 883.697 595.25 885.629 595.267 887.544C592.272 889.885 590.022 893.342 587.47 896.126C573.026 908.625 554.684 915.93 536.413 921.303C503.964 932.419 470.151 938.554 436.302 943.696H436.285C436.249 943.696 436.214 943.714 436.196 943.714C397.669 948.962 358.911 953.395 319.976 952.278C268.229 951.178 216.835 944.21 165.354 939.494C166.842 937.313 168.171 935.008 169.412 932.774C174.941 923.218 180.169 913.43 185.875 903.927C198.458 883.378 210.367 862.296 219.033 839.743C220.238 836.552 221.355 833.325 222.4 830.062C226.547 834.584 231.137 838.715 235.993 842.42C245.864 849.247 256.568 854.832 267.095 860.558C308.581 883.98 356.218 893.076 403.074 898.235C450.391 902.544 499.126 896.126 542.35 875.825C562.978 866.286 582.986 854.513 599.467 838.679Z" fill="white"/>
</g>
<path id="Skin Adult" d="M417.091 28.9713L418.226 30.3365C413.157 31.9855 413.919 43.723 412.785 48.0846C410.091 64.4142 408.674 81.329 412.448 97.6231C412.626 98.9884 412.909 100.424 413.352 101.825C389.073 101.896 364.405 107.197 342.235 114.609C334.596 117.251 327.029 120.229 319.887 123.988C314.801 121.524 308.669 121.648 303.016 119.91C287.208 116.009 271.294 110.371 257.914 100.885C262.132 95.8146 264.312 87.1622 266.332 82.1622C272.712 60.5312 276.15 37.7478 274.271 15.2125C274.094 13.5636 273.811 11.9148 273.438 10.3013C272.995 8.58147 272.074 7.3403 270.94 6.59563L271.294 6.40062L271.737 6.17012L272.233 5.92187L272.783 5.67361L273.385 5.42547L274.041 5.15947L274.768 4.89348L275.53 4.62759L276.345 4.34384L277.178 4.0602L278.064 3.79421L278.985 3.51057L279.96 3.22693L280.97 2.96093L281.998 2.69493L283.044 2.44679L284.125 2.19854L285.259 1.96804L286.446 1.73754L287.687 1.52478L288.963 1.31203L290.274 1.11702L291.621 0.957398L293.003 0.797778L294.421 0.656013L295.839 0.531888L297.257 0.42551L298.674 0.33688L300.056 0.248142L301.457 0.17726L302.839 0.106378L304.221 0.0531347L305.586 0.0176394L306.95 0H308.315L309.715 0.0176394L311.15 0.0531347L312.621 0.106378L314.128 0.17726L315.669 0.26589L317.247 0.372267L318.877 0.478645L320.578 0.620518L322.297 0.762391L324.034 0.921903L325.771 1.09927L327.508 1.29428L329.262 1.50703L331.034 1.75528L332.789 2.00353L334.508 2.25168L336.209 2.51767L337.91 2.78367L339.612 3.06731L341.313 3.3687L342.997 3.68783L344.645 4.00696L346.293 4.34384L347.905 4.68072L349.518 5.0176L351.131 5.37223L352.744 5.72686L354.321 6.08149L355.88 6.43611L357.422 6.79063L358.964 7.14526L360.488 7.51764L361.994 7.87227L363.447 8.22678L364.883 8.58141L366.283 8.93604L367.665 9.29067L369.03 9.6453L370.359 9.99982L371.653 10.3544L372.911 10.7091L374.151 11.0637L375.392 11.4183L376.615 11.7906L377.82 12.163L379.007 12.5353L380.177 12.9076L381.329 13.28L382.481 13.6523L383.633 14.0246L384.767 14.4148L385.866 14.8048L386.947 15.1949L388.028 15.6027L389.091 16.0104L390.154 16.4359L391.2 16.8438L392.228 17.2693L393.238 17.6771L394.248 18.0848L395.258 18.5105L396.251 18.9182L397.225 19.326L398.165 19.7339L399.086 20.1416L400.008 20.5316L400.911 20.9218L401.815 21.3118L402.701 21.7019L403.57 22.0742L404.403 22.4465L405.2 22.8012L405.944 23.138L406.636 23.4572L407.291 23.7586L407.929 24.0601L408.55 24.3614L409.152 24.6628L409.755 24.9642L410.339 25.2657L410.907 25.5671L411.456 25.8685L411.988 26.1522L412.501 26.4359L412.98 26.7019L413.441 26.95L413.884 27.1982L414.309 27.4287L414.717 27.6415L415.089 27.8365L415.443 28.0316L415.78 28.2089L416.099 28.3685L416.383 28.528L416.648 28.6699L416.879 28.794L417.091 28.9713Z" fill="#B7B5B5"/>
<g id="Outline">
<path d="M215.595 425.758C204.821 401.06 193.142 376.769 182.137 352.177C174.463 335.83 166.152 320.05 156.972 304.553C149.493 290.866 141.235 277.621 132.161 264.926C113.784 239.59 94.644 213.225 67.0334 197.498C60.7953 194.448 54.1674 192.356 47.3799 190.973C45.909 190.743 44.4381 190.423 42.9495 190.565C40.2026 190.707 37.8633 188.225 37.8456 185.565C38.0228 180.353 43.2861 179.714 47.309 181.292C51.2609 182.197 56.1168 183.544 59.5548 184.714C86.5806 193.225 112.029 222.746 128.457 245.192C137.69 257.887 147.366 270.299 155.518 283.738C163.387 297.071 170.919 310.6 178.557 324.057C185.787 337.762 192.149 351.929 198.724 365.971C207.426 384.748 214.833 404.943 215.595 425.758Z" fill="black"/>
<path d="M39.1569 188.952C36.7999 187.569 37.0835 184.714 37.2607 182.356C37.6328 175.601 41 169.36 45.6608 164.555C57.1091 152.64 69.9042 141.913 84.7374 134.449C96.2034 128.243 107.528 124.502 119.561 120.761C124.222 119.449 128.705 117.073 133.614 116.931C140.03 116.789 146.835 116.488 152.683 119.609C157.361 121.914 161.26 125.814 163.919 130.194C156.475 128.58 149.209 127.233 141.66 126.683C134.855 125.832 128.404 127.445 122.042 129.75C117.204 131.275 112.366 132.747 107.563 134.396C85.6412 141.86 65.8991 154.892 50.0913 171.789C46.9191 175.317 45.0406 179.839 44.7925 184.573C45.2887 187.64 42.0633 190.707 39.1569 188.952Z" fill="black"/>
<path d="M291.214 286.256C288.592 286.079 286.979 284.199 285.987 281.93C284.445 279.483 283.027 276.806 281.574 274.359C274.326 262.231 266.244 250.618 257.897 239.235C226.37 198.314 192.415 158.278 150.361 127.835C143.999 120.974 151.212 118.492 156.972 122.977C186.585 142.498 211.307 168.456 234.416 195.14C252.758 216.806 270.746 238.792 286.27 262.586C289.584 267.781 293.022 272.94 295.982 278.348C298.126 281.699 295.255 286.664 291.214 286.256Z" fill="black"/>
<path d="M266.546 293.649C270.87 287.337 278.348 284.678 285.171 282.018C294.28 278.277 303.708 275.405 313.207 272.834C375.18 255.157 441.531 256.912 504.213 270.086C518.461 273.508 533.773 276.788 544.76 287.089C528.988 288.685 514.208 282.107 499.18 278.543C444.863 266.238 387.391 264.359 332.878 276.433C314.448 280.759 296.283 286.114 278.596 292.834C274.698 293.986 270.675 294.004 266.811 294.625C266.67 294.696 266.351 294.749 266.28 294.926C265.854 295.086 266.51 293.649 266.546 293.649Z" fill="black"/>
<path d="M276.771 254.997C276.133 244.288 278.774 233.685 278.313 223.029C278.437 218.118 284.622 216.487 286.802 221.044C290.275 233.029 286.43 247.054 276.771 254.997Z" fill="black"/>
<path d="M505.932 271.983C504.727 269.625 505.95 266.965 507.314 264.979C508.732 262.639 509.795 260.139 510.859 257.604C516.388 243.455 518.284 228.331 517.965 213.207C517.788 192.463 511.302 171.7 498.17 155.495C486.81 141.931 473.926 128.562 457.02 122.215C421.558 108.846 378.211 114.804 343.299 127.516C310.815 137.764 285.526 161.895 287.068 197.906C287.475 205.955 287.635 214.271 284.959 221.983C281.981 218.455 279.678 213.987 278.278 209.519C274.928 195.14 277.303 179.378 281.804 165.459C286.483 152.516 295.787 141.559 306.189 132.747C316.911 124.36 329.476 119.006 342.236 114.591C382.376 101.151 430.685 94.6799 470.063 113.58C489.327 124.449 506.003 142.055 516.689 161.363C527.624 181.009 530.016 204.094 527.836 226.186C527.305 231.788 526.489 237.391 525.089 242.852C523.424 248.809 514.704 279.944 505.932 271.983Z" fill="black"/>
<path d="M279.943 231.629C278.508 225.405 277.232 218.934 277.639 212.516C277.923 209.555 281.414 207.817 283.966 209.324C289.673 213.189 283.417 227.533 279.943 231.629Z" fill="black"/>
<path d="M300.111 243.88C296.46 243.437 291.374 240.529 293.678 236.256C295.68 233.012 298.48 234.341 301.298 235.317C307.323 236.487 313.225 233.934 318.949 232.657C315.617 239.678 308.28 245.866 300.111 243.88Z" fill="black"/>
<path d="M426.397 265.174C429.728 255.848 440.361 252.816 445.27 244.661C448.035 239.997 448.673 233.969 447.592 228.739C446.44 219.04 437.065 215.264 428.364 217.551C424.748 218.42 421.346 219.874 417.961 221.381C415.037 222.338 411.351 220.654 413.194 217.143C419.822 209.076 437.03 206.203 446.068 211.611C461.592 220.6 460.901 243.987 448.956 255.742C443.427 262.001 435.151 268.082 426.397 265.174Z" fill="black"/>
<path d="M415.533 241.593C413.513 240.263 413.637 237.675 414.044 235.565C415.196 228.544 421.824 222.551 429.143 223.756C426.29 225.37 423.331 227.444 422.09 230.707C420.814 233.295 421.098 236.114 421.115 238.863C420.92 241.522 417.731 243.207 415.533 241.593Z" fill="black"/>
<path d="M407.47 262.941C408.568 256.575 415.232 252.887 420.725 250.636C423.756 249.448 428.062 249.005 428.665 245.086C428.931 243.118 430.526 241.115 432.599 241.132C437.402 241.327 436.976 247.444 434.992 250.547C429.374 260.352 415.303 256.611 407.47 262.941Z" fill="black"/>
<path d="M592.645 419.411C590.713 401.272 589.615 383.063 588.073 364.872C584.369 326.947 579.3 289.039 569.943 252.036C563.794 230.512 558.46 208.952 547.543 189.395C542.545 179.431 536.148 169.697 525.639 164.981C521.403 162.8 517.079 160.761 512.737 159.13C509.778 158.403 506.074 156.488 507.793 152.853C509.388 150.247 512.737 150.991 515.13 151.931C521.049 153.74 526.684 156.435 532.16 159.342C542.173 164.165 548.854 173.296 553.427 183.172C553.551 183.385 553.675 183.58 553.799 183.792L563.705 204.785H563.741C567.196 213.81 569.979 223.101 572.708 232.373C585.68 276.256 591.369 321.858 596.455 367.212C599.716 402.052 605.422 437.123 604.129 472.087C599.308 454.747 595.321 437.176 592.645 419.411Z" fill="black"/>
<path d="M550.414 186.115C551.654 184.679 552.983 184.502 554.277 184.909L562.536 202.391C558.991 198.686 546.373 190.636 550.414 186.115Z" fill="black"/>
<path d="M22.463 215.796C22.4808 208.952 25.3339 202.498 30.3492 197.853C35.2404 192.427 40.5924 187.303 46.5824 183.119C50.304 181.239 54.0079 185.831 51.3673 189.076C49.3293 191.523 46.9723 193.704 44.8457 196.079C37.8456 203.048 32.4581 212.923 22.463 215.796Z" fill="black"/>
<path d="M568.348 799.283C598.954 785.134 621.797 739.922 631.296 708.769C644.818 656.022 632.661 600.845 617.934 549.64C611.891 527.76 605.954 505.846 601.825 483.506C600.602 477.176 599.84 470.775 598.901 464.392C597.837 459.002 597.749 453.151 600.372 448.187C607.567 457.052 607.141 470.687 609.782 481.786C613.45 500.048 618.111 518.08 623.445 535.916C635.266 579.462 648.451 624.018 645.935 669.585C644.464 687.582 643.312 705.95 636.542 722.901C624.987 754.425 603.384 791.605 568.348 799.283Z" fill="black"/>
<path d="M422.48 825.204C384.201 824.956 345.798 821.197 308.529 812.35C284.143 806.605 261.282 795.63 240.158 782.332C255.204 787.456 270.391 793.201 285.721 797.9C366.266 824.619 499.074 828.52 575.738 789.549C581.002 786.978 586.814 785.701 592.166 783.467C590.713 786.198 588.09 788.396 585.804 790.506C576.359 798.893 564.042 802.935 552.487 807.545C510.823 822.563 465.969 825.258 422.037 825.204H422.48Z" fill="black"/>
<path d="M238.368 778.308C236.472 777.173 235.107 775.4 233.92 773.556C230.234 768.272 226.654 762.9 223.801 757.12C217.403 743.592 213.061 729.301 210.137 714.656C208.347 704.195 206.752 693.575 206.77 682.936C207.036 671.873 208.578 660.88 209.783 649.905C212.671 618.398 222.436 588.026 225.945 556.626C226.831 545.331 226.955 535.473 226.867 524.445C226.229 507.761 224.882 491.272 221.178 475.013C216.783 453.825 214.408 432.035 212.299 410.634C218.909 430.864 226.193 450.9 231.864 471.414C235.976 487.211 237.535 503.488 238.315 519.729C239.414 535.775 238.474 551.945 236.135 567.849C232.874 588.93 226.813 609.427 223.287 630.455C220.416 652.157 215.631 673.965 217.279 695.968C218.945 717.209 224.917 738.893 234.664 757.67C237.907 764.85 244.358 771.18 243.685 779.496C243.72 779.496 243.755 779.513 243.738 779.531C243.738 779.779 243.419 779.85 243.206 779.868C241.505 780.01 239.75 779.194 238.368 778.308Z" fill="black"/>
<path d="M622.435 486.715C614.585 485.686 607.354 481.502 600.744 477.566C613.876 477.956 627.238 477.938 639.626 472.974C647.919 469.711 650.56 460.456 652.687 452.602C654.725 442.868 656.638 432.815 655.486 422.85C654.512 416.166 652.226 409.694 648.841 403.843C641.717 392.265 633.423 381.397 624.438 371.202C618.058 364.092 610.455 358.028 604.855 350.28C602.162 346.628 600.407 342.301 598.334 338.365C606.078 341.752 612.795 348.064 618.909 354.039C626.511 361.06 633.76 368.471 640.086 376.663C649.479 388.613 660.023 400.563 663.78 415.652C667.644 430.315 665.269 445.953 661.512 460.385C657.365 478.736 640.671 488.842 622.435 486.715Z" fill="black"/>
<path d="M639.519 408.79C633.175 407.496 628.284 402.389 623.552 398.489C616.339 392.709 608.878 387.212 601.045 382.283C598.086 380.528 594.647 378.507 591.706 376.999C589.526 376.219 588.356 373.631 589.189 371.485C590.873 367.496 595.073 368.542 597.802 370.794C602.569 373.985 607.23 377.319 611.873 380.67C618.643 385.705 625.324 390.882 631.775 396.343C635.585 399.34 639.767 403.701 639.519 408.808C639.519 408.808 639.519 408.808 639.519 408.79Z" fill="black"/>
<path d="M180.807 506.165C157.858 500.03 142.564 469.587 140.544 447.389C139.055 423.187 150.22 397.07 162.572 376.681C168.633 367.39 174.906 357.957 181.002 348.844C177.901 357.301 174.552 365.652 171.06 373.95C167.871 381.592 164.876 389.411 162.2 397.283C156.794 413.684 149.989 430.598 152.134 448.187C155.004 465.403 163.688 488.807 180.418 496.644C185.557 499.037 192.22 497.123 197.165 496.041C202.038 494.818 206.805 493.293 211.2 491.591C216.269 489.605 221.355 486.289 227.008 487.974C226.725 490.562 224.527 493.098 222.401 494.64C210.367 500.917 194.577 508.115 180.807 506.165Z" fill="black"/>
<path d="M178.131 431.538C181.747 420.35 187.134 409.765 193.62 399.978C196.19 396.627 198.299 392.159 202.322 390.404C205.494 389.322 208.294 393.17 206.345 395.865C196.668 407.46 187.365 419.712 178.131 431.538Z" fill="black"/>
<path d="M682.689 895.966C675.601 882.296 679.943 866.782 679.588 852.137C680.279 834.087 681.148 815.967 680.368 797.917C679.18 783.396 678.153 769.957 675.813 755.755C673.829 741.588 672.801 726.819 666.616 713.716C662.309 704.922 656.213 697.209 649.886 689.798C646.537 686.518 643.755 682.617 643.152 677.865C643.134 677.883 643.099 677.865 643.099 677.83C643.063 677.493 643.666 677.493 644.003 677.511C651.481 677.688 655.859 684.763 660.608 689.585C682.849 713.344 682.388 738.078 687.102 768.272C690.647 794.336 691.568 820.683 690.7 846.959C690.452 854.193 690.328 861.268 689.938 867.828C689.636 877.615 688.626 887.899 682.689 895.966Z" fill="black"/>
<path d="M639.342 944.99C632.962 936.48 627.362 927.1 625.235 916.551C622.754 905.505 618.838 894.884 615.435 884.104C606.149 853.732 595.161 823.183 594.754 791.091C594.559 787.315 594.665 783.52 594.825 779.726C594.789 777.935 595.215 776.074 596.845 775.098C599.096 773.591 602.374 775.187 602.764 777.847C602.977 781.694 602.817 785.577 603.189 789.424C604.696 820.08 614.035 849.548 622.683 878.803C629.365 900.487 637.162 922.402 639.342 944.99Z" fill="black"/>
<path d="M669.575 977.455C651.18 973.855 640.334 962.366 634.415 944.937C633.37 940.522 639.803 938.519 641.469 942.756C647.707 958.377 655.646 966.302 672.801 968.057C680.598 968.412 688.112 965.593 695.715 964.263C704.47 962.189 714.181 961.302 721.518 955.699C729.599 949.104 723.698 940.469 717.336 935.327C712.799 930.735 707.075 927.792 701.599 924.53C693.961 919.707 686.925 913.2 683.274 904.796C679.943 897.083 679.606 888.236 681.148 880.133C687.085 891.25 692.596 902.898 701.758 911.764C706.898 917.03 713.703 920.115 719.267 924.813C724.265 929.618 729.883 934.388 732.825 940.806C736.085 948.27 733.923 957.171 727.862 962.526C721.04 969.139 711.222 970.948 702.343 973.146C691.657 975.575 680.616 979.955 669.575 977.455Z" fill="black"/>
<path d="M97.5857 910.7C97.0009 890.647 95.9908 870.754 100.031 851.02C105.171 821.268 111.161 791.659 119.366 762.599C125.427 740.241 132.126 717.865 142.192 696.961C152.098 674.905 168.863 656.252 192.008 648.309C197.75 646.802 212.866 642.334 217.19 646.695C220.044 649.993 216.535 654.763 212.547 653.185C207.266 653.167 202.038 654.532 196.952 655.844C160.551 667.617 146.906 707.315 136.255 740.471C126.242 773.804 117.647 807.563 111.94 841.924C107.634 864.867 103.966 888.307 97.5857 910.7Z" fill="black"/>
<path d="M150.184 951.675C149.635 938.448 160.037 928.59 166.027 917.739C173.258 905.647 180.506 893.573 187.56 881.374C195.446 867.491 203.119 853.466 209.127 838.662C217.545 817.58 222.046 795.24 225.041 772.811C225.201 768.698 226.565 764.762 229.613 761.925C231.758 763.574 232.608 766.623 232.945 769.23C232.218 793.219 227.416 817.314 218.998 839.796C210.332 862.332 198.441 883.431 185.841 903.98C180.134 913.484 174.906 923.271 169.377 932.827C165 940.7 159.453 949.317 150.184 951.675Z" fill="black"/>
<path d="M102.14 987.224C91.3654 985.398 81.0335 981.214 70.0106 980.77C52.3951 979.866 33.6809 981.852 17.4832 973.448C9.41973 968.749 2.38409 960.841 0.452408 951.533C-1.97548 940.664 5.69814 929.902 15.5869 925.913C22.8529 923.2 31.6428 922.26 38.8025 919.955C54.5749 914.902 70.56 910.629 85.5526 903.626C88.9198 902.243 93.935 898.058 96.9123 902.03C97.9756 906.906 92.0565 908.767 88.7603 910.736C71.4815 919.601 52.5191 924.707 33.8935 929.884C27.9744 931.622 21.4882 931.941 16.1717 935.274C3.71321 943.661 9.6324 957.171 19.6984 964.618C30.9518 971.816 44.8811 971.87 57.8003 971.941C66.4663 971.905 75.2208 971.941 83.7627 973.554C91.5426 974.866 98.9149 977.916 106.783 978.714C123.991 979.972 139.321 968.022 150.414 956.161C153.427 952.916 156.493 949.529 159.524 946.444C158.088 950.576 156.546 954.636 154.739 958.625C146.285 978.714 123.371 990.292 102.14 987.224Z" fill="black"/>
<path d="M403.057 898.271C356.183 893.111 308.546 884.016 267.077 860.594C256.551 854.867 245.864 849.282 235.976 842.456C229.472 837.474 223.446 831.765 218.325 825.382C224.173 827.137 230.11 829.531 235.674 832.261C262.08 847.03 288.343 862.74 317.336 872.012C366.656 887.03 419.113 895.221 470.559 888.679C501.218 884.938 530.849 874.406 557.768 859.371C565.619 854.796 573.275 849.938 580.541 844.477C586.549 840.187 591.475 834.548 597.394 830.24C598.901 829.46 600.638 829.14 602.303 829.335C602.8 829.247 603.083 830.47 603.136 830.736C603.526 833.059 602.516 835.382 601.063 837.155C584.28 853.75 563.652 865.984 542.333 875.86C499.109 896.161 450.374 902.579 403.057 898.271Z" fill="black"/>
<path d="M117.47 748.485C97.1605 728.68 79.2614 706.624 63.9852 682.706C61.4687 678.397 57.7117 674.373 57.0206 669.266C56.4003 662.281 56.8079 655.224 58.2256 648.344C61.3092 637.954 64.9068 614.994 78.0386 614.107C91.6667 616.518 99.8542 629.834 108.609 639.355C117.08 648.894 126.207 657.813 135.829 666.164C139.462 669.195 143.113 672.263 145.913 676.11C148.235 679.195 150.273 682.653 151.637 686.199C147.809 685.578 144.106 684.372 140.614 682.67C132.161 678.504 125.87 671.181 118.905 665.011C112.171 658.451 105.844 651.465 99.8542 644.231C93.5807 636.749 87.9451 627.671 78.6057 623.788C76.9753 624.515 76.0538 626.182 75.274 627.706C73.2006 632.121 71.6588 636.766 70.1524 641.376C67.5473 649.603 65.7396 658.238 66.2536 666.873C66.5371 670.117 69.1068 672.741 70.56 675.56C81.5475 693.007 93.7579 709.762 107.032 725.56C111.462 730.542 115.91 735.524 120.341 740.507C122.06 742.617 124.293 744.425 124.948 747.173C125.214 748.308 125.214 749.496 124.86 750.595C122.503 752.191 119.206 750.294 117.47 748.485Z" fill="black"/>
<path d="M167.552 135.335C164.787 134.254 164.273 130.548 166.258 128.474C171.503 124.591 178.504 123.722 184.423 121.045C191.441 118.048 198.299 114.662 204.98 110.974C212.671 106.346 220.008 101.151 227.15 95.7436C232.502 91.9316 238.634 84.2012 245.811 87.9955C247.353 93.0664 243.454 97.9599 239.555 100.779C233.707 105.903 227.274 110.229 220.788 114.502C207.603 123.084 193.177 130.318 177.83 134.077C174.445 134.626 170.954 136.665 167.552 135.335Z" fill="black"/>
<path d="M313.898 133.048C293.589 128.97 273.422 122.8 255.948 111.382C250.348 107.605 245.598 102.765 241.345 97.5343C239.91 95.513 237.819 93.5982 237.765 90.9564C237.695 88.1727 240.725 85.9919 243.33 87.1089C244.659 87.5345 245.421 88.6337 246.236 89.6798C249.196 93.0662 252.351 96.2932 255.718 99.2719C269.523 109.733 286.323 115.779 303 119.892C310.124 122.055 317.974 121.311 323.575 126.47C324.407 127.286 325.099 128.226 325.471 129.307C323.326 133.03 317.868 133.899 313.898 133.048Z" fill="black"/>
<path d="M86.0843 623.664C85.8716 609.089 86.0843 594.515 86.74 579.941C86.8995 544.764 82.3273 509.817 80.4665 474.729C79.5627 458.151 78.9956 441.574 77.8968 425.013C77.2057 412.85 75.0259 399.216 79.6159 387.868C80.8387 393.613 83.9399 398.985 85.0741 404.854C88.1754 422.708 88.7781 440.953 90.3553 459.002C92.1098 482.53 93.811 506.059 95.725 529.569C98.6668 560.934 99.2162 592.476 100.067 623.912C99.1276 632.44 86.6337 632.334 86.0843 623.664Z" fill="black"/>
<path d="M66.3068 911.108C63.1346 897.544 63.8257 883.129 67.122 869.654C68.965 862.137 71.0208 854.637 71.6765 846.906C72.8816 833.75 70.3828 820.594 66.2713 808.13C59.0763 787.563 54.0078 765.577 56.9674 743.734C59.0586 728.025 65.6688 713.432 70.0461 698.291C71.5879 694.585 71.3929 688.521 76.2133 687.635C79.35 687.174 81.6008 690.365 80.9451 693.291C77.5425 716.127 66.8916 737.883 68.3448 761.34C68.9119 777.811 74.1399 793.432 79.1729 808.963C82.7881 821.392 84.9501 834.406 83.6387 847.367C81.1577 869.229 74.388 890.895 66.3068 911.108Z" fill="black"/>
<path d="M64.9068 915.984C62.727 914.973 62.2662 912.278 62.4789 910.274C62.6738 900.771 64.198 891.339 65.6689 881.959C67.1044 876.339 74.2285 877.722 73.5019 883.484C72.7576 891.285 72.0664 899.122 71.5171 906.923C71.4993 908.537 71.5348 910.133 71.5348 911.746C71.6943 915.115 67.9017 917.686 64.9068 915.984Z" fill="black"/>
<path d="M317.106 964.494C266.439 962.1 215.79 956.728 165.673 948.997C162.43 948.2 157.929 948.519 156.458 944.866C155.27 941.639 158.389 938.767 161.544 939.175C214.302 943.891 266.936 951.178 319.959 952.313C358.947 953.43 397.74 948.98 436.285 943.732C436.25 943.732 436.214 943.749 436.179 943.749C436.019 943.767 435.842 943.802 435.683 943.82C469.726 938.661 503.752 932.526 536.396 921.338C554.667 915.966 573.009 908.679 587.452 896.161C591.44 891.817 594.683 885.842 601.116 884.991C605.068 885.239 606.025 891.64 605.44 894.76C601.151 908.59 586.371 914.937 574.87 921.799C567.267 925.824 559.292 929.193 550.999 931.498C534.854 936.497 518.674 941.409 502.228 945.31C441.46 958.59 379.292 965.345 317.106 964.494Z" fill="black"/>
<path d="M93.492 904.246C94.3249 902.863 97.32 898.395 98.9859 900.612C99.7124 902.846 94.9807 903.927 93.492 904.246Z" fill="black"/>
<path d="M597.324 895.984C595.569 894.565 595.161 892.296 595.356 890.168C595.215 887.385 595.286 884.565 595.41 881.782C595.693 869.512 596.242 857.243 598.298 845.115C599.113 841.552 598.83 837.048 602.091 834.672C605.883 831.924 608.488 837.261 607.673 840.523C605.883 853.573 605.83 866.746 606.468 879.885C606.397 884.601 607.496 889.601 606.131 894.158C604.536 897.491 600.053 898.377 597.324 895.984Z" fill="black"/>
<path d="M93.9174 903.608C90.9225 902.384 97.3199 899.618 98.4719 899.211C97.5858 900.877 95.9732 903.289 93.9174 903.608Z" fill="black"/>
<path d="M88.5654 904.193C87.8565 903.537 88.2818 902.367 89.1679 902.136C91.2591 900.984 93.5275 899.725 95.3705 898.235C95.9376 897.721 96.5224 897.225 97.0364 896.764C97.7452 896.09 98.8618 894.654 99.9605 895.487C100.599 895.948 100.545 896.906 99.9783 897.402C99.5175 898.891 97.7453 899.707 96.7706 900.913C95.5301 902.065 94.3605 903.342 93.0136 904.37C92.6414 904.583 92.1629 904.565 91.8262 904.246C91.5603 904.405 91.2768 904.53 90.9755 904.53C90.7097 904.53 90.4793 904.441 90.2844 904.281C89.6818 904.583 89.0971 904.689 88.5654 904.193Z" fill="black"/>
<path d="M94.2364 904.92C94.4845 904.016 95.5123 903.608 96.044 902.863C96.487 902.349 98.3832 901.445 98.1529 902.757C99.3579 904.016 97.3909 905.186 96.3276 905.647C95.6719 906.516 94.0946 906.143 94.2364 904.92Z" fill="black"/>
<path d="M91.8262 908.572C93.6515 907.047 95.8137 904.14 98.2238 904.37C97.1251 906.799 94.0946 907.81 91.8262 908.572Z" fill="black"/>
<path d="M250.543 104.91C244.447 104.981 240.902 97.6053 243.649 92.4812C245.315 89.3607 246.963 86.2224 248.186 82.8891C254.211 65.017 259.475 46.8257 260.68 27.9252C261.495 22.0032 262.292 16.0635 262.966 10.1416C264.454 4.11329 271.898 4.34384 273.422 10.3012C273.794 11.9147 274.077 13.5635 274.255 15.2124C276.115 37.7654 272.695 60.5312 266.315 82.1621C263.356 89.4848 260.059 104.662 250.543 104.91Z" fill="black"/>
<path d="M421.86 109.981C415.551 109.538 413.158 102.978 412.467 97.6053C408.692 81.3111 410.11 64.4141 412.804 48.0845C414.062 43.2973 413.017 29.6627 419.893 30.1414C421.541 30.2833 423.118 31.4534 423.596 33.0846C425.067 40.7441 425.28 48.6341 425.493 56.4354C425.705 64.3254 425.776 72.2154 426.609 80.0699C427.229 85.0522 428.222 89.928 429.427 94.7861C430.012 97.0733 430.898 99.467 430.561 101.843C430.1 106.24 426.538 110.424 421.86 109.981Z" fill="black"/>
<path d="M492.8 264.483C496.681 257.515 500.491 250.831 502.919 243.295C505.595 234.714 507.119 225.76 510.841 217.533C515.75 234.927 504.816 252.71 492.8 264.483Z" fill="black"/>
<path d="M478.924 259.519C480.572 250.653 481.387 241.487 483.727 232.87C487.679 241.7 483.337 251.753 478.924 259.519Z" fill="black"/>
<path d="M462.797 257.231C464.25 250.423 465.438 243.402 464.835 236.398C464.428 232.267 464.055 228.473 465.136 224.466C465.331 223.81 465.402 222.87 465.721 222.409C474.476 231.771 469.071 247.958 462.797 257.231Z" fill="black"/>
<path d="M404.032 203.331C397.031 202.923 388.064 202.533 383.581 196.363C383.386 196.044 382.889 195.104 383.368 194.785C383.403 194.767 383.403 194.856 383.421 194.874C383.421 194.891 383.474 194.945 383.492 194.962C389.783 195.406 395.171 198.296 401.356 199.253C410.801 200.743 420.371 199.306 429.781 198.65C421.523 200.867 412.768 203.296 404.032 203.331Z" fill="black"/>
<path d="M375.304 183.722C371.051 183.58 346.542 180.814 351.912 173.722C354.091 172.019 356.502 174.076 358.522 174.998C360.578 175.849 363.165 176.789 365.203 177.41C376.19 181.097 387.798 181.292 399.282 181.009C391.573 182.746 383.332 184.129 375.304 183.722Z" fill="black"/>
<path d="M320.491 153.669C318.347 153.243 315.759 153.261 314.005 151.86C313.969 151.807 313.969 151.736 313.969 151.665C314.855 152.179 316.255 151.683 317.301 151.647C326.959 149.963 336.813 149.076 346.276 146.328C351.522 144.715 356.413 142.055 361.251 139.75C350.175 149.396 335.218 155.016 320.491 153.669Z" fill="black"/>
<path d="M501.803 201.363C500.243 194.803 498.808 188.278 496.433 182.055C491.435 171.168 484.666 161.47 477.4 152.037C477.382 152.02 477.418 151.984 477.435 152.002C493.261 166.257 501.75 179.697 501.803 201.363Z" fill="black"/>
<path d="M315.422 165.566C308.281 165.034 299.455 162.764 296.478 155.53C302.875 155.193 308.316 158.385 314.359 159.75C319.622 160.654 324.939 161.629 330.309 161.204C335.395 160.778 340.534 159.271 345.426 158.314C340.694 160.566 336.051 163.083 331 164.555C325.949 165.991 320.597 165.832 315.422 165.566Z" fill="black"/>
<path d="M465.987 267.994C464.871 265.813 466.926 263.916 467.812 262.054C471.18 255.848 473.607 249.217 476.159 242.657C475.521 249.997 474.99 257.905 471.747 264.731C471.091 265.937 470.63 267.373 469.531 268.242C468.486 269.057 466.696 269.323 465.987 267.994Z" fill="black"/>
<path d="M496.876 263.951C501.377 252.462 502.246 240.157 502.955 227.959C506.783 239.997 504.939 254.022 496.876 263.951Z" fill="black"/>
<path d="M484.772 270.955C482.752 268.862 484.754 266.079 485.747 264.128C488.246 259.324 490.266 254.093 492.641 249.341C493.084 253.419 492.074 275.245 484.772 270.955Z" fill="black"/>
</g>
<g id="Skin Baby">
<path d="M318.95 232.657C313.244 233.934 307.342 236.487 301.299 235.317C298.464 234.342 295.681 233.012 293.679 236.257C291.357 240.53 296.443 243.437 300.094 243.881C308.264 245.866 315.601 239.678 318.95 232.657ZM429.162 223.757C421.861 222.551 415.215 228.544 414.063 235.565C413.655 237.693 413.531 240.264 415.552 241.593C417.731 243.207 420.939 241.505 421.134 238.881C421.116 236.132 420.833 233.313 422.109 230.725C423.349 227.462 426.309 225.37 429.162 223.757ZM517.984 213.207C518.303 228.313 516.389 243.455 510.877 257.604C509.814 260.139 508.751 262.639 507.333 264.98C506.27 266.522 505.295 268.49 505.49 270.387C505.082 270.299 504.657 270.192 504.232 270.086C484.171 265.866 463.719 262.817 443.162 261.203C445.307 259.572 447.274 257.657 448.975 255.742C460.919 243.987 461.593 220.601 446.086 211.611C437.03 206.204 419.823 209.058 413.212 217.143C411.369 220.654 415.055 222.338 417.98 221.381C421.364 219.874 424.767 218.42 428.382 217.551C437.084 215.264 446.458 219.04 447.61 228.739C448.691 233.969 448.053 239.998 445.289 244.661C441.337 251.221 433.699 254.466 429.127 260.334C423.969 260.086 418.812 259.944 413.655 259.909C421.311 257.622 430.686 258.118 435.01 250.565C436.995 247.462 437.42 241.363 432.618 241.168C430.544 241.132 428.949 243.154 428.683 245.104C428.081 249.022 423.792 249.466 420.744 250.654C416.19 252.533 410.838 255.37 408.516 259.909C376.333 260.033 344.239 264.004 313.243 272.852C307.413 274.43 301.6 276.132 295.876 278.065C292.952 272.745 289.567 267.692 286.324 262.586C284.109 259.182 281.823 255.813 279.501 252.462C287.157 244.288 289.957 231.859 286.82 221.062C286.537 220.459 286.165 219.962 285.739 219.555C287.636 212.551 287.458 205.14 287.104 197.924C285.562 161.913 310.833 137.782 343.335 127.534C378.247 114.822 421.595 108.864 457.074 122.233C473.98 128.563 486.846 141.949 498.206 155.495C511.32 171.7 517.789 192.463 517.984 213.207Z" fill="#949494"/>
<path d="M717.337 935.31C723.699 940.469 729.6 949.104 721.519 955.7C714.164 961.302 704.47 962.189 695.716 964.263C688.113 965.593 680.599 968.412 672.802 968.058C655.629 966.302 647.707 958.377 641.469 942.757C640.938 941.427 639.928 940.7 638.847 940.505C636.153 919.494 628.922 899.051 622.72 878.821C614.071 849.584 604.75 820.098 603.226 789.442C602.907 786.127 602.977 782.794 602.871 779.496C618.466 763.999 629.418 742.386 636.56 722.936C641.629 710.241 643.561 696.748 644.819 683.202C646.059 685.667 647.867 687.848 649.887 689.834C656.214 697.227 662.31 704.958 666.617 713.752C672.784 726.854 673.829 741.624 675.814 755.79C678.154 769.975 679.181 783.414 680.369 797.953C681.148 816.002 680.298 834.123 679.589 852.172C679.89 864.69 676.771 877.846 680.262 889.938C680.333 895.044 681.237 900.133 683.257 904.814C686.908 913.218 693.944 919.707 701.582 924.547C707.076 927.774 712.8 930.718 717.337 935.31Z" fill="#949494"/>
<path d="M227.7 764.159C225.981 766.659 225.166 769.673 225.06 772.794C222.065 795.205 217.563 817.563 209.145 838.644C203.138 853.449 195.464 867.491 187.56 881.357C180.507 893.555 173.276 905.629 166.028 917.721C160.021 928.572 149.636 938.43 150.185 951.657C153.393 950.841 156.157 949.263 158.567 947.242C158.603 947.26 158.638 947.278 158.674 947.295C155.909 950.132 153.127 953.217 150.398 956.161C139.304 968.022 123.974 979.972 106.767 978.714C98.9158 977.916 91.5257 974.866 83.7636 973.554C75.2217 971.941 66.4671 971.905 57.8012 971.941C44.882 971.87 30.9526 971.816 19.6993 964.618C9.63326 957.171 3.71408 943.661 16.1725 935.274C21.4891 931.941 27.9753 931.604 33.8943 929.884C52.52 924.707 71.4824 919.618 88.7612 910.736C90.3029 909.814 92.3941 908.927 94.0954 907.739C95.336 907.225 96.5588 906.551 97.4271 905.594C97.4803 907.296 97.5334 908.998 97.5866 910.7C103.966 888.307 107.653 864.867 111.959 841.906C117.648 807.545 126.261 773.786 136.273 740.453C146.924 707.298 160.57 667.6 196.971 655.827C201.047 654.763 205.211 653.681 209.411 653.291C208.277 663.149 207.019 673.007 206.788 682.936C206.753 693.575 208.366 704.195 210.156 714.656C213.08 729.301 217.422 743.574 223.819 757.12C224.971 759.531 226.3 761.872 227.7 764.159Z" fill="#949494"/>
<path d="M221.161 475.013C222.118 479.18 222.898 483.364 223.571 487.548C219.265 487.637 215.242 490.048 211.219 491.626C206.824 493.311 202.057 494.835 197.183 496.059C192.221 497.14 185.558 499.055 180.436 496.662C163.707 488.825 155.005 465.403 152.152 448.205C150.026 430.616 156.813 413.702 162.218 397.301C164.876 389.429 167.889 381.61 171.079 373.968C174.499 365.847 177.796 357.656 180.826 349.376C181.269 350.316 181.712 351.238 182.155 352.177C188.074 365.386 194.171 378.507 200.231 391.645C197.485 393.79 195.712 397.23 193.621 399.961C187.135 409.748 181.748 420.333 178.132 431.52C186.515 420.794 194.933 409.73 203.652 399.092C206.913 406.184 210.12 413.294 213.292 420.439C215.171 438.666 217.439 457.052 221.161 475.013Z" fill="#949494"/>
<path d="M655.487 422.85C656.639 432.815 654.725 442.868 652.67 452.602C650.543 460.456 647.902 469.694 639.609 472.974C629.791 476.91 619.388 477.743 608.95 477.726C607.585 470.119 607.018 461.786 604.183 454.8C603.651 429.978 600.39 405.12 597.732 380.351C598.866 381.007 599.983 381.663 601.028 382.283C608.861 387.195 616.322 392.709 623.535 398.489C628.267 402.389 633.158 407.496 639.502 408.79C639.502 408.808 639.502 408.808 639.52 408.808C639.768 403.702 635.586 399.34 631.776 396.326C625.325 390.883 618.644 385.688 611.874 380.652C607.231 377.301 602.552 373.968 597.803 370.776C597.448 370.493 597.076 370.209 596.669 369.979C596.58 369.039 596.491 368.117 596.403 367.195C595.18 356.362 593.939 345.511 592.557 334.66L599.15 339.979C600.886 343.454 602.499 347.124 604.838 350.262C610.456 358.028 618.059 364.074 624.421 371.184C633.406 381.379 641.7 392.266 648.824 403.826C652.227 409.712 654.513 416.166 655.487 422.85Z" fill="#949494"/>
<path d="M459.112 255.831C458.332 253.437 459.714 251.398 460.618 249.288C461.611 246.132 462.125 242.835 462.461 239.537C462.816 232.959 462.231 226.363 462.568 219.803C462.904 216.682 466.839 214.998 469.32 216.877C474.282 217.462 473.413 223.721 473.785 227.391C473.768 229.856 474.796 232.515 473.732 234.838C473.52 239.749 477.241 249.217 470.028 250.317C469.656 251.859 469.089 253.366 468.363 254.785C468.628 260.831 460.476 261.611 459.112 255.831Z" fill="#949494"/>
<path d="M488.158 265.423C486.616 264.714 484.968 264.199 483.497 263.313C482.965 262.994 482.487 262.639 482.044 262.231C476.426 264.536 472.456 258.508 474.477 253.455C476.089 249.519 476.975 245.37 477.95 241.221C479.687 235.405 478.872 222.196 486.333 221.008C489.966 220.494 492.96 223.81 492.464 227.391C491.117 234.909 488.548 242.178 487.91 249.838C487.644 253.295 487.91 254.749 491.383 255.919C490.586 253.455 491.897 250.919 492.393 248.526C493.51 243.65 495.388 239.04 497.905 234.732C501.591 226.983 501.609 217.888 500.102 209.572C497.976 208.455 497.178 205.813 496.026 203.828C492.571 197.143 490.143 189.998 487.041 183.154C485.234 178.704 480.201 171.133 486.988 168.562C484.826 165.477 481.902 163.048 479.102 160.566C476.444 159.945 474.973 157.534 473.325 155.601C472.492 154.307 472.687 152.463 473.608 151.275C475.593 148.669 478.872 149.981 480.874 151.825C483.887 153.988 486.846 156.275 489.593 158.775C498.171 166.47 501.201 178.119 503.842 188.917C506.925 197.64 509.513 206.718 510.115 215.991C512.844 217.25 513.465 220.494 513.075 223.207C514.067 229.058 513.376 235.299 510.7 240.636C509.105 248.189 506.854 255.778 501.219 261.292C502.583 265.494 498.507 268.579 494.555 268.224C492.11 268.206 490.196 266.54 488.158 265.423Z" fill="#949494"/>
<path d="M308.441 169.165L300.005 162.445L298.003 159.254C298.924 158.119 300.324 157.392 301.671 156.789C302.717 156.328 303.816 155.974 304.897 155.584C305.907 155.229 306.917 154.874 307.927 154.52C307.892 154.537 307.856 154.537 307.821 154.555C307.909 154.52 307.998 154.484 308.104 154.467C308.264 154.413 308.406 154.36 308.565 154.307C308.476 154.342 308.37 154.378 308.281 154.413C308.707 154.254 309.15 154.112 309.575 153.952C309.557 153.952 309.54 153.97 309.504 153.97C314.98 152.073 320.509 150.442 326.092 148.917C331.621 147.41 337.239 146.257 342.857 145.176C345.533 144.662 348.209 144.254 350.902 143.828C351.912 143.669 352.94 143.562 353.951 143.438C355.297 143.279 356.662 143.048 358.027 142.96C357.973 142.96 357.92 142.96 357.867 142.977C360.561 142.782 363.255 142.552 365.948 142.534C367.295 142.534 368.66 142.445 370.007 142.534C371.531 142.623 373.072 142.711 374.596 142.8C376.032 142.889 377.467 143.084 378.903 143.243C380.214 143.367 381.508 143.598 382.802 143.775C383.085 143.811 383.387 143.864 383.67 143.899C383.794 143.757 383.918 143.633 384.042 143.491C384.432 143.03 384.804 142.552 385.159 142.073C385.318 141.825 385.46 141.577 385.602 141.311C385.708 141.08 385.814 140.832 385.885 140.584C385.885 140.619 385.868 140.637 385.868 140.672C385.85 140.726 385.832 140.761 385.814 140.814C385.797 140.85 385.797 140.885 385.779 140.903C385.797 140.832 385.814 140.779 385.832 140.708C385.832 140.672 385.832 140.637 385.85 140.601C385.85 140.548 385.85 140.495 385.85 140.424C385.85 140.406 385.85 140.389 385.85 140.371C385.832 140.353 385.832 140.335 385.814 140.318C385.779 140.282 385.743 140.229 385.726 140.194C385.69 140.158 385.655 140.123 385.619 140.087C385.566 140.034 385.495 139.999 385.442 139.945C385.371 139.91 385.318 139.874 385.247 139.821C384.981 139.697 384.716 139.591 384.432 139.484C384.078 139.378 383.723 139.272 383.369 139.201C382.518 139.059 381.685 138.952 380.817 138.882C379.098 138.793 377.361 138.828 375.642 138.935C375.66 138.935 375.695 138.935 375.713 138.935C372.576 139.165 369.457 139.573 366.338 140.034C363.627 140.442 360.897 140.85 358.204 141.328C352.94 142.233 347.677 143.119 342.431 144.077C343.406 144.218 344.381 144.343 345.373 144.467C345.409 144.467 345.391 144.502 345.373 144.502C344.487 144.555 343.619 144.608 342.733 144.662C341.988 144.697 341.209 144.804 340.5 144.609C340.252 144.538 340.074 144.254 340.145 144.006C340.358 143.332 341.102 143.172 341.705 142.942C342.29 142.694 342.91 142.499 343.512 142.286C344.771 141.843 346.064 141.435 347.34 141.027C349.892 140.211 352.444 139.414 354.996 138.633C357.69 137.818 360.401 136.984 363.148 136.293C364.743 135.885 366.338 135.495 367.933 135.105C369.422 134.733 370.946 134.502 372.434 134.201C375.483 133.598 378.619 133.279 381.738 133.421C383.475 133.492 385.176 133.775 386.807 134.378C388.295 134.928 389.802 135.956 390.599 137.392C391.379 138.757 391.68 140.371 391.255 141.913C390.918 143.137 390.333 144.201 389.607 145.211C390.351 145.424 391.113 145.672 391.84 145.956C393.169 146.47 394.604 147.179 395.632 148.208C395.65 148.225 395.632 148.261 395.597 148.243C395.455 148.119 395.313 148.03 395.154 147.924C394.906 147.764 394.64 147.623 394.374 147.499C393.931 147.286 393.488 147.108 393.027 146.931C393.027 146.931 393.045 146.931 393.045 146.949C392.177 146.648 391.308 146.417 390.404 146.222C390.422 146.222 390.44 146.222 390.457 146.24C389.997 146.151 389.518 146.062 389.04 145.991C388.88 146.204 388.703 146.399 388.526 146.594C387.356 147.96 385.992 149.218 384.627 150.389C384.007 150.921 383.387 151.435 382.784 151.967C382.217 152.445 381.597 152.871 381.012 153.314C380.569 153.651 380.09 153.988 379.612 154.289C378.974 154.715 378.336 155.176 377.662 155.548C376.369 156.275 375.093 156.984 373.746 157.622C372.434 158.243 371.105 158.775 369.758 159.307C368.89 159.662 367.969 159.91 367.082 160.193C366.267 160.459 365.417 160.672 364.584 160.903C362.989 161.346 361.341 161.7 359.71 162.037C359.746 162.037 359.799 162.02 359.834 162.002C359.515 162.073 359.196 162.144 358.877 162.197C358.948 162.179 359.037 162.161 359.108 162.144C358.576 162.25 358.062 162.357 357.548 162.463C357.583 162.463 357.619 162.445 357.654 162.445C357.601 162.463 357.53 162.463 357.477 162.481C357.495 162.481 357.513 162.481 357.53 162.463C357.495 162.463 357.442 162.481 357.406 162.481C357.389 162.481 357.371 162.481 357.353 162.498C354.801 163.013 352.214 163.438 349.662 163.917C346.933 164.413 344.221 164.927 341.51 165.459C335.892 166.576 330.274 167.747 324.603 168.491C323.487 168.633 322.388 168.793 321.272 168.934C318.861 169.254 316.416 169.36 313.988 169.395C313.704 169.395 313.403 169.395 313.119 169.395C311.507 169.413 309.965 169.342 308.441 169.165ZM318.347 164.325C318.312 164.325 318.276 164.325 318.241 164.342C326.003 163.793 333.624 162.25 341.244 160.743C346.259 159.697 351.31 158.74 356.343 157.764C358.363 157.321 360.366 156.86 362.368 156.364C364.282 155.885 366.143 155.229 368.004 154.591C367.898 154.626 367.791 154.662 367.685 154.697C368.553 154.342 369.422 153.988 370.29 153.615C371.158 153.261 371.991 152.8 372.824 152.374C372.736 152.428 372.629 152.463 372.523 152.516C373.338 152.037 374.171 151.576 374.986 151.116C375.819 150.637 376.599 150.034 377.397 149.502C377.308 149.573 377.202 149.626 377.113 149.697C377.893 149.094 378.673 148.491 379.435 147.889C380.161 147.339 380.835 146.683 381.526 146.062C381.473 146.116 381.419 146.151 381.366 146.204C381.667 145.903 381.986 145.601 382.288 145.3C380.214 145.211 378.141 145.158 376.067 145.123C373.994 145.087 371.92 145.176 369.829 145.211C368.199 145.353 366.551 145.477 364.92 145.584C363.396 145.708 361.872 145.956 360.348 146.151C359.09 146.311 357.849 146.488 356.591 146.701C354.978 146.984 353.33 147.215 351.735 147.534C351.753 147.534 351.771 147.534 351.788 147.516C351.753 147.516 351.735 147.534 351.7 147.534H351.682C351.682 147.534 351.682 147.534 351.7 147.534C351.576 147.569 351.434 147.587 351.31 147.605H351.328C351.275 147.623 351.221 147.623 351.168 147.64C351.133 147.64 351.115 147.658 351.08 147.658H351.097C349.148 148.048 347.216 148.438 345.267 148.828C342.874 149.396 340.447 149.874 338.054 150.442C335.183 151.133 332.312 151.825 329.441 152.569C324.408 153.864 319.428 155.371 314.484 157.037C312.712 157.676 310.94 158.35 309.167 159.023C307.307 159.732 305.464 160.477 303.656 161.346C303.231 161.559 302.823 161.789 302.433 162.055C302.433 162.055 302.433 162.055 302.415 162.055C302.486 162.126 302.575 162.179 302.646 162.232C302.876 162.374 303.107 162.516 303.355 162.64C303.78 162.835 304.205 163.013 304.648 163.19C305.535 163.491 306.421 163.722 307.324 163.917C308.583 164.147 309.859 164.307 311.135 164.395C313.598 164.52 315.973 164.466 318.347 164.325Z" fill="#949494"/>
<path d="M357.477 162.481C357.442 162.481 357.424 162.498 357.389 162.498C357.424 162.481 357.46 162.481 357.477 162.481Z" fill="#949494"/>
<path d="M359.656 162.037C359.586 162.055 359.515 162.073 359.462 162.073C359.515 162.055 359.586 162.037 359.656 162.037Z" fill="#949494"/>
<path d="M351.203 147.64C351.256 147.623 351.292 147.623 351.345 147.605C351.274 147.623 351.203 147.64 351.15 147.64C351.15 147.64 351.186 147.64 351.203 147.64Z" fill="#949494"/>
<path d="M351.735 147.534C351.753 147.534 351.79 147.516 351.808 147.516C351.79 147.516 351.753 147.516 351.735 147.534Z" fill="#949494"/>
<path d="M351.842 147.516H351.861C351.842 147.516 351.824 147.516 351.806 147.534C351.824 147.516 351.824 147.516 351.842 147.516Z" fill="#949494"/>
<path d="M351.878 147.499C351.86 147.499 351.86 147.499 351.842 147.499H351.824C351.842 147.499 351.86 147.499 351.878 147.499Z" fill="#949494"/>
<path d="M352.018 147.481C351.965 147.499 351.93 147.498 351.877 147.516C351.912 147.498 351.965 147.481 352.018 147.481Z" fill="#949494"/>
<path d="M385.514 139.999C385.495 139.999 385.495 139.999 385.514 139.999V139.999Z" fill="#949494"/>
<path d="M466.147 263.49L457.18 206.026L424.696 204.484L384.857 210.299L322.618 180.441L300.005 162.427L297.967 159.201V159.183L297.985 159.147V159.112L298.02 159.041L298.038 159.006L298.056 158.97L298.074 158.935L298.091 158.899L298.127 158.828L298.145 158.793L298.162 158.757L298.18 158.722L298.198 158.686L298.233 158.615L298.251 158.58L298.269 158.545L298.286 158.509L298.304 158.474L298.339 158.403L298.357 158.367L298.375 158.332L298.393 158.296L298.41 158.261L298.428 158.225L298.464 158.154L298.481 158.119L298.499 158.084L298.517 158.048L298.534 158.013L298.57 157.942L298.605 157.906L298.623 157.871L298.658 157.835L298.694 157.8L298.729 157.764L298.765 157.711L298.8 157.676L298.836 157.623L298.871 157.587L299.048 157.321L299.084 157.268L299.261 157.002L299.296 156.949L299.332 156.896L299.367 156.86L299.438 156.754L299.474 156.718L299.58 156.559L299.633 156.506L299.669 156.452L299.722 156.399L299.775 156.328L299.934 156.115L299.988 156.044L300.2 155.761L300.253 155.69L300.307 155.619L300.36 155.566L300.413 155.495L300.466 155.442L300.519 155.388L300.572 155.335L300.626 155.282L300.679 155.229L300.732 155.176L300.785 155.123L300.838 155.069L300.891 155.016L300.944 154.963L300.998 154.91L301.051 154.857L301.104 154.803L301.14 154.768L301.175 154.715L301.21 154.679L301.246 154.644L301.281 154.608L301.317 154.573L301.352 154.537L301.388 154.502L301.423 154.467L301.458 154.431L301.494 154.396L301.529 154.36L301.565 154.325L301.6 154.307L301.636 154.271L301.653 154.254L301.707 154.201L301.724 154.183L301.742 154.165L301.76 154.147H301.777L301.795 154.13L399.106 123.669C399.815 123.545 400.506 123.421 401.215 123.297L452.785 160.708C451.35 164.289 449.223 167.622 446.547 170.442C452.094 169.786 457.641 169.041 463.188 168.261L507.404 200.335L507.421 200.494L510.027 244.607L503.08 262.48L491.472 267.231L466.147 263.49Z" fill="#949494"/>
</g>
</g>
</svg>
