<svg width="615" height="943" viewBox="0 0 615 943" fill="none" xmlns="http://www.w3.org/2000/svg">
<g id="Body / Cardigan">
<path id="Skin" d="M413.414 128.563C412.829 129.094 412.279 129.644 411.765 130.211C407.707 134.289 403.543 138.243 399.272 142.091C362.782 173.066 308.731 165.761 267.705 148.19C252.446 141.257 238.623 131.559 227.494 118.988C225.403 116.488 223.258 113.953 221.734 111.063C222.213 110.478 222.674 109.893 223.134 109.29C228.043 103.066 231.393 95.8678 235.026 88.8644C242.114 76.2049 245.907 62.1271 250.178 48.3506C253.527 35.0883 253.598 21.0814 252.464 7.53539C252.163 6.18788 251.259 5.15959 250.107 4.60995L250.408 4.48582L251.259 4.16669L252.145 3.8652L253.102 3.58156L254.094 3.31556L255.122 3.04967L256.186 2.80142L257.284 2.55317L258.436 2.32267L259.641 2.09216L260.9 1.87941L262.193 1.6844L263.522 1.48939L264.887 1.29439L266.305 1.11702L267.793 0.939759L269.317 0.780138L270.859 0.620626L272.436 0.478753L274.031 0.354628L275.662 0.24825L277.328 0.159621L279.011 0.0887382L280.695 0.0354953L282.396 0H284.133L285.905 0.0177476L287.73 0.0532429L289.591 0.106378L291.452 0.177368L293.331 0.265998L295.227 0.354628L297.158 0.461006L299.108 0.585131L301.057 0.709256L302.989 0.833381L304.921 0.975254L306.835 1.13477L308.748 1.29439L310.68 1.47165L312.576 1.66665L314.455 1.86177L316.316 2.07453L318.159 2.32267L320.002 2.57092L321.845 2.83692L323.67 3.12055L325.478 3.42194L327.268 3.74118L329.04 4.07806L330.812 4.41494L332.602 4.76946L334.392 5.14184L336.164 5.51421L337.919 5.88648L339.673 6.25886L341.41 6.63123L343.147 7.02125L344.866 7.41126L346.549 7.80138L348.215 8.1914L349.845 8.56378L351.458 8.93615L353.071 9.32617L354.648 9.71629L356.208 10.1063L357.732 10.5141L359.22 10.9219L360.709 11.3474L362.18 11.7907L363.633 12.234L365.051 12.7127L366.433 13.1914L367.78 13.6701L369.074 14.1666L370.332 14.663L371.555 15.1771L372.742 15.6914L373.894 16.2055L375.028 16.702L376.127 17.1984L377.226 17.6772L378.324 18.1559L379.405 18.6168L380.451 19.0601L381.461 19.5034L382.418 19.9112L383.304 20.319L384.119 20.6914L384.899 21.0636L385.626 21.4183L386.317 21.7729L386.99 22.1275L387.664 22.4998L388.337 22.8722L389.011 23.2622L389.666 23.6523L390.304 24.0423L390.925 24.4324L391.509 24.8048L392.059 25.1593L392.573 25.4962L393.051 25.8331L393.494 26.1522L393.902 26.4537L394.274 26.7374L394.628 27.0034L394.947 27.2515L395.249 27.4997L395.532 27.7302L395.78 27.943L396.011 28.138L396.206 28.2976C394.54 28.0494 392.768 28.6877 391.935 30.3543C389.649 37.0032 389.613 44.3081 388.816 51.2762C387.309 65.5136 390.677 79.6978 394.646 93.2969C397.801 106.382 404.499 118.474 413.414 128.563Z" fill="#B7B5B5"/>
<g id="Clothing 1">
<path d="M217.553 919.565C221.346 911.285 221.186 901.675 220.424 892.722C216.951 901.055 215.143 910.753 217.553 919.565ZM289.309 700.153C305.985 699.621 322.715 697.972 339.462 699.301C328.261 696.181 316.211 695.312 304.532 695.046C303.061 695.064 301.59 695.046 300.119 695.029C293.651 694.94 287.147 694.869 281.104 697.475C280.962 697.475 280.714 697.528 280.785 697.741C283.159 699.443 286.42 699.869 289.309 700.153ZM327.234 916.196C327.907 910.292 327.553 904.211 325.869 898.395C324.115 906.055 320.747 916.125 326.294 922.757C326.312 922.757 326.33 922.739 326.312 922.721C326.312 922.721 326.312 922.721 326.312 922.703C326.011 920.7 327.11 918.377 327.234 916.196ZM354.614 769.23C335.386 767.049 315.218 766.393 296.699 772.829C297.195 772.829 297.691 772.829 298.188 772.829C316.902 772.829 335.988 770.081 354.614 769.23ZM362.66 835.949C364.272 852.438 365.442 869.069 365.389 885.222C365.3 892.048 363.492 909.157 365.814 920.133C354.897 923.838 343.715 927.136 332.054 926.941C278.073 930.257 224.305 924.831 170.732 916.586C142.696 911.87 113.579 909.157 88.7511 893.892C81.8573 890.151 75.247 885.541 68.0874 882.349C69.0975 878.519 69.0799 874.3 69.2394 870.381C69.6292 865.044 69.1153 859.761 68.0165 854.584C68.9026 855.027 69.8065 855.399 70.6926 855.736C75.2648 857.456 79.8724 859.087 84.4978 860.647C82.1585 868.768 80.9357 877.722 82.7079 886.126C82.6902 886.126 82.6902 886.143 82.6902 886.161C82.6902 886.143 82.7079 886.143 82.7079 886.126C86.8902 878.608 85.1181 869.016 84.6041 860.683C96.655 864.761 108.848 868.324 121.164 871.498C118.01 881.197 115.6 892.012 118.152 902.065C118.169 902.065 118.169 902.048 118.169 902.048V902.03C121.058 892.225 121.838 881.658 121.306 871.534C131.532 874.158 141.81 876.498 152.142 878.608C159.142 880.168 166.195 881.569 173.249 882.846C172.097 886.746 171.158 890.824 170.378 894.778C169.226 900.31 168.393 906.126 170.697 911.498C170.573 911.462 170.714 911.675 170.732 911.746C170.768 911.799 170.821 911.835 170.874 911.835C172.522 909.902 173.249 906.232 173.656 903.661C174.206 896.835 174.542 889.956 174.578 883.076C188.064 885.47 201.639 887.349 215.267 888.75C234.035 891.037 252.837 893.165 271.693 894.548C270.293 902.81 269.779 911.516 272.225 919.565C272.19 919.601 272.243 919.636 272.243 919.672C272.261 919.742 272.225 919.867 272.314 919.92C274.848 916.462 274.724 911.214 274.582 906.959C274.387 902.828 274.05 898.768 273.536 894.69C281.706 895.275 289.894 895.7 298.099 895.948C305.4 896.073 312.737 896.161 320.092 896.161C333.862 896.161 347.631 895.807 361.171 894.601C340.791 894.353 320.393 893.378 300.031 892.225C290.957 891.604 281.901 890.736 272.845 889.76C272.81 889.512 272.775 889.264 272.721 889.016C272.668 889.246 272.633 889.495 272.58 889.725C253.901 887.686 235.275 885.115 216.614 882.988C168.73 877.491 121.164 867.403 75.9028 850.63C72.8546 849.211 69.5937 848.325 66.2975 848.023C66.2266 847.811 66.1734 847.598 66.1026 847.385C66.014 845.701 65.3051 844.123 64.2418 842.988C64.0646 840.328 63.2671 837.687 62.1151 835.346C56.4087 824.052 51.358 812.421 46.0592 800.932C40.1933 787.776 39.6439 773.148 41.6287 759.053C43.2946 748.539 46.5199 738.379 49.0364 728.06C51.801 716.784 53.715 705.33 56.3378 694.018C62.186 670.543 67.9279 646.997 71.4014 623.026C75.885 587.051 80.7053 550.81 80.0674 514.481C78.4015 484.25 76.0799 453.896 71.295 423.967C68.0697 405.812 63.0544 388.046 59.4924 369.978C58.8366 367.851 56.8341 367.106 55.0442 367.479L3.59766 198.065C3.7926 198.101 3.98757 198.119 4.18251 198.119C7.85092 198.119 11.4661 192.108 14.2307 190.051C21.3549 183.207 28.3196 176.222 36.064 170.105C56.072 155.052 79.3585 145.194 102.113 135.087C131.301 122.8 161.871 113.722 192.973 107.517C189.553 123.438 193.115 148.899 196.606 168.314C179.097 171.293 161.109 175.619 145.744 184.998C144.699 185.672 143.512 186.257 142.555 187.09C141.97 182.569 141.385 178.03 140.711 173.509C139.382 164.75 136.635 156.435 134.845 147.747C133.002 172.02 136.635 196.824 141.332 220.725C147.605 250.547 152.355 280.724 161.552 309.855C172.168 346.823 188.312 381.805 201.674 417.78C209.295 439.499 216.738 461.29 222.799 483.488C238.146 545.668 255.832 607.388 267.316 670.454C277.559 734.851 280.04 800.187 286.562 865.009C289.043 850.896 289.575 836.144 289.646 821.729C288.582 799.088 285.889 776.517 284.205 753.911C281.99 730.649 279.597 707.386 276.514 684.213C272.101 653.451 264.569 623.238 257.498 593.008C246.316 548.487 235.807 503.399 222.87 459.393C209.915 414.943 189.996 373.064 174.808 329.412C169.828 314.82 165.416 300.05 161.481 285.139C155.864 262.816 152.248 240.033 147.357 217.551C145.213 207.693 143.919 197.693 142.625 187.711C148.367 185.388 154.783 184.218 160.542 181.7C172.38 176.771 184.591 173.03 196.73 168.97C198.307 177.711 199.849 185.158 200.718 189.892C204.475 205.796 208.409 221.664 212.556 237.515C201.072 239.076 189.73 241.682 178.707 245.21C171.884 247.249 165.433 250.458 159.709 254.696C159.709 254.59 159.603 254.731 159.603 254.785C168.34 253.331 177.041 250.583 185.424 247.409C194.462 244.164 203.624 241.239 212.768 238.331C218.368 259.802 224.341 281.185 230.685 302.479C226.485 303.224 222.303 304.11 218.156 305.103C204.581 308.366 190.492 312.284 178.955 320.298C196.535 315.954 213.92 309.997 231.305 304.501C237.295 324.5 243.604 344.394 250.268 364.181C234.69 366.503 219.13 370.085 205.077 377.266C220.3 374.127 235.771 370.209 250.746 365.617C257.977 387 265.597 408.258 273.661 429.322C257.534 431.698 241.389 435.191 226.804 442.407C226.237 442.708 220.743 445.616 221.594 446.396H221.612C221.629 446.396 221.647 446.379 221.629 446.361C221.629 446.343 221.629 446.325 221.612 446.308C221.594 446.29 221.612 446.254 221.612 446.237C225.156 444.605 229.48 444.729 233.326 443.577C247.025 439.747 260.688 435.191 274.334 431.077C274.759 432.212 275.202 433.347 275.628 434.481C282.114 452.85 288.228 471.325 293.97 489.924C287.041 490.598 280.111 491.396 273.182 492.318C262.354 494.162 250.959 494.694 240.84 499.268C239.865 499.587 237.65 501.13 239.865 501.36C239.9 501.236 239.493 501.076 239.422 500.935C247.84 500.527 256.329 499.197 264.587 497.247C274.458 495.19 284.471 493.275 294.36 491.254C301.501 514.445 308.094 537.796 314.173 561.306C299.694 561.838 285.251 564.055 271.339 568.115C268.255 569.125 264.516 570.242 261.486 571.732C262.053 571.891 262.886 571.82 263.559 571.909H263.488C265.225 572.104 266.944 572.193 268.663 572.193C280.023 572.193 291.063 568.239 302.086 565.703C306.233 564.675 310.38 563.753 314.563 562.867C319.897 583.611 324.823 604.462 329.36 625.401C314.793 625.171 300.243 625.987 285.694 627.441C284.152 627.494 273.164 630.738 274.688 632.565C274.759 632.565 274.671 632.387 274.688 632.316C292.889 632.192 311.39 628.965 329.662 626.873C341.447 681.394 350.644 736.5 357.662 791.783C359.275 806.003 361.1 820.79 362.571 835.683C353.462 835.825 344.052 836.321 334.872 836.516C321.173 836.428 307.598 837.793 293.988 839.087C298.188 840.506 302.937 841.055 307.438 841.304C308.147 841.304 308.856 841.304 309.565 841.304C327.393 841.286 345.115 838.75 362.66 835.949Z" fill="white"/>
<path d="M474.112 534.605C493.021 538.842 501.634 509.605 482.495 503.896C473.155 501.573 462.912 509.534 463.089 519.25C463.231 525.793 467.909 532.459 474.112 534.605ZM497.452 815.311C512.196 815.47 526.976 812.492 541.118 808.91C526.498 809.283 511.08 809.85 497.381 815.329C497.381 815.346 497.399 815.364 497.416 815.364C497.434 815.329 497.452 815.329 497.452 815.311ZM500.766 226.788C501.847 209.661 502.183 192.658 502.343 175.477C499.436 186.186 497.505 197.498 495.928 208.615C495.449 213.225 495.024 217.835 494.598 222.445C483.256 218.455 460.573 210.743 455.114 214.572C455.026 214.732 455.522 215.086 455.451 214.821C462.044 218.845 470.018 218.898 477.408 220.547C483.097 221.54 488.803 222.48 494.528 223.331C492.507 246.115 491.143 268.933 490.381 291.77C479.056 287.674 467.041 284.022 455.221 282.444C459.527 289.43 479.517 291.008 490.345 292.497C489.69 312.479 489.495 332.461 489.707 352.443C488.484 352.071 487.262 351.699 486.039 351.344C486.198 343.188 480.439 335.014 468.671 336.06C452.81 339.411 450.914 364.642 468.671 366.627C479.234 367.301 485.011 360.475 485.915 353.099C487.173 353.223 488.449 353.348 489.725 353.454C489.92 371.539 490.452 389.606 491.284 407.691H491.728L496.477 407.655H497.753C494.917 347.39 495.68 286.947 500.766 226.788ZM601.071 755.17C601.231 768.591 598.537 781.783 595.312 794.726C593.663 802.137 590.544 811.375 586.327 818.254C581.542 826.446 575.321 835.719 569.526 843.697C568.711 844.548 568.109 845.576 567.736 846.676C562.934 848.52 557.972 849.725 552.744 850.683C537.662 852.456 523.095 856.445 508.616 860.949C509.095 861.126 509.839 861.073 510.442 861.161C512.409 861.197 514.358 861.215 516.325 861.215C521.89 861.215 527.49 861.055 533.073 860.665C532.505 865.505 532.364 870.576 532.346 875.452C532.523 879.672 531.903 884.512 534.916 887.917C535.022 888.023 535.483 888.679 535.784 888.679C535.873 888.679 535.943 888.644 535.979 888.519C538.814 883.856 536.9 878.254 536.387 873.165C535.749 868.945 535.057 864.743 534.242 860.559C542.802 859.92 551.308 858.733 559.655 856.818C558.007 864.672 558.025 872.988 560.205 880.824C562.544 873.271 562.065 864.619 561.091 856.498C562.757 856.091 564.405 855.665 566.035 855.204C566.726 854.938 567.453 854.672 568.18 854.406C567.24 862.154 564.812 870.381 567.152 877.952C567.577 878.945 568.038 879.814 568.498 880.559C562.579 881.747 556.838 883.768 551.06 885.665C536.121 890.328 520.862 894.477 505.178 895.062C505.054 891.108 504.381 887.207 503.832 883.307C499.667 855.63 494.705 828.094 490.186 800.488C482.459 756.96 478.472 712.847 473.829 668.699C467.679 618.167 463.833 567.441 459.687 516.715C458.8 507.247 458.021 497.761 457.312 488.275C457.471 487.974 457.808 488.027 458.109 488.045C461.228 488.648 464.223 489.516 467.466 489.747C469.256 489.8 471.046 489.818 472.854 489.818C481.024 489.818 489.264 489.428 497.328 489.339C499.649 513.789 502.396 538.186 505.515 562.512C494.864 559.392 483.77 556.253 472.659 557.424C470.656 557.725 468.53 558.079 466.651 558.877C466.102 559.126 465.056 559.427 465.233 560.225C465.233 560.243 465.269 560.26 465.269 560.225C465.322 560.065 465.428 559.941 465.606 559.923C474.644 561.714 484.001 561.962 493.287 562.459C497.328 562.689 501.563 562.973 505.568 563.044C506.472 570.136 507.411 577.21 508.386 584.285C511.133 602.512 514.305 620.667 517.584 638.806C504.416 636.288 486.322 633.93 475.707 638.806C476.717 638.876 477.692 639.302 478.72 639.479C482.619 640.49 486.57 640.774 490.558 640.774C493.854 640.774 497.15 640.579 500.429 640.455C506.171 640.224 512.072 640.224 517.814 640.047C521.252 659.036 524.814 677.99 528.128 696.997C524.371 696.624 520.579 696.394 516.768 696.27C523.024 685.862 514.713 674.39 503.725 672.422C496.424 669.515 488.821 676.358 486.907 683.167C485.436 687.67 486.021 692.901 488.236 697.192C486.606 697.458 485.011 697.847 483.451 698.397C483.416 698.415 483.327 698.557 483.398 698.521C483.522 698.433 483.7 698.433 483.841 698.397C484.16 698.362 484.462 698.362 484.781 698.38C486.234 698.45 487.705 698.628 489.176 698.823C491.019 701.677 493.659 703.947 496.902 705.046C503.318 706.854 510.424 703.911 514.784 698.965C519.285 698.628 523.786 698.22 528.288 697.919C531.637 717.227 534.756 736.57 537.237 756.021C537.326 756.836 537.432 757.634 537.521 758.45C531.885 758.397 526.108 758.592 520.49 758.928C511.133 759.709 501.864 759.673 492.897 762.9C492.844 762.882 492.809 762.953 492.844 762.989C494.581 763.964 496.672 764.23 498.621 764.567C499.95 764.726 501.262 764.797 502.591 764.797C508.634 764.797 514.677 763.29 520.632 762.439C526.303 761.464 531.974 760.453 537.627 759.407C539.045 771.677 540.321 784.141 540.994 796.464C541.366 803.148 541.703 809.832 541.969 816.517C542.058 823.095 542.376 829.619 545.106 835.736C545.035 835.736 544.928 835.665 544.911 835.736C544.964 835.878 544.999 836.055 545.088 836.18C545.194 836.321 545.318 836.392 545.442 836.392C546.204 836.392 547.09 833.963 547.215 833.68C549.891 827.545 548.632 820.754 548.384 814.247C547.498 796.588 546.311 778.928 544.166 761.393C538.088 709.319 526.87 657.99 518.523 606.27C509.29 552.548 504.186 498.186 500.092 443.879C499.206 431.822 498.444 419.765 497.806 407.709L496.53 407.726L491.781 407.762H491.338C491.568 412.443 491.834 417.141 492.117 421.822C483.044 418.63 473.882 415.989 464.188 415.546C463.568 415.581 462.841 415.563 462.079 415.546C460.2 415.51 458.145 415.457 457.046 416.184C463.94 418.648 471.17 420.705 478.578 421.184C483.062 421.698 487.687 422.301 492.171 422.708C493.464 444.659 495.183 466.609 497.257 488.506C484.887 485.633 471.702 483.399 459.35 486.768C458.765 486.963 457.347 487.353 457.329 488.116C455.309 460.651 453.98 433.134 453.058 405.599C452.669 392.053 452.385 378.471 452.155 364.908C450.702 305.121 446.395 245.388 448.717 185.548C448.965 175.034 449.55 164.537 450.134 154.041C450.631 145.264 451.41 135.371 448.415 126.967C454.459 130.885 459.793 136.417 465.659 140.424C477.178 148.633 487.722 158.083 499.135 166.452C511.594 175.335 525.24 182.427 538.106 190.601C539.009 191.399 540.002 191.736 540.959 191.736C541.242 191.736 541.526 191.7 541.792 191.647L560.896 343.188C557.156 343.684 557.121 348.95 557.369 352.195C557.511 357.479 557.972 362.762 558.557 368.028C559.762 380.599 561.321 393.117 562.438 405.687C563.022 412.123 563.501 418.56 563.749 425.031C565.415 449.269 568.002 473.453 569.225 497.725C570.271 522.406 572.734 546.98 576.154 571.448C579.539 595.863 584.501 620.029 589.162 644.213C595.17 680.915 599.707 718.007 601.071 755.17Z" fill="white"/>
</g>
<path id="Clothing 2" d="M471.295 775.188C475.159 800.418 479.642 825.542 483.382 850.79C463.728 855.506 444.943 864.424 424.917 868.644C413.894 871.162 401.861 873.768 390.448 875.258C387.985 875.435 385.043 875.63 382.633 876.641C379.071 806.819 357.681 691.182 354.952 675.029C338.559 596.058 320.146 517.229 293.811 440.9C269.71 374.057 246.547 306.859 228.932 237.941C219.468 201.47 207.47 164.449 204.848 126.595C209.349 126.471 213.443 123.173 215.658 119.113C215.818 118.865 215.995 118.616 216.172 118.368C241.514 155.354 292.766 172.109 335.847 173.811C358.602 174.183 381.729 169.201 400.798 156.346C408.861 150.868 414.674 144.449 422.294 137.889C422.401 137.801 422.507 137.694 422.613 137.606C423.517 138.386 424.439 139.13 425.36 139.875C426.955 141.293 428.887 141.914 430.801 141.914C431.793 141.914 432.786 141.754 433.725 141.435C433.566 146.258 432.715 151.24 432.75 155.761C432.307 162.233 431.864 168.705 431.581 175.194C431.067 191.417 431.014 207.658 430.872 223.899C430.712 273.526 434.682 323.029 436.153 372.621C436.33 383.862 436.631 395.085 437.057 406.309L437.624 406.238L438.829 406.149L440.069 406.06L441.363 405.972L442.71 405.901L444.11 405.83L445.563 405.794L447.07 405.741L448.629 405.706L447.07 405.759L445.563 405.812L444.11 405.865L442.71 405.936L441.363 406.007L440.069 406.096L438.847 406.184L437.642 406.291L437.074 406.362C439.449 462.46 444.447 518.435 449.391 574.374C455.293 641.413 462.346 708.451 471.295 775.188Z" fill="#E2E2E2"/>
<g id="Outline">
<path d="M425.375 139.857C410.56 128.191 399.094 111.737 394.646 93.28C390.694 79.6808 387.309 65.5143 388.815 51.2591C389.612 44.2911 389.648 36.9863 391.934 30.3374C393.547 27.0573 398.881 27.7842 399.696 31.2948C400.441 39.2025 399.767 47.252 399.944 55.213C400.033 66.4717 402.78 77.4291 406.714 87.9254C409.426 96.2587 413.059 104.344 418.995 110.904C422.611 114.858 426.616 118.386 430.851 121.666C434.342 124.68 439.464 126.577 439.996 131.79C441.059 137.464 435.937 141.879 430.816 141.879C428.902 141.896 426.97 141.276 425.375 139.857Z" fill="black"/>
<path d="M200.432 125.673C195.771 123.67 193.45 118.014 194.974 113.227C197.189 107.659 201.708 105.035 205.075 100.425C213.263 91.2764 220.316 81.2056 226.022 70.3369C234.387 54.8229 241.884 38.5464 242.805 20.6565C243.159 16.7381 243.248 12.802 243.868 8.91906C244.116 7.32333 244.595 5.79849 246.03 4.89425C248.405 3.2276 251.79 4.69929 252.428 7.51841C253.562 21.0821 253.509 35.0713 250.142 48.3513C245.871 62.1277 242.078 76.2056 234.99 88.865C231.357 95.8685 228.007 103.049 223.098 109.29C220.582 112.553 217.924 115.691 215.655 119.131C213.387 123.28 209.169 126.613 204.561 126.613C203.214 126.595 201.814 126.311 200.432 125.673Z" fill="black"/>
<path d="M370.987 929.3C361.789 924.513 365.263 894.779 365.405 885.222C365.493 854.407 361.151 821.801 357.749 791.766C342.331 670.384 316.457 549.924 275.661 434.464C244.949 354.926 220.334 272.746 200.769 189.91C197.171 170.052 181.434 102.092 202.169 93.4395C212.554 91.5424 215.053 105.762 212.696 113.085C210.746 116.223 205.89 115.709 204.366 112.571C204.49 155.318 218.331 196.985 228.964 237.942C246.58 306.877 269.742 374.057 293.844 440.9C320.178 517.229 338.591 596.041 354.984 675.029C358.936 698.416 401.912 929.85 373.557 929.85C372.724 929.85 371.873 929.655 370.987 929.3Z" fill="black"/>
<path d="M436.186 372.621C434.697 323.047 430.745 273.544 430.904 223.899C431.046 207.658 431.099 191.417 431.613 175.194C431.897 168.705 432.34 162.233 432.783 155.762C432.73 146.577 436.292 135.514 430.284 127.712C426.314 130.567 420.413 132.748 417.985 126.932C416.39 121.099 422.079 115.939 426.97 113.847C432.251 111.702 438.277 113.776 442.353 117.411C452.082 126.914 450.788 141.595 450.097 154.042C449.512 164.538 448.928 175.034 448.679 185.549C446.358 245.388 450.664 305.122 452.117 364.908C452.348 378.472 452.631 392.036 453.021 405.582L451.869 405.6L447.12 405.706L445.614 405.759L444.16 405.812L442.76 405.883L441.413 405.954L440.12 406.043L438.879 406.131L437.674 406.238L437.107 406.291C436.664 395.068 436.363 383.844 436.186 372.621Z" fill="black"/>
<path d="M59.4373 850.843C47.5282 847.811 45.508 833.556 40.4395 824.106C33.4217 809.035 26.8114 793.149 27.1304 776.234C26.4038 758.717 31.3127 741.979 35.6191 725.206C41.8572 696.324 48.5207 667.547 54.8474 638.7C59.4019 614.959 61.688 590.864 64.1159 566.821C65.888 550.651 67.8375 534.464 67.9084 518.187C67.4653 489.499 65.126 460.741 61.8829 432.248C59.3132 412.887 54.4398 393.898 51.941 374.536C51.8169 373.206 51.746 371.77 52.0296 370.476C52.7562 366.859 58.3562 366.203 59.5436 370.033C63.1057 388.117 68.121 405.865 71.3464 424.021C76.1313 453.95 78.4528 484.287 80.1186 514.535C80.7389 550.864 75.9363 587.105 71.4527 623.08C67.9792 647.051 62.2374 670.597 56.3892 694.072C53.7663 705.384 51.8701 716.837 49.0878 728.114C46.5536 738.433 43.3282 748.593 41.6801 759.107C39.6952 773.202 40.2269 787.83 46.1105 800.986C51.4094 812.475 56.4601 824.106 62.1665 835.4C64.364 839.868 65.3032 845.524 62.9816 850.099C62.6626 850.879 61.9538 851.092 61.1917 851.092C60.5715 851.038 59.9512 850.914 59.4373 850.843Z" fill="black"/>
<path d="M558.484 368.064C557.917 362.816 557.438 357.533 557.296 352.231C557.013 348.632 557.101 342.568 562.152 343.242C564.846 343.88 565.519 346.203 565.13 348.65C566.636 367.692 569.861 386.557 572.218 405.511L570.216 405.546L562.56 405.706H562.365C561.248 393.153 559.689 380.617 558.484 368.064Z" fill="black"/>
<path d="M59.579 891.534C50.3814 884.85 56.1587 871.676 55.5561 862.474C55.6448 856.02 52.9865 848.219 57.1334 842.616C61.0499 839.053 65.8703 842.776 66.1361 847.386C68.4577 854.832 69.8223 862.545 69.2552 870.364C69.0071 877.013 69.2374 884.513 64.0981 889.513C63.1765 890.382 61.8828 891.783 60.536 891.783C60.1993 891.783 59.898 891.712 59.579 891.534Z" fill="black"/>
<path d="M281.013 940.222C242.096 938.076 203.197 933.857 164.74 927.385C145.831 923.998 126.674 921.268 108.491 914.814C96.6177 911.055 85.3644 905.789 75.3516 898.343C71.2224 895.524 66.9337 892.9 62.6627 890.293C61.3513 889.442 59.6323 888.556 58.9412 887.084C57.3285 884.141 59.5791 880.205 62.9994 880.364C72.1793 883.343 80.2605 889.282 88.7493 893.875C113.578 909.14 142.694 911.853 170.73 916.569C224.303 924.814 278.071 930.24 332.052 926.924C345.911 927.137 359.096 922.456 371.926 917.988C377.172 917.261 381.833 922.669 380.255 927.775C379.263 931.481 375.666 933.342 372.192 934.211C363.934 936.587 355.445 938.307 347.009 939.92C340.24 940.523 333.417 940.63 326.594 940.505C321.384 940.452 316.173 940.523 310.963 940.594C306.869 940.647 302.776 940.7 298.682 940.7C292.798 940.718 286.915 940.612 281.013 940.222Z" fill="black"/>
<path d="M298.115 895.914C270.398 895.08 242.805 892.084 215.283 888.715C194.07 886.534 172.981 883.183 152.158 878.573C124.494 872.918 97.1494 865.63 70.6907 855.701C66.7742 854.265 62.6804 851.818 60.8374 847.989C65.9944 847.51 71.1868 848.396 75.9363 850.613C121.198 867.386 168.763 877.474 216.648 882.971C244.435 886.144 272.135 890.293 300.064 892.208C320.427 893.36 340.807 894.336 361.205 894.584C347.665 895.789 333.878 896.144 320.125 896.144C312.771 896.144 305.416 896.038 298.115 895.914Z" fill="black"/>
<path d="M1.96537 197.286C-1.6676 193.864 3.06412 190.566 5.27935 188.261C12.2972 181.24 18.8011 173.687 26.2443 167.091C44.994 151.081 67.5184 139.858 90.0074 130.159C114.304 119.007 139.593 110.319 165.343 103.227C170.659 101.525 176.401 99.8047 181.665 98.404C188.045 96.5246 194.424 94.592 200.946 93.2268C203.25 92.5707 205.784 92.6594 207.84 94.0247C213.652 98.0317 209.417 105.62 203.126 105.638C168.551 111.844 134.525 121.489 102.182 135.106C79.4274 145.212 56.141 155.088 36.1331 170.123C28.3887 176.24 21.4063 183.226 14.2998 190.07C11.5352 192.126 7.93759 198.137 4.25145 198.137C3.47169 198.137 2.72741 197.889 1.96537 197.286Z" fill="black"/>
<path d="M538.051 190.619C525.185 182.428 511.539 175.336 499.08 166.471C487.685 158.12 477.123 148.652 465.604 140.443C455.609 133.634 447.173 122.304 434.041 122.251C433.137 122.216 432.216 122.234 431.294 122.251C428.158 122.322 424.968 122.411 422.504 120.159C417.205 115.266 425.127 109.822 430.213 111.099C443.203 110.656 455.112 117.11 463.566 126.702C473.153 135.531 483.999 142.907 493.959 151.187C508.827 163.226 525.823 171.542 541.524 182.038C542.658 182.854 543.97 183.776 544.696 184.981C546.734 188.208 544.005 191.754 540.904 191.754C539.947 191.754 538.954 191.417 538.051 190.619Z" fill="black"/>
<path d="M495.926 208.616C497.503 197.499 499.435 186.205 502.341 175.478C502.182 192.641 501.863 209.662 500.764 226.789C495.678 286.93 494.898 347.373 497.733 407.656L496.458 407.674L491.708 407.709H491.265C488.217 341.309 489.209 274.767 495.926 208.616Z" fill="black"/>
<path d="M267.367 670.49C255.884 607.424 238.197 545.704 222.85 483.524C216.789 461.326 209.346 439.517 201.726 417.816C188.364 381.841 172.219 346.859 161.604 309.891C152.406 280.76 147.639 250.583 141.383 220.761C136.687 196.86 133.054 172.056 134.897 147.783C136.687 156.453 139.434 164.786 140.763 173.545C142.943 188.226 144.254 203.031 147.408 217.552C152.3 240.051 155.915 262.817 161.533 285.14C165.467 300.051 169.88 314.82 174.859 329.412C190.047 373.064 209.966 414.943 222.921 459.393C235.858 503.4 246.367 548.488 257.55 593.009C264.621 623.239 272.152 653.452 276.565 684.214C279.666 707.387 282.059 730.649 284.256 753.912C285.94 776.518 288.634 799.088 289.697 821.73C289.626 836.145 289.094 850.896 286.613 865.01C280.092 800.223 277.611 734.905 267.367 670.49Z" fill="black"/>
<path d="M82.7061 886.091C80.9162 877.581 82.1744 868.52 84.5846 860.311C85.0631 868.733 86.9416 878.502 82.6884 886.126C82.6884 886.109 82.6884 886.091 82.7061 886.091Z" fill="black"/>
<path d="M118.167 902.031C115.562 891.836 118.097 880.843 121.304 871.038C121.889 881.304 121.109 892.049 118.185 901.995C118.185 901.995 118.185 901.995 118.185 902.013C118.185 902.031 118.185 902.031 118.167 902.031Z" fill="black"/>
<path d="M170.748 911.711C170.73 911.641 170.571 911.428 170.713 911.463C168.409 906.091 169.259 900.293 170.394 894.744C171.457 889.389 172.768 883.804 174.576 878.786C174.665 887.066 174.31 895.382 173.654 903.626C173.265 906.197 172.52 909.868 170.872 911.8C170.837 911.8 170.783 911.765 170.748 911.711Z" fill="black"/>
<path d="M220.44 892.722C221.202 901.676 221.362 911.286 217.569 919.566C215.141 910.754 216.949 901.056 220.44 892.722Z" fill="black"/>
<path d="M272.259 919.637C272.259 919.601 272.206 919.566 272.241 919.531C269.246 909.655 270.699 898.804 272.755 888.999C273.73 894.974 274.314 900.896 274.598 906.924C274.74 911.18 274.864 916.428 272.33 919.885C272.241 919.832 272.276 919.708 272.259 919.637Z" fill="black"/>
<path d="M326.293 922.757C320.728 916.126 324.113 906.055 325.867 898.396C327.551 904.194 327.905 910.275 327.232 916.197C327.108 918.378 326.009 920.701 326.31 922.722C326.31 922.722 326.31 922.722 326.31 922.74C326.328 922.74 326.31 922.757 326.293 922.757C326.31 922.757 326.31 922.757 326.293 922.757Z" fill="black"/>
<path d="M141.861 188.084C141.737 188.013 141.95 187.765 141.985 187.729C142.996 186.577 144.52 185.868 145.796 185.034C162.312 174.946 181.86 170.708 200.592 167.694C187.194 172.251 173.654 176.258 160.593 181.701C154.568 184.343 147.834 185.495 141.897 188.048C141.915 188.066 141.897 188.084 141.861 188.084C141.879 188.084 141.879 188.084 141.861 188.084Z" fill="black"/>
<path d="M159.743 254.679C165.467 250.441 171.918 247.232 178.741 245.193C191.181 241.222 204.012 238.403 216.984 236.966C206.458 240.353 195.878 243.651 185.457 247.392C177.075 250.566 168.356 253.331 159.637 254.768C159.637 254.714 159.743 254.59 159.743 254.679Z" fill="black"/>
<path d="M218.189 305.086C226.643 303.065 235.22 301.469 243.886 300.618C222.301 307.019 200.804 314.891 178.989 320.281C190.543 312.249 204.614 308.331 218.189 305.086Z" fill="black"/>
<path d="M259.109 362.958C241.582 368.685 223.151 373.508 205.093 377.231C221.787 368.703 240.643 365.263 259.109 362.958Z" fill="black"/>
<path d="M221.592 446.344C220.741 445.564 226.235 442.656 226.802 442.354C245.162 433.294 265.985 430.085 286.135 427.62C268.573 432.461 250.993 438.613 233.324 443.542C229.478 444.695 225.154 444.571 221.61 446.202C221.61 446.22 221.592 446.255 221.61 446.273C221.61 446.291 221.628 446.308 221.628 446.326C221.628 446.344 221.627 446.362 221.61 446.362C221.61 446.362 221.592 446.362 221.592 446.344Z" fill="black"/>
<path d="M240.873 499.251C250.992 494.659 262.388 494.145 273.216 492.301C283.973 490.865 294.748 489.73 305.558 488.897C292.125 491.822 278.213 494.411 264.621 497.23C256.345 499.162 247.856 500.492 239.456 500.918C239.526 501.06 239.916 501.237 239.899 501.343C237.683 501.113 239.899 499.552 240.873 499.251Z" fill="black"/>
<path d="M263.522 571.874H263.593C262.919 571.786 262.086 571.857 261.519 571.697C264.55 570.208 268.289 569.091 271.373 568.08C287.943 563.257 305.292 561.024 322.518 561.165C322.553 561.165 322.553 561.201 322.518 561.201C315.695 562.602 308.872 564.002 302.12 565.669C291.097 568.204 280.056 572.158 268.697 572.158C266.978 572.158 265.259 572.069 263.522 571.874Z" fill="black"/>
<path d="M274.722 632.53C273.198 630.686 284.185 627.459 285.727 627.406C304.034 625.58 322.341 624.764 340.665 625.739C318.867 627.53 296.591 632.14 274.74 632.282C274.722 632.353 274.811 632.53 274.722 632.53C274.74 632.53 274.74 632.53 274.722 632.53Z" fill="black"/>
<path d="M280.783 697.724C280.712 697.512 280.96 697.458 281.102 697.458C287.145 694.852 293.649 694.923 300.117 695.012C301.588 695.029 303.059 695.047 304.53 695.029C316.227 695.295 328.277 696.164 339.46 699.284C322.713 697.937 305.966 699.604 289.307 700.136C286.418 699.87 283.158 699.444 280.783 697.724Z" fill="black"/>
<path d="M296.697 772.83C315.216 766.411 335.384 767.067 354.612 769.231C335.986 770.082 316.882 772.83 298.168 772.83C297.689 772.83 297.193 772.83 296.697 772.83Z" fill="black"/>
<path d="M307.507 841.287C303.006 841.039 298.257 840.489 294.057 839.07C307.667 837.776 321.242 836.411 334.941 836.499C344.794 836.287 354.878 835.737 364.607 835.631C346.442 838.574 328.047 841.287 309.634 841.287C308.907 841.287 308.216 841.287 307.507 841.287Z" fill="black"/>
<path d="M477.389 220.566C470.017 218.917 462.042 218.864 455.431 214.839C455.52 215.105 455.006 214.75 455.095 214.591C461.439 210.14 490.946 221.24 499.045 224.023C491.814 222.977 484.602 221.825 477.389 220.566Z" fill="black"/>
<path d="M455.219 282.462C468.262 284.2 481.536 288.473 493.852 293.065C484.637 291.328 460.057 290.299 455.219 282.462Z" fill="black"/>
<path d="M475.333 351.983C469.184 351.416 463.034 350.121 457.54 347.302C469.68 346.664 482.51 350.068 494.012 353.845C487.774 353.331 481.536 352.745 475.333 351.983Z" fill="black"/>
<path d="M495.412 904.3C491.655 903.75 488.589 899.247 488.908 895.754C488.571 889.229 487.242 880.506 486.64 874.549C482.528 841.269 476.361 808.326 471.31 775.206C462.361 708.451 455.29 641.43 449.406 574.339C444.479 518.4 439.464 462.425 437.107 406.326L437.674 406.256L438.879 406.149L440.12 406.043L441.413 405.954L442.76 405.883L444.16 405.812L445.614 405.759L447.12 405.706L451.869 405.6L453.021 405.582C454.28 442.674 456.229 479.73 459.667 516.68C463.796 567.389 467.659 618.133 473.809 668.664C478.47 712.813 482.457 756.926 490.166 800.454C494.685 828.078 499.647 855.613 503.812 883.272C504.397 887.314 505.07 891.339 505.177 895.417C505.478 900.134 501.685 904.477 497.149 904.477C496.564 904.513 495.979 904.442 495.412 904.3Z" fill="black"/>
<path d="M570.641 856.003C566.512 853.308 566.193 847.138 569.507 843.68C575.302 835.702 581.522 826.429 586.307 818.237C590.525 811.358 593.644 802.12 595.292 794.709C598.535 781.784 601.229 768.592 601.052 755.153C599.687 717.99 595.15 680.898 589.089 644.232C584.429 620.048 579.467 595.881 576.082 571.467C572.661 546.999 570.198 522.425 569.152 497.744C567.93 473.471 565.342 449.305 563.676 425.05C563.428 418.578 562.95 412.142 562.365 405.706H562.56L570.216 405.546L572.218 405.511C573.423 414.943 574.416 424.411 574.912 433.933C578.226 463.968 580.211 494.091 582.284 524.215C585.527 556.254 590.543 587.956 596.834 619.498C604.543 655.047 609.806 691.111 612.819 727.334C613.74 739.16 614.875 751.022 614.254 762.865C613.546 774.55 611.206 786.128 608.867 797.546C607.183 809.177 602.611 819.886 596.657 829.85C593.52 835.506 589.958 840.879 586.484 846.34C583.631 850.79 580.122 857.386 574.912 857.386C573.618 857.421 572.183 856.996 570.641 856.003Z" fill="black"/>
<path d="M567.114 877.971C564.633 869.939 567.522 861.18 568.302 853.024C568.851 849.762 568.798 845.985 571.722 843.911C585.758 837.457 580.796 862.634 581.859 870.134C583.064 877.386 578.864 884.566 574.132 884.566C571.722 884.566 569.17 882.687 567.114 877.971Z" fill="black"/>
<path d="M513.506 908.289C507.179 907.828 499.452 907.545 494.951 902.314C493.073 899.956 493.923 896.055 496.776 895.009C498.425 894.389 500.161 894.921 501.863 895.151C518.681 895.08 535.056 890.683 551.023 885.701C558.431 883.272 565.767 880.63 573.512 879.797C576.294 879.531 579.218 879.549 581.948 879.194C580.636 883.822 577.694 887.9 574.309 891.18C566.352 898.928 555.489 901.871 545.068 904.371C535.959 906.091 526.779 908.449 517.476 908.449C516.146 908.431 514.835 908.378 513.506 908.289Z" fill="black"/>
<path d="M510.405 861.162C509.802 861.074 509.058 861.127 508.579 860.949C523.058 856.446 537.625 852.456 552.707 850.683C559.848 849.371 566.494 847.599 572.909 844.389C574.38 843.574 575.94 842.864 577.659 843.13C580.689 843.432 581.469 846.18 579.661 848.503C576.117 852.12 570.606 853.414 565.998 855.223C549.906 859.726 533 861.215 516.288 861.215C514.321 861.215 512.354 861.198 510.405 861.162Z" fill="black"/>
<path d="M545.033 836.216C544.944 836.109 544.909 835.914 544.856 835.773C544.873 835.702 544.98 835.773 545.051 835.773C542.322 829.656 542.003 823.131 541.914 816.553C541.648 809.868 541.311 803.184 540.939 796.5C540.213 783.025 538.742 769.408 537.182 756.039C529.845 698.433 516.979 641.696 508.349 584.286C500.356 525.793 494.295 466.84 491.3 407.78H491.743L496.493 407.745L497.769 407.727C498.389 419.801 499.151 431.84 500.055 443.897C504.149 498.223 509.253 552.584 518.486 606.289C526.833 658.008 538.051 709.338 544.129 761.411C546.291 778.964 547.461 796.624 548.347 814.266C548.595 820.773 549.853 827.546 547.177 833.698C547.053 833.982 546.167 836.411 545.405 836.411C545.263 836.411 545.139 836.358 545.033 836.216Z" fill="black"/>
<path d="M534.896 887.917C531.901 884.513 532.504 879.691 532.326 875.453C532.344 869.407 532.575 863.077 533.531 857.208C534.648 862.492 535.552 867.829 536.367 873.166C536.881 878.237 538.795 883.839 535.959 888.52C535.906 888.627 535.835 888.68 535.764 888.68C535.445 888.68 534.985 888.024 534.896 887.917Z" fill="black"/>
<path d="M560.593 852.9C561.815 862.013 562.843 872.155 560.15 880.843C557.633 871.676 558.023 861.871 560.593 852.9Z" fill="black"/>
<path d="M478.523 421.184C471.115 420.688 463.902 418.649 456.991 416.184C458.09 415.475 460.145 415.511 462.024 415.546C462.786 415.564 463.512 415.582 464.133 415.546C474.961 416.06 485.098 419.269 495.199 422.957C489.759 422.585 484.034 421.805 478.523 421.184Z" fill="black"/>
<path d="M467.429 489.748C464.204 489.517 461.191 488.648 458.072 488.028C457.788 488.028 457.434 487.957 457.292 488.258C457.097 487.39 458.674 486.964 459.295 486.751C472.763 483.099 487.207 486.042 500.533 489.287C491.442 489.304 482.085 489.801 472.834 489.801C471.009 489.819 469.219 489.801 467.429 489.748Z" fill="black"/>
<path d="M493.055 562.424L493.25 562.442C483.946 561.946 474.589 561.697 465.551 559.906C465.373 559.924 465.267 560.048 465.214 560.208C465.214 560.226 465.178 560.226 465.178 560.208C465.001 559.41 466.047 559.109 466.596 558.86C468.475 558.063 470.601 557.708 472.604 557.407C484.336 556.166 496.085 559.747 507.285 563.027C507.232 563.027 507.197 563.027 507.144 563.027C502.625 563.045 497.698 562.69 493.055 562.424Z" fill="black"/>
<path d="M478.665 639.48C477.655 639.285 476.68 638.877 475.67 638.806C487.774 633.239 509.625 637.087 522.774 639.853C515.473 640.26 507.799 640.154 500.374 640.455C497.095 640.579 493.799 640.774 490.503 640.774C486.516 640.774 482.564 640.491 478.665 639.48Z" fill="black"/>
<path d="M491.265 699.107C489.067 698.876 486.888 698.504 484.726 698.415C484.407 698.398 484.105 698.415 483.786 698.433C483.627 698.469 483.45 698.469 483.343 698.557C483.255 698.593 483.343 698.451 483.396 698.433C489.156 696.394 495.66 696.696 501.721 696.252C512.265 696.004 523.129 696.252 533.461 697.653C522.721 698.132 511.946 699.603 501.189 699.603C497.875 699.586 494.579 699.444 491.265 699.107Z" fill="black"/>
<path d="M498.566 764.603C496.617 764.248 494.526 763.982 492.789 763.025C492.754 762.989 492.789 762.918 492.842 762.918C501.809 759.692 511.078 759.727 520.435 758.947C527.612 758.521 535.073 758.326 542.162 758.575C534.985 759.975 527.79 761.234 520.595 762.475C514.622 763.344 508.597 764.833 502.536 764.833C501.225 764.833 499.896 764.763 498.566 764.603Z" fill="black"/>
<path d="M497.379 815.329C511.078 809.851 526.514 809.283 541.116 808.911C526.957 812.493 512.177 815.471 497.432 815.312C497.45 815.312 497.414 815.329 497.414 815.347C497.414 815.347 497.414 815.347 497.397 815.347C497.397 815.365 497.379 815.347 497.379 815.329Z" fill="black"/>
<path d="M468.67 366.664C450.912 364.678 452.809 339.448 468.67 336.097C491.974 334.022 491.673 368.1 468.67 366.664Z" fill="black"/>
<path d="M474.11 534.605C467.908 532.46 463.229 525.793 463.087 519.251C462.91 509.535 473.136 501.574 482.493 503.896C501.632 509.606 493.019 538.843 474.11 534.605Z" fill="black"/>
<path d="M496.847 705.065C488.412 702.21 484.141 691.448 486.852 683.185C488.766 676.377 496.369 669.515 503.67 672.441C514.764 674.427 523.129 686.093 516.536 696.59C512.566 702.919 504.255 707.139 496.847 705.065Z" fill="black"/>
<path d="M335.845 173.793C291.7 172.056 238.995 154.52 214.344 115.602C212.164 112.375 211.579 106.329 216.772 106.046C218.81 105.993 220.635 107.553 220.99 109.556C222.514 113.085 225.048 116.046 227.476 118.971C238.623 131.542 252.428 141.24 267.686 148.173C308.712 165.761 362.764 173.049 399.253 142.074C403.524 138.226 407.689 134.272 411.747 130.194C413.732 128.085 416.054 125.868 419.155 125.939C426.013 125.726 426.935 134.113 422.292 137.872C414.671 144.432 408.858 150.833 400.795 156.329C381.726 169.183 358.617 174.166 335.845 173.793Z" fill="black"/>
<path d="M383.038 882.084C381.478 881.73 380.043 880.932 378.802 879.974C380.894 875.949 386.334 875.559 390.463 875.276C401.894 873.786 413.909 871.18 424.932 868.662C445.082 864.425 463.938 855.435 483.716 850.737C485.878 850.24 488.199 849.62 490.326 849.372C469.839 864.957 444.444 870.843 419.952 876.659C410.507 878.644 400.317 880.861 390.942 882.013C388.266 882.226 385.625 882.829 383.038 882.084Z" fill="black"/>
<path d="M3.4186 201.825C1.54009 199.449 1.66409 195.868 3.80843 193.669C4.05653 193.385 4.34016 193.119 4.65915 192.889C5.24397 192.463 5.84647 192.144 6.50218 191.914C6.73256 191.736 6.94523 191.541 7.17562 191.364C7.72499 190.868 8.25664 190.353 8.38069 190.229C9.39083 189.307 10.3478 188.314 11.3579 187.375C13.5377 185.336 15.7175 183.279 17.9328 181.276C19.5455 179.804 21.0695 178.244 22.6645 176.736C24.5253 174.963 26.4924 173.35 28.4595 171.701C32.2166 168.563 36.1509 165.62 40.0142 162.605C43.789 159.662 47.794 157.074 51.7992 154.467C53.8903 153.12 55.9639 151.755 58.0728 150.46C60.1816 149.166 62.3614 147.96 64.4703 146.666C66.8273 145.23 69.1665 143.74 71.6121 142.446C73.9337 141.205 76.3262 140.123 78.7364 139.024C83.4326 136.843 88.0934 134.592 92.7543 132.304C94.9695 131.223 97.1494 130.124 99.3646 129.042C101.704 127.907 104.079 126.843 106.418 125.726C108.793 124.592 111.167 123.386 113.56 122.269C115.864 121.205 118.203 120.301 120.56 119.379C122.367 118.687 124.14 117.925 125.947 117.234C127.808 116.524 129.899 116.347 131.884 116.613C132.841 116.737 134.153 116.985 134.808 117.766C134.844 117.801 134.95 117.978 134.897 118.031C134.879 118.049 134.861 118.067 134.861 118.067C134.861 118.067 134.861 118.067 134.861 118.085C134.702 118.457 134.596 118.829 134.436 119.202C134.17 119.805 133.816 120.372 133.444 120.904C132.487 122.304 131.051 123.457 129.563 124.237C128.074 125.017 126.443 125.514 124.902 126.17C123.324 126.826 121.747 127.499 120.188 128.226C117.281 129.592 114.41 131.081 111.522 132.482C108.544 133.936 105.514 135.283 103.033 136.542C99.7013 138.279 96.3696 139.999 93.0379 141.684C89.653 143.404 86.1795 144.928 82.7946 146.613C79.2502 148.474 75.8123 150.478 72.4274 152.623C69.0957 154.715 65.764 156.79 62.5032 158.989C60.3943 160.46 58.3208 161.985 56.1941 163.439C54.5283 164.573 52.8625 165.655 51.1967 166.79C44.7814 171.258 38.6673 176.24 32.8368 181.453C28.5658 185.336 24.4721 189.449 20.91 193.598C20.1303 194.502 19.3328 195.389 18.553 196.293C18.4467 196.417 18.3227 196.559 18.2872 196.612C18.2695 196.648 18.234 196.665 18.2163 196.701L17.9683 197.002C17.8088 197.197 17.6492 197.375 17.472 197.57C16.9935 198.137 16.515 198.704 16.0365 199.289C15.877 199.485 15.6998 199.68 15.629 199.768C14.5657 201.027 13.4315 202.268 11.9783 203.084C11.6061 203.297 11.2162 203.474 10.844 203.669C10.0997 204.041 9.26685 204.218 8.45165 204.218C6.50224 204.236 4.58824 203.297 3.4186 201.825Z" fill="black"/>
<path d="M541.613 192.038H540.443L540.425 192.02H540.319L540.284 192.002H540.23L540.213 191.985H540.159L540.124 191.967H540.071L540.053 191.949H539.982L539.965 191.931H539.911L539.894 191.914H539.876L539.841 191.896L539.823 191.878H539.787L539.77 191.861L539.699 191.825L539.681 191.807L539.646 191.79L539.575 191.754L539.557 191.736L539.522 191.719L539.486 191.701L539.451 191.683L539.415 191.665L539.344 191.63L539.309 191.612L539.273 191.594L539.238 191.577L539.203 191.559L539.132 191.524L539.096 191.506L539.061 191.488L539.025 191.47L538.99 191.453L538.919 191.417L538.884 191.399L538.813 191.364L538.777 191.346L538.671 191.293L538.635 191.275L538.6 191.258L538.564 191.24L538.529 191.222L538.494 191.187L538.458 191.169L538.423 191.151L538.387 191.116L538.352 191.098L538.316 191.063L538.281 191.045L538.245 191.009L538.21 190.992L538.104 190.885L538.068 190.868L538.033 190.832L537.997 190.814L537.962 190.779L537.927 190.743L537.891 190.726L537.856 190.69L537.82 190.655L537.767 190.619L537.732 190.584L537.413 190.371H537.395C537.448 189.999 537.572 189.644 537.767 189.343C537.749 189.361 537.749 189.378 537.732 189.378C537.749 189.36 537.767 189.325 537.785 189.307C537.802 189.272 537.82 189.254 537.838 189.219C537.82 189.236 537.82 189.254 537.802 189.272C537.909 189.13 538.033 189.024 538.192 188.917C538.175 188.935 538.157 188.935 538.121 188.953C538.139 188.935 538.175 188.917 538.192 188.9C538.192 188.9 538.192 188.9 538.175 188.9C538.192 188.882 538.21 188.882 538.228 188.864C538.192 188.882 538.157 188.9 538.121 188.917C538.175 188.882 538.228 188.846 538.281 188.829C538.316 188.811 538.352 188.793 538.387 188.775C538.37 188.793 538.37 188.793 538.352 188.793C539.592 188.084 540.904 188.155 542.18 188.651C542.215 188.651 542.268 188.651 542.304 188.651C542.499 188.616 542.694 188.616 542.889 188.598C543.491 188.208 544.129 187.942 544.891 187.889C544.962 187.889 545.015 187.889 545.086 187.871V188.173L545.068 188.226V188.332L545.051 188.368L545.033 188.403V188.456L545.015 188.492L544.997 188.527L544.98 188.563V188.598L544.944 188.669V188.704L544.891 188.811V188.846L544.873 188.882L544.856 188.917L544.838 188.953L544.803 189.024L544.785 189.059L544.767 189.095L544.75 189.13L544.732 189.165L544.696 189.236L544.679 189.272L544.661 189.307L544.643 189.343L544.625 189.378L544.59 189.414L544.572 189.449L544.554 189.485L544.537 189.52L544.519 189.556L544.501 189.591L544.448 189.697L544.43 189.733L544.413 189.768L544.395 189.804L544.377 189.839L544.342 189.91L544.324 189.946L544.306 189.981L544.289 190.017L544.253 190.052L544.218 190.123L544.2 190.158L544.165 190.194L544.147 190.229L544.129 190.265L544.111 190.3L544.094 190.336L544.076 190.371L544.058 190.407L544.023 190.442L544.005 190.477L543.987 190.513L543.97 190.548L543.934 190.584L543.917 190.619L543.881 190.655L543.846 190.69L543.828 190.726L543.792 190.761L543.757 190.797L543.739 190.832L543.668 190.903L543.651 190.938L543.615 190.974L543.598 191.009L543.562 191.045L543.527 191.08L543.509 191.116L543.473 191.151L543.438 191.187L543.403 191.222L543.367 191.258L543.332 191.275L543.296 191.311L543.261 191.329L543.225 191.364L543.19 191.382L543.154 191.399L543.119 191.435L543.084 191.453L543.048 191.488L543.013 191.506L542.977 191.524L542.942 191.559L542.906 191.577L542.871 191.594L542.8 191.63L542.765 191.648L542.694 191.683L542.658 191.701L542.623 191.719L542.552 191.754L542.517 191.772L542.481 191.79L542.446 191.807L542.41 191.825L542.339 191.861L542.304 191.878L542.233 191.914L542.198 191.931L542.127 191.967L542.091 191.985L542.02 192.02L541.985 192.038L541.914 192.073L541.879 192.091L541.843 192.109H541.808L541.772 192.126H541.737L541.701 192.144H541.666L541.63 192.162H541.258H541.613V192.038Z" fill="black"/>
<path d="M538.405 188.687C538.405 188.706 538.405 188.706 538.405 188.687V188.687Z" fill="black"/>
</g>
</g>
</svg>
