<svg width="586" height="930" viewBox="0 0 586 930" fill="none" xmlns="http://www.w3.org/2000/svg">
<path d="M404.227 89.7092V89.7977V89.8864V89.975L404.209 90.0636V90.1522L404.191 90.2408L404.173 90.3295L404.156 90.4181L404.12 90.5244L404.085 90.6307L404.05 90.7371L404.014 90.8434L403.979 90.9497L403.943 91.0738L403.89 91.1978L403.837 91.3219L403.784 91.446L403.713 91.5877L403.642 91.7295L403.571 91.8713L403.5 92.0307L403.411 92.1903L403.323 92.3497L403.234 92.527L403.146 92.7042L403.039 92.8991L402.933 93.0941L402.827 93.289L402.703 93.5017L402.579 93.7143L402.455 93.927L402.33 94.1574L402.206 94.3878L402.082 94.6359L401.941 94.8839L401.799 95.1321L401.675 95.4688L401.515 95.7524L401.356 96.0359L401.196 96.3195L401.037 96.6208L400.877 96.922L400.7 97.241L400.523 97.56L400.346 97.8789L400.168 98.2157L399.973 98.5524L399.778 98.8891L399.584 99.2436L399.389 99.598L399.194 99.9525L398.981 100.325L398.768 100.697L398.556 101.069L398.343 101.441L398.13 101.831L397.918 102.221L397.705 102.629L397.475 103.036L397.244 103.444L397.014 103.851L396.783 104.277L396.553 104.684L396.323 105.11L396.092 105.535L395.844 105.96L395.596 106.386L395.348 106.829L395.1 107.272L394.852 107.715L394.604 108.158L394.356 108.601L394.107 109.044L393.859 109.505L393.611 109.965L393.363 110.426L393.097 110.887L392.849 111.348L392.583 111.826L392.318 112.305L392.052 112.783L391.786 113.262L391.52 113.74L391.254 114.219L390.988 114.697L390.723 115.176L390.439 115.654L390.173 116.133L389.89 116.611L389.606 117.09L389.323 117.568L389.039 118.047L388.756 118.525L388.472 119.004L388.188 119.482L387.905 119.961L387.621 120.439L387.338 120.917L387.054 121.396L386.771 121.875L386.487 122.353L386.204 122.831L385.92 123.31L385.637 123.789L385.353 124.267L385.052 124.745L384.768 125.224L384.467 125.702L384.166 126.181L383.864 126.659L383.563 127.138L383.262 127.616L382.96 128.095L382.659 128.573L382.34 129.052L382.039 129.53L381.72 130.009L381.401 130.487L381.082 130.966L380.763 131.444L380.444 131.923L380.125 132.401L379.806 132.88L379.487 133.358L379.168 133.837L378.849 134.315L378.53 134.794L378.211 135.272L377.892 135.751L377.573 136.229L377.254 136.708L376.917 137.204L376.581 137.682L376.244 138.179L375.907 138.657L375.571 139.153L375.234 139.632L374.897 140.128L374.56 140.607L374.224 141.103L373.887 141.581L373.532 142.077L373.196 142.556L372.841 143.035L372.505 143.513L372.15 143.991L371.796 144.47L371.441 144.948L371.087 145.427L370.732 145.905L370.378 146.384L370.024 146.862L369.669 147.341L369.315 147.819L368.96 148.298L368.606 148.776L368.251 149.255L367.897 149.716L367.542 150.176L367.206 150.637L366.869 151.098L366.532 151.541L366.196 151.984L365.859 152.427L365.522 152.87L365.185 153.313L364.849 153.756L364.53 154.199L364.193 154.625L363.856 155.05L363.537 155.475L363.218 155.901L362.899 156.326L362.58 156.751L362.261 157.159L361.942 157.567L361.623 157.974L361.304 158.382L360.985 158.789L360.684 159.179L360.383 159.569L360.082 159.959L359.78 160.349L359.497 160.739L359.196 161.111L358.912 161.483L358.628 161.855L358.345 162.227L358.061 162.6L357.778 162.972L357.494 163.344L357.211 163.698L356.927 164.053L356.661 164.407L356.396 164.762L356.13 165.116L355.864 165.453L355.598 165.789L355.35 166.126L355.102 166.445L354.854 166.764L354.606 167.083L354.357 167.384L354.127 167.686L353.897 167.969L353.666 168.253L353.436 168.519L353.223 168.784L353.011 169.05L352.798 169.298L352.585 169.546L352.39 169.795L352.178 170.025L351.983 170.238L351.788 170.45L351.593 170.663L351.398 170.858L351.221 171.053L351.043 171.248L350.866 171.425L350.707 171.585L350.547 171.744L350.388 171.904L350.228 172.045L350.087 172.187L349.945 172.329L349.803 172.453L349.679 172.577L349.555 172.701L349.431 172.825L349.307 172.931L349.183 173.038L349.076 173.144L348.952 173.233L348.846 173.321L348.74 173.41L348.633 173.499L348.527 173.587L348.438 173.676L348.35 173.747L348.261 173.818L348.173 173.888L348.084 173.959L347.995 174.03L347.907 174.083L347.836 174.137L347.747 174.19L347.676 174.243L347.605 174.278L347.535 174.331L347.464 174.367L347.393 174.402L347.322 174.438L347.251 174.473L347.18 174.509L347.109 174.544L347.038 174.58L346.967 174.615L346.897 174.65L346.826 174.686L346.755 174.721L346.684 174.757L346.613 174.774L346.542 174.81L346.471 174.828L346.383 174.845L346.312 174.863L346.241 174.881L346.152 174.899L346.064 174.916L345.975 174.934L345.886 174.952L345.798 174.969L345.709 174.987L345.621 175.005H345.532H345.443H345.355H345.266H345.16H345.071H344.965H344.859H344.752H344.646H344.522H344.416H344.291H344.167H344.043H343.919H343.795H343.671H343.529H343.388H343.246H343.104H342.962H342.803H342.643H342.484H342.324H342.165H341.988H341.81H341.633H341.456H341.279H341.084H340.889H340.694H340.499H340.304H340.109H339.914H339.702H339.489H339.276H339.064H338.851H338.638H338.408H338.177H337.876H337.646H337.398H337.15L336.901 174.987L336.653 174.969L336.405 174.952L336.157 174.934L335.909 174.916L335.661 174.899L335.413 174.863L335.165 174.828L334.899 174.792L334.633 174.757L334.367 174.721L334.101 174.686L333.836 174.65L333.57 174.615L333.304 174.58L333.038 174.544L332.772 174.509L332.506 174.473L332.241 174.438L331.975 174.385L331.709 174.349L331.443 174.296L331.177 174.243L330.912 174.19L330.646 174.137L330.38 174.083L330.114 174.012L329.848 173.959L329.582 173.888L329.317 173.818L329.068 173.747L328.82 173.676L328.572 173.605L328.324 173.534L328.076 173.463L327.828 173.392L327.58 173.321L327.349 173.25L327.119 173.18L326.889 173.109L326.658 173.038L326.446 172.967L326.233 172.896L326.02 172.825L325.808 172.754L325.613 172.683L325.418 172.612L325.223 172.542L325.028 172.471L324.833 172.4L324.656 172.329L324.478 172.258L324.301 172.187L324.142 172.116L323.982 172.045L323.823 171.992L323.663 171.921L323.504 171.868L323.362 171.815L323.22 171.762L323.078 171.709L322.954 171.655L322.83 171.602L322.706 171.549L322.582 171.496L322.476 171.443L322.37 171.39L322.263 171.336L322.175 171.283L322.086 171.23L321.997 171.177L321.909 171.124L321.838 171.071L321.767 171.017L321.696 170.964L321.625 170.911L321.554 170.84L321.483 170.787L321.413 170.716L321.359 170.663L321.306 170.592L321.253 170.521L321.2 170.45L321.147 170.379L321.111 170.309L321.058 170.238L321.023 170.149L320.97 170.06L320.934 169.972L320.899 169.883L320.863 169.795L320.828 169.688L320.792 169.6L320.757 169.493L320.704 169.387L320.668 169.263L320.615 169.139L320.58 169.015L320.527 168.891L320.473 168.767L320.42 168.625L320.367 168.483L320.296 168.324L320.243 168.164L320.172 168.005L320.101 167.845L320.03 167.686L319.959 167.526L319.888 167.349L319.818 167.172L319.729 166.995L319.658 166.817L319.57 166.622L319.481 166.428L319.392 166.232L319.304 166.038L319.215 165.843L319.126 165.63L319.02 165.417L318.914 165.205L318.807 164.992L318.701 164.779L318.577 164.567L318.453 164.354L318.329 164.124L318.205 163.893L318.081 163.663L317.957 163.433L317.833 163.202L317.709 162.972L317.567 162.741L317.425 162.511L317.283 162.281L317.142 162.05L317 161.82L316.84 161.589L316.681 161.341L316.521 161.111L316.362 160.863L316.202 160.615L316.043 160.367L315.866 160.119L315.688 159.87L315.511 159.622L315.316 159.374L315.121 159.126L314.926 158.878L314.731 158.63L314.537 158.382L314.324 158.134L314.111 157.886L313.899 157.637L313.686 157.389L313.455 157.141L313.243 156.893L313.012 156.645L312.782 156.397L312.534 156.149L312.286 155.883L312.038 155.635L311.79 155.387L311.542 155.121L311.276 154.855L311.01 154.589L310.744 154.323L310.478 154.058L310.195 153.792L309.911 153.526L309.628 153.26L309.344 152.977L309.06 152.711L308.777 152.427L308.493 152.161L308.192 151.878L307.891 151.594L307.59 151.311L307.288 151.027L306.987 150.744L306.668 150.46L306.349 150.176L306.03 149.875L305.711 149.592L305.392 149.29L305.073 148.989L304.754 148.688L304.417 148.369L304.081 148.05L303.744 147.731L303.407 147.412L303.053 147.093L302.716 146.774L302.362 146.437L302.007 146.118L301.653 145.781L301.298 145.445L300.944 145.108L300.59 144.771L300.235 144.435L299.881 144.08L299.508 143.726L299.136 143.371L298.764 143.017L298.392 142.662L298.02 142.308L297.648 141.954L297.276 141.599L296.903 141.245L296.513 140.89L296.141 140.536L295.751 140.181L295.362 139.827L294.972 139.472L294.582 139.118L294.192 138.763L293.802 138.409L293.412 138.055L293.005 137.7L292.615 137.346L292.207 136.991L291.799 136.637L291.392 136.282L290.984 135.928L290.577 135.574L290.169 135.219L289.761 134.865L289.354 134.51L288.946 134.156L288.521 133.801L288.113 133.447L287.688 133.093L287.263 132.738L286.837 132.384L286.412 132.011L285.987 131.657L285.561 131.303L285.136 130.948L284.711 130.594L284.285 130.239L283.86 129.885L283.435 129.53L283.009 129.176L282.584 128.822L282.159 128.467L281.733 128.113L281.308 127.758L280.883 127.404L280.457 127.049L280.032 126.695L279.607 126.34L279.182 125.986L278.756 125.632L278.331 125.277L277.905 124.923L277.498 124.568L277.073 124.214L276.665 123.859L276.257 123.505L275.85 123.15L275.442 122.796L275.035 122.442L274.627 122.087L274.219 121.75L273.812 121.396L273.404 121.059L273.014 120.723L272.607 120.386L272.217 120.049L271.827 119.712L271.437 119.376L271.047 119.039L270.657 118.702L270.285 118.383L269.913 118.047L269.541 117.71L269.169 117.391L268.797 117.072L268.442 116.753L268.07 116.434L267.715 116.115L267.361 115.796L267.007 115.477L266.652 115.158L266.315 114.839L265.961 114.538L265.624 114.236L265.288 113.935L264.951 113.634L264.632 113.333L264.295 113.031L263.976 112.73L263.657 112.429L263.338 112.145L263.019 111.844L262.7 111.56L262.381 111.277L262.062 110.993L261.761 110.71L261.46 110.426L261.158 110.143L260.857 109.859L260.556 109.575L260.255 109.31L259.971 109.026L259.688 108.76L259.404 108.494L259.12 108.229L258.837 107.963L258.553 107.697L258.27 107.431L257.986 107.165L257.72 106.899L257.437 106.651L257.171 106.403L256.905 106.155L256.639 105.907L256.374 105.659L256.108 105.411L255.86 105.163L255.612 104.915L255.363 104.666L255.115 104.418L254.867 104.17L254.619 103.922L254.371 103.674L254.123 103.426L253.875 103.178L253.627 102.93L253.396 102.682L253.148 102.433L252.918 102.185L252.687 101.937L252.457 101.689L252.227 101.441L251.996 101.193L251.766 100.945L251.536 100.697L251.305 100.449L251.075 100.201L250.862 99.9525L250.632 99.7044L250.401 99.4562L250.171 99.2081L249.958 98.9601L249.746 98.7119L249.515 98.4638L249.303 98.2157L249.09 97.9676L248.859 97.7195L248.647 97.4714L248.434 97.2232L248.221 96.9752L248.009 96.7271L247.796 96.479L247.583 96.2308L247.371 95.9828L247.158 95.7347L246.946 95.4865L246.733 95.2207L246.52 94.9726L246.308 94.7068L246.095 94.4586L245.882 94.1929L245.669 93.927L245.457 93.6612L245.244 93.3954L245.032 93.1295L244.819 92.8637L244.606 92.5978L244.394 92.3321L244.181 92.0662L243.968 91.8003L243.756 91.5346L243.543 91.2687L243.33 91.0029L243.118 90.7371L242.905 90.4712L242.692 90.2054L242.48 89.9396L242.285 89.6738L242.072 89.4079L241.877 89.142L241.682 88.8763L241.487 88.6104L241.292 88.3446L241.097 88.0788L240.902 87.8129L240.707 87.5471L240.512 87.2813L240.318 87.0155L240.14 86.7496L239.963 86.4838L239.786 86.218L239.609 85.9521L239.449 85.6863L239.29 85.4205L239.13 85.1546L238.971 84.9066L238.811 84.6584L238.652 84.4103L238.492 84.1622L238.333 83.9142L238.191 83.666L238.049 83.4179L237.907 83.1698L237.766 82.9216L237.624 82.6736L237.482 82.4255L237.358 82.1773L237.234 81.9292L237.11 81.6812L236.986 81.433L236.862 81.1849L236.738 80.9368L236.614 80.6887L236.49 80.4584L236.366 80.2102L236.242 79.9798L236.118 79.7494L235.993 79.519L235.869 79.2886L235.745 79.0583L235.621 78.8456L235.497 78.6152L235.373 78.3848L235.249 78.1722L235.125 77.9595L235.019 77.7468L234.895 77.5342L234.788 77.3215L234.682 77.1089L234.576 76.8962L234.469 76.6836L234.363 76.4709L234.257 76.2583L234.15 76.0456L234.044 75.8506L233.955 75.6379L233.849 75.4253L233.76 75.2304L233.672 75.0354L233.583 74.8404L233.495 74.6455L233.406 74.4506L233.317 74.2557L233.229 74.0607L233.158 73.8657L233.069 73.6708L232.998 73.4759L232.928 73.281L232.857 73.086L232.786 72.891L232.715 72.6961L232.644 72.5012L232.573 72.3062L232.52 72.1113L232.467 71.9164L232.414 71.7214L232.36 71.5264L232.307 71.3315L232.254 71.1366L232.219 70.9417L232.183 70.7467L232.148 70.5517L232.112 70.3746L232.077 70.1796L232.042 70.0024L232.006 69.8252L231.971 69.6479L231.935 69.4707L231.9 69.2936L231.864 69.134L231.829 68.9745L231.793 68.815L231.776 68.6555L231.74 68.496L231.722 68.3365L231.705 68.1947L231.687 68.0353L231.669 67.8934L231.652 67.7516L231.634 67.6099L231.616 67.4681L231.598 67.3441V67.22L231.581 67.0959L231.563 66.9719V66.8479L231.545 66.7238V66.6175L231.528 66.5112V66.4049V66.2985L231.51 66.1922V66.1035V65.9972V65.9086V65.82V65.7314V65.6427V65.5541V65.4656V65.377V65.2884V65.1997V65.1288V65.058V64.987V64.9162V64.8453V64.7744V64.7035V64.6327V64.5617L231.528 64.4909V64.42L231.545 64.3491L231.563 64.2782L231.581 64.2073L231.598 64.1364L231.616 64.0656L231.634 63.977L231.669 63.8883L231.705 63.7997L231.74 63.7111L231.776 63.6225L231.811 63.5339L231.846 63.4275L231.545 63.0377L231.598 62.9313L231.652 62.8073L231.705 62.6832L231.758 62.5591L231.829 62.4174L231.9 62.2756L231.971 62.1161L232.042 61.9566L232.112 61.7971L232.201 61.6377L232.29 61.4604L232.378 61.2832L232.467 61.0883L232.555 60.8933L232.644 60.6983L232.733 60.4857L232.821 60.273L232.928 60.0604L233.034 59.8477L233.14 59.6173L233.247 59.3869L233.353 59.1565L233.459 58.9261L233.566 58.678L233.672 58.43L233.778 58.1819L233.885 57.9337L233.991 57.6679L234.097 57.4021L234.204 57.1362L234.31 56.8705L234.416 56.5868L234.54 56.3033L234.647 56.0197L234.771 55.7362L234.877 55.4526L235.001 55.1691L235.125 54.8679L235.249 54.5665L235.373 54.2653L235.497 53.9463L235.621 53.645L235.745 53.3261L235.869 53.0071L235.993 52.688L236.118 52.369L236.242 52.05L236.366 51.7133L236.49 51.3766L236.614 51.0399L236.738 50.7031L236.862 50.3488L236.986 49.9943L237.11 49.6399L237.234 49.2854L237.358 48.9133L237.482 48.5411L237.606 48.1689L237.73 47.7968L237.854 47.4069L237.978 47.0171L238.102 46.6271L238.209 46.2195L238.333 45.812L238.457 45.4043L238.563 44.9967L238.687 44.5714L238.794 44.1461L238.917 43.7207L239.024 43.2954L239.13 42.8523L239.237 42.4093L239.343 41.9662L239.449 41.5232L239.556 41.0801L239.662 40.6194L239.768 40.1587L239.875 39.6979L239.981 39.2371L240.087 38.7586L240.176 38.2801L240.264 37.8194L240.353 37.3408L240.442 36.8623L240.53 36.3839L240.619 35.9231L240.707 35.4623L240.778 35.0015L240.849 34.5407L240.92 34.0977L240.991 33.6546L241.062 33.2116L241.115 32.7863L241.168 32.3787L241.221 31.971L241.275 31.5635L241.31 31.1559L241.345 30.766L241.381 30.3939L241.416 30.0217L241.452 29.6672L241.487 29.3127L241.505 28.9584L241.523 28.6217L241.54 28.2849L241.558 27.966V27.647V27.3279V27.0267V26.7254V26.4242V26.1406V25.857L241.54 25.5734L241.523 25.3077L241.505 25.0595L241.487 24.8114L241.469 24.5633L241.452 24.3329L241.416 24.1026L241.399 23.8898L241.381 23.6772L241.345 23.4645L241.31 23.2696L241.292 23.0747L241.257 22.8974L241.221 22.7202L241.186 22.5607L241.15 22.4012L241.115 22.2417L241.097 22.1L241.363 17.0492L241.399 17.0138L241.735 16.7302L242.391 16.1808L243.171 15.5429L243.986 14.9049L244.819 14.2668L245.652 13.6643L246.467 13.0972L247.282 12.5656L248.115 12.0516L248.966 11.5554L249.834 11.0769L250.738 10.5984L251.659 10.1377L252.617 9.69465L253.573 9.26923L254.566 8.84392L255.594 8.41861L256.657 8.01104L257.756 7.60336L258.89 7.19579L260.077 6.78822L261.283 6.38065L262.523 5.97297L263.781 5.60088L265.04 5.22868L266.333 4.89196L267.645 4.57298L268.974 4.254L270.321 3.95264L271.685 3.66914L273.067 3.40327L274.485 3.15524L275.938 2.90711L277.427 2.67672L278.951 2.44632L280.475 2.23367L281.999 2.03875L283.559 1.84373L285.101 1.66655L286.625 1.50712L288.113 1.34757L289.584 1.20577L291.02 1.0817L292.437 0.957632L293.837 0.851305L295.255 0.744977L296.708 0.656389L298.197 0.567801L299.703 0.496952L301.21 0.443735L302.716 0.408256L304.205 0.390625H305.658L307.093 0.408256L308.493 0.443735L309.858 0.496952L311.223 0.567801L312.605 0.63865L313.987 0.727346L315.387 0.833674L316.805 0.957632L318.24 1.09944L319.694 1.24124L321.165 1.40068L322.653 1.57796L324.142 1.77288L325.63 1.9678L327.101 2.18045L328.554 2.41084L329.99 2.65898L331.408 2.94259L332.808 3.26157L334.208 3.59829L335.572 3.95264L336.937 4.32484L338.266 4.69704L339.578 5.06914L340.871 5.44134L342.129 5.81354L343.352 6.18563L344.522 6.55783L345.656 6.93003L346.737 7.28438L347.783 7.65658L348.793 8.02878L349.768 8.40087L350.724 8.77307L351.646 9.1629L352.55 9.55284L353.436 9.96041L354.322 10.3681L355.19 10.7934L356.041 11.2187L356.874 11.6618L357.689 12.1048L358.469 12.5479L359.231 12.9909L359.958 13.4339L360.666 13.877L361.358 14.32L362.031 14.7631L362.704 15.2061L363.36 15.6492L363.98 16.0745L364.583 16.4821L365.185 16.8898L365.77 17.2973L366.337 17.6872L366.905 18.0771L367.472 18.4493L368.056 18.8214L368.659 19.1936L369.262 19.5657L369.864 19.9379L370.467 20.2923L371.051 20.6468L371.618 20.9835L372.168 21.3025L372.7 21.6215L373.196 21.9227L373.674 22.2063L374.135 22.4898L374.578 22.7734L375.003 23.0392L375.429 23.3051L375.836 23.5708L376.244 23.8545L376.652 24.1202L377.041 24.3861L377.431 24.652L377.803 24.9L378.176 25.1481L378.53 25.3963L378.885 25.6267L379.221 25.857L379.54 26.0697L379.859 26.2824L380.16 26.495L380.462 26.7077L380.763 26.9203L381.064 27.133L381.383 27.3456L381.702 27.5583L382.039 27.7887L382.393 28.0191L382.748 28.2495L383.102 28.4799L383.457 28.6925L383.793 28.9052L384.112 29.1178L384.431 29.3305L384.75 29.5255L385.052 29.7204L385.335 29.8976L385.601 30.0749L385.849 30.2343L386.097 30.3939L386.328 30.5356L386.54 30.6774L386.735 30.8014L386.93 30.9255L387.107 31.0496L387.285 31.1736L387.444 31.28L387.604 31.3863L387.745 31.4926L387.887 31.5812L388.011 31.6698L388.135 31.7584L388.259 31.8471L388.383 31.9357L388.507 32.0243L388.614 32.0951L388.72 32.1838L388.809 32.2546L388.897 32.3255L388.986 32.3965L389.075 32.4673L389.163 32.5381L389.234 32.6091L389.305 32.68L389.376 32.7508L389.447 32.8218L389.518 32.8926L389.588 32.9636L389.659 33.0344L389.73 33.1053L389.801 33.1762L389.872 33.2471L389.925 33.3179L389.978 33.3889L390.031 33.4597L390.085 33.5306L390.138 33.6015L390.191 33.6724L390.244 33.7256L390.297 33.7964L390.333 33.8673L390.386 33.9205L390.421 33.9914L390.457 34.0446L390.492 34.0977L390.528 34.1686L390.563 34.2218L390.599 34.275L390.634 34.3281L390.669 34.3813L390.705 34.4344L390.74 34.4876L390.776 34.5407L390.811 34.594L390.847 34.6471L390.882 34.7003L390.918 34.7534L390.953 34.8066L390.988 34.8597L391.024 34.9129L391.059 34.966L391.095 35.0193L391.13 35.0724L391.166 35.1256L391.201 35.1788L391.237 35.2319L391.272 35.2851L391.308 35.3382L391.343 35.3915L391.378 35.4623L391.414 35.5332L391.449 35.6041L391.485 35.675L391.52 35.7458L391.556 35.8168L391.591 35.8876L391.626 35.9585L391.662 36.0294L391.697 36.1003L391.733 36.1712L391.768 36.2421L391.804 36.3129L391.839 36.3839L391.875 36.4547L391.91 36.5256L391.945 36.5965L391.981 36.6674L392.016 36.7382L392.052 36.8092L392.087 36.88L392.123 36.951L392.158 37.0041L392.194 37.075L392.229 37.1459L392.264 37.199L392.3 37.27L392.335 37.3408L392.371 37.4117L392.406 37.4826L392.442 37.5712L392.477 37.713L392.513 37.8902L392.53 38.1029L392.548 38.351L392.566 38.6345V38.9535V39.3079V39.6801V40.07V40.4777V40.9207V41.3638V41.8422L392.548 42.3207L392.53 42.817L392.513 43.3309L392.495 43.8448L392.477 44.3764L392.459 44.9081L392.442 45.4398L392.424 45.9892L392.406 46.5385L392.389 47.0879L392.371 47.655V48.2221V48.7892V49.3564V49.9234V50.4905V51.0576V51.6247V52.1918L392.389 52.7589L392.406 53.3261L392.424 53.8932L392.442 54.4602L392.459 55.0096L392.477 55.559L392.513 56.1084L392.548 56.6578L392.583 57.2072L392.619 57.7565L392.654 58.3059L392.69 58.8376L392.725 59.3869L392.761 59.9186L392.796 60.4502L392.832 60.982L392.867 61.5136L392.902 62.0275L392.938 62.5591L392.991 63.0731L393.044 63.587L393.097 64.1009L393.151 64.5972L393.221 65.0934L393.292 65.5719L393.363 66.0504L393.434 66.5288L393.523 67.0074L393.611 67.4681L393.7 67.9289L393.789 68.3897L393.895 68.8328L394.001 69.2758L394.107 69.7189L394.232 70.1619L394.356 70.605L394.48 71.0303L394.604 71.4556L394.728 71.8631L394.87 72.2708L395.011 72.6784L395.153 73.086L395.313 73.4759L395.454 73.8657L395.614 74.2557L395.773 74.6278L395.933 75L396.092 75.3722L396.252 75.7443L396.411 76.0987L396.571 76.4532L396.73 76.8076L396.89 77.162L397.049 77.4987L397.209 77.8354L397.386 78.1545L397.563 78.4735L397.723 78.7925L397.9 79.1115L398.077 79.4305L398.254 79.7317L398.432 80.033L398.609 80.3165L398.786 80.6001L398.963 80.8837L399.141 81.1672L399.318 81.4508L399.495 81.7165L399.672 81.9824L399.832 82.2305L400.009 82.4786L400.168 82.7267L400.328 82.9748L400.487 83.223L400.647 83.4534L400.806 83.6838L400.966 83.8964L401.125 84.1091L401.285 84.3217L401.427 84.5344L401.568 84.7293L401.71 84.9242L401.852 85.1192L401.994 85.3141L402.118 85.4913L402.242 85.6686L402.366 85.8458L402.49 86.023L402.614 86.1825L402.738 86.3421L402.844 86.5015L402.951 86.661L403.057 86.8205L403.146 86.9623L403.234 87.1041L403.323 87.2458L403.411 87.3876L403.5 87.5117L403.589 87.6357L403.66 87.7598L403.73 87.8839L403.801 88.0079L403.872 88.1319L403.925 88.2559L403.979 88.38L404.032 88.4863L404.085 88.6104L404.12 88.7167L404.156 88.8231L404.191 88.9294L404.227 89.0357L404.262 89.142L404.28 89.2484L404.298 89.3547L404.315 89.461L404.333 89.5497V89.6383V89.7269L404.227 89.7092Z" fill="#B7B5B5"/>
<path d="M431.748 586.065C432.138 599.64 431.748 612.47 430.738 626.169C430.189 630.688 430.667 635.846 428.08 639.762C423.1 644.352 415.462 643.998 409.117 644.831C390.067 646.993 371.051 649.297 351.858 649.935C343.582 650.431 335.288 651.14 326.995 650.821C323.167 650.484 318.648 650.59 316.574 646.762C317.212 643.98 317.177 640.949 316.663 638.114C315.741 630.795 314.961 623.458 314.235 616.121C313.845 606.25 312.374 587.199 323.025 582.396C331.319 578.48 340.41 577.026 349.448 576.087C362.722 574.35 376.031 572.348 389.429 571.674C388.454 573.128 387.125 574.262 385.53 574.758C383.315 572.738 379.079 573.712 377.927 576.619C376.403 579.986 378.725 584.151 382.428 584.54C385.087 585.285 387.302 583.778 388.223 581.74C392.937 580.358 396.57 576.193 398.36 571.426C406.371 571.338 414.523 571.408 422.249 573.801C428.806 575.396 431.606 579.437 431.748 586.065Z" fill="white"/>
<path d="M299.773 151.664C292.561 149.821 285.171 148.687 277.798 148.864C260.555 156.644 245.456 168.943 230.428 180.392C224.597 184.521 219.689 189.554 215.152 194.959C215.506 183.227 214.673 171.229 214.461 159.515C213.22 130.451 212.015 100.997 204.146 72.8373C209.995 67.9283 215.878 63.0193 221.284 57.6318C221.496 63.9586 223.623 70.3562 226.157 76.045C233.015 91.2681 245.952 102.415 258.092 113.403C271.401 126.765 286.695 138.036 299.773 151.664Z" fill="white"/>
<path d="M434.513 152.533C434.548 152.71 434.566 152.905 434.601 153.082C434.442 152.976 434.282 152.87 434.123 152.763C422.763 145.462 408.78 139.224 395.028 141.935C385.99 145.32 378.263 151.629 370.023 156.591C366.851 159.054 362.491 160.437 360.276 163.893C359.744 164.974 359.709 165.984 360.028 166.799C357.936 167.331 355.881 167.791 353.825 168.181L353.931 168.057L354.162 167.774L354.392 167.472L354.64 167.171L355.385 166.214L355.633 165.878L355.757 165.7C356.04 165.452 356.324 165.186 356.625 164.92C378.051 145.71 399.459 125.082 410.889 98.1442C413.884 90.3288 416.241 82.0881 417.5 73.7588C418.208 74.8753 418.882 76.0272 419.431 77.2323C421.735 81.6096 423.684 86.3414 425.368 91.0023C432.882 110.745 431.358 131.993 434.513 152.533Z" fill="white"/>
<path d="M374.029 557.267C379.593 551.649 387.781 555.973 390.634 562.211C383.209 562.778 376.297 563.646 370.98 564.196C371.565 561.679 372.257 559.163 374.029 557.267Z" fill="white"/>
<path d="M400.948 150.583C401.71 150.654 402.49 150.761 403.234 150.885C381.312 164.708 375.021 185.425 342.289 186.134C323.22 186.311 305.108 178.407 288.556 169.617C284.019 167.047 279.766 163.946 276.399 159.941C276.24 159.763 276.098 159.586 275.956 159.409C276.895 158.93 277.835 158.452 278.792 157.991C287.209 157.779 295.68 160.065 303.744 163.095C303.638 163.981 303.832 164.991 304.4 166.001C310.762 174.047 328.732 179.098 338.815 179.825C346.188 180.268 353.826 179.594 360.773 176.989C369.545 173.356 377.307 167.1 383.404 159.905C381.879 160.33 380.196 160.898 378.601 161.305C377.857 161.536 377.112 161.766 376.386 161.996C377.059 161.571 377.733 161.163 378.406 160.756C383.776 157.477 389.252 154.465 394.834 151.558C396.713 150.495 398.857 150.459 400.948 150.583Z" fill="white"/>
<path d="M411.794 153.153C411.528 153.756 411.333 154.287 411.298 154.394C406.974 165.293 408.391 177.184 407.665 188.632C406.371 237.864 404.049 287.06 398.804 336.044C393.044 392.683 384.343 448.968 375.446 505.182C365.593 477.996 355.616 450.58 346.276 423.165C335.643 390.166 324.195 357.434 314.572 324.134C300.713 272.971 286.182 221.967 273.812 170.432C277.516 174.136 281.857 177.149 286.412 179.771C301.954 188.455 319.162 195.225 337.061 196.536C356.803 197.83 376.368 190.245 390.545 176.528C398.183 170.007 404.475 161.412 407.133 151.682C408.71 152.09 410.27 152.586 411.794 153.153Z" fill="white"/>
<path d="M581.835 805.072V805.835L581.799 807.305L581.764 808.014L581.711 808.688L581.64 809.343L581.551 809.999L581.463 810.637L581.356 811.257L581.25 811.86L581.126 812.463L581.002 813.047L580.878 813.615L580.736 814.182L580.594 814.731L580.452 815.263L580.133 816.326L579.655 817.868L579.478 818.364L579.088 819.392L578.45 820.934L578.219 821.448L577.989 821.944L577.741 822.44L577.51 822.919L577.28 823.379L577.05 823.822L576.837 824.265L576.624 824.691L576.199 825.506L574.285 829.015L574.073 829.387L573.488 830.504L573.098 831.212L572.921 831.549L572.602 832.187L572.442 832.488L572.159 833.055L572.035 833.321L571.91 833.569L571.698 834.065L571.521 834.597L571.414 834.881L571.326 835.182L571.219 835.501L571.113 835.838L570.989 836.192L570.865 836.582L570.741 836.99L570.599 837.433L570.457 837.911L570.298 838.425L570.138 838.957L569.979 839.524L569.819 840.109L569.66 840.729L569.5 841.367L569.359 842.005L569.234 842.679L569.11 843.37L568.986 844.078L568.862 844.823L568.756 845.602L568.65 846.418L568.543 847.304L568.437 848.279L568.331 849.342L568.224 850.494L568.1 851.77L567.976 853.188L567.852 854.747L567.728 856.448L567.604 858.309L567.48 860.347L567.356 862.509L567.232 864.795L567.126 867.099L567.037 869.244L566.984 870.661V871.087L566.895 871.14L566.807 871.175L566.718 871.229L566.629 871.282L566.364 871.441L566.275 871.494L566.098 871.601L565.991 871.672L565.885 871.725L565.672 871.867L565.548 871.937L565.176 872.15L565.034 872.221L564.893 872.292L564.414 872.558L564.255 872.646L564.077 872.735L563.688 872.912L563.262 873.125L563.032 873.231L562.784 873.355L562.518 873.479L562.234 873.603L561.951 873.745L561.632 873.887L561.313 874.046L560.958 874.206L560.586 874.383L560.196 874.56L559.417 874.95L559.027 875.127L558.637 875.322L557.52 875.854L557.148 876.049L556.758 876.244L555.943 876.634L555.057 877.059L554.579 877.289L554.082 877.537L553.568 877.803L553.037 878.069L552.487 878.353L551.389 878.884L550.325 879.381L549.811 879.611L549.333 879.824L548.854 880.019L548.411 880.214L547.986 880.391L545.54 881.348L545.115 881.507L544.229 881.826L543.75 882.003L543.254 882.181L542.74 882.358L542.209 882.535L541.677 882.73L540.543 883.12L539.409 883.474L538.842 883.634L537.778 883.953L537.264 884.095L536.768 884.254L536.29 884.396L535.333 884.715L534.836 884.874L534.305 885.069L533.755 885.264L533.171 885.477L532.533 885.707L531.859 885.955L531.15 886.221L530.388 886.505L529.591 886.806L528.758 887.125L527.889 887.444L526.117 888.082L525.214 888.401L524.327 888.702L523.441 888.986L522.591 889.269L521.758 889.535L520.943 889.783L518.55 890.528L516.92 891.024L516.087 891.272L514.385 891.804L511.887 892.601L510.256 893.133L507.066 894.196L503.806 895.33L502.973 895.614L501.342 896.181L500.509 896.465L498.879 897.032L498.064 897.297L497.248 897.581L496.433 897.847L495.6 898.113L494.75 898.396L493.881 898.68L492.978 898.963L491.099 899.53L489.15 900.062L488.157 900.31L486.137 900.806L485.109 901.037L484.063 901.267L483 901.498L481.901 901.728L480.785 901.958L479.651 902.189L475.114 903.181L473.997 903.429L472.899 903.677L470.666 904.209L469.549 904.493L468.415 904.776L466.076 905.379L464.888 905.698L460.068 906.974L457.693 907.612L456.524 907.931L455.389 908.214L454.291 908.498L453.227 908.764L452.2 909.012L451.225 909.242L450.268 909.455L448.425 909.845L447.521 910.039L446.617 910.217L445.696 910.412L444.774 910.589L443.835 910.766L442.878 910.943L441.903 911.121L439.954 911.44L438.004 911.723L437.047 911.847L436.09 911.954L435.151 912.06L432.387 912.326L431.483 912.397L427.938 912.68L426.131 912.822L424.288 912.964L423.331 913.035L422.356 913.106L421.364 913.176L419.343 913.318L418.333 913.371L417.323 913.442L414.346 913.602L412.432 913.708L409.525 913.814L407.505 913.885L406.46 913.921L404.28 913.992L403.146 914.027L401.976 914.08L400.771 914.133L399.53 914.187L394.497 914.47L393.257 914.559L390.811 914.7L388.401 914.842L387.196 914.895L364.37 915.498L363.006 915.551L358.859 915.764L357.459 915.852L356.023 915.941L354.552 916.047L353.046 916.154L348.367 916.473L343.6 916.738L331.106 917.306L326.552 917.571L321.962 917.944L318.878 918.227L317.319 918.387L312.676 918.812L311.134 918.936L309.592 919.042L306.544 919.22L305.002 919.29L303.478 919.343L301.972 919.379L300.483 919.397H299.012L297.541 919.379L290.027 919.202L288.432 919.184H285.171L281.875 919.22L271.916 919.432L270.267 919.45H266.989L262.186 919.397L255.895 919.255L254.282 919.237H252.67L251.021 919.255L249.356 919.29L247.69 919.343L244.429 919.485L241.257 919.663L238.102 919.804L236.543 919.857L234.983 919.893H233.441L231.917 919.857L230.411 919.786L228.905 919.698L225.963 919.45L224.51 919.29L220.203 918.812L218.75 918.653L217.279 918.511L215.79 918.369L214.302 918.245L211.254 918.032L208.223 917.855L206.681 917.749L205.157 917.625L203.616 917.501L202.092 917.359L200.567 917.199L199.061 917.022L197.572 916.827L193.16 916.189L191.671 915.977L190.165 915.746L188.641 915.516L187.081 915.268L185.486 915.019L183.856 914.771L182.172 914.523L180.418 914.275L178.628 914.045L176.82 913.832L174.995 913.637L173.152 913.46L171.326 913.3L169.501 913.176L167.693 913.07L165.921 912.964L164.149 912.875L162.412 912.786L160.711 912.715L155.66 912.45L153.994 912.343L152.346 912.219L150.734 912.095L149.121 911.954L144.301 911.475L142.653 911.316L139.338 910.961L137.673 910.802L134.288 910.482L132.551 910.323L130.761 910.164L128.9 909.986L126.969 909.774L124.948 909.543L122.804 909.278L120.518 908.958L118.055 908.586L115.361 908.126L112.348 907.576L108.963 906.903L105.082 906.07L100.563 905.06L95.2821 903.819L89.1149 902.313L82.0262 900.523L74.0691 898.467L65.8284 896.305L59.5194 894.604L59.3954 894.568L57.3397 893.983L57.2687 893.966L57.1624 893.806L57.0738 893.647L57.003 893.469L56.8612 893.151L56.7903 892.973L56.5777 892.388L56.4359 891.963L56.365 891.733L56.2763 891.502L56.0637 890.758L55.922 890.226L55.7802 889.659L55.7093 889.358L55.5675 888.72L55.4966 888.383L55.4257 888.029L55.3549 887.657L55.2839 887.267L55.2131 886.859L55.0713 885.973L55.0004 885.512L54.9118 885.034L54.4865 882.163L54.4333 881.702L54.2206 879.93L54.1674 879.469L53.9548 877.555L53.8839 876.598L53.8131 875.677L53.7421 874.791L53.7067 874.365L53.6713 873.958L53.5827 871.92V869.208L53.618 868.251L53.689 867.33L53.7599 866.444L53.8131 866L53.8662 865.575L53.9371 865.15L53.9902 864.742L54.1321 863.927L54.2738 863.076L54.3447 862.669L54.8763 860.117L54.9649 859.709L55.0713 859.302L55.1598 858.912L55.2485 858.54L55.4257 857.831L55.5143 857.494L56.0459 855.58L56.2232 854.906L56.3295 854.57L56.5422 853.861L56.6663 853.507L57.6587 850.529L58.527 848.048L58.7752 847.375L58.8815 847.056L58.9878 846.719L59.1119 846.4L59.5372 845.124L59.6613 844.823L59.8739 844.22L60.4941 842.625L60.6182 842.289L60.7423 841.934L61.0259 841.225L61.5929 839.737L62.0183 838.567L62.1777 838.159L62.4613 837.344L62.6208 836.919L62.9397 836.033L63.0816 835.59L63.2411 835.147L63.3828 834.704L63.5423 834.243L63.6841 833.8L63.8258 833.339L63.9676 832.896L64.3398 831.567L64.6588 830.238L64.836 829.352L65.0133 828.501L65.1019 828.058L65.3676 826.782L65.5803 825.506L65.8639 823.875L66.0233 822.653L66.0765 822.263L66.112 821.855L66.1829 821.075L66.2892 819.959L66.3424 818.896L66.36 818.559V816.202L66.3424 815.847L66.3247 815.475L66.3069 815.085L66.2892 814.678L66.2715 814.253L66.2537 813.809L66.2183 813.349L66.2006 812.87L66.0233 810.478L65.988 810.017L65.9525 809.574L65.8994 809.149L65.8639 808.741L65.8107 808.333L65.7576 807.943L65.6512 807.199L65.5094 806.419L65.3676 805.604L65.2259 804.718L65.1372 804.257L65.0486 803.779L64.9601 803.282L64.6056 801.227L64.517 800.695L64.4107 800.163L64.3221 799.614L64.2158 799.047L64.0917 798.462L63.9676 797.86L63.8436 797.239L63.7195 796.602L63.5777 795.946L63.436 795.272L63.2765 794.581L63.117 793.872L62.5853 791.693L62.4081 790.948L62.0537 789.495L61.8765 788.786L61.6992 788.095L61.5398 787.404L61.3625 786.73L61.203 786.057L61.0259 785.383L60.4941 783.469L60.1398 782.229L59.9448 781.591L59.7498 780.917L59.5372 780.244L59.3245 779.553L58.6866 777.533L58.4562 776.859L58.2258 776.204L57.9954 775.566L57.765 774.945L57.5524 774.343L57.3397 773.758L56.9144 772.624L56.7017 772.074L56.0637 770.373L55.851 769.788L55.6206 769.185L55.3902 768.565L55.1598 767.927L54.9118 767.272L54.6637 766.598L54.1321 765.251L53.8839 764.596L53.618 763.958L53.37 763.337L53.1219 762.752L52.8915 762.185L52.6789 761.654L52.4839 761.14L52.1295 760.183L51.651 758.747L51.3675 757.79L51.2256 757.294L50.8003 755.752L50.4281 754.211L50.18 753.218L49.9674 752.261L49.7547 751.269L49.6484 750.755L49.5598 750.241L49.4535 749.709L49.3649 749.178L49.2763 748.628L49.099 747.494L49.0104 746.909L48.4788 743.294L48.3015 742.124L48.2307 741.539L47.7345 737.57L47.6813 737.003L47.6104 736.435L47.5041 735.301L47.4332 734.716L47.2915 733.511L46.937 730.41L46.8307 729.169L46.7597 727.964L46.7243 726.759V725.554L46.7775 723.729L46.8129 723.091L46.8484 722.417L46.8838 721.726L46.9193 721L46.9547 720.237L46.9901 719.44L47.0256 718.589L47.0787 715.878L47.1142 714.921L47.1319 713.946L47.1674 712.936L47.2737 709.781L47.3268 708.701L47.4686 706.538L47.5395 705.528L47.5927 704.678L47.6281 704.182V704.111L52.9801 684.298L53.0156 683.943L53.0687 683.571L53.1219 683.163L53.1927 682.72L53.2637 682.242L53.3345 681.745L53.4054 681.214L53.4941 680.664L53.6713 679.495L53.7599 678.892L53.8662 678.29L54.0788 677.049L54.6992 673.859L54.8055 673.221L54.9296 672.583L55.0359 671.927L55.1422 671.254L55.2485 670.563L55.4612 669.145L55.5675 668.419L55.7802 666.93L55.9928 665.406L56.0991 664.661L56.1877 663.935L56.2763 663.226L56.365 662.535L56.4359 661.862L56.5067 661.206L56.5777 660.568L56.6485 659.965L56.7017 659.363L56.7548 658.778L56.8257 657.608L56.8612 657.006L56.8967 656.421L57.003 654.613L57.1093 652.752L57.1448 652.15L57.1979 651.547L57.3042 650.378L57.3574 649.81L57.4105 649.261L57.5169 648.198L57.5701 647.684L57.6409 646.656L57.7118 645.664L57.8181 644.122L57.8891 642.066L57.9245 641.074L57.9777 639.638L57.9954 639.177L58.1372 635.633L58.1548 635.172L58.1726 634.694L58.1903 634.198L58.2435 632.656L58.2789 631.592L58.3499 630.529L58.4207 629.501L58.4562 629.005L58.527 628.048L58.5979 627.127L58.8106 624.468L58.8815 623.547L58.917 623.068L58.9523 622.076L58.9878 621.048L59.0056 620.516L59.0409 619.417L59.2182 616.582L59.3245 615.448L59.484 613.8L59.5549 613.232L59.6613 612.134L59.7676 610.999L59.8207 610.415L59.8739 609.812L59.927 609.192L59.9802 608.554L60.0333 607.898L60.1398 606.551L60.3524 603.787L60.7777 599.533L61.1322 595.9L61.203 595.156L61.2561 594.412L61.3271 593.65L61.4334 592.126L61.5043 591.346L61.5575 590.584L61.7169 588.245L61.7702 587.483L61.8233 586.738L61.8942 585.994L61.9473 585.25L62.1069 583.07L62.16 582.361L62.2132 581.634L62.3195 579.454L62.355 578.71L62.5322 570.824L62.603 569.247L62.7094 566.96L62.7803 565.472L62.8512 564.019L63.0993 558.684L63.2765 554.715L63.3828 552.429L63.4005 551.684L63.5069 549.504L63.5246 548.778L63.5601 548.069L63.5777 547.36L63.6132 546.651L63.7195 542.54V535.15L63.7372 534.458V533.767L63.8791 528.327V513.05L63.8436 511.704L63.8081 510.268L63.7372 508.797L63.5246 504.225L63.4183 502.027L63.3828 501.319L63.2411 498.554L63.2056 497.845L63.1701 497.118L63.1347 496.374L63.0638 494.832L63.0283 494.035L62.922 491.589L62.8157 489.959L62.7626 489.161L62.7094 488.381L62.6562 487.619L62.603 486.875L62.5499 486.148L62.4967 485.439L62.4436 484.748L62.3904 484.075L62.3195 483.401L62.2663 482.746L62.1246 481.399L61.9828 480.017L61.912 479.308L61.7702 477.854L61.6992 477.11L61.4157 474.204L61.2739 472.786L61.1853 472.095L60.9018 469.401L60.6182 466.778L60.0511 461.674L59.4131 456.092L59.3068 454.887L59.2359 454.284L59.1827 453.699L59.1296 453.097L59.0764 452.512L59.0233 451.91L58.8106 449.57L58.4916 446.168L58.1726 441.064L58.0309 438.866L57.7118 433.762L57.6409 432.663L57.5701 431.6L57.4638 430.058L57.2865 427.577L57.2687 427.081L57.2334 426.585L57.1624 425.557L57.1448 425.043L57.1093 424.529L57.0738 423.998L57.0561 423.484L56.8789 420.825L56.6663 417.742L56.613 417.228L56.5422 416.2L56.489 415.668L56.4536 415.137L56.4181 414.587L56.365 414.02L56.2232 411.752L56.1877 411.202L56.1169 410.139L56.0459 409.111L56.0283 408.615L55.9928 408.136L55.9751 407.658L55.7979 405.265L55.7624 404.769L55.727 404.255L55.4612 401.686L55.408 401.19L55.3549 400.711L55.2485 399.789L55.2131 399.346L55.1776 398.921L55.1245 398.513L55.0535 397.698L55.0004 397.291L54.9649 396.883L54.8586 396.068L54.7523 395.217L54.5396 393.445L54.3978 391.673L54.3624 391.247L54.2915 390.432L54.2738 390.025L54.2384 389.635L54.1852 388.465L54.1498 387.721L54.1321 387.331L54.1143 386.923L54.0788 386.516L54.0435 386.09L53.9725 385.204L53.9371 384.743L53.8307 383.308L53.7421 380.915V380.437L53.7244 379.958V377.229L53.7067 376.769L53.6713 375.812L53.6358 375.298L53.6004 374.766L53.5649 374.217L53.5295 373.632L53.4764 373.029L53.4231 372.391L53.37 371.735L53.2991 371.062L53.2282 370.371L53.0156 368.244L52.8383 366.827L52.7497 366.135L52.3067 362.768L52.094 361.386L52.0054 360.73V360.659L51.8991 359.915L51.775 359.153L51.651 358.373L51.2789 355.981L50.8535 352.791L50.5345 350.345L50.4281 349.512L50.3218 348.662L50.1978 347.811L49.8257 345.153L49.7016 344.249L49.4535 342.406L49.2053 340.527L49.0813 339.57L48.3725 334.697L48.2129 333.722L48.0535 332.73L47.8762 331.719L47.6813 330.709L47.4864 329.664L47.2737 328.583L47.0433 327.448L46.7952 326.279L46.5117 325.056L46.2281 323.78L45.9091 322.469L45.5901 321.122L45.2534 319.757L44.9167 318.357L44.5622 316.939L43.8534 314.068L43.1445 311.162L42.8078 309.726L42.4711 308.309L42.1343 306.909L41.7976 305.491L41.4432 304.055L41.0888 302.602L40.7344 301.131L40.3622 299.643L39.99 298.119L39.6001 296.541L39.1926 294.946L38.3773 291.721L37.952 290.108L37.5267 288.513L37.1014 286.936L36.676 285.377L36.2329 283.835L35.7899 282.311L35.3646 281.017L34.9038 279.528L34.4431 278.022L33.9646 276.498L32.5291 271.872L31.5721 268.753L31.0937 267.212L30.5974 265.687L30.119 264.181L29.6405 262.728L29.162 261.292L28.6835 259.875L27.7265 257.075L27.2303 255.675L26.7341 254.257L26.2202 252.804L25.7062 251.315L25.1923 249.773L24.6607 248.196L23.5973 244.97L23.0656 243.376L22.534 241.816L22.0201 240.292L21.5061 238.839L21.01 237.456L20.1061 234.887L19.6808 233.664L18.8656 231.254L18.0858 228.844L17.7137 227.621L16.9693 225.14L16.6149 223.917L16.2783 222.712L15.9592 221.56L15.6757 220.479L15.4275 219.486L15.2149 218.565L15.02 217.75L14.8604 217.041L14.7364 216.438L14.6478 215.924L14.5769 215.517L14.5237 215.198L14.4883 214.967L14.4529 214.808L14.4351 214.737V214.719L3.89062 185.07C5.84003 184.627 7.57685 183.387 8.95915 181.934C11.9364 179.187 15.0022 176.528 18.0681 173.87C25.5999 167.455 34.1064 160.224 42.7192 154.766C60.4587 143.495 79.7046 134.74 99.5885 127.97C104.551 126.517 109.229 124.585 114.085 122.53C136.078 115.494 158.673 110.053 179.851 100.696C186.301 98.0379 192.327 94.5821 198.476 91.3213C200.284 101.423 201.702 111.613 202.322 121.856C203.58 142.272 203.846 162.705 204.324 183.139C204.413 187.374 204.502 191.627 204.519 195.863C204.555 198.078 203.881 200.506 205.193 202.509C208.206 207.258 214.355 205.025 214.993 200.187C226.406 195.491 235.692 186.116 245.599 178.903C246.29 178.371 246.999 177.857 247.69 177.326C247.619 177.609 247.566 177.893 247.548 178.194C248.044 184.468 250.472 190.476 251.854 196.607C256.515 213.993 261.513 231.289 266.599 248.533C288.131 318.41 313.367 387.047 335.342 456.801C341.615 475.781 348.066 494.726 355.084 513.423C358.487 522.514 361.889 531.357 365.044 540.643C366.072 544.152 368.127 547.342 371.087 549.451C365.859 552.836 362.456 558.667 364.282 565.135C352.55 566.765 340.694 568.095 329.299 571.302C319.499 574.173 310.443 578.178 308.174 589.148C304.329 601.944 306.455 615.465 307.784 628.491C308.547 634.481 308.121 640.914 311.063 646.373C310.691 650.236 310.992 654.17 313.845 656.988C317.159 660.249 322.352 660.337 326.694 660.408C335.555 660.55 344.398 659.77 353.241 659.221C367.525 658.37 381.862 657.697 395.968 655.021C408.055 652.788 421.505 654.046 432.475 647.843C442.612 640.684 440.007 623.192 441.23 612.081C440.68 599.285 444.739 582.538 437.313 571.444C430.03 562.778 414.399 561.165 399.158 561.679C398.095 557.55 395.472 553.758 392.176 550.922C394.267 548.353 394.32 544.011 395.277 540.838C397.173 531.694 398.378 522.408 399.867 513.174C407.098 469.472 410.518 425.238 414.931 381.199C418.794 331.206 421.541 281.141 425.032 231.112C426.308 210.643 427.212 190.139 428.257 169.635C428.435 167.1 428.062 163.875 427.035 161.093C427.495 161.394 427.956 161.695 428.417 162.014C431.784 164.371 435.222 166.551 438.182 169.386C438.766 171.637 439.599 173.781 441.797 174.987C444.898 176.794 449.045 175.766 450.888 172.594C452.129 170.538 452.022 168.164 451.26 165.948C449.984 161.553 448.868 157.141 447.929 152.657C445.891 143.92 445.501 134.97 444.951 126.039C464.357 137.345 486.243 143.991 506.233 154.145C515.715 158.806 524.381 164.903 533.064 170.857C535.528 172.328 537.69 174.703 540.49 175.447C540.95 175.536 541.411 175.536 541.854 175.465L541.907 175.625L541.978 175.855L542.12 176.351L542.404 177.414L542.616 178.159L542.776 178.85L542.829 179.063L542.988 179.754L543.13 180.25L543.272 180.782L543.343 181.065L543.414 181.366L543.556 182.004L543.733 182.713L543.821 183.085L543.91 183.493L543.999 183.918L544.105 184.361L544.211 184.84L544.318 185.336L544.442 185.868L544.566 186.435L544.69 187.02L544.814 187.64L544.938 188.278L545.062 188.934L545.186 189.607L545.31 190.298L545.452 190.989L545.576 191.698L545.718 192.425L545.859 193.187L546.001 193.984L546.161 194.8L546.32 195.633L546.48 196.483L546.639 197.352L547.277 200.896L547.437 201.8L547.596 202.721L547.756 203.678L547.933 204.635L548.11 205.61L548.287 206.603L548.465 207.613L548.659 208.64L549.244 211.777L549.439 212.841L549.634 213.922L549.989 216.084L550.308 218.21L550.467 219.256L550.609 220.302L550.892 222.322L551.034 223.314L551.282 225.264L551.53 227.178L551.779 229.056L551.885 229.995L552.009 230.935L552.115 231.874L552.363 233.788L552.611 235.737L552.859 237.758L552.966 238.768L553.072 239.796L553.285 241.887L553.373 242.932L553.551 245.059L553.905 250.447L554.277 258.102L554.313 259.219L554.366 260.353L554.543 266.13L554.596 269.427L554.809 275.576L554.862 276.586L554.915 277.614L554.986 278.642L555.199 281.779L555.411 285.022L555.624 288.318L555.766 290.48L555.854 291.544L556.032 293.635L556.12 294.663L556.209 295.673L556.422 297.729L556.794 300.812L557.077 302.903L557.219 303.931L557.361 304.942L557.503 305.934L557.644 306.909L557.768 307.883L557.893 308.823L558.017 309.726L558.123 310.613L558.229 311.463L558.318 312.278L558.406 313.076L558.495 313.856L558.566 314.618L558.708 316.071L558.849 317.489L558.991 318.871L559.062 319.544L559.133 320.236L559.239 321.618L559.31 322.291L559.47 324.312L559.576 325.623L559.629 326.261L559.665 326.881L559.7 327.484L559.771 328.654L559.824 329.221L559.895 330.355L560.055 332.056L560.108 332.641L560.179 333.226L560.32 334.431L560.391 335.051L560.462 335.689L560.533 336.309L560.976 339.499L561.082 340.137L561.295 341.449L561.543 342.796L561.667 343.487L561.791 344.196L561.915 344.94L562.057 345.702L562.181 346.482L562.305 347.279L562.447 348.094L562.589 348.927L562.713 349.778L563.085 352.436L563.209 353.34L563.457 355.183L563.581 356.123L563.953 358.993L564.237 360.907L564.379 361.847L564.857 364.664L565.017 365.586L565.176 366.525L565.336 367.482L565.495 368.457L565.655 369.449L565.814 370.46L565.974 371.505L566.133 372.569L566.275 373.667L566.523 375.9L566.736 378.133L566.824 379.232L566.913 380.295L567.001 381.341L567.09 382.369L567.179 383.361L567.267 384.336L567.356 385.275L567.445 386.197L567.533 387.1L567.64 388.004L567.746 388.89L567.87 389.776L567.976 390.663L568.1 391.549L568.348 393.356L568.561 395.164L568.738 396.972L568.827 397.858L568.969 399.63L569.04 400.498L569.323 403.901L569.465 405.567L569.536 406.382L569.607 407.215L569.695 408.048L569.784 408.899L569.872 409.767L569.961 410.653L570.067 411.575L570.174 412.531L570.28 413.506L570.369 414.499L570.457 415.509L570.635 417.494L570.705 418.468L570.776 419.425L570.883 421.339L571.148 426.106L571.202 427.117L571.273 428.162L571.343 429.226L571.414 430.324L571.485 431.459L571.574 432.611L571.662 433.78L571.981 437.395L572.354 441.011L572.495 442.198L572.619 443.385L572.991 446.894L573.24 449.269L573.364 450.474L573.47 451.679L573.594 452.92L574.019 457.882L574.232 460.328L574.338 461.533L574.445 462.72L574.551 463.872L574.657 465.006L574.764 466.105L574.852 467.186L574.941 468.232L575.118 470.252L575.189 471.244L575.26 472.219L575.331 473.176L575.437 475.037L575.49 475.941L575.543 476.827L575.579 477.713L575.65 479.414L575.703 480.265L575.738 481.098L575.898 483.597L575.969 484.447L576.022 485.298L576.093 486.184L576.164 487.105L576.235 488.045L576.305 489.019L576.376 490.029L576.447 491.057L576.518 492.103L576.624 494.247L576.802 499.404L576.873 503.321L577.085 509.151L577.138 510.126L577.245 512.129L577.351 514.238L577.493 518.686L577.741 527.263L578.007 533.838L578.078 536.39L578.095 537.648V540.236L578.06 542.983L577.812 553.279L577.776 556.186V557.639L577.759 559.074V560.527L577.688 566.553L577.581 571.604L577.528 573.447L577.457 575.378L577.387 577.399L577.316 579.525L577.227 581.723L577.156 584.009L577.067 586.384L576.979 588.847L576.89 591.417L576.802 594.111L576.713 596.946L576.589 599.941L576.447 603.149L576.27 606.604L576.057 610.361L575.809 614.491L575.49 619.01L575.118 624.025L574.693 629.572L574.197 635.704L573.63 642.491L571.45 667.231L570.564 676.836L568.703 696.774L567.905 705.156L567.445 709.764L567.427 709.959L567.391 710.384L567.356 710.88L567.338 711.146L567.32 711.43L567.285 711.731L567.267 712.05L567.232 712.387L567.197 712.741L567.161 713.113L567.126 713.521L567.09 713.946L567.055 714.407L567.019 714.885L566.948 715.913L566.913 716.463L566.842 717.597L566.771 718.802L566.7 720.043L566.665 720.681L566.629 721.957V724.455L566.7 726.865L566.771 728.071L566.807 728.691L566.877 729.967L566.984 731.243L567.09 732.554L567.143 733.192L567.356 735.106L567.569 736.967L567.64 737.57L567.71 738.19L567.923 739.997L567.976 740.582L568.047 741.185L568.118 741.77L568.171 742.354L568.384 744.109L568.596 745.81L568.667 746.36L568.809 747.423L568.951 748.451L569.093 749.443L569.731 753.75L569.802 754.211L569.89 754.671L570.245 756.444L570.351 756.887L570.457 757.312L570.564 757.755L570.688 758.198L570.812 758.659L570.936 759.137L571.078 759.633L571.237 760.147L571.397 760.679L571.556 761.246L571.733 761.813L571.928 762.398L572.318 763.603L572.743 764.808L573.169 765.978L573.381 766.545L573.612 767.112L573.824 767.661L574.055 768.193L574.268 768.725L574.728 769.788L574.941 770.302L575.171 770.816L576.022 772.872L576.447 773.864L576.837 774.821L577.032 775.317L577.209 775.796L577.387 776.292L577.706 777.32L578.025 778.383L578.184 778.933L578.344 779.5L578.503 780.102L578.662 780.722L578.822 781.36L578.981 782.016L579.141 782.69L579.3 783.381L579.46 784.09L579.619 784.816L580.098 787.049L580.382 788.538L580.63 790.026L580.754 790.753L581.126 792.986L581.445 795.272L581.533 796.052L581.711 797.647L581.888 799.277L582.03 800.908L582.136 802.538L582.171 803.353L582.207 804.151L581.835 805.072Z" fill="white"/>
<path d="M564.024 878.264C559.54 873.692 562.943 867.223 560.763 861.871C559.771 858.522 557.804 855.456 557.414 851.947C557.077 848.119 558.725 844.291 560.001 840.764C562.447 833.8 565.389 827.012 567.976 820.1C569.961 814.607 570.883 808.865 570.528 803.034C569.695 791.692 567.639 782.193 564.928 771.56C561.72 759.651 557.804 747.636 558.583 735.142C559.31 717.827 562.482 700.726 564.467 683.535C567.179 659.823 568.738 637.192 569.819 613.64C571.538 576.938 571.024 540.2 570.493 503.48C569.837 468.887 570.12 434.134 565.672 399.771C563.014 381.624 560.657 363.442 558.247 345.277C557.768 339.162 554.383 332.322 558.53 326.899C562.022 327.413 563.812 331.4 564.414 334.59C565.442 339.357 566.417 344.125 567.356 348.892C569.057 357.647 570.404 366.454 571.981 375.227C576.996 400.799 579.814 426.709 580.931 452.742C583.678 526.076 587.328 599.764 579.176 672.884C577.245 697.677 569.837 722.435 572.495 747.387C574.799 758.907 578.822 769.983 581.303 781.467C589.42 816.273 582.862 819.533 571.91 850.334C575.614 857.317 577.564 864.707 576.553 872.628C576.252 878.601 568.561 883.545 564.024 878.264Z" fill="black"/>
<path d="M291.232 929.002C245.084 928.736 198.972 925.865 153.09 921.045C132.001 918.918 110.895 916.721 89.983 913.265C83.8335 912.432 77.7017 911.298 72.013 908.746C66.5724 905.857 59.5723 904.918 54.8406 901.054C49.1519 895.242 53.5292 884.874 61.8053 885.193C64.9952 885.353 67.8662 887.019 70.8612 887.976C97.0895 896.181 124.594 899.495 151.673 903.695C174.782 907.293 197.997 910.022 221.302 911.883C260.662 914.931 300.199 916.579 339.666 915.126C394.816 912.131 449.771 904.032 503.451 891.148C525.532 885.459 546.391 879.168 567.072 869.97C571.255 868.216 575.1 874.365 571.042 877.271C568.348 879.327 565.07 880.603 562.553 881.808C520.216 901.161 474.033 909.632 428.434 917.571C383.066 924.89 337.185 929.445 291.232 929.002Z" fill="black"/>
<path d="M54.6989 895.827C47.8228 894.054 46.3696 886.575 45.0228 880.585C40.2556 858.309 52.5546 837.22 54.823 815.457C55.2837 789.548 42.0986 766.12 37.5796 741.096C33.7517 721.956 40.3442 703.189 44.0126 684.563C49.276 653.071 50.7824 620.995 53.0331 589.184C54.6989 560.793 57.18 534.104 57.0205 506.032C57.18 458.644 53.9723 411.326 51.6862 364.009C51.5267 361.244 52.7672 357.611 55.8685 357.469C57.0913 357.646 58.1192 358.515 58.8458 359.472C61.2205 363.512 60.4407 368.652 61.3091 373.153C68.3624 432.965 72.2258 494.354 67.6713 554.342C66.2713 577.15 65.3319 600.065 63.8256 622.784C62.142 647.648 61.2737 672.69 56.028 697.128C43.6228 743.382 57.0381 746.98 66.9092 788.839C74.7422 820.987 66.4484 829.919 59.6078 859.302C58.6154 864.742 57.8533 870.325 58.7217 875.836C59.9091 881.596 63.4889 887.728 59.9977 893.363C58.9699 895.259 56.861 896.589 54.6989 895.827Z" fill="black"/>
<path d="M235.16 903.908C192.451 902.189 149.528 897.12 108.148 886.522C97.054 883.9 86.0311 880.922 75.079 877.679C67.6713 875.517 60.3876 872.593 54.6812 867.223C54.3268 866.94 51.7571 864.618 52.3064 864.458C56.0457 864.99 60.0154 864.742 63.737 865.876C72.4384 868.499 80.9803 871.671 89.8412 873.798C109.92 879.132 129.609 883.899 149.954 887.32C208.843 897.12 269.204 897.9 328.572 894.586C362.102 892.636 395.507 889.216 428.984 886.505C458.632 883.953 488.37 880.745 516.955 872.115C530.813 868.304 544.477 861.995 559.168 864.069C552.133 871.902 541.943 875.765 531.948 878.353C521.244 881.56 510.486 884.52 499.588 887.001C467.263 894.001 434.017 895.224 401.161 897.988C345.975 902.384 290.576 906.265 235.16 903.908Z" fill="black"/>
<path d="M368.464 614.934C371.476 618.868 375.783 623.404 374.844 628.703C374.844 628.756 374.826 628.828 374.808 628.881C374.064 632.921 370.236 634.25 367.17 631.468C365.309 630.015 364.476 627.8 363.626 625.673C361.659 621.863 358.593 617.68 354.464 616.227C353.258 615.802 351.965 615.607 350.565 615.713C347.392 615.979 345 616.918 343.104 618.248C335.678 623.422 335.98 634.498 329.05 634.906C328.253 634.233 327.721 633.453 327.402 632.567C325.453 627.215 331.62 618.762 334.278 614.739C335.395 613.285 336.635 612.009 337.964 610.928C344.858 605.293 354.162 604.619 361.641 608.89C364.175 610.326 366.514 612.346 368.464 614.934Z" fill="black"/>
<path d="M374.844 628.703C375.641 631.025 375.517 633.223 373.816 635.03C372.345 636.643 370.36 636.643 368.393 636.625C364.972 636.625 361.534 636.98 358.203 637.228C349.129 637.848 340.002 638.238 330.893 638.149C327.526 637.458 326.569 634.764 327.385 632.585C328.023 630.866 329.742 629.483 332.24 629.607C332.134 623.918 335.856 619.293 340.942 616.333C346.241 613.25 353.01 612.009 358.469 613.303C359.674 613.587 360.843 614.012 361.889 614.561C365.469 616.759 372.912 623.032 374.844 628.703Z" fill="black"/>
<path d="M355.314 583.105C364.37 587.961 366.071 600.295 361.623 608.873C360.79 610.503 359.727 611.992 358.451 613.285C357.281 614.455 355.952 615.447 354.446 616.209C353.453 616.723 352.372 617.131 351.238 617.414C349.519 620.782 345.833 620.108 343.068 618.23C342.235 617.663 341.491 617.007 340.924 616.298C340.782 616.121 340.64 615.944 340.534 615.784C339.542 614.296 338.673 612.647 337.947 610.911C334.916 603.68 334.491 594.801 338.868 588.351C342.59 583.69 349.572 579.915 355.314 583.105Z" fill="black"/>
<path d="M381.365 603.131C377.927 602.954 376.793 598.505 379.185 596.29C381.383 594.376 383.669 592.515 386.079 590.849C389.996 588.51 394.568 590.885 398.449 592.178C400.912 592.941 403.517 592.675 406.052 592.586C409.614 592.48 413.442 592.125 416.827 593.472C417.872 593.951 418.758 594.872 419.609 595.652C418.935 595.812 418.049 595.758 417.429 595.847C415.834 595.865 414.629 596.769 413.264 597.389C403.836 602.457 399.477 601.252 389.943 598.115C387.019 599.622 384.927 603.308 381.365 603.131Z" fill="black"/>
<path d="M387.993 624.415C384.396 622.324 388.082 618.088 390.687 616.936C401.036 610.415 405.236 615.306 415.356 617.344C417.252 617.734 419.308 618.053 421.062 618.691C415.799 622.288 408.728 624.557 402.72 622.572C397.581 621.296 392.92 627.304 387.993 624.415Z" fill="black"/>
<path d="M277.799 148.864C285.171 148.687 292.579 149.839 299.774 151.664C286.695 138.036 271.401 126.765 258.057 113.403C245.935 102.415 232.98 91.268 226.122 76.0448C223.588 70.3384 221.461 63.9584 221.249 57.6317C215.843 63.0192 209.96 67.9282 204.112 72.8372C211.98 100.997 213.185 130.451 214.426 159.515C214.638 171.229 215.471 183.227 215.117 194.959C219.654 189.554 224.58 184.521 230.393 180.392C245.457 168.943 260.555 156.644 277.799 148.864ZM390.634 562.211C387.781 555.973 379.593 551.649 374.028 557.266C372.256 559.163 371.565 561.679 370.962 564.196C376.279 563.646 383.208 562.778 390.634 562.211ZM403.252 150.885C402.49 150.761 401.728 150.672 400.966 150.583C398.874 150.459 396.73 150.495 394.869 151.558C389.305 154.464 383.811 157.477 378.441 160.756C377.768 161.163 377.094 161.571 376.421 161.996C377.147 161.766 377.892 161.535 378.636 161.305C380.231 160.897 381.932 160.33 383.439 159.905C377.325 167.1 369.58 173.374 360.808 176.989C353.843 179.576 346.223 180.25 338.851 179.825C328.785 179.098 310.797 174.065 304.435 166.001C303.868 164.991 303.673 163.981 303.779 163.095C295.716 160.065 287.227 157.778 278.827 157.991C277.87 158.452 276.931 158.93 275.991 159.409C276.133 159.586 276.293 159.763 276.434 159.94C279.801 163.963 284.055 167.047 288.591 169.617C305.144 178.389 323.255 186.311 342.324 186.134C375.021 185.407 381.33 164.708 403.252 150.885ZM411.794 153.153C410.252 152.586 408.692 152.072 407.115 151.682C404.457 161.394 398.166 170.006 390.527 176.528C376.35 190.245 356.785 197.83 337.043 196.536C319.162 195.225 301.954 188.437 286.394 179.771C281.839 177.148 277.498 174.136 273.794 170.432C286.164 221.967 300.696 272.989 314.554 324.134C324.177 357.434 335.625 390.166 346.258 423.164C355.615 450.563 365.593 477.996 375.428 505.182C384.325 448.968 393.026 392.683 398.786 336.043C404.031 287.06 406.353 237.864 407.647 188.632C408.373 177.184 406.956 165.292 411.28 154.393C411.351 154.269 411.546 153.755 411.794 153.153ZM430.738 626.169C431.731 612.47 432.138 599.657 431.748 586.065C431.624 579.437 428.806 575.396 422.249 573.801C414.523 571.409 406.371 571.338 398.36 571.426C396.571 576.194 392.955 580.358 388.224 581.74C387.302 583.778 385.087 585.285 382.429 584.541C378.725 584.151 376.385 579.986 377.927 576.619C379.097 573.713 383.332 572.72 385.53 574.758C387.143 574.262 388.454 573.11 389.429 571.674C376.049 572.348 362.722 574.35 349.448 576.087C340.41 577.026 331.319 578.48 323.025 582.396C312.374 587.199 313.845 606.25 314.235 616.121C314.961 623.458 315.759 630.795 316.663 638.114C317.177 640.95 317.194 643.98 316.574 646.762C318.648 650.59 323.167 650.484 326.995 650.821C335.288 651.14 343.582 650.431 351.858 649.935C371.051 649.297 390.067 646.993 409.118 644.831C415.462 643.998 423.1 644.37 428.08 639.762C430.685 635.828 430.189 630.671 430.738 626.169ZM434.602 153.082C434.566 152.905 434.531 152.71 434.513 152.533C431.359 131.993 432.883 110.744 425.404 91.0022C423.72 86.3413 421.771 81.6272 419.467 77.2322C418.918 76.0271 418.244 74.8751 417.535 73.7586C416.277 82.0879 413.92 90.3287 410.925 98.144C399.495 125.081 378.087 145.727 356.661 164.92C356.377 165.186 356.094 165.452 355.793 165.7C354.818 166.586 353.843 167.472 352.851 168.358C353.17 168.305 353.507 168.234 353.826 168.181C355.881 167.791 357.937 167.33 360.028 166.799C359.709 165.966 359.745 164.956 360.276 163.892C362.492 160.419 366.851 159.037 370.023 156.591C378.264 151.629 385.973 145.338 395.029 141.935C408.781 139.224 422.763 145.462 434.123 152.763C434.283 152.869 434.442 152.976 434.602 153.082ZM545.168 170.609C545.7 172.913 543.963 175.164 541.765 175.518C541.322 175.589 540.879 175.589 540.401 175.5C537.601 174.756 535.439 172.381 532.975 170.91C524.274 164.956 515.626 158.859 506.145 154.199C486.154 144.044 464.268 137.398 444.862 126.092C445.43 135.023 445.819 143.955 447.84 152.71C448.761 157.194 449.895 161.606 451.171 166.001C451.933 168.217 452.04 170.591 450.799 172.647C448.956 175.819 444.809 176.829 441.708 175.04C439.528 173.852 438.678 171.708 438.093 169.439C435.133 166.604 431.695 164.424 428.328 162.067C427.867 161.748 427.407 161.447 426.946 161.146C427.991 163.946 428.346 167.153 428.169 169.688C427.141 190.174 426.219 210.678 424.943 231.165C421.47 281.194 418.705 331.259 414.842 381.252C410.429 425.309 407.009 469.525 399.778 513.228C398.29 522.461 397.085 531.747 395.188 540.891C394.231 544.064 394.16 548.388 392.087 550.975C395.383 553.811 398.006 557.603 399.069 561.732C414.328 561.219 429.941 562.831 437.224 571.497C444.65 582.573 440.592 599.338 441.141 612.134C439.9 623.245 442.523 640.719 432.386 647.897C421.417 654.082 407.966 652.841 395.879 655.074C381.791 657.768 367.454 658.423 353.152 659.274C344.327 659.823 335.466 660.603 326.605 660.461C322.263 660.39 317.053 660.302 313.757 657.041C310.903 654.223 310.602 650.289 310.974 646.425C308.032 640.967 308.44 634.534 307.696 628.544C306.366 615.518 304.24 601.997 308.085 589.201C310.372 578.232 319.41 574.226 329.21 571.355C340.605 568.148 352.461 566.819 364.193 565.188C362.385 558.737 365.77 552.889 370.998 549.504C368.038 547.395 365.965 544.205 364.955 540.697C361.783 531.428 358.398 522.567 354.995 513.476C347.96 494.779 341.509 475.852 335.253 456.854C313.278 387.118 288.06 318.463 266.51 248.586C261.406 231.324 256.426 214.028 251.765 196.66C250.383 190.529 247.955 184.503 247.459 178.247C247.477 177.946 247.53 177.662 247.601 177.379C246.91 177.893 246.201 178.424 245.51 178.956C235.603 186.169 226.317 195.544 214.904 200.24C214.266 205.078 208.134 207.311 205.104 202.562C203.793 200.577 204.466 198.149 204.431 195.916C204.413 191.68 204.324 187.427 204.236 183.192C203.757 162.758 203.491 142.325 202.233 121.909C201.613 111.648 200.213 101.476 198.387 91.3742C192.238 94.6351 186.213 98.0909 179.762 100.749C158.567 110.106 135.989 115.529 113.996 122.583C109.14 124.638 104.462 126.57 99.4996 128.023C79.6157 134.775 60.3699 143.548 42.6304 154.819C34.0176 160.277 25.4933 167.508 17.9792 173.923C14.9134 176.581 11.8475 179.24 8.8702 181.987C7.4879 183.44 5.75119 184.68 3.80178 185.123C3.11063 185.283 2.40183 185.336 1.65751 185.265C0.718257 185.354 0.133411 184.468 0.080245 183.599C-0.628628 179.063 3.51824 176.245 6.2474 173.32C14.1513 165.487 22.1616 157.69 30.9162 150.814C51.0836 135.591 73.9271 124.231 97.4617 115.228C104.391 112.056 112.047 111.435 119.242 108.972C139.799 102.769 159.878 94.9541 179.496 86.2881C184.529 83.7893 188.126 82.0526 192.663 79.6778C193.549 79.0221 194.577 78.5082 195.641 78.1537C195.304 77.0195 194.896 75.9208 194.382 74.822C193.656 74.06 193.142 73.1384 193 72.0397C192.681 69.9662 193.886 67.7332 195.782 66.9002C200.886 63.1786 205.724 59.1204 210.474 54.9911C213.965 51.8544 217.332 48.5935 220.806 45.5453C222.773 43.8086 225.307 41.5933 227.983 42.8338C228.78 43.1705 229.401 43.7554 229.79 44.4466C230.747 45.0491 231.474 46.0238 231.722 47.1757C233.175 42.0718 234.203 36.8261 235.018 31.5804C235.887 26.8664 235.993 21.9928 237.251 17.3496C238.439 13.3268 244.819 13.699 245.474 17.8637C245.846 20.2384 245.935 22.684 246.041 25.0765C246.36 32.945 246.449 41.0262 244.464 48.6998C243.241 52.8113 240.069 63.2673 235.497 69.0624C241.788 81.9462 253.254 91.8882 264.561 100.59C272.784 107.43 279.305 113.438 287.351 119.836C300.27 130.451 312.977 142.024 322.281 155.988C324.567 159.586 328.554 163.29 327.402 167.756C331.549 168.819 335.537 169.369 339.435 169.475C339.524 168.961 339.701 168.465 339.967 168.022C341.261 166.285 342.998 164.885 344.344 163.184C358.345 145.32 374.755 129.051 385.796 109.061C389.978 101.015 393.292 92.4553 396.057 83.7538C394.196 82.6551 392.53 81.1842 391.272 79.5892C385.689 74.3612 385.282 45.5454 389.677 39.7148C392.654 35.8869 395.277 36.897 397.226 40.9553C399.406 47.3529 398.219 54.4063 399.512 61.052C399.796 63.0192 400.239 65.004 400.7 67.0066C401.267 64.685 401.993 62.4344 403.517 60.5204C408.426 53.8747 414.133 55.6114 416.791 60.8749C417.305 60.8749 417.819 60.9634 418.315 61.1938C423.437 64.4015 426.627 70.0902 429.958 74.9992C436.232 85.0121 440.556 96.1769 442.842 107.749C443.037 108.777 443.214 109.823 443.356 110.851C443.551 111.01 443.764 111.17 443.959 111.329C451.03 116.256 458.455 119.871 466.111 123.646C483.142 132.082 501.75 137.185 518.071 147.003C526.17 152.923 534.907 159.622 541.96 166.533C543.307 167.65 544.814 168.784 545.168 170.609Z" fill="black"/>
<path d="M374.79 523.293C368.056 521.432 371.636 513.44 372.168 508.602C373.621 499.865 374.968 491.128 376.474 482.409C382.11 446.557 385.3 410.351 390.279 374.393C394.71 338.064 398.679 301.627 400.345 265.049C401.125 246.991 400.912 228.896 402.188 210.873C402.826 194.374 405.024 177.857 405.414 161.411C405.733 158.026 404.918 154.447 405.839 151.168C408.675 146.596 413.637 149.644 412.839 154.925C413.3 166.87 412.308 179.24 411.209 190.971C410.004 209.083 408.958 227.195 408.887 245.342C408.125 300.44 400.983 355.183 394.391 409.802C391.307 436.757 388.791 463.783 384.396 490.579C383.013 499.032 381.72 507.485 380.603 515.992C380.585 519.359 378.707 523.665 374.79 523.293Z" fill="black"/>
</svg>
