<svg width="627" height="979" viewBox="0 0 627 979" fill="none" xmlns="http://www.w3.org/2000/svg">
<g id="Body / Healthcare Worker">
<path id="Outline" fill-rule="evenodd" clip-rule="evenodd" d="M57.3086 398.16C61.3231 397.521 62.5315 401.302 62.6914 404.586C63.2065 408.26 63.4902 412.006 63.8632 415.698C67.0252 443.124 70.081 470.603 70.4541 498.224C71.289 541.767 66.2616 585.169 67.1142 628.695C69.7433 684.417 65.747 739.854 66.4043 795.558C66.7595 818.545 66.1727 841.569 64.5029 864.504C63.4726 878.563 61.5548 892.214 60.3291 906.166C59.9205 910.977 59.7425 915.787 59.6181 920.615C59.4954 923.817 59.6763 927.426 58.3877 930.34C80.0228 943.17 104.324 950.283 128.508 956.598C155.349 962.26 182.847 963.663 210.097 966.006C243.581 968.136 277.101 970.354 310.675 969.751C341.424 969.13 372.244 969.805 402.887 966.592C423.404 964.533 443.868 961.888 464.35 959.367C479.236 957.557 493.66 956.012 508.155 952.781C517.907 950.616 527.695 948.059 536.879 944.101C549.306 938.082 561.485 930.552 571.294 920.825C571.327 920.499 571.389 920.194 571.481 919.923C572.227 916.16 572.53 912.326 573.134 908.545C574.395 898.533 575.336 888.486 575.691 878.403C577.521 848.084 577.343 817.729 577.557 787.374C579.12 742.534 578.267 697.535 578.569 652.749C578.25 612.738 578.925 573.063 576.047 533.212C575.052 512.283 573.756 491.39 572.157 470.515C571.233 460.237 569.936 449.888 572.334 439.681C577.521 446.852 578.16 457.112 578.871 466.023C580.594 486.97 582.051 507.934 583.152 528.934C586.19 571.04 586.137 614.016 586.368 655.927C586.226 681.382 586.208 706.269 586.599 731.334C586.67 753.257 585.995 774.967 586.013 796.872C585.924 832.57 587.078 868.356 583.33 903.787C582.797 908.491 582.406 913.213 581.82 917.917C581.692 921.42 580.193 925.902 576.648 926.754C563.759 941.123 545.942 951.114 527.713 957.06C495.774 966.29 462.324 968.243 429.497 972.609C395.764 977.207 361.764 977.934 327.764 978.183C317.443 978.413 307.105 978.574 296.784 978.574C284.971 978.61 273.176 978.396 261.381 977.811C228.216 976.177 194.802 974.402 161.797 971.296C134.423 969.787 108.097 962.544 82.4814 953.118C74.1317 949.935 37.2173 938.416 46.1377 927.108C45.6886 923.149 46.8843 918.704 46.9521 914.828C47.7337 901.888 50.5227 887.846 51.8017 875.189C55.5143 841.054 55.1413 806.723 54.6972 772.445C54.7505 749.742 55.8703 727.055 56.2255 704.352C57.0782 669.737 54.2 635.565 54.9638 601.021C55.5678 570.72 58.0545 540.472 57.8769 510.153C58.1967 479.905 56.1186 450.97 54.2002 421.023C53.8272 414.651 54.1295 408.279 54.165 401.906C54.165 400.113 55.6211 398.533 57.3086 398.16ZM149.231 713.825C157.977 711.573 167.085 711.882 175.989 712.89C186.594 713.813 197.218 714.914 207.876 715.162C215.088 715.357 222.318 715.322 229.548 715.286C237.293 715.233 245.02 715.198 252.765 715.446C267.064 715.979 281.329 717.487 295.594 718.605C302.681 719.245 310.053 719.6 316.999 720.363C304.547 721.606 292.041 721.961 279.535 721.961C269.214 721.943 258.876 721.695 248.537 721.535C242.266 721.446 235.978 721.464 229.707 721.481C214.075 721.535 198.461 721.589 182.882 720.009C171.772 719.231 160.618 718.495 149.852 715.698C149.886 716.302 149.781 716.924 149.521 717.506C148.74 721.127 148.064 724.784 147.602 728.459C166.485 732.489 185.564 731.903 204.695 733.181C241.573 735.187 278.735 737.21 315.382 732.612C315.915 729.914 316.466 727.322 317.887 725.032C321.226 728.227 324.725 735.044 320.089 738.559C317.797 740.085 314.867 739.962 312.22 740.37C307.388 741.098 302.503 741.222 297.653 741.612C288.754 742.198 279.836 742.322 270.919 742.322C265.217 742.322 259.515 742.269 253.812 742.251C231.093 741.541 208.426 739.73 185.706 738.967C173.183 738.346 160.57 738.079 148.207 735.86C139.929 734.618 139.325 731.122 141.013 723.648C142.292 719.956 141.51 711.24 147.442 712.482C148.216 712.732 148.821 713.216 149.231 713.825ZM247.666 10.4736C248.785 15.4438 250.277 20.3076 250.597 25.4375C251.041 38.9107 248.572 52.3489 248.341 65.8398C248.003 74.5024 246.813 83.1116 245.623 91.7031C244.264 102.907 239.722 114.904 229.743 120.778V120.779C229.69 121.223 229.637 121.685 229.602 122.129C229.566 122.431 229.53 122.733 229.513 123.017C229.495 123.176 229.477 123.318 229.477 123.478C229.476 123.486 229.474 123.495 229.474 123.504C234.822 126.284 239.305 130.543 243.013 135.282C250.438 143.945 258.129 152.785 265.128 161.714C275.342 173.891 285.859 185.802 296.126 197.908C311.438 216.831 325.099 237.032 339.967 256.292C347.872 266.925 355.51 277.754 362.669 288.901C362.868 289.222 363.049 289.56 363.213 289.908C364.352 286.08 365.512 282.256 366.72 278.446C375.637 251.571 382.689 224.003 389.155 196.471C394.372 175.518 400.012 154.838 404.217 133.746C402.25 132.627 401.103 130.227 400.968 127.969C400.417 124.525 399.618 121.135 398.925 117.727C395.177 94.4014 398.499 70.5787 399.05 47.0938C400.062 34.9342 400.258 21.8517 405.054 10.6152C404.752 21.053 407.203 31.3842 406.936 41.8574C407.122 63.1675 405.532 84.6695 407.456 105.816C407.46 105.816 407.465 105.815 407.469 105.814C407.522 105.797 407.576 105.779 407.629 105.779C428.385 109.807 442.113 141.695 453.07 161.117C453.526 161.151 454.008 161.268 454.508 161.483C477.405 172.099 500.978 180.584 522.987 192.779C528.76 196.152 534.356 199.88 539.685 203.927C543.416 206.501 547.821 209.003 548.923 213.778C549.189 214.755 549.366 215.962 549.047 216.974C548.478 217.719 547.448 217.915 546.4 217.915C545.672 217.933 544.943 217.843 544.339 217.772C539.561 217.08 536.221 213.388 532.491 210.672C525.492 205.364 517.924 200.856 510.144 196.791C494.058 187.891 476.449 181.921 460.154 173.497C460.155 173.498 460.156 173.499 460.156 173.5C464.579 181.239 469.233 188.837 473.55 196.63C475.468 200.056 477.352 203.482 479.306 206.891C480.443 208.719 481.686 210.76 482.468 212.891C485.119 213.508 487.49 215.29 489.786 216.654C498.011 221.855 505.418 228.334 511.352 236.056C516.432 243.05 535.705 267.813 529.684 275.464C529.62 275.536 529.553 275.605 529.485 275.674C537.972 289.103 546.797 302.374 553.008 317.072C556.659 325.286 580.98 371.716 587.263 400.725C589.076 402.344 590.925 403.925 592.816 405.457C596.031 407.424 601.584 411.339 606.049 411.439C604.433 409.136 604.249 405.406 604.789 402.899C606.193 394.699 618.112 391.877 623.672 397.628C628.903 403.605 624.914 410.081 618.623 411.946C618.179 413.561 617.177 415.14 615.998 416.143C613.476 418.628 609.923 419.658 606.388 419.658C604.878 419.64 603.35 419.445 601.929 419.09C597.11 417.844 592.753 415.596 588.738 412.788C588.653 419.869 586.132 424.307 579.92 424.308C578.836 424.308 577.628 424.166 576.313 423.882C573.396 423.502 570.009 421.672 568.659 418.997C568.612 418.975 568.564 418.954 568.517 418.93C567.309 421.078 564.893 421.965 562.459 421.965C561.02 421.965 559.581 421.663 558.373 421.131C553.399 419.072 550.504 413.285 550.291 408.102C550.451 402.918 555.691 398.782 560.789 399.812C567.368 401.315 575.02 407.782 574.149 415.052C576.192 415.443 578.24 416.096 580.257 416.213C580.622 412.996 580.467 409.348 579.907 405.396C577.985 403.545 576.135 401.631 574.342 399.723C554.819 380.303 538.778 357.795 523.11 335.269C513.056 320.162 503.623 304.647 495.079 288.636C494.049 286.665 492.983 284.731 491.899 282.813C491.571 282.289 491.36 281.71 491.258 281.114C490.26 281.364 489.243 281.499 488.241 281.499C485.754 281.499 483.356 280.664 481.58 278.729C473.302 265.239 464.917 250.949 462.306 235.115C461.329 230.234 461.773 225.068 464.118 220.666C464.326 220.193 464.513 219.709 464.724 219.247L464.723 219.246C464.492 218.98 464.261 218.714 464.03 218.43C463.391 217.649 462.786 216.832 462.218 215.998C461.951 215.625 461.703 215.252 461.454 214.861C461.205 214.489 460.956 214.098 460.726 213.708C460.566 213.459 460.423 213.193 460.281 212.944C460.139 212.696 459.997 212.448 459.855 212.199C459.482 211.507 459.109 210.814 458.754 210.122C454.97 203.572 451.578 196.808 448.061 190.116C447.865 189.779 447.687 189.442 447.491 189.122C447.118 188.448 446.727 187.773 446.354 187.099C445.413 185.412 444.49 183.708 443.584 182.004C443.229 181.347 442.873 180.69 442.535 180.016C442.34 179.643 442.145 179.288 441.949 178.915C441.416 177.903 440.883 176.892 440.351 175.88C439.711 174.655 439.054 173.43 438.414 172.205C438.148 171.673 437.864 171.158 437.598 170.626C437.065 169.579 436.514 168.549 435.945 167.52C435.501 166.667 435.039 165.815 434.577 164.963C433.944 163.767 433.292 162.589 432.624 161.41C433.797 172.147 431.614 183.596 430.474 194.252C426.85 236.358 416.831 277.097 406.386 317.89C402.176 335.321 397.433 352.594 391.855 369.635C389.83 376.664 387.858 383.694 385.514 390.635C384.324 393.812 383.382 397.931 379.829 399.227C379.438 399.369 379.03 399.421 378.621 399.421C377.953 399.432 377.287 399.248 376.725 398.866C376.547 398.89 376.367 398.906 376.186 398.906C374.819 398.888 373.398 398.161 372.51 396.705C369.596 388.007 366.861 379.095 363.166 370.61C358.849 357.297 353.84 344.125 349.719 330.776C349.583 329.496 350.173 328.413 351.074 327.712C351.079 327.704 351.083 327.696 351.088 327.688C352.9 323.251 354.533 318.795 356.008 314.233C356.408 312.924 356.803 311.612 357.196 310.3C355.264 309.165 353.611 307.51 352.436 305.588C347.978 299.251 343.732 292.789 339.061 286.594C322.185 264.635 305.913 242.198 288.594 220.595C268.627 195.601 248.962 170.199 229.315 144.975C228.956 144.454 228.552 143.954 228.127 143.463V143.679C228.091 144.442 228.091 145.188 228.073 145.951C228.073 146.075 228.055 146.218 228.073 146.342C228.055 147.158 228.056 147.992 228.056 148.826C228.056 159.299 228.944 169.773 230.116 180.104C232.035 207.317 234.895 234.459 237.453 261.601C239.087 276.689 240.206 292.044 245.056 306.511C247.294 312.653 249.408 318.652 251.469 324.759C251.611 325.061 251.735 325.363 251.824 325.683C251.842 325.753 251.859 325.807 251.877 325.878C251.877 325.946 251.892 326.013 251.894 326.065C251.918 326.068 251.942 326.07 251.966 326.072C252.001 326.072 252.037 326.072 252.055 326.09C252.232 326.108 252.41 326.126 252.569 326.144H252.641C252.854 326.179 253.067 326.197 253.28 326.232H253.315C253.386 326.25 253.441 326.25 253.512 326.268C253.671 326.303 253.849 326.321 254.026 326.356C254.239 326.392 254.435 326.445 254.631 326.48C254.915 326.551 255.199 326.623 255.483 326.694C255.696 326.748 255.909 326.818 256.122 326.889C256.157 326.889 256.176 326.907 256.211 326.907C256.3 326.943 256.407 326.977 256.514 326.995C256.549 327.013 256.566 327.014 256.584 327.031C256.815 327.102 257.046 327.191 257.277 327.279C257.508 327.368 257.756 327.457 257.987 327.546C258.254 327.652 258.52 327.759 258.805 327.901C259.018 327.99 259.249 328.097 259.462 328.203C259.622 328.274 259.782 328.363 259.941 328.434C260.03 328.469 260.102 328.522 260.19 328.558C260.368 328.646 260.564 328.753 260.741 328.859C260.936 328.966 261.132 329.072 261.327 329.196C261.345 329.196 261.363 329.215 261.363 329.215C261.558 329.321 261.736 329.445 261.932 329.569C262.18 329.729 262.429 329.889 262.678 330.066C262.962 330.262 263.228 330.439 263.494 330.652C263.672 330.777 263.85 330.919 264.027 331.061C264.294 331.256 264.542 331.469 264.809 331.7C264.915 331.789 265.04 331.895 265.146 331.983C265.271 332.072 265.378 332.179 265.502 332.285C265.804 332.551 266.106 332.835 266.39 333.102C266.514 333.226 266.657 333.35 266.781 333.492C267.048 333.758 267.314 334.026 267.58 334.31C267.74 334.487 267.9 334.664 268.06 334.859C268.486 335.339 268.894 335.818 269.285 336.315C269.463 336.546 269.641 336.759 269.801 336.989C270.174 337.486 270.529 337.984 270.866 338.517C271.008 338.73 271.151 338.942 271.293 339.173C271.648 339.741 272.003 340.309 272.323 340.895C272.483 341.161 272.625 341.446 272.768 341.712C272.892 341.942 273.016 342.173 273.122 342.403C273.193 342.51 273.246 342.635 273.3 342.759C273.406 342.972 273.496 343.167 273.603 343.38C273.604 343.384 273.606 343.388 273.608 343.393C282.162 339.872 289.206 346.285 292.059 354.688C294.652 362.32 293.071 370.38 290.886 377.924C288.381 384.882 283.443 395.142 275.147 395.835C272.905 395.823 270.508 394.952 269.332 393.233C269.014 393.692 268.697 394.133 268.361 394.557C268.201 394.77 268.042 394.983 267.847 395.196C267.687 395.409 267.509 395.622 267.313 395.835C266.958 396.243 266.603 396.652 266.23 397.042C266.053 397.237 265.857 397.433 265.662 397.61C265.502 397.77 265.36 397.912 265.2 398.054C264.916 398.338 264.613 398.604 264.311 398.87C264.169 398.994 264.028 399.119 263.886 399.243C263.673 399.421 263.477 399.598 263.264 399.758C263.05 399.935 262.837 400.095 262.624 400.255C262.411 400.415 262.198 400.575 261.967 400.734C261.523 401.054 261.079 401.338 260.617 401.622C260.386 401.764 260.155 401.906 259.924 402.03C259.675 402.172 259.444 402.314 259.195 402.438C258.964 402.563 258.734 402.687 258.503 402.794C258.254 402.918 258.023 403.024 257.774 403.148C257.544 403.255 257.313 403.361 257.082 403.45C257.047 403.468 257.011 403.485 256.993 403.485C256.816 403.556 256.638 403.627 256.46 403.698C256.282 403.769 256.123 403.824 255.945 403.895C255.661 404.001 255.376 404.089 255.092 404.178C254.879 404.249 254.648 404.32 254.417 404.391C254.381 404.408 254.329 404.427 254.275 404.427C254.098 404.48 253.92 404.515 253.76 404.568C253.529 404.639 253.316 404.693 253.085 404.746C253.049 404.746 253.014 404.764 252.996 404.764C252.747 404.835 252.481 404.888 252.215 404.924C251.966 404.977 251.717 405.012 251.469 405.065C251.256 405.101 251.025 405.137 250.811 405.154C250.616 405.19 250.402 405.225 250.207 405.243C250.012 405.279 249.816 405.297 249.621 405.314H249.603C249.301 405.35 248.999 405.367 248.697 405.385C248.449 405.403 248.2 405.421 247.934 405.421C247.578 405.439 247.205 405.456 246.832 405.456C220.169 402.58 218.836 364.238 227.843 345.066C228.02 344.694 228.197 344.303 228.375 343.931C228.464 343.735 228.553 343.558 228.642 343.362C228.721 343.189 228.811 343.028 228.894 342.857C228.838 342.768 228.783 342.677 228.73 342.582C226.883 338.872 225.87 334.824 224.627 330.919C224.501 330.594 224.375 330.264 224.256 329.93C223.178 327.966 222.261 325.917 221.519 323.818C215.621 311.765 212.512 298.718 211.073 285.423C206.792 254.731 206.384 223.968 204.377 193.151C203.558 176.288 200.041 153.543 200.678 132.407C198.433 133.272 196.062 133.96 194.41 134.804C182.438 139.827 170.802 145.738 158.599 150.211C146.217 154.471 133.925 158.963 121.366 162.762C106.267 167.43 90.9189 174.353 76.6191 180.441C64.895 185.128 53.5968 191.021 43.4004 198.441C31.8006 206.997 21.4441 217.063 11.4609 227.43C8.92088 229.383 6.93098 234.335 3.60934 234.335C3.12981 234.335 2.57899 234.228 2.0107 233.962C-0.653665 232.595 -0.47564 229.116 1.40719 227.128C5.33297 221.998 9.64911 217.187 14.1611 212.571C28.4965 197.074 46.0117 184.702 64.9834 175.648C73.1369 172.098 80.3314 169.312 88.2363 165.797C100.493 160.276 113.141 155.696 126.019 151.809C145.648 145.152 165.065 137.946 183.628 128.697C188.424 126.549 193.273 124.508 198.052 122.324C199.071 121.645 200.276 121.221 201.472 121.124C203.042 107.658 206.986 95.4952 215.302 86.8213C220.346 82.1175 226.706 79.1533 233.029 76.5439C234.8 75.9996 236.636 74.9628 238.504 74.5439C239.055 68.7969 239.384 63.0406 239.814 57.2305C241.093 45.213 242.071 34.2428 243.989 22.6514C244.984 18.5863 245.605 14.0594 247.666 10.4736ZM558.409 407.657C558.409 407.675 558.391 407.693 558.373 407.711C558.213 407.906 558.036 408.084 557.876 408.279C558.338 412.77 563.169 414.456 566.509 416.338C566.296 414.9 566.9 413.355 565.71 412.166C563.738 410.178 561.287 407.924 558.409 407.657ZM616.46 402.207C614.986 402.243 612.978 402.527 612.161 403.911C611.808 404.983 611.849 406.145 612.3 407.165C613.31 406.346 614.686 406.01 615.998 406.38C616.801 406.638 617.413 407.023 617.861 407.496C618.987 405.018 619.471 402.62 616.46 402.207ZM245.642 333.6C232.07 343.044 228.624 368.534 233.634 383.374C236.067 389.889 240.828 397.503 248.68 397.255C264.756 395.444 268.29 379.326 269.09 365.817C270.493 350.25 262.162 335.321 245.642 333.6ZM488.401 237.139C487.264 240.156 487.353 243.618 488.597 246.582C490.675 251.836 493.056 256.95 496.058 261.725C498.509 265.559 501.706 270.085 499.681 274.789C499.381 275.388 499.011 275.961 498.584 276.502C499.951 277.617 500.853 279.448 501.51 281.109C504.529 287.73 507.372 293.624 510.96 299.801C522.577 319.221 534.532 338.517 548.335 356.499C557.259 367.933 566.292 379.528 576.328 390.086C569.795 368.742 557.103 344.027 550.184 329.676C544.659 318.741 539.809 307.079 533.592 296.677C530.288 290.996 526.717 285.476 523.502 279.76C523.243 279.429 523.025 279.099 522.845 278.771C522.81 278.823 522.775 278.875 522.738 278.925C521.53 278.943 520.305 278.445 519.274 277.824C515.047 275.286 513.946 270.102 511.565 266.108C505.526 255.387 498.686 244.239 488.401 237.139ZM412.885 133.311C412.618 134.838 412.205 136.298 411.857 137.945C404.112 167.572 396.705 197.305 389.298 226.879C383.684 251.5 375.388 275.393 368.158 299.553C365.127 310.189 361.958 320.995 357.632 331.152C357.981 332.087 358.293 333.041 358.672 333.954C363.948 346.983 368.068 360.386 372.562 373.699C374.503 378.639 376.547 383.528 378.342 388.519C382.406 378.025 385.009 367.264 388.355 356.605C393.596 340.416 397.487 323.978 401.856 307.576C406.422 289.008 411.502 270.565 415.144 251.784C420.331 228.157 422.16 204.743 425.145 180.903C425.67 172.511 427.234 164.212 429.646 156.207C429.644 156.203 429.641 156.198 429.639 156.193C425.997 149.981 422.036 143.999 417.488 138.496C417.133 138.07 416.796 137.661 416.44 137.235C415.677 136.348 414.877 135.46 414.078 134.591C413.692 134.152 413.288 133.731 412.885 133.311ZM282.768 355.611C281.348 352.741 279.544 349.953 276.146 351.031C278.93 362.318 277.862 376.793 272.412 387.971C272.411 387.973 272.408 387.976 272.407 387.979C273.345 387.563 274.269 387.104 275.236 386.765C282.928 381.279 286.675 364.043 282.768 355.611ZM237.517 82.8506C232.135 85.2036 226.844 87.9068 222.247 91.5615C205.158 108.07 210.274 144.726 211.073 166.773C212.654 184.897 213.188 203.11 214.378 221.27C215.692 244.79 216.51 268.985 221.093 291.671C222.816 300.032 225.232 308.25 228.767 316.025C231.527 321.485 234.071 327.187 235.457 333.129C235.476 333.108 235.496 333.087 235.517 333.066C237.416 330.992 239.56 329.162 241.981 327.748C241.976 327.734 241.97 327.72 241.965 327.706C241.627 326.801 241.343 325.895 241.041 325.043C238.927 319.38 237.311 313.558 235.144 307.913C232.053 297.28 231.627 286.168 230.348 275.233C228.411 257.305 226.99 239.34 225.303 221.376C223.953 208.986 223.349 196.595 222.034 184.258C220.347 168.69 219.085 154.081 220.258 138.602C221.128 121.809 220.72 101.52 235.694 90.4961C235.783 90.4073 235.889 90.3358 235.996 90.2471C236.103 90.1584 236.191 90.0874 236.28 90.0342C236.286 90.0303 236.291 90.0264 236.297 90.0225C236.373 89.5647 236.45 89.1073 236.528 88.6504C236.909 86.7147 237.234 84.7819 237.517 82.8506ZM229.032 129.254C229.032 129.339 229.033 129.409 229.016 129.495C228.98 129.832 228.962 130.17 228.944 130.507C228.891 131.18 228.855 131.854 228.802 132.527C229.167 132.698 229.52 132.928 229.849 133.224C258.235 170.98 287.67 207.956 316.589 245.322C326.341 257.943 335.721 270.848 345.437 283.487C350.145 289.807 354.426 296.428 359.045 302.801C359.133 302.93 359.217 303.063 359.301 303.196C359.945 301.003 360.588 298.81 361.231 296.617C361.006 296.538 360.789 296.459 360.591 296.393C358.282 295.416 356.736 293.374 355.6 291.227C351.354 284.57 346.789 278.109 342.241 271.647C321.102 242.979 300.976 213.405 277.208 186.813C268.521 176.766 259.622 166.648 251.433 156.264C244.363 147.601 235.96 139.897 229.761 130.578C229.512 130.145 229.269 129.703 229.032 129.254ZM408.492 113.174C409.069 116.002 409.776 118.806 410.387 121.627C410.391 121.629 410.397 121.63 410.401 121.632C417.471 124.295 429.816 142.277 433.369 147.939C443.104 164.608 451.596 181.969 460.673 198.992C463.762 204.883 468.058 210.615 469.836 217.02C471.587 217.897 472.321 220.297 471.365 222.583C466.125 236.092 480.94 261.227 488.383 272.872C489.395 272.979 492.7 272.109 492.221 270.76C490.586 267.032 487.974 263.801 486.216 260.108C483.267 253.878 479.146 247.505 479.644 240.352C479.608 235.115 482.379 228.139 488.649 228.849C502.008 231.192 517.284 259.452 523.04 271.203C523.064 271.272 523.086 271.343 523.109 271.413C523.208 271.32 523.304 271.232 523.395 271.15C520.482 260.73 513.732 252.103 507.71 243.369C501.653 235.062 494.157 227.749 485.311 222.477C484.049 221.713 482.166 220.772 480.887 220.328C479.785 220.026 478.595 219.53 477.991 218.482C477.854 218.286 477.741 218.082 477.648 217.875C477.39 217.65 477.131 217.409 476.907 217.168C472.164 210.795 469.198 203.18 465.166 196.328C457.545 182.482 449.782 168.69 441.77 155.039C432.96 140.59 424.38 121.223 408.748 113.253C408.659 113.235 408.588 113.217 408.517 113.182C408.508 113.179 408.5 113.176 408.492 113.174Z" fill="black"/>
<path id="Skin" d="M403.651 13.988L403.757 14.0412C400.205 24.4789 399.974 36.1593 399.05 47.1118C398.499 70.579 395.177 94.4011 398.926 117.744C399.618 121.152 400.418 124.543 400.968 127.987C401.111 130.241 402.247 132.637 404.201 133.756C400.009 154.844 394.36 175.507 389.138 196.453C382.672 223.985 375.619 251.553 366.702 278.428C365.494 282.227 364.34 286.061 363.203 289.896C363.043 289.559 362.865 289.221 362.67 288.919C355.529 277.772 347.872 266.943 339.968 256.31C325.099 237.032 311.439 216.849 296.127 197.927C285.841 185.82 275.343 173.891 265.129 161.732C258.13 152.785 250.438 143.945 243.013 135.3C239.3 130.56 234.824 126.282 229.459 123.513C229.548 122.608 229.637 121.703 229.743 120.815C239.727 114.957 244.274 102.957 245.642 91.7385C246.832 83.1469 248.022 74.5375 248.36 65.8749C248.573 52.3839 251.06 38.9462 250.616 25.473C250.403 22.0648 249.674 18.7808 248.875 15.4968L249.141 15.4081L251.006 14.7335L252.889 14.0945L254.79 13.4731L256.709 12.8697L258.68 12.2661L260.688 11.6625L262.713 11.0768L264.773 10.4909L266.834 9.92289L268.948 9.35484L271.115 8.78679L273.353 8.21884L275.645 7.65079L277.954 7.08273L280.263 6.53245L282.591 5.99993L284.935 5.48508L287.316 4.97033L289.714 4.49101L292.094 4.04723L294.457 3.62122L296.819 3.21297L299.2 2.84016L301.598 2.48511L303.996 2.14783L306.358 1.84609L308.703 1.57978L311.048 1.33134L313.411 1.10057L315.809 0.887563L318.225 0.692217L320.676 0.514747L323.128 0.354938L325.579 0.213006L328.048 0.106503L330.535 0.0354288L333.004 0H335.438L337.836 0.0354288L340.216 0.106503L342.597 0.195238L344.977 0.301741L347.34 0.426013L349.72 0.567945L352.1 0.727754L354.498 0.922992L356.896 1.136L359.277 1.38454L361.604 1.65085L363.878 1.97036L366.098 2.32541L368.319 2.71589L370.521 3.15967L372.706 3.63899L374.856 4.15373L376.97 4.70402L379.066 5.27207L381.144 5.87566L383.205 6.51468L385.23 7.17147L387.219 7.84602L389.155 8.52058L391.056 9.19514L392.939 9.86969L394.822 10.5619L396.67 11.2542L398.481 11.9466L400.258 12.6389L401.981 13.3311L403.651 13.988Z" fill="#B7B5B5"/>
<path id="Clothing 1" d="M200.682 132.424C200.042 153.566 203.559 176.305 204.376 193.151C206.383 223.967 206.792 254.748 211.073 285.422C212.512 298.735 215.621 311.765 221.519 323.818C222.247 325.895 223.152 327.919 224.218 329.871C224.342 330.226 224.485 330.563 224.609 330.918C225.853 334.823 226.883 338.871 228.713 342.581C228.748 342.67 228.801 342.741 228.854 342.812C228.481 343.575 228.108 344.321 227.771 345.084C218.764 364.238 220.097 402.598 246.761 405.474C256.815 405.402 264.275 400.486 269.32 393.243C270.493 394.965 272.909 395.835 275.165 395.835C283.461 395.125 288.399 384.882 290.903 377.924C293.07 370.397 294.67 362.32 292.076 354.688C289.216 346.256 282.128 339.812 273.53 343.415C269.338 334.38 261.504 326.995 251.895 326.072C251.806 325.628 251.663 325.185 251.45 324.776C249.39 318.67 247.275 312.67 245.037 306.528C240.188 292.061 239.069 276.706 237.435 261.617C234.859 234.458 232.016 207.334 230.098 180.121C228.73 168.015 227.753 155.748 228.126 143.482C228.552 143.979 228.943 144.477 229.316 144.992C248.945 170.217 268.61 195.619 288.594 220.612C305.931 242.233 322.186 264.653 339.062 286.611C343.733 292.806 347.979 299.251 352.438 305.605C353.61 307.522 355.262 309.174 357.198 310.31C356.807 311.623 356.416 312.937 356.008 314.232C354.551 318.794 352.899 323.25 351.087 327.688C351.087 327.705 351.069 327.706 351.069 327.724C350.164 328.416 349.578 329.498 349.72 330.776C353.841 344.125 358.85 357.297 363.167 370.61C366.862 379.095 369.598 388.006 372.511 396.704C373.381 398.177 374.82 398.888 376.205 398.888C376.365 398.888 376.525 398.888 376.702 398.853C377.271 399.243 377.946 399.438 378.639 399.438C379.047 399.438 379.456 399.367 379.864 399.243C383.417 397.947 384.359 393.829 385.549 390.651C387.876 383.711 389.866 376.681 391.891 369.651C397.468 352.61 402.211 335.338 406.421 317.906C416.866 277.114 426.885 236.375 430.509 194.27C431.646 183.601 433.848 172.151 432.658 161.394C437.952 170.944 442.766 180.813 448.131 190.133C451.648 196.825 455.023 203.589 458.824 210.139C460.441 213.387 462.395 216.511 464.775 219.263C464.562 219.724 464.385 220.221 464.172 220.683C461.827 225.085 461.382 230.251 462.359 235.133C464.971 250.949 473.355 265.256 481.633 278.747C483.391 280.682 485.79 281.517 488.295 281.517C489.29 281.517 490.302 281.392 491.314 281.144C491.421 281.729 491.634 282.315 491.954 282.83C493.055 284.747 494.104 286.7 495.134 288.652C503.66 304.664 513.111 320.161 523.165 335.285C536.808 354.9 550.717 374.498 566.971 392.054L568.32 403.521C566.029 401.728 563.347 400.415 560.824 399.847C555.708 398.817 550.486 402.953 550.326 408.137C550.557 413.32 553.435 419.107 558.408 421.166C559.616 421.699 561.055 422 562.477 422C564.91 422 567.325 421.112 568.533 418.965C568.569 418.983 568.605 419 568.658 419.018C569.067 419.834 569.67 420.58 570.398 421.236L572.637 440.124C572.548 439.982 572.441 439.84 572.353 439.716C569.954 449.905 571.251 460.254 572.175 470.55C573.791 491.425 575.071 512.336 576.065 533.247C578.908 573.027 578.233 612.719 578.553 652.73C578.251 697.517 579.103 742.517 577.54 787.356C577.327 817.711 577.504 848.066 575.675 878.385C575.32 888.467 574.396 898.515 573.117 908.526C572.531 912.307 572.229 916.16 571.465 919.905C571.376 920.189 571.305 920.491 571.27 920.828C561.464 930.556 549.26 938.1 536.825 944.118C527.641 948.059 517.854 950.632 508.102 952.798C493.606 956.029 479.164 957.591 464.296 959.384C443.814 961.887 423.368 964.531 402.833 966.608C372.19 969.821 341.388 969.147 310.621 969.769C277.048 970.372 243.528 968.153 210.043 966.022C182.811 963.662 155.294 962.259 128.453 956.614C104.277 950.295 79.9758 943.194 58.3574 930.36C59.6541 927.449 59.4772 923.828 59.6016 920.615C59.7259 915.787 59.903 910.976 60.3115 906.166C61.555 892.214 63.456 878.563 64.4863 864.504C66.1561 841.569 66.742 818.545 66.3867 795.558C65.7295 739.854 69.7267 684.417 67.0977 628.695C66.245 585.169 71.2724 541.767 70.4375 498.224C70.0467 470.603 67.0086 443.106 63.8467 415.698C63.4736 412.006 63.1722 408.278 62.6748 404.586C62.5149 401.337 61.324 397.61 57.416 398.16L3.39648 234.352H3.60938C6.93111 234.352 8.92081 229.399 11.4609 227.446C21.4263 217.08 31.8008 207.015 43.4004 198.459C53.579 191.039 64.895 185.145 76.6191 180.459C90.919 174.37 106.249 167.465 121.366 162.778C133.907 158.98 146.2 154.489 158.599 150.229C170.802 145.755 182.438 139.844 194.41 134.82C196.062 133.968 198.443 133.294 200.682 132.424ZM176.043 712.872C167.126 711.86 158.012 711.559 149.272 713.813C148.864 713.21 148.26 712.712 147.479 712.464C141.546 711.221 142.345 719.938 141.048 723.63C139.378 731.103 139.965 734.6 148.242 735.843C160.606 738.044 173.219 738.328 185.742 738.949C208.462 739.713 231.129 741.522 253.849 742.232C259.551 742.268 265.253 742.321 270.955 742.321C279.872 742.321 288.79 742.179 297.689 741.611C302.539 741.221 307.424 741.079 312.256 740.369C314.867 739.961 317.797 740.085 320.089 738.559C324.725 735.044 321.226 728.227 317.887 725.031C316.448 727.321 315.897 729.913 315.382 732.611C278.735 737.209 241.573 735.186 204.695 733.18C185.564 731.919 166.485 732.487 147.603 728.458C148.064 724.784 148.74 721.126 149.521 717.505C149.77 716.919 149.895 716.298 149.859 715.694C160.642 718.517 171.797 719.245 182.917 720.008C198.478 721.588 214.111 721.535 229.743 721.481C236.014 721.464 242.302 721.446 248.572 721.535C258.911 721.695 269.249 721.943 279.588 721.943C292.094 721.943 304.582 721.588 317.052 720.346C310.106 719.582 302.734 719.227 295.646 718.588C281.382 717.47 267.118 715.961 252.818 715.429C245.073 715.162 237.346 715.215 229.601 715.269C222.371 715.304 215.141 715.358 207.929 715.145C197.271 714.914 186.648 713.813 176.043 712.872ZM412.905 133.294C419.46 140.128 424.825 147.975 429.657 156.193C427.241 164.217 425.677 172.525 425.145 180.921C422.142 204.761 420.331 228.157 415.144 251.802C411.502 270.582 406.422 289.026 401.856 307.594C397.487 323.996 393.597 340.433 388.356 356.622C385.017 367.273 382.423 378.031 378.355 388.504C376.561 383.516 374.518 378.634 372.582 373.699C368.07 360.404 363.966 347.001 358.69 333.954C358.317 333.031 357.998 332.055 357.643 331.114C361.977 320.978 365.139 310.167 368.177 299.534C375.407 275.375 383.702 251.482 389.315 226.861C396.705 197.288 404.112 167.554 411.875 137.927C412.23 136.276 412.639 134.82 412.905 133.294ZM488.401 237.156C498.686 244.239 505.526 255.387 511.565 266.126C513.946 270.12 515.048 275.303 519.275 277.842C520.306 278.463 521.531 278.942 522.739 278.942C522.775 278.889 522.81 278.854 522.828 278.801C523.006 279.12 523.219 279.458 523.485 279.795C526.701 285.511 530.271 291.032 533.575 296.712C539.792 307.114 544.642 318.776 550.166 329.711C553.47 336.474 558.018 345.563 562.601 355.521L565.212 377.586C559.403 370.681 553.844 363.545 548.337 356.498C534.535 338.534 522.579 319.221 510.962 299.801C507.374 293.623 504.532 287.73 501.512 281.108C500.854 279.44 499.948 277.611 498.598 276.511C499.024 275.978 499.397 275.392 499.682 274.807C501.707 270.103 498.509 265.575 496.058 261.741C493.056 256.984 490.675 251.872 488.597 246.6C487.353 243.635 487.265 240.174 488.401 237.156ZM460.156 173.519C476.463 181.95 494.085 187.915 510.179 196.809C517.959 200.874 525.527 205.382 532.526 210.689C536.274 213.405 539.596 217.098 544.374 217.79C544.925 217.843 545.635 217.914 546.346 217.932L559.705 330.919C556.49 324.262 554.002 319.292 553.025 317.091C546.808 302.393 537.979 289.132 529.488 275.694C529.559 275.623 529.63 275.552 529.701 275.481C535.723 267.848 516.467 243.068 511.369 236.074C505.418 228.352 498.011 221.873 489.804 216.672C487.512 215.305 485.132 213.512 482.485 212.908C481.704 210.778 480.46 208.736 479.306 206.908C477.352 203.5 475.468 200.057 473.55 196.648C469.215 188.856 464.579 181.258 460.156 173.519ZM229.031 129.247C229.262 129.691 229.511 130.134 229.76 130.578C235.977 139.898 244.379 147.602 251.432 156.265C259.621 166.667 268.503 176.767 277.207 186.814C300.975 213.406 321.101 242.979 342.24 271.647C346.77 278.109 351.335 284.553 355.599 291.228C356.735 293.375 358.281 295.416 360.59 296.393C360.785 296.464 360.999 296.535 361.229 296.624C360.59 298.825 359.951 301.008 359.312 303.209C359.223 303.085 359.134 302.943 359.045 302.801C354.426 296.428 350.145 289.807 345.438 283.487C335.703 270.849 326.341 257.961 316.589 245.322C287.67 207.956 258.235 170.963 229.849 133.224C229.529 132.94 229.174 132.709 228.818 132.531C228.889 131.448 228.96 130.348 229.031 129.247Z" fill="white"/>
<path id="Sthethoscope" fill-rule="evenodd" clip-rule="evenodd" d="M558.443 407.676C561.303 407.924 563.773 410.179 565.727 412.167C566.916 413.356 566.312 414.9 566.526 416.338C563.168 414.456 558.337 412.77 557.893 408.279C558.053 408.084 558.212 407.888 558.39 407.711C558.408 407.693 558.426 407.676 558.443 407.676ZM616.46 402.19C619.462 402.599 618.982 405.013 617.863 407.48C617.419 407.001 616.797 406.611 615.998 406.362C614.684 405.99 613.315 406.327 612.303 407.144C611.859 406.132 611.806 404.977 612.161 403.895C612.979 402.51 614.986 402.226 616.46 402.19ZM245.643 333.6C262.163 335.322 270.511 350.251 269.09 365.818C268.273 379.345 264.756 395.445 248.662 397.256C240.828 397.504 236.05 389.889 233.616 383.374C228.625 368.516 232.071 343.026 245.643 333.6ZM276.143 351.014C279.553 349.949 281.33 352.717 282.769 355.593C286.677 364.025 282.928 381.262 275.236 386.747C274.277 387.102 273.354 387.546 272.412 387.972C277.866 376.789 278.931 362.303 276.143 351.014ZM237.524 82.8271C237.239 84.762 236.919 86.697 236.528 88.6318C236.457 89.0933 236.369 89.5549 236.298 90.0342C236.103 90.1584 235.907 90.3186 235.712 90.4961C220.737 101.52 221.145 121.809 220.275 138.602C219.084 154.063 220.364 168.69 222.052 184.258C223.366 196.595 223.97 208.986 225.32 221.376C227.008 239.34 228.428 257.305 230.364 275.233C231.643 286.186 232.07 297.28 235.161 307.913C237.328 313.558 238.945 319.38 241.059 325.043C241.361 325.895 241.645 326.818 241.983 327.706C239.549 329.126 237.382 330.972 235.445 333.066C234.06 327.138 231.519 321.457 228.748 316.008C225.231 308.215 222.797 300.014 221.074 291.653C216.491 268.949 215.674 244.771 214.359 221.251C213.169 203.109 212.637 184.897 211.056 166.755C210.239 144.708 205.122 108.052 222.229 91.543C226.829 87.8862 232.123 85.1703 237.524 82.8271ZM408.483 113.199C408.554 113.217 408.642 113.235 408.713 113.271C424.345 121.241 432.943 140.625 441.736 155.057C449.73 168.707 457.51 182.482 465.131 196.346C469.181 203.198 472.13 210.832 476.873 217.187C477.122 217.435 477.37 217.683 477.637 217.914C477.726 218.109 477.832 218.286 477.956 218.481C478.56 219.529 479.75 220.044 480.852 220.328C482.131 220.772 484.014 221.695 485.276 222.476C494.122 227.748 501.6 235.062 507.675 243.369C513.75 252.103 520.483 260.73 523.397 271.15C523.308 271.239 523.201 271.327 523.112 271.416C523.095 271.345 523.077 271.292 523.041 271.221C517.286 259.469 501.991 231.209 488.651 228.866C482.362 228.174 479.608 235.133 479.644 240.369C479.129 247.523 483.25 253.895 486.217 260.126C487.976 263.8 490.587 267.032 492.221 270.777C492.7 272.126 489.396 272.996 488.384 272.89C480.941 261.245 466.126 236.109 471.366 222.601C472.326 220.311 471.579 217.932 469.838 217.044C468.062 210.636 463.763 204.902 460.654 199.009C451.577 181.985 443.086 164.607 433.352 147.956C429.799 142.293 417.453 124.311 410.383 121.648C409.779 118.826 409.069 116.022 408.483 113.199Z" fill="white"/>
</g>
</svg>
