<svg width="593" height="936" viewBox="0 0 593 936" fill="none" xmlns="http://www.w3.org/2000/svg">
<g id="Body / Plain Sweater">
<path id="Clothing 1" d="M561.819 759.467L586.594 807.251L578.371 850.158L583.617 869.395L532.507 906.292L418.573 926.487L285.819 928.828L139.384 919.679L60.9115 895.707L58.7849 895.051L58.3773 894.927L53.9468 872.02L33.0528 827.995L52.1038 776.95L31.2807 710.798L61.6381 629.593L68.6028 485.197L54.9747 360.925L3.0498 186.175L49.9239 145.147L136.052 112.027L195.243 88.0912L222.304 62.8965L256.117 90.6799L296.665 100.166L344.461 103.747L392.15 94.0132L411.733 74.7935L420.576 95.538L442.604 119.988L507.094 146.229L543.548 170.644L559.958 329.17L570.627 392.237L577.396 540.268L576.705 684.043L561.819 759.467Z" fill="white"/>
<path id="Skin" d="M399.363 68.6407L405.867 80.4668L396.244 89.8994L386.692 95.0943L348.182 102.949L338.843 103.303L296.576 100.148L264.961 92.7539L246.229 82.5945L230.562 69.74L240.788 48.8005L241.621 24.1908V24.1731L241.709 24.0489L241.869 23.8362L242.064 23.5703L242.294 23.2866L242.542 22.9852L242.808 22.666L243.092 22.3469L243.393 22.01L243.712 21.6731L244.067 21.3185L244.439 20.9639L244.829 20.6093L245.254 20.2547L245.697 19.9179L246.14 19.5987L246.618 19.2795L247.097 18.9604L247.593 18.6412L248.125 18.3221L248.674 18.003L249.241 17.6838L249.826 17.3824L250.429 17.0632L251.067 16.7441L251.74 16.4249L252.431 16.1058L253.122 15.7867L253.831 15.4675L254.558 15.1661L255.284 14.8824L256.011 14.5988L256.738 14.315L257.464 14.0668L258.208 13.8186L258.971 13.5704L259.768 13.3221L260.583 13.0739L261.416 12.8257L262.267 12.5775L263.135 12.3292L264.021 12.081L264.925 11.8328L265.847 11.5846L266.768 11.3363L267.725 11.0881L268.7 10.8399L269.692 10.5739L270.702 10.3079L271.73 10.0421L272.776 9.77606L273.857 9.51017L274.956 9.24417L276.072 8.99592L277.189 8.74767L278.287 8.53491L279.386 8.32216L280.485 8.12715L281.619 7.93214L282.771 7.73714L283.923 7.55977L285.11 7.40026L286.315 7.24064L287.556 7.09876L288.832 6.957L290.108 6.83287L291.384 6.70875L292.642 6.60237L293.865 6.51374L295.07 6.425L296.275 6.35412L297.462 6.28324L298.632 6.21225L299.802 6.15911L300.971 6.12362L302.159 6.08812L303.364 6.07048L304.586 6.05273H305.792H307.014H308.237L309.495 6.07048L310.789 6.10587L312.083 6.14136L313.377 6.19461L314.67 6.26549L315.946 6.33637L317.204 6.425L318.463 6.51374L319.703 6.60237L320.926 6.70875L322.131 6.81513L323.318 6.93925L324.506 7.06338L325.693 7.20514L326.881 7.34701L328.033 7.50663L329.167 7.66615L330.283 7.86115L331.4 8.07402L332.516 8.30441L333.65 8.55266L334.767 8.81866L335.883 9.08455L337 9.3683L338.116 9.65193L339.215 9.93568L340.296 10.2193L341.359 10.5207L342.405 10.8222L343.433 11.1413L344.461 11.4782L345.471 11.8151L346.463 12.1697L347.438 12.5242L348.413 12.8966L349.387 13.2867L350.38 13.6945L351.372 14.1023L352.347 14.51L353.304 14.9356L354.243 15.3434L355.165 15.7512L356.086 16.1767L356.99 16.6023L357.876 17.0278L358.762 17.4533L359.648 17.8966L360.534 18.3221L361.42 18.7653L362.324 19.2086L363.21 19.6519L364.096 20.0951L364.982 20.5384L365.851 20.9816L366.684 21.4071L367.481 21.8327L368.243 22.2405L368.97 22.6483L369.661 23.056L370.335 23.4462L370.99 23.8362L371.628 24.2263L372.266 24.6163L372.886 25.0064L373.507 25.3965L374.109 25.7866L374.694 26.1589L375.279 26.5312L375.864 26.9036L376.448 27.2759L377.051 27.6482L377.654 28.0206L378.256 28.3929L378.894 28.7653L379.532 29.1553L380.17 29.5277L380.808 29.9L381.428 30.2723L382.031 30.6269L382.598 30.9638L383.13 31.2829L383.643 31.5843L384.122 31.8858L384.583 32.1695L385.008 32.4532L385.416 32.7191L385.806 32.9851L386.178 33.251L386.532 33.517L386.887 33.783L387.241 34.0489L387.596 34.3149L387.95 34.5985L388.322 34.8822L388.694 35.1659L389.066 35.4496L389.439 35.7155L389.811 35.9815L390.183 36.2297L390.555 36.4779L390.927 36.7262L391.299 36.9567L391.654 37.1872L392.008 37.3999L392.345 37.6127L392.664 37.8077L392.947 38.0027L393.213 38.1801L393.461 38.3573L393.692 38.5169L393.905 38.6765L394.117 38.8361L394.312 38.9779L394.507 39.1197L394.684 39.2616L394.844 39.4035L395.003 39.5453L395.163 39.6693L395.304 39.7935L395.446 39.9176L395.588 40.0417L395.712 40.1658L395.836 40.29L395.96 40.4141L396.084 40.5382L396.191 40.6446L396.297 40.751L396.385 40.8574L396.474 40.9637L396.563 41.0701L396.651 41.1765L396.722 41.2651L396.793 41.3538L396.864 41.4424L396.917 41.5311L396.97 41.6197L397.024 41.7084L397.077 41.7793L397.112 41.8503L397.165 41.9211L397.201 41.992L397.236 42.063L397.272 42.1339L397.307 42.1871L397.343 42.2403L397.36 42.2935L397.396 42.3466L399.363 68.6407Z" fill="#B7B5B5"/>
<g id="Outline">
<path d="M0.338702 187.859C-1.38031 182.948 3.88313 178.905 6.27558 175.147C13.2048 166.21 20.8606 157.806 29.8278 150.891C48.1522 136.282 69.5778 126.335 91.358 118.055C112.022 110.076 133.695 105.005 154.164 96.4949C170.699 89.7042 188.952 85.2539 203.519 74.8994C209.013 71.176 211.973 64.9881 216.031 59.935C220.444 54.8996 229.145 59.2257 227.674 65.8391C226.717 69.8462 223.456 72.7717 221.082 75.9632C217.697 80.4312 213.568 84.2078 208.747 87.0801C199 93.5162 187.96 97.6473 177.167 101.991C166.782 106.051 156.486 110.378 145.924 113.924C109.186 125.555 70.6943 135.218 39.4153 158.817C30.4303 165.413 21.8353 174.03 14.1086 181.671C11.8934 183.87 9.55404 186.015 7.64008 188.48C5.93879 191.068 1.65012 190.749 0.338702 187.859Z" fill="black"/>
<path d="M542.609 175.714C539.348 175.324 536.743 172.859 533.836 171.476C525.348 166.76 517.426 161.122 508.973 156.335C499.651 151.406 489.957 147.133 480.104 143.321C460.521 136.991 441.577 128.144 425.237 115.502C415.543 107.541 409.553 96.2113 405.3 84.6156C399.948 83.4454 397.166 76.4774 400.32 71.9207C404.308 66.2647 413.576 65.591 418.148 70.8924C418.042 70.786 417.936 70.6796 417.829 70.5733C417.546 70.3605 417.262 70.1477 416.961 69.9349C417.386 70.254 417.812 70.5733 418.184 70.9101C418.379 71.1052 418.556 71.3179 418.733 71.5307C418.609 71.3711 418.467 71.2115 418.343 71.0519C418.326 71.0342 418.29 70.9988 418.219 70.8924C420.736 73.0378 421.746 76.2824 422.472 79.4207C424.759 87.9667 426.779 97.2219 433.744 103.268C448.701 115.803 467.645 122.222 485.598 129.172C498.375 134.846 510.904 141.317 522.813 148.675C531.16 154.526 539.118 161.104 545.994 168.622C548.014 171.37 546.242 176.015 542.609 175.714Z" fill="black"/>
<path d="M326.97 111.264C302.797 110.129 220.727 98.8885 221.046 67.5413C219.735 69.1902 217.378 70.0235 215.499 68.7824C211.884 66.3356 214.72 61.6725 216.651 59.013C218.583 56.4776 221.596 55.5556 224.662 55.9988C231.077 56.8144 233.646 63.0023 235.224 68.4455C236.606 71.3178 239.317 73.1618 241.993 74.7398C263.809 85.9631 289.417 91.6899 313.483 94.314C337.674 95.9807 363.14 97.0267 386.107 88.0906C391.069 85.9275 395.358 82.5943 399.027 78.6405C401.277 76.0341 403.085 72.8072 406.824 72.2043C409.943 71.4774 413.541 72.5235 415.632 74.988C422.437 82.6652 413.842 90.4666 408.189 95.6084C387.826 112.842 352.436 112.239 326.97 111.264Z" fill="black"/>
<path d="M229.943 77.222C225.299 63.7825 234.798 50.9812 236.11 37.6657C238.006 32.5062 235.614 19.4034 244.191 21.1942C250.039 23.0559 246.513 35.8394 246.513 40.7153C244.014 53.4456 244.138 71.7966 229.943 77.222Z" fill="black"/>
<path d="M394.685 82.8248C388.11 72.4526 389.882 59.1903 390.821 47.5238C390.751 42.1515 396.74 38.7473 400.232 43.6408C402.713 49.8465 403.156 56.7612 404.928 63.2151C405.938 67.825 408.525 72.0093 409.075 76.7078C409.908 86.8141 401.26 91.2112 394.685 82.8248Z" fill="black"/>
<path d="M54.3548 898.774C43.6863 892.072 47.0535 878.065 42.6053 867.941C31.8659 847.019 18.8403 831.629 31.5646 807.693C40.9926 788.881 45.9015 783.651 40.4255 761.719C34.3469 737.641 16.3061 722.57 26.4784 696.205C31.4937 681.365 39.5571 667.766 44.7851 653.014C50.5978 637.819 54.6738 622.092 57.1371 606.011C62.1524 572.27 62.5777 537.998 61.1245 503.973C60.1498 455.64 55.4182 407.538 52.4409 359.311C52.37 357.396 53.7169 355.677 55.6131 355.34C57.7043 354.967 59.6714 356.404 60.079 358.443C62.6664 371.51 64.9702 384.648 66.7956 397.857C72.3779 437.857 74.6463 478.193 76.6134 518.512C77.9071 558.015 75.8869 598.05 67.4159 636.738C64.031 649.787 59.7068 662.588 54.3548 674.964C50.0661 684.964 45.2636 694.84 41.8964 705.194C40.142 710.638 40.0534 716.524 42.3749 721.826C47.4788 733.847 54.0359 745.283 57.1018 758.084C58.5727 764.201 59.6005 770.477 59.8664 776.772C61.0006 794.023 48.7193 807.481 43.6686 823.066C40.5318 835.158 49.9244 845.654 54.6739 855.973C60.5044 869.04 66.0512 887.356 54.3548 898.774C54.3548 898.792 54.3548 898.792 54.3548 898.774Z" fill="black"/>
<path d="M270.951 935.281C216.226 933.88 161.43 930.139 107.733 919.199C98.2872 917.444 36.881 902.054 51.5015 889.412C55.6661 886.806 59.2991 891.7 63.2334 892.728C72.0411 896.398 81.0438 899.483 90.1705 902.32C112.854 908.845 136.265 912.338 159.658 915.245C217.821 922.479 276.569 922.869 335.104 921.664C367.907 920.937 400.728 920.245 433.495 918.579C459.724 917.178 485.722 913.951 510.833 906.292C526.677 901.894 540.996 893.774 554.89 885.21C560.118 882.604 565.895 881.593 571.619 880.92C571.69 880.92 571.797 880.831 571.85 880.866C571.974 882.161 571.336 883.632 570.875 884.785C567.419 893.384 560.012 899.448 552.019 903.65C507.254 928.898 454.053 930.44 403.918 932.621C359.56 933.791 315.255 935.937 270.951 935.281Z" fill="black"/>
<path d="M558.753 889.43C558.222 886.806 559.179 884.466 560.72 882.374C563.06 878.615 565.47 874.909 568.27 871.47C571.229 867.782 574.419 863.81 573.179 858.792C571.903 852.374 571.017 845.867 571.389 839.307C571.513 827.268 577.29 815.3 573.799 803.314C570.716 788.172 558.31 776.86 555.563 761.666C554.837 753.474 557.796 745.513 560.1 737.765C565.257 718.918 567.703 699.397 568.802 679.911C569.404 654.131 567.72 628.334 568.961 602.554C568.766 561.313 570.255 520.054 569.156 478.814C567.614 445.818 565.257 412.839 562.351 379.949C560.189 363.46 558.204 346.953 556.432 330.411C556.343 329.649 556.237 328.904 556.166 328.142C555.971 326.262 557.477 324.507 559.267 324.17C565.204 323.372 564.477 332.521 565.771 336.315C567.721 346.067 569.617 355.819 571.354 365.606C577.911 406.084 581.88 447.094 583.777 488.051C584.308 523.973 584.29 559.93 584.68 595.852C584.344 618.741 584.042 639.628 584.556 662.128C584.716 685.443 582.784 708.794 578.974 731.79C577.645 740.407 574.756 748.669 573.197 757.233C572.381 761.488 575.607 765.105 577.29 768.775C586.063 783.527 594.463 801.027 592.301 818.633C590.794 829.271 586.594 839.626 588.437 850.53C591.149 865.335 588.26 872.711 578.141 883.686C574.579 887.568 573.232 894.111 567.508 895.352C563.574 896.221 559.427 893.367 558.753 889.43Z" fill="black"/>
</g>
</g>
</svg>
