<svg width="632" height="977" viewBox="0 0 632 977" fill="none" xmlns="http://www.w3.org/2000/svg">
<g id="Body / Pregnant">
<path id="Sweater" d="M624.399 714.833V715.418V716.003V716.57L624.382 717.137L624.364 717.705L624.329 718.272L624.293 718.84L624.258 719.407L624.222 719.974L624.187 720.542L624.151 721.109L624.116 721.677L624.081 722.244L624.045 722.829L624.01 723.432L623.974 724.035L623.939 724.655L623.903 725.276L623.85 725.914L623.797 726.552L623.744 727.208L623.691 727.847L623.637 728.503L623.567 729.159L623.496 729.815L623.425 730.471L623.354 731.144L623.283 731.8L623.194 732.474L623.106 733.148L623.017 733.822L622.929 734.495L622.84 735.169L622.751 735.825L622.663 736.464L622.574 737.102L622.485 737.74L622.397 738.361L622.308 738.964L622.22 739.566L622.131 740.152L622.042 740.737L621.954 741.304L621.883 741.854L621.812 742.386L621.741 742.9L621.67 743.414L621.599 743.91L621.529 744.389L621.458 744.868L621.387 745.346L621.316 745.825L621.245 746.286L621.174 746.747L621.103 747.208L621.032 747.651L620.961 748.077L620.891 748.432L620.855 748.68L620.837 748.733L579.953 848.484L581.247 910.327V910.416L485.425 951.568L335.268 970.61L201.947 953.802L199.111 953.447L198.579 953.376L50.691 907.029L37.7539 847.154L58.7544 800.027L40.4122 740.347L71.585 641.305L75.3774 512.494L62.0151 392.07L61.9798 391.928L61.9443 391.786L61.9088 391.644L61.8734 391.485L61.8379 391.325L61.7848 391.166L61.7494 390.988L61.6961 390.811L61.643 390.616L61.5898 390.421L61.5367 390.208L61.4658 389.996L61.3949 389.765L61.3241 389.535L61.2531 389.304L61.1823 389.056L61.1114 388.808L61.0404 388.559L60.9696 388.311L60.8988 388.045L60.8278 387.779L60.7569 387.513L60.686 387.247L60.6151 386.999L60.5443 386.751L60.4733 386.52L60.4025 386.29L60.3316 386.059L60.2607 385.811L60.1898 385.545L60.1012 385.261L60.0127 384.978L59.924 384.659L59.8176 384.322L59.7113 383.949L59.605 383.559L59.4809 383.151L59.3568 382.708L59.2152 382.23L59.0733 381.733L58.9138 381.201L58.7544 380.652L58.5771 380.049L58.3999 379.428L58.205 378.79L58.0277 378.116L57.8328 377.442L57.6379 376.751L57.443 376.042L57.2479 375.315L57.053 374.588L56.8581 373.861L56.6632 373.099L56.4683 372.301L56.2555 371.485L56.0252 370.616L55.7771 369.694L55.4935 368.701L55.1745 367.62L54.8201 366.432L54.4125 365.138L53.9695 363.737L53.4733 362.23L52.9593 360.67L52.4277 359.074L51.896 357.496L51.3644 355.935L50.8327 354.411L50.301 352.904L49.7517 351.414L49.22 349.925L48.6884 348.471L48.1744 347.053L47.6782 345.634L47.182 344.216L46.6858 342.762L46.1895 341.255L45.6757 339.677L45.1618 338.028L44.63 336.326L44.0984 334.588L43.5668 332.886L43.0351 331.202L42.4857 329.553L41.9186 327.904L41.316 326.22L40.6781 324.464L39.9869 322.638L39.2604 320.741L38.4983 318.755L37.6831 316.663L36.8325 314.482L35.9818 312.23L35.1666 309.979L34.4046 307.744L33.7134 305.564L33.0755 303.418L32.4906 301.308L31.9235 299.198L31.3564 297.053L30.7717 294.837L30.1691 292.55L29.5488 290.209L28.9108 287.869L28.2373 285.511L27.5463 283.135L26.8196 280.741L26.0753 278.33L25.331 275.936L24.6221 273.596L23.9309 271.291L23.2399 269.004L22.5664 266.734L21.9107 264.483L21.2727 262.266L20.6702 260.121L20.1031 258.029L19.5714 255.972L19.0752 253.951L18.5967 251.965L18.136 250.032L17.6929 248.153L17.2322 246.309L16.7714 244.483L16.2928 242.674L15.7789 240.866L15.2651 239.022L14.7333 237.16L14.1662 235.263L13.5815 233.348L12.9789 231.38L12.3764 229.359L11.7561 227.32L11.1536 225.281L10.5687 223.277L10.0016 221.309L9.43451 219.377L8.90287 217.497L8.38898 215.706L7.91046 214.004L7.46741 212.409L7.05984 210.901L6.66991 209.483L6.31545 208.153L5.99647 206.912L5.71297 205.724L5.4471 204.589L5.21671 203.49L5.00405 202.426L4.82688 201.38L4.66733 200.334L4.52553 199.306L4.40157 198.313L4.31287 197.444L4.25977 196.912V196.824L25.3664 184.111L61.9798 157.941L188.283 115.317L188.354 115.424L188.425 115.548L188.514 115.672L188.602 115.796L188.709 115.956L188.815 116.115L188.939 116.275L189.063 116.47L189.187 116.665L189.329 116.878L189.488 117.108L189.648 117.356L189.843 117.622L190.038 117.906L190.25 118.225L190.481 118.562L190.729 118.934L191.012 119.342L191.314 119.785L191.633 120.264L191.987 120.778L192.341 121.328L192.731 121.895L193.139 122.516L193.547 123.154L193.972 123.828L194.415 124.519L194.858 125.211L195.301 125.902L195.726 126.594L196.134 127.268L196.542 127.941L196.949 128.597L197.357 129.253L197.764 129.909L198.19 130.583L198.633 131.275L199.111 132.002L199.607 132.764L200.121 133.562L200.653 134.377L201.202 135.228L201.77 136.08L202.337 136.966L202.904 137.853L203.471 138.739L204.038 139.626L204.605 140.512L205.172 141.399L205.739 142.285L206.306 143.172L206.873 144.058L207.44 144.927L208.008 145.796L208.557 146.647L209.106 147.498L209.656 148.349L210.205 149.2L210.772 150.051L211.321 150.902L211.889 151.753L212.456 152.622L213.005 153.473L213.537 154.324L214.068 155.157L214.582 155.991L215.079 156.806L215.539 157.604L215.982 158.384L216.408 159.129L216.815 159.856L217.223 160.565L217.63 161.274L218.038 161.984L218.446 162.71L218.871 163.455L219.314 164.218L219.757 164.998L220.2 165.778L220.661 166.558L221.122 167.338L221.565 168.1L222.008 168.863L222.433 169.59L222.841 170.299L223.248 170.973L223.62 171.629L223.993 172.232L224.347 172.817L224.684 173.384L225.021 173.934L225.357 174.466L225.694 174.998L226.048 175.529L226.403 176.097L226.775 176.664L227.147 177.249L227.537 177.852L227.945 178.491L228.352 179.129L228.76 179.767L229.167 180.423L229.593 181.097L230.018 181.771L230.426 182.444L230.833 183.1L231.241 183.739L231.631 184.359L232.003 184.962L232.357 185.547L232.712 186.115L233.048 186.646L233.367 187.178L233.687 187.693L234.005 188.189L234.324 188.685L234.643 189.2L234.962 189.714L235.299 190.263L235.654 190.831L236.026 191.434L236.398 192.072L236.788 192.746L237.195 193.437L237.621 194.164L238.064 194.926L238.525 195.724L239.003 196.54L239.481 197.373L239.978 198.224L240.509 199.093L241.041 199.98L241.608 200.884L242.175 201.788L242.742 202.692L243.309 203.597L243.859 204.501L244.408 205.405L244.958 206.309L245.507 207.196L246.056 208.082L246.623 208.969L247.208 209.855L247.811 210.76L248.449 211.682L249.087 212.639L249.76 213.614L250.451 214.625L251.142 215.671L251.834 216.735L252.525 217.816L253.216 218.916L253.889 220.015L254.527 221.114L255.148 222.196L255.768 223.242L256.37 224.27L256.973 225.281L257.593 226.256L258.231 227.213L258.905 228.171L259.596 229.128L260.322 230.086L261.084 231.061L261.864 232.036L262.662 233.011L263.477 234.004L264.292 235.015L265.107 236.008L265.905 236.983L266.685 237.94L267.429 238.862L268.138 239.749L268.829 240.6L269.502 241.415L270.14 242.196L270.743 242.94L271.345 243.667L271.912 244.359L272.479 245.032L273.029 245.706L273.578 246.38L274.128 247.054L274.695 247.745L275.262 248.437L275.847 249.146L276.432 249.873L277.034 250.6L277.637 251.327L278.239 252.054L278.877 252.798L279.515 253.525L280.171 254.252L280.844 254.979L281.518 255.688L282.209 256.38L282.918 257.071L283.644 257.745L284.389 258.436L285.168 259.11L285.966 259.802L286.781 260.493L287.614 261.185L288.465 261.894L289.315 262.603L290.148 263.312L290.981 264.022L291.796 264.731L292.612 265.44L293.409 266.149L294.206 266.858L294.969 267.568L295.731 268.259L296.457 268.933L297.184 269.589L297.91 270.227L298.637 270.865L299.364 271.504L300.09 272.142L300.852 272.78L301.65 273.436L302.465 274.11L303.333 274.802L304.237 275.493L305.194 276.202L306.169 276.929L307.179 277.656L308.224 278.383L309.288 279.11L310.369 279.837L311.467 280.564L312.566 281.291L313.665 282.018L314.746 282.745L315.809 283.454L316.837 284.163L317.847 284.855L318.822 285.546L319.797 286.238L320.771 286.947L321.764 287.656L322.774 288.365L323.802 289.075L324.847 289.766L325.929 290.457L327.027 291.149L328.126 291.823L329.225 292.479L330.324 293.117L331.405 293.738L332.468 294.323L333.513 294.89L334.541 295.44L335.569 295.972L336.633 296.504L337.714 297.035L338.812 297.567L339.929 298.099L341.063 298.631L342.179 299.145L343.278 299.624L344.324 300.085L345.316 300.511L346.255 300.918L347.106 301.273L347.904 301.592L348.612 301.876L349.25 302.124L349.818 302.319L350.314 302.479L350.739 302.603L351.076 302.691L351.342 302.745L351.537 302.78L351.678 302.798H351.767H351.838H351.873H351.909H351.926L390.542 306.769L390.737 306.716L390.932 306.663L391.127 306.61L391.322 306.539L391.517 306.468L391.73 306.397L391.942 306.326L392.155 306.255L392.385 306.167L392.633 306.078L392.882 305.989L393.13 305.901L393.378 305.812L393.626 305.723L393.874 305.635L394.104 305.546L394.335 305.457L394.547 305.386L394.76 305.298L394.973 305.209L395.185 305.12L395.398 305.032L395.628 304.943L395.877 304.837L396.142 304.713L396.426 304.589L396.727 304.447L397.046 304.305L397.365 304.145L397.702 303.986L398.039 303.826L398.393 303.667L398.73 303.507L399.066 303.347L399.386 303.188L399.687 303.046L399.97 302.904L400.254 302.78L400.52 302.656L400.786 302.532L401.051 302.408L401.335 302.284L401.618 302.142L401.92 302L402.239 301.84L402.575 301.663L402.948 301.468L403.32 301.273L403.727 301.06L404.135 300.83L404.56 300.581L404.968 300.333L405.393 300.085L405.801 299.837L406.208 299.589L406.616 299.323L407.006 299.074L407.378 298.826L407.75 298.578L408.122 298.33L408.477 298.081L408.831 297.833L409.186 297.585L409.522 297.337L409.877 297.089L410.231 296.84L410.586 296.592L410.958 296.326L411.33 296.043L411.72 295.741L412.127 295.422L412.535 295.103L412.96 294.766L413.386 294.411L413.829 294.039L414.254 293.667L414.679 293.277L415.105 292.886L415.53 292.496L415.938 292.106L416.345 291.734L416.735 291.362L417.125 290.989L417.497 290.617L417.869 290.245L418.224 289.89L418.578 289.536L418.933 289.181L419.287 288.826L419.642 288.454L419.996 288.082L420.35 287.709L420.705 287.301L421.077 286.894L421.431 286.468L421.804 286.025L422.158 285.582L422.513 285.138L422.831 284.713L423.133 284.305L423.434 283.897L423.718 283.472L424.001 283.028L424.302 282.585L424.604 282.124L424.905 281.645L425.224 281.167L425.543 280.67L425.88 280.174L426.216 279.66L426.571 279.128L426.943 278.578L427.315 278.028L427.705 277.461L428.095 276.894L428.485 276.326L428.875 275.759L429.247 275.192L429.619 274.642L429.973 274.11L430.292 273.596L430.576 273.117L430.842 272.674L431.072 272.231L431.302 271.805L431.533 271.362L431.763 270.901L432.011 270.422L432.26 269.908L432.543 269.376L432.827 268.809L433.146 268.188L433.482 267.532L433.819 266.841L434.173 266.114L434.546 265.351L434.918 264.553L435.29 263.756L435.662 262.958L436.017 262.16L436.336 261.415L436.637 260.724L436.903 260.068L437.133 259.465L437.346 258.862L437.558 258.277L437.753 257.71L437.948 257.124L438.143 256.522L438.338 255.901L438.533 255.263L438.728 254.589L438.941 253.898L439.153 253.206L439.366 252.497L439.579 251.788L439.791 251.078L440.004 250.387L440.199 249.695L440.394 249.004L440.589 248.313L440.784 247.621L440.979 246.947L441.174 246.273L441.351 245.617L441.528 244.961L441.705 244.305L441.865 243.667L442.024 243.029L442.166 242.426L442.308 241.823L442.432 241.256L442.556 240.724L442.68 240.21L442.804 239.696L442.928 239.181L443.052 238.667L443.176 238.135L443.318 237.586L443.46 237.018L443.601 236.433L443.761 235.83L443.92 235.228L444.08 234.625L444.239 234.022L444.381 233.419L444.523 232.834L444.665 232.266L444.789 231.717L444.913 231.185L445.037 230.653L445.161 230.121L445.285 229.589L445.409 229.057L445.533 228.525L445.657 228.011L445.781 227.497L445.905 226.983L446.012 226.469L446.136 225.955L446.26 225.44L446.384 224.926L446.508 224.412L446.632 223.88L446.756 223.348L446.88 222.816L447.004 222.284L447.11 221.752L447.217 221.238L447.323 220.76L447.412 220.299L447.5 219.855L447.589 219.412L447.66 218.987L447.748 218.579L447.819 218.171L447.89 217.763L447.961 217.355L448.032 216.948L448.103 216.522L448.174 216.096L448.245 215.671L448.315 215.245L448.369 214.82L448.422 214.394L448.475 213.969L448.528 213.543L448.581 213.118L448.634 212.692L448.688 212.267L448.759 211.841L448.829 211.398L448.9 210.955L448.971 210.494L449.042 210.015L449.113 209.536L449.202 209.022L449.29 208.508L449.379 207.976L449.467 207.444L449.556 206.877L449.645 206.309L449.715 205.742L449.804 205.175L449.875 204.625L449.946 204.075L450.017 203.526L450.088 202.976L450.159 202.426L450.229 201.859L450.3 201.292L450.371 200.689L450.442 200.068L450.513 199.395L450.584 198.703L450.672 197.958L450.761 197.178L450.85 196.363L450.938 195.529L451.027 194.714L451.115 193.934L451.204 193.207L451.275 192.533L451.346 191.93L451.381 191.398L451.417 190.919L451.452 190.476L451.47 190.051L451.488 189.643L451.505 189.27L451.523 188.898L451.541 188.544L451.559 188.189L451.576 187.834L451.594 187.462L451.612 187.09L451.629 186.682L451.647 186.256L451.665 185.813L451.683 185.352L451.7 184.873L451.718 184.359L451.736 183.845L451.754 183.313V182.781V182.249V181.735V181.221V180.707V180.21V179.785V179.324V178.898V178.491V178.1V177.71V177.338L451.736 176.966V176.593L451.718 176.221L451.7 175.849L451.683 175.476L451.665 175.104L451.647 174.732L451.612 174.359L451.576 173.987L451.541 173.615L451.505 173.242L451.47 172.852L451.435 172.48L451.399 172.108L451.364 171.718L451.328 171.345L451.293 170.955L451.257 170.565L451.204 170.175L451.151 169.767L451.098 169.359L451.045 168.952L450.991 168.526L450.921 168.1L450.85 167.675L450.779 167.249L450.708 166.842L450.637 166.434L450.566 166.026L450.495 165.636L450.424 165.264L450.353 164.891L450.283 164.537L450.212 164.182L450.141 163.828L450.088 163.473L450.034 163.118L449.981 162.764L449.946 162.391L449.893 162.019L449.857 161.629L449.822 161.221L449.769 160.813L449.733 160.388L449.698 159.945L449.645 159.484L449.591 159.005L449.538 158.526L449.485 158.047L449.414 157.569L449.343 157.09L449.272 156.611L449.202 156.15L449.131 155.689L449.06 155.246L448.989 154.803L448.918 154.377L448.847 153.969L448.776 153.562L448.688 153.154L448.617 152.746L448.528 152.321L448.44 151.877L448.351 151.434L448.262 150.991L448.174 150.53L448.085 150.051L447.996 149.555L447.908 149.04L447.801 148.526L447.695 148.012L447.607 147.498L447.518 147.055L447.465 146.771L447.447 146.718L448.776 142.658L544.066 190.618V190.689V190.76V190.831V190.902V190.973V191.044V191.132V191.221V191.31V191.398V191.487V191.576V191.664V191.753V191.841V191.93V192.019V192.107V192.196V192.285V192.373L544.049 192.462L544.031 192.533V192.604L544.013 192.675L543.996 192.763L543.978 192.852L543.96 192.941L543.942 193.029L543.925 193.118L543.907 193.207L543.889 193.313L543.872 193.402L543.854 193.508L543.836 193.614L543.818 193.739L543.783 193.863L543.765 193.987L543.747 194.111L543.712 194.235L543.694 194.359L543.659 194.483L543.641 194.59L543.623 194.696L543.606 194.802L543.588 194.891L543.57 194.98L543.553 195.068L543.535 195.157L543.517 195.246L543.499 195.352L543.482 195.458L543.464 195.582L543.446 195.707L543.428 195.831L543.411 195.955L543.393 196.097L543.375 196.239L543.358 196.38L543.34 196.54L543.322 196.699L543.287 196.859L543.251 197.019L543.234 197.178L543.198 197.355L543.163 197.533L543.127 197.728L543.092 197.923L543.056 198.136L543.021 198.348L542.985 198.597L542.95 198.845L542.897 199.129L542.861 199.448L542.808 199.785L542.755 200.157L542.702 200.565L542.631 201.008L542.56 201.504L542.489 202.036L542.418 202.586L542.347 203.171L542.276 203.774L542.206 204.377L542.135 204.997L542.064 205.618L541.993 206.256L541.922 206.894L541.833 207.55L541.745 208.242L541.656 208.969L541.55 209.731L541.426 210.547L541.284 211.398L541.142 212.302L540.983 213.26L540.788 214.27L540.575 215.316L540.363 216.38L540.132 217.462L539.884 218.525L539.636 219.589L539.388 220.635L539.14 221.682L538.892 222.728L538.644 223.774L538.395 224.82L538.13 225.884L537.864 226.965L537.58 228.082L537.297 229.217L536.995 230.387L536.676 231.593L536.34 232.834L536.003 234.093L535.649 235.334L535.312 236.575L534.975 237.798L534.638 239.004L534.319 240.21L534 241.415L533.681 242.621L533.362 243.827L533.044 245.015L532.725 246.22L532.406 247.426L532.086 248.667L531.785 249.908L531.502 251.132L531.218 252.337L530.952 253.507L530.704 254.642L530.456 255.777L530.208 256.894L529.978 258.011L529.747 259.128L529.499 260.245L529.251 261.38L529.003 262.497L528.737 263.614L528.453 264.713L528.17 265.795L527.886 266.858L527.585 267.904L527.284 268.951L526.965 270.014L526.646 271.096L526.327 272.195L526.026 273.312L525.742 274.429L525.458 275.529L525.211 276.592L524.98 277.585L524.767 278.507L524.572 279.358L524.395 280.138L524.236 280.865L524.094 281.521L523.952 282.107L523.828 282.621L523.722 283.082L523.615 283.489L523.527 283.844L523.438 284.128L523.35 284.376L523.279 284.571L523.208 284.731L523.137 284.855L523.084 284.961L523.031 285.05L522.995 285.121L522.96 285.174L522.924 285.209L522.889 285.245L522.853 285.28L522.836 285.298L522.818 285.316L522.8 285.333H522.783L522.765 285.351H522.747H522.729L524.236 289.287L524.253 289.34L524.271 289.394L524.289 289.447L524.307 289.5L524.324 289.553L524.342 289.606L524.36 289.66L524.378 289.713L524.395 289.766L524.413 289.819L524.431 289.872L524.448 289.926L524.466 289.979L524.484 290.032L524.502 290.085L524.519 290.138L524.537 290.192L524.555 290.245L524.572 290.298L524.59 290.351L524.608 290.404L524.626 290.457L524.643 290.528L524.661 290.582L524.679 290.653L524.714 290.706L524.732 290.777L524.75 290.83L524.767 290.883L524.803 290.954L524.821 291.025L524.856 291.096L524.891 291.167L524.909 291.238L524.945 291.309L524.98 291.379L525.015 291.45L525.051 291.521L525.086 291.592L525.122 291.663L525.157 291.734L525.193 291.805L525.228 291.876L525.264 291.947L525.299 292.018L525.334 292.089L525.37 292.16L525.405 292.248L525.441 292.337L525.476 292.426L525.512 292.514L525.547 292.603L525.583 292.691L525.618 292.78L525.654 292.869L525.707 292.975L525.742 293.082L525.795 293.188L525.848 293.294L525.902 293.418L525.955 293.542L526.008 293.667L526.079 293.791L526.15 293.933L526.221 294.074L526.292 294.234L526.362 294.394L526.433 294.571L526.522 294.748L526.61 294.943L526.699 295.138L526.788 295.333L526.876 295.528L526.965 295.723L527.054 295.918L527.142 296.113L527.231 296.308L527.319 296.504L527.408 296.716L527.497 296.929L527.585 297.142L527.674 297.372L527.762 297.603L527.869 297.851L527.975 298.117L528.081 298.383L528.205 298.649L528.329 298.933L528.453 299.216L528.578 299.5L528.702 299.801L528.843 300.103L528.985 300.422L529.145 300.741L529.304 301.06L529.464 301.397L529.641 301.734L529.818 302.089L529.995 302.443L530.19 302.798L530.385 303.17L530.58 303.542L530.775 303.915L530.97 304.287L531.165 304.659L531.36 305.032L531.555 305.404L531.75 305.776L531.945 306.131L532.14 306.486L532.335 306.823L532.512 307.142L532.689 307.461L532.866 307.78L533.026 308.099L533.185 308.4L533.362 308.72L533.54 309.039L533.717 309.376L533.912 309.73L534.107 310.085L534.319 310.457L534.532 310.847L534.745 311.255L534.958 311.663L535.188 312.106L535.436 312.549L535.666 313.01L535.914 313.471L536.163 313.95L536.411 314.429L536.659 314.908L536.907 315.404L537.155 315.883L537.403 316.361L537.651 316.858L537.899 317.354L538.147 317.869L538.395 318.383L538.644 318.915L538.892 319.447L539.14 319.996L539.388 320.564L539.636 321.131L539.884 321.698L540.132 322.266L540.38 322.833L540.628 323.383L540.877 323.915L541.125 324.447L541.373 324.978L541.639 325.51L541.904 326.042L542.188 326.61L542.489 327.212L542.826 327.851L543.198 328.524L543.57 329.234L543.978 329.978L544.403 330.758L544.846 331.574L545.289 332.39L545.732 333.205L546.158 334.003L546.565 334.765L546.973 335.51L547.363 336.237L547.753 336.946L548.125 337.62L548.479 338.294L548.834 338.95L549.188 339.588L549.525 340.209L549.862 340.829L550.198 341.45L550.535 342.07L550.889 342.709L551.244 343.347L551.598 344.003L551.953 344.677L552.325 345.368L552.697 346.077L553.087 346.804L553.477 347.531L553.867 348.276L554.239 349.003L554.593 349.712L554.93 350.386L555.249 351.024L555.55 351.645L555.834 352.248L556.117 352.833L556.383 353.418L556.631 354.003L556.897 354.606L557.163 355.209L557.446 355.847L557.73 356.503L558.013 357.177L558.315 357.85L558.634 358.542L558.935 359.233L559.254 359.925L559.555 360.599L559.839 361.237L560.122 361.875L560.406 362.478L560.672 363.063L560.938 363.63L561.186 364.198L561.434 364.765L561.682 365.333L561.948 365.918L562.214 366.52L562.497 367.123L562.781 367.726L563.064 368.329L563.348 368.949L563.649 369.588L563.968 370.244L564.287 370.9L564.606 371.574L564.925 372.247L565.244 372.904L565.563 373.56L565.882 374.216L566.183 374.889L566.502 375.563L566.821 376.237L567.123 376.911L567.424 377.584L567.725 378.258L568.009 378.932L568.292 379.605L568.576 380.261L568.842 380.917L569.107 381.556L569.356 382.194L569.604 382.832L569.852 383.453L570.082 384.073L570.312 384.694L570.525 385.332L570.755 385.971L570.968 386.609L571.181 387.265L571.394 387.939L571.606 388.613L571.819 389.304L572.031 389.996L572.244 390.687L572.457 391.396L572.669 392.105L572.882 392.815L573.095 393.524L573.307 394.233L573.52 394.924L573.733 395.616L573.945 396.307L574.158 396.999L574.371 397.69L574.583 398.382L574.796 399.056L574.991 399.729L575.186 400.403L575.363 401.059L575.523 401.698L575.664 402.3L575.806 402.903L575.93 403.471L576.037 404.02L576.143 404.57L576.232 405.119L576.32 405.651L576.409 406.183L576.497 406.715L576.586 407.247L576.675 407.797L576.763 408.364L576.852 408.931L576.94 409.516L577.011 410.119L577.082 410.722L577.153 411.343L577.206 411.981L577.242 412.619L577.277 413.258L577.295 413.878V414.517L577.277 415.155L577.259 415.793L577.242 416.431L577.206 417.07L577.171 417.708L577.135 418.346L577.1 418.985L577.064 419.623L577.029 420.261L577.011 420.899L576.994 421.538L576.976 422.158L576.958 422.779V423.382L576.94 423.967L576.923 424.534L576.905 425.084L576.887 425.616L576.852 426.147L576.816 426.662L576.781 427.176L576.745 427.672L576.692 428.151L576.639 428.63L576.568 429.109L576.497 429.587L576.427 430.066L576.356 430.545L576.285 431.023L576.214 431.52L576.143 432.034L576.09 432.548L576.037 433.08L575.983 433.63L575.93 434.215L575.877 434.818L575.824 435.438L575.771 436.077L575.7 436.733L575.629 437.406L575.558 438.08L575.47 438.754L575.381 439.427L575.275 440.066L575.168 440.669L575.062 441.254L574.956 441.821L574.849 442.371L574.743 442.921L574.637 443.47L574.53 444.02L574.424 444.587L574.318 445.172L574.211 445.793L574.105 446.431L573.999 447.105L573.892 447.796L573.786 448.523L573.697 449.268L573.591 450.03L573.502 450.828L573.414 451.608L573.325 452.371L573.254 453.133L573.183 453.86L573.113 454.587L573.042 455.296L572.971 456.005L572.918 456.697L572.847 457.406L572.794 458.115L572.723 458.825L572.652 459.534L572.581 460.243L572.51 460.952L572.421 461.679L572.315 462.424L572.209 463.168L572.085 463.931L571.943 464.711L571.783 465.509L571.624 466.342L571.464 467.193L571.305 468.062L571.128 468.913L570.968 469.764L570.809 470.58L570.667 471.342L570.543 472.069L570.419 472.761L570.312 473.399L570.206 474.002L570.118 474.587L570.011 475.154L569.905 475.722L569.799 476.289L569.692 476.856L569.568 477.424L569.444 478.026L569.302 478.629L569.161 479.25L569.001 479.888L568.824 480.562L568.647 481.236L568.452 481.927L568.257 482.636L568.062 483.345L567.867 484.055L567.654 484.764L567.442 485.473L567.229 486.183L567.016 486.892L566.804 487.601L566.591 488.328L566.378 489.072L566.166 489.817L565.953 490.58L565.758 491.36L565.563 492.14L565.368 492.938L565.173 493.753L564.978 494.587L564.783 495.42L564.588 496.271L564.393 497.122L564.198 497.973L564.003 498.824L563.791 499.675L563.578 500.526L563.348 501.377L563.1 502.228L562.852 503.062L562.586 503.877L562.32 504.675L562.054 505.438L561.771 506.164L561.487 506.874L561.203 507.583L560.92 508.31L560.636 509.054L560.335 509.817L560.016 510.615L559.697 511.466L559.343 512.352L558.988 513.274L558.616 514.232L558.244 515.225L557.872 516.235L557.5 517.246L557.145 518.239L556.791 519.196L556.436 520.118L556.117 520.969L555.816 521.785L555.515 522.547L555.231 523.274L554.948 523.983L554.664 524.693L554.363 525.42L554.044 526.147L553.725 526.909L553.37 527.689L553.016 528.487L552.644 529.303L552.272 530.154L551.9 531.022L551.51 531.909L551.12 532.831L550.712 533.771L550.305 534.746L549.897 535.756L549.489 536.785L549.082 537.848L548.674 538.948L548.284 540.03L547.948 540.987L547.93 541.022L547.948 541.04L548.089 541.2L548.249 541.377L548.408 541.537L548.568 541.714L548.727 541.873L548.869 542.033L549.011 542.193L549.153 542.334L549.277 542.459L549.401 542.583L549.525 542.724L549.649 542.849L549.791 542.99L549.932 543.132L550.092 543.292L550.251 543.451L550.429 543.629L550.606 543.806L550.801 544.001L551.013 544.196L551.226 544.409L551.456 544.639L551.687 544.87L551.917 545.1L552.165 545.331L552.413 545.579L552.662 545.827L552.927 546.075L553.193 546.341L553.477 546.625L553.778 546.926L554.097 547.246L554.416 547.582L554.735 547.919L555.054 548.256L555.373 548.593L555.674 548.93L555.976 549.267L556.259 549.586L556.543 549.905L556.808 550.207L557.057 550.508L557.305 550.792L557.535 551.075L557.748 551.324L557.96 551.572L558.173 551.82L558.368 552.05L558.563 552.281L558.758 552.512L558.971 552.742L559.183 552.99L559.414 553.256L559.644 553.522L559.892 553.806L560.158 554.107L560.441 554.427L560.725 554.763L561.026 555.118L561.327 555.473L561.629 555.827L561.93 556.164L562.214 556.501L562.479 556.802L562.728 557.104L562.976 557.387L563.206 557.653L563.419 557.902L563.631 558.15L563.826 558.38L564.021 558.611L564.234 558.859L564.447 559.107L564.659 559.373L564.89 559.657L565.138 559.941L565.386 560.242L565.652 560.561L565.935 560.88L566.219 561.199L566.502 561.536L566.786 561.891L567.087 562.245L567.388 562.6L567.69 562.972L567.991 563.345L568.31 563.717L568.611 564.125L568.93 564.533L569.249 564.976L569.568 565.419L569.905 565.898L570.242 566.394L570.596 566.909L570.968 567.458L571.358 568.043L571.766 568.664L572.209 569.32L572.669 570.011L573.166 570.756L573.68 571.536L574.211 572.334L574.761 573.167L575.31 573.983L575.842 574.781L576.338 575.543L576.816 576.27L577.277 576.962L577.72 577.635L578.146 578.274L578.553 578.876L578.961 579.479L579.368 580.082L579.776 580.667L580.184 581.252L580.609 581.855L581.052 582.458L581.495 583.079L581.956 583.717L582.434 584.355L582.913 584.976L583.391 585.596L583.87 586.199L584.348 586.802L584.827 587.387L585.287 587.972L585.766 588.575L586.244 589.178L586.723 589.798L587.201 590.419L587.698 591.057L588.176 591.695L588.655 592.316L589.115 592.937L589.576 593.557L590.019 594.16L590.462 594.763L590.905 595.366L591.348 595.969L591.774 596.571L592.199 597.157L592.624 597.742L593.067 598.309L593.493 598.876L593.936 599.444L594.361 599.993L594.804 600.543L595.247 601.093L595.69 601.66L596.133 602.227L596.576 602.795L596.984 603.344L597.391 603.894L597.764 604.426L598.118 604.94L598.472 605.454L598.809 605.968L599.128 606.483L599.429 606.997L599.731 607.511L600.014 608.025L600.298 608.539L600.581 609.053L600.865 609.568L601.131 610.082L601.397 610.578L601.645 611.057L601.893 611.536L602.141 611.997L602.371 612.44L602.602 612.883L602.814 613.327L603.045 613.752L603.257 614.195L603.47 614.639L603.7 615.082L603.931 615.525L604.161 616.004L604.392 616.483L604.64 616.979L604.888 617.493L605.136 618.025L605.384 618.557L605.632 619.124L605.898 619.692L606.164 620.277L606.43 620.862L606.678 621.465L606.926 622.068L607.174 622.67L607.422 623.273L607.652 623.876L607.883 624.479L608.113 625.082L608.344 625.72L608.574 626.358L608.804 627.014L609.035 627.688L609.265 628.38L609.513 629.089L609.779 629.816L610.045 630.56L610.328 631.323L610.612 632.121L610.913 632.918L611.214 633.734L611.516 634.567L611.817 635.418L612.118 636.269L612.402 637.103L612.685 637.936L612.969 638.752L613.253 639.567L613.518 640.383L613.766 641.181L614.015 641.943L614.263 642.688L614.493 643.415L614.723 644.142L614.954 644.869L615.184 645.578L615.397 646.287L615.609 646.996L615.822 647.723L616.035 648.432L616.23 649.142L616.425 649.833L616.602 650.525L616.779 651.198L616.939 651.872L617.098 652.528L617.24 653.184L617.382 653.823L617.506 654.461L617.63 655.099L617.754 655.737L617.86 656.376L617.966 657.014L618.073 657.652L618.179 658.291L618.285 658.947L618.392 659.62L618.498 660.294L618.604 660.986L618.728 661.695L618.835 662.422L618.959 663.166L619.083 663.911L619.207 664.656L619.331 665.401L619.455 666.145L619.579 666.872L619.703 667.599L619.827 668.326L619.951 669.035L620.075 669.744L620.199 670.436L620.323 671.127L620.43 671.801L620.536 672.475L620.642 673.149L620.749 673.822L620.855 674.496L620.961 675.188L621.068 675.879L621.192 676.57L621.298 677.28L621.422 677.989L621.546 678.716L621.67 679.425L621.794 680.152L621.918 680.879L622.042 681.624L622.184 682.368L622.308 683.095L622.45 683.822L622.574 684.549L622.698 685.276L622.822 685.985L622.946 686.677L623.07 687.368L623.177 688.042L623.283 688.716L623.372 689.39L623.46 690.063L623.531 690.737L623.602 691.411L623.673 692.085L623.744 692.758L623.797 693.414L623.832 694.053L623.868 694.673L623.903 695.294L623.939 695.914L623.974 696.535L624.01 697.173L624.045 697.812L624.081 698.45L624.134 699.088L624.187 699.726L624.222 700.347L624.258 700.967L624.293 701.606L624.329 702.226L624.346 702.847L624.364 703.467V704.106V704.744V705.4V706.091V706.783V707.51V708.255V709.017V709.78V710.506V711.233V711.925V712.599V713.237V713.875V714.478V714.833H624.399Z" fill="white"/>
<path id="Skin" d="M450.533 169.857V169.963L450.497 170.495L450.462 171.293L450.409 172.144L450.355 172.995L450.284 173.828L450.214 174.644L450.143 175.424L450.054 176.186L449.965 176.931L449.877 177.676L449.788 178.42L449.7 179.183L449.611 179.98L449.522 180.832L449.434 181.718L449.345 182.64L449.257 183.615L449.15 184.608L449.044 185.619L448.938 186.647L448.814 187.658L448.689 188.668L448.565 189.661L448.441 190.654L448.317 191.647L448.193 192.64L448.087 193.633L447.998 194.626L447.91 195.601L447.839 196.576L447.786 197.534L447.732 198.473L447.697 199.395L447.662 200.317L447.626 201.221L447.591 202.126L447.555 203.03L447.52 203.916L447.484 204.803L447.431 205.689L447.36 206.558L447.289 207.409L447.219 208.26L447.13 209.094L447.041 209.892L446.953 210.672L446.864 211.434L446.776 212.161L446.687 212.888L446.598 213.597L446.51 214.289L446.421 214.962L446.333 215.636L446.244 216.292L446.155 216.931L446.049 217.569L445.943 218.207L445.836 218.845L445.712 219.484L445.588 220.122L445.446 220.778L445.287 221.452L445.127 222.143L444.95 222.835L444.755 223.544L444.56 224.253L444.365 224.98L444.17 225.707L443.975 226.434L443.763 227.161L443.568 227.923L443.355 228.686L443.16 229.448L442.965 230.211L442.77 230.991L442.575 231.789L442.38 232.586L442.186 233.384L441.991 234.182L441.796 234.998L441.601 235.813L441.406 236.629L441.211 237.427L441.016 238.207L440.821 238.952L440.644 239.661L440.467 240.335L440.307 240.973L440.094 241.664L439.935 242.214L439.793 242.728L439.651 243.225L439.51 243.703L439.368 244.182L439.226 244.643L439.102 245.104L438.96 245.565L438.836 246.026L438.712 246.469L438.588 246.912L438.464 247.356L438.34 247.781L438.216 248.207L438.092 248.615L437.968 249.04L437.826 249.448L437.684 249.874L437.525 250.317L437.365 250.76L437.188 251.239L436.993 251.717L436.798 252.232L436.585 252.763L436.373 253.313L436.16 253.898L435.93 254.501L435.699 255.122L435.469 255.76L435.239 256.416L435.008 257.09L434.778 257.781L434.53 258.49L434.282 259.217L434.034 259.944L433.785 260.689L433.537 261.451L433.272 262.214L433.006 262.976L432.74 263.739L432.474 264.501L432.226 265.246L431.978 265.973L431.73 266.682L431.499 267.373L431.269 268.047L431.056 268.703L430.844 269.341L430.631 269.944L430.418 270.547L430.206 271.15L429.993 271.735L429.78 272.302L429.568 272.852L429.355 273.384L429.142 273.898L428.93 274.412L428.699 274.909L428.469 275.387L428.238 275.866L428.008 276.345L427.76 276.824L427.512 277.285L427.264 277.763L427.016 278.242L426.75 278.721L426.484 279.199L426.218 279.678L425.935 280.157L425.651 280.653L425.35 281.15L425.049 281.628L424.747 282.107L424.464 282.568L424.18 283.011L423.897 283.437L423.631 283.845L423.383 284.217L423.152 284.572L422.922 284.891L422.709 285.192L422.514 285.458L422.497 285.476L422.248 285.795L421.894 286.238L421.859 286.292L396.8 301.238L396.747 301.274L396.321 301.504L395.577 301.876L394.691 302.284L393.752 302.692L392.777 303.082L391.802 303.437L390.828 303.756L389.818 304.04L388.807 304.288L387.797 304.518L386.787 304.713L385.777 304.908L384.767 305.068L383.757 305.21L382.747 305.352L381.754 305.476L380.762 305.582L379.769 305.671L378.812 305.759L352.017 303.011H351.999H351.964H351.928H351.857H351.769L351.627 302.993L351.432 302.958L351.166 302.905L350.83 302.816L350.404 302.692L349.908 302.532L349.341 302.337L348.703 302.089L347.994 301.806L347.197 301.486L346.346 301.132L345.407 300.724L344.414 300.298L343.369 299.838L342.27 299.359L341.153 298.845L340.019 298.313L338.903 297.781L337.804 297.249L336.723 296.717L335.66 296.185L334.632 295.653L333.604 295.103L332.558 294.536L331.495 293.951L330.414 293.33L329.315 292.692L328.216 292.036L327.118 291.362L326.019 290.671L324.938 289.979L323.892 289.288L322.864 288.579L321.854 287.87L320.862 287.16L319.887 286.451L318.913 285.76L317.938 285.068L316.928 284.377L315.9 283.667L314.837 282.958L313.756 282.231L312.657 281.504L311.558 280.777L310.459 280.05L309.378 279.324L308.315 278.597L307.269 277.87L306.259 277.143L305.284 276.416L304.328 275.706L303.424 275.015L302.555 274.324L301.74 273.65L301.563 273.508L300.978 272.994L300.127 272.231L299.294 271.487L298.32 270.565L297.522 269.855L296.76 269.146L295.998 268.455L295.236 267.746L294.474 267.019L293.677 266.274L292.861 265.494L292.046 264.696L291.213 263.898L290.363 263.083L289.512 262.249L288.679 261.416L287.864 260.6L287.084 259.785L286.322 258.987L285.596 258.207L284.869 257.409L284.142 256.629L283.416 255.849L282.689 255.051L281.963 254.271L281.254 253.49L280.545 252.71L279.854 251.93L279.18 251.168L278.525 250.405L277.869 249.643L277.213 248.863L276.557 248.065L275.902 247.249L275.228 246.398L274.555 245.547L273.881 244.714L273.226 243.881L272.588 243.065L271.985 242.267L271.4 241.487L270.833 240.725L270.266 239.962L269.699 239.2L269.132 238.42L268.565 237.622L267.98 236.824L267.377 236.008L266.757 235.193L266.137 234.359L265.499 233.544L264.861 232.728L264.223 231.913L263.585 231.115L262.929 230.317L262.274 229.519L261.618 228.739L260.962 227.959L260.289 227.161L259.615 226.363L258.924 225.547L258.198 224.696L257.471 223.828L256.709 222.941L255.947 222.019L255.167 221.062L254.387 220.104L253.59 219.111L252.792 218.101L251.995 217.09L251.357 216.275L251.002 215.725L250.311 214.679L249.62 213.668L248.947 212.693L248.309 211.736L247.671 210.814L247.068 209.909L246.483 209.023L245.916 208.136L245.367 207.25L244.818 206.363L244.268 205.459L243.719 204.555L243.169 203.651L242.602 202.746L242.035 201.842L241.468 200.938L240.901 200.033L240.369 199.147L239.838 198.278L239.342 197.427L238.863 196.594L238.385 195.778L237.924 194.98L237.481 194.218L237.055 193.491L236.648 192.8L236.258 192.126L235.886 191.487L235.514 190.885L235.159 190.317L234.822 189.768L234.503 189.254L234.185 188.739L233.866 188.243L233.547 187.746L233.228 187.232L232.909 186.7L232.572 186.168L232.217 185.601L231.863 185.016L231.491 184.413L231.101 183.793L230.693 183.154L230.286 182.498L229.878 181.825L229.453 181.151L229.027 180.477L228.62 179.821L228.212 179.183L227.805 178.544L227.397 177.906L227.007 177.303L226.635 176.718L226.263 176.151L225.908 175.583L225.554 175.052L225.217 174.52L224.881 173.988L224.544 173.438L224.207 172.871L223.853 172.286L223.481 171.683L223.108 171.027L222.701 170.353L222.293 169.644L221.868 168.917L221.425 168.154L220.982 167.392L220.521 166.612L220.06 165.832L219.617 165.052L219.174 164.271L218.731 163.509L218.306 162.764L217.898 162.037L217.491 161.328L217.083 160.619L216.675 159.91L216.268 159.183L215.842 158.438L215.399 157.658L214.939 156.86L214.442 156.045L213.928 155.211L213.397 154.378L212.865 153.527L212.316 152.676L211.749 151.807L211.182 150.956L210.632 150.105L210.065 149.254L209.516 148.403L208.966 147.552L208.417 146.701L207.868 145.85L207.301 144.981L206.733 144.112L206.166 143.226L205.599 142.339L205.032 141.453L204.465 140.566L203.898 139.68L203.331 138.793L202.764 137.906L202.197 137.02L201.63 136.133L201.062 135.282L200.513 134.431L199.981 133.616L199.467 132.818L198.971 132.055L198.493 131.328L198.05 130.637L197.624 129.963L197.217 129.307L196.809 128.651L196.402 127.995L195.994 127.321L195.586 126.648L195.161 125.956L194.718 125.265L194.275 124.573L193.832 123.882L193.407 123.208L192.999 122.57L192.591 121.949L192.201 121.382L192.166 121.329L199.237 112.517L199.272 112.499L199.609 112.322L200.176 112.003L200.814 111.648L201.452 111.276L202.108 110.885L202.746 110.495L203.366 110.105L203.969 109.697L204.554 109.29L205.121 108.882L205.688 108.492L206.237 108.084L206.769 107.694L207.301 107.286L207.832 106.878L208.364 106.471L208.895 106.063L209.427 105.655L209.941 105.247L210.455 104.839L210.933 104.432L211.412 104.042L211.873 103.651L212.316 103.279L212.741 102.907L213.149 102.552L213.556 102.198L213.964 101.861L214.354 101.524L214.726 101.205L215.098 100.886L215.47 100.566L215.842 100.265L216.197 99.9636L216.551 99.6799L216.906 99.3962L217.242 99.1303L217.561 98.8643L217.88 98.616L218.199 98.3679L218.518 98.1196L218.837 97.8714L219.156 97.6231L219.475 97.375L219.794 97.1267L220.113 96.8785L220.432 96.6302L220.769 96.3644L221.088 96.0984L221.407 95.8325L221.726 95.5487L222.027 95.2651L222.311 94.9991L222.594 94.7155L222.86 94.4317L223.126 94.1481L223.374 93.8643L223.622 93.5984L223.87 93.3324L224.119 93.0665L224.349 92.8183L224.579 92.57L224.81 92.3218L225.04 92.0737L225.27 91.8431L225.501 91.6126L225.731 91.3821L225.962 91.1516L226.192 90.9211L226.422 90.6906L226.653 90.4601L226.883 90.2296L227.114 89.9991L227.344 89.7686L227.574 89.5381L227.805 89.29L228.035 89.0417L228.265 88.7935L228.496 88.5452L228.726 88.2971L228.974 88.0488L229.222 87.8006L229.471 87.5523L229.719 87.3042L229.967 87.0382L230.215 86.7722L230.463 86.5063L230.711 86.2226L230.959 85.9389L231.19 85.6552L231.42 85.3893L231.633 85.1233L231.845 84.8574L232.058 84.5914L232.253 84.3254L232.448 84.0595L232.643 83.7935L232.838 83.5276L233.033 83.2616L233.245 82.978L233.44 82.6942L233.653 82.4106L233.866 82.1269L234.078 81.8432L234.291 81.5595L234.503 81.2758L234.716 80.9922L234.929 80.7085L235.124 80.4248L235.319 80.1411L235.514 79.8574L235.709 79.5737L235.904 79.2723L236.116 78.9709L236.329 78.6518L236.542 78.3149L236.754 77.978L236.967 77.6234L237.197 77.251L237.428 76.861L237.658 76.4531L237.888 76.0454L238.119 75.6376L238.331 75.2298L238.544 74.822L238.757 74.4142L238.952 74.0241L239.147 73.6518L239.342 73.2794L239.519 72.9248L239.678 72.5879L239.82 72.2688L239.962 71.9497L240.086 71.6305L240.21 71.3114L240.334 70.9745L240.458 70.6199L240.582 70.2475L240.724 69.8575L240.866 69.4497L241.007 69.0419L241.167 68.6164L241.326 68.1908L241.486 67.7653L241.645 67.3398L241.805 66.932L241.947 66.5242L242.088 66.1342L242.213 65.7441L242.336 65.3717L242.461 65.0172L242.585 64.6625L242.691 64.3257L242.815 63.971L242.921 63.6164L243.028 63.2619L243.134 62.9073L243.258 62.5349L243.364 62.1625L243.488 61.7725L243.595 61.3647L243.719 60.9391L243.843 60.4958L243.967 60.0526L244.091 59.6093L244.215 59.1484L244.339 58.7052L244.463 58.2619L244.587 57.8187L244.711 57.4108L244.818 57.003L244.924 56.613L245.013 56.2406L245.101 55.886L245.19 55.5314L245.261 55.1768L245.331 54.8222L245.402 54.4676L245.473 54.113L245.544 53.7761L245.597 53.4392L245.651 53.0846L245.704 52.7477L245.739 52.3932L245.792 52.0386L245.845 51.6662L245.899 51.2762L245.97 50.8683L246.04 50.425L246.129 49.9641L246.235 49.4854L246.359 48.9889L246.483 48.4747L246.625 47.9606L246.785 47.4464L246.926 46.9322L247.086 46.4181L247.228 45.9216L247.37 45.4428L247.494 44.9818L247.6 44.5386L247.706 44.1308L247.795 43.7408L247.866 43.3684L247.937 43.0138L247.99 42.6769L248.043 42.3578L248.078 42.0386L248.114 41.7195L248.149 41.4181L248.185 41.099L248.202 40.7797L248.22 40.4606L248.238 40.1415L248.256 39.8223L248.273 39.5032L248.291 39.1663L248.309 38.8472L248.326 38.5281L248.344 38.2089L248.38 37.9074L248.397 37.606L248.415 37.3224L248.433 37.0387L248.451 36.755L248.468 36.489V36.2231V35.9571L248.486 35.6734V35.3898V35.1061V34.8224V34.521L248.504 34.2196L248.522 33.9181L248.539 33.6167L248.557 33.3153L248.575 33.0138L248.592 32.7125L248.61 32.4288L248.628 32.1451L248.645 31.8614L248.681 31.5777L248.699 31.2941L248.716 30.9927L248.734 30.7089L248.752 30.4075V30.1062V29.8224V29.521V29.2196V28.9181V28.6168V28.2976V27.9962V27.6771V27.358V27.0387V26.7196V26.4005V26.0813L248.734 25.7622V25.4431V25.1239L248.716 24.8048L248.699 24.4856L248.681 24.1664L248.663 23.8473V23.5282L248.645 23.209V22.8899V22.553V22.1984L248.663 21.8438L248.681 21.4891L248.716 21.1346L248.752 20.78L248.787 20.4431L248.823 20.1062L248.858 19.7871L248.894 19.5034L248.929 19.2375L247.635 16.2588V16.241V16.2233V16.2055L247.653 16.1878V16.1524L247.671 16.1169L247.689 16.0814L247.724 16.046L247.759 15.9928L247.813 15.9219L247.883 15.8509L247.972 15.7623L248.078 15.6559L248.202 15.5318L248.362 15.3723L248.575 15.1949L248.823 14.9999L249.142 14.7516L249.514 14.468L249.957 14.1489L250.471 13.7765L251.073 13.3687L251.747 12.9255L252.473 12.4467L253.253 11.968L254.068 11.4716L254.919 10.9574L255.787 10.4432L256.674 9.92904L257.595 9.4148L258.517 8.9184L259.456 8.43965L260.413 7.961L261.387 7.5L262.38 7.05674L263.39 6.63123L264.4 6.22336L265.428 5.83334L266.474 5.46097L267.537 5.08859L268.653 4.71633L269.823 4.34395L271.028 3.98932L272.322 3.6348L273.704 3.28017L275.122 2.92555L276.593 2.60641L278.117 2.30503L279.659 2.02128L281.236 1.77303L282.813 1.54253L284.373 1.34752L285.915 1.17026L287.456 1.01064L288.998 0.851129L290.558 0.709256L292.135 0.585131L293.73 0.461006L295.343 0.354628L296.973 0.265998L298.639 0.177368L300.375 0.106378L302.148 0.0532429L303.92 0.0177476L305.728 0H307.553L309.414 0.0354953L311.328 0.0887382L313.242 0.159621L315.138 0.24825L317.016 0.33688L318.859 0.461006L320.667 0.585131L322.421 0.727004L324.123 0.886516L325.771 1.04614L327.401 1.2234L329.014 1.41851L330.644 1.63127L332.292 1.87941L333.941 2.16316L335.589 2.46454L337.201 2.80142L338.814 3.15605L340.374 3.54606L341.88 3.93619L343.333 4.3262L344.733 4.71633L346.062 5.12409L347.356 5.53185L348.614 5.93972L349.855 6.32974L351.06 6.71986L352.23 7.10988L353.346 7.48225L354.445 7.85463L355.526 8.22689L356.571 8.59927L357.617 8.98929L358.663 9.37941L359.69 9.76942L360.701 10.1773L361.711 10.5851L362.685 10.9928L363.642 11.4007L364.564 11.8085L365.468 12.234L366.318 12.6595L367.134 13.085L367.896 13.4929L368.622 13.9006L369.313 14.3084L369.969 14.7163L370.625 15.1418L371.298 15.585L371.972 16.046L372.663 16.5247L373.372 17.0389L374.098 17.5531L374.825 18.0672L375.552 18.5637L376.26 19.0425L376.952 19.5034L377.625 19.9466L378.281 20.3722L378.919 20.78L379.539 21.17L380.141 21.5601L380.744 21.9501L381.329 22.358L381.914 22.748L382.498 23.1382L383.066 23.5282L383.633 23.9183L384.2 24.3083L384.767 24.6984L385.334 25.0707L385.866 25.4431L386.38 25.7977L386.858 26.1346L387.301 26.436L387.726 26.7196L388.116 26.9856L388.471 27.2339L388.825 27.482L389.162 27.7302L389.481 27.9785L389.8 28.2267L390.119 28.4749L390.456 28.7409L390.775 29.0069L391.093 29.2728L391.43 29.5388L391.749 29.787L392.068 30.0352L392.37 30.2657L392.653 30.4962L392.937 30.7089L393.202 30.904L393.451 31.0991L393.681 31.2763L393.894 31.4537L394.088 31.6132L394.284 31.7728L394.461 31.9146L394.62 32.0564L394.78 32.1806L394.939 32.3047L395.063 32.4111L395.187 32.5175L395.311 32.6238L395.435 32.7125L395.542 32.8011L395.648 32.8898L395.754 32.9785L395.843 33.0671L395.932 33.1557L396.038 33.2444L396.127 33.3331L396.215 33.4395L396.321 33.5458L396.41 33.6522L396.516 33.7586L396.623 33.865L396.729 33.9714L396.818 34.0777L396.924 34.1841L397.013 34.3082L397.101 34.4146L397.208 34.521L397.296 34.6274L397.385 34.7515L397.473 34.8579L397.58 34.982L397.686 35.1061L397.792 35.2301L397.899 35.3543L398.005 35.4784L398.111 35.6025L398.218 35.7266L398.324 35.833L398.43 35.9571L398.537 36.0635L398.643 36.1699L398.749 36.2763L398.838 36.3827L398.927 36.4713L399.015 36.5777L399.104 36.6664L399.192 36.755L399.281 36.8437L399.37 36.9323L399.458 37.0209L399.529 37.1097L399.6 37.1983L399.671 37.2869L399.742 37.3755L399.813 37.4642L399.884 37.5529L399.954 37.6415L400.025 37.7302L400.096 37.8188L400.149 37.9074L400.22 37.9784L400.273 38.0493L400.327 38.1202L400.38 38.1912L400.433 38.2621L400.486 38.3329L400.539 38.4039L400.575 38.4748L400.61 38.5458L400.646 38.6167L400.681 38.6876L400.717 38.7586L400.752 38.8294L400.787 38.9003L400.823 38.9713L400.858 39.0422L400.894 39.1131L400.929 39.1841L400.965 39.255L401 39.3082L403.729 84.875L403.747 84.946L403.853 85.5134L404.048 86.4886L404.261 87.5523L404.491 88.6162L404.722 89.6269L404.934 90.5665L405.147 91.453L405.36 92.304L405.555 93.1019L405.749 93.8467L405.944 94.5558L406.139 95.2473L406.334 95.9034L406.512 96.5416L406.689 97.1445L406.866 97.7119L407.043 98.2793L407.203 98.8289L407.362 99.3608L407.522 99.8749L407.681 100.389L407.841 100.886L408 101.382L408.16 101.878L408.337 102.375L408.514 102.871L408.691 103.35L408.886 103.829L409.081 104.308L409.276 104.786L409.489 105.247L409.701 105.708L409.914 106.169L410.127 106.612L410.357 107.056L410.588 107.517L410.836 107.978L411.084 108.439L411.332 108.9L411.58 109.378L411.828 109.857L412.094 110.354L412.36 110.868L412.643 111.4L412.909 111.932L413.193 112.481L413.476 113.031L413.76 113.58L414.043 114.112L414.309 114.644L414.575 115.158L414.823 115.655L415.071 116.134L415.319 116.577L415.55 116.985L415.762 117.357L415.957 117.712L416.152 118.031L416.329 118.35L416.507 118.651L416.684 118.935L416.861 119.219L417.056 119.52L417.251 119.839L417.464 120.158L417.676 120.495L417.907 120.85L418.155 121.222L418.421 121.63L418.686 122.056L418.97 122.499L419.271 122.96L419.59 123.438L419.909 123.917L420.228 124.414L420.565 124.892L420.902 125.371L421.238 125.832L421.557 126.275L421.876 126.701L422.178 127.109L422.479 127.481L422.762 127.853L423.046 128.208L423.329 128.545L423.595 128.864L423.861 129.165L424.109 129.467L424.375 129.751L424.641 130.034L424.907 130.318L425.173 130.602L425.456 130.885L425.74 131.169L426.023 131.453L426.307 131.736L426.59 132.02L426.892 132.304L427.193 132.587L427.494 132.871L427.795 133.155L428.097 133.438L428.398 133.704L428.699 133.97L429.001 134.236L429.284 134.485L429.568 134.733L429.851 134.981L430.135 135.229L430.418 135.477L430.702 135.708L430.985 135.938L431.269 136.151L431.552 136.364L431.836 136.559L432.12 136.754L432.403 136.949L432.669 137.144L432.935 137.339L433.183 137.516L433.431 137.694L433.661 137.853L433.892 138.013L434.104 138.172L434.317 138.332L434.53 138.474L434.725 138.616L434.92 138.758L435.115 138.882L435.292 139.006L435.469 139.13L435.628 139.254L435.788 139.378L435.947 139.485L436.107 139.591L436.267 139.697L436.426 139.804L436.585 139.892L436.745 139.981L436.904 140.07L437.064 140.158L437.223 140.247L437.401 140.336L437.578 140.424L437.773 140.513L437.968 140.602L438.163 140.69L438.358 140.779L438.57 140.885L438.783 140.992L438.996 141.098L439.208 141.204L439.421 141.311L439.634 141.417L439.846 141.523L440.059 141.63L440.272 141.719L440.467 141.825L440.661 141.914L440.856 142.002L441.034 142.091L441.211 142.179L441.37 142.25L441.53 142.321L441.689 142.392L441.831 142.463L441.955 142.534L442.079 142.587L442.203 142.64L442.327 142.694L442.434 142.747L442.54 142.8L442.629 142.835L442.717 142.871L442.806 142.906L442.894 142.942L442.983 142.977L443.072 143.013L443.16 143.048L443.231 143.084L443.302 143.119L443.373 143.155L443.444 143.172L443.515 143.19L443.586 143.208L443.656 143.226L443.727 143.243L443.798 143.261L443.851 143.279L443.905 143.296L443.958 143.314L444.011 143.332L444.064 143.35L444.117 143.367L444.17 143.385H444.206L444.259 143.403L444.312 143.421L444.348 143.438L444.401 143.456H444.436L444.472 143.474L444.507 143.492H444.56L444.596 143.509L444.631 143.527H444.667L444.72 143.545H444.755L444.791 143.562L444.826 143.58H444.862L444.897 143.598H444.932L444.968 143.616L445.021 143.633H445.056L445.092 143.651H445.127L445.163 143.669L445.198 143.687H445.234L445.269 143.704L445.305 143.722L445.34 143.74H445.393L445.429 143.757L445.464 143.775L445.5 143.793H445.535L445.57 143.811L445.606 143.828H445.641L445.677 143.846L445.712 143.864H445.748L445.783 143.882H445.818L445.854 143.899H445.889L445.925 143.917H445.96L445.996 143.935L446.031 143.952H446.067L450.533 169.857Z" fill="#B7B5B5"/>
<g id="Outline">
<path d="M539.283 191.345C535.561 190.281 532.034 188.739 528.986 186.913C512.381 177.303 494.96 169.2 477.557 161.15C464.691 156.47 452.286 150.831 440.466 143.881C434.547 140.619 428.557 137.268 423.648 132.569C400.308 108.225 395.842 83.8107 397.348 51.2047C397.951 46.8075 395.7 38.5807 400.716 36.5949C402.754 35.9921 404.703 37.1446 405.394 39.0772C405.819 44.7154 405.678 50.5487 405.784 56.2579C404.951 83.8108 410.073 103.208 429.159 123.58C439.172 133.048 452.268 138.633 464.496 144.679C480.925 150.956 496.821 158.491 512.558 166.31C521.26 170.92 530.9 174.289 538.627 180.494C542.153 183.792 544.44 188.083 546.495 192.391C544.121 192.586 541.604 192.001 539.283 191.345Z" fill="black"/>
<path d="M3.81773 206.664C-0.772221 205.866 -0.665929 200.193 1.23031 197.019C4.10124 192.799 8.85072 190.281 12.4483 186.735C15.9926 183.455 19.661 180.335 23.5244 177.427C79.9152 125.637 142.526 135.477 205.439 104.378C220.024 96.0801 232.961 82.9598 237.125 66.3287C241.751 49.9636 242.885 32.7298 243.842 15.9037C244.604 13.2796 247.652 10.8328 250.062 14.1307C251.197 15.4427 251.48 17.1271 251.569 18.776C251.941 26.8256 251.126 34.8752 250.293 42.8715C246.819 98.722 217.472 114.537 168.241 129.502C134.126 139.466 98.7712 146.771 66.7125 162.516C49.8236 171.257 35.6107 184.093 21.0965 196.186C15.6205 199.909 11.2077 207.87 3.81773 206.664Z" fill="black"/>
<path d="M46.6158 920.806C36.9929 915.753 40.9804 903.395 39.2613 894.636C38.198 885.629 34.1752 877.402 32.3144 868.59C30.4005 857.296 32.1372 845.417 36.1423 834.743C40.5905 823.786 50.0894 814.371 49.8944 801.924C48.9552 785.027 39.155 770.098 36.6208 753.467C34.4942 741.251 37.1524 729.088 40.4487 717.333C45.4462 699.709 51.8261 682.528 56.5756 664.816C61.2719 650.685 65.8972 636.482 67.6871 621.642C68.7681 611.713 69.5302 601.767 70.5049 591.82C72.9328 569.019 71.5505 546.129 70.4694 523.292C68.9276 483.807 63.7883 444.587 59.411 405.332C58.6313 396.308 56.0085 386.432 60.7402 378.081C67.0846 388.187 67.5099 400.208 69.2821 411.715C79.6494 482.264 87.0748 553.966 79.6671 625.188C78.3379 638.185 75.2012 650.879 71.1784 663.273C67.0846 676.73 64.2846 689.673 59.7832 702.812C43.3197 753.698 50.1071 747.652 64.3909 794.353C67.5631 807.385 63.2567 820.789 55.973 831.676C52.9426 836.463 49.6463 841.197 48.2817 846.782C46.6336 853.909 45.1804 861.498 47.1829 868.697C51.0109 879.849 55.7781 890.877 56.2389 902.863C56.9832 909.263 56.2034 917.242 49.7526 920.434C48.707 920.912 47.6969 921.143 46.6158 920.806Z" fill="black"/>
<path d="M542.756 544.994C540.576 542.512 540.417 539.019 541.586 536.058C543.004 531.537 544.705 527.122 546.159 522.618C548.587 514.746 551.369 506.963 554.701 499.409C559.769 487.406 562.569 474.587 566.255 462.122C568.807 452.69 571.235 442.265 572.352 432.885C575.506 399.942 558.298 362.62 543.341 333.985C536.695 321.468 531.255 308.312 524.06 296.078C522.66 293.773 521.259 291.468 519.806 289.199C519.044 288.241 518.619 287.053 518.743 285.812C518.92 282.124 524.095 281.344 525.938 284.234C532.477 292.78 537.174 302.514 542.207 311.982C560.602 345.617 580.893 380.031 584.066 419.091C585.164 435.456 581.088 451.662 577.119 467.424C573.947 478.878 571.359 490.367 567.07 501.448C563.048 510.987 559.574 520.721 556.792 530.703C555.108 535.207 554.895 540.437 552.025 544.373C549.774 547.157 545.202 547.937 542.756 544.994Z" fill="black"/>
<path d="M531.396 904.299C531.361 904.228 531.308 904.139 531.325 904.051C531.325 904.033 531.343 904.033 531.361 904.033C531.378 904.051 531.396 904.033 531.414 904.051C531.467 904.068 531.503 904.068 531.52 904.051C532.53 901.994 533.062 899.76 534.143 897.739C537.936 891.356 542.862 885.948 547.062 879.831C553.549 871.338 560.247 863.005 566.22 854.157C574.318 843.236 582.24 832.243 588.177 819.938C607.157 786.02 616.107 747.297 619.527 708.804C620.679 675.737 612.987 642.865 597.729 613.646C584.703 590.844 566.556 571.448 549.278 551.82C546.194 548.292 540.771 544.817 542.791 539.444C544.138 535.916 548.746 535.118 551.794 536.891C553.85 538.079 555.498 540.03 557.075 541.767C567.354 552.689 576.693 564.462 586.086 576.146C618.038 613.664 633.704 664.177 630.656 713.219C626.332 766.658 606.696 819.14 572.475 860.611C565.741 869.281 558.706 877.703 552.024 886.427C546.371 893.235 541.764 902.756 532.282 904.529C532.017 904.547 531.538 904.547 531.396 904.299Z" fill="black"/>
<path d="M577.491 911.373C575.541 908.59 575.612 904.884 574.939 901.657C573.238 891.923 572.334 882.065 573.308 872.207C574.319 862.278 575.453 841.747 582.134 834.53C585.59 832.367 589.01 836.285 587.539 839.761C586.21 843.2 585.288 846.782 584.615 850.399C582.984 862.739 581.815 875.275 582.878 887.739C583.41 894.92 586.157 901.781 587.096 908.572C586.795 913.235 580.309 915.115 577.491 911.373Z" fill="black"/>
<path d="M329.261 976.125C293.995 976.461 259.03 970.859 224.384 964.884C211.287 962.295 198.049 960.504 184.899 958.27C161.506 954.228 138.911 946.781 116.103 940.345C100.756 936.231 85.4799 931.799 70.6467 926.107C62.6542 923.04 54.1477 921.054 46.5627 917.083C38.5347 911.444 43.6032 898.625 53.5097 900.505C61.5199 903.253 68.9985 907.632 76.8847 910.806C100.774 920.097 125.177 928.111 149.562 936.001C165.582 940.877 181.993 944.245 198.386 947.526C235.336 955.185 272.569 961.586 310.104 963.572C353.682 965.327 397.313 962.774 440.271 955.043C472.79 949.405 505.133 941.674 535.862 929.476C547.328 924.866 558.245 919.068 568.63 912.366C571.448 910.593 574.248 908.838 577.065 907.065C578.217 906.338 579.245 905.753 580.663 905.895C583.888 906.108 585.536 910.345 583.268 912.739C581.709 914.334 579.936 915.682 578.164 917.029C567.07 925.451 555.25 933.075 542.437 938.607C507.596 953.394 470.15 961.355 432.934 967.578C398.678 973.075 364.014 976.586 329.261 976.125Z" fill="black"/>
<path d="M298.337 565.118C307.694 554.852 315.403 543.203 323.945 532.281C336.704 515.579 348.046 497.353 353.664 476.909C357.581 462.548 359.707 447.761 361.285 432.974C361.745 425.19 362.631 418.275 364.776 410.793C364.758 410.776 364.758 410.793 364.758 410.776C364.953 410.385 365.945 411.928 366.052 412.141C370.092 417.868 370.216 425.048 369.525 431.768C368.675 441.449 367.469 451.077 365.91 460.669C361.692 488.984 349.358 516.111 330.023 537.317C320.223 547.246 310.476 558.256 298.337 565.118Z" fill="black"/>
<path d="M366.477 312.656C328.233 307.106 295.271 282.408 270.62 253.685C240.989 221.15 214.831 185.53 194.256 146.541C190.801 139.963 186.441 133.722 183.995 126.683C182.312 118.881 188.213 112.605 195.444 118.544C199.112 121.647 200.317 126.612 202.763 130.601C223.019 170.193 249.743 205.849 279.108 239.093C296.547 260.121 316.165 280.404 341.348 291.929C357.173 299.624 375.444 304.589 392.723 299.004C415.903 292.603 426.253 268.614 434.653 248.224C441.104 230.086 445.641 211.238 446.225 191.948C446.952 181.044 446.208 170.122 445.853 159.235C445.357 153.083 446.473 146.399 444.418 140.548C444.382 140.512 444.329 140.459 444.294 140.459C444.276 140.441 444.276 140.424 444.294 140.424C444.613 140.424 444.896 140.707 445.127 140.885C455.317 154.75 455.281 173.225 455.069 189.767C454.927 208.685 451.754 227.143 445.959 245.086C440.111 262.816 432.331 280.759 419.802 294.819C406.28 308.986 385.634 314.854 366.477 312.656Z" fill="black"/>
</g>
</g>
</svg>
