<svg width="617" height="1030" viewBox="0 0 617 1030" fill="none" xmlns="http://www.w3.org/2000/svg">
<g id="Body / Safety Vest">
<path id="Outline" fill-rule="evenodd" clip-rule="evenodd" d="M253.938 9.78008C254.116 9.51312 255.004 8.20142 255.377 8.96367C255.377 9.01693 255.306 8.98205 255.288 8.9998H255.27C259.64 17.5913 257.669 27.3541 257.651 36.6023C257.314 45.691 257.064 54.7979 256.407 63.8865C254.613 81.7975 254.205 100.543 246.514 117.14C244.143 122.274 240.891 127.314 236.919 131.62C237.73 132.018 238.519 132.473 239.284 132.975C243.707 136.011 246.212 140.999 249.907 144.815C273.337 170.111 302.612 184.684 337.109 187.081C362.653 188.181 387.416 183.318 410.189 172.028C415.872 168.912 421.391 165.179 425.897 160.485C419.548 151.996 415.508 142.03 412.429 130.046C405.217 105.673 402.871 79.2768 405.962 54.0701C406.601 51.7802 407.597 49.0816 409.444 47.5018C413.015 52.5786 413.583 58.5435 413.227 64.5789C413.21 92.7855 417.935 121.649 430.618 147.015C432.449 150.27 434.716 153.229 437.259 155.944C437.229 155.806 437.204 155.665 437.19 155.519C436.924 151.33 441.649 149.394 444.971 148.294C449.125 147.042 453.533 148.691 456.478 151.711C456.791 151.855 457.092 152.016 457.371 152.199C487.001 168.033 516.418 184.258 547.096 197.979C554.485 201.299 561.787 204.831 568.732 207.583C570.008 208.153 571.415 208.529 572.719 209.07C573.294 208.928 573.909 208.903 574.575 208.968C582.906 210.512 588.999 217.506 594.115 223.79C606.479 238.754 613.176 257.429 615.183 276.6C618.257 299.677 613.477 321.688 605.342 342.936C600.084 358.344 595.874 373.983 592.872 389.977C590.527 404.995 587.418 419.941 585.251 434.959C584.096 445.805 583.99 456.722 583.439 467.603C582.143 504.473 583.031 541.396 581.503 578.283C579.78 616.998 576.565 655.838 574.38 694.43C573.314 716.388 571.164 738.417 572.372 760.393C574.326 778.34 576.28 796.819 581.627 814.002C584.878 823.25 589.23 832.126 592.019 841.552C596.762 858.628 599.978 876.06 600.528 893.794C601.701 906.202 602.358 918.628 603.157 931.054C603.299 932.615 603.477 934.16 603.565 935.721C603.648 937.567 602.603 939.22 601.117 940.189C603.126 946.93 592.568 952.996 588.484 957.076C580.828 963.484 573.083 969.946 564.841 975.555C534.482 995.401 494.62 1018.76 457.636 1019.38C432.607 1019.01 422.09 1006.44 410.242 986.223C404.149 975.076 399.904 963.005 396.014 950.934C395.167 947.874 393.946 944.804 393.087 941.685C387.548 955.699 380.602 969.111 371.784 981.556C354.268 1006.38 343.523 1018.71 319.673 1023.62C316.884 1025.22 313.292 1025.89 310.321 1026.47C298.633 1028.72 286.696 1029.54 274.83 1028.79C250.263 1027.35 226.37 1019.81 203.366 1011.52C191.909 1007.53 180.593 1003.37 169.437 998.615C152.438 991.657 136.041 983.402 119.485 975.485C105.874 968.88 91.9952 962.784 78.9081 955.318C71.7765 952.762 65.105 949.09 59.5145 943.781C58.5126 942.763 57.2488 941.592 56.0419 940.309C56.003 940.401 55.9661 940.494 55.9266 940.586C55.7681 940.287 55.6153 939.988 55.4667 939.687C53.1947 937.151 51.3287 934.217 52.16 931.16C52.2261 930.97 52.3027 930.79 52.3895 930.621C50.3943 920.961 51.7539 910.682 52.7645 900.859C54.7718 880.587 59.7453 859.569 56.7255 839.244C52.4799 811.144 42.3906 786.025 50.1356 757.357C55.518 733.038 59.9057 708.488 63.494 683.849C65.2703 660.951 62.8186 637.909 61.6639 615.011C60.9945 603.273 60.3242 591.535 59.5878 579.798C59.4334 579.643 59.2831 579.483 59.1415 579.312C58.1424 577.781 58.391 576.11 59.2743 574.862C59.2536 574.541 59.2336 574.219 59.2128 573.898C59.3666 574.056 59.5209 574.212 59.6757 574.368C60.998 572.956 63.1986 572.342 65.0565 573.667V573.649C66.7836 574.368 68.5997 574.834 70.4481 575.097C70.4937 574.711 70.5627 574.327 70.6522 573.951C70.6877 568.945 71.131 563.939 71.202 558.933C71.0954 526.715 68.1297 494.567 66.1757 462.42C65.5717 451.485 64.3459 440.604 63.1024 429.74C62.0899 423.474 62.925 416.976 64.577 410.959C70.8297 418.361 71.1668 428.693 72.4813 437.924C74.1155 448.876 75.1459 459.864 76.034 470.888C77.7926 492.579 79.3913 514.271 81.5585 535.928C82.6598 547.413 83.4243 558.969 83.5487 570.471C83.4351 571.134 83.3745 571.805 83.3368 572.48C84.307 572.14 85.2946 571.836 86.3016 571.572C91.986 569.14 97.0129 565.252 100.903 560.477C111.011 546.436 115.328 529.626 119.2 513.082C128.366 465.828 127.229 417.207 126.394 369.314C123.286 313.025 117.104 252.653 82.8729 205.79C79.6329 201.79 76.1029 197.838 72.2997 194.123C56.2206 201.727 42.2423 213.165 29.369 225.317C24.3139 230.106 19.3509 235.003 14.5057 239.864L14.4833 240.761C13.6003 241.767 12.6414 242.61 11.5419 242.937C10.1131 244.119 8.37056 244.758 6.578 243.548C6.45702 243.459 6.34317 243.369 6.2362 243.278C5.61707 243.607 4.78883 243.726 3.68249 243.547C1.64003 242.996 0.876515 240.902 0.823114 238.968C0.250948 235.101 -0.193688 231.13 0.085809 227.216C0.0882409 227.127 0.0904203 227.039 0.0936215 226.95V226.914C0.253555 219.884 2.35 212.872 3.98425 206.092C6.36455 197.784 9.0465 189.53 12.7235 181.72C15.2058 176.404 18.8394 169.427 23.7284 165.588C23.7476 165.521 23.7691 165.455 23.7919 165.388C24.2537 164.075 25.4435 162.939 27.1132 162.69C34.8937 161.146 42.657 159.584 50.4198 157.88C77.0832 152.253 103.818 146.927 129.931 139.01C150.181 133.613 169.117 128.075 188.533 120.922C189.632 120.443 190.713 120.372 191.688 120.53C192.175 120.21 192.743 120.013 193.364 119.999C195.46 119.857 197.13 121.171 198.569 122.484C203.916 127.206 208.482 132.727 213.136 138.105C213.375 138.396 213.613 138.688 213.851 138.978C217.96 134.691 222.891 131.135 227.719 127.702C238.093 118.684 242.161 104.661 243.973 91.4715C246.69 71.9274 248.431 52.2943 249.568 32.6082C250.439 24.922 248.947 16.3124 253.938 9.78008ZM194.218 129.264C191.535 131.199 188.142 131.82 185.087 133.01C150.661 143.589 115.915 153.389 80.5829 160.454C68.9756 162.618 57.4566 165.206 45.8495 167.352C47.4322 167.908 48.7138 168.416 49.495 168.761C58.0308 172.446 65.8448 177.574 72.8749 183.649C74.0297 184.117 74.9629 184.994 75.5692 186.058C81.6657 191.697 87.1302 198.041 91.9149 204.743C118.88 244.257 129.077 292.789 132.576 339.83C135.17 368.232 135.756 396.793 135.152 425.302C134.409 466.787 133.613 579.32 78.077 583.23C77.4978 583.359 76.8952 583.406 76.2831 583.359C75.9385 583.328 75.6107 583.274 75.2987 583.203C73.7841 583.231 72.2667 583.168 70.8299 583.181C70.1724 583.116 69.4837 583.055 68.7801 582.983C70.3851 614.194 73.671 645.437 73.1571 676.714C72.0202 690.524 68.7163 704.051 66.6024 717.737C64.453 731.21 61.7525 744.56 58.786 757.873C53.0308 779.742 57.1696 796.996 62.1434 818.315C69.924 847.747 66.5673 865.072 62.6415 894.308C61.022 906.14 61.6222 918.45 59.1727 930.114C59.2036 930.149 59.2355 930.183 59.2655 930.22C63.0136 935.598 68.9291 938.882 74.4003 942.29C74.5014 942.353 74.602 942.418 74.703 942.481C76.9105 943.109 79.0278 944.058 80.9735 945.325C99.1102 956.064 118.153 964.994 137 974.313C158.026 984.731 179.58 994.585 201.696 1002.31C223.706 1010.12 246.23 1017.54 269.43 1020C282.983 1021.05 296.679 1021.12 310.126 1018.78C313.82 1017.86 317.605 1017.09 321.254 1017.59C336.29 1010.2 346.479 1000.29 358.94 983.065C377.059 960.095 387.931 932.581 394.859 904.463C401.307 878.528 404.292 852.078 406.619 825.735C411.984 770.547 411.22 714.985 408.413 659.708C404.54 594.401 398.411 528.562 377.361 466.326C355.565 399.013 326.841 333.99 291.491 272.713C269.162 230.784 243.973 191.376 215.444 153.549C209.014 145.383 202.423 137.307 195.052 129.975C194.799 129.702 194.535 129.452 194.266 129.215C194.249 129.231 194.234 129.248 194.218 129.264ZM462.428 164.892C463.311 169.921 463.328 175.221 463.604 180.193C464.528 209.518 463.552 238.897 459.964 268.009C457.53 287.357 453.781 306.493 449.465 325.487C441.791 364.025 430.617 401.711 418.343 439.007C414.364 452.107 410.313 465.172 406.565 478.344C403.999 487.425 401.431 496.676 397.745 505.356C403.433 528.546 407.734 552.061 410.242 575.869C419.71 664.341 423.761 753.949 414.222 842.563C411.159 872.579 406.533 903.454 396.592 932.211C396.671 932.31 396.753 932.407 396.83 932.509C401.502 940.017 403.136 949.692 406.796 957.857C410.917 968.685 415.322 979.496 421.842 989.153C426.549 995.969 431.399 1003.28 438.966 1007.15C455.166 1014.71 473.943 1010.92 490.215 1005.47C519.116 995.49 545.62 979.301 570.01 961.053C577.204 955.248 584.594 949.55 590.953 942.822C592.148 941.628 592.708 939.868 593.887 938.721C593.454 938.055 593.162 937.297 593.05 936.539C592.641 933.095 592.676 929.616 592.534 926.137C592.374 915.379 591.415 905.917 590.634 895.533C590.136 885.681 589.745 875.812 587.684 866.138C585.855 858.078 583.776 849.202 581.236 841.552C577.968 832.002 573.492 822.877 570.632 813.185C566.333 796.002 564.521 778.322 562.549 760.748C561.163 739.677 563.526 718.535 564.574 697.5C567.061 662.601 570.187 627.773 572.266 592.839C574.624 545.916 573.426 498.919 575.415 451.998C575.762 409.383 576.379 366.744 574.397 324.156C572.745 302.358 569.885 280.027 565.835 258.654C563.277 245.873 560.79 232.861 555.123 221.021C553.862 218.873 552.583 215.571 554.804 213.654C556.9 212.642 559.458 214.382 560.417 216.263C566.066 227.997 568.837 240.867 571.359 253.577C574.45 268.701 576.653 283.967 578.536 299.286C582.602 334.049 582.963 369.165 581.228 404.157C583.979 386.688 587.34 369.309 592.766 352.433C603.424 321.529 611.613 300.404 605.094 266.659C601.719 249.298 593.422 232.772 580.384 220.666C579.032 219.573 577.64 218.498 576.118 217.658C574.927 218.941 572.949 219.655 570.668 219.21C541.784 206.89 513.681 192.566 485.846 178.01C477.817 174.032 470.024 169.633 462.428 164.892ZM201.874 1002.36C201.932 1002.38 201.99 1002.4 202.052 1002.43C201.933 1002.39 201.815 1002.35 201.696 1002.31L201.874 1002.36ZM78.5936 829.534C84.9352 832.09 91.3298 835.357 97.7069 838.126C132.204 852.735 166.329 868.978 202.975 877.534C252.288 888.256 302.754 892.782 353.061 893.954C362.068 894.238 371.021 895.321 380.01 895.463C380.827 895.374 381.732 895.515 382.372 895.018V894.966C382.461 894.912 382.407 895.124 382.372 895.16C381.803 895.781 380.898 896.048 380.116 896.297C368.268 899.687 355.744 900.184 343.47 899.935C294.619 898.125 245.573 893.226 197.842 882.575C162.954 873.309 128.456 860.723 97.1561 842.581C90.6548 838.711 84.6331 834.078 78.5936 829.534ZM577.506 840.753C577.186 842.173 576.085 843.256 575.179 844.339C568.855 851.12 560.328 855.238 551.891 858.788C541.499 863.35 530.894 867.45 520.2 871.214C502.49 877.675 484.53 883.445 466.144 887.67C455.096 890.474 443.816 892.676 432.358 892.339C424.951 892.268 417.525 891.504 410.242 890.19C418.307 889.054 426.78 888.167 434.916 886.853C479.059 880.321 521.302 865.214 561.945 847.25C567.043 845.067 572.763 843.984 577.346 840.878C577.381 840.842 577.47 840.7 577.506 840.753ZM70.5448 780.629C109.963 800.989 154.355 808.019 197.396 816.256C256.905 827.474 317.639 827.51 377.982 827.883C381.73 827.741 385.816 828.095 389.28 827.297C386.775 828.894 383.489 829.196 380.611 829.995C365.441 833.421 349.862 834.397 334.354 833.918C288.133 833.705 241.787 831.025 196.259 822.735C159.097 815.777 121.367 807.682 87.2958 790.677C81.6114 787.57 75.8562 784.055 70.5448 780.629ZM561.608 788.085C560.4 790.57 557.327 792.239 555.071 793.889C538.942 804.15 519.65 807.558 501.62 813.168C479.93 819.54 457.316 824.049 434.614 822.682C431.861 822.505 429.161 822.22 426.426 821.954C430.582 821.244 435.112 820.871 439.393 820.161C459.555 816.309 480.321 812.404 499.968 806.706C519.774 801.452 538.675 794.209 558.41 789.381C559.494 788.99 560.72 788.795 561.608 788.085ZM75.6971 661.731C90.8318 665.015 106.215 667.11 121.492 669.684C161.691 676.554 202.157 682.376 242.978 683.619C281.028 685.518 319.096 683.974 357.164 683.513C365.353 683.37 373.791 683.636 381.855 683.565C337.41 691.979 291.935 691.856 246.887 690.222C194.626 688.323 142.098 682.944 91.9686 667.518C86.4974 665.743 80.8308 664.003 75.6971 661.731ZM557.843 670.731C557.896 670.714 557.949 670.625 557.967 670.696C557.505 671.424 556.599 671.867 555.906 672.346C544.679 679.979 530.859 681.382 517.785 683.441C502.011 685.589 486.113 687.116 470.179 686.725C457.531 686.264 444.883 685.553 432.519 684.08C465.826 681.879 499.577 680.175 532.369 673.962C540.718 671.991 549.387 671.495 557.843 670.731ZM277.707 620.797C295.666 618.755 314.14 619.182 332.099 619.75C350.023 620.158 368.249 617.903 385.959 620.921V620.903C385.941 620.885 385.942 620.815 385.977 620.833C386.403 621.135 385.338 621.72 385.249 621.773C377.149 626.264 367.627 626.033 358.639 626.033C347.359 626.14 336.079 626.282 324.781 625.998C309.06 625.341 293.037 623.584 277.707 620.797ZM533.95 612.756C537.84 611.762 540.185 617.211 536.597 619.181C532.973 620.477 528.941 620.602 525.14 621.17C502.597 623.602 479.913 626.086 457.246 624.808C450.265 624.258 443.337 623.212 436.48 621.827C437.351 621.507 438.523 621.418 439.5 621.205C456.411 617.459 474.122 618.596 491.246 617.69C505.51 616.465 519.881 615.507 533.95 612.756ZM118.56 164.554C127.247 166.453 132.399 174.584 137.141 181.418C153.2 206.234 161.087 235.648 169.205 263.677C180.538 301.824 186.844 341.179 193.274 380.391C196.756 400.468 200.416 420.509 203.116 440.692C208.179 480.1 212.992 519.579 214.946 559.288C215.994 573.507 216.759 587.726 217.416 601.963C217.079 608.779 220.436 617.442 214.681 622.59C214.379 622.82 214.396 622.838 214.041 622.625C212.688 621.817 211.781 620.655 211.179 619.321C203.048 621.302 194.637 621.613 186.259 621.613C183.274 621.595 180.308 621.561 177.359 621.543C145.615 621.578 113.818 617.832 83.2108 609.276C81.2392 608.69 79.0011 608.211 77.1893 607.572C78.4327 607.75 79.6766 607.909 80.9022 608.087C105.274 611.566 129.841 614.141 154.462 614.513C168.744 614.744 183.115 615.223 197.344 615.063C201.697 614.908 205.995 615.541 210.275 616.058C210.058 614.552 210.045 613.01 210.097 611.619C209.866 602.424 209.528 593.229 209.138 584.052C207.166 554.283 206.1 524.424 202.37 494.815C198.178 451.289 191.427 408.118 183.7 365.107C177.998 329.197 170.963 292.966 160.376 258.227C154.638 237.654 148.155 217.133 138.651 197.944C134.814 190.435 130.444 183.476 125.275 176.855C122.326 173.199 120.728 168.583 118.56 164.554ZM178.318 160.578C183.754 168.832 188.888 177.246 193.24 186.139C206.687 212.713 215.658 241.24 224.664 269.535C242.801 326.907 254.472 386.054 263.815 445.344C269.979 484.485 273.408 524.017 276.339 563.513C277.12 575.442 277.76 587.301 278.453 599.212C278.862 606.259 277.724 613.377 275.432 620.015C275.415 620.033 275.397 620.033 275.397 620.015C271.934 612.063 270.69 603.383 270.708 594.773C270.388 584.762 269.837 574.768 269.251 564.774C267.315 534.384 264.562 504.012 260.974 473.763C253.815 421.184 244.382 368.782 231.095 317.41C220.525 275.801 206.669 235.186 191.588 195.033C187.662 183.388 182.812 171.868 178.318 160.578ZM508.619 195.672C525.281 197.589 537.841 299.888 540.079 317.96C544.52 358.859 546.065 399.829 547.308 440.888C549.405 498.224 549.174 556.359 538.587 612.808C536.171 588.258 538.178 562.927 540.132 538.519C541.144 520.307 541.482 502.076 541.482 483.846C539.759 406.078 537.93 327.688 522.671 251.18C520.326 239.749 517.856 228.281 514.232 217.186C513.042 213.831 511.781 210.512 510.395 207.246C508.53 203.696 507.305 199.47 508.619 195.672ZM82.5184 598.253C82.7137 598.271 82.9267 598.271 83.1219 598.289V598.483C82.909 598.43 82.7136 598.36 82.5184 598.306C82.4829 598.306 82.5007 598.253 82.5184 598.253ZM230.611 137.318C226.662 140.243 222.247 142.408 217.461 143.416C251.894 186.175 280.254 233.354 306.467 281.482C330.608 323.606 350.68 367.895 368.071 413.196C377.565 437.466 386.056 462.18 393.021 487.293C394.36 477.551 397.998 468.555 401.876 456.686C411.912 424.947 423.05 393.546 431.328 361.274C438.753 328.168 446.374 295.008 450.211 261.245C452.396 241.967 453.426 222.583 453.426 203.199C453.393 195.415 453.69 187.591 453.62 179.785C451.113 180.04 448.388 179.317 446.251 178.293C440.334 174.782 435.415 170.963 431.277 166.751C430.413 167.654 429.518 168.528 428.61 169.383C403.972 191.678 359.35 200.713 326.967 196.648C300.534 193.666 275.149 182.945 254.97 165.584C246.372 158.838 238.325 151.064 232.356 141.887C231.673 140.48 231.032 138.922 230.611 137.318ZM32.1932 172.524L32.1395 172.56L32.1044 172.596L32.0507 172.631L32.0155 172.667L31.9618 172.702L31.9091 172.737L31.8553 172.773L31.8026 172.808L31.7665 172.844L31.7313 172.88L31.6962 172.915L31.66 172.932L31.6249 172.969L31.5887 173.004L31.5184 173.039L31.4823 173.056L31.4471 173.093L31.412 173.11L31.3758 173.128L31.3407 173.145L31.3046 173.163L31.2694 173.181L31.2342 173.199L31.1981 173.217L31.163 173.234L31.1268 173.252L31.0917 173.27L31.0565 173.288L31.0204 173.305L30.9501 173.341L30.9139 173.358L30.8788 173.377L30.8426 173.394L30.7723 173.429L30.7362 173.447L30.701 173.465L30.6649 173.483L30.5946 173.518L30.5585 173.536L30.5233 173.554L30.4882 173.59L30.4344 173.607L30.3993 173.625L30.3456 173.66L30.2928 173.679L30.2391 173.696L30.203 173.731L30.1503 173.749L30.1151 173.767L30.079 173.785L30.0438 173.803L30.0077 173.82L29.9374 173.855L29.9012 173.874L29.8309 173.909L29.7948 173.927L29.7596 173.944L29.7235 173.962L29.6883 173.998L29.6532 174.015L29.6171 174.033L29.5819 174.069L29.5458 174.087L29.5106 174.104L29.4755 174.139L29.4393 174.157L29.4042 174.176L29.369 174.193L29.3329 174.211L29.2977 174.228L29.2616 174.246L29.2264 174.263L29.1913 174.282L29.1551 174.317L29.12 174.335L29.0848 174.371L29.0487 174.406L28.996 174.441L28.9598 174.477L28.9071 174.512L28.871 174.548L28.8182 174.584L28.7821 174.619L28.7294 174.654L28.5516 174.832L28.5165 174.868L28.4803 174.903L28.3739 175.01L28.3387 175.062L28.2313 175.17L28.1962 175.222L27.9833 175.435L27.9471 175.489L27.912 175.542L27.8768 175.596L27.8407 175.648L27.8055 175.702L27.7694 175.755L27.7342 175.808L27.6991 175.861L27.663 175.915L27.6278 175.969L27.5926 176.021L27.5565 176.075L27.5214 176.128L27.4852 176.181L27.4501 176.234L27.4149 176.288L27.3788 176.358L27.3436 176.412L27.3085 176.465L27.2723 176.518L27.2372 176.571L27.201 176.625L27.1659 176.66L27.1307 176.714L27.1122 176.749L27.077 176.785L27.0419 176.855L27.0243 176.891L27.0057 176.927L26.9882 176.962L26.9706 176.998C20.718 185.376 13.5775 206.534 12.4579 210.21C10.2495 217.06 8.83169 224.086 7.99499 231.165C7.95148 232.315 7.922 233.464 7.94128 234.605C8.42181 234.025 8.88769 233.48 9.27819 232.985C13.5058 227.624 18.3195 222.796 23.1688 218.021C34.0047 207.211 45.9064 197.092 58.9628 189.122C60.4855 188.264 62.017 187.348 63.5614 186.46C54.3462 179.279 43.8694 173.92 32.3055 172.411L32.1932 172.524ZM452.893 165.211C452.289 160.329 449.447 153.052 443.567 157.578C442.604 158.673 441.228 158.98 439.999 158.684C441.348 159.95 442.75 161.16 444.19 162.317C447.001 164.598 450.41 166.177 453.182 168.473C453.1 167.385 453.005 166.297 452.893 165.211Z" fill="black"/>
<path id="Skin" d="M412.428 130.028C415.501 142.01 419.551 151.969 425.893 160.454C421.399 165.158 415.874 168.903 410.19 172.01C387.417 183.282 362.654 188.163 337.109 187.045C302.612 184.666 273.355 170.093 249.907 144.797C246.212 140.998 243.725 136.01 239.284 132.957C238.52 132.46 237.739 131.998 236.939 131.608C240.919 127.294 244.169 122.253 246.55 117.123C254.241 100.543 254.65 81.78 256.444 63.869C257.101 54.7981 257.35 45.674 257.688 36.5853C257.688 28.3842 259.251 19.7748 256.551 11.9288L256.586 11.8934L257.226 11.4318L257.918 10.9347L258.682 10.42L259.482 9.88746L260.299 9.35495L261.152 8.84009L262.04 8.32534L262.946 7.81049L263.869 7.33128L264.829 6.85196L265.806 6.39041L266.818 5.92886L267.92 5.46742L269.074 4.9881L270.282 4.50878L271.543 4.04723L272.876 3.60345L274.279 3.15967L275.736 2.73365L277.245 2.34318L278.791 1.97036L280.354 1.63309L281.971 1.33134L283.623 1.06503L285.293 0.816597L286.945 0.621251L288.597 0.443781L290.231 0.301741L291.883 0.195238L293.57 0.106503L295.276 0.0531974L296.999 0.0177686L298.758 0H300.552L302.417 0.0177686L304.353 0.0531974L306.343 0.124272L308.314 0.213006L310.286 0.337278L312.222 0.496979L314.159 0.692325L316.077 0.9231L317.96 1.17154L319.808 1.45562L321.62 1.73959L323.414 2.0591L325.226 2.39638L327.055 2.75142L328.885 3.12424L330.697 3.51471L332.491 3.92307L334.25 4.34908L336.008 4.79286L337.749 5.27207L339.454 5.75139L341.106 6.26614L342.723 6.78099L344.304 7.31351L345.849 7.84602L347.359 8.37854L348.851 8.91116L350.308 9.44368L351.765 9.9762L353.221 10.5087L354.696 11.059L356.17 11.6093L357.609 12.1418L359.012 12.6744L360.345 13.1892L361.606 13.7039L362.778 14.201L363.88 14.6803L364.945 15.1595L365.958 15.6389L366.97 16.1358L367.965 16.6507L368.978 17.1654L370.008 17.6979L371.056 18.2306L372.122 18.7809L373.188 19.3311L374.254 19.8637L375.302 20.3784L376.314 20.8755L377.273 21.3547L378.215 21.834L379.121 22.2956L379.991 22.7394L380.826 23.1654L381.626 23.5736L382.389 23.982L383.136 24.3902L383.864 24.7985L384.574 25.2068L385.267 25.615L385.96 26.0233L386.635 26.4316L387.328 26.8399L388.038 27.2659L388.749 27.6919L389.477 28.1357L390.205 28.5795L390.934 29.0055L391.644 29.4138L392.319 29.8221L392.959 30.1949L393.545 30.5499L394.078 30.8871L394.575 31.2067L395.037 31.5085L395.464 31.7924L395.854 32.0588L396.227 32.3251L396.583 32.5913L396.92 32.8576L397.24 33.1238L397.542 33.3901L397.844 33.6564L398.128 33.9404L398.412 34.2244L398.697 34.5084L398.981 34.7746L399.265 35.0587L399.549 35.3249L399.816 35.5735L400.064 35.822L400.313 36.0706L400.544 36.3013L400.775 36.5321L400.988 36.7451L401.183 36.9581L401.379 37.1534L401.557 37.3486L401.734 37.5438L401.894 37.7214L402.054 37.8989L402.214 38.0765L402.356 38.2539L402.498 38.4492L402.64 38.6445L402.782 38.8398L402.924 39.0528L403.084 39.2658L403.244 39.4788L403.404 39.6918L403.564 39.9048L403.724 40.1178L403.884 40.3308L404.043 40.5438L404.203 40.7569L404.363 40.9699L404.505 41.1829L404.647 41.3782L404.79 41.5734L404.914 41.7686L405.038 41.964L405.163 42.1415L405.287 42.3189L405.393 42.4965L405.518 42.674L405.642 42.8692L405.767 43.0646L405.891 43.2598L406.015 43.455L406.14 43.6503L406.264 43.8456L406.388 44.0409L406.513 44.2361L406.637 44.4313L406.761 44.6267L406.886 44.8219L407.01 45.0172L407.117 45.1947L407.241 45.3722L407.348 45.5497L407.454 45.7095L407.561 45.887L407.667 46.0468L407.756 46.2242L407.863 46.384L407.951 46.5615L408.04 46.7391L408.129 46.9166L408.218 47.0764L408.307 47.2361L408.396 47.4136L408.484 47.5733L408.573 47.7332L408.662 47.8929L408.751 48.0527L408.822 48.1592C407.383 49.7745 406.548 52.0821 405.998 54.088C402.871 79.2593 405.198 105.673 412.428 130.028Z" fill="#B7B5B5"/>
<g id="Clothing 1">
<path id="Vector" d="M126.395 369.298C127.23 417.208 128.367 465.829 119.201 513.065C115.311 529.609 111.012 546.437 100.904 560.461C96.9962 565.236 91.969 569.124 86.2846 571.555C85.2898 571.822 84.3129 572.124 83.3358 572.461C83.3714 571.786 83.4247 571.129 83.549 570.472C83.4247 558.952 82.6608 547.396 81.5595 535.929C79.3923 514.272 77.7936 492.58 76.035 470.888C75.1468 459.864 74.0987 448.859 72.4822 437.924C71.1677 428.676 70.8124 418.344 64.5773 410.96C64.4707 411.368 64.3641 411.776 64.2576 412.202L10.4688 243.654C10.824 243.459 11.1616 243.228 11.4813 242.962C12.6004 242.642 13.5596 241.79 14.4656 240.778L14.5012 239.855C19.3329 234.974 24.3068 230.092 29.3517 225.299C42.2126 213.14 56.2105 201.708 72.2867 194.11C76.0882 197.82 79.6232 201.779 82.8562 205.773C117.105 252.636 123.304 313.008 126.395 369.298Z" fill="white"/>
<path id="Vector_2" d="M453.623 179.767C453.694 187.577 453.392 195.406 453.427 203.198C453.427 222.6 452.397 241.985 450.212 261.245C446.375 295.008 438.754 328.167 431.329 361.273C423.051 393.545 411.913 424.947 401.877 456.686C398.004 468.544 394.363 477.544 393.03 487.289C386.067 462.189 377.576 437.462 368.072 413.196C350.682 367.894 330.608 323.623 306.467 281.481C280.266 233.34 251.897 186.157 217.453 143.394C222.249 142.383 226.655 140.235 230.616 137.306C231.025 138.903 231.682 140.448 232.357 141.868C238.326 151.045 246.355 158.82 254.97 165.566C275.15 182.926 300.552 193.648 326.967 196.63C359.368 200.695 403.991 191.66 428.594 169.364C429.517 168.512 430.405 167.625 431.276 166.72C435.415 170.944 440.335 174.761 446.251 178.276C448.4 179.305 451.118 180.033 453.623 179.767Z" fill="white"/>
</g>
<path id="Clothing 2" fill-rule="evenodd" clip-rule="evenodd" d="M194.323 129.176C194.589 129.424 194.855 129.673 195.122 129.957C202.494 137.288 209.084 145.365 215.514 153.53C244.025 191.358 269.215 230.784 291.544 272.694C326.894 333.954 355.618 398.977 377.414 466.308C398.428 528.561 404.557 594.4 408.429 659.707C411.236 714.984 412 770.547 406.636 825.735C404.308 852.096 401.324 878.545 394.876 904.462C387.966 932.58 377.077 960.094 358.958 983.064C346.488 1000.3 336.291 1010.21 321.227 1017.61C317.586 1017.13 313.802 1017.89 310.125 1018.8C296.678 1021.14 282.982 1021.07 269.428 1020.02C246.353 1017.57 223.935 1010.22 202.05 1002.45C201.925 1002.4 201.819 1002.36 201.695 1002.32C179.579 994.585 158.014 984.751 136.981 974.331C118.134 965.012 99.073 956.1 80.9539 945.343C79.0356 944.1 76.9576 943.159 74.8084 942.538C74.6842 942.449 74.5596 942.379 74.4353 942.29C68.9641 938.9 63.0487 935.597 59.3006 930.219C59.2651 930.183 59.2471 930.148 59.2117 930.13C61.663 918.468 61.0592 906.148 62.6756 894.309C66.6014 865.072 69.958 847.747 62.1775 818.315C57.2037 796.996 53.047 779.724 58.8201 757.872C61.7867 744.559 64.4871 731.21 66.6365 717.736C68.7504 704.05 72.0543 690.523 73.1912 676.713C73.7063 645.453 70.4386 614.21 68.8221 583.004C69.5146 583.075 70.207 583.146 70.8641 583.199C72.2852 583.181 73.7957 583.235 75.2879 583.199C75.6076 583.27 75.963 583.324 76.3182 583.359C76.9574 583.413 77.5789 583.36 78.1648 583.218C133.641 579.241 134.441 466.769 135.205 425.284C135.827 396.776 135.24 368.232 132.629 339.812C129.129 292.772 118.933 244.24 91.9676 204.726C87.1713 197.998 81.6828 191.642 75.5721 185.997C74.9681 184.985 74.0796 184.133 72.9783 183.672C65.9439 177.583 58.1098 172.435 49.5476 168.743C48.7661 168.388 47.4694 167.891 45.8709 167.323C57.4883 165.175 69.0171 162.584 80.6346 160.418C115.967 153.353 150.712 143.554 185.138 132.975C188.176 131.785 191.587 131.163 194.269 129.229C194.287 129.211 194.305 129.193 194.323 129.176ZM462.415 164.927C470 169.649 477.798 174.051 485.809 178.027C513.663 192.601 541.748 206.926 570.632 219.228C572.888 219.671 574.859 218.979 576.05 217.719C577.577 218.553 578.963 219.636 580.313 220.736C593.387 232.807 601.682 249.352 605.057 266.713C611.594 300.458 603.388 321.582 592.729 352.486C587.329 369.279 583.972 386.586 581.236 403.965C582.959 369.03 582.605 333.99 578.555 299.304C576.689 284.002 574.486 268.719 571.378 253.595C568.855 240.885 566.084 228.033 560.435 216.281C559.476 214.4 556.936 212.66 554.822 213.672C552.602 215.607 553.862 218.89 555.141 221.038C560.808 232.878 563.295 245.89 565.853 258.671C569.886 280.043 572.763 302.374 574.415 324.173C576.369 366.474 575.783 408.829 575.428 451.166C573.385 498.384 574.611 545.691 572.23 592.909C570.17 627.826 567.026 662.672 564.556 697.554C563.508 718.606 561.128 739.73 562.531 760.801C564.521 778.357 566.333 796.055 570.614 813.238C573.474 822.93 577.968 832.055 581.219 841.604C583.759 849.255 585.837 858.131 587.667 866.19C589.727 875.865 590.119 885.734 590.616 895.568C591.415 905.971 592.339 915.415 592.516 926.172C592.659 929.633 592.623 933.113 593.032 936.574C593.156 937.337 593.441 938.101 593.885 938.758C592.712 939.894 592.143 941.651 590.935 942.84C584.576 949.568 577.186 955.266 569.992 961.07C545.602 979.301 519.081 995.508 490.197 1005.48C473.925 1010.93 455.149 1014.73 438.93 1007.17C431.363 1003.28 426.514 995.987 421.806 989.171C415.269 979.532 410.882 968.721 406.761 957.893C403.101 949.727 401.449 940.053 396.795 932.544C396.724 932.438 396.635 932.331 396.547 932.242C406.494 903.485 411.113 872.616 414.186 842.599C423.743 753.985 419.693 664.376 410.207 575.904C407.702 552.1 403.403 528.579 397.719 505.378C401.413 496.698 403.99 487.467 406.548 478.396C410.296 465.225 414.346 452.142 418.325 439.06C430.6 401.764 441.755 364.078 449.447 325.54C453.781 306.546 457.529 287.41 459.945 268.062C463.533 238.932 464.51 209.571 463.587 180.246C463.32 175.276 463.303 169.968 462.415 164.927ZM78.5916 829.534C84.6312 834.078 90.6536 838.694 97.1551 842.581C128.455 860.723 162.934 873.308 197.84 882.574C245.589 893.225 294.635 898.125 343.468 899.936C355.742 900.184 368.265 899.687 380.149 896.314C380.913 896.066 381.819 895.799 382.387 895.178C382.423 895.124 382.476 894.929 382.387 894.982V895.019C381.766 895.497 380.86 895.373 380.043 895.462C371.037 895.32 362.084 894.237 353.078 893.953C302.771 892.782 252.303 888.273 202.991 877.533C166.327 868.959 132.221 852.716 97.7059 838.125C91.3287 835.356 84.951 832.09 78.5916 829.534ZM577.507 840.771C577.471 840.7 577.4 840.859 577.346 840.895C572.763 844.001 567.043 845.084 561.945 847.268C521.302 865.232 479.059 880.338 434.916 886.87C426.762 888.184 418.289 889.09 410.242 890.208C417.543 891.522 424.951 892.302 432.358 892.355C443.816 892.693 455.096 890.491 466.145 887.687C484.531 883.462 502.49 877.693 520.2 871.231C530.894 867.468 541.499 863.35 551.89 858.806C560.328 855.255 568.838 851.137 575.18 844.356C576.085 843.274 577.187 842.173 577.507 840.771ZM70.5623 780.646C75.8736 784.072 81.6289 787.606 87.3133 790.694C121.384 807.7 159.098 815.794 196.277 822.753C241.806 831.043 288.152 833.724 334.373 833.937C349.863 834.398 365.441 833.421 380.611 829.995C383.489 829.196 386.775 828.894 389.28 827.297C385.816 828.096 381.731 827.741 378.001 827.9C317.657 827.528 256.922 827.492 197.414 816.273C154.372 808.037 109.962 800.989 70.5623 780.646ZM561.607 788.067C560.719 788.777 559.493 788.972 558.41 789.362C538.675 794.191 519.774 801.433 499.968 806.67C480.321 812.368 459.554 816.274 439.392 820.126C435.129 820.836 430.582 821.209 426.426 821.919C429.161 822.185 431.843 822.469 434.614 822.646C457.316 824.013 479.929 819.505 501.619 813.132C519.649 807.522 538.941 804.131 555.07 793.854C557.344 792.221 560.417 790.552 561.607 788.067ZM75.6961 661.731C80.8297 663.986 86.4964 665.725 91.9676 667.518C142.097 682.926 194.642 688.322 246.886 690.222C291.917 691.855 337.41 691.98 381.855 683.565C373.791 683.636 365.353 683.37 357.164 683.512C319.096 683.973 281.045 685.518 242.977 683.618C202.156 682.376 161.69 676.553 121.491 669.684C106.214 667.11 90.813 665.033 75.6961 661.731ZM557.966 670.714C557.948 670.643 557.895 670.731 557.842 670.749C549.386 671.512 540.717 672.009 532.368 673.979C499.576 680.192 465.825 681.897 432.518 684.098C444.882 685.571 457.512 686.281 470.178 686.742C486.094 687.133 501.992 685.607 517.766 683.477C530.841 681.417 544.661 680.015 555.888 672.382C556.598 671.867 557.504 671.441 557.966 670.714ZM332.098 619.749C314.139 619.181 295.647 618.755 277.706 620.797C293.018 623.566 309.059 625.341 324.78 625.998C336.078 626.264 347.357 626.14 358.655 626.033C367.643 626.051 377.165 626.282 385.248 621.773C385.337 621.72 386.403 621.134 385.976 620.832C385.941 620.832 385.941 620.886 385.959 620.903V620.921C368.248 617.903 350.04 620.157 332.098 619.749ZM536.579 619.182C540.167 617.211 537.822 611.762 533.931 612.756C519.863 615.507 505.492 616.448 491.227 617.69C474.103 618.596 456.392 617.46 439.481 621.205C438.504 621.418 437.332 621.524 436.462 621.844C443.318 623.228 450.264 624.276 457.227 624.826C479.912 626.104 502.579 623.602 525.103 621.188C528.922 620.584 532.937 620.477 536.579 619.182ZM118.596 164.536C120.745 168.566 122.362 173.181 125.31 176.838C130.48 183.459 134.849 190.418 138.686 197.927C148.19 217.134 154.692 237.636 160.412 258.21C170.999 292.949 178.051 329.162 183.735 365.072C191.462 408.101 198.195 451.254 202.405 494.78C206.153 524.389 207.202 554.247 209.174 584.016C209.547 593.211 209.902 602.407 210.133 611.584C210.079 612.986 210.097 614.513 210.328 616.021C206.047 615.507 201.766 614.868 197.396 615.027C183.185 615.187 168.796 614.708 154.514 614.478C129.876 614.105 105.326 611.549 80.9539 608.052C79.7106 607.874 78.4853 607.714 77.242 607.536C79.0539 608.175 81.2918 608.655 83.2635 609.241C113.87 617.797 145.65 621.56 177.412 621.507C180.361 621.507 183.345 621.56 186.311 621.56C194.696 621.56 203.116 621.259 211.252 619.271C211.856 620.602 212.761 621.773 214.111 622.59C214.395 622.838 214.378 622.821 214.716 622.572C220.471 617.424 217.114 608.762 217.451 601.945C216.776 587.709 216.048 573.489 214.982 559.271C213.028 519.561 208.214 480.082 203.151 440.675C200.451 420.474 196.792 400.451 193.31 380.374C186.88 341.161 180.591 301.824 169.24 263.659C161.122 235.63 153.217 206.234 137.177 181.4C132.434 174.566 127.282 166.436 118.596 164.536ZM178.3 160.596C182.812 171.885 187.661 183.406 191.569 195.051C206.651 235.204 220.524 275.819 231.076 317.428C244.381 368.782 253.814 421.202 260.955 473.781C264.543 504.029 267.296 534.384 269.232 564.792C269.818 574.786 270.37 584.797 270.689 594.791C270.671 603.418 271.915 612.098 275.379 620.033H275.415C277.706 613.394 278.843 606.276 278.434 599.229C277.759 587.301 277.119 575.46 276.32 563.531C273.389 524.035 269.961 484.503 263.797 445.361C254.471 386.072 242.782 326.925 224.645 269.553C215.657 241.257 206.669 212.731 193.221 186.157C188.869 177.282 183.735 168.85 178.3 160.596ZM508.618 195.672C507.321 199.471 508.529 203.696 510.394 207.246C511.78 210.512 513.059 213.832 514.231 217.187C517.855 228.299 520.343 239.748 522.67 251.18C537.929 327.705 539.758 406.078 541.481 483.846C541.481 502.076 541.126 520.307 540.132 538.52C538.178 562.927 536.17 588.259 538.586 612.809C549.173 556.36 549.404 498.224 547.307 440.888C546.064 399.829 544.519 358.859 540.078 317.96C537.822 299.888 525.263 197.589 508.618 195.672ZM82.5174 598.234C82.4819 598.234 82.4819 598.27 82.5174 598.288C82.7127 598.377 82.908 598.43 83.1033 598.466C83.1033 598.395 83.1041 598.342 83.1219 598.271C82.9087 598.271 82.7128 598.252 82.5174 598.234ZM32.1932 172.329C43.8817 173.927 54.3625 179.287 63.5818 186.459C62.0365 187.347 60.5089 188.27 58.9812 189.122C45.9249 197.075 34.0046 207.192 23.1687 218.021C18.3192 222.796 13.5059 227.624 9.27812 232.985C8.88732 233.465 8.42552 234.015 7.96367 234.583C7.9459 233.412 7.9807 232.24 8.03398 231.068C8.03398 231.068 8.03398 231.068 8.03398 231.05C8.86888 223.932 10.2901 216.849 12.5105 209.979C13.6119 206.305 20.7704 185.145 27.0232 176.767L27.0418 176.731L27.0594 176.696L27.0769 176.66L27.0945 176.625L27.1121 176.589L27.1307 176.554L27.1658 176.519L27.1834 176.482L27.2195 176.43L27.2547 176.395L27.2898 176.341L27.326 176.287L27.3611 176.234L27.3973 176.181L27.4324 176.128L27.4676 176.057L27.5037 176.004L27.5389 175.95L27.574 175.897L27.6102 175.844L27.6453 175.79L27.6814 175.737L27.7166 175.684L27.7518 175.631L27.7879 175.577L27.823 175.524L27.8582 175.471L27.8943 175.418L27.9295 175.364L27.9656 175.312L28.0008 175.258L28.0359 175.205L28.1961 175.045L28.2498 174.992L28.285 174.938L28.3387 174.886L28.3914 174.832L28.4266 174.778L28.4627 174.743L28.6756 174.53L28.7117 174.495L28.7469 174.459L28.782 174.424L28.8357 174.389L28.8709 174.353L28.9246 174.317L28.9598 174.281L29.0135 174.246L29.0486 174.211L29.1023 174.175L29.1375 174.14L29.1736 174.104L29.2088 174.087L29.2439 174.051L29.2801 174.033L29.3504 173.998L29.3865 173.979L29.4217 173.962L29.4578 173.944L29.5281 173.909L29.5643 173.873L29.6346 173.838L29.6707 173.803L29.7059 173.784L29.742 173.767L29.7771 173.731L29.8123 173.714L29.8484 173.696L29.8836 173.678L29.9187 173.66L29.9549 173.643L29.99 173.625L30.0262 173.607L30.0613 173.59L30.0965 173.571L30.1326 173.554L30.2029 173.519L30.2566 173.501L30.2928 173.465L30.3455 173.447L30.3992 173.43L30.4519 173.395L30.4881 173.376L30.5408 173.358L30.5769 173.323L30.6473 173.288L30.6834 173.27L30.7537 173.234L30.7898 173.217L30.825 173.199L30.8611 173.181L30.9314 173.146L30.9676 173.128L31.0379 173.093L31.074 173.074L31.1092 173.057L31.1453 173.039L31.2156 173.004L31.2518 172.986L31.2869 172.968L31.3221 172.95L31.3582 172.933L31.3934 172.915L31.4295 172.897L31.4646 172.879L31.4998 172.861L31.5359 172.826L31.5711 172.809L31.6072 172.791L31.6424 172.772L31.6775 172.737L31.7137 172.702L31.7488 172.684L31.784 172.648L31.8201 172.613L31.8553 172.577L31.909 172.542L31.9617 172.507L32.0154 172.471L32.0691 172.436L32.1043 172.4L32.157 172.364L32.1932 172.329ZM443.549 157.578C449.446 153.052 452.289 160.329 452.875 165.211C452.981 166.294 453.088 167.377 453.159 168.46C450.37 166.152 446.977 164.572 444.152 162.3C442.713 161.146 441.328 159.957 439.978 158.679C441.204 158.98 442.572 158.679 443.549 157.578Z" fill="#E2E2E2"/>
</g>
</svg>
