<svg width="586" height="931" viewBox="0 0 586 931" fill="none" xmlns="http://www.w3.org/2000/svg">
<g id="Body / Shirt Collar">
<path id="Skin" d="M404.19 90.4496V90.5382V90.627V90.7156L404.172 90.8042V90.8929L404.154 90.9815L404.136 91.0702L404.119 91.1589L404.083 91.2652L404.048 91.3716L404.012 91.478L403.977 91.5844L403.941 91.6908L403.906 91.8149L403.853 91.939L403.8 92.0631L403.747 92.1873L403.676 92.329L403.605 92.4709L403.534 92.6128L403.463 92.7723L403.374 92.9319L403.286 93.0914L403.197 93.2688L403.109 93.446L403.002 93.641L402.896 93.8362L402.79 94.0312L402.666 94.2439L402.541 94.4567L402.417 94.6694L402.293 94.8999L402.169 95.1304L402.045 95.3787L401.904 95.6268L401.762 95.8751L401.638 96.212L401.478 96.4957L401.319 96.7794L401.159 97.0631L401 97.3645L400.84 97.6659L400.663 97.985L400.486 98.3041L400.309 98.6233L400.131 98.9601L399.936 99.297L399.741 99.6339L399.546 99.9885L399.352 100.343L399.157 100.698L398.944 101.07L398.731 101.442L398.519 101.815L398.306 102.187L398.093 102.577L397.881 102.967L397.668 103.375L397.438 103.783L397.207 104.191L396.977 104.598L396.746 105.024L396.516 105.432L396.286 105.857L396.055 106.283L395.807 106.708L395.559 107.134L395.311 107.577L395.063 108.02L394.815 108.464L394.567 108.907L394.319 109.35L394.07 109.793L393.822 110.254L393.574 110.715L393.326 111.176L393.06 111.637L392.812 112.098L392.546 112.577L392.28 113.056L392.015 113.535L391.749 114.013L391.483 114.492L391.217 114.971L390.951 115.449L390.686 115.928L390.402 116.407L390.136 116.886L389.853 117.364L389.569 117.843L389.286 118.322L389.002 118.8L388.718 119.279L388.435 119.758L388.151 120.237L387.868 120.715L387.584 121.194L387.301 121.673L387.017 122.151L386.734 122.63L386.45 123.109L386.167 123.588L385.883 124.066L385.599 124.545L385.316 125.024L385.015 125.502L384.731 125.981L384.43 126.46L384.128 126.939L383.827 127.417L383.526 127.896L383.225 128.375L382.923 128.854L382.622 129.332L382.303 129.811L382.002 130.29L381.683 130.768L381.364 131.247L381.045 131.726L380.726 132.204L380.407 132.683L380.088 133.162L379.769 133.641L379.45 134.119L379.131 134.598L378.812 135.077L378.493 135.556L378.174 136.034L377.855 136.513L377.536 136.992L377.217 137.47L376.88 137.967L376.544 138.446L376.207 138.942L375.87 139.421L375.533 139.917L375.197 140.396L374.86 140.892L374.523 141.371L374.187 141.868L373.85 142.346L373.495 142.843L373.159 143.321L372.804 143.8L372.467 144.279L372.113 144.758L371.759 145.236L371.404 145.715L371.05 146.194L370.695 146.673L370.341 147.151L369.986 147.63L369.632 148.109L369.278 148.587L368.923 149.066L368.569 149.545L368.214 150.024L367.86 150.484L367.505 150.945L367.169 151.406L366.832 151.867L366.495 152.311L366.159 152.754L365.822 153.197L365.485 153.641L365.148 154.084L364.812 154.527L364.493 154.97L364.156 155.396L363.819 155.821L363.5 156.247L363.181 156.672L362.862 157.098L362.543 157.523L362.224 157.931L361.905 158.339L361.586 158.747L361.267 159.155L360.948 159.562L360.647 159.952L360.346 160.342L360.045 160.733L359.743 161.123L359.46 161.513L359.158 161.885L358.875 162.257L358.591 162.63L358.308 163.002L358.024 163.374L357.741 163.747L357.457 164.119L357.174 164.474L356.89 164.828L356.624 165.183L356.358 165.538L356.093 165.892L355.827 166.229L355.561 166.566L355.313 166.903L355.065 167.222L354.817 167.541L354.568 167.86L354.32 168.162L354.09 168.463L353.86 168.747L353.629 169.03L353.399 169.296L353.186 169.562L352.973 169.828L352.761 170.077L352.548 170.325L352.353 170.573L352.141 170.803L351.946 171.016L351.751 171.229L351.556 171.442L351.361 171.637L351.184 171.832L351.006 172.027L350.829 172.204L350.67 172.364L350.51 172.523L350.351 172.683L350.191 172.825L350.049 172.967L349.908 173.108L349.766 173.232L349.642 173.357L349.518 173.481L349.394 173.605L349.27 173.711L349.146 173.818L349.039 173.924L348.915 174.013L348.809 174.101L348.703 174.19L348.596 174.279L348.49 174.367L348.401 174.456L348.313 174.527L348.224 174.598L348.135 174.669L348.047 174.74L347.958 174.811L347.87 174.864L347.799 174.917L347.71 174.97L347.639 175.023L347.568 175.059L347.497 175.112L347.427 175.147L347.356 175.183L347.285 175.218L347.214 175.254L347.143 175.289L347.072 175.325L347.001 175.36L346.93 175.396L346.86 175.431L346.789 175.467L346.718 175.502L346.647 175.537L346.576 175.555L346.505 175.591L346.434 175.608L346.346 175.626L346.275 175.644L346.204 175.662L346.115 175.679L346.027 175.697L345.938 175.715L345.849 175.733L345.761 175.75L345.672 175.768L345.584 175.786H345.495H345.406H345.318H345.229H345.123H345.034H344.928H344.821H344.715H344.609H344.485H344.378H344.254H344.13H344.006H343.882H343.758H343.634H343.492H343.351H343.209H343.067H342.925H342.766H342.606H342.447H342.287H342.128H341.951H341.773H341.596H341.419H341.242H341.047H340.852H340.657H340.462H340.267H340.072H339.877H339.664H339.452H339.239H339.026H338.814H338.601H338.371H338.14H337.839H337.609H337.361H337.113L336.864 175.768L336.616 175.75L336.368 175.733L336.12 175.715L335.872 175.697L335.624 175.679L335.376 175.644L335.128 175.608L334.862 175.573L334.596 175.537L334.33 175.502L334.064 175.467L333.798 175.431L333.533 175.396L333.267 175.36L333.001 175.325L332.735 175.289L332.469 175.254L332.204 175.218L331.938 175.165L331.672 175.13L331.406 175.077L331.14 175.023L330.874 174.97L330.609 174.917L330.343 174.864L330.077 174.793L329.811 174.74L329.545 174.669L329.279 174.598L329.031 174.527L328.783 174.456L328.535 174.385L328.287 174.314L328.039 174.243L327.791 174.172L327.543 174.101L327.312 174.03L327.082 173.959L326.852 173.888L326.621 173.818L326.408 173.747L326.196 173.676L325.983 173.605L325.771 173.534L325.576 173.463L325.381 173.392L325.186 173.321L324.991 173.25L324.796 173.179L324.619 173.108L324.441 173.037L324.264 172.967L324.105 172.896L323.945 172.825L323.786 172.771L323.626 172.701L323.467 172.647L323.325 172.594L323.183 172.541L323.041 172.488L322.917 172.435L322.793 172.381L322.669 172.328L322.545 172.275L322.439 172.222L322.332 172.169L322.226 172.115L322.138 172.062L322.049 172.009L321.96 171.956L321.872 171.903L321.801 171.85L321.73 171.796L321.659 171.743L321.588 171.69L321.517 171.619L321.446 171.566L321.376 171.495L321.322 171.442L321.269 171.371L321.216 171.3L321.163 171.229L321.11 171.158L321.074 171.087L321.021 171.016L320.986 170.928L320.932 170.839L320.897 170.75L320.862 170.662L320.826 170.573L320.791 170.467L320.755 170.378L320.72 170.272L320.667 170.165L320.631 170.041L320.578 169.917L320.543 169.793L320.489 169.669L320.436 169.545L320.383 169.403L320.33 169.261L320.259 169.101L320.206 168.942L320.135 168.782L320.064 168.623L319.993 168.463L319.922 168.304L319.851 168.126L319.781 167.949L319.692 167.772L319.621 167.594L319.532 167.399L319.444 167.204L319.355 167.009L319.267 166.814L319.178 166.619L319.089 166.406L318.983 166.194L318.877 165.981L318.77 165.768L318.664 165.555L318.54 165.342L318.416 165.13L318.292 164.899L318.168 164.669L318.044 164.438L317.92 164.208L317.796 163.977L317.672 163.747L317.53 163.516L317.388 163.286L317.246 163.055L317.105 162.825L316.963 162.594L316.803 162.364L316.644 162.116L316.484 161.885L316.325 161.637L316.165 161.389L316.006 161.14L315.829 160.892L315.651 160.644L315.474 160.396L315.279 160.147L315.084 159.899L314.889 159.651L314.694 159.403L314.499 159.155L314.287 158.906L314.074 158.658L313.861 158.41L313.649 158.162L313.418 157.913L313.206 157.665L312.975 157.417L312.745 157.169L312.497 156.921L312.249 156.655L312.001 156.406L311.753 156.158L311.504 155.892L311.239 155.626L310.973 155.36L310.707 155.094L310.441 154.828L310.158 154.563L309.874 154.297L309.59 154.031L309.307 153.747L309.023 153.481L308.74 153.197L308.456 152.931L308.155 152.648L307.854 152.364L307.552 152.08L307.251 151.797L306.95 151.513L306.631 151.229L306.312 150.945L305.993 150.644L305.674 150.36L305.355 150.059L305.036 149.758L304.717 149.456L304.38 149.137L304.044 148.818L303.707 148.499L303.37 148.18L303.016 147.86L302.679 147.541L302.325 147.204L301.97 146.885L301.616 146.548L301.261 146.211L300.907 145.875L300.552 145.538L300.198 145.201L299.843 144.846L299.471 144.492L299.099 144.137L298.727 143.782L298.355 143.428L297.983 143.073L297.611 142.719L297.238 142.364L296.866 142.009L296.476 141.655L296.104 141.3L295.714 140.946L295.324 140.591L294.935 140.236L294.545 139.882L294.155 139.527L293.765 139.173L293.375 138.818L292.967 138.463L292.578 138.109L292.17 137.754L291.762 137.4L291.355 137.045L290.947 136.69L290.54 136.336L290.132 135.981L289.724 135.627L289.317 135.272L288.909 134.917L288.484 134.563L288.076 134.208L287.651 133.854L287.226 133.499L286.8 133.144L286.375 132.772L285.95 132.417L285.524 132.063L285.099 131.708L284.674 131.353L284.248 130.999L283.823 130.644L283.398 130.29L282.972 129.935L282.547 129.58L282.122 129.226L281.696 128.871L281.271 128.517L280.846 128.162L280.42 127.807L279.995 127.453L279.57 127.098L279.144 126.744L278.719 126.389L278.294 126.034L277.868 125.68L277.461 125.325L277.036 124.971L276.628 124.616L276.22 124.261L275.813 123.907L275.405 123.552L274.997 123.198L274.59 122.843L274.182 122.506L273.775 122.151L273.367 121.815L272.977 121.478L272.57 121.141L272.18 120.804L271.79 120.467L271.4 120.13L271.01 119.793L270.62 119.456L270.248 119.137L269.876 118.8L269.504 118.463L269.132 118.144L268.759 117.825L268.405 117.506L268.033 117.187L267.678 116.868L267.324 116.549L266.97 116.23L266.615 115.91L266.278 115.591L265.924 115.29L265.587 114.988L265.25 114.687L264.914 114.386L264.595 114.084L264.258 113.783L263.939 113.481L263.62 113.18L263.301 112.896L262.982 112.595L262.663 112.311L262.344 112.027L262.025 111.744L261.724 111.46L261.423 111.176L261.121 110.893L260.82 110.609L260.519 110.325L260.218 110.059L259.934 109.776L259.65 109.51L259.367 109.244L259.083 108.978L258.8 108.712L258.516 108.446L258.233 108.18L257.949 107.914L257.683 107.648L257.4 107.4L257.134 107.152L256.868 106.903L256.602 106.655L256.336 106.407L256.071 106.159L255.822 105.911L255.574 105.662L255.326 105.414L255.078 105.166L254.83 104.918L254.582 104.669L254.334 104.421L254.086 104.173L253.838 103.925L253.59 103.676L253.359 103.428L253.111 103.18L252.881 102.932L252.65 102.684L252.42 102.435L252.189 102.187L251.959 101.939L251.729 101.691L251.498 101.442L251.268 101.194L251.038 100.946L250.825 100.698L250.595 100.45L250.364 100.201L250.134 99.953L249.921 99.7049L249.708 99.4566L249.478 99.2084L249.265 98.9601L249.053 98.712L248.822 98.4638L248.61 98.2155L248.397 97.9672L248.184 97.7191L247.972 97.4709L247.759 97.2226L247.546 96.9744L247.334 96.7262L247.121 96.478L246.908 96.2297L246.696 95.9637L246.483 95.7156L246.27 95.4496L246.058 95.2013L245.845 94.9354L245.632 94.6694L245.42 94.4035L245.207 94.1376L244.994 93.8716L244.782 93.6057L244.569 93.3397L244.356 93.0738L244.144 92.8078L243.931 92.5418L243.718 92.2759L243.506 92.0099L243.293 91.744L243.081 91.478L242.868 91.212L242.655 90.9461L242.442 90.6801L242.248 90.4142L242.035 90.1482L241.84 89.8822L241.645 89.6163L241.45 89.3503L241.255 89.0844L241.06 88.8185L240.865 88.5525L240.67 88.2866L240.475 88.0206L240.28 87.7547L240.103 87.4887L239.926 87.2227L239.749 86.9568L239.572 86.6908L239.412 86.4249L239.253 86.1589L239.093 85.8929L238.934 85.6448L238.774 85.3965L238.615 85.1483L238.455 84.9L238.296 84.6519L238.154 84.4036L238.012 84.1554L237.87 83.9071L237.729 83.6589L237.587 83.4107L237.445 83.1625L237.321 82.9142L237.197 82.666L237.073 82.4178L236.949 82.1696L236.825 81.9213L236.701 81.6731L236.577 81.4249L236.452 81.1944L236.328 80.9462L236.204 80.7157L236.08 80.4852L235.956 80.2547L235.832 80.0242L235.708 79.7937L235.584 79.5809L235.46 79.3504L235.336 79.1199L235.212 78.9072L235.088 78.6944L234.982 78.4816L234.858 78.2689L234.751 78.0561L234.645 77.8434L234.539 77.6306L234.432 77.4179L234.326 77.2051L234.22 76.9924L234.113 76.7796L234.007 76.5845L233.918 76.3717L233.812 76.159L233.723 75.964L233.635 75.769L233.546 75.5738L233.457 75.3788L233.369 75.1838L233.28 74.9888L233.192 74.7937L233.121 74.5987L233.032 74.4037L232.961 74.2087L232.89 74.0137L232.82 73.8186L232.749 73.6236L232.678 73.4286L232.607 73.2335L232.536 73.0384L232.483 72.8434L232.43 72.6484L232.376 72.4534L232.323 72.2583L232.27 72.0633L232.217 71.8683L232.182 71.6733L232.146 71.4781L232.111 71.2831L232.075 71.1059L232.04 70.9109L232.004 70.7335L231.969 70.5562L231.933 70.3789L231.898 70.2016L231.863 70.0244L231.827 69.8647L231.792 69.7051L231.756 69.5456L231.739 69.386L231.703 69.2265L231.685 69.0668L231.668 68.925L231.65 68.7655L231.632 68.6236L231.614 68.4817L231.597 68.34L231.579 68.1981L231.561 68.074V67.9498L231.544 67.8257L231.526 67.7016V67.5776L231.508 67.4534V67.3471L231.49 67.2407V67.1343V67.0279L231.473 66.9216V66.8328V66.7264V66.6378V66.5492V66.4605V66.3718V66.2832V66.1945V66.1059V66.0173V65.9286V65.8577V65.7868V65.7158V65.6449V65.574V65.503V65.4322V65.3613V65.2903L231.49 65.2194V65.1485L231.508 65.0775L231.526 65.0066L231.544 64.9357L231.561 64.8648L231.579 64.7939L231.597 64.7053L231.632 64.6165L231.668 64.5279L231.703 64.4393L231.739 64.3506L231.774 64.262L231.809 64.1555L231.508 63.7655L231.561 63.6591L231.614 63.535L231.668 63.4109L231.721 63.2868L231.792 63.145L231.863 63.0031L231.933 62.8435L232.004 62.684L232.075 62.5244L232.164 62.3648L232.252 62.1875L232.341 62.0102L232.43 61.8152L232.518 61.6201L232.607 61.4251L232.695 61.2123L232.784 60.9996L232.89 60.7868L232.997 60.5741L233.103 60.3436L233.209 60.1131L233.316 59.8826L233.422 59.6521L233.528 59.4038L233.635 59.1557L233.741 58.9074L233.847 58.6592L233.954 58.3932L234.06 58.1273L234.166 57.8613L234.273 57.5954L234.379 57.3116L234.503 57.028L234.609 56.7443L234.734 56.4606L234.84 56.1769L234.964 55.8932L235.088 55.5919L235.212 55.2904L235.336 54.989L235.46 54.6698L235.584 54.3685L235.708 54.0493L235.832 53.7302L235.956 53.4109L236.08 53.0918L236.204 52.7727L236.328 52.4358L236.452 52.0989L236.577 51.762L236.701 51.4252L236.825 51.0706L236.949 50.716L237.073 50.3614L237.197 50.0068L237.321 49.6345L237.445 49.2621L237.569 48.8897L237.693 48.5175L237.817 48.1273L237.941 47.7373L238.065 47.3472L238.172 46.9394L238.296 46.5317L238.42 46.1238L238.526 45.716L238.65 45.2905L238.756 44.865L238.88 44.4394L238.987 44.0139L239.093 43.5706L239.199 43.1274L239.306 42.6841L239.412 42.2409L239.518 41.7976L239.625 41.3366L239.731 40.8757L239.837 40.4147L239.944 39.9537L240.05 39.4749L240.139 38.9963L240.227 38.5353L240.316 38.0565L240.405 37.5778L240.493 37.0991L240.582 36.6381L240.67 36.1771L240.741 35.7161L240.812 35.2551L240.883 34.8119L240.954 34.3686L241.025 33.9253L241.078 33.4998L241.131 33.0921L241.184 32.6842L241.237 32.2764L241.273 31.8687L241.308 31.4786L241.344 31.1063L241.379 30.7339L241.415 30.3793L241.45 30.0247L241.468 29.6701L241.486 29.3333L241.503 28.9964L241.521 28.6772V28.3581V28.0389V27.7375V27.4361V27.1347V26.851V26.5673L241.503 26.2836L241.486 26.0177L241.468 25.7694L241.45 25.5212L241.432 25.2729L241.415 25.0424L241.379 24.812L241.361 24.5992L241.344 24.3864L241.308 24.1737L241.273 23.9787L241.255 23.7837L241.22 23.6063L241.184 23.429L241.149 23.2694L241.113 23.1099L241.078 22.9503L241.06 22.8085L241.326 17.7553L241.361 17.7199L241.698 17.4362L242.354 16.8865L243.134 16.2483L243.949 15.61L244.782 14.9716L245.615 14.3689L246.43 13.8015L247.245 13.2696L248.078 12.7553L248.929 12.2589L249.797 11.7802L250.701 11.3014L251.622 10.8405L252.579 10.3973L253.536 9.97167L254.529 9.54616L255.557 9.12065L256.62 8.71288L257.719 8.30501L258.853 7.89725L260.04 7.48949L261.245 7.08172L262.486 6.67385L263.744 6.30159L265.002 5.92921L266.296 5.59233L267.607 5.2732L268.937 4.95406L270.283 4.65257L271.648 4.36893L273.03 4.10293L274.448 3.85479L275.901 3.60654L277.39 3.37604L278.914 3.14554L280.438 2.93278L281.962 2.73777L283.522 2.54266L285.063 2.3654L286.588 2.20589L288.076 2.04627L289.547 1.90439L290.983 1.78027L292.4 1.65614L293.8 1.54976L295.218 1.44339L296.671 1.35476L298.16 1.26613L299.666 1.19524L301.173 1.142L302.679 1.10651L304.168 1.08887H305.621L307.056 1.10651L308.456 1.142L309.821 1.19524L311.185 1.26613L312.568 1.33701L313.95 1.42575L315.35 1.53213L316.768 1.65614L318.203 1.79802L319.656 1.93989L321.127 2.0994L322.616 2.27677L324.105 2.47178L325.593 2.66678L327.064 2.87954L328.517 3.11004L329.953 3.35829L331.371 3.64204L332.771 3.96117L334.171 4.29805L335.535 4.65257L336.9 5.02495L338.229 5.39732L339.54 5.76959L340.834 6.14196L342.092 6.51434L343.315 6.88661L344.485 7.25898L345.619 7.63136L346.7 7.98588L347.746 8.35825L348.756 8.73063L349.73 9.1029L350.687 9.47527L351.609 9.86529L352.513 10.2554L353.399 10.6632L354.285 11.071L355.153 11.4966L356.004 11.9221L356.837 12.3653L357.652 12.8086L358.432 13.2518L359.194 13.6951L359.921 14.1384L360.629 14.5816L361.32 15.0249L361.994 15.4681L362.667 15.9114L363.323 16.3546L363.943 16.7802L364.546 17.1879L365.148 17.5958L365.733 18.0036L366.3 18.3936L366.867 18.7837L367.435 19.1561L368.019 19.5283L368.622 19.9007L369.224 20.273L369.827 20.6454L370.43 21L371.014 21.3546L371.581 21.6915L372.131 22.0106L372.663 22.3298L373.159 22.6311L373.637 22.9149L374.098 23.1985L374.541 23.4823L374.966 23.7482L375.392 24.0142L375.799 24.28L376.207 24.5638L376.614 24.8297L377.004 25.0957L377.394 25.3617L377.766 25.6098L378.138 25.8581L378.493 26.1063L378.847 26.3368L379.184 26.5673L379.503 26.7801L379.822 26.9928L380.123 27.2056L380.425 27.4183L380.726 27.6311L381.027 27.8439L381.346 28.0566L381.665 28.2694L382.002 28.4999L382.356 28.7304L382.711 28.9609L383.065 29.1914L383.42 29.4041L383.756 29.6169L384.075 29.8296L384.394 30.0424L384.713 30.2375L385.015 30.4325L385.298 30.6098L385.564 30.7872L385.812 30.9467L386.06 31.1063L386.291 31.2481L386.503 31.3899L386.698 31.514L386.893 31.6382L387.07 31.7623L387.248 31.8864L387.407 31.9928L387.567 32.0992L387.708 32.2056L387.85 32.2942L387.974 32.3828L388.098 32.4714L388.222 32.5602L388.346 32.6488L388.47 32.7374L388.577 32.8083L388.683 32.8971L388.772 32.9679L388.86 33.0388L388.949 33.1098L389.037 33.1807L389.126 33.2516L389.197 33.3226L389.268 33.3935L389.339 33.4643L389.41 33.5353L389.48 33.6062L389.551 33.6772L389.622 33.7481L389.693 33.819L389.764 33.89L389.835 33.9608L389.888 34.0317L389.941 34.1027L389.994 34.1736L390.048 34.2445L390.101 34.3155L390.154 34.3864L390.207 34.4396L390.26 34.5105L390.296 34.5814L390.349 34.6346L390.384 34.7055L390.42 34.7587L390.455 34.8119L390.491 34.8829L390.526 34.936L390.561 34.9892L390.597 35.0424L390.632 35.0956L390.668 35.1487L390.703 35.202L390.739 35.2551L390.774 35.3084L390.81 35.3615L390.845 35.4147L390.88 35.4679L390.916 35.5211L390.951 35.5743L390.987 35.6275L391.022 35.6806L391.058 35.7339L391.093 35.787L391.129 35.8403L391.164 35.8935L391.199 35.9466L391.235 35.9999L391.27 36.053L391.306 36.1062L391.341 36.1771L391.377 36.248L391.412 36.319L391.448 36.3899L391.483 36.4608L391.518 36.5318L391.554 36.6026L391.589 36.6735L391.625 36.7445L391.66 36.8154L391.696 36.8864L391.731 36.9573L391.767 37.0282L391.802 37.0991L391.837 37.17L391.873 37.2409L391.908 37.3119L391.944 37.3828L391.979 37.4537L392.015 37.5247L392.05 37.5955L392.086 37.6665L392.121 37.7197L392.157 37.7905L392.192 37.8615L392.227 37.9147L392.263 37.9857L392.298 38.0565L392.334 38.1274L392.369 38.1984L392.405 38.287L392.44 38.4289L392.475 38.6062L392.493 38.8189L392.511 39.0672L392.529 39.3508V39.67V40.0246V40.397V40.787V41.1948V41.6381V42.0814V42.56L392.511 43.0388L392.493 43.5353L392.475 44.0494L392.458 44.5635L392.44 45.0954L392.422 45.6274L392.405 46.1593L392.387 46.7089L392.369 47.2586L392.351 47.8082L392.334 48.3756V48.943V49.5104V50.0777V50.645V51.2124V51.7798V52.3472V52.9146L392.351 53.4819L392.369 54.0493L392.387 54.6167L392.405 55.184L392.422 55.7336L392.44 56.2834L392.475 56.833L392.511 57.3826L392.546 57.9323L392.582 58.4819L392.617 59.0315L392.653 59.5634L392.688 60.1131L392.724 60.645L392.759 61.1768L392.794 61.7088L392.83 62.2407L392.865 62.7549L392.901 63.2868L392.954 63.801L393.007 64.3151L393.06 64.8293L393.113 65.3258L393.184 65.8222L393.255 66.3009L393.326 66.7797L393.397 67.2583L393.486 67.7371L393.574 68.1981L393.663 68.6591L393.751 69.1201L393.858 69.5634L393.964 70.0066L394.07 70.4499L394.194 70.8931L394.319 71.3364L394.443 71.7619L394.567 72.1874L394.691 72.5952L394.832 73.003L394.974 73.4108L395.116 73.8186L395.275 74.2087L395.417 74.5987L395.577 74.9888L395.736 75.3611L395.896 75.7335L396.055 76.1058L396.215 76.4781L396.374 76.8327L396.534 77.1874L396.693 77.542L396.853 77.8965L397.012 78.2334L397.172 78.5703L397.349 78.8895L397.526 79.2086L397.686 79.5278L397.863 79.8469L398.04 80.166L398.217 80.4674L398.395 80.7689L398.572 81.0526L398.749 81.3362L398.926 81.6199L399.103 81.9036L399.281 82.1873L399.458 82.4532L399.635 82.7192L399.795 82.9675L399.972 83.2156L400.131 83.4639L400.291 83.7121L400.45 83.9604L400.61 84.1909L400.769 84.4214L400.929 84.6341L401.088 84.8469L401.248 85.0596L401.39 85.2724L401.531 85.4674L401.673 85.6624L401.815 85.8575L401.957 86.0525L402.081 86.2298L402.205 86.4072L402.329 86.5844L402.453 86.7617L402.577 86.9213L402.701 87.0809L402.807 87.2404L402.914 87.4L403.02 87.5596L403.109 87.7014L403.197 87.8433L403.286 87.9851L403.374 88.1269L403.463 88.2511L403.552 88.3752L403.622 88.4993L403.693 88.6234L403.764 88.7476L403.835 88.8716L403.888 88.9957L403.941 89.1198L403.995 89.2262L404.048 89.3503L404.083 89.4567L404.119 89.5631L404.154 89.6695L404.19 89.7758L404.225 89.8822L404.243 89.9886L404.26 90.095L404.278 90.2014L404.296 90.2901V90.3787V90.4674L404.19 90.4496Z" fill="#B7B5B5"/>
<path id="Clothing 1" d="M581.8 806.151V806.913L581.782 807.658L581.765 808.385L581.729 809.094L581.676 809.768L581.605 810.424L581.516 811.08L581.428 811.718L581.322 812.339L581.215 812.942L581.091 813.544L580.967 814.129L580.843 814.697L580.701 815.264L580.56 815.814L580.418 816.346L580.258 816.878L580.099 817.41L579.939 817.924L579.78 818.438L579.62 818.952L579.443 819.449L579.248 819.963L579.053 820.477L578.84 820.991L578.628 821.505L578.415 822.02L578.185 822.534L577.954 823.03L577.706 823.527L577.476 824.005L577.246 824.466L577.015 824.91L576.802 825.353L576.59 825.778L576.377 826.186L576.164 826.594L575.952 826.984L575.739 827.374L575.526 827.764L575.314 828.154L575.101 828.544L574.888 828.934L574.676 829.324L574.463 829.714L574.251 830.104L574.038 830.477L573.843 830.849L573.648 831.221L573.453 831.594L573.258 831.948L573.063 832.303L572.886 832.64L572.726 832.959L572.567 833.278L572.407 833.58L572.266 833.863L572.124 834.147L572 834.413L571.876 834.661L571.769 834.91L571.663 835.158L571.575 835.424L571.486 835.69L571.38 835.973L571.291 836.275L571.185 836.594L571.078 836.931L570.954 837.285L570.83 837.675L570.706 838.083L570.564 838.526L570.423 839.005L570.263 839.519L570.104 840.051L569.944 840.619L569.785 841.204L569.625 841.824L569.466 842.462L569.324 843.101L569.2 843.775L569.076 844.466L568.952 845.175L568.828 845.92L568.721 846.7L568.615 847.516L568.509 848.402L568.402 849.377L568.296 850.441L568.19 851.594L568.065 852.87L567.942 854.289L567.818 855.849L567.693 857.551L567.569 859.413L567.445 861.452L567.321 863.615L567.197 865.902L567.091 868.207L567.002 870.352L566.949 871.771V872.178V872.196L566.86 872.249L566.772 872.285L566.683 872.338L566.595 872.391L566.506 872.444L566.417 872.498L566.329 872.551L566.24 872.604L566.152 872.657L566.063 872.71L565.957 872.781L565.85 872.834L565.744 872.905L565.638 872.977L565.514 873.047L565.39 873.118L565.266 873.189L565.141 873.26L565 873.331L564.858 873.402L564.698 873.49L564.539 873.579L564.379 873.668L564.22 873.757L564.043 873.845L563.848 873.934L563.653 874.023L563.44 874.129L563.227 874.235L562.997 874.342L562.749 874.466L562.483 874.59L562.2 874.714L561.916 874.856L561.597 874.998L561.278 875.157L560.924 875.317L560.552 875.494L560.162 875.672L559.772 875.867L559.382 876.062L558.992 876.239L558.602 876.434L558.23 876.611L557.858 876.789L557.486 876.966L557.113 877.161L556.724 877.356L556.316 877.551L555.908 877.746L555.465 877.959L555.022 878.171L554.544 878.402L554.048 878.65L553.534 878.916L553.002 879.182L552.453 879.466L551.903 879.732L551.354 879.998L550.822 880.246L550.291 880.494L549.777 880.725L549.298 880.937L548.82 881.132L548.377 881.327L547.951 881.505L547.544 881.664L547.136 881.824L546.728 881.983L546.321 882.143L545.913 882.303L545.506 882.462L545.08 882.622L544.637 882.781L544.194 882.941L543.716 883.118L543.22 883.295L542.706 883.473L542.174 883.65L541.642 883.845L541.075 884.04L540.508 884.235L539.941 884.412L539.374 884.59L538.807 884.749L538.275 884.909L537.744 885.068L537.23 885.21L536.733 885.37L536.255 885.512L535.776 885.671L535.298 885.831L534.802 885.99L534.27 886.185L533.721 886.38L533.136 886.593L532.498 886.824L531.824 887.072L531.116 887.338L530.354 887.622L529.556 887.923L528.723 888.242L527.855 888.561L526.969 888.88L526.083 889.2L525.179 889.519L524.293 889.82L523.407 890.104L522.556 890.388L521.723 890.654L520.908 890.902L520.11 891.15L519.313 891.398L518.515 891.647L517.7 891.895L516.885 892.143L516.052 892.391L515.201 892.657L514.351 892.923L513.518 893.189L512.685 893.455L511.852 893.721L511.037 893.987L510.222 894.253L509.424 894.519L508.627 894.785L507.829 895.051L507.032 895.317L506.216 895.6L505.401 895.884L504.586 896.168L503.771 896.451L502.938 896.735L502.123 897.019L501.307 897.302L500.475 897.586L499.659 897.87L498.844 898.153L498.029 898.419L497.214 898.703L496.398 898.969L495.566 899.235L494.715 899.519L493.847 899.802L492.943 900.086L492.003 900.37L491.064 900.654L490.09 900.919L489.115 901.185L488.122 901.434L487.112 901.682L486.102 901.93L485.074 902.161L484.029 902.391L482.965 902.622L481.867 902.852L480.75 903.083L479.616 903.313L478.482 903.561L477.348 903.81L476.213 904.058L475.079 904.306L473.963 904.554L472.864 904.802L471.747 905.068L470.631 905.334L469.514 905.618L468.38 905.902L467.211 906.203L466.041 906.505L464.854 906.824L463.649 907.143L462.443 907.462L461.238 907.781L460.033 908.1L458.846 908.419L457.659 908.738L456.489 909.058L455.355 909.341L454.256 909.625L453.193 909.891L452.165 910.139L451.19 910.37L450.233 910.582L449.312 910.777L448.39 910.972L447.486 911.167L446.582 911.345L445.661 911.54L444.739 911.717L443.8 911.894L442.843 912.072L441.868 912.249L440.894 912.409L439.919 912.568L438.944 912.71L437.97 912.852L437.013 912.976L436.056 913.082L435.116 913.189L434.195 913.277L433.273 913.366L432.352 913.455L431.448 913.526L430.562 913.597L429.676 913.667L428.79 913.738L427.904 913.809L427 913.88L426.096 913.951L425.175 914.022L424.253 914.093L423.296 914.164L422.321 914.235L421.329 914.306L420.319 914.377L419.309 914.448L418.298 914.501L417.288 914.572L416.278 914.625L415.286 914.678L414.311 914.731L413.354 914.784L412.397 914.838L411.422 914.873L410.465 914.909L409.491 914.944L408.481 914.979L407.47 915.015L406.425 915.05L405.344 915.086L404.245 915.121L403.111 915.157L401.941 915.21L400.736 915.263L399.496 915.316L398.237 915.387L396.979 915.458L395.721 915.529L394.463 915.6L393.222 915.689L391.999 915.76L390.776 915.831L389.571 915.901L388.366 915.972L387.161 916.026L385.974 916.061L384.769 916.096L383.546 916.132L382.288 916.167L380.994 916.203L379.665 916.239L378.318 916.274L376.918 916.309L375.5 916.345L374.083 916.38L372.665 916.416L371.247 916.451L369.847 916.487L368.447 916.522L367.065 916.557L365.7 916.593L364.336 916.629L362.971 916.682L361.606 916.753L360.224 916.824L358.824 916.895L357.424 916.983L355.988 917.072L354.518 917.178L353.011 917.285L351.469 917.391L349.91 917.497L348.333 917.604L346.755 917.692L345.16 917.781L343.565 917.87L341.988 917.941L340.411 918.012L338.834 918.082L337.274 918.153L335.715 918.224L334.173 918.295L332.613 918.366L331.072 918.437L329.548 918.526L328.023 918.614L326.517 918.703L324.993 918.827L323.469 918.951L321.927 919.075L320.385 919.217L318.844 919.359L317.284 919.519L315.742 919.66L314.183 919.802L312.641 919.944L311.099 920.068L309.557 920.175L308.033 920.263L306.509 920.352L304.967 920.423L303.443 920.476L301.937 920.511L300.448 920.529H298.977L297.506 920.511L296.036 920.476L294.565 920.441L293.076 920.405L291.552 920.37L289.992 920.334L288.397 920.316H286.767H285.137L283.489 920.334L281.84 920.352L280.192 920.387L278.544 920.423L276.878 920.458L275.212 920.494L273.547 920.529L271.881 920.565L270.233 920.582H268.584H266.954L265.341 920.565L263.746 920.547L262.151 920.529L260.592 920.494L259.032 920.458L257.455 920.423L255.86 920.387L254.248 920.37H252.635L250.987 920.387L249.321 920.423L247.655 920.476L246.007 920.547L244.394 920.618L242.799 920.706L241.222 920.795L239.645 920.866L238.068 920.937L236.508 920.99L234.948 921.026H233.407L231.883 920.99L230.376 920.919L228.87 920.831L227.399 920.706L225.928 920.582L224.475 920.423L223.039 920.263L221.604 920.104L220.168 919.944L218.715 919.785L217.244 919.643L215.756 919.501L214.267 919.377L212.743 919.27L211.219 919.164L209.713 919.075L208.189 918.987L206.647 918.88L205.123 918.756L203.581 918.632L202.057 918.49L200.533 918.331L199.026 918.153L197.538 917.958L196.067 917.746L194.596 917.533L193.125 917.32L191.636 917.107L190.13 916.877L188.606 916.646L187.046 916.398L185.451 916.15L183.821 915.901L182.137 915.653L180.383 915.405L178.593 915.174L176.785 914.962L174.96 914.767L173.117 914.589L171.292 914.43L169.466 914.306L167.659 914.199L165.886 914.093L164.114 914.004L162.378 913.916L160.676 913.845L158.975 913.756L157.291 913.667L155.626 913.579L153.96 913.472L152.312 913.348L150.699 913.224L149.086 913.082L147.491 912.923L145.879 912.763L144.266 912.604L142.618 912.444L140.97 912.267L139.304 912.089L137.638 911.93L135.954 911.77L134.253 911.611L132.516 911.451L130.726 911.292L128.866 911.114L126.934 910.902L124.914 910.671L122.769 910.405L120.483 910.086L118.02 909.714L115.326 909.253L112.313 908.703L108.929 908.029L105.048 907.196L100.528 906.185L95.2473 904.944L89.0801 903.437L81.9914 901.646L74.0343 899.59L65.7936 897.426L59.4847 895.724L57.3049 895.104L57.234 895.086L57.1276 894.927L57.039 894.767L56.9682 894.59L56.8972 894.43L56.8264 894.271L56.7555 894.093L56.6846 893.898L56.6137 893.703L56.5429 893.508L56.4719 893.295L56.4011 893.083L56.3302 892.852L56.2415 892.622L56.1707 892.373L56.0998 892.125L56.0289 891.877L55.958 891.611L55.8872 891.345L55.8162 891.061L55.7454 890.778L55.6745 890.476L55.6036 890.157L55.5327 889.838L55.4618 889.501L55.3909 889.147L55.3201 888.774L55.2491 888.384L55.1783 887.976L55.1074 887.533L55.0365 887.09L54.9656 886.629L54.877 886.15L54.8061 885.671L54.7352 885.193L54.6644 884.714L54.5934 884.235L54.5226 883.756L54.4517 883.278L54.3985 882.817L54.3454 882.373L54.2922 881.93L54.239 881.487L54.1859 881.044L54.1326 880.583L54.0795 880.104L54.0263 879.625L53.9732 879.147L53.92 878.668L53.8846 878.189L53.8491 877.71L53.8137 877.25L53.7783 876.789L53.7428 876.345L53.7073 875.902L53.672 875.477L53.6365 875.069L53.6187 874.661L53.601 874.253L53.5833 873.845L53.5656 873.438L53.5479 873.03V872.604V872.161V871.717V871.257V870.796V870.317L53.5656 869.838L53.5833 869.359L53.6187 868.898L53.6542 868.437L53.6896 867.994L53.7251 867.551L53.7783 867.108L53.8314 866.682L53.9024 866.257L53.9555 865.849L54.0263 865.441L54.0973 865.033L54.1681 864.608L54.239 864.182L54.3099 863.774L54.3985 863.349L54.4871 862.923L54.5757 862.498L54.6644 862.072L54.753 861.647L54.8416 861.221L54.9301 860.813L55.0365 860.406L55.1251 860.016L55.2138 859.643L55.3023 859.289L55.3909 858.934L55.4795 858.597L55.5681 858.278L55.6568 857.959L55.7454 857.64L55.834 857.32L55.9226 857.001L56.0112 856.682L56.0998 856.345L56.1884 856.008L56.2948 855.672L56.4011 855.317L56.5074 854.962L56.6315 854.608L56.7555 854.235L56.8796 853.863L57.0037 853.491L57.1276 853.118L57.2517 852.746L57.3758 852.374L57.4998 852.001L57.6239 851.629L57.748 851.275L57.872 850.92L57.9961 850.565L58.1201 850.211L58.2441 849.856L58.3682 849.502L58.4922 849.147L58.6163 848.81L58.7404 848.473L58.8467 848.154L58.953 847.817L59.0771 847.498L59.1834 847.179L59.2898 846.86L59.3961 846.541L59.5024 846.221L59.6265 845.92L59.7328 845.618L59.8391 845.317L59.9632 844.998L60.0873 844.679L60.2113 844.36L60.3353 844.04L60.4593 843.721L60.5834 843.384L60.7075 843.03L60.8493 842.675L60.9911 842.321L61.1328 841.948L61.2746 841.576L61.4164 841.204L61.5581 840.831L61.6999 840.441L61.8417 840.051L61.9835 839.661L62.1429 839.253L62.2847 838.846L62.4265 838.438L62.586 838.012L62.7455 837.569L62.905 837.126L63.0468 836.683L63.2063 836.239L63.348 835.796L63.5076 835.335L63.6494 834.892L63.7911 834.431L63.9329 833.988L64.0569 833.544L64.181 833.101L64.3051 832.658L64.4114 832.214L64.5177 831.771L64.624 831.328L64.7126 830.885L64.8012 830.441L64.8898 830.016L64.9785 829.59L65.0671 829.147L65.1557 828.721L65.2443 828.296L65.3328 827.87L65.4038 827.445L65.4747 827.019L65.5455 826.594L65.6165 826.186L65.6873 825.778L65.7582 825.371L65.8291 824.963L65.8822 824.555L65.9354 824.147L65.9885 823.739L66.0418 823.349L66.0772 822.942L66.1126 822.551L66.1481 822.161L66.1836 821.789L66.2189 821.417L66.2544 821.044L66.2722 820.69L66.2899 820.335L66.3076 819.981L66.3253 819.644V819.307V818.97V818.633V818.314V817.977V817.64V817.285L66.3076 816.931L66.2899 816.558L66.2722 816.168L66.2544 815.761L66.2367 815.335L66.2189 814.892L66.1836 814.431L66.1658 813.952L66.1303 813.473L66.0949 812.995L66.0595 812.516L66.024 812.037L65.9885 811.559L65.9532 811.098L65.9177 810.654L65.8646 810.229L65.8291 809.821L65.7759 809.413L65.7228 809.023L65.6696 808.651L65.6165 808.279L65.5455 807.888L65.4747 807.498L65.4038 807.091L65.3328 806.683L65.262 806.24L65.1912 805.796L65.1025 805.335L65.0139 804.857L64.9253 804.36L64.8367 803.846L64.7481 803.332L64.6594 802.818L64.5708 802.303L64.4822 801.771L64.3759 801.239L64.2873 800.69L64.181 800.123L64.0569 799.537L63.9329 798.935L63.8088 798.314L63.6847 797.676L63.5429 797.02L63.4012 796.346L63.2417 795.655L63.0822 794.945L62.905 794.218L62.7278 793.491L62.5505 792.765L62.3733 792.02L62.1962 791.293L62.0189 790.566L61.8417 789.857L61.6644 789.165L61.505 788.474L61.3277 787.8L61.1683 787.126L60.9911 786.452L60.8138 785.814L60.6366 785.176L60.4593 784.538L60.2822 783.917L60.105 783.296L59.91 782.658L59.7151 781.984L59.5024 781.311L59.2898 780.619L59.0771 779.946L58.8644 779.272L58.6518 778.598L58.4214 777.924L58.191 777.268L57.9606 776.63L57.7302 776.009L57.5176 775.406L57.3049 774.821L57.0923 774.254L56.8796 773.687L56.667 773.137L56.4542 772.57L56.2415 772.002L56.0289 771.435L55.8162 770.85L55.5858 770.247L55.3554 769.626L55.1251 768.988L54.877 768.332L54.6289 767.658L54.363 766.985L54.0973 766.311L53.8491 765.655L53.5833 765.017L53.3352 764.396L53.0871 763.811L52.8567 763.244L52.6441 762.711L52.4492 762.198L52.2719 761.719L52.0947 761.24L51.9352 760.761L51.7757 760.282L51.6162 759.804L51.4744 759.325L51.3327 758.846L51.1909 758.35L51.0491 757.836L50.9074 757.322L50.7656 756.807L50.6415 756.293L50.5174 755.779L50.3934 755.265L50.2693 754.768L50.1452 754.272L50.0389 753.793L49.9326 753.315L49.8263 752.818L49.7199 752.322L49.6136 751.808L49.525 751.293L49.4187 750.761L49.3301 750.229L49.2415 749.68L49.1528 749.112L49.0642 748.545L48.9756 747.96L48.8871 747.357L48.7985 746.754L48.7098 746.151L48.6212 745.549L48.5326 744.946L48.444 744.343L48.3554 743.758L48.2667 743.173L48.1959 742.588L48.125 742.02L48.0541 741.453L47.9832 740.886L47.9124 740.318L47.8414 739.751L47.7706 739.183L47.6997 738.616L47.6465 738.049L47.5757 737.481L47.5224 736.914L47.4693 736.347L47.3984 735.762L47.3275 735.159L47.2567 734.556L47.1857 733.935L47.1149 733.315L47.0439 732.694L46.9731 732.074L46.9022 731.453L46.849 730.832L46.7959 730.212L46.7604 729.609L46.7249 729.006L46.7072 728.403L46.6896 727.801V727.198V726.595L46.7072 725.992L46.7249 725.389L46.7427 724.769L46.7781 724.13L46.8136 723.457L46.849 722.765L46.8845 722.038L46.92 721.276L46.9553 720.478L46.9908 719.627L47.0085 718.74L47.0263 717.836L47.0439 716.914L47.0794 715.957L47.0971 714.982L47.1326 713.971L47.168 712.925L47.2035 711.879L47.2389 710.815L47.292 709.733L47.363 708.652L47.4338 707.57L47.5047 706.56L47.5579 705.709L47.5933 705.212V705.141L52.9453 685.319L52.9808 684.964L53.0339 684.592L53.0871 684.184L53.158 683.741L53.2289 683.262L53.2998 682.766L53.3706 682.234L53.4593 681.684L53.5479 681.099L53.6365 680.514L53.7251 679.911L53.8314 679.308L53.9377 678.688L54.0441 678.067L54.1681 677.429L54.2922 676.79L54.4163 676.152L54.5403 675.514L54.6644 674.876L54.7707 674.237L54.8948 673.599L55.0011 672.943L55.1074 672.269L55.2138 671.578L55.3201 670.869L55.4264 670.159L55.5327 669.432L55.6391 668.688L55.7454 667.943L55.8517 667.181L55.958 666.418L56.0644 665.674L56.153 664.947L56.2415 664.237L56.3302 663.546L56.4011 662.872L56.4719 662.216L56.5429 661.578L56.6137 660.975L56.667 660.372L56.7201 659.787L56.7555 659.202L56.7909 658.617L56.8264 658.014L56.8619 657.429L56.8972 656.826L56.9327 656.223L56.9682 655.621L57.0037 655L57.039 654.379L57.0745 653.759L57.11 653.156L57.1631 652.553L57.2163 651.968L57.2694 651.383L57.3227 650.815L57.3758 650.266L57.429 649.734L57.4821 649.202L57.5353 648.688L57.5707 648.174L57.6062 647.659L57.6416 647.163L57.677 646.667L57.7125 646.152L57.748 645.638L57.7833 645.124L57.8011 644.61L57.8188 644.096L57.8365 643.582L57.8543 643.067L57.872 642.571L57.8898 642.075L57.9074 641.596L57.9251 641.117L57.9429 640.638L57.9606 640.177L57.9784 639.734L57.9961 639.291L58.0137 638.848L58.0315 638.404L58.0492 637.961L58.0669 637.518L58.0847 637.075L58.1024 636.631L58.1201 636.17L58.1378 635.691L58.1555 635.195L58.1733 634.681L58.191 634.167L58.2087 633.653L58.2264 633.121L58.2441 632.589L58.2796 632.057L58.3151 631.525L58.3504 631.011L58.3859 630.497L58.4214 630L58.4568 629.521L58.4922 629.043L58.5277 628.582L58.5631 628.121L58.5986 627.678L58.6341 627.234L58.6694 626.791L58.7049 626.348L58.7404 625.905L58.7759 625.461L58.8112 625L58.8467 624.539L58.8822 624.06L58.8998 623.564L58.9176 623.068L58.9353 622.553L58.953 622.039L58.9708 621.507L58.9885 620.958L59.0061 620.408L59.0416 619.841L59.0771 619.273L59.1125 618.706L59.1479 618.139L59.1834 617.571L59.2365 617.004L59.2898 616.436L59.3429 615.887L59.3961 615.337L59.4492 614.788L59.5201 614.22L59.5733 613.671L59.6265 613.121L59.6796 612.554L59.7328 611.986L59.7859 611.401L59.8391 610.798L59.8922 610.178L59.9454 609.539L59.9986 608.883L60.0518 608.209L60.105 607.536L60.1581 606.844L60.2113 606.153L60.2644 605.461L60.3176 604.77L60.3885 604.061L60.4593 603.351L60.5303 602.642L60.6012 601.933L60.672 601.224L60.743 600.515L60.8138 599.788L60.8847 599.061L60.9556 598.334L61.0265 597.607L61.0974 596.88L61.1683 596.135L61.2214 595.391L61.2923 594.628L61.3454 593.866L61.3987 593.103L61.4695 592.323L61.5227 591.561L61.5758 590.781L61.629 590.001L61.6822 589.22L61.7354 588.458L61.7885 587.713L61.8594 586.969L61.9125 586.224L61.9658 585.497L62.0189 584.77L62.0721 584.043L62.1252 583.334L62.1784 582.607L62.2138 581.88L62.2493 581.153L62.2847 580.426L62.3202 579.681L62.3379 578.937L62.3556 578.174L62.3733 577.394L62.3911 576.614L62.4088 575.816L62.4265 575.018L62.4442 574.203L62.4619 573.387L62.4797 572.589L62.4974 571.792L62.5329 570.994L62.5682 570.214L62.6037 569.451L62.6392 568.689L62.6746 567.926L62.7101 567.182L62.7455 566.437L62.7809 565.71L62.8164 564.983L62.8519 564.238L62.8872 563.494L62.9227 562.731L62.9582 561.969L62.9936 561.207L63.029 560.426L63.0645 559.646L63.0999 558.848L63.1354 558.051L63.1708 557.253L63.2063 556.455L63.2417 555.675L63.2772 554.912L63.3126 554.15L63.348 553.387L63.3657 552.643L63.4012 551.916L63.4366 551.189L63.4721 550.462L63.4898 549.735L63.5253 549.026L63.5429 548.317L63.5784 547.607L63.5961 546.916L63.6139 546.224L63.6316 545.533L63.6494 544.841L63.667 544.168L63.6847 543.494V542.82V542.164V541.508V540.852V540.196V539.522V538.849V538.175V537.483V536.792V536.1L63.7025 535.409V534.717L63.7202 534.026L63.7379 533.334L63.7557 532.643L63.7733 531.952L63.7911 531.278L63.8088 530.604L63.8265 529.93L63.8443 529.274V528.601V527.945V527.289V526.633V525.976V525.32V524.646V523.973V523.299V522.625V521.952V521.278V520.604V519.93V519.257V518.583V517.927V517.271V516.615V515.959V515.303V514.647V513.991L63.8265 513.317L63.8088 512.643L63.7911 511.934L63.7733 511.207L63.7379 510.48L63.7025 509.735L63.667 508.973L63.6316 508.211L63.5961 507.448L63.5607 506.686L63.5253 505.923L63.4898 505.161L63.4543 504.416L63.419 503.689L63.3835 502.962L63.348 502.253L63.3126 501.562L63.2772 500.87L63.2417 500.179L63.2063 499.487L63.1708 498.778L63.1354 498.051L63.0999 497.306L63.0645 496.544L63.029 495.764L62.9936 494.966L62.9582 494.15L62.9227 493.335L62.8872 492.519L62.8341 491.704L62.7809 490.888L62.7278 490.09L62.6746 489.31L62.6215 488.548L62.5682 487.803L62.5151 487.076L62.4619 486.367L62.4088 485.675L62.3556 485.002L62.2847 484.328L62.2315 483.672L62.1607 482.998L62.0898 482.324L62.0189 481.633L61.948 480.941L61.8772 480.232L61.8062 479.505L61.7354 478.778L61.6644 478.034L61.5936 477.307L61.5227 476.58L61.4518 475.853L61.3809 475.126L61.3101 474.417L61.2391 473.707L61.1505 473.016L61.0797 472.342L61.0087 471.669L60.9379 470.995L60.867 470.321L60.7961 469.665L60.7252 469.009L60.6544 468.353L60.5834 467.697L60.5126 467.058L60.4416 466.42L60.3708 465.782L60.2999 465.144L60.229 464.505L60.1581 463.867L60.0873 463.229L60.0163 462.59L59.9454 461.97L59.8746 461.349L59.8036 460.729L59.7328 460.108L59.6619 459.488L59.591 458.867L59.5201 458.247L59.4492 457.626L59.3783 457.005L59.3252 456.403L59.272 455.8L59.2012 455.197L59.1479 454.612L59.0948 454.009L59.0416 453.424L58.9885 452.821L58.9353 452.236L58.8822 451.651L58.829 451.066L58.7759 450.481L58.7226 449.913L58.6694 449.346L58.6163 448.779L58.5631 448.211L58.51 447.644L58.4568 447.076L58.4214 446.509L58.3859 445.942L58.3504 445.374L58.3151 444.807L58.2796 444.24L58.2441 443.672L58.2087 443.105L58.1733 442.538L58.1378 441.97L58.1024 441.42L58.0669 440.871L58.0315 440.321L57.9961 439.771L57.9606 439.204L57.9251 438.637L57.8898 438.069L57.8543 437.502L57.8188 436.935L57.7833 436.367L57.748 435.8L57.7125 435.233L57.677 434.665L57.6416 434.116L57.6062 433.566L57.5707 433.034L57.5353 432.502L57.4998 431.988L57.4644 431.474L57.429 430.96L57.3935 430.463L57.358 429.967L57.3227 429.47L57.2872 428.974L57.2517 428.477L57.234 427.981L57.1986 427.484L57.1631 426.97L57.1276 426.456L57.11 425.942L57.0745 425.428L57.039 424.896L57.0213 424.382L56.9859 423.85L56.9505 423.318L56.915 422.786L56.8796 422.254L56.8441 421.722L56.8087 421.208L56.7733 420.694L56.7378 420.18L56.7023 419.665L56.667 419.151L56.6315 418.637L56.5783 418.123L56.5429 417.609L56.5074 417.095L56.4542 416.563L56.4188 416.031L56.3833 415.481L56.3302 414.914L56.2948 414.346L56.2593 413.779L56.2239 413.211L56.1884 412.644L56.153 412.094L56.1176 411.563L56.0821 411.031L56.0466 410.516L56.0112 410.002L55.9935 409.506L55.958 409.027L55.9403 408.548L55.9048 408.07L55.8695 407.591L55.834 407.112L55.7985 406.634L55.7631 406.155L55.7276 405.658L55.6922 405.144L55.6391 404.63L55.5858 404.116L55.5327 403.602L55.4795 403.088L55.4264 402.573L55.3732 402.077L55.3201 401.598L55.2669 401.137L55.2138 400.676L55.1783 400.233L55.1428 399.807L55.0897 399.4L55.0542 398.992L55.0187 398.584L54.9656 398.176L54.9301 397.768L54.877 397.361L54.8238 396.953L54.7707 396.527L54.7175 396.102L54.6644 395.658L54.6112 395.215L54.5581 394.772L54.5048 394.329L54.4694 393.885L54.434 393.442L54.3985 392.999L54.363 392.556L54.3277 392.13L54.2922 391.722L54.2567 391.315L54.239 390.907L54.2036 390.517L54.1859 390.127L54.1681 389.737L54.1504 389.347L54.1326 388.974L54.115 388.602L54.0973 388.212L54.0795 387.804L54.0441 387.396L54.0087 386.971L53.9732 386.527L53.9377 386.084L53.9024 385.623L53.8669 385.144L53.8314 384.666L53.7959 384.187L53.7783 383.708L53.7606 383.23L53.7428 382.751L53.7251 382.272L53.7073 381.793V381.315L53.6896 380.836V380.375V379.914V379.453V379.01V378.549V378.106L53.672 377.645L53.6542 377.166L53.6365 376.687L53.601 376.173L53.5656 375.641L53.5302 375.091L53.4947 374.506L53.4416 373.904L53.3884 373.265L53.3352 372.609L53.2643 371.935L53.1934 371.244L53.1226 370.535L53.0516 369.825L52.9808 369.116L52.8922 368.407L52.8035 367.698L52.7149 367.006L52.6263 366.333L52.5377 365.659L52.4492 364.985L52.3605 364.311L52.2719 363.638L52.1655 362.946L52.0592 362.255L51.9529 361.528L51.8466 360.783L51.7225 360.021L51.5984 359.241L51.4744 358.443L51.3504 357.645L51.2263 356.847L51.12 356.049L51.0137 355.251L50.9074 354.453L50.801 353.655L50.6946 352.84L50.5883 352.024L50.4819 351.209L50.3756 350.375L50.2693 349.524L50.1452 348.673L50.0213 347.787L49.8972 346.9L49.7731 346.014L49.6491 345.109L49.525 344.187L49.4009 343.265L49.2769 342.326L49.1528 341.386L49.0289 340.429L48.8871 339.453L48.7452 338.478L48.6034 337.503L48.4617 336.528L48.3199 335.553L48.1604 334.578L48.001 333.585L47.8237 332.574L47.6288 331.563L47.4338 330.517L47.2212 329.436L46.9908 328.301L46.7427 327.131L46.4592 325.907L46.1756 324.631L45.8566 323.319L45.5376 321.971L45.2009 320.606L44.8642 319.205L44.5097 317.787L44.1554 316.351L43.8009 314.915L43.4464 313.461L43.092 312.007L42.7553 310.571L42.4185 309.152L42.0818 307.752L41.7451 306.333L41.3906 304.897L41.0363 303.443L40.6818 301.971L40.3096 300.482L39.9375 298.957L39.5476 297.379L39.14 295.784L38.7324 294.17L38.3248 292.557L37.8995 290.943L37.4742 289.348L37.0489 287.77L36.6236 286.209L36.1805 284.667L35.7375 283.142L35.3298 281.848L34.869 280.358L34.4084 278.851L33.9298 277.326L33.4513 275.784L32.9728 274.241L32.4944 272.699L32.0158 271.139L31.5373 269.578L31.0589 268.036L30.5626 266.511L30.0842 265.004L29.6057 263.55L29.1272 262.114L28.6488 260.695L28.1702 259.295L27.6917 257.894L27.1956 256.493L26.6993 255.075L26.1854 253.621L25.6714 252.132L25.1575 250.589L24.6259 249.011L24.0942 247.398L23.5625 245.784L23.0309 244.188L22.4992 242.628L21.9853 241.103L21.4713 239.649L20.9752 238.266L20.5144 236.954L20.0713 235.696L19.646 234.472L19.2384 233.267L18.8308 232.061L18.441 230.855L18.051 229.65L17.6789 228.426L17.3067 227.185L16.9346 225.944L16.5801 224.721L16.2435 223.515L15.9244 222.362L15.6409 221.281L15.3928 220.288L15.1801 219.366L14.9852 218.55L14.8256 217.841L14.7016 217.238L14.613 216.724L14.5421 216.316L14.4889 215.997L14.4536 215.767L14.4181 215.607L14.4003 215.536V215.519L2.59766 182.31L2.65077 182.239L2.70398 182.168L2.75709 182.097L2.81031 182.026L2.86342 181.955L2.91664 181.884L2.96975 181.813L3.02296 181.742L3.07607 181.671L3.12929 181.6L3.20014 181.529L3.25336 181.459L3.3242 181.388L3.39516 181.317L3.46601 181.246L3.53686 181.175L3.60781 181.104L3.67866 181.033L3.74951 180.962L3.82047 180.891L3.89131 180.803L3.96216 180.732L4.05086 180.643L4.13945 180.554L4.22803 180.466L4.31662 180.377L4.40521 180.288L4.51154 180.182L4.61786 180.093L4.74193 179.987L4.86599 179.881L4.99006 179.774L5.11412 179.65L5.25593 179.526L5.39763 179.402L5.55717 179.278L5.71671 179.136L5.87615 178.994L6.03569 178.835L6.21287 178.675L6.39004 178.515L6.58507 178.356L6.77998 178.196L6.97489 178.037L7.16981 177.877L7.36483 177.717L7.55975 177.558L7.75466 177.398L7.94957 177.239L8.1446 177.079L8.33951 176.92L8.53442 176.76L8.72934 176.6L8.90662 176.441L9.0838 176.281L9.26108 176.122L9.42052 175.962L9.5978 175.82L9.75723 175.678L9.91678 175.537L10.0762 175.395L10.2358 175.253L10.3952 175.111L10.5547 174.969L10.7319 174.827L10.9092 174.686L11.0864 174.544L11.2635 174.384L11.4586 174.225L11.6535 174.065L11.8661 173.888L12.0788 173.71L12.3092 173.515L12.5573 173.32L12.8054 173.125L13.0712 172.913L13.3371 172.7L13.6206 172.469L13.9218 172.221L14.2232 171.973L14.5421 171.707L14.8611 171.423L15.1978 171.14L15.5346 170.838L15.889 170.519L16.2435 170.2L16.6156 169.863L16.9878 169.508L17.3776 169.154L17.7853 168.799L18.1928 168.427L18.6181 168.054L19.0435 167.682L19.4865 167.31L19.9118 166.937L20.3548 166.565L20.7803 166.211L21.2233 165.838L21.6486 165.484L22.0739 165.129L22.4992 164.774L22.9423 164.402L23.3676 164.047L23.8106 163.675L24.2359 163.303L24.679 162.93L25.122 162.558L25.5651 162.186L26.0081 161.796L26.4866 161.406L26.9829 160.998L27.4968 160.59L28.0284 160.164L28.5778 159.739L29.1449 159.313L29.7298 158.888L30.3322 158.462L30.9526 158.037L31.5905 157.611L32.2285 157.204L32.8665 156.796L33.4868 156.388L34.0893 155.998L34.6919 155.608L35.2944 155.218L35.8792 154.828L36.464 154.438L37.0489 154.03L37.6336 153.622L38.2362 153.196L38.8388 152.753L39.459 152.31L40.097 151.849L40.7527 151.388L41.4261 150.909L42.0996 150.448L42.7907 149.987L43.4819 149.544L44.173 149.101L44.8642 148.675L45.5553 148.267L46.2288 147.86L46.9022 147.47L47.5579 147.079L48.2136 146.707L48.8516 146.335L49.4895 145.962L50.1276 145.59L50.7833 145.2L51.4567 144.81L52.1478 144.402L52.8567 143.994L53.5833 143.569L54.3277 143.126L55.0897 142.682L55.8872 142.239L56.6846 141.796L57.4821 141.353L58.2973 140.909L59.1125 140.484L59.9277 140.058L60.743 139.65L61.5581 139.243L62.3733 138.853L63.1886 138.463L64.0037 138.09L64.8012 137.736L65.6165 137.381L66.414 137.026L67.2114 136.672L68.0089 136.317L68.8241 135.963L69.6392 135.608L70.4545 135.253L71.2697 134.899L72.1026 134.526L72.9178 134.172L73.733 133.799L74.5482 133.445L75.3457 133.09L76.1432 132.736L76.923 132.399L77.7028 132.062L78.4648 131.743L79.2268 131.424L80.0066 131.104L80.7686 130.803L81.5484 130.502L82.3281 130.218L83.1079 129.934L83.9054 129.651L84.7028 129.367L85.518 129.083L86.3333 128.799L87.1484 128.516L87.9636 128.232L88.7789 127.948L89.5763 127.665L90.3738 127.381L91.1536 127.097L91.9156 126.831L92.6422 126.583L93.351 126.335L94.0422 126.087L94.7157 125.856L95.3714 125.644L96.0093 125.431L96.6474 125.218L97.2676 125.005L97.8878 124.792L98.4904 124.597L99.093 124.402L99.6955 124.207L100.316 124.012L100.936 123.817L101.574 123.622L102.212 123.445L102.85 123.285L103.488 123.126L104.126 122.966L104.764 122.824L105.42 122.7L106.058 122.576L106.696 122.452L107.334 122.346L107.972 122.239L108.592 122.133L109.212 122.027L109.832 121.92L110.435 121.814L111.037 121.707L111.64 121.583L112.26 121.459L112.863 121.335L113.483 121.211L114.103 121.087L114.724 120.963L115.326 120.839L115.929 120.714L116.531 120.59L117.134 120.466L117.701 120.36L118.268 120.253L118.835 120.147L119.402 120.041L119.952 119.934L120.519 119.81L121.086 119.686L121.671 119.562L122.273 119.42L122.876 119.278L123.514 119.119L124.152 118.959L124.79 118.782L125.445 118.605L126.101 118.427L126.757 118.25L127.395 118.09L128.033 117.931L128.653 117.771L129.255 117.612L129.84 117.452L130.407 117.293L130.975 117.133L131.524 116.973L132.073 116.796L132.64 116.601L133.208 116.388L133.792 116.176L134.395 115.945L135.015 115.697L135.653 115.449L136.291 115.183L136.947 114.899L137.62 114.615L138.294 114.332L138.985 114.03L139.658 113.729L140.349 113.427L141.041 113.126L141.732 112.807L142.423 112.488L143.114 112.168L143.805 111.849L144.496 111.53L145.17 111.229L145.843 110.927L146.499 110.644L147.137 110.36L147.775 110.076L148.413 109.81L149.051 109.544L149.671 109.296L150.309 109.048L150.947 108.8L151.585 108.552L152.223 108.303L152.861 108.055L153.517 107.807L154.19 107.559L154.864 107.31L155.555 107.044L156.246 106.778L156.937 106.495L157.628 106.211L158.319 105.927L159.01 105.626L159.719 105.307L160.446 104.988L161.173 104.651L161.917 104.314L162.679 103.959L163.459 103.605L164.256 103.25L165.054 102.896L165.869 102.523L166.684 102.151L167.517 101.779L168.332 101.406L169.147 101.034L169.963 100.644L170.795 100.236L171.611 99.8282L172.444 99.4026L173.277 98.9593L174.109 98.5161L174.942 98.0552L175.775 97.5764L176.608 97.0977L177.441 96.6013L178.274 96.1048L179.125 95.5906L179.975 95.0764L180.826 94.58L181.677 94.0835L182.527 93.5871L183.378 93.1084L184.211 92.6297L185.026 92.1687L185.841 91.7255L186.639 91.2999L187.419 90.8743L188.181 90.4666L188.943 90.0588L189.705 89.6333L190.467 89.2077L191.264 88.7644L192.062 88.2858L192.895 87.7893L193.745 87.2751L194.631 86.7432L195.553 86.1759L196.51 85.5907L197.484 84.9878L198.459 84.4028L199.381 83.8354L200.161 83.3744L200.568 83.1439L200.604 83.1262L199.416 74.332L199.452 74.2079L199.505 74.0838L199.54 73.9596L199.593 73.8355L199.647 73.7114L199.717 73.605L199.771 73.4986L199.842 73.3923L199.912 73.2859L199.983 73.1795L200.054 73.0909L200.143 72.9845L200.231 72.8959L200.32 72.8071L200.409 72.7185L200.497 72.6299L200.586 72.5235L200.692 72.4349L200.798 72.3285L200.905 72.2221L201.029 72.1157L201.135 72.0093L201.259 71.903L201.383 71.7966L201.507 71.6901L201.631 71.5661L201.756 71.4597L201.88 71.3356L202.004 71.2115L202.145 71.0873L202.287 70.9632L202.429 70.8391L202.571 70.715L202.712 70.5908L202.854 70.4668L203.014 70.3427L203.173 70.2008L203.333 70.0589L203.492 69.9171L203.652 69.7753L203.811 69.6334L203.971 69.4916L204.13 69.3321L204.307 69.1902L204.485 69.0306L204.662 68.871L204.839 68.7114L205.016 68.5519L205.211 68.3923L205.406 68.2328L205.601 68.0732L205.796 67.9136L205.991 67.754L206.186 67.5768L206.381 67.3994L206.594 67.2221L206.806 67.0448L207.019 66.8675L207.232 66.6725L207.444 66.4775L207.657 66.2824L207.869 66.0874L208.1 65.8924L208.33 65.6974L208.561 65.4845L208.791 65.2717L209.039 65.059L209.287 64.8462L209.535 64.6335L209.783 64.403L210.032 64.1725L210.28 63.942L210.528 63.7115L210.794 63.4633L211.059 63.2328L211.325 62.9846L211.591 62.7363L211.875 62.4882L212.158 62.2399L212.442 61.9917L212.725 61.7257L213.009 61.4775L213.292 61.2115L213.576 60.9455L213.859 60.6796L214.143 60.4136L214.444 60.13L214.746 59.8463L215.047 59.5626L215.348 59.2789L215.649 58.9952L215.968 58.7116L216.287 58.4279L216.606 58.1442L216.925 57.8427L217.244 57.5413L217.563 57.24L217.882 56.9386L218.201 56.6371L218.52 56.3357L218.839 56.0343L219.158 55.7328L219.477 55.4314L219.796 55.13L220.115 54.8287L220.434 54.5272L220.753 54.2258L221.055 53.9421L221.356 53.6584L221.657 53.3748L221.941 53.091L222.224 52.8251L222.49 52.5769L222.756 52.3286L223.022 52.0981L223.27 51.8676L223.518 51.6549L223.748 51.4421L223.961 51.2471L224.174 51.0698L224.368 50.9102L224.546 50.7861L224.723 50.662L224.882 50.5733L225.007 50.5025L225.131 50.467L225.219 50.4492L225.29 50.467L225.326 50.5202L225.361 50.5911L225.379 50.6797L225.396 50.7684L225.414 50.857L225.432 50.9457L225.45 51.0343L225.467 51.123L225.485 51.2116L225.503 51.3002L225.52 51.4067L225.538 51.4954L225.574 51.6017L225.591 51.7081L225.609 51.8145L225.645 51.9209L225.662 52.0272L225.698 52.1336L225.715 52.24L225.751 52.3464L225.786 52.4528L225.804 52.5591L225.839 52.6655L225.875 52.7719L225.91 52.8783L225.946 52.9846L225.981 53.091L226.017 53.1974L226.052 53.3038L226.088 53.4279L226.123 53.552L226.158 53.6761L226.194 53.8003L226.229 53.9244L226.265 54.0485L226.3 54.1727L226.336 54.2967L226.371 54.4208L226.407 54.5449L226.442 54.669L226.477 54.7932L226.513 54.9173L226.548 55.0592L226.584 55.2009L226.619 55.3428L226.655 55.4847L226.69 55.6264L226.743 55.7683L226.779 55.9279L226.832 56.0874L226.867 56.2471L226.92 56.4066L226.974 56.5662L227.027 56.7258L227.08 56.8853L227.133 57.0626L227.186 57.24L227.257 57.4172L227.31 57.6123L227.381 57.8073L227.434 58.0024L227.505 58.1974L227.576 58.3924L227.647 58.5875L227.718 58.7825L227.789 58.9775L227.86 59.1725L227.931 59.3854L228.002 59.5804L228.072 59.7931L228.143 60.0059L228.214 60.2186L228.285 60.4314L228.356 60.6442L228.445 60.8569L228.515 61.0697L228.604 61.2824L228.693 61.5129L228.781 61.7257L228.87 61.9384L228.958 62.1513L229.047 62.364L229.136 62.5768L229.224 62.7896L229.313 63.0023L229.402 63.2151L229.49 63.4278L229.579 63.6406L229.667 63.8533L229.756 64.0661L229.845 64.2788L229.933 64.4916L230.022 64.7045L230.11 64.9172L230.217 65.13L230.323 65.3427L230.429 65.5555L230.536 65.786L230.642 66.0165L230.748 66.247L230.872 66.4775L230.997 66.7256L231.121 66.9739L231.245 67.2221L231.369 67.4704L231.493 67.7363L231.617 67.9845L231.652 68.0554V68.0909L231.67 68.2328L231.688 68.3745L231.705 68.5164L231.723 68.6583L231.741 68.8178L231.759 68.9597L231.776 69.1193L231.812 69.2788L231.829 69.4384L231.865 69.5979L231.9 69.7576L231.936 69.9171L231.971 70.0944L232.007 70.2717L232.042 70.4491L232.078 70.6263L232.113 70.8036L232.148 70.9987L232.184 71.176L232.219 71.371L232.255 71.5661L232.29 71.7611L232.343 71.9561L232.397 72.1511L232.45 72.3462L232.503 72.5412L232.556 72.7362L232.609 72.9312L232.68 73.1264L232.751 73.3214L232.822 73.5164L232.893 73.7114L232.964 73.9064L233.034 74.1015L233.105 74.2965L233.194 74.4915L233.265 74.6865L233.353 74.8816L233.442 75.0767L233.531 75.2717L233.619 75.4667L233.708 75.6618L233.796 75.8568L233.885 76.0518L233.992 76.2646L234.08 76.4773L234.186 76.6724L234.293 76.8852L234.399 77.0979L234.505 77.3107L234.612 77.5234L234.718 77.7362L234.824 77.949L234.931 78.1617L235.055 78.3745L235.161 78.5872L235.285 78.8L235.409 79.0127L235.533 79.2432L235.657 79.4737L235.781 79.6865L235.905 79.917L236.029 80.1475L236.154 80.378L236.278 80.6085L236.402 80.839L236.526 81.0873L236.65 81.3178L236.774 81.5659L236.898 81.8142L237.022 82.0624L237.146 82.3107L237.27 82.5588L237.394 82.807L237.518 83.0553L237.66 83.3036L237.802 83.5517L237.943 83.7999L238.085 84.0482L238.227 84.2964L238.369 84.5446L238.528 84.7928L238.688 85.0411L238.847 85.2893L239.007 85.5376L239.166 85.7857L239.326 86.0517L239.485 86.3176L239.645 86.5836L239.822 86.8496L239.999 87.1155L240.176 87.3815L240.354 87.6474L240.549 87.9134L240.744 88.1794L240.938 88.4453L241.133 88.7113L241.328 88.9772L241.523 89.2432L241.718 89.5092L241.913 89.7751L242.108 90.041L242.321 90.3069L242.516 90.5729L242.728 90.8389L242.941 91.1048L243.154 91.3708L243.366 91.6367L243.579 91.9027L243.792 92.1687L244.004 92.4346L244.217 92.7006L244.43 92.9665L244.642 93.2325L244.855 93.4985L245.068 93.7644L245.28 94.0304L245.493 94.2963L245.706 94.5623L245.918 94.8283L246.131 95.0941L246.344 95.3424L246.556 95.6084L246.769 95.8565L246.982 96.1225L247.194 96.3708L247.407 96.619L247.62 96.8672L247.832 97.1154L248.045 97.3637L248.258 97.6119L248.47 97.8601L248.683 98.1083L248.896 98.3566L249.126 98.6048L249.339 98.853L249.551 99.1012L249.782 99.3495L249.994 99.5977L250.207 99.8459L250.437 100.094L250.668 100.342L250.898 100.591L251.111 100.839L251.341 101.087L251.572 101.335L251.802 101.584L252.032 101.832L252.263 102.08L252.493 102.328L252.723 102.576L252.954 102.825L253.184 103.073L253.432 103.321L253.663 103.569L253.911 103.818L254.159 104.066L254.407 104.314L254.655 104.562L254.903 104.81L255.151 105.059L255.399 105.307L255.648 105.555L255.896 105.803L256.144 106.051L256.41 106.3L256.675 106.548L256.941 106.796L257.207 107.044L257.473 107.293L257.756 107.541L257.81 107.594L257.845 107.629L258.005 107.842L258.164 108.055L258.324 108.268L258.501 108.481L258.678 108.693L258.855 108.906L259.032 109.137L259.21 109.349L259.405 109.58L259.582 109.793L259.777 110.005L259.972 110.218L260.167 110.431L260.362 110.644L260.557 110.856L260.751 111.051L260.946 111.264L261.141 111.459L261.336 111.654L261.531 111.849L261.726 112.044L261.921 112.239L262.116 112.434L262.329 112.629L262.541 112.824L262.754 113.02L262.984 113.215L263.215 113.41L263.445 113.605L263.693 113.817L263.941 114.03L264.189 114.243L264.438 114.456L264.703 114.668L264.969 114.899L265.235 115.112L265.501 115.325L265.784 115.555L266.05 115.786L266.334 116.016L266.617 116.246L266.901 116.477L267.184 116.707L267.45 116.938L267.716 117.168L268 117.399L268.283 117.629L268.567 117.878L268.85 118.126L269.134 118.374L269.417 118.622L269.719 118.871L270.02 119.119L270.321 119.385L270.622 119.651L270.924 119.917L271.225 120.183L271.526 120.448L271.828 120.714L272.129 120.98L272.43 121.246L272.714 121.495L272.997 121.743L273.281 121.991L273.564 122.239L273.848 122.488L274.131 122.736L274.415 122.966L274.681 123.197L274.964 123.427L275.23 123.658L275.514 123.888L275.797 124.119L276.081 124.349L276.364 124.562L276.648 124.792L276.931 125.005L277.215 125.218L277.499 125.431L277.782 125.644L278.066 125.856L278.349 126.069L278.633 126.282L278.916 126.512L279.2 126.743L279.501 126.973L279.802 127.204L280.104 127.434L280.405 127.665L280.706 127.895L281.025 128.126L281.344 128.356L281.663 128.587L281.982 128.817L282.301 129.048L282.62 129.278L282.957 129.509L283.294 129.739L283.63 129.97L283.719 130.041L284.002 130.289L284.428 130.643L284.853 130.998L285.278 131.353L285.704 131.707L286.129 132.062L286.554 132.416L286.98 132.789L287.405 133.143L287.83 133.498L288.256 133.853L288.663 134.207L289.089 134.562L289.496 134.916L289.904 135.271L290.311 135.626L290.719 135.98L291.127 136.335L291.534 136.69L291.942 137.044L292.349 137.399L292.757 137.753L293.147 138.108L293.555 138.463L293.944 138.817L294.334 139.172L294.724 139.526L295.114 139.881L295.504 140.236L295.894 140.59L296.284 140.945L296.656 141.299L297.046 141.654L297.418 142.009L297.79 142.363L298.162 142.718L298.534 143.072L298.907 143.427L299.279 143.782L299.651 144.136L300.023 144.491L300.377 144.845L300.732 145.182L301.086 145.519L301.441 145.856L301.795 146.193L302.15 146.53L302.504 146.849L302.858 147.186L303.195 147.505L303.55 147.824L303.886 148.143L304.223 148.462L304.56 148.782L304.896 149.101L305.216 149.402L305.535 149.704L305.853 150.005L306.172 150.289L306.491 150.59L306.81 150.874L307.129 151.157L307.431 151.441L307.732 151.725L308.033 152.009L308.334 152.292L308.636 152.576L308.919 152.842L309.203 153.126L309.486 153.391L309.77 153.675L310.054 153.941L310.337 154.207L310.621 154.473L310.886 154.739L311.152 155.005L311.418 155.271L311.684 155.537L311.932 155.803L312.18 156.051L312.428 156.299L312.676 156.565L312.924 156.813L313.155 157.062L313.385 157.31L313.598 157.558L313.828 157.806L314.041 158.055L314.254 158.303L314.466 158.551L314.679 158.799L314.874 159.047L315.069 159.296L315.264 159.544L315.459 159.792L315.654 160.04L315.831 160.289L316.008 160.537L316.185 160.785L316.345 161.033L316.504 161.281L316.664 161.53L316.823 161.76L316.983 162.008L317.142 162.239L317.284 162.469L317.426 162.7L317.568 162.93L317.709 163.161L317.851 163.391L317.975 163.622L318.099 163.852L318.223 164.083L318.347 164.313L318.471 164.544L318.595 164.774L318.72 164.987L318.844 165.2L318.95 165.413L319.056 165.625L319.163 165.838L319.269 166.051L319.358 166.264L319.446 166.459L319.535 166.654L319.623 166.849L319.712 167.044L319.801 167.239L319.871 167.416L319.96 167.593L320.031 167.771L320.102 167.948L320.173 168.108L320.244 168.267L320.314 168.427L320.385 168.586L320.439 168.746L320.509 168.905L320.563 169.047L320.616 169.189L320.669 169.313L320.722 169.437L320.758 169.561L320.811 169.686L320.846 169.81L320.899 169.916L320.935 170.022L320.97 170.111L321.006 170.217L321.041 170.306L321.076 170.395L321.112 170.483L321.165 170.572L321.201 170.661L321.254 170.732L321.289 170.803L321.342 170.874L321.395 170.945L321.449 171.015L321.502 171.086L321.555 171.14L321.626 171.21L321.697 171.264L321.768 171.335L321.839 171.388L321.909 171.441L321.98 171.494L322.051 171.547L322.14 171.601L322.228 171.654L322.317 171.707L322.406 171.76L322.512 171.813L322.618 171.866L322.725 171.92L322.849 171.973L322.973 172.026L323.097 172.079L323.221 172.132L323.363 172.186L323.504 172.239L323.646 172.292L323.806 172.345L323.965 172.416L324.125 172.469L324.284 172.54L324.444 172.611L324.621 172.682L324.798 172.753L324.975 172.824L325.17 172.895L325.365 172.966L325.56 173.037L325.755 173.108L325.95 173.179L326.163 173.249L326.375 173.32L326.588 173.391L326.801 173.462L327.031 173.533L327.261 173.604L327.492 173.675L327.722 173.746L327.97 173.817L328.218 173.888L328.467 173.959L328.715 174.03L328.963 174.1L329.211 174.171L329.459 174.242L329.725 174.313L329.991 174.384L330.256 174.437L330.522 174.508L330.788 174.561L331.054 174.615L331.32 174.668L331.586 174.721L331.851 174.774L332.117 174.81L332.383 174.863L332.649 174.898L332.915 174.934L333.181 174.969L333.446 175.005L333.712 175.04L333.978 175.076L334.244 175.111L334.51 175.147L334.776 175.182L335.041 175.217L335.307 175.253L335.555 175.288L335.803 175.324L336.051 175.342L336.3 175.359L336.548 175.377L336.796 175.395L337.044 175.412L337.292 175.43H337.54H337.788H338.019H338.249H338.479H338.71H338.922H339.135H339.348H339.56H339.773H339.986H340.181H340.376H340.57H340.766H340.96H341.155H341.35H341.528H341.705H341.882H342.059H342.236H342.396H342.555H342.715H342.874H343.034H343.176H343.317H343.459H343.601H343.743H343.867H343.991H344.115H344.239H344.363H344.487H344.593H344.717H344.824H344.93H345.036H345.143H345.231H345.338H345.426H345.515H345.604H345.692L345.781 175.412L345.869 175.395L345.958 175.377L346.047 175.359L346.135 175.342L346.224 175.324L346.312 175.306L346.383 175.288L346.454 175.271L346.543 175.253L346.614 175.235L346.685 175.2L346.755 175.182L346.826 175.147L346.897 175.111L346.968 175.076L347.039 175.04L347.11 175.005L347.181 174.969L347.252 174.934L347.322 174.898L347.393 174.863L347.464 174.827L347.535 174.792L347.606 174.756L347.677 174.703L347.748 174.668L347.819 174.615L347.907 174.561L347.978 174.508L348.067 174.455L348.155 174.384L348.244 174.313L348.333 174.242L348.421 174.171L348.51 174.1L348.599 174.012L348.705 173.923L348.811 173.835L348.918 173.746L349.024 173.657L349.148 173.569L349.254 173.462L349.378 173.356L349.502 173.249L349.626 173.125L349.75 173.001L349.874 172.877L350.016 172.753L350.158 172.611L350.3 172.469L350.459 172.327L350.619 172.168L350.778 172.008L350.938 171.849L351.115 171.671L351.292 171.476L351.469 171.281L351.664 171.086L351.859 170.874L352.054 170.661L352.249 170.448L352.462 170.217L352.657 169.969L352.869 169.721L353.082 169.473L353.295 169.207L353.508 168.941L353.738 168.675L353.968 168.391L354.199 168.108L354.429 167.806L354.677 167.505L354.925 167.186L355.173 166.867L355.421 166.547L355.67 166.211L355.935 165.874L356.201 165.537L356.467 165.182L356.733 164.828L356.999 164.473L357.282 164.118L357.566 163.764L357.849 163.391L358.133 163.019L358.416 162.647L358.7 162.274L358.983 161.902L359.267 161.53L359.568 161.157L359.852 160.767L360.153 160.377L360.454 159.987L360.756 159.597L361.057 159.207L361.376 158.799L361.695 158.391L362.014 157.984L362.333 157.576L362.652 157.168L362.971 156.743L363.29 156.317L363.609 155.891L363.928 155.466L364.265 155.04L364.601 154.615L364.92 154.172L365.257 153.728L365.594 153.285L365.93 152.842L366.267 152.399L366.604 151.955L366.941 151.512L367.277 151.051L367.614 150.59L367.968 150.129L368.323 149.668L368.677 149.189L369.032 148.711L369.386 148.232L369.741 147.753L370.095 147.274L370.45 146.796L370.804 146.317L371.158 145.838L371.513 145.36L371.867 144.881L372.222 144.402L372.576 143.924L372.913 143.445L373.267 142.966L373.604 142.487L373.958 141.991L374.295 141.512L374.632 141.016L374.969 140.537L375.305 140.041L375.642 139.562L375.979 139.065L376.315 138.587L376.652 138.09L376.989 137.612L377.326 137.115L377.645 136.636L377.964 136.158L378.283 135.679L378.602 135.2L378.921 134.721L379.24 134.243L379.559 133.764L379.877 133.285L380.197 132.807L380.516 132.328L380.835 131.849L381.154 131.37L381.472 130.892L381.791 130.413L382.11 129.934L382.412 129.456L382.731 128.977L383.032 128.498L383.333 128.019L383.635 127.541L383.936 127.062L384.237 126.583L384.538 126.104L384.84 125.626L385.123 125.147L385.424 124.668L385.708 124.19L385.992 123.711L386.275 123.232L386.559 122.754L386.842 122.275L387.126 121.796L387.409 121.317L387.693 120.839L387.976 120.36L388.26 119.881L388.543 119.402L388.827 118.924L389.111 118.445L389.394 117.966L389.678 117.488L389.961 117.009L390.245 116.53L390.511 116.051L390.794 115.573L391.06 115.094L391.326 114.615L391.592 114.136L391.857 113.658L392.123 113.179L392.389 112.7L392.655 112.222L392.921 111.743L393.169 111.282L393.435 110.821L393.683 110.36L393.931 109.899L394.179 109.438L394.427 108.995L394.675 108.552L394.923 108.108L395.171 107.665L395.42 107.222L395.668 106.778L395.916 106.353L396.164 105.927L396.394 105.502L396.625 105.076L396.855 104.669L397.085 104.243L397.316 103.835L397.546 103.427L397.777 103.02L397.989 102.612L398.202 102.222L398.415 101.832L398.627 101.459L398.84 101.087L399.052 100.715L399.265 100.342L399.46 99.9877L399.655 99.6331L399.85 99.2786L400.045 98.9417L400.24 98.6048L400.417 98.2679L400.594 97.9488L400.772 97.6296L400.949 97.3104L401.108 97.0091L401.268 96.7077L401.427 96.4239L401.587 96.1403L401.746 95.8565L401.888 95.5906L402.03 95.3424L402.172 95.0941L402.296 94.846L402.42 94.6155L402.544 94.385L402.668 94.1722L402.792 93.9595L402.916 93.7466L403.022 93.5516L403.129 93.3566L403.235 93.1616L403.324 92.9842L403.412 92.807L403.501 92.6474L403.589 92.4878L403.66 92.3282L403.731 92.1865L403.802 92.0446L403.873 91.9027L403.926 91.7786L403.979 91.6545L404.032 91.5303L404.068 91.4063L404.103 91.2999L404.139 91.1935L404.174 91.0871L404.21 90.9807L404.245 90.8743L404.263 90.7857L404.28 90.6971L404.298 90.6084V90.5198L404.316 90.4311V90.3424V90.2538V90.1652V90.0765V89.9878V89.8992L404.298 89.8105L404.28 89.7042L404.263 89.5978L404.245 89.4914L404.21 89.385L404.174 89.2787L404.139 89.1723L404.103 89.0659L404.068 88.9595L404.015 88.8354L403.961 88.729L403.908 88.6049L403.855 88.4808L403.784 88.3566L403.713 88.2325L403.642 88.1084L403.572 87.9843L403.483 87.8603L403.394 87.7361L403.306 87.5943L403.217 87.4524L403.129 87.3106L403.04 87.1687L402.934 87.0091L402.827 86.8496L402.721 86.69L402.597 86.5305L402.473 86.3709L402.349 86.1936L402.225 86.034L402.243 85.9808L402.402 85.6085L402.579 85.2361L402.739 84.8638L402.898 84.4915L403.058 84.1368L403.217 83.7822L403.377 83.4453L403.536 83.1084L403.696 82.7893L403.855 82.4702L403.997 82.151L404.156 81.8319L404.298 81.5305L404.44 81.2468L404.582 80.9631L404.724 80.6971L404.848 80.4489L404.972 80.2007L405.096 79.9702L405.22 79.7575L405.326 79.5447L405.432 79.3496L405.539 79.1724L405.645 78.9951L405.734 78.8355L405.822 78.6759L405.911 78.5163L406 78.3567L406.088 78.215L406.177 78.0731L406.265 77.9312L406.354 77.7893L406.443 77.6476L406.531 77.5057L406.62 77.3638L406.708 77.2043L406.797 77.0447L406.886 76.8852L406.974 76.7078L407.063 76.5306L407.169 76.3355L407.275 76.1404L407.382 75.9454L407.488 75.7327L407.612 75.5199L407.736 75.2894L407.86 75.0589L407.984 74.8107L408.126 74.5448L408.268 74.2788L408.41 73.9951L408.551 73.7114L408.711 73.41L408.853 73.1264L408.995 72.8249L409.136 72.5412L409.278 72.2398L409.42 71.9561L409.544 71.6725L409.668 71.4065L409.774 71.1405L409.881 70.8923L409.969 70.6618L410.058 70.4491L410.129 70.2363L410.2 70.0412L410.27 69.8462L410.324 69.6867L410.377 69.5271L410.43 69.3674L410.465 69.2079L410.501 69.0661L410.536 68.9419L410.572 68.8002L410.607 68.676L410.643 68.5519L410.678 68.4278L410.714 68.3037L410.749 68.1795L410.784 68.0554L410.82 67.9313L410.855 67.8073L410.891 67.6831L410.926 67.5768L410.944 67.4526L410.979 67.3463L410.997 67.2399L411.032 67.1335L411.05 67.0271L411.086 66.9208L411.103 66.8143L411.121 66.7079L411.157 66.6015L411.174 66.4951L411.192 66.4065L411.227 66.3179L411.245 66.2292L411.281 66.1406L411.298 66.0519L411.334 65.9632L411.351 65.8746L411.387 65.786L411.422 65.6974L411.44 65.6086L411.476 65.52L411.511 65.4491L411.546 65.3781L411.582 65.3072L411.617 65.2364L411.653 65.1654L411.688 65.0945L411.724 65.0236L411.759 64.9526L411.794 64.8817L411.83 64.8285L411.865 64.7753L411.901 64.7221L411.936 64.669L411.972 64.6157L412.007 64.5803L412.043 64.5271L412.078 64.4916L412.113 64.4562L412.149 64.4207L412.184 64.3852L412.22 64.3498L412.255 64.3321L412.291 64.3143L412.326 64.2966H412.379H412.433H412.468H412.521H412.574H412.627L412.681 64.3143L412.734 64.3321L412.787 64.3498L412.858 64.3676L412.911 64.3852L412.982 64.4207L413.053 64.4562L413.124 64.4916L413.195 64.5271L413.265 64.5626L413.336 64.598L413.407 64.6335L413.478 64.6867L413.567 64.7399L413.655 64.7931L413.744 64.8462L413.833 64.8995L413.921 64.9526L414.01 65.0058L414.098 65.0767L414.187 65.13L414.276 65.1831L414.364 65.2364L414.453 65.2895L414.541 65.3427L414.63 65.3959L414.719 65.4491L414.825 65.5022L414.914 65.5555L415.02 65.6086L415.108 65.6619L415.215 65.715L415.321 65.7682L415.428 65.8214L415.534 65.8746L415.64 65.9278L415.747 65.981L415.853 66.0342L415.959 66.0874L416.066 66.1406L416.172 66.2115L416.278 66.2646L416.384 66.3179L416.491 66.3888L416.597 66.442L416.703 66.5129L416.81 66.5661L416.916 66.637L417.022 66.6903L417.129 66.7434L417.235 66.8143L417.341 66.8675L417.43 66.9208L417.519 66.9739L417.607 67.0271L417.696 67.0803L417.784 67.1335L417.873 67.1866L417.962 67.2221L418.05 67.2753L418.139 67.3108L418.228 67.3463L418.316 67.3817L418.405 67.4171L418.493 67.4704L418.582 67.5058L418.671 67.5413L418.759 67.5768L418.848 67.6122L418.936 67.6654L419.025 67.7008L419.114 67.754L419.202 67.7895L419.291 67.8427L419.379 67.8782L419.468 67.9313L419.557 67.9845L419.645 68.0377L419.734 68.0909L419.823 68.144L419.911 68.1973L420 68.2505L420.088 68.3037L420.177 68.3569L420.266 68.41L420.354 68.4633L420.443 68.5342L420.531 68.5873L420.62 68.6405L420.709 68.7114L420.797 68.7647L420.886 68.8356L420.974 68.9065L421.063 68.9774L421.152 69.0483L421.24 69.1193L421.329 69.1902L421.417 69.2611L421.506 69.3321L421.595 69.4029L421.683 69.4738L421.772 69.5448L421.86 69.6157L421.949 69.6867L422.038 69.7753L422.126 69.8639L422.197 69.9526L422.286 70.0412L422.374 70.1299L422.463 70.2186L422.552 70.3249L422.64 70.4136L422.729 70.52L422.818 70.6263L422.906 70.7327L422.995 70.8568L423.083 70.981L423.172 71.1051L423.261 71.2292L423.349 71.3533L423.455 71.4774L423.562 71.6192L423.668 71.7611L423.774 71.9206L423.881 72.0802L424.005 72.2398L424.129 72.3994L424.253 72.5766L424.377 72.754L424.519 72.9312L424.643 73.1264L424.785 73.3214L424.926 73.5341L425.068 73.7469L425.228 73.9596L425.387 74.1901L425.547 74.4206L425.706 74.6689L425.866 74.917L426.025 75.1653L426.185 75.4135L426.344 75.6794L426.504 75.9277L426.663 76.1759L426.823 76.4419L426.982 76.7078L427.159 76.9738L427.319 77.2397L427.496 77.5057L427.673 77.7717L427.85 78.0553L428.028 78.339L428.223 78.6227L428.418 78.9064L428.612 79.2079L428.825 79.527L429.02 79.8461L429.233 80.1652L429.445 80.4844L429.658 80.8213L429.871 81.1759L430.083 81.5305L430.314 81.9028L430.544 82.2929L430.792 82.6829L431.04 83.0908L431.289 83.5163L431.537 83.9418L431.785 84.3673L432.033 84.8106L432.281 85.2538L432.529 85.6971L432.777 86.1404L433.025 86.6014L433.273 87.0624L433.521 87.5234L433.77 88.002L434.018 88.4985L434.266 89.0127L434.514 89.5445L434.762 90.0765L435.028 90.6438L435.311 91.2467L435.595 91.885L435.896 92.5587L436.215 93.2502L436.534 93.9771L436.871 94.7395L437.225 95.5374L437.58 96.353L437.934 97.1687L438.306 98.0019L438.679 98.8176L439.033 99.6154L439.37 100.342L439.636 100.927L439.76 101.211V101.229L441.425 114.597L441.532 114.722L441.656 114.846L441.78 114.97L441.904 115.094L442.028 115.218L442.152 115.36L442.276 115.484L442.4 115.608L442.524 115.732L442.648 115.856L442.79 115.998L442.914 116.122L443.038 116.246L443.18 116.371L443.322 116.512L443.463 116.637L443.605 116.778L443.747 116.902L443.889 117.027L444.03 117.168L444.172 117.31L444.332 117.434L444.474 117.576L444.633 117.718L444.793 117.86L444.952 118.002L445.112 118.126L445.271 118.268L445.431 118.41L445.59 118.551L445.75 118.675L445.909 118.817L446.069 118.959L446.228 119.083L446.388 119.225L446.547 119.349L446.707 119.473L446.866 119.597L447.043 119.722L447.203 119.846L447.362 119.97L447.539 120.094L447.717 120.218L447.876 120.342L448.053 120.466L448.231 120.59L448.408 120.714L448.585 120.839L448.762 120.963L448.939 121.087L449.117 121.211L449.294 121.335L449.471 121.459L449.648 121.583L449.843 121.707L450.02 121.831L450.215 121.956L450.41 122.08L450.605 122.204L450.8 122.328L450.995 122.452L451.19 122.576L451.385 122.7L451.58 122.824L451.775 122.949L451.97 123.055L452.183 123.179L452.378 123.285L452.59 123.392L452.803 123.498L453.015 123.605L453.228 123.711L453.441 123.817L453.653 123.924L453.866 124.03L454.079 124.136L454.309 124.243L454.54 124.349L454.77 124.456L455 124.562L455.248 124.668L455.497 124.775L455.745 124.881L455.993 124.988L456.241 125.094L456.507 125.218L456.772 125.324L457.038 125.448L457.322 125.573L457.605 125.697L457.889 125.821L458.173 125.945L458.456 126.069L458.757 126.193L459.059 126.317L459.378 126.441L459.697 126.565L460.016 126.707L460.352 126.849L460.689 126.991L461.044 127.133L461.398 127.292L461.752 127.434L462.125 127.594L462.497 127.753L462.887 127.913L463.276 128.073L463.684 128.232L464.109 128.409L464.535 128.587L464.978 128.764L465.421 128.941L465.864 129.136L466.342 129.331L466.821 129.527L467.299 129.722L467.796 129.934L468.309 130.147L468.841 130.36L469.373 130.573L469.922 130.803L470.489 131.034L471.056 131.264L471.641 131.512L472.244 131.76L472.846 132.009L473.467 132.275L474.104 132.541L474.742 132.824L475.398 133.108L476.072 133.392L476.745 133.693L477.436 134.012L478.127 134.331L478.836 134.65L479.563 134.97L480.289 135.306L481.034 135.643L481.796 135.998L482.558 136.353L483.32 136.725L484.1 137.097L484.897 137.47L485.695 137.86L486.492 138.25L487.29 138.658L488.105 139.065L488.92 139.473L489.735 139.899L490.568 140.324L491.401 140.75L492.234 141.193L493.067 141.636L493.917 142.079L494.768 142.54L495.619 143.002L496.469 143.48L497.32 143.959L498.188 144.438L499.057 144.934L499.925 145.431L500.811 145.945L501.697 146.459L502.583 146.991L503.47 147.523L504.356 148.055L505.259 148.587L506.163 149.136L507.067 149.686L507.989 150.253L508.91 150.803L509.832 151.37L510.753 151.938L511.675 152.505L512.596 153.072L513.518 153.64L514.439 154.207L515.361 154.774L516.282 155.342L517.186 155.909L518.072 156.459L518.958 157.008L519.844 157.558L520.713 158.108L521.581 158.657L522.432 159.189L523.283 159.721L524.115 160.253L524.948 160.785L525.764 161.317L526.579 161.849L527.376 162.363L528.174 162.877L528.971 163.391L529.751 163.906L530.513 164.42L531.275 164.934L532.019 165.43L532.746 165.945L533.455 166.441L534.146 166.92L534.819 167.398L535.475 167.877L536.113 168.338L536.716 168.781L537.3 169.225L537.85 169.65L538.364 170.058L538.842 170.43L539.285 170.785L539.675 171.122L540.012 171.423L540.295 171.689L540.526 171.92L540.685 172.115L540.774 172.274L540.827 172.398L540.863 172.523L540.898 172.647L540.933 172.771L540.969 172.895L541.004 173.019L541.04 173.143L541.075 173.267L541.111 173.409L541.146 173.551L541.199 173.693L541.235 173.852L541.288 174.012L541.323 174.171L541.376 174.331L541.43 174.508L541.483 174.686L541.536 174.881L541.589 175.076L541.642 175.271L541.696 175.466L541.749 175.678L541.82 175.891L541.89 176.122L541.961 176.352L542.032 176.6L542.103 176.849L542.174 177.115L542.245 177.381L542.316 177.647L542.387 177.913L542.458 178.161L542.528 178.409L542.599 178.657L542.652 178.888L542.706 179.118L542.759 179.349L542.812 179.561L542.865 179.792L542.918 180.022L542.971 180.253L543.042 180.501L543.113 180.749L543.184 181.015L543.255 181.281L543.326 181.565L543.397 181.866L543.468 182.185L543.539 182.505L543.627 182.859L543.716 183.214L543.804 183.586L543.893 183.994L543.982 184.419L544.088 184.863L544.194 185.342L544.301 185.838L544.425 186.37L544.549 186.937L544.673 187.522L544.797 188.143L544.921 188.781L545.045 189.437L545.169 190.111L545.293 190.802L545.435 191.494L545.559 192.203L545.701 192.93L545.842 193.693L545.984 194.49L546.144 195.306L546.303 196.139L546.463 196.99L546.622 197.859L546.782 198.746L546.941 199.632L547.101 200.519L547.26 201.405L547.42 202.309L547.579 203.231L547.739 204.189L547.916 205.146L548.093 206.121L548.27 207.114L548.448 208.125L548.642 209.153L548.837 210.199L549.032 211.245L549.227 212.292L549.422 213.355L549.617 214.437L549.794 215.519L549.972 216.6L550.131 217.664L550.291 218.728L550.45 219.774L550.592 220.82L550.734 221.831L550.875 222.841L551.017 223.834L551.141 224.809L551.265 225.784L551.389 226.742L551.513 227.699L551.637 228.639L551.762 229.579L551.868 230.518L551.992 231.458L552.098 232.398L552.222 233.355L552.346 234.313L552.47 235.288L552.594 236.263L552.718 237.274L552.843 238.284L552.949 239.295L553.055 240.323L553.161 241.369L553.268 242.415L553.356 243.461L553.445 244.525L553.534 245.589L553.605 246.653L553.675 247.735L553.746 248.816L553.817 249.898L553.888 250.979L553.941 252.078L553.994 253.16L554.048 254.242L554.101 255.341L554.154 256.44L554.207 257.539L554.26 258.639L554.296 259.756L554.349 260.89L554.384 262.043L554.42 263.213L554.455 264.383L554.491 265.536L554.526 266.67L554.544 267.787L554.562 268.887L554.579 269.968L554.615 271.014L554.65 272.06L554.686 273.089L554.721 274.099L554.757 275.11L554.792 276.121L554.845 277.131L554.898 278.16L554.969 279.188L555.04 280.234L555.111 281.28L555.182 282.326L555.253 283.408L555.324 284.489L555.394 285.571L555.465 286.67L555.536 287.77L555.607 288.869L555.678 289.95L555.749 291.032L555.838 292.096L555.926 293.142L556.015 294.188L556.103 295.216L556.192 296.227L556.298 297.255L556.405 298.284L556.529 299.312L556.653 300.34L556.777 301.369L556.919 302.415L557.06 303.461L557.202 304.489L557.344 305.5L557.486 306.493L557.627 307.468L557.752 308.443L557.875 309.383L558 310.287L558.106 311.174L558.212 312.025L558.301 312.84L558.389 313.638L558.478 314.418L558.549 315.181L558.62 315.908L558.691 316.634L558.762 317.344L558.833 318.053L558.903 318.744L558.974 319.436L559.045 320.11L559.116 320.801L559.169 321.493L559.222 322.184L559.293 322.858L559.346 323.532L559.4 324.205L559.453 324.879L559.506 325.535L559.559 326.191L559.612 326.829L559.648 327.45L559.683 328.053L559.719 328.638L559.754 329.223L559.807 329.79L559.843 330.358L559.878 330.925L559.931 331.493L559.984 332.06L560.038 332.627L560.091 333.212L560.162 333.797L560.232 334.4L560.303 335.003L560.374 335.624L560.445 336.262L560.516 336.882L560.605 337.521L560.693 338.159L560.782 338.797L560.87 339.436L560.959 340.074L561.065 340.712L561.172 341.368L561.278 342.024L561.402 342.698L561.526 343.372L561.65 344.063L561.774 344.772L561.898 345.517L562.04 346.28L562.164 347.06L562.288 347.858L562.43 348.673L562.572 349.507L562.696 350.358L562.82 351.244L562.944 352.131L563.068 353.017L563.192 353.921L563.316 354.843L563.44 355.765L563.564 356.705L563.688 357.662L563.812 358.62L563.936 359.577L564.078 360.535L564.22 361.492L564.362 362.432L564.521 363.372L564.681 364.311L564.84 365.251L565 366.173L565.159 367.113L565.319 368.07L565.478 369.045L565.638 370.038L565.797 371.049L565.957 372.095L566.116 373.159L566.258 374.258L566.382 375.375L566.506 376.492L566.612 377.609L566.719 378.726L566.807 379.825L566.896 380.889L566.984 381.935L567.073 382.964L567.162 383.956L567.25 384.932L567.339 385.871L567.428 386.793L567.516 387.698L567.622 388.602L567.729 389.488L567.853 390.375L567.959 391.261L568.083 392.148L568.207 393.052L568.331 393.956L568.438 394.861L568.544 395.765L568.633 396.669L568.721 397.573L568.81 398.46L568.881 399.346L568.952 400.233L569.023 401.102L569.093 401.953L569.164 402.804L569.235 403.655L569.306 404.506L569.377 405.339L569.448 406.173L569.519 406.988L569.59 407.822L569.678 408.655L569.767 409.506L569.855 410.375L569.944 411.261L570.05 412.183L570.157 413.141L570.263 414.116L570.352 415.109L570.44 416.119L570.529 417.112L570.617 418.105L570.688 419.08L570.759 420.038L570.812 420.995L570.866 421.953L570.919 422.892L570.972 423.832L571.025 424.789L571.078 425.747L571.131 426.722L571.185 427.733L571.256 428.779L571.326 429.843L571.397 430.942L571.468 432.077L571.557 433.229L571.645 434.399L571.752 435.605L571.858 436.811L571.964 438.016L572.088 439.222L572.212 440.427L572.337 441.633L572.478 442.821L572.602 444.009L572.726 445.179L572.85 446.35L572.974 447.52L573.099 448.708L573.223 449.896L573.347 451.101L573.453 452.307L573.577 453.548L573.683 454.789L573.79 456.03L573.896 457.271L574.002 458.513L574.109 459.736L574.215 460.959L574.321 462.165L574.428 463.353L574.534 464.505L574.64 465.64L574.747 466.739L574.835 467.821L574.924 468.867L575.013 469.878L575.101 470.888L575.172 471.881L575.243 472.856L575.314 473.814L575.367 474.754L575.42 475.675L575.473 476.58L575.526 477.466L575.562 478.353L575.597 479.204L575.633 480.055L575.686 480.906L575.721 481.739L575.775 482.572L575.828 483.406L575.881 484.239L575.952 485.09L576.005 485.941L576.076 486.828L576.147 487.75L576.218 488.69L576.288 489.665L576.359 490.675L576.43 491.704L576.501 492.75L576.554 493.814L576.607 494.895L576.643 495.959L576.678 497.005L576.714 498.033L576.749 499.044L576.785 500.055L576.802 501.048L576.82 502.023L576.838 502.998L576.856 503.973L576.891 504.948L576.926 505.923L576.962 506.881L576.997 507.856L577.033 508.831L577.068 509.806L577.121 510.781L577.175 511.774L577.228 512.785L577.281 513.831L577.334 514.895L577.37 515.977L577.405 517.076L577.44 518.211L577.476 519.345L577.511 520.515L577.547 521.703L577.582 522.909L577.618 524.132L577.653 525.374L577.689 526.633L577.724 527.927L577.777 529.239L577.83 530.569L577.883 531.898L577.937 533.21L577.99 534.505L578.025 535.781L578.061 537.058L578.078 538.317V539.593V540.905L578.061 542.253L578.043 543.654L578.008 545.072L577.972 546.526L577.937 548.015L577.901 549.504L577.866 550.994L577.83 552.483L577.795 553.955L577.777 555.409L577.759 556.863V558.317L577.742 559.753V561.207L577.724 562.66L577.706 564.15L577.689 565.674L577.671 567.235L577.635 568.848L577.6 570.533L577.565 572.288L577.511 574.132L577.44 576.064L577.37 578.086L577.299 580.213L577.21 582.412L577.139 584.699L577.05 587.075L576.962 589.54L576.873 592.11L576.785 594.805L576.696 597.642L576.572 600.639L576.43 603.848L576.253 607.305L576.04 611.064L575.792 615.195L575.473 619.717L575.101 624.734L574.676 630.284L574.18 636.419L573.612 643.209L572.957 650.727L572.23 658.989L571.433 667.961L570.547 677.57L569.607 687.641L568.686 697.517L567.888 705.904L567.463 710.159L567.428 710.514L567.41 710.709L567.392 710.921L567.374 711.134L567.357 711.382L567.339 711.631L567.321 711.897L567.303 712.18L567.268 712.482L567.25 712.801L567.215 713.138L567.179 713.492L567.144 713.865L567.109 714.272L567.073 714.698L567.038 715.159L567.002 715.638L566.967 716.152L566.931 716.666L566.896 717.216L566.86 717.783L566.825 718.35L566.79 718.953L566.754 719.556L566.719 720.177L566.683 720.797L566.648 721.435L566.63 722.074L566.612 722.712V723.35V723.971V724.591V725.212L566.63 725.815L566.648 726.418L566.666 727.02L566.683 727.623L566.719 728.226L566.754 728.829L566.79 729.449L566.825 730.088L566.86 730.726L566.914 731.364L566.967 732.003L567.02 732.659L567.073 733.315L567.126 733.953L567.197 734.591L567.268 735.229L567.339 735.868L567.41 736.489L567.481 737.109L567.552 737.73L567.622 738.332L567.693 738.953L567.764 739.556L567.835 740.159L567.906 740.761L567.959 741.347L568.03 741.949L568.101 742.534L568.154 743.12L568.225 743.705L568.296 744.29L568.367 744.875L568.438 745.442L568.509 746.01L568.58 746.577L568.65 747.127L568.721 747.659L568.792 748.19L568.863 748.705L568.934 749.219L569.005 749.715L569.076 750.212L569.147 750.691L569.217 751.169L569.288 751.648L569.359 752.127L569.43 752.605L569.501 753.084L569.572 753.563L569.643 754.041L569.714 754.52L569.785 754.981L569.873 755.442L569.962 755.885L570.05 756.329L570.139 756.772L570.228 757.215L570.334 757.658L570.44 758.084L570.547 758.527L570.671 758.97L570.795 759.431L570.919 759.91L571.06 760.407L571.22 760.921L571.38 761.453L571.539 762.02L571.716 762.588L571.911 763.173L572.106 763.776L572.301 764.378L572.514 764.981L572.726 765.584L572.939 766.169L573.152 766.754L573.364 767.322L573.595 767.889L573.807 768.438L574.038 768.97L574.251 769.502L574.481 770.034L574.711 770.566L574.924 771.08L575.154 771.594L575.367 772.109L575.58 772.623L575.792 773.137L576.005 773.651L576.218 774.148L576.43 774.644L576.625 775.123L576.82 775.602L577.015 776.098L577.192 776.577L577.37 777.073L577.529 777.587L577.689 778.102L577.848 778.633L578.008 779.165L578.167 779.715L578.327 780.282L578.486 780.885L578.646 781.506L578.805 782.144L578.964 782.8L579.124 783.474L579.283 784.165L579.443 784.874L579.602 785.601L579.762 786.346L579.921 787.091L580.081 787.835L580.223 788.58L580.364 789.325L580.489 790.07L580.613 790.814L580.737 791.541L580.861 792.286L580.985 793.031L581.109 793.775L581.215 794.538L581.322 795.3L581.428 796.062L581.516 796.842L581.605 797.64L581.694 798.438L581.782 799.254L581.871 800.069L581.942 800.885L582.013 801.7L582.066 802.516L582.119 803.332L582.154 804.147L582.19 804.945L581.8 806.151Z" fill="white"/>
<g id="Outline">
<path d="M342.165 174.935C339.506 174.243 338.656 170.963 339.967 168.729C341.261 166.991 342.997 165.608 344.362 163.889C358.362 146.016 374.773 129.74 385.813 109.74C391.927 97.985 396.181 85.0773 399.601 72.2938C400.647 68.4995 401.001 64.3506 403.518 61.1768C409.986 52.4358 417.801 58.1804 418.298 67.4002C417.536 78.1093 414.718 88.8539 410.89 98.8893C399.459 125.839 378.051 146.495 356.626 165.697C353.436 168.587 350.263 171.548 346.719 174.013C345.266 175.059 343.813 175.378 342.165 174.935Z" fill="black"/>
<path d="M439.901 172.098C436.587 168.286 432.422 165.697 428.328 162.825C420.07 157.24 410.996 152.328 400.93 151.353C398.839 151.247 396.695 151.265 394.834 152.328C389.269 155.236 383.775 158.25 378.423 161.53C374.046 164.137 369.864 167.062 365.433 169.527C362.19 170.928 358.504 168.232 360.276 164.686C362.491 161.211 366.851 159.828 370.023 157.364C378.264 152.399 385.973 146.105 395.029 142.701C408.781 139.988 422.763 146.229 434.123 153.534C437.384 155.644 440.521 157.931 443.533 160.342C445.731 162.098 448.07 164.172 448.584 167.08C449.382 171.69 443.445 175.112 439.901 172.098Z" fill="black"/>
<path d="M441.69 175.803C438.341 173.977 438.146 169.935 437.189 166.655C436.09 162.257 435.169 157.789 434.478 153.304C431.323 132.754 432.847 111.496 425.369 91.744C423.685 87.0809 421.736 82.3646 419.432 77.9675C417.606 73.9782 414.541 70.6981 412.698 66.7619C411.652 63.4818 415.267 60.5385 418.315 61.8328C423.455 65.042 426.627 70.7335 429.976 75.6448C436.25 85.6625 440.574 96.8325 442.86 108.41C445.642 123.357 444.402 138.676 447.822 153.445C448.761 157.931 449.878 162.346 451.154 166.743C451.916 168.942 452.022 171.318 450.782 173.392C448.956 176.584 444.792 177.594 441.69 175.803Z" fill="black"/>
<path d="M315.865 172.346C310.956 166.814 307.288 160.467 302.184 155.059C288.609 140.219 272.217 128.392 258.021 114.155C245.882 103.162 232.945 92.0099 226.087 76.7796C222.276 68.2158 219.406 58.145 222.525 48.943C223.18 47.2054 224.102 45.5564 225.892 44.7763C229.188 43.3578 232.52 46.5138 231.687 49.8649C230.96 52.6308 231.067 55.5031 231.563 58.2868C235.426 76.9922 250.1 90.1305 264.561 101.247C272.784 108.091 279.288 114.102 287.351 120.502C300.27 131.123 312.959 142.701 322.281 156.672C324.779 160.591 329.316 164.669 326.959 169.704C325.205 174.013 319.357 175.201 315.865 172.346Z" fill="black"/>
<path d="M205.104 203.303C203.793 201.317 204.466 198.888 204.448 196.654C204.431 192.417 204.342 188.161 204.253 183.924C203.775 163.481 203.509 143.038 202.251 122.612C201.507 110.237 199.61 97.985 197.253 85.822C196.438 82.0277 195.924 78.7121 194.382 75.4852C193.656 74.7051 193.142 73.8008 193 72.7015C192.681 70.6271 193.886 68.3931 195.782 67.5598C200.869 63.8364 205.724 59.7761 210.456 55.645C213.947 52.5244 217.314 49.2444 220.788 46.1948C222.737 44.4572 225.289 42.2409 227.965 43.482C230.145 44.404 230.943 47.1699 229.755 49.1735C228.851 50.4501 227.575 51.4429 226.565 52.6485C219.831 60.3967 211.945 66.9747 204.094 73.5527C211.962 101.726 213.185 131.194 214.408 160.272C214.656 173.303 215.649 186.69 214.94 199.651C215.383 205.378 208.383 208.498 205.104 203.303Z" fill="black"/>
<path d="M209.464 202.807C215.613 194.792 222.082 187.062 230.393 181.176C245.421 169.722 260.52 157.435 277.764 149.633C288.857 149.385 299.987 152.08 310.443 155.644C314.253 157.346 320.19 157.754 320.952 162.772C321.536 167.417 315.901 169.349 312.374 167.364C301.865 162.842 290.24 158.463 278.756 158.747C266.953 164.545 255.966 171.743 245.492 179.686C234.062 188.037 223.464 199.225 209.464 202.807Z" fill="black"/>
<path d="M337.008 197.328C319.126 196.016 301.918 189.225 286.359 180.537C279.855 176.796 273.776 172.222 269.381 166.069C268.318 164.669 267.574 163.162 267.893 161.353C268.282 159.084 270.515 157.718 272.713 158.055C274.396 158.304 275.336 159.509 276.363 160.697C279.731 164.704 283.984 167.807 288.521 170.378C305.073 179.154 323.185 187.08 342.253 186.903C377.183 186.14 381.986 162.594 407.859 148.942C405.892 160.094 399.034 169.988 390.492 177.293C376.315 191.016 356.767 198.622 337.008 197.328Z" fill="black"/>
<path d="M1.65751 185.998C0.718255 186.087 0.133409 185.2 0.0802432 184.332C-0.62863 179.793 3.51835 176.974 6.24751 174.048C14.1514 166.211 22.1617 158.41 30.9163 151.531C51.0837 136.3 73.9271 124.935 97.4617 115.928C104.391 112.754 112.047 112.134 119.242 109.669C139.799 103.464 159.878 95.6447 179.496 86.9568C184.529 84.4568 188.127 82.7192 192.663 80.3611C196.19 77.8079 201.666 77.1342 204.094 81.5313C206.486 85.893 203.474 90.1482 199.22 91.6553C192.787 95.0418 186.532 98.6766 179.797 101.46C158.602 110.822 136.024 116.247 114.032 123.304C109.176 125.361 104.497 127.293 99.5352 128.747C79.6513 135.502 60.4054 144.279 42.6658 155.555C34.053 161.016 25.5289 168.233 18.0148 174.669C14.949 177.328 11.8831 179.988 8.90579 182.736C6.99183 184.686 4.47528 186.264 1.65751 185.998Z" fill="black"/>
<path d="M540.383 176.282C537.583 175.537 535.421 173.162 532.958 171.69C524.256 165.733 515.608 159.633 506.127 154.97C483.319 143.375 458.012 136.336 436.781 121.761C431.252 119.474 431.483 111.141 437.579 109.847C439.971 109.297 442.204 110.503 443.977 112.01C451.048 116.939 458.473 120.556 466.129 124.332C483.142 132.772 501.767 137.878 518.089 147.701C526.188 153.623 534.943 160.325 541.978 167.24C543.254 168.445 544.76 169.58 545.133 171.406C545.771 174.172 543.148 176.832 540.383 176.282Z" fill="black"/>
<path d="M563.989 879.378C559.505 874.803 562.908 868.332 560.728 862.977C559.735 859.626 557.768 856.559 557.378 853.048C557.042 849.219 558.69 845.389 559.966 841.86C562.411 834.892 565.353 828.102 567.941 821.187C569.926 815.69 570.847 809.946 570.493 804.113C569.66 792.765 567.604 783.262 564.893 772.624C561.685 760.709 557.768 748.688 558.548 736.188C559.275 718.865 562.447 701.756 564.432 684.557C567.143 660.834 568.703 638.192 569.784 614.629C571.503 577.909 570.989 541.154 570.457 504.417C569.801 469.808 570.085 435.038 565.637 400.659C562.979 382.503 560.622 364.312 558.211 346.139C557.733 340.022 554.348 333.178 558.495 327.752C561.986 328.266 563.776 332.256 564.379 335.447C565.406 340.217 566.381 344.986 567.32 349.756C569.022 358.514 570.368 367.326 571.946 376.103C576.961 401.688 579.779 427.609 580.895 453.655C583.642 527.023 587.293 600.746 579.141 673.901C577.209 698.706 569.802 723.475 572.46 748.44C574.764 759.964 578.786 771.046 581.267 782.535C589.384 817.357 582.827 820.62 571.875 851.435C575.579 858.421 577.528 865.814 576.518 873.74C576.217 879.715 568.525 884.661 563.989 879.378Z" fill="black"/>
<path d="M291.197 930.14C245.049 929.874 198.937 927.002 153.055 922.179C131.966 920.051 110.859 917.853 89.9476 914.395C83.7981 913.562 77.6664 912.427 71.9777 909.874C66.5371 906.984 59.5369 906.044 54.8052 902.179C49.1165 896.364 53.4938 885.992 61.7699 886.311C64.9598 886.47 67.8308 888.137 70.8258 889.094C97.0541 897.303 124.558 900.619 151.637 904.821C174.747 908.42 197.962 911.151 221.266 913.012C260.626 916.062 300.164 917.711 339.63 916.257C394.781 913.261 449.736 905.158 503.415 892.268C525.497 886.577 546.355 880.282 567.037 871.08C571.219 869.325 575.065 875.477 571.007 878.385C568.313 880.442 565.034 881.718 562.518 882.924C520.18 902.286 473.997 910.761 428.399 918.704C383.031 926.026 337.149 930.583 291.197 930.14Z" fill="black"/>
<path d="M54.6635 896.949C47.7875 895.176 46.3342 887.693 44.9874 881.7C40.2202 859.413 52.5192 838.314 54.7876 816.542C55.2484 790.62 42.0633 767.18 37.5442 742.145C33.7163 722.996 40.3088 704.22 43.9772 685.585C49.2406 654.079 50.747 621.987 52.9977 590.161C54.6635 561.757 57.1446 535.055 56.9851 506.97C57.1446 459.559 53.9369 412.219 51.6508 364.879C51.4913 362.113 52.7318 358.479 55.8331 358.337C57.0559 358.514 58.0838 359.383 58.8104 360.341C61.1851 364.383 60.4054 369.525 61.2737 374.028C68.327 433.868 72.1904 495.286 67.6359 555.303C66.2359 578.122 65.2966 601.047 63.7902 623.778C62.1066 648.653 61.2383 673.706 55.9927 698.156C43.5874 744.432 57.0027 748.032 66.8738 789.911C74.7068 822.074 66.413 831.01 59.5724 860.406C58.58 865.85 57.818 871.435 58.6863 876.949C59.8737 882.711 63.4535 888.846 59.9623 894.484C58.9345 896.381 56.8256 897.711 54.6635 896.949Z" fill="black"/>
<path d="M235.125 905.034C192.415 903.314 149.493 898.243 108.113 887.64C97.0187 885.016 85.9958 882.037 75.0437 878.793C67.6359 876.63 60.3523 873.704 54.6458 868.332C54.2914 868.048 51.7217 865.725 52.2711 865.566C56.0104 866.098 59.9801 865.85 63.7017 866.984C72.4031 869.608 80.945 872.782 89.8059 874.91C109.885 880.247 129.574 885.016 149.918 888.438C208.808 898.243 269.169 899.023 328.537 895.707C362.066 893.757 395.472 890.335 428.948 887.622C458.597 885.069 488.334 881.86 516.92 873.225C530.778 869.413 544.442 863.101 559.133 865.176C552.097 873.013 541.907 876.878 531.912 879.467C521.208 882.676 510.451 885.636 499.552 888.119C467.228 895.122 433.982 896.346 401.125 899.112C345.939 903.509 290.541 907.392 235.125 905.034Z" fill="black"/>
<path d="M338.797 180.591C328.732 179.864 310.744 174.828 304.382 166.761C302.68 163.658 304.258 160.644 307.979 160.981C311.488 161.335 314.288 163.871 317.549 165.041C340.003 174.81 356.697 168.942 378.601 162.062C380.196 161.655 381.879 161.087 383.403 160.662C377.289 167.86 369.527 174.137 360.773 177.754C353.808 180.36 346.17 181.034 338.797 180.591Z" fill="black"/>
<path d="M226.264 72.932C221.94 68.1094 226.441 62.0634 228.444 57.2407C231.775 49.2266 233.672 40.7515 234.983 32.2055C235.851 27.4893 235.958 22.6134 237.216 17.968C238.403 13.961 244.783 14.3156 245.439 18.4823C245.811 20.8581 245.9 23.3049 246.006 25.6985C246.325 33.5708 246.414 41.6557 244.429 49.333C242.533 55.8223 235.71 78.2156 226.264 72.932Z" fill="black"/>
<path d="M391.29 80.2724C385.707 75.042 385.3 46.1948 389.695 40.3792C392.672 36.5495 395.295 37.5601 397.244 41.6204C399.424 48.0033 398.237 55.0777 399.53 61.7088C400.735 69.8293 404.368 78.1448 401.586 86.3362C397.598 85.9638 393.7 83.3398 391.29 80.2724Z" fill="black"/>
</g>
</g>
</svg>
