<svg width="591" height="937" viewBox="0 0 591 937" fill="none" xmlns="http://www.w3.org/2000/svg">
<g id="Body / Sweater">
<path id="Skin" d="M416.325 104.172V104.243V104.314V104.385L416.307 104.456L416.289 104.527L416.254 104.616L416.218 104.704L416.183 104.775L416.148 104.864L416.112 104.952L416.059 105.041L416.006 105.13L415.953 105.218L415.899 105.307L415.829 105.396L415.758 105.484L415.687 105.573L415.616 105.662L415.545 105.75L415.474 105.839L415.403 105.928L415.332 106.016L415.262 106.105L415.191 106.194L415.12 106.282L415.049 106.371L414.978 106.442L414.907 106.513L414.836 106.601L414.765 106.672L414.694 106.743L414.624 106.814L414.553 106.885L414.482 106.956L414.411 107.027L414.34 107.098L414.269 107.169L414.198 107.24L414.127 107.311L414.056 107.382L413.986 107.452L413.915 107.523L413.844 107.594L413.773 107.665L413.702 107.736L413.631 107.807L413.543 107.878L413.472 107.949L413.383 108.038L413.259 108.091L413.17 108.179L413.082 108.268L412.993 108.357L412.904 108.445L412.798 108.534L412.692 108.64L412.586 108.747L412.461 108.853L412.337 108.96L412.213 109.084L412.089 109.208L411.948 109.332L411.806 109.456L411.664 109.598L411.505 109.74L411.345 109.882L411.186 110.041L411.008 110.201L410.831 110.36L410.654 110.52L410.459 110.679L410.264 110.857L410.069 111.034L409.874 111.211L409.679 111.389L409.466 111.584L409.254 111.779L409.041 111.974L408.828 112.169L408.598 112.364L408.368 112.577L408.137 112.789L407.907 113.002L407.659 113.215L407.411 113.428L407.163 113.64L406.915 113.871L406.666 114.101L406.418 114.332L406.17 114.58L405.904 114.828L405.639 115.077L405.373 115.325L405.107 115.573L404.841 115.821L404.575 116.069L404.309 116.318L404.044 116.566L403.778 116.832L403.512 117.08L403.246 117.346L402.963 117.594L402.697 117.86L402.431 118.108L402.165 118.357L401.882 118.623L401.616 118.871L401.35 119.119L401.084 119.367L400.818 119.615L400.552 119.864L400.287 120.112L400.021 120.36L399.755 120.608L399.489 120.857L399.223 121.105L398.957 121.353L398.692 121.601L398.426 121.849L398.178 122.08L397.912 122.311L397.646 122.541L397.398 122.772L397.15 123.002L396.902 123.232L396.636 123.463L396.388 123.676L396.14 123.888L395.892 124.101L395.643 124.314L395.395 124.527L395.147 124.74L394.899 124.952L394.651 125.165L394.403 125.378L394.155 125.591L393.889 125.803L393.623 126.016L393.375 126.229L393.109 126.424L392.843 126.637L392.578 126.832L392.312 127.027L392.046 127.222L391.78 127.417L391.514 127.612L391.248 127.807L390.983 128.002L390.699 128.197L390.433 128.392L390.15 128.587L389.866 128.782L389.583 128.977L389.299 129.172L389.016 129.367L388.732 129.562L388.448 129.757L388.165 129.952L387.881 130.147L387.598 130.342L387.314 130.537L387.013 130.732L386.729 130.927L386.428 131.122L386.127 131.317L385.826 131.513L385.524 131.708L385.223 131.903L384.922 132.098L384.603 132.293L384.284 132.488L383.965 132.683L383.646 132.878L383.327 133.073L382.99 133.268L382.671 133.481L382.334 133.676L381.998 133.888L381.643 134.101L381.289 134.314L380.934 134.527L380.58 134.739L380.225 134.952L379.853 135.165L379.481 135.378L379.109 135.59L378.737 135.803L378.365 136.016L377.975 136.229L377.603 136.442L377.213 136.654L376.823 136.867L376.433 137.08L376.043 137.293L375.636 137.505L375.228 137.718L374.82 137.931L374.413 138.144L374.005 138.356L373.597 138.569L373.19 138.782L372.782 138.995L372.375 139.207L371.949 139.42L371.542 139.633L371.117 139.846L370.691 140.059L370.266 140.271L369.84 140.484L369.415 140.697L368.99 140.91L368.565 141.105L368.139 141.3L367.714 141.495L367.289 141.69L366.863 141.885L366.438 142.08L366.03 142.275L365.623 142.47L365.215 142.647L364.808 142.824L364.4 143.002L363.992 143.179L363.585 143.356L363.177 143.516L362.787 143.676L362.397 143.835L362.007 143.995L361.618 144.154L361.245 144.314L360.873 144.456L360.501 144.615L360.129 144.757L359.757 144.899L359.207 145.324L358.853 145.466L358.499 145.59L358.144 145.714L357.79 145.839L357.435 145.963L357.081 146.087L356.726 146.211L356.372 146.335L356.017 146.459L355.681 146.583L355.344 146.69L355.007 146.796L354.671 146.902L354.334 147.009L353.997 147.115L353.66 147.222L353.324 147.328L352.987 147.434L352.65 147.541L352.314 147.629L351.977 147.736L351.64 147.824L351.304 147.913L350.967 148.002L350.63 148.09L350.293 148.179L349.957 148.268L349.62 148.356L349.283 148.445L348.946 148.534L348.61 148.604L348.273 148.693L347.936 148.764L347.6 148.835L347.263 148.906L346.926 148.977L346.589 149.048L346.253 149.119L345.916 149.19L345.562 149.26L345.225 149.331L344.87 149.402L344.516 149.473L344.162 149.527L343.807 149.597L343.453 149.651L343.098 149.704L342.744 149.757L342.372 149.81L342 149.863L341.627 149.917L341.255 149.97L340.883 150.005L340.511 150.058L340.139 150.094L339.767 150.129L339.377 150.165L338.987 150.2L338.597 150.236L338.207 150.271L337.817 150.307L337.427 150.342L337.037 150.378L336.648 150.413L336.24 150.431L335.85 150.466L335.442 150.502L335.035 150.519L334.627 150.555L334.22 150.573L333.812 150.59L333.404 150.608L332.997 150.626L332.589 150.644L332.182 150.661L331.774 150.679H331.366L330.959 150.697H330.551H330.144H329.736H329.328H328.921H328.513H328.088H327.663H327.237H326.812H326.387L325.944 150.679H325.501L325.058 150.661L324.614 150.644L324.171 150.626L323.728 150.608L323.268 150.59L322.807 150.573L322.346 150.537L321.885 150.502L321.407 150.466L320.928 150.431L320.45 150.395L319.971 150.36L319.475 150.324L318.979 150.289L318.483 150.236L317.969 150.183L317.455 150.129L316.923 150.076L316.392 150.023L315.86 149.952L315.311 149.881L314.743 149.81L314.176 149.739L313.609 149.668L313.042 149.58L312.457 149.491L311.872 149.402L311.288 149.314L310.685 149.207L310.083 149.101L309.48 148.995L308.877 148.87L308.275 148.746L307.672 148.622L307.052 148.498L306.432 148.356L305.794 148.214L305.156 148.073L304.518 147.931L303.88 147.771L303.242 147.612L302.604 147.452L301.966 147.292L301.31 147.115L300.655 146.938L299.999 146.761L299.343 146.566L298.687 146.371L298.032 146.175L297.376 145.98L296.703 145.768L296.047 145.555L295.373 145.342L294.7 145.129L294.027 144.899L293.353 144.668L292.68 144.438L292.006 144.207L291.333 143.977L290.659 143.729L289.986 143.481L289.313 143.232L288.657 142.984L288.001 142.736L287.345 142.488L286.69 142.239L286.034 141.991L285.396 141.725L284.758 141.459L284.12 141.193L283.482 140.927L282.862 140.661L282.242 140.395L281.621 140.129L281.019 139.863L280.416 139.598L279.814 139.332L279.211 139.066L278.626 138.8L278.041 138.534L277.457 138.268L276.889 138.002L276.322 137.736L275.755 137.47L275.188 137.204L274.639 136.938L274.09 136.672L273.558 136.406L273.026 136.14L272.495 135.874L271.963 135.608L271.431 135.342L270.917 135.076L270.403 134.81L269.889 134.544L269.393 134.296L268.879 134.03L268.383 133.782L267.887 133.516L267.391 133.268L266.912 133.02L266.434 132.771L265.955 132.505L265.494 132.257L265.034 132.009L264.573 131.761L264.13 131.513L263.687 131.264L263.244 131.016L262.801 130.768L262.358 130.52L261.932 130.271L261.507 130.023L261.099 129.775L260.692 129.527L260.284 129.279L259.877 129.03L259.469 128.782L259.079 128.534L258.689 128.286L258.317 128.037L257.945 127.789L257.573 127.541L257.201 127.293L256.828 127.044L256.474 126.796L256.12 126.548L255.765 126.3L255.411 126.052L255.056 125.803L254.702 125.555L254.365 125.307L254.028 125.059L253.692 124.81L253.355 124.562L253.018 124.314L252.682 124.066L252.363 123.818L252.044 123.569L251.725 123.321L251.406 123.073L251.087 122.825L250.768 122.576L250.449 122.328L250.13 122.08L249.828 121.832L249.509 121.584L249.208 121.353L248.907 121.105L248.606 120.857L248.304 120.626L248.003 120.378L247.702 120.13L247.4 119.899L247.099 119.651L246.816 119.42L246.514 119.19L246.231 118.942L245.947 118.711L245.664 118.481L245.38 118.232L245.097 118.002L244.813 117.754L244.53 117.523L244.246 117.275L243.962 117.027L243.679 116.796L243.395 116.548L243.112 116.3L242.828 116.052L242.545 115.803L242.261 115.555L241.978 115.307L241.694 115.059L241.41 114.811L241.127 114.562L240.843 114.314L240.56 114.066L240.276 113.818L239.993 113.569L239.709 113.321L239.426 113.073L239.142 112.825L238.859 112.577L238.575 112.328L238.291 112.08L238.008 111.832L237.724 111.566L237.441 111.3L237.157 111.034L236.874 110.768L236.59 110.502L236.307 110.236L236.005 109.97L235.704 109.704L235.403 109.438L235.102 109.155L234.8 108.871L234.499 108.587L234.198 108.304L233.896 108.02L233.595 107.736L233.294 107.452L232.975 107.169L232.674 106.885L232.355 106.584L232.053 106.3L231.734 105.999L231.433 105.697L231.114 105.396L230.813 105.094L230.494 104.793L230.193 104.491L229.891 104.19L229.59 103.889L229.289 103.57L228.987 103.268L228.686 102.967L228.385 102.648L228.084 102.346L227.8 102.027L227.517 101.708L227.233 101.406L226.949 101.087L226.666 100.768L226.382 100.467L226.117 100.165L225.833 99.8461L225.567 99.5447L225.301 99.2433L225.036 98.942L224.77 98.6405L224.522 98.3391L224.273 98.0554L224.025 97.7717L223.777 97.4881L223.529 97.2043L223.299 96.9207L223.068 96.6369L222.838 96.371L222.625 96.105L222.413 95.8392L222.2 95.5909L221.987 95.3427L221.775 95.0944L221.562 94.8463L221.367 94.6158L221.172 94.3853L220.977 94.1548L220.8 93.942L220.623 93.7292L220.463 93.5165L220.304 93.3214L220.144 93.1264L220.002 92.9314L219.861 92.7364L219.737 92.559L219.613 92.3817L219.489 92.2044L219.382 92.0448L219.276 91.8852L219.187 91.7257L219.099 91.5661L219.028 91.4066L218.957 91.247L218.886 91.0873L218.833 90.9278L218.797 90.7859L218.762 90.6264L218.744 90.4668L218.727 90.3072V90.1477L218.744 89.9881L218.762 89.8286L218.797 89.6689L218.833 89.5094L218.886 89.3498L218.957 89.1903L219.028 89.0129L219.116 88.8357L219.205 88.6583L219.294 88.481L219.4 88.286L219.506 88.0909L219.63 87.8959L219.754 87.7009L219.878 87.5059L220.02 87.3109L220.162 87.1158L220.321 86.9208L220.481 86.708L220.64 86.513L220.8 86.3002L220.977 86.0875L221.154 85.8746L221.332 85.6619L221.527 85.4491L221.721 85.2364L221.916 85.0236L222.111 84.7931L222.324 84.5803L222.537 84.3498L222.749 84.1193L222.962 83.8712L223.192 83.6229L223.423 83.3747L223.671 83.1264L223.919 82.8783L224.167 82.6123L224.415 82.3463L224.681 82.0804L224.947 81.7967L225.213 81.513L225.479 81.2293L225.762 80.9456L226.046 80.662L226.329 80.3783L226.613 80.0946L226.896 79.8109L227.18 79.5095L227.463 79.2257L227.747 78.9244L228.031 78.623L228.314 78.3216L228.598 78.0201L228.881 77.7187L229.165 77.3996L229.448 77.0804L229.732 76.7613L230.015 76.4422L230.299 76.1229L230.582 75.8038L230.866 75.4847L231.149 75.1655L231.433 74.8464L231.717 74.5095L232 74.1904L232.284 73.8535L232.567 73.5166L232.851 73.1798L233.134 72.8429L233.4 72.506L233.666 72.1691L233.932 71.8145L234.198 71.46L234.463 71.1053L234.729 70.7507L234.995 70.3961L235.243 70.0415L235.491 69.6869L235.739 69.3323L235.988 68.9599L236.236 68.5876L236.484 68.2153L236.732 67.8429L236.98 67.4706L237.228 67.0983L237.476 66.7259L237.724 66.3359L237.955 65.9635L238.185 65.5912L238.415 65.2011L238.628 64.8111L238.859 64.4387L239.071 64.0486L239.284 63.6586L239.496 63.2685L239.709 62.8784L239.904 62.4884L240.099 62.0983L240.294 61.7083L240.489 61.3182L240.684 60.9282L240.879 60.538L241.056 60.1303L241.233 59.7401L241.41 59.3324L241.588 58.9246L241.747 58.5168L241.907 58.109L242.066 57.7012L242.226 57.2934L242.385 56.8856L242.527 56.4778L242.686 56.0523L242.828 55.6444L242.97 55.2189L243.112 54.7934L243.254 54.3679L243.395 53.9424L243.519 53.5168L243.643 53.0913L243.767 52.6658L243.891 52.2403L244.016 51.797L244.14 51.3537L244.264 50.9105L244.388 50.4672L244.512 50.024L244.636 49.5807L244.76 49.1375L244.884 48.6942L245.008 48.2509L245.132 47.8077L245.238 47.3644L245.345 46.9212L245.451 46.4779L245.557 46.0346L245.664 45.5914L245.752 45.1481L245.859 44.7049L245.947 44.2616L246.036 43.8184L246.124 43.3751L246.213 42.9318L246.302 42.4886L246.39 42.0453L246.479 41.6021L246.567 41.1588L246.638 40.7155L246.709 40.2723L246.78 39.829L246.851 39.3858L246.922 38.9425L246.993 38.4993L247.064 38.056L247.135 37.6305L247.188 37.1872L247.241 36.7617L247.294 36.3362L247.33 35.9106L247.383 35.4851L247.418 35.0596L247.454 34.6341L247.489 34.2086L247.525 33.783L247.542 33.3574L247.56 32.9319L247.578 32.5242V32.1164L247.595 31.7085V31.3008V30.893V30.4851V30.0774V29.6696V29.2617L247.578 28.854V28.4462L247.56 28.0383L247.542 27.6483L247.525 27.2582L247.507 26.8682L247.489 26.4958L247.471 26.1235L247.436 25.7512L247.4 25.3788L247.365 25.0243L247.33 24.6696L247.294 24.315L247.259 23.9604L247.223 23.6235L247.188 23.2866L247.152 22.9675L247.117 22.6484L247.081 22.3292L247.773 16.4427L247.808 16.425L248.18 16.2122L248.889 15.8222L249.74 15.3612L250.661 14.9002L251.618 14.4392L252.593 13.9959L253.585 13.5704L254.578 13.1803L255.57 12.808L256.58 12.4534L257.608 12.1343L258.672 11.8152L259.77 11.5138L260.904 11.23L262.074 10.9464L263.279 10.6626L264.52 10.3968L265.796 10.1485L267.089 9.90025L268.419 9.652L269.748 9.4215L271.077 9.19099L272.406 8.97824L273.717 8.78323L275.011 8.58822L276.287 8.41096L277.563 8.25134L278.821 8.09172L280.08 7.94996L281.32 7.80809L282.56 7.68396L283.819 7.57758L285.077 7.47121L286.353 7.38258L287.647 7.29395L288.976 7.20521L290.34 7.13433L291.74 7.06344L293.194 6.99245L294.665 6.92157L296.153 6.85069L297.642 6.79744L299.095 6.76195L300.53 6.72656H301.948L303.348 6.74431L304.748 6.7797L306.148 6.83294L307.566 6.90382L308.984 6.99245L310.402 7.08119L311.802 7.18757L313.184 7.29395L314.566 7.40032L315.948 7.5067L317.331 7.61308L318.713 7.70171L320.078 7.79034L321.442 7.87897L322.807 7.98535L324.171 8.10947L325.518 8.2336L326.847 8.37547L328.159 8.53498L329.452 8.71235L330.728 8.88961L331.987 9.08462L333.209 9.27973L334.415 9.47474L335.602 9.66975L336.789 9.8825L337.977 10.0953L339.182 10.308L340.387 10.5208L341.574 10.7336L342.744 10.9464L343.896 11.1769L345.03 11.4073L346.146 11.6378L347.245 11.886L348.326 12.152L349.407 12.4179L350.488 12.7017L351.534 12.9853L352.579 13.2868L353.59 13.5882L354.564 13.9073L355.521 14.2265L356.443 14.5456L357.329 14.8647L358.197 15.1839L359.048 15.5031L359.899 15.8222L360.731 16.1414L361.564 16.4782L362.397 16.8151L363.213 17.152L364.028 17.4889L364.808 17.808L365.57 18.1271L366.296 18.4285L367.005 18.7299L367.696 19.0137L368.37 19.2973L369.008 19.581L369.646 19.8647L370.248 20.1484L370.851 20.4321L371.435 20.7157L372.02 20.9994L372.623 21.2831L373.225 21.5846L373.863 21.886L374.501 22.2051L375.139 22.5242L375.76 22.8434L376.362 23.1449L376.947 23.4462L377.514 23.7299L378.046 23.9959L378.56 24.2618L379.038 24.51L379.481 24.7405L379.906 24.9533L380.314 25.166L380.686 25.3611L381.041 25.5562L381.377 25.7334L381.696 25.9108L381.998 26.0703L382.281 26.2299L382.565 26.3894L382.848 26.549L383.132 26.7086L383.433 26.8859L383.734 27.0809L384.053 27.2759L384.372 27.4711L384.709 27.6838L385.046 27.8966L385.4 28.1093L385.737 28.3221L386.074 28.5348L386.393 28.7298L386.712 28.9248L387.013 29.12L387.314 29.315L387.598 29.4922L387.864 29.6696L388.129 29.8291L388.378 29.9887L388.608 30.1306L388.821 30.2724L389.033 30.4142L389.246 30.5561L389.459 30.6979L389.653 30.822L389.866 30.9461L390.079 31.088L390.292 31.2299L390.504 31.3716L390.717 31.5135L390.929 31.6554L391.142 31.7971L391.355 31.939L391.55 32.0631L391.745 32.1873L391.94 32.3114L392.117 32.4355L392.294 32.5419L392.454 32.666L392.613 32.7724L392.755 32.8788L392.897 32.9674L393.021 33.056L393.145 33.1447L393.269 33.2334L393.393 33.322L393.499 33.4107L393.605 33.4816L393.712 33.5702L393.8 33.6412L393.889 33.7121L393.978 33.783L394.066 33.8539L394.155 33.9248L394.243 33.9958L394.314 34.0667L394.385 34.1376L394.456 34.2086L394.527 34.2794L394.598 34.3503L394.669 34.4213L394.74 34.4922L394.811 34.5632L394.881 34.6341L394.952 34.7049L395.005 34.7759L395.076 34.8468L395.13 34.9177L395.183 34.9887L395.236 35.0596L395.289 35.1305L395.342 35.2014L395.395 35.2723L395.449 35.3432L395.502 35.4142L395.555 35.4851L395.608 35.5561L395.661 35.627L395.697 35.6978L395.75 35.7688L395.785 35.822L395.838 35.893L395.874 35.9638L395.927 36.0347L395.98 36.1057L396.016 36.1766L396.069 36.2475L396.122 36.3185L396.157 36.3893L396.193 36.4602L396.228 36.5312L396.264 36.6021L396.299 36.7085L396.335 36.8504L396.37 37.0454L396.405 37.2581L396.441 37.5064L396.476 37.7724L396.512 38.056L396.547 38.3751L396.583 38.6943L396.618 39.0489L396.654 39.4213L396.689 39.7935L396.724 40.1837L396.76 40.5914L396.795 40.9992L396.831 41.4248L396.866 41.8681L396.902 42.3113L396.937 42.7546L396.973 43.2155L397.008 43.6765L397.044 44.1552L397.079 44.6162L397.114 45.0949L397.15 45.5736L397.185 46.0524L397.221 46.5311L397.256 47.0098L397.292 47.4885L397.327 47.9673L397.345 48.4459L397.363 48.9247L397.38 49.4035L397.398 49.8643V50.3254L397.416 50.7864V51.2474V51.7084V52.1516V52.6126V53.0559V53.4991V53.9424V54.3857V54.8289V55.2722V55.7154V56.1587L397.433 56.602L397.451 57.0275L397.469 57.4707L397.487 57.8962L397.504 58.3217L397.522 58.765L397.54 59.1905L397.557 59.616L397.575 60.0416L397.611 60.4671L397.628 60.8927L397.664 61.3182L397.699 61.7437L397.735 62.1692L397.77 62.5948L397.806 63.0203L397.841 63.4458L397.876 63.8713L397.912 64.2969L397.947 64.7224L397.983 65.148L398.018 65.5735L398.054 65.999L398.089 66.4245L398.125 66.85L398.16 67.2755L398.213 67.6834L398.249 68.1089L398.302 68.5344L398.355 68.9422L398.408 69.3677L398.479 69.7756L398.532 70.1833L398.603 70.5911L398.674 70.999L398.745 71.4067L398.816 71.8145L398.887 72.2224L398.975 72.6301L399.046 73.0379L399.135 73.4458L399.223 73.8535L399.312 74.2613L399.4 74.6692L399.489 75.0769L399.578 75.4847L399.666 75.8925L399.755 76.3003L399.861 76.7081L399.968 77.1159L400.074 77.5237L400.18 77.9315L400.304 78.3392L400.411 78.7471L400.535 79.1549L400.659 79.5626L400.783 79.9705L400.907 80.3783L401.031 80.786L401.155 81.1939L401.279 81.6017L401.403 81.9918L401.545 82.3818L401.669 82.7718L401.811 83.1619L401.952 83.5519L402.094 83.9243L402.236 84.2967L402.378 84.669L402.537 85.0413L402.697 85.396L402.856 85.7506L403.016 86.1051L403.175 86.442L403.335 86.7789L403.512 87.1158L403.689 87.4349L403.866 87.7541L404.044 88.0733L404.221 88.3746L404.398 88.676L404.575 88.9774L404.752 89.2612L404.93 89.5448L405.107 89.8286L405.284 90.0944L405.461 90.3604L405.639 90.6264L405.816 90.8746L405.993 91.1228L406.17 91.3711L406.348 91.6193L406.525 91.8675L406.702 92.098L406.861 92.3285L407.039 92.559L407.198 92.7717L407.358 92.9845L407.517 93.1972L407.677 93.41L407.836 93.6229L407.996 93.8179L408.155 94.0129L408.315 94.2079L408.456 94.403L408.598 94.598L408.74 94.793L408.882 94.9703L409.023 95.1476L409.147 95.3249L409.272 95.5023L409.396 95.6618L409.52 95.8214L409.644 95.9809L409.768 96.1405L409.892 96.3L410.016 96.4597L410.14 96.6193L410.264 96.7788L410.388 96.9384L410.512 97.0802L410.618 97.2221L410.742 97.3639L410.849 97.5058L410.955 97.6476L411.061 97.7894L411.168 97.9313L411.274 98.0731L411.38 98.1972L411.487 98.3391L411.593 98.4632L411.699 98.6051L411.806 98.7291L411.912 98.8532L412.018 98.9773L412.125 99.1015L412.231 99.2256L412.32 99.3497L412.426 99.4738L412.515 99.598L412.621 99.7221L412.71 99.8461L412.798 99.9702L412.887 100.094L412.975 100.218L413.064 100.325L413.153 100.431L413.241 100.538L413.33 100.644L413.418 100.75L413.507 100.839L413.596 100.945L413.684 101.034L413.755 101.123L413.844 101.211L413.915 101.3L414.003 101.389L414.074 101.477L414.145 101.566L414.216 101.655L414.287 101.743L414.358 101.814L414.429 101.885L414.499 101.956L414.57 102.027L414.641 102.098L414.712 102.169L414.783 102.24L414.854 102.311L414.925 102.382L414.996 102.453L415.067 102.523L415.137 102.594L415.208 102.665L415.279 102.736L415.35 102.807L415.421 102.878L415.492 102.949L415.563 103.02L415.634 103.091L415.705 103.162L415.775 103.233L415.846 103.304L415.899 103.375L415.97 103.445L416.024 103.516L416.094 103.587L416.148 103.658L416.201 103.729L416.254 103.8L416.307 103.871L416.343 103.942L416.378 104.013L416.413 104.084L416.449 104.155L416.484 104.226L416.52 104.296L416.538 104.367L416.555 104.438L416.325 104.172Z" fill="#B7B5B5"/>
<path id="Clothing 1" d="M582.094 506.597L582.111 507.448V508.299L582.094 509.133L582.076 509.966L582.04 510.817L582.005 511.668L581.952 512.537L581.916 513.406L581.863 514.292L581.828 515.197L581.792 516.119L581.775 517.076L581.757 518.033V519.009V519.984L581.775 520.959L581.81 521.952L581.845 522.945L581.881 523.938L581.916 524.913L581.934 525.888L581.952 526.828V527.767V528.707L581.934 529.629L581.899 530.533L581.863 531.438L581.81 532.36L581.757 533.317L581.686 534.328L581.633 535.374L581.58 536.473L581.544 537.608L581.509 538.778L581.491 539.948L581.473 541.118V542.289V543.441L581.491 544.558L581.509 545.657L581.526 546.757L581.544 547.856V548.937V550.019L581.526 551.1L581.509 552.182L581.473 553.264L581.42 554.363L581.367 555.462L581.296 556.597L581.225 557.767L581.154 558.991L581.101 560.267L581.066 561.597L581.048 562.98L581.03 564.38V565.781V567.129V568.459L581.012 569.753L580.995 571.029L580.977 572.288L580.959 573.529L580.942 574.735L580.906 575.905L580.871 577.058L580.835 578.175L580.8 579.274L580.764 580.373L580.729 581.508L580.676 582.678L580.623 583.884L580.569 585.107L580.534 586.348L580.498 587.643L580.463 588.972L580.428 590.32L580.392 591.685L580.357 593.05L580.339 594.416L580.321 595.781V597.111V598.405L580.339 599.682L580.357 600.94L580.374 602.182V603.387V604.575L580.357 605.728L580.321 606.862L580.268 607.979L580.215 609.114L580.162 610.249L580.091 611.437L580.038 612.678L579.985 613.955L579.949 615.284L579.914 616.632L579.878 617.997L579.843 619.38L579.807 620.763L579.772 622.146L579.736 623.511L579.701 624.876L579.666 626.206L579.648 627.5L579.63 628.759V629.983V631.171V632.341V633.458V634.557V635.639L579.612 636.72L579.595 637.802L579.559 638.901L579.506 640.036L579.453 641.188L579.382 642.376L579.293 643.6L579.205 644.858L579.099 646.135L578.992 647.429L578.868 648.742L578.726 650.071L578.585 651.419L578.425 652.819L578.248 654.291L578.035 655.851L577.787 657.571L577.486 659.521L577.114 661.773L576.653 664.415L576.086 667.553L575.395 671.294L574.544 675.78L573.516 681.17L572.276 687.571L570.822 695.053L569.139 703.617L567.278 713.12L565.346 723.067L563.698 731.648L562.848 736.205L562.741 736.79L562.706 737.056L562.67 737.322L562.635 737.606L562.599 737.889L562.564 738.173L562.529 738.457L562.493 738.723L562.458 738.989L562.422 739.237L562.387 739.485L562.351 739.733L562.316 739.964L562.281 740.194L562.245 740.425L562.21 740.655L562.174 740.904L562.139 741.152L562.103 741.4L562.068 741.666L562.032 741.932L561.979 742.198L561.926 742.464L561.873 742.73L561.82 742.996L561.749 743.262L561.696 743.528L561.625 743.794L561.554 744.059L561.483 744.343L561.412 744.627L561.341 744.911L561.27 745.194L561.217 745.496L561.146 745.797L561.093 746.116L561.04 746.435L560.987 746.755L560.951 747.074L560.898 747.411L560.863 747.747L560.827 748.084L560.792 748.439L560.756 748.794L560.739 749.148L560.721 749.503L560.703 749.857L560.685 750.212L560.668 750.567L560.65 750.921V751.276L560.632 751.613V751.95L560.615 752.269L560.597 752.588V752.907L560.579 753.244V753.581L560.561 753.935V754.308V754.68V755.07V755.478V755.903V756.329V756.754L560.579 757.18L560.597 757.588L560.615 757.996L560.632 758.386L560.668 758.758L560.703 759.13L560.739 759.503L560.774 759.875L560.827 760.247L560.898 760.62L560.969 760.992L561.058 761.382L561.146 761.79L561.235 762.198L561.341 762.606L561.465 763.031L561.589 763.457L561.731 763.882L561.873 764.308L562.032 764.715L562.192 765.123L562.369 765.513L562.564 765.886L562.759 766.258L562.954 766.613L563.149 766.949L563.344 767.269L563.539 767.588L563.734 767.889L563.929 768.191L564.124 768.492L564.318 768.793L564.513 769.112L564.726 769.432L564.939 769.768L565.151 770.123L565.364 770.495L565.594 770.868L565.843 771.276L566.091 771.683L566.357 772.109L566.64 772.552L566.924 773.013L567.207 773.492L567.491 773.971L567.792 774.449L568.093 774.946L568.395 775.442L568.696 775.921L568.997 776.417L569.298 776.896L569.6 777.375L569.883 777.854L570.167 778.315L570.45 778.758L570.734 779.219L571.017 779.662L571.301 780.105L571.584 780.549L571.868 780.992L572.152 781.453L572.435 781.914L572.719 782.393L573.002 782.871L573.286 783.35L573.552 783.846L573.817 784.361L574.083 784.875L574.331 785.407L574.579 785.956L574.827 786.524L575.076 787.091L575.306 787.676L575.536 788.261L575.749 788.864L575.962 789.467L576.174 790.07L576.369 790.673L576.564 791.275L576.741 791.878L576.901 792.481L577.06 793.102L577.22 793.722L577.379 794.361L577.539 794.999L577.698 795.637L577.84 796.275L578 796.914L578.142 797.57L578.301 798.226L578.461 798.882L578.62 799.538L578.78 800.176L578.939 800.797L579.099 801.399L579.258 801.984L579.417 802.552L579.559 803.102L579.701 803.651L579.843 804.183L579.985 804.715L580.126 805.229L580.25 805.761L580.374 806.275L580.498 806.789L580.623 807.304L580.747 807.818L580.871 808.314L580.977 808.793L581.083 809.254L581.172 809.697L581.243 810.123L581.314 810.513L581.367 810.903L581.402 811.275L581.438 811.648L581.456 812.002L581.473 812.357V812.729V813.101V813.474V813.864L581.456 814.254L581.438 814.662L581.42 815.07L581.385 815.513L581.349 815.956L581.314 816.399L581.278 816.843L581.225 817.304L581.172 817.765L581.119 818.243L581.048 818.722L580.977 819.183L580.906 819.644L580.835 820.087L580.764 820.53L580.693 820.974L580.623 821.399L580.552 821.825L580.481 822.25L580.41 822.694L580.339 823.137L580.268 823.598L580.197 824.076L580.126 824.555L580.055 825.034L579.985 825.513L579.914 825.991L579.843 826.47L579.772 826.931L579.701 827.392L579.63 827.835L579.559 828.279L579.471 828.722L579.382 829.183L579.293 829.661L579.205 830.14L579.116 830.637L579.028 831.151L578.939 831.665L578.833 832.197L578.726 832.711L578.62 833.225L578.514 833.722L578.407 834.218L578.319 834.697L578.23 835.158L578.142 835.619L578.053 836.062L577.964 836.505L577.876 836.949L577.787 837.392L577.698 837.835L577.61 838.278L577.521 838.722L577.433 839.183L577.344 839.661L577.238 840.14L577.149 840.619L577.043 841.08L576.954 841.541L576.866 841.966L576.777 842.374L576.688 842.764L576.6 843.137L576.511 843.509L576.422 843.881L576.334 844.254L576.245 844.608L576.157 844.963L576.068 845.335L575.979 845.708L575.891 846.08L575.785 846.47L575.696 846.86L575.59 847.268L575.501 847.693L575.412 848.101L575.324 848.527L575.235 848.952L575.147 849.36L575.076 849.768L575.005 850.158L574.934 850.566L574.863 850.973L574.792 851.381L574.721 851.789L574.65 852.197L574.597 852.622L574.544 853.048L574.491 853.473L574.455 853.917L574.42 854.36L574.384 854.803L574.349 855.246L574.331 855.69L574.314 856.133L574.296 856.576L574.278 857.002L574.26 857.427L574.243 857.835L574.225 858.243L574.207 858.651L574.19 859.059L574.154 859.466L574.119 859.874L574.101 860.3L574.065 860.725L574.03 861.168L574.012 861.612L573.977 862.055L573.959 862.498L573.941 862.959L573.924 863.42L573.906 863.881L573.888 864.342L573.871 864.803L573.853 865.264L573.835 865.725L573.817 866.168L573.8 866.612L573.782 867.037L573.746 867.445L573.729 867.853L573.693 868.26L573.658 868.668L573.622 869.058L573.587 869.431L573.552 869.803L573.516 870.175L573.481 870.53L573.445 870.885L573.392 871.221L573.339 871.541L573.286 871.842L573.215 872.126L573.144 872.392L573.073 872.64L572.984 872.87L572.896 873.083L572.807 873.296L572.719 873.491L572.63 873.686L572.541 873.863L572.435 874.041L572.329 874.218L572.222 874.395L572.116 874.555L571.992 874.714L571.868 874.874L571.744 875.034L571.62 875.193L571.478 875.353L571.336 875.512L571.177 875.672L571.017 875.831L570.858 875.991L570.681 876.15L570.503 876.31L570.308 876.47L570.114 876.629L569.901 876.789L569.688 876.948L569.458 877.108L569.227 877.285L568.979 877.463L568.714 877.64L568.43 877.817L568.146 878.012L567.827 878.207L567.508 878.402L567.172 878.615L566.817 878.828L566.445 879.04L566.038 879.271L565.63 879.501L565.187 879.732L564.726 879.98L564.248 880.228L563.769 880.477L563.255 880.725L562.741 880.973L562.21 881.221L561.66 881.487L561.093 881.753L560.526 882.037L559.941 882.321L559.356 882.604L558.754 882.906L558.151 883.207L557.531 883.508L556.893 883.828L556.255 884.147L555.617 884.466L554.979 884.785L554.341 885.086L553.703 885.388L553.083 885.689L552.445 885.991L551.807 886.292L551.151 886.611L550.478 886.931L549.769 887.267L549.024 887.622L548.245 887.977L547.412 888.349L546.526 888.739L545.569 889.147L544.541 889.572L543.442 890.016L542.255 890.494L540.979 890.991L539.614 891.505L538.161 892.037L536.637 892.604L535.06 893.172L533.394 893.774L531.675 894.395L529.867 895.033L527.989 895.707L526.039 896.398L523.984 897.125L521.804 897.888L519.5 898.703L517.037 899.572L514.414 900.494L511.614 901.469L508.619 902.516L505.429 903.65L502.044 904.838L498.5 906.097L494.884 907.374L491.269 908.65L487.973 909.82L486.272 910.423L486.201 910.459L485.935 910.529L485.651 910.583L485.368 910.636L485.084 910.689L484.801 910.742L484.499 910.795L484.18 910.849L483.844 910.92L483.489 910.99L483.117 911.061L482.745 911.132L482.355 911.203L481.947 911.274L481.522 911.345L481.079 911.434L480.618 911.522L480.14 911.611L479.661 911.7L479.165 911.788L478.669 911.895L478.155 912.001L477.641 912.107L477.109 912.232L476.578 912.356L476.046 912.48L475.514 912.604L474.983 912.728L474.451 912.852L473.937 912.976L473.423 913.1L472.927 913.224L472.413 913.349L471.899 913.49L471.368 913.632L470.836 913.774L470.269 913.934L469.666 914.093L469.064 914.253L468.443 914.413L467.805 914.572L467.167 914.732L466.529 914.891L465.891 915.051L465.271 915.21L464.669 915.352L464.066 915.494L463.481 915.636L462.914 915.76L462.347 915.884L461.78 916.008L461.213 916.132L460.628 916.274L460.043 916.416L459.458 916.558L458.856 916.7L458.236 916.842L457.615 916.983L456.977 917.143L456.339 917.285L455.701 917.427L455.081 917.569L454.479 917.71L453.876 917.834L453.274 917.959L452.689 918.083L452.104 918.207L451.537 918.331L450.97 918.455L450.385 918.579L449.782 918.703L449.18 918.827L448.542 918.951L447.904 919.076L447.23 919.2L446.557 919.342L445.866 919.466L445.175 919.59L444.483 919.732L443.792 919.856L443.083 919.998L442.375 920.122L441.666 920.263L440.957 920.405L440.23 920.547L439.504 920.689L438.777 920.831L438.05 920.973L437.324 921.115L436.633 921.256L435.942 921.38L435.25 921.505L434.559 921.629L433.868 921.771L433.159 921.895L432.45 922.036L431.724 922.161L430.997 922.285L430.253 922.409L429.491 922.533L428.729 922.657L427.949 922.781L427.152 922.905L426.354 923.029L425.557 923.153L424.741 923.278L423.926 923.402L423.111 923.526L422.313 923.632L421.516 923.739L420.719 923.845L419.921 923.951L419.124 924.058L418.326 924.164L417.511 924.27L416.696 924.395L415.881 924.501L415.048 924.625L414.215 924.749L413.399 924.873L412.584 924.98L411.769 925.086L410.972 925.192L410.174 925.299L409.394 925.405L408.615 925.512L407.835 925.618L407.073 925.707L406.311 925.813L405.549 925.902L404.804 925.99L404.078 926.097L403.351 926.203L402.625 926.31L401.916 926.416L401.207 926.522L400.498 926.629L399.807 926.753L399.116 926.859L398.424 926.983L397.751 927.09L397.095 927.214L396.457 927.32L395.819 927.427L395.199 927.533L394.579 927.639L393.959 927.746L393.338 927.852L392.7 927.958L392.062 928.047L391.424 928.136L390.769 928.224L390.113 928.313L389.44 928.402L388.766 928.49L388.075 928.579L387.384 928.65L386.675 928.721L385.948 928.792L385.222 928.863L384.495 928.934L383.751 929.005L383.024 929.076L382.298 929.146L381.571 929.217L380.862 929.288L380.171 929.359L379.48 929.43L378.789 929.501L378.098 929.572L377.389 929.643L376.662 929.714L375.918 929.785L375.156 929.856L374.394 929.927L373.614 929.998L372.816 930.068L372.019 930.122L371.222 930.175L370.424 930.21L369.627 930.246L368.847 930.281L368.085 930.299L367.34 930.317L366.614 930.334L365.923 930.352L365.232 930.37L364.54 930.388L363.831 930.405L363.123 930.423L362.378 930.441L361.616 930.458L360.836 930.476L360.021 930.494L359.188 930.512L358.338 930.529L357.487 930.547H356.636H355.786H354.971H354.173L353.376 930.529H352.596L351.834 930.512L351.089 930.494L350.345 930.476L349.601 930.458L348.874 930.441L348.148 930.423H347.421H346.677H345.915H345.153H344.373L343.575 930.441L342.76 930.458L341.945 930.476L341.094 930.494L340.244 930.512L339.393 930.547L338.542 930.565L337.692 930.583L336.859 930.6L336.044 930.618L335.246 930.636L334.466 930.654L333.704 930.671H332.96H332.234H331.507H330.78H330.054H329.327L328.565 930.689L327.785 930.707L326.988 930.724L326.173 930.742L325.34 930.76L324.507 930.795L323.656 930.813L322.805 930.849L321.955 930.884L321.104 930.902L320.271 930.919L319.456 930.937L318.659 930.955L317.861 930.973H317.081L316.319 930.99H315.557H314.813H314.069H313.324H312.58L311.836 930.973L311.091 930.955L310.365 930.937L309.638 930.919L308.912 930.902L308.185 930.866L307.458 930.849L306.732 930.813L306.023 930.778L305.314 930.742L304.605 930.724L303.896 930.689L303.187 930.671L302.461 930.636L301.734 930.6L301.008 930.583L300.299 930.547L299.59 930.529L298.881 930.494L298.172 930.476L297.446 930.441L296.737 930.423L296.045 930.388L295.354 930.352L294.663 930.317L293.972 930.281L293.281 930.246L292.59 930.21L291.881 930.175L291.154 930.139L290.428 930.104L289.701 930.068L288.939 930.033L288.177 929.998L287.397 929.98L286.618 929.962L285.82 929.944L285.04 929.927L284.278 929.909L283.516 929.891L282.772 929.873L282.045 929.856L281.319 929.838L280.61 929.82L279.901 929.802L279.192 929.785L278.483 929.767H277.792L277.083 929.749L276.392 929.732L275.701 929.714H275.01L274.319 929.696L273.627 929.678L272.954 929.661L272.281 929.643L271.625 929.625L270.987 929.607L270.349 929.59L269.711 929.554L269.073 929.536L268.417 929.501L267.762 929.466L267.088 929.43L266.415 929.395L265.723 929.359L265.032 929.306L264.323 929.253L263.615 929.2L262.888 929.146L262.179 929.093L261.453 929.04L260.744 928.987L260.052 928.934L259.361 928.88L258.67 928.827L257.979 928.774L257.306 928.721L256.614 928.65L255.941 928.579L255.268 928.508L254.594 928.437L253.921 928.366L253.247 928.295L252.556 928.224L251.865 928.136L251.174 928.047L250.465 927.958L249.756 927.87L249.047 927.781L248.338 927.693L247.63 927.604L246.938 927.515L246.265 927.427L245.609 927.338L244.971 927.249L244.333 927.161L243.713 927.09L243.11 927.019L242.49 926.948L241.87 926.877L241.232 926.806L240.594 926.735L239.956 926.664L239.336 926.593L238.715 926.54L238.113 926.487L237.528 926.434L236.943 926.38L236.376 926.327L235.809 926.274L235.242 926.221L234.675 926.168L234.108 926.115L233.541 926.061L232.974 926.008L232.389 925.955L231.786 925.902L231.184 925.849L230.581 925.795L229.979 925.742L229.376 925.689L228.773 925.618L228.171 925.565L227.586 925.494L227.001 925.441L226.416 925.37L225.832 925.299L225.247 925.246L224.644 925.175L224.042 925.104L223.439 925.051L222.837 924.98L222.216 924.909L221.596 924.838L220.958 924.767L220.32 924.696L219.682 924.625L219.044 924.554L218.406 924.483L217.768 924.395L217.148 924.324L216.528 924.253L215.925 924.164L215.34 924.093L214.773 924.005L214.224 923.934L213.692 923.863L213.161 923.792L212.629 923.721L212.097 923.65L211.548 923.579L210.998 923.508L210.431 923.437L209.864 923.366L209.297 923.295L208.73 923.224L208.181 923.153L207.631 923.083L207.1 923.012L206.586 922.941L206.072 922.87L205.593 922.799L205.115 922.728L204.672 922.657L204.246 922.586L203.839 922.533L203.431 922.462L203.024 922.391L202.634 922.338L202.244 922.267L201.854 922.196L201.446 922.125L201.039 922.054L200.613 921.983L200.17 921.912L199.71 921.841L199.231 921.771L198.753 921.7L198.274 921.629L197.796 921.558L197.3 921.487L196.821 921.416L196.343 921.345L195.864 921.274L195.386 921.203L194.907 921.132L194.429 921.061L193.968 920.99L193.489 920.919L193.011 920.849L192.532 920.76L192.054 920.671L191.558 920.583L191.044 920.494L190.53 920.405L189.998 920.317L189.449 920.228L188.882 920.139L188.315 920.051L187.73 919.962L187.145 919.856L186.542 919.767L185.94 919.661L185.337 919.554L184.735 919.448L184.132 919.324L183.53 919.2L182.909 919.076L182.271 918.951L181.616 918.81L180.925 918.65L180.198 918.49L179.436 918.313L178.621 918.118L177.752 917.923L176.795 917.71L175.767 917.462L174.669 917.214L173.464 916.93L172.152 916.629L170.735 916.292L169.21 915.937L167.58 915.547L165.808 915.14L163.912 914.679L161.856 914.182L159.658 913.65L157.266 913.065L154.679 912.427L151.861 911.735L148.777 910.973L145.392 910.122L141.653 909.182L137.559 908.136L133.058 907.001L128.114 905.742L122.691 904.342L116.736 902.817L110.268 901.15L103.303 899.342L95.8952 897.427L88.1862 895.423L80.4418 893.42L73.1759 891.523L67.6643 890.087L65.3605 889.484L65.2365 889.448L65.2187 889.306L65.2011 889.165V889.005L65.1834 888.845V888.668L65.1656 888.491V888.296L65.1479 888.083V887.87L65.1301 887.64V887.392L65.1124 887.143V886.877V886.611V886.328V886.044V885.76V885.477V885.193V884.891V884.59L65.1301 884.289V883.987L65.1479 883.668L65.1656 883.367L65.1834 883.065L65.2011 882.764L65.2365 882.462L65.2542 882.161L65.2719 881.86L65.3074 881.54L65.3428 881.221L65.3783 880.902L65.4137 880.583L65.4491 880.264L65.4846 879.945L65.5201 879.626L65.5554 879.306L65.5909 878.987L65.6264 878.686L65.6618 878.384L65.6972 878.101L65.715 877.817L65.7505 877.533L65.7681 877.267L65.7858 877.019L65.8036 876.771L65.8213 876.523L65.8391 876.275L65.8568 876.026L65.8745 875.778L65.8922 875.53L65.9099 875.282L65.9276 875.034L65.9454 874.768L65.9631 874.502L65.9809 874.236L65.9985 873.952L66.0162 873.668L66.034 873.385L66.0517 873.101L66.0694 872.817L66.0872 872.534L66.1048 872.25L66.1226 871.966L66.1403 871.682L66.158 871.399L66.1758 871.115L66.1935 870.831L66.2111 870.548L66.2289 870.264L66.2466 869.98L66.2644 869.697L66.2821 869.413L66.2998 869.129V868.845V868.562V868.296V868.03V867.782V867.533V867.285V867.037V866.789V866.558L66.2821 866.31L66.2644 866.062L66.2466 865.814L66.2289 865.565L66.2111 865.317L66.1935 865.051L66.158 864.785L66.1226 864.519L66.0872 864.236L66.0517 863.952L66.0162 863.686L65.9809 863.402L65.9454 863.136L65.9099 862.87L65.8568 862.605L65.8036 862.356L65.7505 862.108L65.6972 861.86L65.6441 861.629L65.5909 861.399L65.5378 861.186L65.4846 860.973L65.4315 860.761L65.3605 860.53L65.2897 860.3L65.2187 860.051L65.1479 859.803L65.077 859.555L65.0061 859.307L64.9352 859.059L64.8466 858.81L64.758 858.562L64.6693 858.314L64.5808 858.065L64.4922 857.817L64.4036 857.569L64.2973 857.321L64.2087 857.073L64.1023 856.824L63.9959 856.576L63.8896 856.328L63.7656 856.08L63.6416 855.814L63.5175 855.548L63.3934 855.264L63.2516 854.98L63.0922 854.679L62.9326 854.36L62.7732 854.041L62.6137 853.722L62.4365 853.385L62.2592 853.048L62.0643 852.693L61.8694 852.339L61.6744 851.984L61.4794 851.629L61.2845 851.293L61.0896 850.956L60.8946 850.619L60.6997 850.3L60.5048 849.981L60.3099 849.661L60.1326 849.342L59.9377 849.023L59.7427 848.704L59.5478 848.385L59.3528 848.048L59.1579 847.693L58.963 847.339L58.7681 846.984L58.5554 846.612L58.3428 846.239L58.13 845.849L57.8997 845.442L57.6693 845.034L57.4389 844.626L57.2085 844.218L56.9604 843.81L56.7123 843.403L56.4641 842.995L56.2161 842.605L55.968 842.215L55.7199 841.842L55.4895 841.47L55.2591 841.098L55.0287 840.743L54.7984 840.388L54.5856 840.034L54.373 839.661L54.1603 839.289L53.9477 838.917L53.735 838.544L53.5224 838.154L53.3097 837.764L53.0793 837.357L52.8667 836.949L52.654 836.541L52.4414 836.133L52.2287 835.725L52.0161 835.318L51.8034 834.91L51.6084 834.502L51.4135 834.094L51.2185 833.686L51.0413 833.296L50.8641 832.906L50.7045 832.516L50.5451 832.144L50.3856 831.754L50.2261 831.364L50.0666 830.974L49.9249 830.566L49.7653 830.158L49.6235 829.75L49.4818 829.342L49.34 828.935L49.216 828.509L49.0919 828.101L48.9678 827.693L48.8615 827.286L48.7552 826.878L48.6489 826.488L48.5603 826.115L48.4717 825.743L48.4007 825.389L48.3299 825.034L48.259 824.679L48.2058 824.342L48.1703 824.006L48.135 823.686L48.0995 823.35L48.0817 823.013L48.064 822.676V822.321V821.967V821.594L48.0817 821.222L48.0995 820.85L48.135 820.46L48.1703 820.052L48.2236 819.644L48.2944 819.236L48.3654 818.828L48.4362 818.421L48.5248 817.995L48.6134 817.57L48.7021 817.144L48.8084 816.719L48.9147 816.293L49.0211 815.867L49.1274 815.442L49.2337 815.016L49.34 814.591L49.4641 814.165L49.5882 813.757L49.7121 813.35L49.8362 812.924L49.9603 812.516L50.0843 812.108L50.2084 811.683L50.3325 811.257L50.4565 810.832L50.5982 810.406L50.74 809.963L50.8818 809.52L51.0236 809.077L51.1653 808.633L51.3071 808.19L51.4489 807.747L51.5906 807.321L51.7324 806.914L51.8742 806.506L52.0161 806.098L52.1401 805.708L52.2641 805.336L52.3881 804.963L52.5122 804.591L52.6363 804.219L52.7426 803.846L52.8667 803.474L52.9907 803.102L53.0971 802.729L53.2211 802.339L53.3452 801.949L53.4693 801.559L53.5932 801.151L53.7173 800.743L53.8413 800.336L53.9654 799.928L54.0895 799.502L54.2135 799.077L54.3376 798.651L54.4617 798.226L54.5856 797.8L54.692 797.392L54.7984 796.985L54.887 796.577L54.9756 796.169L55.0642 795.779L55.1527 795.371L55.2237 794.981L55.2945 794.591L55.3654 794.219L55.4363 793.829L55.5072 793.439L55.578 793.048L55.649 792.676L55.7021 792.286L55.7553 791.896L55.8084 791.524L55.8617 791.151L55.9148 790.779L55.968 790.407L56.0035 790.034L56.0388 789.68L56.0743 789.325L56.1098 788.971L56.1452 788.616L56.1806 788.244L56.1984 787.871L56.2161 787.499L56.2339 787.109L56.2515 786.719L56.2692 786.311V785.885V785.442V784.999V784.538L56.2515 784.095L56.2339 783.651L56.2161 783.208L56.1806 782.783L56.1452 782.375L56.1098 781.967L56.0743 781.577L56.0211 781.187L55.9857 780.815L55.9325 780.442L55.8794 780.07L55.8262 779.698L55.7553 779.325L55.6845 778.953L55.6135 778.545L55.5427 778.12L55.4541 777.676L55.3654 777.233L55.2768 776.772L55.1705 776.311L55.0642 775.832L54.9401 775.354L54.816 774.893L54.692 774.449L54.568 774.006L54.4439 773.581L54.3199 773.173L54.1958 772.765L54.0717 772.357L53.9477 771.967L53.8236 771.577L53.6995 771.187L53.5756 770.779L53.4515 770.371L53.3097 769.946L53.1679 769.503L53.0262 769.059L52.8667 768.598L52.7071 768.12L52.5477 767.623L52.3704 767.127L52.1932 766.613L51.9983 766.116L51.7857 765.602L51.573 765.106L51.3604 764.627L51.1476 764.148L50.9173 763.669L50.7045 763.226L50.4743 762.783L50.2439 762.34L50.0135 761.896L49.7831 761.453L49.5527 761.01L49.3223 760.567L49.0919 760.123L48.8438 759.662L48.5958 759.201L48.3476 758.722L48.0995 758.244L47.8336 757.765L47.5679 757.286L47.2842 756.808L47.0185 756.347L46.7349 755.886L46.4691 755.442L46.2032 754.999L45.9375 754.556L45.6539 754.13L45.388 753.705L45.1222 753.279L44.8386 752.836L44.5551 752.411L44.2716 751.967L43.9703 751.524L43.669 751.081L43.3678 750.638L43.0488 750.194L42.7297 749.769L42.4107 749.343L42.0918 748.918L41.755 748.51L41.4183 748.102L41.0816 747.694L40.7449 747.286L40.4082 746.879L40.0714 746.471L39.7348 746.063L39.3981 745.655L39.0614 745.247L38.7247 744.84L38.388 744.414L38.069 744.006L37.7499 743.599L37.4309 743.191L37.1119 742.783L36.8107 742.393L36.5271 742.003L36.2436 741.63L35.9601 741.258L35.6942 740.886L35.4461 740.513L35.1979 740.141L34.9499 739.769L34.7195 739.397L34.4891 739.024L34.2765 738.652L34.0638 738.262L33.8512 737.854L33.6562 737.446L33.4612 737.038L33.2663 736.631L33.0714 736.205L32.8764 735.78L32.6992 735.372L32.522 734.964L32.3625 734.556L32.2031 734.166L32.0435 733.776L31.9017 733.386L31.76 733.014L31.636 732.641L31.5119 732.269L31.3878 731.896L31.2638 731.524L31.1574 731.152L31.0511 730.779L30.9448 730.407L30.8562 730.035L30.7675 729.662L30.6789 729.29L30.5903 728.918L30.5195 728.545L30.4485 728.173L30.3777 727.801L30.3068 727.446L30.2359 727.074L30.165 726.719L30.1118 726.365L30.0587 726.028L30.0232 725.709L29.9878 725.39L29.9524 725.088L29.9346 724.787L29.9169 724.485L29.8991 724.166V723.847V723.528V723.191V722.836V722.482L29.9169 722.11L29.9346 721.719L29.9701 721.329L30.0055 720.922L30.0409 720.532L30.0764 720.141L30.1118 719.769L30.165 719.397L30.2359 719.024L30.3068 718.652L30.3777 718.28L30.4485 717.907L30.5372 717.535L30.6258 717.145L30.7144 716.755L30.803 716.347L30.8916 715.921L30.9979 715.478L31.1042 715.017L31.2105 714.556L31.317 714.095L31.4233 713.617L31.5473 713.138L31.6713 712.659L31.7954 712.18L31.9195 711.702L32.0435 711.223L32.1676 710.744L32.2917 710.266L32.4157 709.769L32.5574 709.273L32.6992 708.776L32.841 708.262L32.9827 707.748L33.1423 707.216L33.3018 706.666L33.4612 706.117L33.6208 705.549L33.7802 704.982L33.9398 704.397L34.0992 703.812L34.241 703.227L34.3828 702.641L34.5246 702.074L34.6663 701.489L34.8081 700.922L34.9677 700.354L35.1271 699.787L35.2866 699.202L35.4638 698.617L35.641 698.014L35.836 697.393L36.0487 696.755L36.2791 696.081L36.5271 695.408L36.793 694.716L37.0766 694.025L37.3601 693.333L37.6613 692.659L37.9627 692.003L38.2639 691.365L38.5651 690.745L38.8487 690.142L39.1323 689.539L39.4158 688.954L39.6816 688.369L39.9475 687.783L40.1955 687.181L40.4614 686.56L40.7273 685.922L40.9753 685.266L41.2411 684.574L41.5247 683.865L41.8083 683.156L42.0918 682.429L42.3931 681.702L42.7121 680.957L43.0311 680.23L43.3678 679.521L43.7045 678.83L44.0412 678.156L44.3779 677.518L44.7147 676.897L45.0336 676.312L45.3526 675.745L45.6539 675.195L45.9551 674.645L46.2387 674.078L46.5222 673.511L46.8058 672.925L47.0893 672.323L47.3729 671.684L47.6564 671.028L47.9399 670.355L48.2413 669.663L48.5425 668.972L48.8438 668.28L49.1628 667.589L49.4818 666.862L49.8008 666.135L50.1375 665.408L50.4565 664.699L50.7932 663.99L51.13 663.298L51.4489 662.607L51.7679 661.933L52.0869 661.259L52.3881 660.603L52.6895 659.947L52.973 659.309L53.2565 658.67L53.5401 658.05L53.8059 657.429L54.0717 656.791L54.3376 656.17L54.6034 655.532L54.8692 654.876L55.1527 654.202L55.4363 653.511L55.7199 652.819L56.0211 652.11L56.3224 651.383L56.6414 650.639L56.9781 649.876L57.3149 649.114L57.6693 648.333L58.0237 647.536L58.3959 646.738L58.7681 645.94L59.1402 645.142L59.5123 644.344L59.8668 643.546L60.2213 642.766L60.558 642.004L60.877 641.259L61.1959 640.515L61.4972 639.788L61.7807 639.061L62.0643 638.351L62.3302 637.642L62.5959 636.915L62.8618 636.171L63.1276 635.408L63.3934 634.61L63.6769 633.777L63.9605 632.908L64.244 632.022L64.5454 631.1L64.8466 630.16L65.1479 629.203L65.4669 628.227L65.7858 627.252L66.1048 626.277L66.4415 625.32L66.7606 624.362L67.0972 623.423L67.4163 622.501L67.7353 621.578L68.0543 620.656L68.3555 619.734L68.6391 618.795L68.9226 617.837L69.1885 616.88L69.4365 615.905L69.6847 614.894L69.9328 613.848L70.1632 612.767L70.3758 611.667L70.5885 610.568L70.8011 609.451L70.9961 608.352L71.1911 607.27L71.3682 606.206L71.5277 605.16L71.6695 604.132L71.7936 603.121L71.9176 602.111L72.0239 601.118L72.1125 600.125L72.2011 599.15L72.2721 598.175L72.3429 597.199L72.3961 596.224L72.4493 595.231L72.5202 594.221L72.5733 593.192L72.6442 592.128L72.7151 591.011L72.786 589.841L72.8746 588.565L72.9809 587.182L73.105 585.657L73.2468 583.973L73.4063 582.075L73.5657 579.948L73.7607 577.554L73.9557 574.859L74.1683 571.845L74.3987 568.476L74.6467 564.771L74.8771 560.764L75.1075 556.508L75.3379 552.076L75.5506 547.554L75.7632 542.962L75.9581 538.299L76.1354 533.672L76.2949 529.239L76.4189 525.533L76.4899 523.282L76.5076 522.856L76.3658 522.165L76.224 521.42L76.0999 520.64L75.9759 519.824L75.8518 518.973L75.7455 518.104L75.6569 517.218L75.5683 516.331L75.4975 515.445L75.4265 514.558L75.3557 513.672L75.2848 512.768L75.2139 511.846L75.1253 510.906L75.0189 509.949L74.8949 508.956L74.7708 507.945L74.629 506.899L74.4696 505.817L74.31 504.718L74.1506 503.601L73.991 502.466L73.8316 501.332L73.6898 500.197L73.5657 499.062L73.4594 497.945L73.3531 496.864L73.2645 495.8L73.1759 494.771L73.105 493.761L73.0341 492.785L72.9633 491.81L72.8923 490.853L72.8215 489.895L72.7505 488.938L72.6796 487.981L72.6088 487.041L72.5378 486.101L72.4847 485.179L72.4315 484.275L72.3961 483.371L72.3784 482.484L72.3607 481.615V480.764V479.913V479.098V478.282V477.484V476.686L72.3429 475.906L72.3252 475.126L72.2898 474.346L72.2543 473.566L72.2189 472.768L72.1835 471.97L72.148 471.172L72.1125 470.374L72.0772 469.577L72.0594 468.779L72.0417 467.999V467.236V466.491L72.0594 465.764L72.0772 465.055L72.0948 464.364L72.1303 463.708L72.148 463.069L72.1658 462.449L72.1835 461.846V461.261L72.1658 460.658L72.148 460.055L72.1125 459.435L72.0594 458.797L72.0062 458.141L71.9354 457.467L71.8644 456.775L71.7936 456.066L71.7227 455.357L71.6695 454.648L71.6164 453.938L71.5809 453.247L71.5454 452.573L71.5277 451.899L71.5101 451.243L71.4923 450.605V449.984V449.382V448.779V448.176V447.573L71.4746 446.97L71.4391 446.35L71.4037 445.729L71.3505 445.091L71.2974 444.435L71.2264 443.761L71.1556 443.07L71.067 442.361L70.9783 441.634L70.8897 440.889L70.8011 440.126L70.7126 439.346L70.624 438.584L70.553 437.821L70.4822 437.059L70.4289 436.314L70.3936 435.587L70.3581 434.878L70.3226 434.187L70.2872 433.513L70.2518 432.857L70.2163 432.219L70.1809 431.58L70.1454 430.96L70.0922 430.339L70.0391 429.719L69.9683 429.098L69.8973 428.46L69.8265 427.822L69.7379 427.183L69.6492 426.527L69.5606 425.889L69.4543 425.233L69.3479 424.577L69.2416 423.921L69.1175 423.247L68.9935 422.556L68.8694 421.846L68.7455 421.12L68.6214 420.375L68.4973 419.612L68.391 418.85L68.2847 418.07L68.1961 417.29L68.1074 416.527L68.0365 415.783L67.9657 415.056L67.8947 414.347L67.8239 413.655L67.753 412.964L67.6821 412.29L67.6112 411.616L67.5226 410.925L67.434 410.233L67.3454 409.542L67.2568 408.85L67.1504 408.141L67.0441 407.414L66.9201 406.669L66.796 405.907L66.6719 405.145L66.5479 404.364L66.4239 403.584L66.3176 402.786L66.2111 402.006L66.1226 401.226L66.034 400.464L65.9454 399.701L65.8745 398.974L65.7858 398.247L65.715 397.521L65.6264 396.811L65.5378 396.12L65.4491 395.428L65.3428 394.737L65.2365 394.045L65.1124 393.372L64.9884 392.68L64.8644 392.006L64.7403 391.315L64.6162 390.641L64.4744 389.95L64.3326 389.276L64.2087 388.602L64.0846 387.946L63.9605 387.308L63.8365 386.67L63.7124 386.049L63.6061 385.446L63.4998 384.843L63.3934 384.258L63.3048 383.691L63.2163 383.141L63.1276 382.609L63.039 382.077L62.9504 381.563L62.8618 381.049L62.7732 380.535L62.6845 380.021L62.5782 379.506L62.4896 378.992L62.3833 378.478L62.2947 377.964L62.1884 377.45L62.082 376.936L61.9934 376.421L61.9048 375.925L61.8162 375.429L61.7098 374.95L61.6213 374.471L61.5149 373.992L61.4086 373.514L61.3023 373.035L61.1782 372.556L61.0541 372.078L60.9301 371.581L60.806 371.085L60.6643 370.588L60.5225 370.074L60.3807 369.56L60.2213 369.046L60.0795 368.531L59.9199 368.017L59.7605 367.503L59.6187 366.989L59.4769 366.475L59.3352 365.978L59.1934 365.482L59.0516 364.985L58.9275 364.489L58.7858 364.01L58.6617 363.531L58.5199 363.053L58.3781 362.574L58.2363 362.095L58.0946 361.617L57.9351 361.12L57.7756 360.606L57.5984 360.074L57.4212 359.525L57.2263 358.957L57.0312 358.372L56.8363 357.751L56.6237 357.131L56.411 356.493L56.1984 355.854L55.9857 355.198L55.7731 354.542L55.578 353.886L55.3831 353.248L55.1882 352.61L54.9933 351.971L54.7984 351.351L54.6034 350.748L54.4262 350.145L54.2313 349.542L54.0363 348.939L53.8413 348.337L53.6287 347.716L53.416 347.078L53.1856 346.404L52.9375 345.713L52.6717 344.986L52.3881 344.223L52.1046 343.443L51.8034 342.628L51.502 341.794L51.2008 340.943L50.8818 340.092L50.5806 339.241L50.2792 338.372L49.9957 337.503L49.7121 336.652L49.4464 335.801L49.1805 334.95L48.9147 334.099L48.6489 333.248L48.383 332.397L48.135 331.564L47.8691 330.73L47.6032 329.897L47.3197 329.046L47.0185 328.177L46.7171 327.291L46.3982 326.369L46.0792 325.447L45.7425 324.489L45.4057 323.496L45.069 322.486L44.7147 321.44L44.3602 320.358L44.0058 319.259L43.6336 318.142L43.2792 317.007L42.9247 315.872L42.5703 314.738L42.2336 313.656L41.9146 312.592L41.5956 311.582L41.2943 310.589L40.993 309.614L40.6918 308.656L40.3905 307.699L40.0714 306.724L39.7525 305.731L39.3981 304.702L39.0437 303.638L38.6715 302.539L38.2816 301.405L37.874 300.216L37.4309 298.975L36.9879 297.681L36.5271 296.387L36.084 295.075L35.641 293.78L35.1979 292.504L34.7726 291.245L34.3473 290.004L33.922 288.78L33.5145 287.575L33.1068 286.405L32.6992 285.234L32.2917 284.064L31.884 282.876L31.4587 281.653L31.0334 280.394L30.5903 279.1L30.1473 277.77L29.403 276.529L28.9599 275.164L28.5169 273.798L28.0739 272.433L27.6308 271.068L27.1878 269.703L26.7447 268.355L26.3017 267.043L25.8586 265.749L25.3978 264.472L24.9371 263.213L24.494 261.972L24.051 260.749L23.6079 259.508L23.1649 258.249L22.7218 256.955L22.2965 255.66L21.8712 254.33L21.4459 252.983L21.0205 251.6L20.5952 250.182L20.1521 248.745L19.7091 247.309L19.266 245.873L18.823 244.455L18.38 243.072L17.9369 241.724L17.5116 240.394L17.104 239.1L16.6965 237.824L16.3065 236.582L15.9343 235.377L15.58 234.207L15.2255 233.054L14.8711 231.919L14.4989 230.767L14.1268 229.614L13.7368 228.444L13.3293 227.274L12.9217 226.086L12.514 224.916L12.1065 223.763L11.7165 222.611L11.3267 221.476L10.9545 220.359L10.5824 219.26L10.228 218.125L9.8735 216.955L9.50131 215.732L9.12922 214.402L8.73928 212.948L8.33171 211.317L7.88867 209.455L7.39251 207.31L6.86077 204.81L6.24055 201.902L5.56711 198.551L4.82283 194.792L4.07843 190.909L3.51143 187.859L3.31641 186.742V186.707L3.36962 186.618L3.42273 186.53L3.47595 186.441L3.51143 186.37L3.56454 186.281L3.61776 186.193L3.67086 186.104L3.74171 186.016L3.79493 185.927L3.86578 185.821L3.93673 185.714L4.00758 185.608L4.07843 185.501L4.14939 185.395L4.22024 185.289L4.29119 185.182L4.36204 185.076L4.43289 184.987L4.50385 184.899L4.57469 184.792L4.64554 184.704L4.7165 184.597L4.78735 184.491L4.87594 184.384L4.96452 184.278L5.05322 184.172L5.14181 184.048L5.23039 183.923L5.33672 183.799L5.44305 183.657L5.54937 183.516L5.67344 183.356L5.7975 183.196L5.93931 183.001L6.09875 182.806L6.25829 182.594L6.4532 182.363L6.64812 182.115L6.86077 181.849L7.07342 181.565L7.30382 181.264L7.53421 180.962L7.78234 180.661L8.03047 180.36L8.2786 180.058L8.52663 179.774L8.77476 179.491L9.02289 179.225L9.27102 178.959L9.51904 178.711L9.76718 178.462L10.0153 178.214L10.2634 177.966L10.5292 177.718L10.8128 177.47L11.0963 177.221L11.3976 176.955L11.7165 176.672L12.0533 176.388L12.4077 176.069L12.7799 175.75L13.1521 175.413L13.5419 175.058L13.9495 174.686L14.3748 174.313L14.8179 173.923L15.2609 173.533L15.7217 173.126L16.1825 172.736L16.6433 172.345L17.0863 171.955L17.5293 171.565L17.9724 171.193L18.4154 170.803L18.8762 170.395L19.337 169.987L19.8154 169.544L20.3117 169.083L20.8256 168.604L21.3572 168.108L21.889 167.594L22.4206 167.08L22.9522 166.583L23.4661 166.104L23.9446 165.661L24.4232 165.218L24.9016 164.792L25.3624 164.367L25.8409 163.941L26.3194 163.498L26.8156 163.055L27.3118 162.594L27.8257 162.115L28.3396 161.636L28.8714 161.158L29.403 160.661L29.9524 160.165L30.5017 159.668L31.0511 159.19L31.6005 158.711L32.1498 158.232L32.717 157.753L33.2841 157.275L33.8688 156.796L34.4537 156.317L35.0385 155.839L35.6056 155.378L36.1727 154.934L36.7221 154.491L37.2537 154.065L37.7854 153.658L38.317 153.25L38.8487 152.842L39.3804 152.434L39.912 152.009L40.4614 151.566L41.0285 151.122L41.6133 150.661L42.2158 150.183L42.8007 149.704L43.4032 149.225L44.0058 148.746L44.6083 148.268L45.1931 147.807L45.7957 147.363L46.3805 146.92L46.983 146.477L47.5856 146.051L48.1881 145.644L48.8084 145.236L49.4286 144.828L50.0666 144.42L50.7223 144.012L51.378 143.587L52.0514 143.144L52.7249 142.7L53.416 142.239L54.1072 141.778L54.7984 141.3L55.4717 140.821L56.1452 140.342L56.8009 139.881L57.4389 139.438L58.0591 139.012L58.6794 138.587L59.2997 138.179L59.9377 137.771L60.5934 137.381L61.2491 137.009L61.9225 136.637L62.6137 136.264L63.3402 135.874L64.1023 135.466L64.882 135.023L65.6795 134.562L66.4948 134.083L67.3276 133.605L68.1783 133.108L69.029 132.612L69.8796 132.115L70.7303 131.637L71.5809 131.176L72.4315 130.732L73.2822 130.325L74.1329 129.935L74.9835 129.562L75.8342 129.225L76.6848 128.906L77.5532 128.587L78.457 128.268L79.3962 127.913L80.3532 127.541L81.3456 127.169L82.3381 126.761L83.3305 126.335L84.3052 125.892L85.2621 125.449L86.2014 124.988L87.123 124.527L88.0444 124.066L88.966 123.587L89.9053 123.126L90.8623 122.665L91.8369 122.222L92.8116 121.814L93.7864 121.442L94.7788 121.105L95.7712 120.786L96.7813 120.502L97.7914 120.218L98.8371 119.935L99.9181 119.651L101.052 119.332L102.187 119.013L103.321 118.676L104.455 118.321L105.589 117.949L106.688 117.576L107.769 117.186L108.85 116.779L109.913 116.371L110.976 115.963L112.022 115.555L113.032 115.165L114.007 114.793L114.964 114.421L115.903 114.084L116.825 113.747L117.728 113.428L118.615 113.126L119.518 112.825L120.44 112.523L121.362 112.222L122.301 111.92L123.258 111.637L124.215 111.353L125.189 111.087L126.182 110.839L127.192 110.591L128.22 110.343L129.265 110.094L130.329 109.846L131.392 109.598L132.438 109.332L133.465 109.066L134.476 108.8L135.45 108.534L136.372 108.286L137.276 108.038L138.162 107.825L139.03 107.612L139.881 107.399L140.731 107.187L141.618 106.974L142.557 106.743L143.567 106.513L144.683 106.247L145.924 105.963L147.288 105.626L148.813 105.254L150.496 104.846L152.233 104.421L153.739 104.048L154.377 103.889H154.395L154.554 103.853L154.714 103.8L154.891 103.747L155.086 103.694L155.281 103.623L155.476 103.552L155.689 103.481L155.901 103.41L156.114 103.339L156.327 103.25L156.539 103.179L156.752 103.091L156.965 103.002L157.177 102.914L157.39 102.825L157.585 102.754L157.78 102.665L157.975 102.594L158.152 102.523L158.329 102.453L158.489 102.382L158.648 102.311L158.808 102.24L158.967 102.169L159.109 102.098L159.251 102.027L159.393 101.956L159.517 101.867L159.658 101.779L159.782 101.69L159.924 101.602L160.066 101.495L160.208 101.406L160.35 101.3L160.491 101.194L160.633 101.07L160.775 100.945L160.934 100.821L161.076 100.697L161.218 100.573L161.36 100.449L161.501 100.325L161.643 100.201L161.785 100.059L161.927 99.9349L162.051 99.793L162.175 99.6511L162.299 99.5093L162.441 99.3675L162.565 99.2079L162.706 99.0484L162.848 98.8888L162.99 98.7115L163.15 98.5519L163.309 98.3746L163.469 98.1795L163.628 97.9845L163.788 97.7895L163.947 97.5945L164.107 97.3817L164.266 97.169L164.426 96.9561L164.585 96.7257L164.762 96.4952L164.922 96.247L165.099 95.9987L165.258 95.7505L165.418 95.4846L165.577 95.2186L165.737 94.9527L165.896 94.6689L166.056 94.403L166.215 94.1193L166.375 93.8357L166.534 93.5519L166.694 93.2683L166.853 92.9845L167.013 92.7009L167.19 92.4171L167.367 92.1335L167.562 91.8499L167.757 91.5661L167.97 91.2825L168.183 90.9987L168.395 90.7329L168.626 90.4669L168.874 90.2009L169.122 89.9527L169.37 89.6867L169.636 89.4385L169.902 89.1903L170.185 88.9421L170.469 88.6938L170.752 88.4456L171.054 88.1974L171.355 87.9492L171.674 87.7009L171.993 87.4527L172.329 87.2044L172.666 86.9563L173.021 86.708L173.375 86.4598L173.73 86.2115L174.102 85.9634L174.474 85.7151L174.846 85.4669L175.236 85.2186L175.626 84.9705L175.998 84.7222L176.37 84.4917L176.742 84.279L177.097 84.0662L177.451 83.8535L177.788 83.6584L178.107 83.4634L178.426 83.2683L178.745 83.0911L179.064 82.9137L179.383 82.7365L179.702 82.5591L180.021 82.3818L180.34 82.2046L180.659 82.0272L180.978 81.8499L181.297 81.6726L181.616 81.5131L181.935 81.3534L182.254 81.1939L182.555 81.0343L182.856 80.8924L183.158 80.7507L183.441 80.6088L183.725 80.4847L184.008 80.3606L184.292 80.2364L184.558 80.1123L184.841 79.9883L185.125 79.8642L185.408 79.7578L185.692 79.6337L185.975 79.5095L186.276 79.3854L186.578 79.2613L186.897 79.1372L187.216 79.013L187.535 78.889L187.854 78.7649L188.173 78.6408L188.492 78.5166L188.811 78.4103L189.13 78.3039L189.431 78.1975L189.715 78.1089L189.998 78.0201L190.282 77.9315L190.548 77.8429L190.813 77.772L191.079 77.6833L191.327 77.6124L191.593 77.5415L191.841 77.4528L192.107 77.3819L192.373 77.2932L192.656 77.2224L192.94 77.1514L193.224 77.0805L193.525 77.0095L193.844 76.9386L194.163 76.8677L194.482 76.7967L194.801 76.7259L195.12 76.6727L195.456 76.6372L195.775 76.6017L196.094 76.584H196.396H196.679H196.963L197.211 76.6017L197.459 76.6372L197.689 76.6727L197.902 76.7081L198.115 76.7436L198.31 76.7967L198.505 76.85L198.7 76.9031L198.895 76.9741L199.072 77.0272L199.249 77.0982L199.426 77.1691L199.586 77.24L199.745 77.311L199.905 77.3819L200.046 77.4528L200.188 77.5237L200.33 77.6124L200.454 77.6833L200.578 77.7542L200.702 77.8429L200.808 77.9138L200.897 77.9847L200.986 78.0556L201.074 78.1265L201.145 78.1975L201.216 78.2506L201.287 78.3216L201.358 78.3748L201.411 78.428L201.464 78.4811L201.517 78.5344L201.553 78.5875L201.588 78.623L201.624 78.6585L201.659 78.6939L201.695 78.7294L201.73 78.7649L201.765 78.8003L201.801 78.8358L201.819 78.8713L201.854 78.9067L201.872 78.9421L201.907 78.9776L201.925 79.013L201.943 79.0485L201.96 79.084L201.996 79.1194L202.013 79.1549L202.031 79.1904L202.049 79.2258L202.067 79.2613L202.102 79.2968L202.12 79.3323L202.138 79.3677L202.173 79.4032L202.191 79.4386L202.226 79.474L202.244 79.5095L202.279 79.545L202.315 79.5804L202.35 79.6159L202.386 79.6514L202.421 79.6868L202.457 79.7223L202.492 79.7578L202.527 79.8109L202.563 79.8464L202.598 79.8995L202.634 79.935L202.669 79.9883L202.705 80.0414L202.74 80.0947L202.776 80.1478L202.811 80.201L202.864 80.2542L202.917 80.3074L202.971 80.3606L203.024 80.4315L203.077 80.4847L203.13 80.5556L203.183 80.6265L203.254 80.6974L203.325 80.7684L203.396 80.8393L203.467 80.9102L203.538 80.9812L203.608 81.0521L203.679 81.1229L203.75 81.1939L203.821 81.2648L203.91 81.3534L203.998 81.4421L204.087 81.5308L204.176 81.6194L204.264 81.7081L204.353 81.7967L204.441 81.8853L204.53 81.9741L204.619 82.0627L204.707 82.1513L204.796 82.24L204.884 82.3286L204.973 82.4173L205.062 82.506L205.15 82.5946L205.239 82.6832L205.327 82.7718L205.416 82.8606L205.505 82.9492L205.593 83.0378L205.682 83.1265L205.77 83.2151L205.859 83.3038L205.948 83.3925L206.036 83.4811L206.125 83.5697L206.214 83.6761L206.32 83.7825L206.426 83.8889L206.515 83.9952L206.621 84.1016L206.728 84.2081L206.834 84.3145L206.94 84.4385L207.047 84.5626L207.153 84.6868L207.277 84.8109L207.401 84.9528L207.525 85.0769L207.649 85.2186L207.773 85.3605L207.897 85.5201L208.021 85.6796L208.145 85.8393L208.287 85.9988L208.429 86.1761L208.571 86.3534L208.712 86.5308L208.854 86.7258L209.014 86.9208L209.173 87.1158L209.333 87.3286L209.492 87.5413L209.652 87.7542L209.829 87.9846L210.006 88.2151L210.201 88.4456L210.396 88.6938L210.591 88.9421L210.804 89.1903L211.016 89.4385L211.229 89.7045L211.441 89.9527L211.654 90.2186L211.867 90.4846L212.08 90.7682L212.292 91.052L212.505 91.3356L212.718 91.637L212.93 91.9562L213.161 92.2754L213.391 92.5945L213.621 92.9314L213.852 93.2683L214.1 93.6052L214.348 93.9598L214.596 94.3143L214.844 94.6689L215.11 95.0236L215.394 95.3782L215.677 95.7328L215.978 96.0873L216.297 96.442L216.616 96.7966L216.953 97.1512L217.29 97.5058L217.644 97.8604L217.999 98.215L218.353 98.5696L218.725 98.942L219.097 99.3143L219.47 99.6866L219.842 100.077L220.214 100.467L220.604 100.857L220.994 101.247L221.384 101.655L221.773 102.062L222.163 102.47L222.571 102.86L222.978 103.268L223.386 103.658L223.794 104.066L224.201 104.456L224.627 104.846L225.052 105.236L225.477 105.626L225.903 105.999L226.328 106.389L226.735 106.761L227.161 107.133L227.568 107.506L227.994 107.878L228.401 108.268L228.809 108.64L229.217 109.013L229.642 109.403L230.067 109.793L230.492 110.183L230.936 110.573L231.379 110.963L231.839 111.371L232.318 111.779L232.796 112.186L233.293 112.577L233.806 112.967L234.32 113.357L234.852 113.729L235.384 114.101L235.933 114.474L236.482 114.846L237.032 115.201L237.581 115.573L238.148 115.928L238.698 116.3L239.265 116.672L239.832 117.045L240.399 117.435L240.966 117.825L241.533 118.215L242.1 118.605L242.667 118.995L243.234 119.385L243.802 119.775L244.369 120.147L244.936 120.52L245.503 120.892L246.088 121.247L246.673 121.601L247.275 121.956L247.878 122.311L248.48 122.665L249.083 123.02L249.703 123.374L250.305 123.729L250.908 124.084L251.493 124.456L252.06 124.828L252.609 125.201L253.141 125.573L253.655 125.945L254.169 126.318L254.683 126.69L255.179 127.062L255.693 127.417L256.207 127.771L256.738 128.108L257.27 128.445L257.82 128.764L258.387 129.101L258.971 129.42L259.574 129.74L260.177 130.059L260.797 130.378L261.417 130.697L262.037 131.016L262.64 131.335L263.242 131.654L263.845 131.973L264.43 132.293L265.015 132.612L265.599 132.931L266.184 133.25L266.769 133.569L267.372 133.888L267.974 134.208L268.594 134.509L269.215 134.81L269.853 135.094L270.491 135.378L271.129 135.661L271.784 135.927L272.458 136.193L273.131 136.459L273.326 136.53L273.415 136.583L273.946 136.849L274.496 137.115L275.045 137.381L275.612 137.647L276.179 137.913L276.746 138.179L277.314 138.445L277.898 138.711L278.483 138.977L279.068 139.243L279.671 139.509L280.273 139.775L280.876 140.041L281.478 140.307L282.098 140.573L282.719 140.839L283.339 141.105L283.977 141.371L284.615 141.637L285.253 141.903L285.891 142.168L286.547 142.417L287.202 142.665L287.858 142.913L288.514 143.161L289.169 143.41L289.843 143.658L290.516 143.906L291.19 144.154L291.863 144.385L292.537 144.615L293.21 144.846L293.883 145.076L294.557 145.307L295.23 145.519L295.904 145.732L296.559 145.945L297.233 146.158L297.889 146.353L298.544 146.548L299.2 146.743L299.856 146.938L300.511 147.115L301.167 147.293L301.823 147.47L302.461 147.629L303.099 147.789L303.737 147.949L304.375 148.108L305.013 148.25L305.651 148.392L306.289 148.534L306.909 148.676L307.529 148.8L308.132 148.924L308.734 149.048L309.337 149.172L309.939 149.278L310.542 149.385L311.145 149.491L311.729 149.58L312.314 149.668L312.899 149.757L313.466 149.846L314.033 149.917L314.6 149.988L315.167 150.058L315.717 150.129L316.248 150.2L316.78 150.254L317.312 150.307L317.826 150.36L318.34 150.413L318.836 150.466L319.332 150.502L319.828 150.537L320.307 150.573L320.785 150.608L321.264 150.644L321.742 150.679L322.203 150.714L322.664 150.75L323.124 150.768L323.585 150.785L324.028 150.803L324.471 150.821L324.914 150.839L325.357 150.856H325.8L326.244 150.874H326.669H327.094H327.519H327.945H328.37H328.778H329.185H329.593H330.001H330.408H330.816L331.223 150.856H331.631L332.038 150.839L332.446 150.821L332.854 150.803L333.261 150.785L333.669 150.768L334.077 150.75L334.484 150.732L334.892 150.697L335.299 150.679L335.707 150.644L336.097 150.608L336.504 150.59L336.894 150.555L337.284 150.519L337.674 150.484L338.064 150.449L338.454 150.413L338.844 150.378L339.234 150.342L339.623 150.307L339.996 150.271L340.368 150.236L340.74 150.183L341.112 150.147L341.484 150.094L341.856 150.041L342.229 149.988L342.601 149.934L342.955 149.881L343.31 149.828L343.664 149.775L344.018 149.704L344.373 149.651L344.727 149.58L345.082 149.509L345.419 149.438L345.773 149.367L346.11 149.296L346.446 149.225L346.783 149.154L347.12 149.083L347.457 149.012L347.793 148.941L348.13 148.871L348.467 148.782L348.803 148.711L349.14 148.622L349.477 148.534L349.814 148.445L350.15 148.356L350.487 148.268L350.824 148.179L351.16 148.09L351.497 148.002L351.834 147.913L352.171 147.807L352.507 147.718L352.844 147.612L353.181 147.505L353.517 147.399L353.854 147.293L354.191 147.186L354.527 147.08L354.864 146.973L355.201 146.867L355.538 146.761L355.874 146.636L356.229 146.512L356.583 146.388L356.938 146.264L357.292 146.14L357.647 146.016L358.001 145.892L358.355 145.768L358.71 145.644L359.064 145.502L359.436 145.36L359.809 145.218L360.181 145.076L360.553 144.917L360.925 144.775L361.297 144.615L361.687 144.456L362.077 144.296L362.467 144.137L362.857 143.977L363.264 143.817L363.672 143.64L364.08 143.463L364.487 143.285L364.895 143.108L365.302 142.931L365.71 142.736L366.118 142.541L366.543 142.346L366.968 142.151L367.394 141.956L367.819 141.761L368.244 141.566L368.67 141.371L369.095 141.158L369.52 140.945L369.945 140.732L370.371 140.52L370.796 140.307L371.222 140.094L371.629 139.881L372.054 139.668L372.462 139.456L372.87 139.243L373.277 139.03L373.685 138.817L374.092 138.605L374.5 138.392L374.908 138.179L375.315 137.966L375.723 137.754L376.113 137.541L376.503 137.328L376.893 137.115L377.282 136.903L377.655 136.69L378.044 136.477L378.417 136.264L378.789 136.052L379.161 135.839L379.533 135.626L379.905 135.413L380.26 135.2L380.614 134.988L380.969 134.775L381.323 134.562L381.677 134.349L382.014 134.137L382.351 133.942L382.67 133.729L383.006 133.534L383.325 133.339L383.645 133.144L383.964 132.949L384.283 132.754L384.601 132.559L384.903 132.364L385.204 132.169L385.505 131.973L385.807 131.778L386.108 131.583L386.409 131.388L386.693 131.193L386.994 130.998L387.277 130.803L387.561 130.608L387.845 130.413L388.128 130.218L388.412 130.023L388.695 129.828L388.979 129.633L389.262 129.438L389.546 129.243L389.971 128.995L390.591 128.64L391.194 128.286L391.797 127.913L392.381 127.559L392.948 127.186L393.516 126.814L394.065 126.442L394.632 126.069L395.199 125.679L395.766 125.271L396.351 124.864L396.936 124.438L397.538 123.995L398.159 123.552L398.797 123.091L399.452 122.612L400.126 122.133L400.817 121.637L401.526 121.14L402.235 120.644L402.961 120.165L403.688 119.686L404.397 119.208L405.123 118.729L405.832 118.25L406.541 117.754L407.232 117.257L407.923 116.743L408.597 116.229L409.27 115.715L409.944 115.183L410.617 114.651L411.291 114.119L411.964 113.587L412.637 113.055L413.311 112.523L413.984 111.974L414.675 111.424L415.367 110.874L416.058 110.343L416.731 109.811L417.422 109.296L418.096 108.782L418.769 108.286L419.443 107.789L420.116 107.311L420.789 106.832L421.463 106.336L422.136 105.821L422.81 105.307L423.483 104.793L424.174 104.261L424.848 103.729L425.521 103.197L426.195 102.665L426.85 102.133L427.488 101.602L428.091 101.105L428.64 100.626L429.172 100.183L429.686 99.7575L430.164 99.3498L430.607 98.9774L430.997 98.6583L431.316 98.41L431.493 98.2682L431.511 98.2505L434.595 99.332L434.861 99.5093L435.144 99.7044L435.445 99.8994L435.747 100.112L436.066 100.325L436.402 100.538L436.739 100.768L437.094 101.016L437.448 101.265L437.802 101.531L438.175 101.797L438.529 102.08L438.883 102.364L439.22 102.648L439.521 102.896L439.787 103.126L440 103.339L440.195 103.534L440.372 103.711L440.532 103.871L440.691 104.031L440.851 104.19L440.992 104.35L441.134 104.509L441.276 104.669L441.418 104.828L441.559 104.988L441.719 105.148L441.878 105.307L442.038 105.484L442.197 105.662L442.357 105.839L442.516 106.016L442.658 106.194L442.8 106.353L442.924 106.513L443.048 106.655L443.154 106.797L443.261 106.921L443.349 107.045L443.438 107.169L443.527 107.293L443.615 107.399L443.704 107.523L443.81 107.648L443.916 107.772L444.04 107.896L444.164 108.038L444.289 108.197L444.43 108.357L444.572 108.516L444.714 108.694L444.873 108.889L445.033 109.084L445.192 109.279L445.352 109.474L445.511 109.669L445.671 109.864L445.83 110.059L445.99 110.254L446.132 110.449L446.273 110.626L446.415 110.821L446.539 110.999L446.663 111.194L446.787 111.389L446.911 111.584L447.035 111.779L447.159 111.974L447.284 112.169L447.39 112.364L447.514 112.559L447.638 112.772L447.744 112.967L447.851 113.162L447.957 113.374L448.063 113.57L448.17 113.782L448.276 113.995L448.365 114.19L448.453 114.385L448.542 114.58L448.63 114.775L448.719 114.97L448.808 115.165L448.879 115.36L448.949 115.555L449.02 115.75L449.091 115.963L449.162 116.176L449.233 116.389L449.304 116.601L449.375 116.814L449.428 117.027L449.481 117.24L449.517 117.452L449.552 117.665L449.587 117.86L449.623 118.055L449.658 118.25L449.694 118.445L449.729 118.623L449.747 118.8L449.782 118.959L449.818 119.137L449.853 119.314L449.889 119.491L449.924 119.669L449.96 119.846L449.995 120.023L450.03 120.201L450.066 120.378L450.119 120.555L450.154 120.733L450.208 120.91L450.261 121.069L450.314 121.229L450.367 121.389L450.42 121.548L450.473 121.69L450.527 121.832L450.58 121.956L450.651 122.08L450.722 122.204L450.792 122.328L450.863 122.435L450.934 122.559L451.005 122.665L451.076 122.789L451.165 122.896L451.253 123.02L451.342 123.126L451.431 123.232L451.519 123.339L451.608 123.445L451.696 123.534L451.785 123.623L451.856 123.711L451.927 123.8L451.998 123.871L452.068 123.942L452.139 124.013L452.21 124.084L452.281 124.137L452.352 124.19L452.423 124.243L452.494 124.296L452.565 124.349L452.636 124.403L452.706 124.456L452.777 124.527L452.848 124.58L452.937 124.651L453.025 124.722L453.114 124.793L453.203 124.864L453.309 124.935L453.398 125.005L453.504 125.076L453.61 125.147L453.717 125.218L453.823 125.289L453.947 125.36L454.071 125.431L454.195 125.502L454.319 125.573L454.443 125.644L454.585 125.715L454.709 125.786L454.833 125.857L454.975 125.927L455.117 125.998L455.258 126.069L455.418 126.158L455.577 126.247L455.737 126.335L455.896 126.424L456.056 126.513L456.215 126.601L456.375 126.69L456.534 126.779L456.712 126.867L456.889 126.974L457.066 127.062L457.243 127.169L457.438 127.275L457.633 127.381L457.828 127.506L458.023 127.63L458.218 127.754L458.413 127.878L458.626 128.002L458.838 128.126L459.051 128.25L459.264 128.357L459.476 128.481L459.689 128.587L459.901 128.693L460.114 128.8L460.327 128.906L460.557 129.013L460.788 129.119L461.018 129.225L461.248 129.332L461.496 129.456L461.745 129.58L461.993 129.704L462.259 129.828L462.542 129.952L462.826 130.076L463.127 130.2L463.428 130.325L463.729 130.466L464.048 130.591L464.367 130.732L464.704 130.857L465.023 130.981L465.36 131.105L465.697 131.229L466.016 131.353L466.352 131.477L466.689 131.601L467.026 131.725L467.362 131.849L467.699 131.973L468.036 132.098L468.39 132.222L468.745 132.364L469.099 132.523L469.471 132.683L469.843 132.842L470.233 133.02L470.641 133.197L471.048 133.392L471.456 133.587L471.881 133.782L472.307 133.977L472.75 134.172L473.193 134.367L473.636 134.562L474.079 134.757L474.522 134.952L474.965 135.13L475.39 135.307L475.833 135.484L476.276 135.679L476.719 135.856L477.18 136.052L477.659 136.247L478.137 136.459L478.633 136.672L479.13 136.885L479.644 137.098L480.158 137.31L480.672 137.523L481.185 137.736L481.717 137.949L482.249 138.161L482.78 138.374L483.312 138.569L483.844 138.764L484.375 138.942L484.889 139.119L485.403 139.278L485.899 139.438L486.378 139.598L486.856 139.757L487.335 139.917L487.813 140.094L488.31 140.271L488.824 140.466L489.337 140.661L489.851 140.856L490.383 141.069L490.915 141.282L491.446 141.495L491.978 141.708L492.51 141.92L493.041 142.133L493.573 142.346L494.105 142.559L494.619 142.771L495.132 142.984L495.646 143.215L496.16 143.445L496.692 143.693L497.224 143.941L497.755 144.207L498.287 144.473L498.819 144.739L499.35 145.005L499.882 145.289L500.414 145.555L500.928 145.821L501.441 146.087L501.955 146.353L502.469 146.636L503.001 146.92L503.533 147.204L504.064 147.488L504.614 147.771L505.163 148.055L505.712 148.339L506.279 148.622L506.847 148.888L507.414 149.154L507.963 149.402L508.512 149.651L509.044 149.881L509.558 150.112L510.072 150.324L510.586 150.555L511.082 150.768L511.578 150.998L512.092 151.229L512.606 151.477L513.12 151.725L513.634 151.973L514.148 152.239L514.662 152.505L515.158 152.771L515.672 153.055L516.168 153.321L516.665 153.587L517.143 153.853L517.621 154.119L518.082 154.385L518.543 154.633L519.004 154.899L519.465 155.165L519.943 155.449L520.422 155.732L520.9 156.016L521.378 156.3L521.857 156.583L522.335 156.867L522.814 157.151L523.275 157.434L523.718 157.7L524.143 157.948L524.568 158.197L524.976 158.427L525.366 158.658L525.738 158.87L526.092 159.083L526.447 159.296L526.801 159.509L527.156 159.721L527.51 159.952L527.865 160.2L528.219 160.448L528.591 160.714L528.964 160.98L529.353 161.264L529.743 161.548L530.133 161.831L530.523 162.115L530.913 162.399L531.303 162.682L531.675 162.966L532.047 163.25L532.402 163.516L532.756 163.782L533.075 164.012L533.358 164.225L533.624 164.42L533.872 164.615L534.12 164.81L534.369 165.005L534.599 165.182L534.829 165.36L535.06 165.537L535.29 165.714L535.521 165.892L535.733 166.069L535.946 166.228L536.159 166.406L536.371 166.565L536.566 166.725L536.761 166.884L536.956 167.044L537.151 167.204L537.346 167.363L537.541 167.523L537.736 167.682L537.931 167.86L538.143 168.037L538.356 168.214L538.569 168.392L538.781 168.587L538.994 168.764L539.207 168.959L539.419 169.136L539.632 169.331L539.845 169.509L540.057 169.686L540.27 169.881L540.465 170.058L540.678 170.236L540.872 170.413L541.067 170.59L541.245 170.75L541.404 170.909L541.564 171.069L541.723 171.228L541.883 171.388L542.042 171.548L542.202 171.707L542.361 171.867L542.503 172.026L542.645 172.186L542.786 172.345L542.928 172.505L543.052 172.665L543.176 172.824L543.3 172.966L543.407 173.09L543.495 173.214L543.584 173.321L543.655 173.427L543.726 173.516L543.779 173.604L543.832 173.675L543.867 173.746L543.903 173.817L543.938 173.888L543.974 173.941L543.992 173.994L544.027 174.048L544.045 174.101L544.062 174.154L544.08 174.207L544.098 174.26L544.116 174.313L544.133 174.349L544.151 174.384V174.42L544.169 174.455V174.491V174.526L544.186 174.562V174.597V174.633V174.668V174.704V174.739L544.204 174.774V174.81V174.845V174.881V174.916L544.222 174.952V174.987V175.023V175.058L544.24 175.094V175.129V175.165V175.2V175.236V175.271L544.257 175.306V175.342V175.377V175.413V175.448V175.484V175.519L544.275 175.555V175.59V175.626V175.661V175.697V175.732V175.767V175.803V175.838V175.874V175.466V175.502V175.537V175.572V175.608V175.643V175.679V175.732V175.767V175.803V175.856V175.909V175.963V176.016V176.069V176.122V176.175V176.246V176.299V176.37V176.441V176.512V176.583V176.654V176.725V176.796V176.884V176.973V177.062V177.15L544.293 177.239V177.345V177.452V177.558L544.311 177.682V177.806V177.931L544.328 178.055V178.179V178.303L544.346 178.427V178.551L544.364 178.675V178.799L544.381 178.941L544.399 179.083L544.417 179.243L544.435 179.402L544.452 179.579L544.47 179.774L544.488 179.987L544.523 180.218L544.559 180.466L544.594 180.732L544.63 181.016L544.665 181.335L544.7 181.672L544.754 182.026L544.789 182.399L544.842 182.789L544.878 183.179L544.913 183.569L544.948 183.959L544.984 184.349L545.019 184.721L545.037 185.076L545.073 185.43L545.108 185.785L545.143 186.14L545.179 186.512L545.214 186.884L545.25 187.292L545.303 187.718L545.356 188.179L545.409 188.657L545.48 189.172L545.551 189.739L545.622 190.324L545.693 190.962L545.764 191.618L545.835 192.31L545.906 193.001L545.976 193.71L546.047 194.42L546.118 195.111L546.189 195.785L546.26 196.459L546.331 197.115L546.402 197.753L546.473 198.391L546.544 199.03L546.614 199.668L546.685 200.324L546.774 200.998L546.862 201.689L546.951 202.416L547.057 203.178L547.164 203.959L547.288 204.757L547.412 205.572L547.536 206.405L547.66 207.256L547.784 208.143L547.908 209.047L548.032 209.969L548.138 210.891L548.245 211.813L548.333 212.735L548.422 213.657L548.511 214.579L548.581 215.501L548.652 216.423L548.723 217.345L548.794 218.267L548.865 219.189L548.936 220.111L549.007 221.051L549.095 222.008L549.184 222.965L549.273 223.941L549.361 224.934L549.45 225.927L549.539 226.919L549.627 227.93L549.716 228.941L549.804 229.951L549.875 230.944L549.946 231.937L550.017 232.93L550.07 233.905L550.141 234.88L550.194 235.838L550.247 236.76L550.301 237.699L550.354 238.621L550.425 239.561L550.495 240.519L550.566 241.494L550.655 242.487L550.744 243.497L550.85 244.508L550.956 245.536L551.08 246.547L551.204 247.557L551.328 248.568L551.453 249.561L551.576 250.536L551.701 251.511L551.825 252.469L551.949 253.426L552.073 254.366L552.197 255.288L552.321 256.21L552.445 257.15L552.569 258.089L552.693 259.029L552.817 259.986L552.959 260.962L553.101 261.972L553.242 263.001L553.402 264.047L553.561 265.093L553.703 266.121L553.827 267.132L553.951 268.142L554.075 269.153L554.199 270.146L554.323 271.121L554.447 272.096L554.571 273.054L554.695 274.011L554.82 274.951L554.944 275.873L555.068 276.795L555.192 277.699L555.316 278.621L555.44 279.543L555.564 280.465L555.688 281.422L555.812 282.398L555.936 283.39L556.06 284.401L556.202 285.429L556.326 286.458L556.45 287.468L556.574 288.479L556.698 289.454L556.822 290.412L556.928 291.351L557.053 292.256L557.159 293.142L557.265 293.993L557.372 294.809L557.478 295.607L557.584 296.387L557.69 297.167L557.797 297.929L557.921 298.709L558.045 299.49L558.169 300.287L558.293 301.085L558.417 301.883L558.523 302.663L558.63 303.408L558.718 304.117L558.807 304.773L558.878 305.394L558.949 305.961L559.002 306.458L559.055 306.919L559.108 307.326L559.144 307.699L559.179 308.053L559.215 308.39L559.25 308.709L559.286 309.029L559.321 309.33L559.356 309.614L559.392 309.88L559.427 310.128L559.463 310.358L559.498 310.553L559.534 310.731L559.551 310.872L559.569 310.997L559.587 311.085V311.138V311.174L561.802 335.784L561.82 335.872L561.837 335.961L561.855 336.049V336.12L561.873 336.209L561.891 336.298V336.386L561.908 336.475L561.926 336.564V336.67L561.944 336.776L561.962 336.901V337.025L561.979 337.149L561.997 337.273L562.015 337.415L562.032 337.574V337.734L562.05 337.893L562.068 338.053V338.23L562.086 338.408V338.603L562.103 338.798V338.993L562.121 339.205V339.418L562.139 339.631V339.861V340.092L562.156 340.322V340.553L562.174 340.783V341.014L562.192 341.244L562.21 341.475V341.688L562.227 341.9L562.245 342.113L562.263 342.326L562.281 342.539L562.298 342.752V342.964L562.316 343.177V343.39V343.603V343.815V344.028V344.241V344.454V344.667V344.879V345.092L562.334 345.305V345.518L562.351 345.73L562.369 345.943L562.387 346.174L562.405 346.404L562.44 346.652L562.475 346.918L562.511 347.202L562.546 347.503L562.582 347.822L562.617 348.142L562.67 348.496L562.724 348.851L562.777 349.223L562.83 349.595L562.865 349.968L562.918 350.34L562.954 350.712L562.989 351.067L563.025 351.422L563.06 351.759L563.096 352.078L563.131 352.379L563.167 352.68L563.202 352.964L563.237 353.248L563.273 353.532L563.326 353.815L563.379 354.117L563.432 354.418L563.486 354.737L563.539 355.056L563.61 355.393L563.68 355.748L563.751 356.103L563.822 356.457L563.893 356.829L563.964 357.202L564.035 357.574L564.106 357.929L564.159 358.283L564.23 358.638L564.283 358.975L564.336 359.312L564.389 359.631L564.443 359.932L564.496 360.234L564.549 360.517L564.602 360.801L564.673 361.085L564.744 361.368L564.815 361.67L564.886 361.989L564.974 362.308L565.045 362.645L565.134 363L565.222 363.372L565.311 363.762L565.4 364.17L565.488 364.578L565.577 364.985L565.665 365.393L565.736 365.801L565.807 366.209L565.878 366.599L565.949 366.989L566.02 367.379L566.073 367.751L566.126 368.124L566.197 368.496L566.268 368.868L566.339 369.241L566.41 369.613L566.481 370.003L566.551 370.411L566.64 370.819L566.729 371.244L566.817 371.688L566.906 372.131L566.994 372.592L567.083 373.07L567.172 373.567L567.26 374.081L567.349 374.595L567.438 375.109L567.526 375.624L567.597 376.12L567.668 376.599L567.739 377.077L567.81 377.538L567.881 377.999L567.934 378.443L567.987 378.886L568.04 379.329L568.093 379.772L568.146 380.198L568.217 380.641L568.288 381.084L568.359 381.528L568.43 381.971L568.501 382.414L568.572 382.857L568.643 383.301L568.714 383.744L568.767 384.187L568.82 384.631L568.873 385.056L568.908 385.464L568.944 385.872L568.979 386.262L569.015 386.652L569.05 387.042L569.086 387.432L569.121 387.822L569.174 388.23L569.227 388.638L569.298 389.063L569.369 389.506L569.44 389.95L569.511 390.411L569.582 390.889L569.653 391.368L569.724 391.847L569.795 392.326L569.848 392.804L569.901 393.283L569.954 393.744L569.989 394.187L570.025 394.613L570.06 395.02L570.096 395.428L570.131 395.836L570.167 396.244L570.202 396.652L570.238 397.077L570.291 397.503L570.344 397.946L570.397 398.407L570.468 398.868L570.539 399.347L570.61 399.826L570.681 400.304L570.751 400.801L570.822 401.297L570.893 401.794L570.964 402.308L571.035 402.804L571.106 403.318L571.177 403.833L571.248 404.364L571.319 404.914L571.407 405.481L571.496 406.067L571.584 406.669L571.691 407.308L571.797 407.946L571.903 408.602L572.028 409.258L572.152 409.914L572.276 410.552L572.4 411.19L572.524 411.811L572.648 412.432L572.772 413.052L572.896 413.655L573.02 414.258L573.126 414.879L573.233 415.499L573.357 416.137L573.481 416.793L573.605 417.467L573.746 418.159L573.888 418.886L574.048 419.612L574.207 420.375L574.384 421.137L574.562 421.9L574.739 422.662L574.916 423.424L575.076 424.169L575.217 424.896L575.341 425.623L575.466 426.332L575.572 427.006L575.678 427.68L575.767 428.336L575.855 428.992L575.944 429.666L576.05 430.357L576.157 431.049L576.281 431.74L576.405 432.449L576.529 433.158L576.671 433.868L576.795 434.559L576.919 435.251L577.043 435.942L577.167 436.634L577.273 437.325L577.379 438.016L577.468 438.708L577.557 439.4L577.628 440.091L577.698 440.783L577.769 441.492L577.84 442.201L577.911 442.892L577.982 443.584L578.053 444.258L578.124 444.931L578.195 445.587L578.266 446.243L578.336 446.917L578.407 447.591L578.478 448.282L578.549 448.992L578.602 449.701L578.655 450.41L578.691 451.101L578.726 451.793L578.762 452.467L578.78 453.141L578.797 453.797L578.815 454.435V455.073L578.833 455.676L578.85 456.279L578.886 456.882L578.921 457.502L578.974 458.141L579.028 458.797L579.099 459.488L579.169 460.197L579.24 460.924L579.311 461.669L579.382 462.449L579.453 463.229L579.506 464.009L579.559 464.789L579.612 465.569L579.648 466.35L579.683 467.147L579.719 467.945L579.754 468.743L579.772 469.559L579.79 470.392L579.807 471.226L579.843 472.077L579.878 472.928L579.914 473.779L579.949 474.63L579.985 475.481L580.02 476.314L580.073 477.147L580.126 477.981L580.197 478.814L580.268 479.647L580.339 480.481L580.41 481.314L580.481 482.147L580.552 482.998L580.623 483.85L580.693 484.718L580.764 485.605L580.835 486.491L580.888 487.36L580.924 488.211L580.959 489.062L580.995 489.913L581.012 490.782L581.03 491.651L581.048 492.519L581.066 493.388L581.083 494.257L581.101 495.144L581.137 496.03L581.172 496.935L581.207 497.839L581.243 498.725L581.296 499.612L581.349 500.481L581.402 501.349L581.456 502.218L581.509 503.087L581.562 503.956L581.597 504.824L581.633 505.675L582.094 506.597Z" fill="white"/>
<g id="Outline">
<path d="M317.951 155.023C271.307 151.637 227.498 124.811 202.44 85.4495C200.083 82.3644 201.837 77.3822 205.913 77.1517C211.371 77.0808 214.65 86.0523 218.637 89.3679C266.114 146.14 347.369 166.619 403.175 109.439C408.172 104.917 413.205 100.432 418.185 95.8927C420.223 93.6054 423.466 92.2048 426.532 93.0204C432.646 94.1906 435.358 102.417 430.945 106.921C397.521 135.928 364.098 157.807 317.951 155.023Z" fill="black"/>
<path d="M155.229 98.4281C153.332 91.6551 159.872 86.6552 164.55 82.9673C173.659 76.0348 184.931 71.1589 196.45 70.6625C201.164 70.7688 206.409 72.6127 208.713 77.0276C210.574 80.5559 207.49 85.2013 203.485 84.634C200.951 84.173 198.541 82.9673 195.9 83.517C185.427 85.3432 175.573 90.5559 168.91 98.9424C166.429 105.077 157.267 104.829 155.229 98.4281Z" fill="black"/>
<path d="M317.49 198.799C278.643 195.732 241.038 181.956 209.511 159.013C195.351 148.942 181.386 137.967 171.285 123.641C167.9 118.144 163.345 112.063 162.424 105.627C162.566 102.559 166.447 100.715 168.892 102.577C171.462 104.864 172.578 108.357 174.475 111.158C178.303 117.63 183.07 123.481 188.315 128.871C216.883 155.91 252.132 176.973 290.907 184.988C327.432 193.392 351.941 190.856 385.453 173.924C407.889 162.984 430.413 148.321 443.102 126.194C449.181 118.002 456.748 122.541 453.966 132.116C446.097 146.938 432.274 157.967 418.734 167.505C407.162 175.431 394.42 181.353 381.554 186.814C361.44 195.679 339.571 200.98 317.49 198.799Z" fill="black"/>
<path d="M448.348 122.931C441.152 118.446 439.132 109.563 433.249 103.942C429.97 100.627 422.243 101.566 422.58 95.4494C423.076 90.148 429.314 90.5913 433.284 90.8573C441.631 91.7438 450.137 96.8146 454.231 104.208C457.279 110.538 456.588 120.024 449.925 123.712C449.553 123.782 448.578 123.056 448.348 122.931Z" fill="black"/>
<path d="M178.409 119.616C176.991 117.063 179.543 114.722 180.943 112.772C189.379 103.144 201.819 97.8784 213.817 94.1905C208.359 97.7721 202.776 101.779 197.353 105.609C193.118 108.836 189.042 112.151 185.71 116.212C184.842 117.329 184.044 118.499 183.265 119.704C182.166 121.282 179.313 121.513 178.409 119.616Z" fill="black"/>
<path d="M206.055 146.974C210.273 136.336 213.941 124.527 222.731 116.726C224.131 115.573 225.708 114.279 227.534 113.995C229.749 113.836 231.645 116.123 230.298 118.144C219.665 126.034 214.207 136.867 206.055 146.974Z" fill="black"/>
<path d="M238.007 170.236C241.924 160.555 250.023 139.35 260.904 137.594C260.886 137.594 260.869 137.612 260.869 137.612C254.648 149.296 246.142 159.935 238.007 170.236Z" fill="black"/>
<path d="M283.127 188.303C283.96 181.778 284.935 175.289 286.388 168.888C287.735 162.949 289.064 156.655 292.892 151.796C294.15 156.158 294.061 160.75 292.644 165.076C290.287 173.055 287.097 181.069 283.127 188.303Z" fill="black"/>
<path d="M331.224 194.03C331.118 180.147 331.313 166.264 328.034 152.701C327.857 151.247 328.973 149.793 330.32 149.35C335.371 147.789 336.523 157.559 337.728 160.927C340.528 172.222 336.222 184.101 331.224 194.03Z" fill="black"/>
<path d="M374.2 186.725C371.346 179.456 368.794 172.027 365.356 165.023C362.928 160.13 358.25 156.477 357.346 150.91C357.133 150.573 357.204 150.378 357.683 150.201C359.845 149.474 362.397 150.467 364.08 151.867C373.668 160.626 375.901 174.456 374.2 186.725Z" fill="black"/>
<path d="M411.965 169.261C406.79 161.3 403.565 152.186 397.167 145.272C394.526 142.825 392.825 139.385 389.618 137.967C389.635 137.984 389.653 138.002 389.618 138.02C389.245 137.984 389.547 137.612 389.795 137.559C393.038 136.424 396.706 137.701 399.542 139.332C409.253 145.697 411.646 158.516 411.965 169.261Z" fill="black"/>
<path d="M436.97 146.3C431.99 134.864 425.469 124.385 415.97 116.247C431.158 118.126 438.388 132.08 436.97 146.3Z" fill="black"/>
<path d="M211.496 96.0877C205.08 88.4991 216.227 81.3539 219.453 74.9C227.002 64.9711 232.106 53.6059 235.438 41.6202C238.149 32.2763 239.496 22.5778 242.172 13.2339C243.696 8.51768 251.139 9.08507 251.884 14.0318C253.709 28.748 253.603 44.0315 248.764 58.198C244.423 72.134 234.782 83.5347 224.025 93.0559C221.083 96.6729 215.66 99.5983 211.496 96.0877Z" fill="black"/>
<path d="M407.924 108.871C391.266 89.5807 387.101 66.9213 391.266 42.223C390.894 37.3117 397.185 26.1062 401.562 33.748C403.175 36.3011 403.352 39.3508 403.139 42.294C403.193 47.8259 403.6 53.3045 404.238 58.8187C405.709 73.7653 411.699 87.6481 421.411 99.0664C427.525 108.286 414.942 117.488 407.924 108.871Z" fill="black"/>
<path d="M331.171 936.842C267.709 935.37 204.159 928.154 141.849 916.115C115.177 910.193 87.868 905.14 62.1891 895.867C51.6978 888.846 59.9384 881.328 69.8981 885.14C122.496 902.516 176.991 914.005 232.124 919.218C333.12 931.345 438.37 926.328 533.962 889.271C543.443 885.441 552.959 881.647 561.998 876.86C567.226 875.087 572.967 867.161 578.337 872.02C582.236 879.998 569.689 883.03 564.78 886.523C548.387 895.14 531.233 902.303 513.741 908.349C455.312 928.792 392.843 935.831 331.171 936.842Z" fill="black"/>
<path d="M562.264 879.927C563.628 872.161 564.94 864.325 565.329 856.381C565.595 852.197 566.995 848.013 570.008 844.999C580.499 834.484 585.568 853.048 581.35 860.938C578.78 867.09 574.545 883.42 567.031 884.005C564.745 884.023 562.512 882.303 562.264 879.927Z" fill="black"/>
<path d="M314.973 904.271C247.861 903.101 180.341 897.09 114.912 881.576C104.101 879.023 93.3972 876.204 82.7287 873.101C77.4475 871.151 71.174 870.761 66.8853 866.86C65.0245 864.927 63.5359 861.24 65.9107 859.094C68.3385 856.913 72.0247 856.506 75.0374 857.552C85.2629 861.098 95.7365 863.899 106.21 866.594C123.896 871.08 141.707 875.087 159.571 878.81C232.744 891.913 307.388 898.012 381.589 891.594C426.479 888.225 471.28 881.062 514.007 866.559C527.298 862.038 540.448 857.126 553.172 851.151C557.106 849.183 561.041 847.126 564.798 844.839C567.296 842.605 573.127 841.133 573.534 845.85C573.605 850.176 568.82 851.718 565.861 853.882C549.468 863.899 531.197 870.371 513.015 876.364C449.269 897.48 381.731 903.261 314.973 904.271Z" fill="black"/>
<path d="M59.0346 888.899C58.7688 880.034 55.3662 871.133 56.6245 862.321C59.4068 852.286 70.3234 852.587 73.2121 862.392C74.6298 871.399 71.4754 880.778 69.845 889.644C68.4804 895.335 59.584 894.75 59.0346 888.899Z" fill="black"/>
<path d="M537.772 890.3C535.645 889.005 536.266 885.832 537.471 884.041C539.704 879.165 541.228 873.952 543.23 869.112C545.286 874.892 545.871 881.523 543.301 887.232C542.61 889.413 540.076 891.718 537.772 890.3Z" fill="black"/>
<path d="M493.769 902.48C493.379 899.98 495.116 897.729 495.736 895.353C497.224 891.044 498.819 886.984 500.592 882.924C502.222 888.527 503.055 900.796 497.703 904.448C496.143 905.282 493.981 904.395 493.769 902.48Z" fill="black"/>
<path d="M455.95 913.81C454.196 911.771 455.489 908.969 455.649 906.594C456.305 901.984 457.226 897.214 458.538 892.835C460.221 897.516 463.836 911.399 458.626 914.36C457.74 914.821 456.571 914.679 455.95 913.81Z" fill="black"/>
<path d="M407.552 921.097C405.071 919.395 406.737 916.009 406.719 913.544C407.552 906.08 409.413 898.757 412.355 891.842C413.826 900.849 413.524 910.441 411.557 919.448C411.185 921.097 408.988 922.09 407.552 921.097Z" fill="black"/>
<path d="M357.718 923.278C356.992 922.214 357.133 920.264 357.24 919.253C357.612 912.924 358.941 906.647 361.458 900.831C363.46 905.831 364.222 911.523 363.956 916.966C363.708 919.324 364.01 922.055 362.308 923.934C361.05 925.565 358.551 925.122 357.718 923.278Z" fill="black"/>
<path d="M313.91 927.675C311.695 926.771 311.872 924.289 312.528 922.391C313.396 918.083 314.229 913.774 315.913 909.874C318.181 913.721 322.221 929.235 313.91 927.675Z" fill="black"/>
<path d="M266.557 923.508C266.593 915.707 268.17 907.693 271.005 900.495C272.033 904.431 275.968 926.54 269.552 926.133C268.081 926.15 266.752 924.998 266.557 923.508Z" fill="black"/>
<path d="M230.369 918.633C229.589 917.782 229.572 916.576 229.554 915.494C229.572 910.601 230.795 905.495 233.169 901.292C234.392 903.846 236.979 924.005 230.369 918.633Z" fill="black"/>
<path d="M188.617 914.076C187.252 909.998 187.801 905.229 189.574 901.363C191.523 903.491 196.326 914.962 191.824 915.938C190.442 916.328 189.042 915.459 188.617 914.076Z" fill="black"/>
<path d="M147.449 909.395C140.006 903.899 141.459 891.47 144.135 883.757C145.73 886.931 157.32 913.969 147.449 909.395Z" fill="black"/>
<path d="M100.858 898.987C96.41 894.378 103.02 879.644 106.405 875.176C107.203 878.438 107.982 904.218 100.858 898.987Z" fill="black"/>
<path d="M3.19312 190.324C0.641179 189.828 -0.847364 186.583 0.517217 184.331C3.35271 179.739 6.41857 175.271 9.69711 170.981C28.819 145.006 58.822 128.002 88.8427 118.162C104.952 111.442 121.752 106.655 138.198 100.981C143.656 98.9423 149.079 96.8147 154.662 95.148C157.107 94.4211 159.588 93.4991 162.105 94.5098C166.074 96.0168 167.864 101.354 165.153 104.811C163.292 107.524 159.925 107.754 157.054 108.765C149.505 110.946 141.973 113.215 134.512 115.644C115.053 121.726 95.9847 128.96 77.2527 137.009C64.1208 142.665 51.1307 148.906 39.3634 157.08C27.8265 165.874 17.8491 176.583 8.42108 187.576C7.25144 189.296 5.42607 190.963 3.19312 190.324Z" fill="black"/>
<path d="M537.595 175.395C520.086 159.952 499.351 149.101 478.049 140.112C472.432 137.612 466.867 135.077 461.409 132.293C457.74 130.059 452.548 128.818 451.024 124.368C449.34 120.095 454.976 119.243 457.882 120.343C477.961 128.286 499.386 135.414 517.25 147.683C525.526 152.541 533.643 157.718 541.121 163.764C543.213 165.378 545.587 166.974 546.597 169.527C549.273 176.282 542.681 179.367 537.595 175.395Z" fill="black"/>
<path d="M59.4777 861.275C51.8573 860.495 48.8091 852.037 43.8825 847.233C39.4875 842.02 34.9329 836.328 34.0114 829.36C33.0013 816.346 40.0723 804.343 44.9104 792.676C46.3813 788.9 48.6497 784.893 47.4801 780.744C45.1053 772.747 41.6672 765.106 37.7507 757.748C32.8595 748.758 25.2214 741.631 20.4896 732.588C12.6389 718.067 20.9327 701.259 27.5606 687.855C57.1029 642.997 64.3157 614.54 65.5917 561.03C66.9563 497.059 60.5765 433.336 55.1182 369.702C55.1004 365.305 53.4168 360.163 56.8726 356.688C57.2448 356.298 57.8827 355.748 58.4675 355.801C59.5485 355.89 60.5232 356.652 61.2498 357.415C64.7765 361.865 63.8195 368.337 65.1132 373.638C68.498 394.932 71.7766 416.262 74.4704 437.644C78.759 473.424 81.0451 509.488 80.992 545.533C80.5667 588.405 77.5186 633.015 57.2271 671.631C51.6801 682.376 44.8395 692.411 39.7887 703.404C36.7051 711.276 32.2747 720.514 37.6621 728.351C45.3711 739.805 54.2498 750.602 59.6549 763.475C73.602 788.776 60.5233 799.006 52.7256 822.481C49.3585 830.265 56.6954 836.311 61.0018 841.967C63.4474 844.892 66.6019 847.853 67.1867 851.789C68.1791 856.523 64.6879 861.913 59.4777 861.275Z" fill="black"/>
<path d="M573.57 853.332C567.491 852.25 565.524 845.548 567.988 840.389C571.497 831.187 575.785 821.683 573.464 811.63C571.231 796.896 562.14 784.715 556.646 771.152C553.562 764.414 551.967 756.808 554.236 749.574C556.646 741.613 559.41 733.759 561.236 725.62C564.266 712.606 566.18 699.362 567.421 686.064C569.813 660.639 569.281 635.054 570.274 609.54C571.603 571.26 573.8 532.803 572.737 494.523C571.904 466.208 569.175 438.389 566.836 410.216C565.099 390.854 563.38 371.51 560.19 352.344C559.021 345.926 558.241 339.419 558.826 332.894C558.79 330.216 559.694 327.912 559.109 325.483C559.091 325.483 559.091 325.447 559.109 325.447C559.198 325.412 559.304 325.394 559.393 325.483C560.81 326.724 561.679 328.55 562.547 330.199C564.124 333.178 565.453 336.298 566.499 339.507C571.231 358.78 573.676 378.567 576.14 398.23C579.223 424.01 582.307 449.825 584.451 475.711C589.289 528.264 585.355 580.923 584.327 633.547C584.079 667.11 582.218 700.975 574.669 733.794C573.038 741.312 569.955 748.439 568.289 755.922C568.094 758.031 568.909 760.053 569.724 761.95C572.383 767.535 575.342 772.996 578.266 778.439C581.297 784.077 584.38 789.839 586.33 795.956C590.813 808.776 592.16 822.818 587.056 835.69C585.763 839.449 584.079 843.066 582.91 846.878C581.882 850.938 577.859 854.094 573.57 853.332Z" fill="black"/>
</g>
</g>
</svg>
