<svg width="1240" height="1658" viewBox="0 0 1240 1658" fill="none" xmlns="http://www.w3.org/2000/svg">
<path d="M586.47 4.04105C586.931 4.69676 586.683 5.52961 586.169 6.06127C583.635 9.2335 579.736 9.12719 576.05 8.9677C575.288 8.93225 574.544 8.87911 573.799 8.87911C491.871 6.57526 410.014 10.0133 328.122 12.1576C296.914 13.2564 265.688 12.1931 234.497 13.0969C188.935 14.7274 143.974 18.3249 98.4291 16.1805C85.4036 15.897 72.3781 15.6134 59.3703 16.1805C55.7019 15.9856 51.7144 16.9426 47.9574 16.8717C45.5827 16.8363 43.3144 16.3933 41.2586 15.0109C40.6384 14.5679 40.0712 14.0361 39.7699 13.3627C40.3016 11.5196 42.1446 10.2792 43.8459 9.55255C44.8738 9.14495 45.9194 8.93222 46.9827 8.82589C48.8612 8.66639 50.7752 8.79049 52.6537 8.64871C58.5374 8.48922 64.421 8.31201 70.3046 8.2234C103.338 8.34746 137.205 10.1373 170.079 8.41832C230.475 3.91695 290.746 5.6537 351.178 3.88151C417.475 1.68399 483.436 -1.04523 549.751 0.407967C558.116 0.461133 566.462 0.408037 574.809 0.478924C577.822 0.514368 581.349 0.213048 583.972 1.64852C584.982 2.16246 585.832 2.92457 586.47 4.04105Z" fill="black"/>
<path d="M47.0005 8.80827C50.5448 9.99564 51.236 14.94 47.9752 16.854C47.7625 16.978 47.5321 17.1021 47.284 17.1907C45.8485 17.8287 44.2536 17.3857 42.7472 17.1907C30.8381 17.0844 14.286 21.2845 11.7163 34.7886C9.82009 46.9636 9.85549 59.5816 11.4505 71.8098C11.5745 72.4655 11.7163 73.1212 11.8581 73.7946C11.9821 74.3617 12.1062 74.9111 12.2302 75.4782C12.3543 75.9921 12.4606 76.5061 12.5847 77.0023C12.7973 77.9238 13.0277 78.8276 13.2581 79.7491C15.0303 86.8556 17.1392 93.9267 18.8582 100.891C15.562 94.3166 11.5568 88.0254 8.15422 81.4682C5.939 77.215 3.97187 72.8553 2.60729 68.2299C-0.742138 52.7232 -2.67382 31.5455 8.4732 18.7857C18.3088 9.57032 33.1597 6.45119 46.2207 8.63099C46.5043 8.66643 46.7524 8.71966 47.0005 8.80827Z" fill="black"/>
<path d="M659.112 170.627C654.558 151.558 648.16 133.004 643.517 113.97C641.125 103.993 638.75 94.0331 636.091 84.1265C631.484 63.1083 628.134 41.4697 614.701 24.0491C606.018 13.6286 592.124 10.0665 579.027 9.97784C572.24 9.58796 573.658 0.620708 580.303 1.61314C595.934 1.29414 612.238 6.06128 622.322 18.6084C632.813 32.2898 638.768 48.9661 642.241 65.7134C644.261 75.1237 646.671 84.4278 649.064 93.7495C654.416 119.003 657.588 145.001 659.112 170.627Z" fill="black"/>
<path d="M707.014 709.782C709.814 696.721 711.941 683.536 713.926 670.333C721.387 624.876 724.843 578.888 729.078 533.059C731.311 499.741 731.967 465.822 725.073 433.018C717.647 393.888 706.146 355.768 695.584 317.418C686.067 277.969 676.852 238.431 667.016 199.071C661.115 176.582 655.568 153.969 649.241 131.586C648.178 126.039 642.826 118.082 649.578 116.274C652.023 116.274 653.831 118.56 654.345 120.758C655.727 125.029 657.039 129.317 658.279 133.624C663.631 152.622 668.398 171.779 673.626 190.813C684.366 229.819 693.333 269.268 702.513 308.663C716.017 360.482 733.455 411.841 738.187 465.467C740.562 501.655 738.081 537.826 734.554 573.872L734.536 573.979L734.465 574.333L734.359 574.918L734.324 575.131L734.288 575.325L734.253 575.538L734.005 576.903L733.969 577.08L733.827 577.86L733.792 578.072L733.757 578.303L733.65 579.047L733.615 579.313L733.438 580.554L733.42 580.784L733.349 581.245L733.331 581.475L733.296 581.688L733.278 581.9L733.172 582.592L733.101 583.088L733.03 583.619L732.888 584.754L732.87 585.037L732.835 585.321L732.817 585.604L732.8 585.87L732.764 586.136L732.746 586.384L732.729 586.65L732.711 586.898L732.676 587.146L732.658 587.394L732.622 587.66L732.551 588.156L732.534 588.404L732.463 588.901L732.268 591.63L732.232 592.091V592.321L732.215 592.534V592.746L732.197 592.959V593.172L732.179 593.384V593.615L732.162 593.827V594.058L732.126 594.518L732.002 596.255L731.984 596.486L731.949 596.911V597.106L731.914 597.496L731.896 597.673V597.779C730.956 606.747 730 615.696 729.078 624.664C726.065 651.087 722.007 677.386 717.204 703.544C714.546 718.289 711.463 733.37 704.019 746.466C702.513 734.203 704.232 721.833 707.014 709.782Z" fill="black"/>
<path d="M252.325 615.944C247.736 604.974 244.138 593.154 236.713 583.69C224.325 572.207 207.029 567.936 190.565 566.66C154.714 562.087 118.721 566.553 82.7808 566.89C68.9401 566.731 42.7649 569.034 32.185 560.067C16.6075 545.039 38.9016 525.261 52.955 519.182C58.9627 516.4 80.7605 510.091 85.8467 514.717C87.0872 515.886 87.4062 517.889 86.7682 519.413C84.8897 523.542 79.5022 521.575 75.9401 522.922C61.4259 526.076 41.8612 533.218 37.5016 548.92C38.5826 559.216 76.1174 555.902 84.6061 556.044C105.358 555.601 126.04 553.988 146.774 553.262C161.997 552.961 177.256 553.917 192.408 555.495C202.616 556.54 213.001 557.639 222.464 561.857C230.776 565.561 239.902 569.708 244.865 577.736C251.333 589.291 251.014 603.255 252.325 615.944Z" fill="black"/>
<path d="M309.124 650.094C309.975 625.213 316.532 580.624 296.736 562.318C282.523 550.905 263.526 549.895 246.353 546.917C220.462 542.646 194.18 544.206 168.076 543.036C149.238 542.575 130.151 543.727 111.526 540.307C101.92 538.234 92.5455 533.803 85.7758 526.573C82.7099 523.489 78.5629 516.489 84.482 514.256C87.8846 513.015 89.8695 516.453 91.5708 518.793C93.2189 520.653 95.1506 522.231 97.2063 523.648C106.918 530.365 118.845 531.606 130.328 532.315C144.382 533.059 158.453 532.952 172.524 533.147C186.577 533.821 200.613 533.821 214.684 533.963C230.935 534.37 247.08 536.568 263.1 539.173C295.602 543.125 317.985 556.806 319.917 591.913C321.547 611.762 314.299 631.327 309.124 650.094Z" fill="black"/>
<path d="M307.706 957.552C288.301 956.241 264.553 952.963 254.842 933.681C250.5 924.732 249.827 914.506 249.011 904.741C247.984 884.219 250.075 863.573 252.946 843.264C256.49 822.653 262.746 802.574 267.921 782.318C275.949 751.411 285.04 720.805 292.838 689.827C297.498 672.814 301.964 655.765 306.43 638.699C309.106 627.375 311.871 616.246 315.964 605.488C315.982 605.435 315.982 605.382 315.982 605.347C319.172 613.853 319.066 624.132 316.851 633.099C312.154 654.029 306.802 674.781 301.149 695.463C293.546 726.122 284.668 756.444 276.622 786.979C271.82 805.587 266.326 824.088 262.781 842.998C259.645 864.601 257.27 887.498 259.131 909.136C260.407 929.268 267.602 940.894 288.513 943.871C300.617 945.803 312.757 947.504 324.914 949.064C329.026 949.648 333.297 950.375 337.195 951.456C327.679 954.682 317.843 957.73 307.706 957.552Z" fill="black"/>
<path d="M276.799 979.474C259.999 978.376 241.675 976.763 228.312 965.634C213.798 953.033 205.345 934.337 202.722 915.516C199.16 886.541 206.196 857.76 209.882 829.157C216.226 787.262 223.687 745.314 230.953 703.774C236.571 668.72 247.682 632.993 241.161 597.372C240.665 595.688 240.328 593.898 240.877 592.179C241.125 591.257 241.799 589.663 242.933 589.538C245.184 589.29 247.222 591.417 247.966 593.331C248.781 595.918 249.242 598.612 249.703 601.27C254.452 629.944 248.249 658.938 243.571 687.222C234.054 739.732 224.573 792.065 217.006 844.681C212.717 875.588 205.398 909.42 220.001 938.678C227.462 953.795 239.725 965.084 257.004 966.927C265.014 968.221 273.06 969.745 281.194 969.018C299.483 967.016 317.825 962.071 336.238 964.34C316.478 969.532 297.622 979.528 276.799 979.474Z" fill="black"/>
<path d="M357.629 959.378C356.991 959.024 356.353 958.669 355.715 958.315C356.441 958.722 357.186 959.13 357.913 959.502C357.842 959.467 357.736 959.432 357.629 959.378Z" fill="black"/>
<path d="M302.372 972.705C299.891 972.705 297.286 972.439 294.911 972.084C299.483 969.639 304.144 967.495 309.018 965.758C323.638 962.089 338.666 959.661 353.694 957.889C353.801 957.96 353.925 958.013 354.031 958.084C355.555 958.917 357.097 959.378 358.656 959.892C361.35 961.274 364.079 962.515 366.879 963.702C365.603 964.198 364.256 964.57 362.945 964.836C353.499 965.492 344.16 966.786 334.785 968.115C324.099 969.834 313.483 972.723 302.602 972.723C302.531 972.705 302.46 972.705 302.372 972.705Z" fill="black"/>
<path d="M1055.46 855.899C1052.75 842.856 1045.84 830.947 1034.99 823.025C1020.21 812.8 1005.5 804.329 989.075 797.577C958.434 785.348 926.251 777.817 893.891 771.791C819.53 757.667 743.698 753.945 668.203 751.021C585.655 747.246 503.196 753.077 420.949 759.705C375.014 763.125 329.238 769.168 283.179 770.409C281.691 770.125 280.485 768.902 280.184 767.431C279.865 765.748 280.734 764.064 282.258 763.302C283.321 762.771 284.65 762.735 285.802 762.611C291.615 762.115 297.445 762.026 303.258 761.672C327.732 760.059 352.17 757.897 376.573 755.257C475.709 746.431 575.235 738.013 674.849 741.806C758.195 744.606 841.789 749.798 923.345 768.282C962.811 777.692 1004.48 787.776 1036.29 814.306C1049.03 824.461 1055.66 839.826 1055.46 855.899Z" fill="black"/>
<path d="M571.992 1004.02C548.103 1003.97 524.196 1003.19 500.413 1001.11C500.732 999.872 500.927 998.614 501.016 997.303C536.087 997.817 571.194 996.364 606.248 995.283C662.09 993.688 717.931 990.48 773.436 984.1C795.641 981.814 816.854 980.148 838.634 976.196C854.673 973.307 870.87 971.429 886.962 969.018C905.516 966.006 923.699 961.469 941.828 957.074C964.548 951.19 986.08 941.372 1007.17 931.235C1032.3 918.298 1061.88 895.579 1056.98 863.874C1054.43 854.039 1049.35 845.089 1045.34 835.785C1044.65 834.314 1044.14 832.825 1044.49 831.177C1045.68 825.63 1052.24 828.98 1053.48 832.914C1059.98 846.064 1068.56 859.816 1066.54 875.074C1062.71 908.374 1031.91 929.658 1003.87 942.95C991.148 948.904 977.13 954.522 964.229 959.378C945.001 966.36 925.028 970.011 905.233 974.601C886.164 978.766 866.706 980.591 847.477 983.692C795.482 991.844 742.99 996.682 690.498 1000.03C654.912 1002.42 619.22 1004.09 583.546 1004.09C579.701 1004.07 575.855 1004.05 571.992 1004.02Z" fill="black"/>
<path d="M549.91 1005.31C526.872 1005.6 504.064 1002.64 481.416 998.685C468.496 996.86 454.744 995.513 442.445 992.305C416.022 985.376 390.254 976.16 364.079 968.345C351.656 964.358 338.454 962.089 326.828 955.993C323.177 953.937 319.792 951.226 316.656 948.568C325.446 947.504 334.236 949.471 342.565 952.129C376.679 962.408 410.209 974.76 444.696 983.728C453.362 985.837 462.17 987.095 470.995 988.247C488.38 990.48 505.57 993.989 522.973 996.044C539.897 998.49 557.46 995.389 573.906 1000.67C566.728 1004.46 558.045 1005.69 549.91 1005.31Z" fill="black"/>
<path d="M580.658 903.075C492.509 900.027 404.06 888.313 319.403 863.112C313.82 861.358 308.256 859.462 302.744 857.512C303.24 857.353 303.843 857.53 304.445 857.512C320.324 858.008 336.026 860.613 351.32 864.867C372.214 869.935 392.576 874.33 413.541 878.583C472.519 890.049 532.366 894.781 592.248 896.128C624.679 895.295 656.968 892.584 689.363 891.148C722.078 889.713 754.739 886.806 787.028 881.33C823.925 874.72 860.095 864.53 896.567 855.97C927.208 848.687 958.469 843.37 988.49 833.853C991.414 833.038 994.391 831.975 997.192 831.23C955.652 849.112 911.223 858.38 867.751 870.201C845.847 875.252 824.102 880.976 802.11 885.637C765.319 892.726 727.997 896.341 690.586 898.024C676.054 898.822 661.522 899.814 646.973 900.523C624.909 901.64 602.81 904.192 580.658 903.075Z" fill="black"/>
<path d="M730.496 598.931C726.934 596.521 728.493 591.559 729.556 588.174C730.779 583.868 731.967 579.543 733.491 575.343C733.987 574.085 734.501 572.827 735.015 571.568V571.622L734.979 571.817L734.944 571.994L734.909 572.189L734.802 572.72L734.519 573.996L734.448 574.351L734.235 575.521L734.2 575.733L733.987 576.903L733.952 577.08L733.845 577.665L733.774 578.09L733.739 578.321L733.633 579.065L733.597 579.331L733.42 580.571L733.402 580.802L733.331 581.263L733.313 581.493L733.278 581.706L733.26 581.918L733.154 582.609L733.083 583.105L733.012 583.637L732.87 584.771L732.853 585.055L732.817 585.338L732.8 585.622L732.782 585.888L732.747 586.154L732.729 586.402L732.711 586.668L732.693 586.916L732.658 587.164L732.64 587.412L732.605 587.678L732.534 588.174L732.516 588.422L732.445 588.918L732.25 591.648L732.215 592.108V592.339L732.197 592.551V592.764L732.179 592.977V593.189L732.162 593.402V593.632L732.144 593.845V594.076L732.108 594.536L731.984 596.273L731.967 596.503L731.949 596.716L731.931 596.911V597.106L731.896 597.496L731.86 597.85V598.027L731.843 598.205V598.364L731.825 598.524V598.559C731.382 598.719 730.886 598.807 730.372 598.807C730.567 598.931 730.531 598.931 730.496 598.931Z" fill="black"/>
<path d="M963.874 778.579L963.892 778.596L963.945 778.614L963.998 778.632L964.051 778.65L964.122 778.685L964.193 778.72L964.282 778.756L964.353 778.791L964.53 778.862L964.619 778.897L964.938 779.004L965.31 779.11L965.434 779.146L965.576 779.181L965.7 779.217L966.125 779.323L966.284 779.358L966.763 779.465L967.117 779.536L967.294 779.589L967.472 779.624L967.578 779.66C966.657 780.705 965.629 781.662 964.512 782.548C964.211 781.219 963.998 779.89 963.874 778.579Z" fill="black"/>
<path d="M1062.14 504.775C1057.66 501.762 1052.48 499.706 1047.52 498.076C1008.57 484.607 967.064 482.746 926.304 479.946C891.498 477.749 856.764 474.186 821.905 473.088C802.889 472.361 783.271 472.999 764.38 471.564C759.719 471.245 755.04 471.298 750.38 471.067C745.488 470.908 740.845 469.082 736.149 467.966C735.848 467.931 737.106 467.239 737.088 467.257C743.167 464.333 749.99 463.252 756.688 463.465C761.261 463.465 765.833 463.624 770.405 463.784C774.977 463.943 779.55 464.103 784.122 464.103C839.786 462.455 895.149 468.888 950.618 472.414C986.292 474.541 1022.89 477.571 1056.13 491.43C1064.27 495.063 1069.99 501.496 1074.83 508.691C1073.63 510.02 1072.62 511.509 1071.78 513.086C1068.72 510.162 1065.54 507.344 1062.14 504.775Z" fill="black"/>
<path d="M1007.56 798.002C1007.31 789.407 1010 781.201 1013.21 773.368C1020.12 755.558 1028.08 738.19 1033.54 719.83C1046.81 680.842 1060.14 641.747 1067.8 601.235C1072.39 575.946 1075.82 549.912 1071.09 524.375C1069.96 519.005 1068.08 513.777 1064.92 509.258C1062.78 506.866 1060.33 502.701 1063.75 500.291C1071.38 496.286 1079.01 516.719 1079.67 522.319C1084.99 551.543 1080.54 581.493 1074.99 610.362C1067.12 648.765 1054.24 685.769 1041.41 722.737C1036.94 736.489 1032.25 750.17 1027.12 763.692C1022.44 775.92 1018.95 790.257 1007.56 798.002Z" fill="black"/>
<path d="M216.191 924.448C174.403 909.685 129.106 905.733 90.2417 883.368C73.3882 873.887 59.6715 855.208 62.2235 835.165C64.5096 820.349 72.6262 806.508 84.4821 797.311C110.569 776.47 145.108 773.227 177.22 770.373C187.641 769.469 198.114 769.381 208.535 768.53C213.036 768.371 217.52 768.247 222.021 768.211C224.148 768.211 226.576 768.229 227.816 770.249C228.826 771.72 228.454 773.634 227.373 774.945C225.672 776.895 222.854 776.115 220.568 776.381C210.679 776.806 200.844 778.118 190.937 778.454C156.858 780.439 119.908 781.857 91.4645 802.751C81.5225 809.858 74.7883 820.438 71.5984 832.152C66.7426 849.059 78.12 865.735 91.7658 874.756C112.713 887.462 136.549 893.665 159.64 901.197C178.904 907.647 198.487 914.665 216.191 924.448Z" fill="black"/>
<path d="M168.661 829.76C156.433 826.96 107.077 819.747 108.07 804.222C108.212 802.769 109.647 802.06 110.905 802.184C110.055 804.329 113.333 804.594 114.592 805.605C138.25 819.8 166.197 824.815 192.16 833.428C184.469 832.577 176.423 831.124 168.661 829.76Z" fill="black"/>
<path d="M84.7479 517.729C76.5427 507.557 77.7479 493.822 77.1453 481.523C76.9326 472.698 76.525 463.89 75.7807 455.1C72.1477 419.567 70.4641 383.822 65.6438 348.432C59.3702 296.825 49.7118 245.609 36.9521 195.279C30.9267 170.769 26.9039 145.781 19.638 121.626C16.9088 112.872 14.2151 104.117 11.6808 95.3091C9.07573 88.7342 7.977 81.734 7.55168 74.8579C18.6633 81.0783 20.5949 96.9573 25.0254 108.299C36.261 139.295 40.727 172.116 49.5702 203.803C58.626 240.558 66.6008 277.65 71.2794 315.256C75.4263 343.31 79.5023 371.381 81.2036 399.719C83.1352 427.932 86.9986 455.33 87.4771 483.508C87.1049 494.886 92.9177 508.035 84.7479 517.729Z" fill="black"/>
<path d="M80.2997 797.399C75.2313 796.017 77.1098 790.293 77.2339 786.447C77.9605 777.692 78.1731 768.902 79.201 760.165C83.596 732.395 84.8897 704.182 84.9783 676.181C85.829 648.251 85.4214 620.286 86.6619 592.356C86.91 586.278 87.229 580.199 87.6366 574.138C88.31 569.584 87.0163 558.171 94.0164 559.606C96.1785 560.616 96.781 563.523 96.5506 565.649C95.9835 571.71 95.6646 577.789 95.3102 583.868C93.2367 620.038 92.7582 656.279 92.4038 692.503C92.1202 710.703 91.2872 728.904 89.6745 747.033C88.7353 755.983 87.1227 764.879 86.8923 773.9C86.7151 778.561 86.6088 782.832 86.4493 787.44C86.5024 791.675 86.3252 798.392 80.2997 797.399Z" fill="black"/>
<path d="M79.3428 797.736C77.9782 797.08 77.2339 795.45 77.3757 793.997C78.8997 787.705 88.0087 791.073 91.6771 793.554C88.7175 796.992 83.8086 799.898 79.3428 797.736Z" fill="black"/>
<path d="M1015.36 529.975C1011.14 525.332 1005.68 523.028 999.655 521.77C993.594 520.228 987.498 518.775 981.33 517.765C957.3 513.582 933.854 511.332 909.663 509.648C861.637 506.494 813.079 504.314 765.036 504.101C758.159 504.137 751.301 503.995 744.443 504.154C741.341 504.278 736.769 505.395 735.936 501.266C735.334 496.498 740.562 496.357 744.017 496.428C749.21 496.321 754.385 496.481 759.577 496.428C809.783 495.825 859.121 498.235 909.114 501C935.466 503.109 962.439 503.729 987.976 511.048C994.125 513.104 1000.03 515.957 1005.61 519.218C1010.13 521.486 1013.27 525.651 1015.36 529.975Z" fill="black"/>
<path d="M968.73 783.629C966.036 780.351 968.411 776.523 969.474 773.12C971.194 767.68 972.966 762.239 974.844 756.851C984.414 727.22 992.672 697.164 999.832 666.859C1003.41 651.813 1006.85 636.732 1010.09 621.615C1014.2 604.106 1017.98 585.392 1016.69 567.457C1014.84 551.667 1014.1 531.269 997.865 523.329C994.941 522.408 993.665 518.172 996.288 516.205C1000.68 513.352 1006.41 518.438 1009.99 520.866C1022.53 531.393 1023.44 549.292 1025.71 564.409C1028.38 585.427 1024.06 606.427 1019.15 626.79C1014.52 646.887 1010.41 667.09 1005.4 687.098C998.786 713.929 990.9 740.405 982.713 766.793C981.011 772.057 979.93 777.55 978.016 782.708C976.28 786.075 971.14 786.784 968.73 783.629Z" fill="black"/>
<path d="M507.715 1282.87C497.454 1279.54 487.335 1272.79 483.649 1262.25C481.593 1254.89 481.841 1247.09 481.061 1239.54C480.405 1229.8 480.848 1219.93 480.831 1210.18C480.547 1198.68 480.193 1187 480.334 1175.53C480.033 1156.75 478.952 1137.98 480.086 1119.21C480.831 1099.68 479.803 1080.29 480.388 1060.8C480.795 1047.58 481.221 1034.36 481.256 1021.12C481.327 1012.28 481.167 1001.86 486.661 994.751C488.504 1001.8 490.206 1009.96 489.692 1017.08C490.011 1031.03 489.816 1044.09 489.373 1057.88C488.735 1076.38 489.231 1094.9 488.664 1113.4C487.654 1132.34 488.026 1151.27 488.717 1170.2C489.426 1196 488.947 1221.86 490.95 1247.57C490.666 1264.6 499.935 1271.51 515.3 1275.89C527.794 1278.94 541.12 1275.43 552.285 1269.64C558.594 1265.75 564.637 1261.36 570.45 1256.82C569.83 1260.7 568.412 1264.69 566.214 1268.06C560.986 1276.21 551.612 1280.22 542.609 1282.71C531.373 1286.45 518.933 1287.04 507.715 1282.87Z" fill="black"/>
<path d="M568.217 1261.75C564.052 1259.04 564.212 1253.49 564.832 1249.11C565.382 1239.69 566.002 1230.24 566.356 1220.79C566.711 1179.87 563.84 1138.65 564.885 1097.77C565.328 1067.2 563.326 1036.65 563.45 1006.09C563.875 1002.12 568.111 997.711 570.716 1003.38C571.62 1005.15 571.425 1007.05 571.371 1008.45C571.212 1017.61 571.513 1026.77 571.655 1035.94C573.977 1082.63 571.637 1129.4 574.083 1176.08C575.111 1199.23 575.731 1222.41 574.225 1245.55C573.799 1251.1 575.128 1260.03 568.217 1261.75Z" fill="black"/>
<path d="M513.191 1294.57C514.148 1298.61 510.869 1301.55 508.619 1304.39C506.492 1307.37 504.631 1310.52 503.107 1313.23C495.309 1328.61 492.775 1345.8 490.79 1362.68C488.504 1381.05 488.894 1399.41 489.018 1417.88C489.39 1437.99 489.036 1458.11 489.851 1478.22C490.897 1499.68 491.34 1521.16 491.464 1542.66C492.35 1560.26 494.211 1577.82 493.821 1595.47C493.661 1601.51 493.555 1607.63 493.396 1613.73C493.36 1614.82 493.342 1615.92 493.307 1617.04C493.289 1617.89 493.271 1618.76 493.236 1619.61C493.147 1622.3 493.059 1624.98 492.952 1627.65C491.871 1624.2 490.932 1620.73 490.117 1617.23C490.064 1617 490.011 1616.77 489.957 1616.54C489.479 1614.45 489.054 1612.34 488.646 1610.23C485.722 1594.57 484.924 1578.51 484.18 1562.58C483.879 1559.44 483.648 1556.29 483.454 1553.13C483.241 1549.84 483.099 1546.54 483.01 1543.25C482.621 1531.42 482.727 1519.6 482.691 1507.78C482.071 1495.31 481.61 1482.83 481.043 1470.35C480.246 1447.37 479.643 1424.49 479.856 1401.59C480.14 1379.8 481.132 1357.15 486.36 1335.72C486.555 1334.87 486.785 1334.02 487.016 1333.17C488.947 1325.76 491.428 1318.51 494.565 1311.5C497.666 1305.97 505.712 1289.93 513.191 1294.57Z" fill="black"/>
<path d="M553.029 1610.16C547.996 1591.38 547.748 1571.83 549.84 1552.6C551.559 1533.2 553.543 1513.79 553.614 1494.3C554.678 1474.89 554.624 1455.45 554.748 1436.03C555.688 1394.68 558.984 1352.77 542.91 1313.89C540.908 1309.95 538.834 1305.74 538.994 1301.23C540.589 1301.34 542.219 1301.71 543.708 1302.46C550.194 1306.13 551.842 1314.38 554.323 1320.87C570.149 1367.2 561.625 1416.8 562.617 1464.72C561.926 1493.85 561.323 1522.97 558.842 1552.02C558.169 1561.69 558.488 1571.42 558.24 1581.1C557.708 1590.95 555.723 1600.72 553.047 1610.18L553.029 1610.16Z" fill="black"/>
<path d="M525.224 1628.01C512.606 1627.34 498.712 1625.28 489.178 1616.38C498.375 1618.07 507.679 1617.93 516.983 1618.16C524.267 1618.51 531.639 1619.2 538.887 1617.98C544.204 1617.25 547.5 1614.65 548.528 1609.26C548.989 1605.95 551.434 1601.59 555.386 1602.86C560.88 1605.71 558.098 1613.44 556.255 1617.89C550.743 1629.18 535.981 1628.58 525.224 1628.01Z" fill="black"/>
<path d="M482.94 1656.72C464.278 1644.95 456.729 1621.7 454.815 1600.7C452.83 1584.29 454.726 1565.95 466.671 1553.51C471.722 1548.01 478.598 1541.6 486.679 1543.53C491.481 1544.95 490.719 1552.3 485.74 1552.69C484.712 1552.69 483.737 1552.9 482.815 1553.33C470.073 1561.37 464.97 1577.04 465.643 1591.54C466.511 1610.87 471.172 1632.62 486.962 1645.31C486.892 1629.36 487.831 1613.44 490.241 1597.63C491.304 1602.61 492.226 1607.95 493.271 1613.03C495.327 1624.89 498.57 1637.14 496.993 1649.19C495.806 1655.51 488.859 1659.94 482.94 1656.72Z" fill="black"/>
<path d="M556.29 1655.39C547.642 1655.42 547.553 1645.29 547.146 1638.91C546.632 1628.26 547.429 1617.61 548.049 1606.99C549.467 1592.81 548.617 1578.42 551.027 1564.35C551.877 1560.61 553.153 1556.55 555.404 1553.51C556.06 1560.61 558.434 1567.29 558.966 1574.4C559.746 1591.7 559.604 1609.01 558.948 1626.33C558.753 1632.39 558.594 1638.46 559.32 1644.51C573.427 1641.99 577.06 1624.96 578.956 1612.91C581.65 1591.27 575.749 1572.61 562.05 1555.79C559.586 1552.66 556.964 1549.66 554.624 1546.63C572.754 1549.24 587.037 1564.39 589.43 1582.41C594.463 1607.06 588.562 1654.41 556.29 1655.39Z" fill="black"/>
<path d="M72.1831 1478.52C65.8741 1467.34 70.7654 1453.24 75.0718 1442.48C85.2795 1417.92 101.849 1396.29 121.166 1378.17C149.45 1352.11 181.456 1329.5 217.13 1314.83C236.571 1307.42 257.039 1302.14 277.561 1298.97C277.349 1299 277.171 1299.04 276.959 1299.05C315.965 1291.95 355.218 1285.92 394.703 1282.31C406.222 1281.08 417.776 1280.38 429.349 1280.25C433.584 1280.2 437.838 1279.91 442.073 1280.32C444.076 1280.55 446.096 1280.82 447.283 1282.64C448.701 1284.81 447.815 1287.48 445.493 1288.51C444.341 1289.02 443.26 1288.85 442.091 1288.69C438.653 1288.47 435.197 1288.63 432.326 1288.7C421.179 1289.02 410.05 1289.73 398.938 1290.8C370.069 1293.1 341.023 1297.35 312.491 1301.77C283.888 1306.85 255.214 1312.26 227.781 1322.08C193.17 1334.8 162.387 1356.01 134.954 1380.42C118.1 1394.91 104.189 1412.49 93.4139 1431.92C89.3202 1439.41 85.9885 1447.28 83.5606 1455.47C81.7175 1463.99 77.4465 1471.65 72.2008 1478.52C72.2008 1478.54 72.1831 1478.54 72.1831 1478.52Z" fill="black"/>
<path d="M80.1048 1568.13C57.5272 1568.36 38.6712 1547.39 36.2788 1525.81C35.2332 1499.15 64.1374 1467.06 91.748 1471.83C99.971 1471.21 107.751 1475.05 113.971 1480.14C131.037 1494.39 132.809 1520.67 125.171 1540.36C117.445 1557.46 98.6241 1568.22 80.1048 1568.13ZM80.5833 1555.85C93.2721 1555.6 106.723 1548.77 111.419 1536.46C114.822 1526.18 114.928 1514.52 110.639 1504.47C104.313 1494.17 95.3987 1483.93 83.3833 1480.6C61.7981 1485.44 40.4965 1513.42 51.3954 1535.18C56.7828 1546.24 67.6641 1556.22 80.5833 1555.85Z" fill="black"/>
<path d="M34.7724 1530.86C23.5013 1524.18 21.7823 1509.52 23.9089 1497.66C26.9748 1480.99 38.937 1467.02 54.1069 1459.86C59.583 1457.2 72.892 1452.46 76.8439 1459.01C78.563 1462.29 75.7983 1466.01 72.2894 1466.14C70.5172 1466.24 68.816 1466.65 67.1324 1467.13C61.2488 1469.08 55.9322 1472.39 51.0765 1476.2C39.9117 1485.22 33.4255 1500.06 37.218 1514.25C38.1218 1520.84 39.3978 1527.4 41.3472 1533.78C39.0434 1533.27 36.8104 1532.08 34.7724 1530.86Z" fill="black"/>
<path d="M112.394 1489.1C102.806 1485.31 122.123 1451.8 125.295 1445.65C134.635 1427.52 147.217 1411.11 163.752 1398.99C194.428 1374.64 231.467 1360.46 269.055 1350.84C298.916 1342.38 329.486 1336.48 360.429 1333.93C388.854 1331.13 417.546 1324.72 446.06 1328.92C418.964 1339.37 389.492 1339.89 361.067 1344.28C329.38 1347.1 298.916 1353.34 268.594 1362.45C240.186 1370.12 211.441 1379.41 186.648 1395.07C168.094 1406.59 150.265 1420.43 139.207 1439.64C132.207 1451.29 126.27 1462.36 121.078 1474.71C118.827 1478.98 118.348 1489.28 112.394 1489.1Z" fill="black"/>
<path d="M432.787 1332.07C432.326 1331.63 431.723 1330.99 431.759 1330.33C433.442 1326.54 436.686 1325.5 439.627 1323.3C448.666 1316.1 450.526 1309.23 449.498 1298.04C449.481 1297.18 449.268 1296.22 449.268 1295.4C451.164 1296.7 452.936 1298.03 454.425 1299.8C458.448 1304.46 460.415 1311.03 458.395 1316.99C456.357 1323.79 439.627 1338.84 432.787 1332.07Z" fill="black"/>
<path d="M949.892 1573.66C935.094 1572.66 922.317 1563.68 913.243 1552.46C906.952 1544.66 904.01 1534.54 903.975 1524.62C904.116 1513.95 910.089 1504.45 916.663 1496.46C925.064 1486.53 935.962 1476.33 949.573 1475.46C952.532 1475.23 955.793 1475.74 957.654 1478.29C984.733 1471.81 1007.59 1499.15 1007.75 1524.53C1007.22 1554.02 978.353 1575.98 949.892 1573.66ZM956.75 1561.25C986.806 1559.73 1003.98 1527.31 984.042 1503.3C972.452 1490.01 959.036 1486.71 941.97 1486.89C933.393 1491.59 926.729 1499.01 921.324 1507.06C903.159 1531.58 929.689 1563.09 956.75 1561.25Z" fill="black"/>
<path d="M929.565 1484.48C908.653 1405.1 850.543 1366.45 774.003 1347.93C746.693 1341.52 719.739 1338.52 692.039 1335.46C665.652 1331.98 639.299 1327.94 612.752 1325.76C605.22 1325.12 597.671 1324.68 590.121 1324.31C588.721 1324.25 587.073 1324.38 585.815 1323.63C584.627 1322.91 583.369 1321.81 583.511 1320.25C583.617 1319.24 584.397 1318.18 585.301 1317.68C586.648 1316.83 588.243 1316.72 589.784 1316.9C596.785 1317.24 603.785 1317.72 610.767 1318.34C639.618 1320.75 668.31 1324.5 697.072 1327.68C752.595 1332 809.641 1341.64 857.827 1371.13C874.645 1381.69 890.063 1394.65 903.248 1409.52C919.074 1427.75 928.803 1449.97 937.239 1472.36C938.479 1475.9 940.163 1479.73 939.578 1483.54C938.497 1488.34 931.585 1489.05 929.565 1484.48Z" fill="black"/>
<path d="M975.465 1482.78C968.287 1468.81 962.705 1454.07 957.725 1439.18C951.381 1423.46 944.079 1407.99 934.084 1394.22C919.783 1376.22 901.99 1361.13 883.488 1347.63C844.447 1319.95 796.297 1310.95 750.433 1300.86C716.052 1293.56 681.105 1288.97 646.104 1285.99C633.256 1284.81 620.39 1283.65 607.506 1282.95C603.625 1282.84 599.78 1282.38 596.093 1281.14C594.481 1280.84 592.815 1279.65 591.273 1280C591.238 1280.04 591.309 1280.18 591.238 1280.16C590.777 1279.83 591.167 1279.22 591.521 1278.94C595.19 1276.26 600.081 1275.47 604.529 1275.4C615.853 1275.8 627.16 1276.62 638.449 1277.59C674.743 1280.75 711.144 1284.4 746.906 1291.63C790.094 1300.58 835.072 1307.61 873.617 1330.35C889.283 1339.39 903.549 1350.5 916.929 1362.64C927.562 1372.53 938.071 1382.84 945.904 1395.18C962.492 1421.64 975.287 1451.3 975.465 1482.78Z" fill="black"/>
<path d="M585.177 1325.16C578.531 1320.69 576.032 1311.8 576.351 1304.14C576.493 1294.41 581.916 1285.48 590.227 1280.5C587.038 1287.38 584.344 1294.98 585.655 1302.76C586.417 1308.25 588.207 1313.75 591.698 1318.11C594.357 1322.34 589.607 1327.5 585.177 1325.16Z" fill="black"/>
<path d="M989.837 1546.33C993.186 1544.34 996.926 1542.59 1000.2 1540.27C1004.95 1536.71 1008.16 1531.53 1010.75 1526.29C1017.59 1513.4 1018.97 1501.58 1009.84 1489.3C1003.62 1480.72 995.153 1473.63 984.804 1470.78C979.983 1469.27 974.313 1469.42 970.981 1465.23H970.963C970.768 1465.11 970.839 1464.79 970.875 1464.61C975.181 1457.42 985.158 1461.78 991.538 1463.39C1001.48 1466.62 1009.74 1473.51 1016.22 1481.54C1025.35 1492.31 1029.46 1508.23 1024.61 1521.75C1019.89 1538.02 1007.19 1548.44 989.837 1546.33Z" fill="black"/>
<path d="M216.527 1038.4C223.846 1032.07 232.034 1026.38 241.356 1023.46C245.52 1022.15 249.774 1021.09 253.991 1019.95C275.151 1013.91 296.683 1009.46 318.658 1007.94C340.385 1005.9 362.254 1005.49 383.945 1002.96C398.46 1001.15 415.083 1000.21 422.845 986.174C424.475 983.427 427.435 979.475 430.873 982.186C432.521 983.533 432.734 986.014 431.404 987.662C429.845 989.558 428.587 991.667 427.204 993.67C418.503 1006.89 401.561 1008.34 387.206 1010.19C369.839 1012.26 352.383 1013.22 334.962 1014.62C321.299 1015.82 306.696 1017.31 293.387 1019.42C267.407 1024.1 242.49 1033.93 216.527 1038.4Z" fill="black"/>
<path d="M235.826 1056.16C249.455 1043.43 268.435 1038.88 286.103 1034.54C304.233 1030.48 322.469 1026.49 341.094 1025.78C361.776 1025.45 382.492 1026.1 402.961 1022.95C421.161 1020.39 435.073 1010.63 442.109 993.475C443.136 991.189 443.987 988.158 446.84 987.644C448.63 987.325 450.455 987.999 451.324 989.665C452.848 992.412 450.863 995.141 449.835 997.675C439.822 1021.55 419.07 1030.43 394.561 1032.11C376.662 1033.99 359.649 1033.86 341.874 1034.22C319.013 1035.55 296.311 1040.69 274.336 1046.85C261.718 1050.88 249.331 1056.9 235.826 1056.16Z" fill="black"/>
<path d="M166.162 1091.05C152.711 1089.33 140.891 1085.08 133.465 1073.1C147.501 1076.68 161.076 1083.31 175.803 1083.61C187.942 1082.69 220.196 1059.05 226.93 1048.86C231.591 1039.11 216.244 1041.84 210.963 1042.26C197.317 1045.54 184.132 1050.49 171.053 1055.52C164.727 1058.53 158.347 1061.44 152.144 1064.73C145.87 1068.15 139.774 1072.94 132.225 1072.36C130.275 1072.82 133.713 1067.78 134.227 1067.25C137.506 1063.19 142.539 1061.33 146.898 1058.73C155.387 1054.23 164 1049.92 172.754 1045.93C181.314 1042.25 190.21 1039.25 199.124 1036.56C208.163 1033.74 217.91 1031.44 227.391 1033.14C237.439 1035 239.867 1047.05 234.107 1054.51C228.56 1061.83 220.94 1067.27 213.586 1072.66C204.725 1078.56 195.97 1084.76 186.17 1089.03C180.038 1092.45 172.914 1092.29 166.162 1091.05Z" fill="black"/>
<path d="M157.319 1103.94C145.995 1098.53 132.809 1091.55 129.106 1078.65C128.627 1075.19 127.599 1070.21 131.232 1068.12C132.969 1067.22 135.149 1067.55 136.478 1068.99C137.417 1070 137.878 1071.58 137.559 1072.96C137.931 1083.02 147.908 1088.55 155.617 1093.13C172.985 1104.36 190.866 1093.34 204.813 1082.1C214.401 1075.21 223.492 1068.62 230.545 1059.67C233.292 1055.09 234.692 1049.37 233.771 1044.05C233.558 1042.72 233.133 1041.29 232.973 1040.03C234.887 1041.11 236.677 1042.28 238.219 1043.86C253.052 1062.2 221.1 1081.15 208.428 1090.57C194.286 1101.6 175.253 1111.63 157.319 1103.94Z" fill="black"/>
<path d="M793.001 1301.62C785.717 1297.35 778.557 1292.9 771.681 1288C762.732 1280.39 752.01 1273.41 741.306 1269.12C718.374 1260.03 693.404 1255.9 668.842 1254.84C652.396 1254.4 636.003 1256.47 619.663 1257.97C614.506 1258.58 609.332 1259.23 604.174 1259.91C599.585 1260.12 592.354 1263.38 589.855 1257.94C590.139 1254.41 594.162 1252.94 597.228 1252.76C603.023 1251.95 608.835 1251.24 614.666 1250.48C644.474 1246.69 674.69 1243.28 704.427 1249.54C738.719 1255.28 776.909 1268.32 793.001 1301.62Z" fill="black"/>
<path d="M283.197 1304.03C304.481 1272.35 332.393 1252.8 370.991 1249.36C393.622 1247.91 416.536 1247.38 438.972 1250.94C443.526 1252.22 456.18 1252.34 453.167 1259.64C451.944 1261.47 449.463 1261.96 447.46 1261.4C442.41 1260.21 437.288 1259.39 432.149 1258.75C417.635 1256.91 403.032 1257.21 388.447 1257.59C372.728 1257.89 356.689 1259.68 342.051 1265.7C320.094 1274.46 302.531 1290.85 283.25 1304.07C283.25 1304.07 283.25 1304.07 283.232 1304.07C283.197 1304.07 283.179 1304.05 283.197 1304.03Z" fill="black"/>
<path d="M445.635 1266.38C452.086 1254.57 466.192 1247.94 479.253 1248.49C481.291 1248.44 483.4 1248.35 485.137 1249.56C489.833 1252.48 485.864 1257.37 481.522 1257.16C469.063 1257.27 456.126 1259.66 445.635 1266.38Z" fill="black"/>
<path d="M603.98 1267.99C595.225 1261.91 585.283 1257.34 574.632 1256.06C569.351 1256.41 566.852 1250.18 572.187 1248.12C585.301 1247.63 597.706 1257.05 603.98 1267.99Z" fill="black"/>
<path d="M557.814 1335.86C553.65 1334.53 553.596 1329.57 557.655 1327.98C565.771 1326.31 574.172 1325.99 582.288 1324.17C585.974 1323.4 589.448 1322.09 592.833 1320.98C584.557 1330.99 570.521 1337.1 557.814 1335.86Z" fill="black"/>
<path d="M468.957 1335.65C464.332 1334.2 451.731 1329.31 450.898 1324.26C450.331 1321.14 453.734 1318.74 456.57 1319.88C467.415 1326.12 479.005 1330.99 491.092 1334.37C484.18 1336.73 476.117 1337.51 468.957 1335.65Z" fill="black"/>
<path d="M249.561 1443.75C235.383 1440.55 225.867 1428.03 222.447 1414.42C218.796 1398.99 218.938 1380.26 230.988 1368.45C232.513 1367.04 233.983 1365.46 235.862 1364.52C237.758 1363.67 240.718 1364.2 241.161 1366.52C241.692 1369.29 239.211 1371.15 237.51 1372.92C234.976 1375.7 233.257 1379.09 231.928 1382.6C227.745 1396.99 229.73 1413.82 238.272 1426.26C245.786 1435.07 259.113 1437.29 269.321 1432.08C285.075 1425.11 286.6 1404.77 279.599 1390.89C275.275 1378.68 268.24 1367.32 259.272 1358.32C290.392 1364.29 306.767 1401.95 288.956 1428.41C280.787 1440.74 263.933 1447.56 249.561 1443.75Z" fill="black"/>
<path d="M282.718 1376.87C286.741 1368.28 290.87 1359.84 297.906 1353.35C300.547 1351 303.223 1348.64 306.147 1346.64C308.256 1345.47 311.463 1344.72 313.448 1346.39C313.856 1347.65 313.466 1349.07 313.005 1350.27C310.294 1355.11 304.41 1358.6 300.6 1362.76C295.124 1368.05 289.311 1373.01 282.754 1376.91C282.736 1376.91 282.718 1376.89 282.718 1376.87Z" fill="black"/>
<path d="M288.797 1431.83C287.344 1430.96 285.129 1430.04 284.827 1428.18C284.81 1428.02 285.058 1427.7 285.129 1427.93C290.339 1424.92 296.648 1424.61 302.088 1421.99C319.598 1413.75 321.068 1396.93 315.202 1380.33C311.676 1370.28 305.58 1363.07 295.017 1360.66C306.483 1357.48 316.319 1361.86 322.327 1372.02C329.522 1385.27 330.762 1403.6 321.866 1416.34C316.142 1424.97 306.856 1430.8 296.754 1432.84C294.06 1433.4 291.349 1433.05 288.797 1431.83Z" fill="black"/>
<path d="M804.608 1433.99C794.684 1431.63 786.497 1424.19 780.985 1415.84C771.043 1400.58 774.552 1380.22 784.831 1366.04C787.471 1361.65 802.765 1341.87 806.965 1351.6C807.444 1355.82 802.482 1357.36 800.107 1359.98C796.882 1362.96 794.259 1366.43 791.76 1370.01C778.61 1388.02 781.092 1412.58 801.418 1423.87C818.485 1432.16 833.176 1420.75 838.989 1404.64C843.951 1391.24 840.601 1374.71 829.525 1365.33C828.958 1364.75 828.072 1364.22 827.629 1363.67C836.88 1365.44 844.872 1371.82 847.885 1380.82C857.579 1406.15 832.999 1442.34 804.608 1433.99Z" fill="black"/>
<path d="M783.714 1373.42C775.615 1366.73 771.043 1357.08 765.142 1348.64C763.192 1346.25 762.732 1341.66 766.205 1340.42C770.529 1339.23 772.939 1343.84 775.137 1346.71C781.34 1354.13 784.831 1363.72 783.714 1373.42Z" fill="black"/>
<path d="M774.322 1424.92C756.316 1422.82 747.154 1408.82 747.314 1391.58C746.942 1378.89 752.985 1367.14 760.818 1357.52C763.051 1354.35 767.304 1349.37 771.38 1352.61C773.808 1355.78 770.777 1359.45 768.704 1361.9C766.772 1364.52 764.982 1367.2 763.317 1369.98C754.385 1384.23 754.597 1407.78 770.689 1416.73C775.651 1419.85 781.145 1422.38 787.099 1421.96C788.021 1421.99 789.119 1421.78 789.935 1421.85C785.185 1424.4 779.727 1426.01 774.322 1424.92Z" fill="black"/>
<path d="M725.073 433.017C731.966 465.821 731.311 499.723 729.078 533.058C724.842 578.904 721.386 624.875 713.925 670.332C711.923 683.535 709.814 696.737 707.014 709.781C704.515 720.644 702.867 731.756 703.806 742.903C694.13 742.496 684.472 742.141 674.813 741.804C575.217 738.012 475.673 746.43 376.538 755.255C352.152 757.896 327.714 760.076 303.222 761.671C297.409 762.025 291.561 762.114 285.766 762.61C284.916 762.699 283.941 762.734 283.073 762.982C289.222 740.511 295.531 718.075 301.131 695.444C306.767 674.762 312.119 654.01 316.833 633.08C318.18 627.586 318.747 621.614 318.25 615.854C319.792 607.933 320.59 599.94 319.934 591.877C317.985 556.77 295.62 543.106 263.118 539.136C247.08 536.531 230.953 534.334 214.702 533.926C200.631 533.766 186.595 533.784 172.542 533.111C158.47 532.934 144.399 533.022 130.346 532.278C118.88 531.587 106.935 530.328 97.2415 523.612C95.1858 522.212 93.2541 520.635 91.606 518.756C90.3832 517.072 89.0186 514.84 87.0869 514.148C91.6592 504.933 87.1755 493.52 87.459 483.472C86.9805 455.294 83.1349 427.895 81.1855 399.682C79.4842 371.345 75.4083 343.273 71.2614 315.22C66.5651 277.631 58.608 240.522 49.5521 203.766C40.6912 172.079 36.243 139.258 25.0074 108.263C21.463 99.2245 19.5313 87.3153 13.2578 79.6949C12.6021 77.0543 11.9818 74.4137 11.4502 71.7731C9.85519 59.545 9.81979 46.9447 11.716 34.752C14.2857 21.2479 30.8201 17.0478 42.7469 17.1541C44.2533 17.3491 45.8482 17.7921 47.2837 17.1541C47.5318 17.0655 47.7622 16.9414 47.9749 16.8174C51.7319 16.8883 55.7016 15.9491 59.3877 16.1263C72.3955 15.5592 85.421 15.8428 98.4466 16.1263C143.992 18.2707 188.952 14.6907 234.515 13.0426C265.705 12.1388 296.931 13.1844 328.139 12.1034C410.032 9.95905 491.889 6.52093 573.817 8.82478C574.543 8.8425 575.288 8.87803 576.067 8.91347C576.776 9.48058 577.769 9.85275 579.045 9.92364C592.141 10.0122 606.035 13.5566 614.719 23.9771C628.17 41.4155 631.501 63.0362 636.109 84.0722C638.767 93.9787 641.142 103.956 643.534 113.916C648.178 132.949 654.575 151.522 659.13 170.573C659.076 169.616 659.006 168.659 658.952 167.684C661.646 178.123 664.304 188.578 667.034 198.999C676.869 238.359 686.085 277.897 695.601 317.346C706.146 355.767 717.647 393.887 725.073 433.017Z" fill="#E2E2E2"/>
<path d="M997.209 831.247C994.409 831.991 991.449 833.055 988.508 833.87C958.469 843.386 927.225 848.685 896.567 855.987C860.095 864.564 823.943 874.754 787.046 881.347C754.739 886.823 722.095 889.712 689.363 891.165C656.968 892.6 624.661 895.312 592.247 896.145C532.365 894.798 472.519 890.066 413.541 878.6C392.576 874.347 372.213 869.952 351.319 864.883C336.025 860.648 320.324 858.043 304.445 857.529C303.86 857.529 303.258 857.369 302.744 857.529C308.255 859.478 313.82 861.374 319.402 863.129C404.059 888.329 492.491 900.044 580.657 903.092C602.827 904.208 624.909 901.638 647.026 900.54C661.575 899.831 676.089 898.839 690.639 898.041C728.032 896.34 765.372 892.742 802.162 885.654C824.155 880.993 845.9 875.268 867.804 870.218C911.24 858.379 955.669 849.128 997.209 831.247ZM1057.02 863.873C1061.91 895.578 1032.32 918.297 1007.2 931.234C986.115 941.371 964.583 951.189 941.864 957.073C923.734 961.468 905.552 966.005 886.997 969.017C870.888 971.445 854.69 973.324 838.669 976.195C816.889 980.147 795.659 981.813 773.471 984.099C717.948 990.496 662.125 993.686 606.283 995.281C584.609 995.955 562.9 996.752 541.209 997.142C535.112 997.053 529.016 996.876 523.008 996.008C505.605 993.952 488.415 990.461 471.03 988.21C462.205 987.058 453.397 985.818 444.731 983.709C410.244 974.742 376.715 962.407 342.6 952.111C335.122 949.736 327.289 947.911 319.42 948.318C309.106 946.971 298.81 945.483 288.549 943.852C267.619 940.875 260.442 929.249 259.166 909.117C257.305 887.479 259.662 864.564 262.799 842.979C266.343 824.07 271.837 805.586 276.639 786.96C278.181 781.129 279.741 775.281 281.336 769.451C281.85 769.929 282.488 770.266 283.179 770.408C329.238 769.167 375.013 763.124 420.948 759.703C503.178 753.075 585.637 747.227 668.203 751.002C743.698 753.908 819.53 757.63 893.891 771.772C926.251 777.815 958.433 785.329 989.075 797.558C1005.5 804.327 1020.21 812.781 1034.99 823.024C1038.57 825.629 1041.73 828.677 1044.42 832.045C1044.37 833.356 1044.81 834.561 1045.38 835.766C1049.38 845.07 1054.47 854.02 1057.02 863.873Z" fill="#E2E2E2"/>
<path d="M241.16 597.371C247.682 632.992 236.571 668.719 230.953 703.773C227.196 725.164 223.403 746.678 219.735 768.228C215.995 768.281 212.256 768.387 208.517 768.511C198.096 769.362 187.623 769.451 177.202 770.354C147.518 772.995 115.779 775.955 90.5427 792.844C89.3554 792.17 87.8667 791.514 86.3249 791.036C86.449 789.778 86.449 788.502 86.4313 787.403C86.5907 782.795 86.6794 778.524 86.8743 773.863C87.087 764.843 88.7174 755.946 89.6566 746.997C91.2516 728.867 92.1022 710.667 92.3858 692.467C92.7579 656.243 93.2187 620.001 95.2922 583.831C95.6289 578.071 95.9301 572.294 96.444 566.552C127.847 565.524 159.268 562.636 190.582 566.623C207.046 567.881 224.342 572.17 236.73 583.654C238.502 585.904 240.044 588.297 241.444 590.778C241.196 591.239 241.001 591.753 240.895 592.143C240.328 593.897 240.664 595.687 241.16 597.371Z" fill="#E2E2E2"/>
<path d="M168.66 829.758C176.423 831.141 184.451 832.576 192.177 833.427C166.215 824.814 138.268 819.799 114.609 805.603C113.351 804.576 110.072 804.327 110.923 802.183C109.665 802.059 108.229 802.786 108.105 804.221C107.077 819.745 156.432 826.958 168.66 829.758ZM218.353 776.486C215.393 794.031 212.54 811.593 209.881 829.156C206.213 857.777 199.177 886.557 202.722 915.515C202.828 916.295 202.952 917.057 203.076 917.819C189.058 911.315 174.261 906.087 159.64 901.16C136.549 893.646 112.713 887.443 91.7656 874.719C78.1198 865.698 66.7423 849.04 71.5981 832.115C74.788 820.419 81.5223 809.821 91.4642 802.732C119.925 781.838 156.858 780.421 190.955 778.436C200.099 778.134 209.208 777 218.353 776.486Z" fill="#E2E2E2"/>
<path d="M1071.09 524.375C1075.82 549.895 1072.38 575.928 1067.79 601.235C1060.12 641.765 1046.79 680.842 1033.54 719.83C1028.08 738.173 1020.12 755.558 1013.21 773.368C1010.29 780.475 1007.82 787.865 1007.56 795.592C998.006 790.718 987.993 786.66 977.75 783.151C977.856 782.991 977.945 782.832 978.034 782.655C979.948 777.48 981.011 772.004 982.73 766.74C990.935 740.352 998.804 713.876 1005.41 687.045C1010.43 667.037 1014.52 646.834 1019.17 626.737C1024.06 606.357 1028.4 585.374 1025.72 564.356C1023.45 549.239 1022.55 531.34 1010 520.813C1006.96 518.757 1002.38 514.787 998.378 515.372C995.011 513.724 991.538 512.271 987.976 511.083C962.439 503.764 935.466 503.126 909.114 501.035C859.138 498.271 809.783 495.843 759.577 496.463C754.384 496.498 749.21 496.357 744.017 496.463C742.511 496.427 740.685 496.428 739.126 496.853C739.161 487.425 738.931 477.997 738.382 468.551C742.334 469.632 746.285 470.961 750.415 471.085C755.076 471.315 759.754 471.245 764.415 471.581C783.306 473.017 802.907 472.379 821.94 473.105C856.799 474.204 891.534 477.766 926.339 479.964C967.099 482.764 1008.6 484.625 1047.56 498.093C1052.52 499.724 1057.69 501.78 1062.18 504.792C1062.21 504.828 1062.27 504.863 1062.3 504.881C1062.76 506.493 1063.9 508.089 1064.94 509.276C1068.06 513.795 1069.94 519.005 1071.09 524.375Z" fill="#949494"/>
<path d="M326.828 955.993C329.982 957.659 333.243 959.024 336.592 960.229C329.256 961.398 321.954 962.763 314.741 964.393C303.559 965.51 292.376 967.814 281.229 969.036C273.095 969.763 265.049 968.239 257.039 966.945C239.76 965.102 227.497 953.813 220.036 938.696C217.626 933.858 215.8 928.914 214.489 923.863C215.056 924.058 215.641 924.271 216.226 924.466C215.606 924.129 215.003 923.792 214.383 923.456C207.826 898.042 213.479 870.36 217.041 844.699C224.591 792.083 234.072 739.75 243.606 687.24C247.664 662.748 252.839 637.725 251.085 612.825C251.51 613.871 251.935 614.917 252.361 615.962C251.049 603.273 251.35 589.308 244.882 577.771C239.92 569.743 230.793 565.614 222.482 561.892C213.018 557.657 202.615 556.576 192.408 555.53C177.273 553.953 162.015 552.996 146.774 553.297C126.039 554.006 105.358 555.637 84.6058 556.08C76.1348 555.956 38.5823 559.252 37.5013 548.955C41.8608 533.254 61.4256 526.112 75.9398 522.957C77.9069 522.213 80.4057 522.479 82.5855 522.178C83.4538 523.879 84.6945 525.492 85.7932 526.59C92.563 533.821 101.938 538.251 111.543 540.325C130.151 543.745 149.237 542.611 168.093 543.054C194.198 544.241 220.479 542.664 246.371 546.935C263.525 549.913 282.523 550.923 296.736 562.336C310.258 574.829 311.481 599.605 310.63 621.988C309.106 627.499 307.759 633.081 306.43 638.699C301.982 655.766 297.498 672.832 292.837 689.827C285.04 720.805 275.931 751.411 267.92 782.318C262.728 802.574 256.49 822.653 252.945 843.264C250.057 863.573 247.966 884.219 249.011 904.741C249.826 914.524 250.482 924.732 254.842 933.681C264.553 952.98 288.3 956.259 307.706 957.553C313.696 957.659 319.579 956.631 325.357 955.125C325.835 955.426 326.331 955.709 326.828 955.993Z" fill="#949494"/>
<path d="M210.98 1042.26C216.261 1041.84 231.608 1039.13 226.947 1048.86C220.195 1059.03 187.959 1082.67 175.802 1083.59C162.529 1083.33 150.23 1077.92 137.647 1074.23C137.594 1073.83 137.559 1073.4 137.541 1072.96C137.612 1072.6 137.647 1072.25 137.63 1071.89C142.84 1070.64 147.447 1067.29 152.161 1064.73C158.364 1061.46 164.726 1058.55 171.071 1055.52C184.149 1050.49 197.334 1045.52 210.98 1042.26Z" fill="#949494"/>
<path d="M442.445 992.323C442.498 992.341 442.551 992.359 442.604 992.359C442.445 992.748 442.285 993.121 442.108 993.493C435.073 1010.63 421.161 1020.39 402.961 1022.96C382.492 1026.12 361.775 1025.46 341.094 1025.8C322.468 1026.51 304.232 1030.5 286.103 1034.55C270.88 1038.28 254.718 1042.17 241.816 1051.3C241.355 1048.84 240.203 1046.36 238.219 1043.89C237.811 1043.49 237.386 1043.1 236.96 1042.74C236.376 1039.69 234.781 1036.93 232.193 1035.1C252.644 1030.16 272.687 1023.14 293.404 1019.4C306.713 1017.29 321.316 1015.8 334.98 1014.6C352.4 1013.22 369.874 1012.26 387.224 1010.17C401.578 1008.33 418.52 1006.87 427.222 993.652C428.285 992.11 429.278 990.498 430.394 988.974C434.381 990.143 438.404 991.26 442.445 992.323Z" fill="#949494"/>
<path d="M231.732 1057.43C231.36 1058.21 230.97 1058.98 230.527 1059.7C223.474 1068.65 214.383 1075.24 204.795 1082.14C190.83 1093.36 172.967 1104.38 155.599 1093.16C150.283 1090.02 143.885 1086.39 140.323 1081.16C147.341 1087.21 156.326 1089.81 166.162 1091.09C172.896 1092.31 180.02 1092.47 186.205 1089.07C196.005 1084.8 204.76 1078.59 213.621 1072.69C219.965 1068.01 226.504 1063.33 231.732 1057.43Z" fill="#949494"/>
<path d="M564.867 1097.75C563.822 1138.64 566.693 1179.86 566.338 1220.78C565.984 1230.22 565.381 1239.67 564.814 1249.1C564.318 1252.68 564.123 1257.02 566.32 1259.96C561.801 1263.36 557.123 1266.62 552.302 1269.6C541.138 1275.4 527.811 1278.9 515.317 1275.86C499.97 1271.48 490.666 1264.57 490.967 1247.54C488.965 1221.82 489.443 1195.97 488.734 1170.16C488.043 1151.24 487.671 1132.29 488.681 1113.36C489.248 1094.86 488.752 1076.36 489.39 1057.84C489.833 1044.05 490.046 1030.99 489.709 1017.04C490.099 1011.59 489.195 1005.49 487.919 999.784C508.441 1003.17 529.087 1005.58 549.928 1005.31C554.535 1005.53 559.32 1005.22 563.91 1004.23C563.68 1004.83 563.52 1005.45 563.449 1006.08C563.325 1036.63 565.31 1067.2 564.867 1097.75Z" fill="#949494"/>
<path d="M973.16 1478.15C968.269 1477.05 963.059 1477 957.689 1478.29C955.828 1475.74 952.55 1475.23 949.608 1475.46C945.922 1475.69 942.431 1476.61 939.134 1478.03C938.62 1476.1 937.876 1474.2 937.238 1472.38C928.803 1450.01 919.056 1427.79 903.23 1409.55C890.045 1394.66 874.645 1381.73 857.827 1371.15C809.641 1341.68 752.595 1332.03 697.072 1327.71C668.31 1324.54 639.6 1320.76 610.767 1318.37C604.121 1317.79 597.475 1317.33 590.83 1317.01C587.888 1312.84 586.328 1307.81 585.637 1302.79C584.326 1295.01 587.019 1287.39 590.209 1280.53C581.916 1285.5 576.493 1294.45 576.333 1304.18C576.05 1311.18 578.105 1319.2 583.511 1323.94C583.103 1324.02 582.678 1324.13 582.27 1324.22C574.153 1326.06 565.753 1326.38 557.637 1328.03C557.282 1328.17 556.963 1328.33 556.68 1328.51C555.953 1325.97 555.173 1323.44 554.305 1320.91C551.806 1314.42 550.176 1306.16 543.69 1302.49C542.201 1301.75 540.588 1301.38 538.976 1301.27C538.798 1305.75 540.89 1309.99 542.892 1313.92C558.984 1352.79 555.687 1394.72 554.73 1436.06C554.606 1455.49 554.677 1474.93 553.596 1494.33C553.525 1513.84 551.558 1533.23 549.821 1552.64C548.581 1564.12 548.156 1575.73 549.095 1587.21C548.864 1593.82 548.687 1600.43 548.031 1607.01C547.943 1608.62 547.837 1610.23 547.748 1611.83C546.242 1615.5 543.247 1617.38 538.852 1618C531.603 1619.24 524.231 1618.53 516.947 1618.17C509.274 1617.98 501.583 1618.05 493.962 1617.13C493.749 1615.99 493.537 1614.86 493.342 1613.73C493.501 1607.65 493.625 1601.51 493.767 1595.47C494.175 1577.82 492.296 1560.26 491.41 1542.66C491.286 1521.16 490.843 1499.68 489.798 1478.22C488.982 1458.13 489.337 1437.99 488.965 1417.88C488.841 1399.41 488.451 1381.05 490.737 1362.68C492.722 1345.8 495.256 1328.61 503.053 1313.23C504.578 1310.52 506.438 1307.37 508.565 1304.39C510.816 1301.55 514.094 1298.59 513.137 1294.57C505.659 1289.93 497.613 1305.97 494.458 1311.48C491.322 1318.48 488.841 1325.73 486.909 1333.15C476.418 1329.89 466.334 1325.51 456.817 1320.05C457.544 1318.96 458.058 1317.91 458.324 1317.02C460.362 1311.07 458.377 1304.5 454.372 1299.82C452.883 1298.04 451.111 1296.72 449.215 1295.42C449.197 1296.24 449.427 1297.19 449.445 1298.06C450.491 1309.24 448.63 1316.12 439.592 1323.32C437.465 1324.89 435.179 1325.87 433.442 1327.73C409.075 1326.54 384.636 1331.57 360.393 1333.95C329.45 1336.5 298.88 1342.4 269.019 1350.86C231.431 1360.46 194.393 1374.66 163.716 1399.01C147.182 1411.13 134.599 1427.54 125.26 1445.67C123.133 1449.8 113.741 1466.21 110.675 1477.73C105.075 1473.9 98.5529 1471.31 91.6945 1471.84C86.502 1470.94 81.2564 1471.35 76.1879 1472.8C79.5551 1467.48 82.1957 1461.72 83.5425 1455.5C85.9704 1447.3 89.3021 1439.43 93.3958 1431.93C104.171 1412.53 118.065 1394.93 134.936 1380.45C162.351 1356.05 193.134 1334.83 227.763 1322.11C255.196 1312.31 283.87 1306.91 312.473 1301.8C341.005 1297.39 370.051 1293.14 398.92 1290.83C410.032 1289.77 421.161 1289.08 432.308 1288.76C435.179 1288.67 438.635 1288.51 442.073 1288.72C443.26 1288.88 444.323 1289.04 445.475 1288.55C447.797 1287.52 448.683 1284.84 447.265 1282.68C446.078 1280.85 444.058 1280.57 442.055 1280.36C437.837 1279.95 433.566 1280.23 429.331 1280.29C417.758 1280.41 406.186 1281.12 394.685 1282.34C361.119 1285.43 327.696 1290.23 294.485 1295.97C309.602 1284.7 324.382 1272.74 341.998 1265.72C356.636 1259.69 372.674 1257.92 388.393 1257.62C402.978 1257.25 417.581 1256.95 432.113 1258.77C437.252 1259.43 442.374 1260.24 447.425 1261.43C447.886 1261.55 448.364 1261.64 448.842 1261.64C447.62 1263.11 446.539 1264.71 445.617 1266.41C456.108 1259.69 469.045 1257.28 481.504 1257.2C481.858 1257.21 482.195 1257.2 482.532 1257.16C482.798 1258.88 483.152 1260.6 483.63 1262.28C487.317 1272.83 497.436 1279.58 507.697 1282.91C518.932 1287.07 531.355 1286.51 542.609 1282.71C551.611 1280.22 560.986 1276.21 566.214 1268.06C567.561 1266.02 568.607 1263.73 569.351 1261.4C571.672 1260.4 572.842 1258.42 573.427 1256.06C573.799 1256.11 574.207 1256.13 574.614 1256.1C585.265 1257.39 595.207 1261.96 603.962 1268.02C602.508 1265.51 600.736 1263.06 598.698 1260.79C600.612 1260.47 602.544 1260.03 604.139 1259.96C609.296 1259.29 614.471 1258.61 619.628 1258.03C635.985 1256.52 652.36 1254.45 668.806 1254.89C693.368 1255.95 718.338 1260.08 741.27 1269.18C751.974 1273.46 762.714 1280.45 771.645 1288.05C778.149 1292.69 784.937 1296.93 791.813 1300.99C776.838 1297.64 761.739 1294.78 746.87 1291.7C711.125 1284.47 674.725 1280.84 638.413 1277.66C627.142 1276.71 615.817 1275.87 604.493 1275.47C600.045 1275.54 595.154 1276.32 591.485 1279.01C591.149 1279.29 590.759 1279.9 591.202 1280.23C591.29 1280.25 591.22 1280.13 591.237 1280.07C592.779 1279.72 594.445 1280.91 596.058 1281.21C599.744 1282.45 603.589 1282.91 607.471 1283C620.354 1283.69 633.22 1284.86 646.069 1286.05C681.069 1289.02 716.034 1293.61 750.397 1300.92C796.279 1311 844.411 1320 883.452 1347.68C901.972 1361.19 919.747 1376.27 934.048 1394.27C944.043 1408.04 951.327 1423.52 957.689 1439.24C962.173 1452.42 967.082 1465.57 973.16 1478.15Z" fill="#949494"/>
<path d="M562.085 1555.79C575.784 1572.61 581.685 1591.27 578.992 1612.91C577.078 1624.96 573.462 1641.99 559.356 1644.51C558.629 1638.47 558.789 1632.39 558.984 1626.33C559.639 1609.01 559.781 1591.7 559.001 1574.4C558.877 1572.73 558.647 1571.09 558.363 1569.47C558.381 1563.64 558.434 1557.83 558.842 1552C558.842 1551.93 558.859 1551.86 558.859 1551.79C559.958 1553.12 561.039 1554.45 562.085 1555.79Z" fill="#949494"/>
<path d="M488.61 1610.2C487.387 1621.86 486.891 1633.59 486.944 1645.32C471.154 1632.63 466.493 1610.87 465.643 1591.56C464.987 1577.06 470.091 1561.39 482.833 1553.35C483.028 1553.26 483.24 1553.17 483.435 1553.1C483.63 1556.25 483.861 1559.41 484.162 1562.54C484.906 1578.49 485.686 1594.53 488.61 1610.2Z" fill="#949494"/>
<path d="M984.042 1503.32C1003.96 1527.33 986.788 1559.73 956.75 1561.27C929.689 1563.11 903.159 1531.58 921.324 1507.09C926.729 1499.05 933.393 1491.64 941.97 1486.92C959.036 1486.73 972.469 1490.03 984.042 1503.32Z" fill="#949494"/>
<path d="M1009.84 1489.32C1018.95 1501.6 1017.59 1513.42 1010.75 1526.3C1009.58 1528.66 1008.3 1531 1006.8 1533.2C1007.4 1530.4 1007.74 1527.51 1007.81 1524.55C1007.68 1504.97 994.054 1484.21 975.393 1478.74C975.251 1475.12 974.95 1471.54 974.489 1467.98C977.608 1469.49 981.436 1469.73 984.821 1470.8C995.153 1473.63 1003.62 1480.72 1009.84 1489.32Z" fill="#949494"/>
<path d="M832.325 1368.1C841.15 1377.72 843.507 1392.5 838.988 1404.69C833.176 1420.79 818.484 1432.22 801.418 1423.92C781.091 1412.62 778.61 1388.07 791.76 1370.07C794.258 1366.47 796.881 1363 800.107 1360.02C801.205 1358.81 802.836 1357.82 804.254 1356.7C814.018 1360.04 823.393 1363.83 832.325 1368.1Z" fill="#949494"/>
<path d="M780.985 1415.86C782.403 1417.99 783.98 1420.06 785.716 1422.01C780.294 1421.99 775.261 1419.62 770.688 1416.75C754.597 1407.8 754.367 1384.24 763.316 1370C764.982 1367.21 766.79 1364.54 768.704 1361.91C769.59 1360.87 770.635 1359.61 771.362 1358.26C774.339 1362.96 777.458 1367.55 781.446 1371.41C773.914 1385.02 772.23 1402.43 780.985 1415.86Z" fill="#949494"/>
<path d="M795.127 1353.73C790.519 1358 786.142 1363.9 784.848 1366.06C784.511 1366.54 784.175 1367 783.856 1367.5C783.36 1360.67 780.719 1354.13 776.608 1348.59C782.899 1350.15 789.084 1351.85 795.127 1353.73Z" fill="#949494"/>
<path d="M315.22 1380.34C321.086 1396.95 319.615 1413.77 302.106 1422.01C298.491 1423.75 294.503 1424.45 290.693 1425.62C300.121 1409.07 297.09 1388.9 286.032 1374.83C291.278 1371.32 296.063 1367.16 300.617 1362.76C300.653 1362.73 300.706 1362.68 300.741 1362.62C307.883 1366.01 312.384 1372.25 315.22 1380.34Z" fill="#949494"/>
<path d="M279.599 1390.91C286.599 1404.78 285.075 1425.15 269.32 1432.09C259.113 1437.29 245.786 1435.07 238.272 1426.28C229.73 1413.82 227.745 1396.99 231.927 1382.6C233.239 1379.09 234.958 1375.7 237.492 1372.92C238.059 1372.33 238.697 1371.75 239.282 1371.11C247.487 1368.38 255.816 1365.94 264.11 1363.63C270.809 1371.64 276.09 1381 279.599 1390.91Z" fill="#949494"/>
<path d="M296.275 1354.97C291.207 1360.2 287.716 1366.49 284.543 1373.04C280.591 1368.49 275.753 1364.68 270.189 1361.98C278.872 1359.4 287.556 1357.06 296.275 1354.97Z" fill="#949494"/>
<path d="M110.639 1504.47C114.928 1514.52 114.839 1526.16 111.419 1536.46C106.723 1548.77 93.2719 1555.6 80.583 1555.85C67.6638 1556.22 56.7826 1546.24 51.3951 1535.18C40.4962 1513.44 61.7801 1485.45 83.383 1480.6C95.3984 1483.95 104.312 1494.19 110.639 1504.47Z" fill="#949494"/>
<path d="M69.1701 1466.62C69.2056 1469.42 69.6131 1472.18 70.5169 1474.82C54.5495 1481.84 41.1341 1498.48 37.324 1515.16C37.2885 1514.85 37.2353 1514.57 37.1999 1514.27C33.4074 1500.09 39.8936 1485.24 51.0584 1476.22C55.9141 1472.41 61.2307 1469.1 67.1143 1467.15C67.8055 1466.95 68.479 1466.77 69.1701 1466.62Z" fill="#949494"/>
</svg>
